<?xml version="1.0" standalone="no"?>
<!DOCTYPE svg PUBLIC "-//W3C//DTD SVG 1.1//EN" "http://www.w3.org/Graphics/SVG/1.1/DTD/svg11.dtd" >
<svg xmlns="http://www.w3.org/2000/svg" xmlns:xlink="http://www.w3.org/1999/xlink" version="1.1">
<metadata>
Created by FontForge 20170731 at Tue Dec 10 00:02:56 2013
 By Aleksey,,,
Copyright (c) 2013 by Nikola &#38; Zoran Kostic. All rights reserved.
</metadata>
<defs>
<font id="Argumentum-MediumItalic" horiz-adv-x="500" >
  <font-face 
    font-family="Argumentum Md"
    font-weight="600"
    font-style="italic"
    font-stretch="normal"
    units-per-em="1000"
    panose-1="2 11 0 0 0 0 0 0 0 0"
    ascent="751"
    descent="-249"
    x-height="480"
    cap-height="676"
    bbox="-78 -313 1106 937"
    underline-thickness="50"
    underline-position="-200"
    unicode-range="U+0020-FFFB"
  />
<missing-glyph horiz-adv-x="470" 
d="M117 59h235v616h-235v-616zM59 0v733h353v-733h-353z" />
    <glyph glyph-name="f_f" unicode="ff" horiz-adv-x="565" 
d="M465 0h-119l75 384h-154l-75 -384h-119l75 384h-64l20 96h63l16 83q16 80 57.5 114t121.5 34q29 0 59 -6l-22 -97q-16 2 -34 2q-29 0 -43.5 -12t-21.5 -45l-14 -73h154l16 83q16 80 57.5 114t121.5 34q14 0 31 -2t27 -4l10 -2l-24 -96q-21 3 -41 3q-29 0 -43.5 -12
t-21.5 -45l-14 -73h93l-20 -96h-92z" />
    <glyph glyph-name="fi" unicode="fi" horiz-adv-x="514" 
d="M192 0h-119l75 384h-64l20 96h63l16 83q15 79 66 113.5t140 34.5q71 0 142 -21l-25 -95q-59 15 -113 15q-47 0 -67 -13.5t-27 -49.5l-13 -67h261l-93 -480h-118l74 384h-143z" />
    <glyph glyph-name="fl" unicode="fl" horiz-adv-x="549" 
d="M550 87l-29 -97q-150 8 -150 117q0 39 13 105l76 394q-50 4 -67 4q-46 0 -66 -12t-27 -45l-14 -73h93l-20 -96h-92l-75 -384h-119l75 384h-64l20 96h63l16 82q16 81 69 115t154 34q40 0 87.5 -3.5t74.5 -7.5l28 -4l-92 -479q-13 -65 -13 -80q0 -32 40 -44z" />
    <glyph glyph-name="f_f_i" unicode="ffi" horiz-adv-x="787" 
d="M465 0h-119l75 384h-154l-75 -384h-119l75 384h-64l20 96h63l16 83q16 80 57.5 114t121.5 34q29 0 59 -6l-22 -97q-16 2 -34 2q-29 0 -43.5 -12t-21.5 -45l-14 -73h154l16 83q15 79 66 113.5t140 34.5q71 0 142 -21l-25 -95q-59 15 -113 15q-47 0 -67 -13.5t-27 -49.5
l-13 -67h261l-93 -480h-118l74 384h-143z" />
    <glyph glyph-name="f_f_l" unicode="ffl" horiz-adv-x="822" 
d="M823 87l-29 -97q-150 8 -150 117q0 39 13 105l76 394q-50 4 -67 4q-46 0 -66 -12t-27 -45l-14 -73h93l-20 -96h-92l-75 -384h-119l75 384h-154l-75 -384h-119l75 384h-64l20 96h63l16 83q16 80 57.5 114t121.5 34q29 0 59 -6l-22 -97q-16 2 -34 2q-29 0 -43.5 -12
t-21.5 -45l-14 -73h154l16 82q16 81 69 115t154 34q40 0 87.5 -3.5t75.5 -7.5l27 -4l-92 -479q-13 -65 -13 -80q0 -32 40 -44z" />
    <glyph glyph-name="f_t" unicode="ft" horiz-adv-x="581" 
d="M548 90l21 -5l-27 -95q-170 0 -170 114q0 25 13 92l36 188h-154l-75 -384h-119l75 384h-64l20 96h63l16 83q16 80 57.5 114t121.5 34q29 0 59 -6l-22 -97q-16 2 -34 2q-29 0 -43.5 -12t-21.5 -45l-14 -73h154l24 120l123 27l-29 -147h91l-19 -96h-91l-39 -205
q-6 -34 -6 -45q0 -18 12 -27.5t42 -16.5z" />
    <glyph glyph-name="f_f_t" unicode="fft" horiz-adv-x="854" 
d="M821 90l21 -5l-27 -95q-170 0 -170 114q0 25 13 92l36 188h-154l-75 -384h-119l75 384h-154l-75 -384h-119l75 384h-64l20 96h63l16 83q16 80 57.5 114t121.5 34q29 0 59 -6l-22 -97q-16 2 -34 2q-29 0 -43.5 -12t-21.5 -45l-14 -73h154l16 83q16 80 57.5 114t121.5 34
q29 0 59 -6l-22 -97q-16 2 -34 2q-29 0 -43.5 -12t-21.5 -45l-14 -73h154l24 120l123 27l-29 -147h91l-19 -96h-91l-39 -205q-6 -34 -6 -45q0 -18 12 -27.5t42 -16.5z" />
    <glyph glyph-name="f_b" unicode="fb" horiz-adv-x="788" 
d="M806 345q0 -79 -25.5 -164.5t-77.5 -134.5q-61 -56 -161 -56q-72 0 -116.5 40.5t-44.5 115.5q0 44 12 108l68 352q-52 4 -68 4q-46 0 -66 -12t-27 -45l-14 -73h93l-20 -96h-92l-75 -384h-119l75 384h-64l20 96h63l16 82q16 81 69 115t154 34q40 0 87.5 -3.5t74.5 -7.5
l28 -4l-45 -235l-11 -36l5 -3q55 68 134 68q57 0 92 -38t35 -107zM560 91q40 0 68 33q27 31 42 87t15 102q0 77 -64 77q-41 0 -69 -33t-38 -84l-14 -71q-22 -111 60 -111z" />
    <glyph glyph-name="f_h" unicode="fh" horiz-adv-x="790" 
d="M798 310l-60 -310h-119l59 302q4 19 4 37q0 50 -52 50q-43 0 -75 -34.5t-44 -95.5l-50 -259h-118l117 606q-50 4 -67 4q-46 0 -66 -12t-27 -45l-14 -73h93l-20 -96h-92l-75 -384h-119l75 384h-64l20 96h63l16 82q16 81 69 115t154 34q40 0 87.5 -3.5t74.5 -7.5l28 -4
l-53 -268h6q59 62 136 62q55 0 87.5 -31t32.5 -82q0 -32 -7 -67z" />
    <glyph glyph-name="f_j" unicode="fj" horiz-adv-x="514" 
d="M192 0h-119l75 384h-64l20 96h63l16 83q15 79 66 113.5t140 34.5q71 0 142 -21l-25 -95q-59 15 -113 15q-47 0 -67 -13.5t-27 -49.5l-13 -67h261l-101 -525q-21 -105 -65 -148t-135 -43q-31 0 -47 2l20 99h31q32 0 49.5 19.5t25.5 61.5l85 438h-143z" />
    <glyph glyph-name="f_k" unicode="fk" horiz-adv-x="774" 
d="M833 480l-192 -238l129 -242h-130l-113 213h-25l-41 -213h-118l117 606q-50 4 -67 4q-46 0 -66 -12t-27 -45l-14 -73h93l-20 -96h-92l-75 -384h-119l75 384h-64l20 96h63l16 82q16 81 69 115t154 34q40 0 87.5 -3.5t74.5 -7.5l28 -4l-78 -401h27l149 185h139z" />
    <glyph glyph-name="f_y" unicode="fy" horiz-adv-x="724" 
d="M677 480h125l-221 -533q-44 -107 -101 -145t-164 -38h-61l18 104h75q43 0 68 19t47 74l15 39h-41q-36 197 -70 384h-100l-75 -384h-119l75 384h-64l20 96h63l16 83q16 80 57.5 114t121.5 34q14 0 31 -2t27 -4l10 -2l-24 -96q-21 3 -41 3q-29 0 -43.5 -12t-21.5 -45
l-14 -73h183l48 -276l9 -87h11q14 57 29 94z" />
    <glyph glyph-name="f_f_b" unicode="ffb" horiz-adv-x="1061" 
d="M1079 345q0 -79 -25.5 -164.5t-77.5 -134.5q-61 -56 -161 -56q-72 0 -116.5 40.5t-44.5 115.5q0 44 12 108l68 352q-52 4 -68 4q-46 0 -66 -12t-27 -45l-14 -73h93l-20 -96h-92l-75 -384h-119l75 384h-154l-75 -384h-119l75 384h-64l20 96h63l16 83q16 80 57.5 114
t121.5 34q29 0 59 -6l-22 -97q-16 2 -34 2q-29 0 -43.5 -12t-21.5 -45l-14 -73h154l16 82q16 81 69 115t154 34q40 0 87.5 -3.5t75.5 -7.5l27 -4l-45 -235l-11 -36l5 -3q55 68 134 68q57 0 92 -38t35 -107zM833 91q40 0 68 33q27 31 42 87t15 102q0 77 -64 77q-41 0 -69 -33
t-38 -84l-14 -71q-22 -111 60 -111z" />
    <glyph glyph-name="f_f_h" unicode="ffh" horiz-adv-x="1063" 
d="M1071 310l-60 -310h-119l59 302q4 19 4 37q0 50 -52 50q-43 0 -75 -34.5t-44 -95.5l-50 -259h-118l117 606q-50 4 -67 4q-46 0 -66 -12t-27 -45l-14 -73h93l-20 -96h-92l-75 -384h-119l75 384h-154l-75 -384h-119l75 384h-64l20 96h63l16 83q16 80 57.5 114t121.5 34
q29 0 59 -6l-22 -97q-16 2 -34 2q-29 0 -43.5 -12t-21.5 -45l-14 -73h154l16 82q16 81 69 115t154 34q40 0 87.5 -3.5t75.5 -7.5l27 -4l-53 -268h6q59 62 136 62q55 0 87.5 -31t32.5 -82q0 -32 -7 -67z" />
    <glyph glyph-name="f_f_j" unicode="ffj" horiz-adv-x="787" 
d="M465 0h-119l75 384h-154l-75 -384h-119l75 384h-64l20 96h63l16 83q16 80 57.5 114t121.5 34q29 0 59 -6l-22 -97q-16 2 -34 2q-29 0 -43.5 -12t-21.5 -45l-14 -73h154l16 83q15 79 66 113.5t140 34.5q71 0 142 -21l-25 -95q-59 15 -113 15q-47 0 -67 -13.5t-27 -49.5
l-13 -67h261l-101 -525q-21 -105 -65 -148t-135 -43q-31 0 -47 2l20 99h31q32 0 49.5 19.5t25.5 61.5l85 438h-143z" />
    <glyph glyph-name="f_f_k" unicode="ffk" horiz-adv-x="1047" 
d="M1106 480l-192 -238l129 -242h-130l-113 213h-25l-41 -213h-118l117 606q-50 4 -67 4q-46 0 -66 -12t-27 -45l-14 -73h93l-20 -96h-92l-75 -384h-119l75 384h-154l-75 -384h-119l75 384h-64l20 96h63l16 83q16 80 57.5 114t121.5 34q29 0 59 -6l-22 -97q-16 2 -34 2
q-29 0 -43.5 -12t-21.5 -45l-14 -73h154l16 82q16 81 69 115t154 34q40 0 87.5 -3.5t75.5 -7.5l27 -4l-78 -401h27l149 185h139z" />
    <glyph glyph-name="f_f_y" unicode="ffy" horiz-adv-x="997" 
d="M465 0h-119l75 384h-154l-75 -384h-119l75 384h-64l20 96h63l16 83q16 80 57.5 114t121.5 34q29 0 59 -6l-22 -97q-16 2 -34 2q-29 0 -43.5 -12t-21.5 -45l-14 -73h154l16 83q16 80 57.5 114t121.5 34q14 0 31 -2t27 -4l10 -2l-24 -96q-21 3 -41 3q-29 0 -43.5 -12
t-21.5 -45l-14 -73h183l48 -276l9 -87h11q14 57 29 94l111 269h125l-221 -533q-44 -107 -101 -145t-164 -38h-61l18 104h75q43 0 68 19t47 74l15 39h-41q-36 197 -70 384h-100z" />
    <glyph glyph-name="t_t" unicode="tt" horiz-adv-x="584" 
d="M551 90l21 -5l-27 -95q-170 0 -170 114q0 25 13 92l36 188h-158l-39 -205q-6 -34 -6 -45q0 -18 12 -27.5t42 -16.5l21 -5l-27 -95q-170 0 -170 114q0 25 13 92l36 188h-64l19 96h64l24 120l123 27l-29 -147h158l24 120l123 27l-29 -147h91l-19 -96h-91l-39 -205
q-6 -34 -6 -45q0 -18 12 -27.5t42 -16.5z" />
    <glyph glyph-name="t_y" unicode="ty" horiz-adv-x="743" 
d="M696 480h125l-221 -533q-44 -107 -101 -145t-164 -38h-61l18 104h75q43 0 68 19t47 74l15 39h-41l-70 384h-120l-39 -205q-6 -34 -6 -45q0 -18 12 -27.5t42 -16.5l21 -5l-27 -95q-170 0 -170 114q0 25 13 92l36 188h-64l19 96h64l24 120l123 27l-29 -147h203l48 -276
l9 -87h11q14 57 29 94z" />
    <glyph glyph-name="t_t_y" unicode="tty" horiz-adv-x="1020" 
d="M972 480h125l-221 -533q-44 -107 -101 -145t-164 -38h-61l18 104h75q43 0 68 19t47 74l15 39h-41l-70 384h-120l-39 -205q-6 -34 -6 -45q0 -18 12 -27.5t42 -16.5l21 -5l-27 -95q-170 0 -170 114q0 25 13 92l36 188h-158l-39 -205q-6 -34 -6 -45q0 -18 12 -27.5t42 -16.5
l21 -5l-27 -95q-170 0 -170 114q0 25 13 92l36 188h-64l19 96h64l24 120l123 27l-29 -147h158l24 120l123 27l-29 -147h203l48 -276l9 -87h11q14 57 29 94z" />
    <glyph glyph-name="T_i" unicode="Ti" horiz-adv-x="636" 
d="M616 676l-18 -98h-180l-113 -578h-122l113 578h-180l19 98h481zM669 480l-93 -480h-118l93 480h118z" />
    <glyph glyph-name="f_t_y" unicode="fty" horiz-adv-x="1016" 
d="M548 90l21 -5l-27 -95q-170 0 -170 114q0 25 13 92l36 188h-154l-75 -384h-119l75 384h-64l20 96h63l16 83q16 80 57.5 114t121.5 34q29 0 59 -6l-22 -97q-16 2 -34 2q-29 0 -43.5 -12t-21.5 -45l-14 -73h154l24 120l123 27l-29 -147h203l48 -276l9 -87h11q14 57 29 94
l111 269h125l-221 -533q-44 -107 -101 -145t-164 -38h-61l18 104h75q43 0 68 19t47 74l15 39h-41l-70 384h-120l-39 -205q-6 -34 -6 -45q0 -18 12 -27.5t42 -16.5z" />
    <glyph glyph-name=".notdef" horiz-adv-x="470" 
d="M117 59h235v616h-235v-616zM59 0v733h353v-733h-353z" />
    <glyph glyph-name=".null" horiz-adv-x="0" 
 />
    <glyph glyph-name="nonmarkingreturn" horiz-adv-x="333" 
 />
    <glyph glyph-name="space" unicode=" " horiz-adv-x="235" 
 />
    <glyph glyph-name="exclam" unicode="!" horiz-adv-x="257" 
d="M312 610l-107 -386h-68l45 400q8 68 80 68q56 0 56 -44q0 -18 -6 -38zM209 59q0 -32 -19.5 -50.5t-50.5 -18.5q-30 0 -50 18.5t-20 50.5q0 33 20 51.5t50 18.5q31 0 50.5 -18.5t19.5 -51.5z" />
    <glyph glyph-name="quotedbl" unicode="&#x22;" horiz-adv-x="373" 
d="M281 625l-63 -181h-58l8 196q3 71 71 71q51 0 51 -42q0 -20 -9 -44zM453 625l-63 -181h-58l8 196q3 71 72 71q51 0 51 -42q0 -17 -10 -44z" />
    <glyph glyph-name="numbersign" unicode="#" horiz-adv-x="539" 
d="M371 281l39 111h-104l-38 -111h103zM599 484l-18 -92h-86l-39 -111h82l-18 -92h-96l-64 -189h-85l65 189h-103l-68 -189h-83l65 189h-80l18 92h95l37 111h-88l18 92h102l67 194h84l-66 -194h103l67 194h84l-67 -194h74z" />
    <glyph glyph-name="dollar" unicode="$" horiz-adv-x="526" 
d="M524 198q0 -86 -59.5 -147.5t-171.5 -65.5l-15 -77h-84l16 84q-92 16 -154 63q1 2 44 94q66 -43 130 -55l42 217l-33 17q-118 61 -118 163q0 80 59.5 137.5t165.5 61.5l15 77h84l-16 -82q67 -12 122 -45l-48 -95q-43 24 -95 34q-6 -30 -18 -94t-19 -97l30 -15
q123 -62 123 -175zM402 195q0 45 -54 77l-34 -179q43 8 65.5 35.5t22.5 66.5zM243 500q0 -47 52 -73l30 156q-40 -5 -61 -27.5t-21 -55.5z" />
    <glyph glyph-name="percent" unicode="%" horiz-adv-x="694" 
d="M292 449q15 14 25.5 57t10.5 72q0 38 -36 38q-20 0 -35 -12q-16 -14 -25.5 -56t-9.5 -74q0 -37 35 -37q22 0 35 12zM406 591q0 -49 -18 -106.5t-50 -86.5q-35 -32 -95 -32q-47 0 -73.5 24.5t-26.5 70.5q0 48 17 105.5t46 84.5q39 36 100 36q47 0 73.5 -25t26.5 -71z
M612 703h84l-475 -723h-84zM577 73q15 14 25.5 57t10.5 72q0 38 -36 38q-20 0 -35 -12q-16 -14 -25.5 -56t-9.5 -74q0 -37 35 -37q22 0 35 12zM691 215q0 -49 -18 -106.5t-50 -86.5q-35 -32 -95 -32q-47 0 -73.5 24.5t-26.5 70.5q0 48 17 105.5t46 84.5q39 36 100 36
q47 0 73.5 -25t26.5 -71z" />
    <glyph glyph-name="ampersand" unicode="&#x26;" horiz-adv-x="577" 
d="M474 0l-47 66q-63 -76 -178 -76q-75 0 -125 43t-50 119q0 77 35 135t104 83q-36 56 -36 110q0 88 56 147t173 59q53 0 104 -17l-29 -93q-34 9 -77 9q-52 0 -81 -28.5t-29 -69.5q0 -36 43 -98l53 -75q6 -8 11 -17.5t7 -14.5l2 -6h5q2 27 7 50l18 86h182l-19 -100h-75
l-12 -55q-11 -47 -26 -87q55 -81 119 -170h-135zM271 89q62 0 96 62l-105 149q-33 -16 -50 -52.5t-17 -77.5q0 -39 21 -60t55 -21z" />
    <glyph glyph-name="quotesingle" unicode="'" horiz-adv-x="200" 
d="M281 625l-63 -181h-58l8 196q3 71 71 71q51 0 51 -42q0 -20 -9 -44z" />
    <glyph glyph-name="parenleft" unicode="(" horiz-adv-x="269" 
d="M359 697q-183 -261 -183 -556q0 -95 47 -256h-89q-64 150 -64 273q0 299 201 539h88z" />
    <glyph glyph-name="parenright" unicode=")" horiz-adv-x="264" 
d="M2 -115q179 269 179 537q0 136 -48 275h89q66 -140 66 -290q0 -271 -192 -522h-94z" />
    <glyph glyph-name="asterisk" unicode="*" horiz-adv-x="412" 
d="M382 684q0 -6 -4 -18l-44 -122l8 -4l104 58q15 9 28 9q16 0 24.5 -16.5t8.5 -39.5q0 -39 -39 -43l-122 -12l-3 -7l60 -63q30 -32 30 -44q0 -20 -23.5 -37t-40.5 -17q-13 0 -19.5 9t-15.5 35l-29 89h-7l-61 -102q-20 -34 -41 -34q-17 0 -37.5 18t-20.5 33q0 12 7.5 20
t29.5 25l88 68l-2 6l-98 12q-50 6 -50 32q0 24 14 46t30 22q14 0 44 -19l80 -49l6 5l-3 121q-1 25 12.5 36t42.5 11q43 0 43 -28z" />
    <glyph glyph-name="plus" unicode="+" 
d="M508 281l-16 -83h-163l-31 -163h-84l32 163h-164l16 83h164l31 164h84l-32 -164h163z" />
    <glyph glyph-name="comma" unicode="," horiz-adv-x="232" 
d="M198 59q0 -33 -42 -109l-50 -89l-48 9l41 121v4q-41 17 -41 64q0 33 20 51.5t50 18.5q31 0 50.5 -18.5t19.5 -51.5z" />
    <glyph glyph-name="hyphen" unicode="-" horiz-adv-x="328" 
d="M341 286l-18 -93h-245l18 93h245z" />
    <glyph glyph-name="period" unicode="." horiz-adv-x="232" 
d="M196 59q0 -32 -19.5 -50.5t-50.5 -18.5q-30 0 -50 18.5t-20 50.5q0 33 20 51.5t50 18.5q31 0 50.5 -18.5t19.5 -51.5z" />
    <glyph glyph-name="slash" unicode="/" horiz-adv-x="266" 
d="M292 693h88l-275 -713h-89z" />
    <glyph glyph-name="zero" unicode="0" horiz-adv-x="526" 
d="M279 95q43 0 72 32q33 37 62 162.5t29 202.5q0 45 -15 67t-54 22q-43 0 -72 -33q-36 -40 -63 -167t-27 -198q0 -88 68 -88zM561 504q0 -67 -13 -150.5t-46 -173.5t-78 -132q-62 -58 -160 -58q-84 0 -127.5 47t-43.5 134q0 111 34.5 249.5t97.5 202.5q63 63 167 63
q84 0 126.5 -47t42.5 -135z" />
    <glyph glyph-name="one" unicode="1" horiz-adv-x="304" 
d="M365 676l-131 -676h-118l104 537q3 17 -18 12l-73 -14l-9 62l176 79h69z" />
    <glyph glyph-name="two" unicode="2" horiz-adv-x="459" 
d="M437 105l-20 -105h-393l19 96l243 244q33 33 43 43.5t30.5 36t27 45.5t6.5 44q0 32 -21 51.5t-62 19.5q-54 0 -122 -35l-32 88q88 51 174 52q91 0 138 -47t47 -123q0 -63 -34 -119t-101 -123l-135 -129q-8 -8 -20.5 -17.5t-21.5 -14.5l-9 -6l3 -8q31 7 57 7h183z" />
    <glyph glyph-name="three" unicode="3" horiz-adv-x="435" 
d="M439 236q0 -104 -63.5 -175t-180.5 -71q-24 0 -47.5 3t-41 7.5t-34 10t-26.5 10t-18.5 9t-9.5 4.5l36 92q62 -31 130 -31q62 0 99.5 36.5t37.5 101.5q0 39 -22.5 58t-73.5 19h-73l18 94h60q51 0 82 29t31 81q0 66 -73 66q-37 0 -107 -20l-20 90q76 34 157 35
q82 0 124.5 -40.5t42.5 -106.5q0 -115 -106 -166v-3q38 -16 58 -51.5t20 -81.5z" />
    <glyph glyph-name="four" unicode="4" horiz-adv-x="486" 
d="M377 522l-14 3q-35 -77 -62 -117l-115 -174h131l31 165zM516 234l-19 -94h-80l-28 -140h-117l27 140h-253l15 75l299 456h160l-85 -437h81z" />
    <glyph glyph-name="five" unicode="5" horiz-adv-x="445" 
d="M449 271q0 -54 -13.5 -102t-42 -89.5t-78 -66t-115.5 -24.5q-95 0 -155 31l32 94q15 -6 51.5 -12.5t63.5 -6.5q68 0 101 41.5t33 108.5q0 74 -87 74q-45 0 -95 -14l-38 25l96 341h275l-20 -105h-169l-41 -146q1 0 9 1t19 2t17 1q72 0 114.5 -39t42.5 -114z" />
    <glyph glyph-name="six" unicode="6" horiz-adv-x="485" 
d="M330 118q23 21 34 62t11 79q0 68 -61 68q-44 0 -92 -24q-19 -65 -19 -134q0 -74 61 -74q40 0 66 23zM498 281q0 -53 -13.5 -102t-41.5 -92.5t-78 -70t-115 -26.5q-80 0 -123 50t-43 144q0 109 48 224t135 184q94 75 229 94l7 -91q-186 -48 -245 -191q44 27 98 27
q66 0 104 -38.5t38 -111.5z" />
    <glyph glyph-name="seven" unicode="7" horiz-adv-x="358" 
d="M472 671l-13 -73l-297 -598h-132l299 566h-224l20 105h347z" />
    <glyph glyph-name="eight" unicode="8" horiz-adv-x="485" 
d="M72 140q1 63 26 107.5t79 82.5l46 32l-8 7q-58 51 -58 120q0 84 58 140.5t160 56.5q77 0 120 -40.5t43 -105.5q0 -57 -25.5 -98t-80.5 -81l-25 -18l8 -7q39 -37 57 -69t18 -72q0 -85 -59 -145t-177 -60q-95 0 -138.5 42t-43.5 108zM326 272l-32 28l-38 -30
q-38 -30 -52 -55t-13 -62q0 -62 75 -62q48 0 76.5 28.5t28.5 75.5q0 38 -45 77zM361 583q-44 0 -67.5 -25.5t-23.5 -65.5q0 -13 5.5 -24.5t11 -17.5t19.5 -18l30 -27q50 35 69 59.5t19 64.5q0 54 -63 54z" />
    <glyph glyph-name="nine" unicode="9" horiz-adv-x="492" 
d="M284 557q-23 -21 -34.5 -62t-11.5 -80q0 -67 62 -67q41 0 91 24q20 73 20 134q0 74 -63 74q-38 0 -64 -23zM116 396q0 41 8.5 81t27.5 78.5t47 67t71 46t95 17.5q79 0 122 -46.5t43 -130.5q0 -66 -12.5 -132t-43 -133t-76 -119.5t-116.5 -89.5t-159 -45l-13 91
q184 40 246 189q-47 -26 -99 -26q-64 0 -102.5 41t-38.5 111z" />
    <glyph glyph-name="colon" unicode=":" horiz-adv-x="228" 
d="M190 59q0 -32 -19.5 -50.5t-50.5 -18.5q-30 0 -50 18.5t-20 50.5q0 33 20 51.5t50 18.5q31 0 50.5 -18.5t19.5 -51.5zM253 386q0 -32 -19.5 -50.5t-50.5 -18.5q-30 0 -50 18.5t-20 50.5q0 33 20 51.5t50 18.5q31 0 50.5 -18.5t19.5 -51.5z" />
    <glyph glyph-name="semicolon" unicode=";" horiz-adv-x="229" 
d="M196 59q0 -33 -42 -109l-50 -89l-48 9l41 121v4q-41 17 -41 64q0 33 20 51.5t50 18.5q31 0 50.5 -18.5t19.5 -51.5zM259 386q0 -32 -19.5 -50.5t-50.5 -18.5q-30 0 -50 18.5t-20 50.5q0 33 20 51.5t50 18.5q31 0 50.5 -18.5t19.5 -51.5z" />
    <glyph glyph-name="less" unicode="&#x3c;" 
d="M467 81l-18 -89l-365 214l14 68l448 212l-20 -102l-313 -149l-1 -6z" />
    <glyph glyph-name="equal" unicode="=" 
d="M523 355l-16 -82h-410l16 82h410zM494 207l-16 -84h-410l16 84h410z" />
    <glyph glyph-name="greater" unicode="&#x3e;" 
d="M46 -8l19 103l313 148l1 6l-255 148l18 89l365 -212l-13 -68z" />
    <glyph glyph-name="question" unicode="?" horiz-adv-x="376" 
d="M454 558q0 -62 -28 -103t-91 -81q-3 -2 -12.5 -8t-12 -8t-10.5 -7t-10 -7t-8 -7t-8 -8t-6.5 -8.5t-6.5 -10.5t-5 -11t-5 -13l-18 -65h-87l13 91q6 44 25 70t59 51q52 34 69.5 55t17.5 54q0 45 -61 45q-42 0 -97 -19l-9 92q73 32 151 32q68 0 104 -36t36 -98zM231 59
q0 -32 -19.5 -50.5t-50.5 -18.5q-30 0 -50 18.5t-20 50.5q0 33 20 51.5t50 18.5q31 0 50.5 -18.5t19.5 -51.5z" />
    <glyph glyph-name="at" unicode="@" horiz-adv-x="740" 
d="M652 98l8 -49q-124 -59 -279 -59q-59 0 -109.5 14t-92.5 42t-66 77t-24 113q0 115 40 212.5t127 155.5q97 65 250 65q53 0 101.5 -13.5t89 -40.5t65 -74t24.5 -108q0 -72 -23 -135.5t-77 -107.5t-129 -44q-74 0 -77 72h-10q-44 -64 -113 -64q-45 0 -73 27t-28 78
q0 53 23.5 114.5t61.5 94.5q45 41 137 41q30 0 63 -5.5t51 -10.5l19 -5l-56 -231q-11 -46 20 -46q36 0 63.5 21.5t41.5 56.5t21 70.5t7 71.5q0 88 -60.5 127.5t-156.5 39.5q-118 0 -195 -52q-65 -44 -96.5 -128t-31.5 -177q0 -185 230 -185q124 0 254 42zM491 317l29 116
q-25 5 -55 5q-46 0 -72 -23q-24 -22 -38.5 -64t-14.5 -76q0 -50 48 -50q35 0 64.5 28t38.5 64z" />
    <glyph glyph-name="A" unicode="A" horiz-adv-x="578" 
d="M448 0l-20 161h-212l-75 -161h-130l317 676h158l81 -676h-119zM347 442l-85 -183h154l-22 189l-4 84h-13q-17 -62 -30 -90z" />
    <glyph glyph-name="B" unicode="B" horiz-adv-x="567" 
d="M563 224q0 -104 -64.5 -164t-176.5 -60h-254l130 676h223q81 0 124 -38.5t43 -108.5q0 -58 -27.5 -101.5t-80.5 -63.5v-2l-1 -2q84 -35 84 -136zM364 304h-116l-39 -198h119q54 0 84 33t30 87q0 36 -20 57t-58 21zM301 570l-35 -176h101q44 0 71 32t27 78q0 31 -17 48.5
t-50 17.5h-97z" />
    <glyph glyph-name="C" unicode="C" horiz-adv-x="511" 
d="M489 114l13 -93q-79 -36 -178 -36q-101 0 -163 55.5t-62 158.5q0 111 37.5 238.5t112.5 188.5q81 65 202 65q85 0 146 -24l-39 -98q-49 16 -105 16q-78 0 -129 -44q-45 -39 -73.5 -145t-28.5 -182q0 -61 33 -92t94 -31q69 0 140 23z" />
    <glyph glyph-name="D" unicode="D" horiz-adv-x="592" 
d="M409 139q44 37 68.5 130t24.5 175q0 66 -30.5 96t-100.5 30h-71l-91 -464h95q66 0 105 33zM624 449q0 -111 -31.5 -220t-99.5 -167q-74 -62 -194 -62h-232l131 676h194q109 0 170.5 -58t61.5 -169z" />
    <glyph glyph-name="E" unicode="E" horiz-adv-x="465" 
d="M468 98l-19 -98h-381l131 676h358l-19 -98h-236l-34 -175h166l-19 -94h-166l-41 -211h260z" />
    <glyph glyph-name="F" unicode="F" horiz-adv-x="422" 
d="M537 676l-18 -98h-217l-37 -190h161l-18 -94h-161l-58 -294h-121l131 676h338z" />
    <glyph glyph-name="G" unicode="G" horiz-adv-x="614" 
d="M359 91q54 0 113 21l33 166h-137l18 94h258l-63 -320q-104 -67 -240 -67q-109 0 -175.5 53.5t-66.5 161.5q0 71 13.5 147t49.5 155t88 120q88 69 219 69q117 0 192 -42l-44 -96q-73 32 -152 32q-90 0 -144 -49q-45 -40 -72 -141.5t-27 -179.5q0 -124 137 -124z" />
    <glyph glyph-name="H" unicode="H" horiz-adv-x="655" 
d="M717 676l-131 -676h-121q4 22 29 151t30 156h-275l-60 -307h-121l131 676h121q-4 -24 -26.5 -138.5t-25.5 -132.5h275q24 131 53 271h121z" />
    <glyph glyph-name="I" unicode="I" horiz-adv-x="258" 
d="M320 676l-131 -676h-121l130 676h122z" />
    <glyph glyph-name="J" unicode="J" horiz-adv-x="299" 
d="M366 676l-86 -443q-26 -137 -86.5 -192.5t-200.5 -55.5l20 106q69 2 99 31.5t46 108.5l87 445h121z" />
    <glyph glyph-name="K" unicode="K" horiz-adv-x="592" 
d="M398 337l184 -337h-134q-55 102 -167 306h-31l-60 -306h-122l131 676h122l-55 -285h34l249 285h145z" />
    <glyph glyph-name="L" unicode="L" horiz-adv-x="437" 
d="M440 98l-19 -98h-353l130 676h122l-112 -578h232z" />
    <glyph glyph-name="M" unicode="M" horiz-adv-x="780" 
d="M842 676l-131 -676h-121l61 317l32 155h-15q-48 -97 -81 -153l-136 -233h-96l-43 240l-21 147h-14q-15 -94 -27 -156l-61 -317h-121l130 676h151l78 -429h5l252 429h158z" />
    <glyph glyph-name="N" unicode="N" horiz-adv-x="666" 
d="M728 676l-131 -676h-138l-156 415l-18 71l-10 -1q-7 -78 -14 -116l-72 -369h-121l131 676h132l152 -411l22 -87l11 2q6 62 15 108l75 388h122z" />
    <glyph glyph-name="O" unicode="O" horiz-adv-x="648" 
d="M454 131q47 39 74.5 142.5t27.5 184.5q0 65 -27 96t-90 31q-64 0 -111 -38q-48 -39 -77 -145.5t-29 -185.5q0 -65 27 -95t91 -30q65 0 114 40zM680 474q0 -109 -41 -239t-114 -188q-79 -62 -205 -62q-105 0 -163 53t-58 163q0 108 39 237t110 186q84 67 209 67
q105 0 164 -53.5t59 -163.5z" />
    <glyph glyph-name="P" unicode="P" horiz-adv-x="513" 
d="M411 374q41 35 41 121q0 75 -70 75h-82l-43 -222h79q46 0 75 26zM574 503q0 -51 -13.5 -94.5t-41.5 -80t-78 -57.5t-117 -21h-87l-48 -250h-121l130 676h204q82 0 127 -45t45 -128z" />
    <glyph glyph-name="Q" unicode="Q" horiz-adv-x="648" 
d="M680 474q0 -109 -40.5 -238.5t-114.5 -188.5l-12 -9l39 -79l-86 -42l-39 82q-51 -14 -107 -14q-105 0 -163 53t-58 163q0 107 39.5 236.5t109.5 186.5q83 67 209 67q105 0 164 -53.5t59 -163.5zM340 176l86 42l37 -78q44 46 68.5 144t24.5 174q0 65 -27 96t-90 31
q-64 0 -111 -38q-48 -39 -77 -145.5t-29 -185.5q0 -65 27 -95.5t91 -30.5q17 0 39 5z" />
    <glyph glyph-name="R" unicode="R" horiz-adv-x="556" 
d="M502 303q-28 -21 -67 -29l101 -274h-127l-94 260h-75l-51 -260h-121l131 676h223q81 0 127 -43.5t46 -125.5q0 -60 -23.5 -115t-69.5 -89zM428 379q44 41 44 120q0 72 -72 72h-99l-43 -217h98q45 0 72 25z" />
    <glyph glyph-name="S" unicode="S" horiz-adv-x="505" 
d="M510 208q0 -95 -62 -159t-179 -64q-66 0 -125 20.5t-94 49.5l44 94q89 -58 172 -58q57 0 88 30.5t31 77.5q0 53 -68 89l-53 28q-122 64 -122 167q0 89 62 148.5t173 59.5q98 0 178 -51l-49 -95q-65 40 -131 40q-51 0 -80 -27t-29 -66q0 -47 60 -79l62 -32
q122 -63 122 -173z" />
    <glyph glyph-name="T" unicode="T" 
d="M616 676l-18 -98h-180l-113 -578h-122l113 578h-180l19 98h481z" />
    <glyph glyph-name="U" unicode="U" horiz-adv-x="604" 
d="M672 676l-90 -462q-22 -111 -92 -170t-184 -59q-98 0 -153 47.5t-55 133.5q0 39 11 91l81 419h122l-82 -419q-11 -57 -11 -81q0 -41 26 -63t73 -22q118 0 145 139l87 446h122z" />
    <glyph glyph-name="V" unicode="V" horiz-adv-x="552" 
d="M536 676h131l-308 -676h-167l-59 676h120l36 -421l2 -111h15q25 79 40 113z" />
    <glyph glyph-name="W" unicode="W" horiz-adv-x="888" 
d="M516 442q0 -3 -10 -34.5t-17 -47.5l-160 -360h-157l-36 676h120l22 -425l1 -96h11q17 52 30 81l172 387h119l29 -378l1 -90h11q17 59 31 92l191 429h129l-300 -676h-145l-30 360l-2 82h-10z" />
    <glyph glyph-name="X" unicode="X" horiz-adv-x="528" 
d="M633 676l-222 -349l107 -327h-125l-59 185q-5 16 -9.5 36t-6.5 32l-1 12h-7q-11 -36 -39 -79l-120 -186h-136l230 357l-101 319h123l57 -179q5 -16 8.5 -34.5t4.5 -28.5l1 -11h7q13 41 34 74l113 179h141z" />
    <glyph glyph-name="Y" unicode="Y" horiz-adv-x="530" 
d="M323 379h10q17 52 34 78l137 219h141l-282 -444l-45 -232h-121l49 252l-114 424h122l60 -220q3 -11 5.5 -30t2.5 -33z" />
    <glyph glyph-name="Z" unicode="Z" horiz-adv-x="479" 
d="M478 98l-19 -98h-443l332 520q8 13 18.5 25.5t17.5 18.5l6 7l-1 7h-244l19 98h423l-341 -534q-7 -11 -15.5 -20.5t-14.5 -13.5l-5 -5l1 -5h266z" />
    <glyph glyph-name="bracketleft" unicode="[" horiz-adv-x="280" 
d="M259 -31l-14 -69h-193l153 791h193l-13 -70h-93l-126 -652h93z" />
    <glyph glyph-name="backslash" unicode="\" horiz-adv-x="384" 
d="M237 693l124 -713h-85l-124 713h85z" />
    <glyph glyph-name="bracketright" unicode="]" horiz-adv-x="279" 
d="M-5 -100l14 69h92l125 652h-93l14 70h199l-153 -791h-198z" />
    <glyph glyph-name="asciicircum" unicode="^" 
d="M408 677l146 -307h-91l-97 194h-12l-163 -194h-100l250 307h67z" />
    <glyph glyph-name="underscore" unicode="_" horiz-adv-x="484" 
d="M484 -71v-47h-484v47h484z" />
    <glyph glyph-name="grave" unicode="`" horiz-adv-x="470" 
d="M114 641q0 34 49 34q50 0 72 -34l71 -107h-61l-112 76q-19 13 -19 31z" />
    <glyph glyph-name="a" unicode="a" horiz-adv-x="516" 
d="M77 141q0 78 27.5 158t74.5 125q69 66 194 66q44 0 86 -7t63 -14l20 -7l-59 -305q-5 -26 -0.5 -38.5t21.5 -20.5l13 -7l-43 -101q-48 4 -76 28t-35 60h-5q-55 -88 -146 -88q-62 0 -98.5 40t-36.5 111zM351 389q-59 0 -94 -39q-23 -26 -41 -81t-18 -104q0 -74 58 -74
q43 0 77 41t46 101l29 149q-26 7 -57 7z" />
    <glyph glyph-name="b" unicode="b" horiz-adv-x="495" 
d="M513 345q0 -79 -25.5 -164.5t-77.5 -134.5q-61 -56 -161 -56q-72 0 -116.5 40.5t-44.5 115.5q0 44 12 108l85 442h118l-45 -235l-11 -36l5 -3q55 68 134 68q57 0 92 -38t35 -107zM267 91q40 0 68 33q27 31 42 87t15 102q0 77 -64 77q-41 0 -69 -33t-38 -84l-14 -71
q-22 -111 60 -111z" />
    <glyph glyph-name="c" unicode="c" horiz-adv-x="391" 
d="M368 109l13 -87q-53 -32 -133 -32q-81 0 -126 43t-45 126q0 73 26.5 158.5t79.5 127.5q57 45 147 45q64 0 114 -23l-34 -91q-44 14 -77 14q-49 0 -74 -25q-26 -26 -42.5 -86t-16.5 -108q0 -80 78 -80q40 0 90 18z" />
    <glyph glyph-name="d" unicode="d" horiz-adv-x="520" 
d="M588 696l-105 -538q-3 -14 -3 -23q0 -24 24 -37l14 -7l-44 -101q-45 4 -73.5 27.5t-36.5 60.5h-5q-52 -88 -147 -88q-64 0 -99.5 39.5t-35.5 109.5q0 78 26.5 158.5t73.5 126.5q67 66 186 66q32 0 65 -6l41 212h119zM351 389q-59 0 -94 -39q-23 -26 -41 -81t-18 -104
q0 -74 58 -74q43 0 77 41t46 101l29 149q-26 7 -57 7z" />
    <glyph glyph-name="e" unicode="e" horiz-adv-x="489" 
d="M325 211h-125q-5 -30 -5 -51q0 -36 21 -52.5t68 -16.5q69 0 155 37l16 -87q-84 -51 -191 -51q-90 0 -138.5 40.5t-48.5 117.5q0 61 21.5 138.5t58.5 125.5q60 78 193 78q84 0 124.5 -33.5t40.5 -91.5q0 -72 -49 -113t-141 -41zM255 369q-22 -18 -37 -71h101q81 0 81 54
q0 21 -15.5 31t-51.5 10q-51 0 -78 -24z" />
    <glyph glyph-name="f" unicode="f" horiz-adv-x="292" 
d="M192 0h-119l75 384h-64l20 96h63l16 83q16 80 57.5 114t121.5 34q14 0 31 -2t27 -4l10 -2l-24 -96q-21 3 -41 3q-29 0 -43.5 -12t-21.5 -45l-14 -73h93l-20 -96h-92z" />
    <glyph glyph-name="g" unicode="g" horiz-adv-x="503" 
d="M381 243l27 139q-25 7 -57 7q-59 0 -94 -39q-24 -26 -41.5 -81t-17.5 -105q0 -73 57 -73q44 0 79 45t47 107zM542 462l-97 -500q-20 -101 -71 -149.5t-150 -48.5q-53 0 -95.5 13.5t-61.5 26.5l36 89q54 -29 115 -29q90 0 106 81l23 125h-6q-47 -80 -128 -80
q-64 0 -99.5 39t-35.5 110q0 78 27.5 159t74.5 126q69 66 194 66q44 0 86 -7t62 -14z" />
    <glyph glyph-name="h" unicode="h" horiz-adv-x="505" 
d="M513 310l-60 -310h-119l59 302q4 19 4 37q0 50 -52 50q-43 0 -75 -34.5t-44 -95.5l-50 -259h-118l135 696h118l-53 -268h6q59 62 136 62q55 0 87.5 -31t32.5 -82q0 -32 -7 -67z" />
    <glyph glyph-name="i" unicode="i" horiz-adv-x="236" 
d="M269 480l-93 -480h-118l93 480h118zM306 626q0 -32 -19.5 -50.5t-50.5 -18.5q-30 0 -50 18.5t-20 50.5q0 33 20 51.5t50 18.5q31 0 50.5 -18.5t19.5 -51.5z" />
    <glyph glyph-name="j" unicode="j" horiz-adv-x="237" 
d="M271 480l-101 -525q-21 -105 -65 -148t-135 -43q-31 0 -47 2l20 99h31q32 0 49.5 19.5t25.5 61.5l104 534h118zM308 626q0 -32 -19.5 -50.5t-50.5 -18.5q-30 0 -50 18.5t-20 50.5q0 33 20 51.5t50 18.5q31 0 50.5 -18.5t19.5 -51.5z" />
    <glyph glyph-name="k" unicode="k" horiz-adv-x="489" 
d="M548 480l-192 -238l129 -242h-130l-113 213h-25l-41 -213h-118l135 696h118l-78 -401h27l149 185h139z" />
    <glyph glyph-name="l" unicode="l" horiz-adv-x="262" 
d="M263 87l-29 -97q-150 8 -150 117q0 39 13 105l94 484h118l-92 -479q-13 -65 -13 -80q0 -32 40 -44z" />
    <glyph glyph-name="m" unicode="m" horiz-adv-x="753" 
d="M391 490q43 0 72 -21.5t38 -59.5h5q60 81 148 81q53 0 83.5 -31t30.5 -83q0 -25 -8 -69l-59 -307h-119l58 299q5 25 5 41q0 49 -46 49q-38 0 -67.5 -31.5t-40.5 -89.5l-52 -268h-119l59 301q4 22 4 39q0 49 -46 49q-39 0 -68.5 -33t-41.5 -92l-50 -264h-119l93 480h79
l21 -58h6q58 68 134 68z" />
    <glyph glyph-name="n" unicode="n" horiz-adv-x="505" 
d="M513 310l-60 -310h-119l59 302q5 23 5 38q0 49 -53 49q-42 0 -74 -34t-44 -95l-50 -260h-119l93 480h79l21 -58h5q61 68 143 68q56 0 88.5 -30.5t32.5 -82.5q0 -31 -7 -67z" />
    <glyph glyph-name="o" unicode="o" horiz-adv-x="484" 
d="M260 91q39 0 65 26q24 24 42 86.5t18 118.5q0 32 -17 49.5t-48 17.5q-41 0 -65 -26q-27 -28 -44 -93t-17 -113q0 -31 18.5 -48.5t47.5 -17.5zM501 332q1 -75 -24 -159t-75 -130q-56 -53 -156 -53q-78 0 -122.5 41.5t-45.5 116.5t24.5 162t77.5 130q61 50 154 50
q77 0 121.5 -40.5t45.5 -117.5z" />
    <glyph glyph-name="p" unicode="p" horiz-adv-x="503" 
d="M341 114q30 28 45 88t15 111q0 76 -63 76q-41 0 -70.5 -31t-38.5 -80l-31 -161q28 -26 78 -26q39 0 65 23zM521 342q0 -59 -12 -117.5t-37 -113t-69 -88t-101 -33.5q-70 0 -122 38l-49 -255h-118l137 707h78l22 -58h4q54 68 138 68q59 0 94 -37.5t35 -110.5z" />
    <glyph glyph-name="q" unicode="q" horiz-adv-x="503" 
d="M77 141q0 79 28 159.5t76 125.5q68 64 191 64q44 0 86.5 -7t63.5 -14l20 -7l-133 -688h-118l55 288h-6q-53 -72 -130 -72q-61 0 -97 40t-36 111zM351 389q-59 0 -94 -39q-23 -26 -41 -81t-18 -104q0 -74 58 -74q45 0 78 44.5t47 111.5l27 135q-26 7 -57 7z" />
    <glyph glyph-name="r" unicode="r" horiz-adv-x="311" 
d="M380 490h11l-19 -106h-21q-50 0 -81 -32.5t-46 -108.5l-47 -243h-119l93 480h72l22 -58h5q48 68 130 68z" />
    <glyph glyph-name="s" unicode="s" horiz-adv-x="429" 
d="M426 154q0 -72 -50.5 -118t-145.5 -46q-53 0 -103.5 16t-80.5 40l43 88q66 -43 138 -43q41 0 59.5 15.5t18.5 37.5q0 28 -45 47l-52 21q-96 39 -96 117q0 75 53 118t141 43t153 -39l-44 -91q-52 29 -112 29q-37 0 -54.5 -14t-17.5 -34q0 -25 37 -39l55 -22
q103 -42 103 -126z" />
    <glyph glyph-name="t" unicode="t" horiz-adv-x="308" 
d="M275 90l21 -5l-27 -95q-170 0 -170 114q0 25 13 92l36 188h-64l19 96h64l24 120l123 27l-29 -147h91l-19 -96h-91l-39 -205q-6 -34 -6 -45q0 -18 12 -27.5t42 -16.5z" />
    <glyph glyph-name="u" unicode="u" horiz-adv-x="510" 
d="M493 99l15 -8l-43 -101q-45 3 -73.5 26t-36.5 57h-6q-52 -83 -141 -83q-58 0 -93 35.5t-35 94.5q0 39 12 99l50 261h118l-52 -268q-10 -47 -10 -69q0 -52 51 -52q43 0 76.5 44t46.5 112l46 233h118l-63 -328q-7 -39 20 -53z" />
    <glyph glyph-name="v" unicode="v" horiz-adv-x="463" 
d="M411 480h130l-226 -480h-180l-30 480h117l16 -292v-72h13q14 46 26 72z" />
    <glyph glyph-name="w" unicode="w" horiz-adv-x="686" 
d="M638 480h126l-201 -480h-136l-28 212l-2 66h-11q-11 -45 -22 -68l-104 -210h-134l-21 480h117l9 -259l-2 -75h12q17 60 30 85l107 220h86l30 -232l4 -73h11q15 56 24 77z" />
    <glyph glyph-name="x" unicode="x" horiz-adv-x="455" 
d="M531 480l-164 -249l78 -231h-122l-43 132l-8 47h-7q-13 -31 -25 -49l-85 -130h-138l173 256l-71 224h121l39 -121q3 -8 4.5 -20.5t2.5 -20.5v-8h7q12 28 25 49l77 121h136z" />
    <glyph glyph-name="y" unicode="y" horiz-adv-x="476" 
d="M429 480h125l-221 -533q-44 -107 -101 -145t-164 -38h-61l18 104h75q43 0 68 19t47 74l15 39h-41l-87 480h119l48 -276l9 -87h11q14 57 29 94z" />
    <glyph glyph-name="z" unicode="z" horiz-adv-x="426" 
d="M419 96l-19 -96h-366l9 48l229 303q4 6 11 12.5t11 10.5l5 3l-1 7h-176l18 96h345l-8 -46l-232 -303q-6 -8 -14 -15.5t-13 -10.5l-4 -3l1 -6h204z" />
    <glyph glyph-name="braceleft" unicode="{" horiz-adv-x="293" 
d="M267 -31l-13 -69q-92 0 -127 35.5t-19 118.5l27 139q5 30 -7 47t-43 17h-16l15 76h16q62 0 74 63l28 140q17 84 65.5 119.5t139.5 35.5l-14 -70q-39 -2 -59.5 -22t-29.5 -65l-25 -134q-15 -85 -98 -99l-3 -14q76 -12 60 -98l-26 -132q-9 -46 3.5 -66t51.5 -22z" />
    <glyph glyph-name="bar" unicode="|" horiz-adv-x="227" 
d="M220 712v-752h-87v752h87z" />
    <glyph glyph-name="braceright" unicode="}" horiz-adv-x="292" 
d="M0 -100l13 69q38 2 58.5 22t29.5 66l26 132q18 86 96 98l3 14q-75 14 -58 99l25 134q8 46 -4 65.5t-51 21.5l14 70q91 0 126 -36t19 -119l-27 -140q-5 -29 7 -46t43 -17h16l-15 -76h-16q-62 0 -74 -64l-27 -139q-16 -83 -65 -118.5t-139 -35.5z" />
    <glyph glyph-name="asciitilde" unicode="~" 
d="M458 307h51q-8 -72 -43 -103t-104 -21l-154 22q-59 8 -79 -40h-51q7 60 44.5 97t102.5 27l159 -23q32 -4 48 5.5t26 35.5z" />
    <glyph glyph-name="nbspace" unicode="&#xa0;" horiz-adv-x="235" 
 />
    <glyph glyph-name="exclamdown" unicode="&#xa1;" horiz-adv-x="257" 
d="M36 -131l107 385h68l-45 -399q-8 -68 -80 -68q-56 0 -56 43q0 18 6 39zM279 419q0 -32 -19.5 -50.5t-50.5 -18.5q-30 0 -50 18.5t-20 50.5q0 33 20 51.5t50 18.5q31 0 50.5 -18.5t19.5 -51.5z" />
    <glyph glyph-name="cent" unicode="&#xa2;" horiz-adv-x="375" 
d="M360 109l13 -87q-43 -25 -109 -31l-13 -66h-83l13 72q-112 27 -112 162q0 73 26.5 158t79.5 128q43 34 102 41l14 69h83l-14 -68q46 -6 76 -20l-34 -91q-44 14 -78 14q-48 0 -74 -25q-26 -26 -42 -85.5t-16 -108.5q0 -80 77 -80q41 0 91 18z" />
    <glyph glyph-name="sterling" unicode="&#xa3;" horiz-adv-x="510" 
d="M81 312l15 77h94l19 97q22 109 67.5 157t142.5 48q67 0 123 -26l-39 -95q-41 15 -82 15q-45 0 -65 -23t-33 -90l-16 -83h132l-16 -77h-131l-18 -95q-13 -65 -47 -95l1 -3q20 -2 58.5 -13t58.5 -11q48 0 59 57h109l-4 -28q-20 -134 -154 -134q-31 0 -90 15.5t-91 15.5
q-43 0 -101 -33l-44 93q59 33 89 65t42 90l15 76h-94z" />
    <glyph glyph-name="currency" unicode="&#xa4;" horiz-adv-x="488" 
d="M106 287q0 56 30 105l-62 64l58 58l61 -63q49 33 110 33q57 0 108 -33l63 63l58 -58l-64 -64q32 -48 32 -105q0 -61 -33 -110l65 -63l-58 -58l-66 64q-49 -30 -105 -30q-58 0 -107 30l-64 -64l-58 58l64 64q-32 47 -32 109zM189 287q0 -48 33 -81t81 -33q47 0 80 33
t33 81q0 47 -33 80t-80 33q-48 0 -81 -33t-33 -80z" />
    <glyph glyph-name="yen" unicode="&#xa5;" horiz-adv-x="545" 
d="M337 379h10q17 52 34 78l137 219h141l-212 -333h108l-15 -77h-142l-21 -34l-6 -30h157l-15 -77h-157l-24 -125h-121l24 125h-158l15 77h158l10 50l-4 14h-152l15 77h116l-89 333h122l60 -220q3 -11 5.5 -30t2.5 -33z" />
    <glyph glyph-name="brokenbar" unicode="&#xa6;" horiz-adv-x="227" 
d="M220 165v-353h-87v353h87zM220 692v-354h-87v354h87z" />
    <glyph glyph-name="section" unicode="&#xa7;" horiz-adv-x="470" 
d="M479 232q0 -86 -106 -159q26 -48 26 -82q0 -85 -63 -132t-158 -47q-56 0 -101 13l30 100q37 -8 75 -8q43 0 70 16t27 48q0 30 -36 69l-91 101q-54 61 -54 118q0 91 106 160q-25 41 -25 81q0 84 60 132.5t159 48.5q48 0 100 -13l-29 -100q-52 8 -74 8q-47 0 -71.5 -18
t-24.5 -47q0 -28 34 -68l91 -101q55 -62 55 -120zM334 278l-75 83q-42 -38 -42 -78q0 -30 26 -58l74 -84q42 38 42 78q0 31 -25 59z" />
    <glyph glyph-name="dieresis" unicode="&#xa8;" horiz-adv-x="470" 
d="M208 626q0 -32 -18 -50.5t-47 -18.5q-28 0 -46.5 18.5t-18.5 50.5q0 33 18.5 51.5t46.5 18.5q29 0 47 -18.5t18 -51.5zM390 626q0 -32 -18 -50.5t-47 -18.5q-28 0 -46.5 18.5t-18.5 50.5q0 33 18.5 51.5t46.5 18.5q29 0 47 -18.5t18 -51.5z" />
    <glyph glyph-name="copyright" unicode="&#xa9;" horiz-adv-x="727" 
d="M689 320q0 107 -76 183t-184 76t-184 -76t-76 -184t76 -184t185 -76q107 0 183 76t76 185zM763 320q0 -139 -97.5 -237t-235.5 -98q-139 0 -237 97.5t-98 236.5t97.5 236.5t236.5 97.5t236.5 -97.5t97.5 -235.5zM524 229l17 -64q-43 -24 -103 -24q-69 0 -105 33
q-43 41 -43 145q0 100 43 143q37 34 105 34q51 0 94 -19l-15 -67q-37 11 -64 11q-39 0 -56 -16q-20 -20 -20 -86q0 -67 21 -88q15 -15 55 -15q30 0 71 13z" />
    <glyph glyph-name="ordfeminine" unicode="&#xaa;" horiz-adv-x="298" 
d="M122 519q0 39 14 77.5t38 61.5q36 33 100 33q22 0 45.5 -4.5t36.5 -8.5l12 -4l-29 -146q-4 -22 10 -29l8 -4l-24 -54q-54 -1 -65 39h-2q-26 -39 -74 -39q-32 0 -51 20.5t-19 57.5zM264 635q-28 0 -44 -19q-11 -12 -19 -38t-8 -48q0 -35 27 -35q20 0 35 19.5t21 47.5
l14 69q-11 4 -26 4z" />
    <glyph glyph-name="guillemotleft" unicode="&#xab;" horiz-adv-x="487" 
d="M196 27l-126 211l126 211h96l-126 -211l126 -211h-96zM383 27l-126 211l126 211h96l-126 -211l126 -211h-96z" />
    <glyph glyph-name="logicalnot" unicode="&#xac;" 
d="M509 281l-34 -176h-83l17 93h-326l16 83h410z" />
    <glyph glyph-name="registered" unicode="&#xae;" horiz-adv-x="445" 
d="M233 409v204h88q26 0 42 -16t16 -46q0 -51 -35 -60l54 -82h-51l-51 78h-17v-78h-46zM333 551q0 25 -25 25h-29v-52h28q26 0 26 27zM102 508q0 86 58.5 143t144.5 57t145 -57t59 -143t-59 -142.5t-145 -56.5t-144.5 56.5t-58.5 142.5zM151 508q0 -66 44.5 -108.5
t109.5 -42.5t110 42.5t45 108.5q0 65 -45 108.5t-110 43.5t-109.5 -43.5t-44.5 -108.5z" />
    <glyph glyph-name="macron" unicode="&#xaf;" horiz-adv-x="470" 
d="M370 630l-16 -80h-249l15 80h250z" />
    <glyph glyph-name="degree" unicode="&#xb0;" horiz-adv-x="316" 
d="M403 567q0 -60 -42.5 -102.5t-101.5 -42.5q-60 0 -102.5 42.5t-42.5 101.5q0 60 42.5 102.5t101.5 42.5q60 0 102.5 -42.5t42.5 -101.5zM341 567q0 34 -24 58t-59 24q-34 0 -58.5 -24t-24.5 -59q0 -34 25 -58.5t59 -24.5t58 24.5t24 59.5z" />
    <glyph glyph-name="plusminus" unicode="&#xb1;" 
d="M467 66l-17 -83h-409l16 83h410zM510 289l-16 -82h-163l-22 -112h-83l21 112h-163l16 82h164l32 164h83l-32 -164h163z" />
    <glyph glyph-name="twosuperior" unicode="&#xb2;" horiz-adv-x="264" 
d="M289 421l-14 -71h-214l13 69l122 113q42 38 42 61q0 28 -36 28q-32 0 -71 -16l-8 62q55 24 98 24q49 0 73 -25.5t24 -63.5q0 -32 -17 -59.5t-51 -59.5l-49 -44l-24 -17l2 -6q17 5 27 5h83z" />
    <glyph glyph-name="threesuperior" unicode="&#xb3;" horiz-adv-x="249" 
d="M245 533l-1 -3q42 -17 42 -66q0 -55 -38.5 -86.5t-98.5 -31.5q-47 0 -92 18l25 63q1 0 10.5 -2.5t24.5 -5t30 -2.5q60 0 60 45q0 29 -38 29h-51l13 67h43q19 0 31 10t12 26q0 25 -34 25q-31 0 -53 -8l-7 63q48 16 85 16q91 0 91 -72q0 -59 -54 -85z" />
    <glyph glyph-name="acute" unicode="&#xb4;" horiz-adv-x="470" 
d="M427 645q0 -14 -9.5 -23t-34.5 -24l-106 -64h-62l83 101q20 24 38.5 32t50.5 8q40 0 40 -30z" />
    <glyph glyph-name="mu" unicode="&#xb5;" horiz-adv-x="518" 
d="M501 99l15 -8l-43 -101q-45 3 -73.5 26t-36.5 57h-6q-52 -83 -141 -83q-22 0 -42 6l-43 -223h-118l137 707h118l-52 -268q-10 -47 -10 -69q0 -52 51 -52q43 0 76.5 44t46.5 112l46 233h118l-63 -328q-7 -39 20 -53z" />
    <glyph glyph-name="paragraph" unicode="&#xb6;" horiz-adv-x="478" 
d="M588 677l-13 -76h-62l-116 -601h-79l116 601h-62l-118 -601h-79q59 301 71 361q-59 9 -89.5 45.5t-30.5 88.5q0 83 60.5 132.5t152.5 49.5h249z" />
    <glyph glyph-name="periodcentered" unicode="&#xb7;" horiz-adv-x="247" 
d="M241 247q0 -32 -19.5 -50.5t-50.5 -18.5q-30 0 -50 18.5t-20 50.5q0 33 20 51.5t50 18.5q31 0 50.5 -18.5t19.5 -51.5z" />
    <glyph glyph-name="cedilla" unicode="&#xb8;" horiz-adv-x="470" 
d="M394 -112q0 -50 -33 -77t-96 -27q-23 0 -49 3t-40 6l-14 3l14 49q51 -7 77 -7q53 0 53 42q0 25 -40 25h-57l38 99h68l-18 -53h14q83 0 83 -63z" />
    <glyph glyph-name="onesuperior" unicode="&#xb9;" horiz-adv-x="200" 
d="M258 687l-65 -337h-79l49 255q1 5 -1.5 7t-8.5 1l-37 -8l-7 40l91 42h58z" />
    <glyph glyph-name="ordmasculine" unicode="&#xba;" horiz-adv-x="275" 
d="M233 497q20 0 30 11q11 12 19.5 43t8.5 53q0 31 -30 31q-19 0 -30 -12q-12 -13 -20 -45t-8 -52q0 -29 30 -29zM359 611q0 -37 -12.5 -77.5t-37.5 -64.5q-28 -28 -84 -28q-42 0 -66 20.5t-24 58.5q-1 36 12 78.5t40 65.5q32 27 82 27q89 0 90 -80z" />
    <glyph glyph-name="guillemotright" unicode="&#xbb;" horiz-adv-x="520" 
d="M504 238l-126 -211h-96l126 211l-126 211h96zM316 238l-126 -211h-96l126 211l-126 211h96z" />
    <glyph glyph-name="onequarter" unicode="&#xbc;" horiz-adv-x="608" 
d="M258 676l-65 -337h-79l49 255q1 5 -1.5 7t-8.5 1l-37 -8l-7 40l91 42h58zM519 252l-14 4q-20 -46 -29 -59l-49 -75h65l14 73zM607 122l-12 -61h-36l-12 -61h-79l12 61h-142l10 52l148 223h116l-42 -214h37zM494 693h88l-422 -713h-88z" />
    <glyph glyph-name="onehalf" unicode="&#xbd;" horiz-adv-x="613" 
d="M494 693h88l-422 -713h-88zM258 676l-65 -337h-79l49 255q1 5 -1.5 7t-8.5 1l-37 -8l-7 40l91 42h58zM597 71l-14 -71h-214l13 69l122 113q42 38 42 61q0 28 -36 28q-32 0 -71 -16l-8 62q55 24 98 24q49 0 73 -25.5t24 -63.5q0 -32 -17 -59.5t-51 -59.5l-49 -44l-24 -17
l2 -6q17 5 27 5h83z" />
    <glyph glyph-name="threequarters" unicode="&#xbe;" horiz-adv-x="662" 
d="M563 252l-14 4q-20 -46 -29 -59l-49 -75h65l14 73zM651 122l-12 -61h-36l-12 -61h-79l12 61h-142l10 52l148 223h116l-42 -214h37zM261 522l-1 -3q42 -17 42 -66q0 -55 -38.5 -86.5t-98.5 -31.5q-47 0 -92 18l25 63q1 0 10.5 -2.5t24.5 -5t30 -2.5q60 0 60 45
q0 29 -38 29h-51l13 67h43q19 0 31 10t12 26q0 25 -34 25q-31 0 -53 -8l-7 63q48 16 85 16q91 0 91 -72q0 -59 -54 -85zM537 693h88l-422 -713h-88z" />
    <glyph glyph-name="questiondown" unicode="&#xbf;" horiz-adv-x="376" 
d="M24 -78q0 62 28 103t91 81q3 2 12.5 8t12 8t10.5 7t10 7t8 7t8 8t6.5 8.5t6.5 10.5t5 11t5 13l18 65h87l-13 -91q-6 -44 -25 -70t-59 -51q-52 -34 -69.5 -55t-17.5 -54q0 -45 61 -45q42 0 97 19l9 -92q-73 -32 -151 -32q-68 0 -104 36t-36 98zM387 419q0 -32 -19.5 -50.5
t-50.5 -18.5q-30 0 -50 18.5t-20 50.5q0 33 20 51.5t50 18.5q31 0 50.5 -18.5t19.5 -51.5z" />
    <glyph glyph-name="Agrave" unicode="&#xc0;" horiz-adv-x="578" 
d="M448 0l-20 161h-212l-75 -161h-130l317 676h158l81 -676h-119zM347 442l-85 -183h154l-22 189l-4 84h-13q-17 -62 -30 -90zM261 840q0 34 49 34q50 0 72 -34l71 -107h-61l-112 76q-19 13 -19 31z" />
    <glyph glyph-name="Aacute" unicode="&#xc1;" horiz-adv-x="578" 
d="M448 0l-20 161h-212l-75 -161h-130l317 676h158l81 -676h-119zM347 442l-85 -183h154l-22 189l-4 84h-13q-17 -62 -30 -90zM586 843q0 -14 -9.5 -23t-34.5 -24l-106 -64h-62l83 101q20 24 38.5 32t50.5 8q40 0 40 -30z" />
    <glyph glyph-name="Acircumflex" unicode="&#xc2;" horiz-adv-x="578" 
d="M448 0l-20 161h-212l-75 -161h-130l317 676h158l81 -676h-119zM347 442l-85 -183h154l-22 189l-4 84h-13q-17 -62 -30 -90zM458 876l101 -107l-34 -40l-102 55h-9l-116 -55l-26 40l140 107h46z" />
    <glyph glyph-name="Atilde" unicode="&#xc3;" horiz-adv-x="578" 
d="M448 0l-20 161h-212l-75 -161h-130l317 676h158l81 -676h-119zM347 442l-85 -183h154l-22 189l-4 84h-13q-17 -62 -30 -90zM527 856l42 -16q-5 -17 -10 -29.5t-16.5 -30t-30.5 -27t-45 -9.5q-17 0 -61.5 12.5t-60.5 12.5q-29 0 -48 -29l-41 16q24 96 101 96
q18 0 62 -12.5t60 -12.5q29 0 48 29z" />
    <glyph glyph-name="Adieresis" unicode="&#xc4;" horiz-adv-x="578" 
d="M448 0l-20 161h-212l-75 -161h-130l317 676h158l81 -676h-119zM347 442l-85 -183h154l-22 189l-4 84h-13q-17 -62 -30 -90zM382 822q0 -32 -18 -50.5t-47 -18.5q-28 0 -46.5 18.5t-18.5 50.5q0 33 18.5 51.5t46.5 18.5q29 0 47 -18.5t18 -51.5zM564 822q0 -32 -18 -50.5
t-47 -18.5q-28 0 -46.5 18.5t-18.5 50.5q0 33 18.5 51.5t46.5 18.5q29 0 47 -18.5t18 -51.5z" />
    <glyph glyph-name="Aring" unicode="&#xc5;" horiz-adv-x="578" 
d="M460 746q0 23 -15.5 39.5t-39.5 16.5t-40 -16.5t-16 -39.5q0 -24 15.5 -39.5t40.5 -15.5q24 0 39.5 16t15.5 39zM347 442l-85 -183h154l-22 189l-4 84h-13q-17 -62 -30 -90zM448 0l-20 161h-212l-75 -161h-130l310 660q-38 32 -38 86q0 50 33.5 82t88.5 32t88 -32t33 -82
q0 -53 -38 -86l79 -660h-119z" />
    <glyph glyph-name="AE" unicode="&#xc6;" horiz-adv-x="765" 
d="M124 0h-134l387 676h480l-19 -99h-237l-34 -174h166l-19 -94h-166l-41 -211h261l-19 -98h-382l31 162h-181zM379 445l-107 -185h146l36 183l29 135l-31 6q-46 -93 -73 -139z" />
    <glyph glyph-name="Ccedilla" unicode="&#xc7;" horiz-adv-x="511" 
d="M489 114l13 -93q-77 -35 -171 -36l-11 -34h14q83 0 83 -63q0 -50 -33 -77t-96 -27q-23 0 -49 3t-40 6l-14 3l14 49q51 -7 77 -7q53 0 53 42q0 25 -40 25h-57l33 86q-76 15 -121 68t-45 140q0 111 37.5 238.5t112.5 188.5q81 65 202 65q85 0 146 -24l-39 -98
q-49 16 -105 16q-78 0 -129 -44q-45 -39 -73.5 -145t-28.5 -182q0 -61 33 -92t94 -31q69 0 140 23z" />
    <glyph glyph-name="Egrave" unicode="&#xc8;" horiz-adv-x="465" 
d="M468 98l-19 -98h-381l131 676h358l-19 -98h-236l-34 -175h166l-19 -94h-166l-41 -211h260zM251 840q0 34 49 34q50 0 72 -34l71 -107h-61l-112 76q-19 13 -19 31z" />
    <glyph glyph-name="Eacute" unicode="&#xc9;" horiz-adv-x="465" 
d="M468 98l-19 -98h-381l131 676h358l-19 -98h-236l-34 -175h166l-19 -94h-166l-41 -211h260zM555 845q0 -14 -9.5 -23t-34.5 -24l-106 -64h-62l83 101q20 24 38.5 32t50.5 8q40 0 40 -30z" />
    <glyph glyph-name="Ecircumflex" unicode="&#xca;" horiz-adv-x="465" 
d="M468 98l-19 -98h-381l131 676h358l-19 -98h-236l-34 -175h166l-19 -94h-166l-41 -211h260zM435 875l101 -107l-34 -40l-102 55h-9l-116 -55l-26 40l140 107h46z" />
    <glyph glyph-name="Edieresis" unicode="&#xcb;" horiz-adv-x="465" 
d="M468 98l-19 -98h-381l131 676h358l-19 -98h-236l-34 -175h166l-19 -94h-166l-41 -211h260zM374 822q0 -32 -18 -50.5t-47 -18.5q-28 0 -46.5 18.5t-18.5 50.5q0 33 18.5 51.5t46.5 18.5q29 0 47 -18.5t18 -51.5zM556 822q0 -32 -18 -50.5t-47 -18.5q-28 0 -46.5 18.5
t-18.5 50.5q0 33 18.5 51.5t46.5 18.5q29 0 47 -18.5t18 -51.5z" />
    <glyph glyph-name="Igrave" unicode="&#xcc;" horiz-adv-x="258" 
d="M110 840q0 34 49 34q50 0 72 -34l71 -107h-61l-112 76q-19 13 -19 31zM320 676l-131 -676h-121l130 676h122z" />
    <glyph glyph-name="Iacute" unicode="&#xcd;" horiz-adv-x="258" 
d="M430 844q0 -14 -9.5 -23t-34.5 -24l-106 -64h-62l83 101q20 24 38.5 32t50.5 8q40 0 40 -30zM320 676l-131 -676h-121l130 676h122z" />
    <glyph glyph-name="Icircumflex" unicode="&#xce;" horiz-adv-x="258" 
d="M315 873l101 -107l-34 -40l-102 55h-9l-116 -55l-26 40l140 107h46zM320 676l-131 -676h-121l130 676h122z" />
    <glyph glyph-name="Idieresis" unicode="&#xcf;" horiz-adv-x="258" 
d="M246 822q0 -32 -18 -50.5t-47 -18.5q-28 0 -46.5 18.5t-18.5 50.5q0 33 18.5 51.5t46.5 18.5q29 0 47 -18.5t18 -51.5zM418 822q0 -32 -18 -50.5t-47 -18.5q-28 0 -46.5 18.5t-18.5 50.5q0 33 18.5 51.5t46.5 18.5q29 0 47 -18.5t18 -51.5zM320 676l-131 -676h-121
l130 676h122z" />
    <glyph glyph-name="Eth" unicode="&#xd0;" horiz-adv-x="592" 
d="M59 291l19 94h63l57 291h194q109 0 170.5 -58t61.5 -169t-31.5 -220t-99.5 -167q-74 -62 -194 -62h-232l56 291h-64zM409 139q44 37 68.5 130t24.5 175q0 66 -30.5 96t-100.5 30h-71l-36 -185h120l-19 -94h-120l-36 -185h95q66 0 105 33z" />
    <glyph glyph-name="Ntilde" unicode="&#xd1;" horiz-adv-x="666" 
d="M728 676l-131 -676h-138l-156 415l-18 71l-10 -1q-7 -78 -14 -116l-72 -369h-121l131 676h132l152 -411l22 -87l11 2q6 62 15 108l75 388h122zM607 856l42 -16q-5 -17 -10 -29.5t-16.5 -30t-30.5 -27t-45 -9.5q-17 0 -61.5 12.5t-60.5 12.5q-29 0 -48 -29l-41 16
q24 96 101 96q18 0 62 -12.5t60 -12.5q29 0 48 29z" />
    <glyph glyph-name="Ograve" unicode="&#xd2;" horiz-adv-x="648" 
d="M454 131q47 39 74.5 142.5t27.5 184.5q0 65 -27 96t-90 31q-64 0 -111 -38q-48 -39 -77 -145.5t-29 -185.5q0 -65 27 -95t91 -30q65 0 114 40zM680 474q0 -109 -41 -239t-114 -188q-79 -62 -205 -62q-105 0 -163 53t-58 163q0 108 39 237t110 186q84 67 209 67
q105 0 164 -53.5t59 -163.5zM319 839q0 34 49 34q50 0 72 -34l71 -107h-61l-112 76q-19 13 -19 31z" />
    <glyph glyph-name="Oacute" unicode="&#xd3;" horiz-adv-x="648" 
d="M454 131q47 39 74.5 142.5t27.5 184.5q0 65 -27 96t-90 31q-64 0 -111 -38q-48 -39 -77 -145.5t-29 -185.5q0 -65 27 -95t91 -30q65 0 114 40zM680 474q0 -109 -41 -239t-114 -188q-79 -62 -205 -62q-105 0 -163 53t-58 163q0 108 39 237t110 186q84 67 209 67
q105 0 164 -53.5t59 -163.5zM639 843q0 -14 -9.5 -23t-34.5 -24l-106 -64h-62l83 101q20 24 38.5 32t50.5 8q40 0 40 -30z" />
    <glyph glyph-name="Ocircumflex" unicode="&#xd4;" horiz-adv-x="648" 
d="M454 131q47 39 74.5 142.5t27.5 184.5q0 65 -27 96t-90 31q-64 0 -111 -38q-48 -39 -77 -145.5t-29 -185.5q0 -65 27 -95t91 -30q65 0 114 40zM680 474q0 -109 -41 -239t-114 -188q-79 -62 -205 -62q-105 0 -163 53t-58 163q0 108 39 237t110 186q84 67 209 67
q105 0 164 -53.5t59 -163.5zM509 880l101 -107l-34 -40l-102 55h-9l-116 -55l-26 40l140 107h46z" />
    <glyph glyph-name="Otilde" unicode="&#xd5;" horiz-adv-x="648" 
d="M454 131q47 39 74.5 142.5t27.5 184.5q0 65 -27 96t-90 31q-64 0 -111 -38q-48 -39 -77 -145.5t-29 -185.5q0 -65 27 -95t91 -30q65 0 114 40zM680 474q0 -109 -41 -239t-114 -188q-79 -62 -205 -62q-105 0 -163 53t-58 163q0 108 39 237t110 186q84 67 209 67
q105 0 164 -53.5t59 -163.5zM580 856l42 -16q-5 -17 -10 -29.5t-16.5 -30t-30.5 -27t-45 -9.5q-17 0 -61.5 12.5t-60.5 12.5q-29 0 -48 -29l-41 16q24 96 101 96q18 0 62 -12.5t60 -12.5q29 0 48 29z" />
    <glyph glyph-name="Odieresis" unicode="&#xd6;" horiz-adv-x="648" 
d="M454 131q47 39 74.5 142.5t27.5 184.5q0 65 -27 96t-90 31q-64 0 -111 -38q-48 -39 -77 -145.5t-29 -185.5q0 -65 27 -95t91 -30q65 0 114 40zM680 474q0 -109 -41 -239t-114 -188q-79 -62 -205 -62q-105 0 -163 53t-58 163q0 108 39 237t110 186q84 67 209 67
q105 0 164 -53.5t59 -163.5zM442 822q0 -32 -18 -50.5t-47 -18.5q-28 0 -46.5 18.5t-18.5 50.5q0 33 18.5 51.5t46.5 18.5q29 0 47 -18.5t18 -51.5zM624 822q0 -32 -18 -50.5t-47 -18.5q-28 0 -46.5 18.5t-18.5 50.5q0 33 18.5 51.5t46.5 18.5q29 0 47 -18.5t18 -51.5z" />
    <glyph glyph-name="multiply" unicode="&#xd7;" 
d="M99 128l139 117l-93 116l63 53l94 -116l137 116l54 -63l-140 -117l95 -116l-63 -52l-95 116l-138 -116z" />
    <glyph glyph-name="Oslash" unicode="&#xd8;" horiz-adv-x="648" 
d="M78 14l49 61q-28 51 -28 126q0 108 39 237t110 186q84 67 209 67q86 0 140 -35l43 54l61 -50l-50 -61q29 -50 29 -125q0 -109 -41 -239t-114 -188q-79 -62 -205 -62q-85 0 -138 34l-44 -54zM222 216v-24l3 -1q8 14 19 28l276 343q-28 23 -81 23q-64 0 -111 -38
q-48 -39 -77 -145.5t-29 -185.5zM454 131q47 39 74.5 142.5t27.5 184.5v23h-3q-10 -16 -19 -27l-276 -341q26 -22 82 -22q65 0 114 40z" />
    <glyph glyph-name="Ugrave" unicode="&#xd9;" horiz-adv-x="604" 
d="M672 676l-90 -462q-22 -111 -92 -170t-184 -59q-98 0 -153 47.5t-55 133.5q0 39 11 91l81 419h122l-82 -419q-11 -57 -11 -81q0 -41 26 -63t73 -22q118 0 145 139l87 446h122zM285 840q0 34 49 34q50 0 72 -34l71 -107h-61l-112 76q-19 13 -19 31z" />
    <glyph glyph-name="Uacute" unicode="&#xda;" horiz-adv-x="604" 
d="M672 676l-90 -462q-22 -111 -92 -170t-184 -59q-98 0 -153 47.5t-55 133.5q0 39 11 91l81 419h122l-82 -419q-11 -57 -11 -81q0 -41 26 -63t73 -22q118 0 145 139l87 446h122zM613 844q0 -14 -9.5 -23t-34.5 -24l-106 -64h-62l83 101q20 24 38.5 32t50.5 8q40 0 40 -30z
" />
    <glyph glyph-name="Ucircumflex" unicode="&#xdb;" horiz-adv-x="604" 
d="M672 676l-90 -462q-22 -111 -92 -170t-184 -59q-98 0 -153 47.5t-55 133.5q0 39 11 91l81 419h122l-82 -419q-11 -57 -11 -81q0 -41 26 -63t73 -22q118 0 145 139l87 446h122zM485 880l101 -107l-34 -40l-102 55h-9l-116 -55l-26 40l140 107h46z" />
    <glyph glyph-name="Udieresis" unicode="&#xdc;" horiz-adv-x="604" 
d="M672 676l-90 -462q-22 -111 -92 -170t-184 -59q-98 0 -153 47.5t-55 133.5q0 39 11 91l81 419h122l-82 -419q-11 -57 -11 -81q0 -41 26 -63t73 -22q118 0 145 139l87 446h122zM421 822q0 -32 -18 -50.5t-47 -18.5q-28 0 -46.5 18.5t-18.5 50.5q0 33 18.5 51.5t46.5 18.5
q29 0 47 -18.5t18 -51.5zM603 822q0 -32 -18 -50.5t-47 -18.5q-28 0 -46.5 18.5t-18.5 50.5q0 33 18.5 51.5t46.5 18.5q29 0 47 -18.5t18 -51.5z" />
    <glyph glyph-name="Yacute" unicode="&#xdd;" horiz-adv-x="530" 
d="M323 379h10q17 52 34 78l137 219h141l-282 -444l-45 -232h-121l49 252l-114 424h122l60 -220q3 -11 5.5 -30t2.5 -33zM569 846q0 -14 -9.5 -23t-34.5 -24l-106 -64h-62l83 101q20 24 38.5 32t50.5 8q40 0 40 -30z" />
    <glyph glyph-name="Thorn" unicode="&#xde;" horiz-adv-x="514" 
d="M387 252q42 37 42 122q0 74 -72 74h-82l-43 -222h80q44 0 75 26zM188 0h-120l131 676h120l-23 -122h82q82 0 127 -45t45 -127q0 -49 -13 -92t-40.5 -80.5t-77.5 -59.5t-118 -22h-88z" />
    <glyph glyph-name="germandbls" unicode="&#xdf;" horiz-adv-x="529" 
d="M294 329l19 92l30 2q45 3 68.5 36t23.5 82q0 69 -65 69q-43 0 -64.5 -30t-34.5 -96l-95 -484h-118l98 501q20 107 75 158.5t153 51.5q79 0 126 -42.5t47 -113.5q0 -116 -87 -162q69 -38 69 -130q0 -273 -280 -273l19 97q75 6 108 45t33 113q0 38 -23 61t-69 23h-33z" />
    <glyph glyph-name="agrave" unicode="&#xe0;" horiz-adv-x="516" 
d="M77 141q0 78 27.5 158t74.5 125q69 66 194 66q44 0 86 -7t63 -14l20 -7l-59 -305q-5 -26 -0.5 -38.5t21.5 -20.5l13 -7l-43 -101q-48 4 -76 28t-35 60h-5q-55 -88 -146 -88q-62 0 -98.5 40t-36.5 111zM351 389q-59 0 -94 -39q-23 -26 -41 -81t-18 -104q0 -74 58 -74
q43 0 77 41t46 101l29 149q-26 7 -57 7zM227 641q0 34 49 34q50 0 72 -34l71 -107h-61l-112 76q-19 13 -19 31z" />
    <glyph glyph-name="aacute" unicode="&#xe1;" horiz-adv-x="516" 
d="M77 141q0 78 27.5 158t74.5 125q69 66 194 66q44 0 86 -7t63 -14l20 -7l-59 -305q-5 -26 -0.5 -38.5t21.5 -20.5l13 -7l-43 -101q-48 4 -76 28t-35 60h-5q-55 -88 -146 -88q-62 0 -98.5 40t-36.5 111zM351 389q-59 0 -94 -39q-23 -26 -41 -81t-18 -104q0 -74 58 -74
q43 0 77 41t46 101l29 149q-26 7 -57 7zM552 645q0 -14 -9.5 -23t-34.5 -24l-106 -64h-62l83 101q20 24 38.5 32t50.5 8q40 0 40 -30z" />
    <glyph glyph-name="acircumflex" unicode="&#xe2;" horiz-adv-x="516" 
d="M77 141q0 78 27.5 158t74.5 125q69 66 194 66q44 0 86 -7t63 -14l20 -7l-59 -305q-5 -26 -0.5 -38.5t21.5 -20.5l13 -7l-43 -101q-48 4 -76 28t-35 60h-5q-55 -88 -146 -88q-62 0 -98.5 40t-36.5 111zM351 389q-59 0 -94 -39q-23 -26 -41 -81t-18 -104q0 -74 58 -74
q43 0 77 41t46 101l29 149q-26 7 -57 7zM420 677l101 -107l-34 -40l-102 55h-9l-116 -55l-26 40l140 107h46z" />
    <glyph glyph-name="atilde" unicode="&#xe3;" horiz-adv-x="516" 
d="M77 141q0 78 27.5 158t74.5 125q69 66 194 66q44 0 86 -7t63 -14l20 -7l-59 -305q-5 -26 -0.5 -38.5t21.5 -20.5l13 -7l-43 -101q-48 4 -76 28t-35 60h-5q-55 -88 -146 -88q-62 0 -98.5 40t-36.5 111zM351 389q-59 0 -94 -39q-23 -26 -41 -81t-18 -104q0 -74 58 -74
q43 0 77 41t46 101l29 149q-26 7 -57 7zM499 658l42 -16q-5 -17 -10 -29.5t-16.5 -30t-30.5 -27t-45 -9.5q-17 0 -61.5 12.5t-60.5 12.5q-29 0 -48 -29l-41 16q24 96 101 96q18 0 62 -12.5t60 -12.5q29 0 48 29z" />
    <glyph glyph-name="adieresis" unicode="&#xe4;" horiz-adv-x="516" 
d="M77 141q0 78 27.5 158t74.5 125q69 66 194 66q44 0 86 -7t63 -14l20 -7l-59 -305q-5 -26 -0.5 -38.5t21.5 -20.5l13 -7l-43 -101q-48 4 -76 28t-35 60h-5q-55 -88 -146 -88q-62 0 -98.5 40t-36.5 111zM351 389q-59 0 -94 -39q-23 -26 -41 -81t-18 -104q0 -74 58 -74
q43 0 77 41t46 101l29 149q-26 7 -57 7zM351 626q0 -32 -18 -50.5t-47 -18.5q-28 0 -46.5 18.5t-18.5 50.5q0 33 18.5 51.5t46.5 18.5q29 0 47 -18.5t18 -51.5zM533 626q0 -32 -18 -50.5t-47 -18.5q-28 0 -46.5 18.5t-18.5 50.5q0 33 18.5 51.5t46.5 18.5q29 0 47 -18.5
t18 -51.5z" />
    <glyph glyph-name="aring" unicode="&#xe5;" horiz-adv-x="516" 
d="M77 141q0 78 27.5 158t74.5 125q69 66 194 66q44 0 86 -7t63 -14l20 -7l-59 -305q-5 -26 -0.5 -38.5t21.5 -20.5l13 -7l-43 -101q-48 4 -76 28t-35 60h-5q-55 -88 -146 -88q-62 0 -98.5 40t-36.5 111zM351 389q-59 0 -94 -39q-23 -26 -41 -81t-18 -104q0 -74 58 -74
q43 0 77 41t46 101l29 149q-26 7 -57 7zM431 637q0 21 -14.5 36t-35.5 15q-22 0 -36.5 -15t-14.5 -36t14.5 -35.5t36.5 -14.5t36 14.5t14 35.5zM491 637q0 -45 -30 -74t-80 -29t-80.5 29t-30.5 74t30.5 74.5t80.5 29.5q49 0 79.5 -29.5t30.5 -74.5z" />
    <glyph glyph-name="ae" unicode="&#xe6;" horiz-adv-x="781" 
d="M618 211h-126q-5 -30 -5 -53q0 -35 21 -51t69 -16q75 0 155 35l14 -85q-84 -51 -190 -51q-121 0 -164 74h-6q-74 -74 -181 -74q-64 0 -102 35t-38 91q0 98 75 140t215 42h37q8 42 8 51q0 39 -70 39q-79 0 -161 -34l-16 91q103 45 196 45t134 -46h5q53 46 161 46
q79 0 118.5 -34.5t39.5 -89.5q0 -72 -48.5 -113.5t-140.5 -41.5zM237 91q70 0 131 54v12q2 35 6 56q-29 0 -49 -0.5t-50 -5t-48 -12t-32 -23t-14 -37.5q0 -44 56 -44zM547 369q-20 -16 -37 -71h101q82 0 82 53q0 40 -69 40q-51 0 -77 -22z" />
    <glyph glyph-name="ccedilla" unicode="&#xe7;" horiz-adv-x="391" 
d="M368 109l13 -87q-47 -29 -123 -32l-13 -39h14q83 0 83 -63q0 -50 -33 -77t-96 -27q-23 0 -49 3t-40 6l-14 3l14 49q51 -7 77 -7q53 0 53 42q0 25 -40 25h-57l35 91q-115 27 -115 163q0 73 26.5 158.5t79.5 127.5q57 45 147 45q64 0 114 -23l-34 -91q-44 14 -77 14
q-49 0 -74 -25q-26 -26 -42.5 -86t-16.5 -108q0 -80 78 -80q40 0 90 18z" />
    <glyph glyph-name="egrave" unicode="&#xe8;" horiz-adv-x="489" 
d="M325 211h-125q-5 -30 -5 -51q0 -36 21 -52.5t68 -16.5q69 0 155 37l16 -87q-84 -51 -191 -51q-90 0 -138.5 40.5t-48.5 117.5q0 61 21.5 138.5t58.5 125.5q60 78 193 78q84 0 124.5 -33.5t40.5 -91.5q0 -72 -49 -113t-141 -41zM255 369q-22 -18 -37 -71h101q81 0 81 54
q0 21 -15.5 31t-51.5 10q-51 0 -78 -24zM209 641q0 34 49 34q50 0 72 -34l71 -107h-61l-112 76q-19 13 -19 31z" />
    <glyph glyph-name="eacute" unicode="&#xe9;" horiz-adv-x="489" 
d="M325 211h-125q-5 -30 -5 -51q0 -36 21 -52.5t68 -16.5q69 0 155 37l16 -87q-84 -51 -191 -51q-90 0 -138.5 40.5t-48.5 117.5q0 61 21.5 138.5t58.5 125.5q60 78 193 78q84 0 124.5 -33.5t40.5 -91.5q0 -72 -49 -113t-141 -41zM255 369q-22 -18 -37 -71h101q81 0 81 54
q0 21 -15.5 31t-51.5 10q-51 0 -78 -24zM538 645q0 -14 -9.5 -23t-34.5 -24l-106 -64h-62l83 101q20 24 38.5 32t50.5 8q40 0 40 -30z" />
    <glyph glyph-name="ecircumflex" unicode="&#xea;" horiz-adv-x="489" 
d="M325 211h-125q-5 -30 -5 -51q0 -36 21 -52.5t68 -16.5q69 0 155 37l16 -87q-84 -51 -191 -51q-90 0 -138.5 40.5t-48.5 117.5q0 61 21.5 138.5t58.5 125.5q60 78 193 78q84 0 124.5 -33.5t40.5 -91.5q0 -72 -49 -113t-141 -41zM255 369q-22 -18 -37 -71h101q81 0 81 54
q0 21 -15.5 31t-51.5 10q-51 0 -78 -24zM408 675l101 -107l-34 -40l-102 55h-9l-116 -55l-26 40l140 107h46z" />
    <glyph glyph-name="edieresis" unicode="&#xeb;" horiz-adv-x="489" 
d="M325 211h-125q-5 -30 -5 -51q0 -36 21 -52.5t68 -16.5q69 0 155 37l16 -87q-84 -51 -191 -51q-90 0 -138.5 40.5t-48.5 117.5q0 61 21.5 138.5t58.5 125.5q60 78 193 78q84 0 124.5 -33.5t40.5 -91.5q0 -72 -49 -113t-141 -41zM255 369q-22 -18 -37 -71h101q81 0 81 54
q0 21 -15.5 31t-51.5 10q-51 0 -78 -24zM329 626q0 -32 -18 -50.5t-47 -18.5q-28 0 -46.5 18.5t-18.5 50.5q0 33 18.5 51.5t46.5 18.5q29 0 47 -18.5t18 -51.5zM511 626q0 -32 -18 -50.5t-47 -18.5q-28 0 -46.5 18.5t-18.5 50.5q0 33 18.5 51.5t46.5 18.5q29 0 47 -18.5
t18 -51.5z" />
    <glyph glyph-name="igrave" unicode="&#xec;" horiz-adv-x="236" 
d="M66 641q0 34 49 34q50 0 72 -34l71 -107h-61l-112 76q-19 13 -19 31zM269 480l-93 -480h-118l93 480h118z" />
    <glyph glyph-name="iacute" unicode="&#xed;" horiz-adv-x="236" 
d="M382 645q0 -14 -9.5 -23t-34.5 -24l-106 -64h-62l83 101q20 24 38.5 32t50.5 8q40 0 40 -30zM269 480l-93 -480h-118l93 480h118z" />
    <glyph glyph-name="icircumflex" unicode="&#xee;" horiz-adv-x="236" 
d="M269 480l-93 -480h-118l93 480h118zM262 677l101 -107l-34 -40l-102 55h-9l-116 -55l-26 40l140 107h46z" />
    <glyph glyph-name="idieresis" unicode="&#xef;" horiz-adv-x="236" 
d="M197 626q0 -32 -18 -50.5t-47 -18.5q-28 0 -46.5 18.5t-18.5 50.5q0 33 18.5 51.5t46.5 18.5q29 0 47 -18.5t18 -51.5zM369 626q0 -32 -18 -50.5t-47 -18.5q-28 0 -46.5 18.5t-18.5 50.5q0 33 18.5 51.5t46.5 18.5q29 0 47 -18.5t18 -51.5zM269 480l-93 -480h-118l93 480
h118z" />
    <glyph glyph-name="eth" unicode="&#xf0;" horiz-adv-x="484" 
d="M259 91q39 0 65 26q24 24 42 86.5t18 118.5q0 32 -17 49.5t-48 17.5q-41 0 -65 -26q-27 -28 -44 -93t-17 -113q0 -31 18.5 -48.5t47.5 -17.5zM253 523l-32 64l84 42q-29 22 -67 40l36 62q66 -21 119 -58q17 8 54 27t45 23l32 -65l-76 -38q63 -83 63 -211
q0 -103 -25.5 -207t-84.5 -159q-58 -53 -156 -53q-77 0 -122.5 42t-45.5 116q0 83 26 166t76 126q57 48 135 48q47 0 78 -20l4 2q-7 58 -41 105z" />
    <glyph glyph-name="ntilde" unicode="&#xf1;" horiz-adv-x="505" 
d="M513 310l-60 -310h-119l59 302q5 23 5 38q0 49 -53 49q-42 0 -74 -34t-44 -95l-50 -260h-119l93 480h79l21 -58h5q61 68 143 68q56 0 88.5 -30.5t32.5 -82.5q0 -31 -7 -67zM484 658l42 -16q-5 -17 -10 -29.5t-16.5 -30t-30.5 -27t-45 -9.5q-17 0 -61.5 12.5t-60.5 12.5
q-29 0 -48 -29l-41 16q24 96 101 96q18 0 62 -12.5t60 -12.5q29 0 48 29z" />
    <glyph glyph-name="ograve" unicode="&#xf2;" horiz-adv-x="484" 
d="M260 91q39 0 65 26q24 24 42 86.5t18 118.5q0 32 -17 49.5t-48 17.5q-41 0 -65 -26q-27 -28 -44 -93t-17 -113q0 -31 18.5 -48.5t47.5 -17.5zM501 332q1 -75 -24 -159t-75 -130q-56 -53 -156 -53q-78 0 -122.5 41.5t-45.5 116.5t24.5 162t77.5 130q61 50 154 50
q77 0 121.5 -40.5t45.5 -117.5zM174 641q0 34 49 34q50 0 72 -34l71 -107h-61l-112 76q-19 13 -19 31z" />
    <glyph glyph-name="oacute" unicode="&#xf3;" horiz-adv-x="484" 
d="M260 91q39 0 65 26q24 24 42 86.5t18 118.5q0 32 -17 49.5t-48 17.5q-41 0 -65 -26q-27 -28 -44 -93t-17 -113q0 -31 18.5 -48.5t47.5 -17.5zM501 332q1 -75 -24 -159t-75 -130q-56 -53 -156 -53q-78 0 -122.5 41.5t-45.5 116.5t24.5 162t77.5 130q61 50 154 50
q77 0 121.5 -40.5t45.5 -117.5zM519 645q0 -14 -9.5 -23t-34.5 -24l-106 -64h-62l83 101q20 24 38.5 32t50.5 8q40 0 40 -30z" />
    <glyph glyph-name="ocircumflex" unicode="&#xf4;" horiz-adv-x="484" 
d="M260 91q39 0 65 26q24 24 42 86.5t18 118.5q0 32 -17 49.5t-48 17.5q-41 0 -65 -26q-27 -28 -44 -93t-17 -113q0 -31 18.5 -48.5t47.5 -17.5zM501 332q1 -75 -24 -159t-75 -130q-56 -53 -156 -53q-78 0 -122.5 41.5t-45.5 116.5t24.5 162t77.5 130q61 50 154 50
q77 0 121.5 -40.5t45.5 -117.5zM384 677l101 -107l-34 -40l-102 55h-9l-116 -55l-26 40l140 107h46z" />
    <glyph glyph-name="otilde" unicode="&#xf5;" horiz-adv-x="484" 
d="M260 91q39 0 65 26q24 24 42 86.5t18 118.5q0 32 -17 49.5t-48 17.5q-41 0 -65 -26q-27 -28 -44 -93t-17 -113q0 -31 18.5 -48.5t47.5 -17.5zM501 332q1 -75 -24 -159t-75 -130q-56 -53 -156 -53q-78 0 -122.5 41.5t-45.5 116.5t24.5 162t77.5 130q61 50 154 50
q77 0 121.5 -40.5t45.5 -117.5zM465 658l42 -16q-5 -17 -10 -29.5t-16.5 -30t-30.5 -27t-45 -9.5q-17 0 -61.5 12.5t-60.5 12.5q-29 0 -48 -29l-41 16q24 96 101 96q18 0 62 -12.5t60 -12.5q29 0 48 29z" />
    <glyph glyph-name="odieresis" unicode="&#xf6;" horiz-adv-x="484" 
d="M260 91q39 0 65 26q24 24 42 86.5t18 118.5q0 32 -17 49.5t-48 17.5q-41 0 -65 -26q-27 -28 -44 -93t-17 -113q0 -31 18.5 -48.5t47.5 -17.5zM501 332q1 -75 -24 -159t-75 -130q-56 -53 -156 -53q-78 0 -122.5 41.5t-45.5 116.5t24.5 162t77.5 130q61 50 154 50
q77 0 121.5 -40.5t45.5 -117.5zM313 626q0 -32 -18 -50.5t-47 -18.5q-28 0 -46.5 18.5t-18.5 50.5q0 33 18.5 51.5t46.5 18.5q29 0 47 -18.5t18 -51.5zM495 626q0 -32 -18 -50.5t-47 -18.5q-28 0 -46.5 18.5t-18.5 50.5q0 33 18.5 51.5t46.5 18.5q29 0 47 -18.5t18 -51.5z
" />
    <glyph glyph-name="divide" unicode="&#xf7;" 
d="M508 281l-16 -83h-410l16 83h410zM335 79q0 -32 -19.5 -50.5t-50.5 -18.5q-30 0 -50 18.5t-20 50.5q0 33 20 51.5t50 18.5q31 0 50.5 -18.5t19.5 -51.5zM395 398q0 -32 -19.5 -50.5t-50.5 -18.5q-30 0 -50 18.5t-20 50.5q0 33 20 51.5t50 18.5q31 0 50.5 -18.5
t19.5 -51.5z" />
    <glyph glyph-name="oslash" unicode="&#xf8;" horiz-adv-x="484" 
d="M500 332q1 -75 -24 -159t-75 -130q-56 -53 -156 -53q-62 0 -106 28l-33 -38l-51 43l40 46q-18 33 -18 79q-1 75 24.5 162t77.5 130q61 50 154 50q64 0 105 -28l31 38l51 -44l-38 -44q16 -33 18 -80zM262 91q46 0 72 26q24 24 41 82.5t19 114.5l-3 1q-8 -14 -17 -25
l-160 -187q20 -12 48 -12zM244 363q-25 -26 -41.5 -85t-19.5 -108l3 -1q6 11 20 28l157 180q-20 12 -47 12q-48 0 -72 -26z" />
    <glyph glyph-name="ugrave" unicode="&#xf9;" horiz-adv-x="510" 
d="M493 99l15 -8l-43 -101q-45 3 -73.5 26t-36.5 57h-6q-52 -83 -141 -83q-58 0 -93 35.5t-35 94.5q0 39 12 99l50 261h118l-52 -268q-10 -47 -10 -69q0 -52 51 -52q43 0 76.5 44t46.5 112l46 233h118l-63 -328q-7 -39 20 -53zM187 641q0 34 49 34q50 0 72 -34l71 -107h-61
l-112 76q-19 13 -19 31z" />
    <glyph glyph-name="uacute" unicode="&#xfa;" horiz-adv-x="510" 
d="M493 99l15 -8l-43 -101q-45 3 -73.5 26t-36.5 57h-6q-52 -83 -141 -83q-58 0 -93 35.5t-35 94.5q0 39 12 99l50 261h118l-52 -268q-10 -47 -10 -69q0 -52 51 -52q43 0 76.5 44t46.5 112l46 233h118l-63 -328q-7 -39 20 -53zM526 645q0 -14 -9.5 -23t-34.5 -24l-106 -64
h-62l83 101q20 24 38.5 32t50.5 8q40 0 40 -30z" />
    <glyph glyph-name="ucircumflex" unicode="&#xfb;" horiz-adv-x="510" 
d="M493 99l15 -8l-43 -101q-45 3 -73.5 26t-36.5 57h-6q-52 -83 -141 -83q-58 0 -93 35.5t-35 94.5q0 39 12 99l50 261h118l-52 -268q-10 -47 -10 -69q0 -52 51 -52q43 0 76.5 44t46.5 112l46 233h118l-63 -328q-7 -39 20 -53zM397 677l101 -107l-34 -40l-102 55h-9
l-116 -55l-26 40l140 107h46z" />
    <glyph glyph-name="udieresis" unicode="&#xfc;" horiz-adv-x="510" 
d="M493 99l15 -8l-43 -101q-45 3 -73.5 26t-36.5 57h-6q-52 -83 -141 -83q-58 0 -93 35.5t-35 94.5q0 39 12 99l50 261h118l-52 -268q-10 -47 -10 -69q0 -52 51 -52q43 0 76.5 44t46.5 112l46 233h118l-63 -328q-7 -39 20 -53zM333 626q0 -32 -18 -50.5t-47 -18.5
q-28 0 -46.5 18.5t-18.5 50.5q0 33 18.5 51.5t46.5 18.5q29 0 47 -18.5t18 -51.5zM515 626q0 -32 -18 -50.5t-47 -18.5q-28 0 -46.5 18.5t-18.5 50.5q0 33 18.5 51.5t46.5 18.5q29 0 47 -18.5t18 -51.5z" />
    <glyph glyph-name="yacute" unicode="&#xfd;" horiz-adv-x="476" 
d="M429 480h125l-221 -533q-44 -107 -101 -145t-164 -38h-61l18 104h75q43 0 68 19t47 74l15 39h-41l-87 480h119l48 -276l9 -87h11q14 57 29 94zM510 645q0 -14 -9.5 -23t-34.5 -24l-106 -64h-62l83 101q20 24 38.5 32t50.5 8q40 0 40 -30z" />
    <glyph glyph-name="thorn" unicode="&#xfe;" horiz-adv-x="503" 
d="M341 114q30 28 45 88.5t15 110.5q0 76 -63 76q-41 0 -70.5 -31t-38.5 -80l-31 -161q28 -26 78 -26q39 0 65 23zM521 342q0 -59 -12 -117.5t-37 -113t-69 -88t-101 -33.5q-70 0 -122 38l-49 -255h-118l179 923h117l-52 -270h4q52 64 131 64q59 0 94 -37.5t35 -110.5z" />
    <glyph glyph-name="ydieresis" unicode="&#xff;" horiz-adv-x="476" 
d="M429 480h125l-221 -533q-44 -107 -101 -145t-164 -38h-61l18 104h75q43 0 68 19t47 74l15 39h-41l-87 480h119l48 -276l9 -87h11q14 57 29 94zM307 626q0 -32 -18 -50.5t-47 -18.5q-28 0 -46.5 18.5t-18.5 50.5q0 33 18.5 51.5t46.5 18.5q29 0 47 -18.5t18 -51.5z
M489 626q0 -32 -18 -50.5t-47 -18.5q-28 0 -46.5 18.5t-18.5 50.5q0 33 18.5 51.5t46.5 18.5q29 0 47 -18.5t18 -51.5z" />
    <glyph glyph-name="Amacron" unicode="&#x100;" horiz-adv-x="578" 
d="M448 0l-20 161h-212l-75 -161h-130l317 676h158l81 -676h-119zM347 442l-85 -183h154l-22 189l-4 84h-13q-17 -62 -30 -90zM551 826l-16 -80h-249l15 80h250z" />
    <glyph glyph-name="amacron" unicode="&#x101;" horiz-adv-x="516" 
d="M77 141q0 78 27.5 158t74.5 125q69 66 194 66q44 0 86 -7t63 -14l20 -7l-59 -305q-5 -26 -0.5 -38.5t21.5 -20.5l13 -7l-43 -101q-48 4 -76 28t-35 60h-5q-55 -88 -146 -88q-62 0 -98.5 40t-36.5 111zM351 389q-59 0 -94 -39q-23 -26 -41 -81t-18 -104q0 -74 58 -74
q43 0 77 41t46 101l29 149q-26 7 -57 7zM518 630l-16 -80h-249l15 80h250z" />
    <glyph glyph-name="Abreve" unicode="&#x102;" horiz-adv-x="578" 
d="M448 0l-20 161h-212l-75 -161h-130l317 676h158l81 -676h-119zM347 442l-85 -183h154l-22 189l-4 84h-13q-17 -62 -30 -90zM507 872h61q-11 -61 -53 -101.5t-107 -40.5q-66 0 -95.5 41t-19.5 101h60q-1 -26 15 -45t51 -19q34 0 57 19t31 45z" />
    <glyph glyph-name="abreve" unicode="&#x103;" horiz-adv-x="516" 
d="M77 141q0 78 27.5 158t74.5 125q69 66 194 66q44 0 86 -7t63 -14l20 -7l-59 -305q-5 -26 -0.5 -38.5t21.5 -20.5l13 -7l-43 -101q-48 4 -76 28t-35 60h-5q-55 -88 -146 -88q-62 0 -98.5 40t-36.5 111zM351 389q-59 0 -94 -39q-23 -26 -41 -81t-18 -104q0 -74 58 -74
q43 0 77 41t46 101l29 149q-26 7 -57 7zM475 676h61q-11 -61 -53 -101.5t-107 -40.5q-66 0 -95.5 41t-19.5 101h60q-1 -26 15 -45t51 -19q34 0 57 19t31 45z" />
    <glyph glyph-name="Aogonek" unicode="&#x104;" horiz-adv-x="578" 
d="M448 0l-20 161h-212l-75 -161h-130l317 676h158l81 -676q-93 -68 -93 -120q0 -34 46 -34l37 3l2 -53q-33 -12 -78 -12q-53 0 -81 19.5t-28 55.5q0 43 32.5 79t74.5 59v3h-31zM347 442l-85 -183h154l-22 189l-4 84h-13q-17 -62 -30 -90z" />
    <glyph glyph-name="aogonek" unicode="&#x105;" horiz-adv-x="516" 
d="M77 141q0 78 27.5 158t74.5 125q69 66 194 66q44 0 86 -7t63 -14l20 -7l-59 -305q-5 -26 -0.5 -38.5t21.5 -20.5l13 -7l-43 -101q-77 -63 -77 -110q0 -34 46 -34l37 3l2 -53q-33 -12 -78 -12q-53 0 -81 19.5t-28 55.5q0 46 37 84.5t81 59.5v3q-40 23 -50 72h-5
q-55 -88 -146 -88q-62 0 -98.5 40t-36.5 111zM351 389q-59 0 -94 -39q-23 -26 -41 -81t-18 -104q0 -74 58 -74q43 0 77 41t46 101l29 149q-26 7 -57 7z" />
    <glyph glyph-name="Cacute" unicode="&#x106;" horiz-adv-x="511" 
d="M489 114l13 -93q-79 -36 -178 -36q-101 0 -163 55.5t-62 158.5q0 111 37.5 238.5t112.5 188.5q81 65 202 65q85 0 146 -24l-39 -98q-49 16 -105 16q-78 0 -129 -44q-45 -39 -73.5 -145t-28.5 -182q0 -61 33 -92t94 -31q69 0 140 23zM632 845q0 -14 -9.5 -23t-34.5 -24
l-106 -64h-62l83 101q20 24 38.5 32t50.5 8q40 0 40 -30z" />
    <glyph glyph-name="cacute" unicode="&#x107;" horiz-adv-x="391" 
d="M368 109l13 -87q-53 -32 -133 -32q-81 0 -126 43t-45 126q0 73 26.5 158.5t79.5 127.5q57 45 147 45q64 0 114 -23l-34 -91q-44 14 -77 14q-49 0 -74 -25q-26 -26 -42.5 -86t-16.5 -108q0 -80 78 -80q40 0 90 18zM502 645q0 -14 -9.5 -23t-34.5 -24l-106 -64h-62l83 101
q20 24 38.5 32t50.5 8q40 0 40 -30z" />
    <glyph glyph-name="Ccircumflex" unicode="&#x108;" horiz-adv-x="511" 
d="M489 114l13 -93q-79 -36 -178 -36q-101 0 -163 55.5t-62 158.5q0 111 37.5 238.5t112.5 188.5q81 65 202 65q85 0 146 -24l-39 -98q-49 16 -105 16q-78 0 -129 -44q-45 -39 -73.5 -145t-28.5 -182q0 -61 33 -92t94 -31q69 0 140 23zM501 873l101 -107l-34 -40l-102 55h-9
l-116 -55l-26 40l140 107h46z" />
    <glyph glyph-name="ccircumflex" unicode="&#x109;" horiz-adv-x="391" 
d="M368 109l13 -87q-53 -32 -133 -32q-81 0 -126 43t-45 126q0 73 26.5 158.5t79.5 127.5q57 45 147 45q64 0 114 -23l-34 -91q-44 14 -77 14q-49 0 -74 -25q-26 -26 -42.5 -86t-16.5 -108q0 -80 78 -80q40 0 90 18zM369 677l101 -107l-34 -40l-102 55h-9l-116 -55l-26 40
l140 107h46z" />
    <glyph glyph-name="Cdotaccent" unicode="&#x10a;" horiz-adv-x="511" 
d="M489 114l13 -93q-79 -36 -178 -36q-101 0 -163 55.5t-62 158.5q0 111 37.5 238.5t112.5 188.5q81 65 202 65q85 0 146 -24l-39 -98q-49 16 -105 16q-78 0 -129 -44q-45 -39 -73.5 -145t-28.5 -182q0 -61 33 -92t94 -31q69 0 140 23zM523 822q0 -32 -18 -50.5t-47 -18.5
q-28 0 -46.5 18.5t-18.5 50.5q0 33 18.5 51.5t46.5 18.5q29 0 47 -18.5t18 -51.5z" />
    <glyph glyph-name="cdotaccent" unicode="&#x10b;" horiz-adv-x="391" 
d="M368 109l13 -87q-53 -32 -133 -32q-81 0 -126 43t-45 126q0 73 26.5 158.5t79.5 127.5q57 45 147 45q64 0 114 -23l-34 -91q-44 14 -77 14q-49 0 -74 -25q-26 -26 -42.5 -86t-16.5 -108q0 -80 78 -80q40 0 90 18zM401 626q0 -32 -18 -50.5t-47 -18.5q-28 0 -46.5 18.5
t-18.5 50.5q0 33 18.5 51.5t46.5 18.5q29 0 47 -18.5t18 -51.5z" />
    <glyph glyph-name="Ccaron" unicode="&#x10c;" horiz-adv-x="511" 
d="M489 114l13 -93q-79 -36 -178 -36q-101 0 -163 55.5t-62 158.5q0 111 37.5 238.5t112.5 188.5q81 65 202 65q85 0 146 -24l-39 -98q-49 16 -105 16q-78 0 -129 -44q-45 -39 -73.5 -145t-28.5 -182q0 -61 33 -92t94 -31q69 0 140 23zM427 734l-102 106l35 40l101 -55h9
l116 55l26 -40l-140 -106h-45z" />
    <glyph glyph-name="ccaron" unicode="&#x10d;" horiz-adv-x="391" 
d="M368 109l13 -87q-53 -32 -133 -32q-81 0 -126 43t-45 126q0 73 26.5 158.5t79.5 127.5q57 45 147 45q64 0 114 -23l-34 -91q-44 14 -77 14q-49 0 -74 -25q-26 -26 -42.5 -86t-16.5 -108q0 -80 78 -80q40 0 90 18zM306 534l-102 106l35 40l101 -55h9l116 55l26 -40
l-140 -106h-45z" />
    <glyph glyph-name="Dcaron" unicode="&#x10e;" horiz-adv-x="592" 
d="M409 139q44 37 68.5 130t24.5 175q0 66 -30.5 96t-100.5 30h-71l-91 -464h95q66 0 105 33zM624 449q0 -111 -31.5 -220t-99.5 -167q-74 -62 -194 -62h-232l131 676h194q109 0 170.5 -58t61.5 -169zM356 730l-102 106l35 40l101 -55h9l116 55l26 -40l-140 -106h-45z" />
    <glyph glyph-name="dcaron" unicode="&#x10f;" horiz-adv-x="664" 
d="M588 696l-105 -538q-3 -14 -3 -23q0 -24 24 -37l14 -7l-44 -101q-45 4 -73.5 27.5t-36.5 60.5h-5q-52 -88 -147 -88q-64 0 -99.5 39.5t-35.5 109.5q0 78 26.5 158.5t73.5 126.5q67 66 186 66q32 0 65 -6l41 212h119zM351 389q-59 0 -94 -39q-23 -26 -41 -81t-18 -104
q0 -74 58 -74q43 0 77 41t46 101l29 149q-26 7 -57 7zM771 642q0 -6 -0.5 -12t-2.5 -13t-3 -12t-4 -12.5t-5 -12t-6 -13t-5.5 -12t-7 -13t-6.5 -12.5l-44 -86l-45 7l36 123v2q-47 15 -47 66q0 33 20 51.5t50 18.5q31 0 50.5 -18.5t19.5 -51.5z" />
    <glyph glyph-name="Dmacron" unicode="&#x110;" horiz-adv-x="592" 
d="M59 291l19 94h63l57 291h194q109 0 170.5 -58t61.5 -169t-31.5 -220t-99.5 -167q-74 -62 -194 -62h-232l56 291h-64zM409 139q44 37 68.5 130t24.5 175q0 66 -30.5 96t-100.5 30h-71l-36 -185h120l-19 -94h-120l-36 -185h95q66 0 105 33z" />
    <glyph glyph-name="dmacron" unicode="&#x111;" horiz-adv-x="520" 
d="M351 389q-59 0 -94 -39q-23 -26 -41 -81t-18 -104q0 -74 58 -74q43 0 77 41t46 101l29 149q-26 7 -57 7zM588 696l-16 -80h63l-15 -77h-63l-74 -381q-3 -14 -3 -23q0 -24 24 -37l14 -7l-44 -101q-45 4 -73.5 27.5t-36.5 60.5h-5q-52 -88 -147 -88q-64 0 -99.5 39.5
t-35.5 109.5q0 78 26.5 158.5t73.5 126.5q67 66 186 66q32 0 65 -6l10 55h-135l15 77h135l16 80h119z" />
    <glyph glyph-name="Emacron" unicode="&#x112;" horiz-adv-x="465" 
d="M468 98l-19 -98h-381l131 676h358l-19 -98h-236l-34 -175h166l-19 -94h-166l-41 -211h260zM529 826l-16 -80h-249l15 80h250z" />
    <glyph glyph-name="emacron" unicode="&#x113;" horiz-adv-x="489" 
d="M325 211h-125q-5 -30 -5 -51q0 -36 21 -52.5t68 -16.5q69 0 155 37l16 -87q-84 -51 -191 -51q-90 0 -138.5 40.5t-48.5 117.5q0 61 21.5 138.5t58.5 125.5q60 78 193 78q84 0 124.5 -33.5t40.5 -91.5q0 -72 -49 -113t-141 -41zM255 369q-22 -18 -37 -71h101q81 0 81 54
q0 21 -15.5 31t-51.5 10q-51 0 -78 -24zM494 630l-16 -80h-249l15 80h250z" />
    <glyph glyph-name="Ebreve" unicode="&#x114;" horiz-adv-x="465" 
d="M468 98l-19 -98h-381l131 676h358l-19 -98h-236l-34 -175h166l-19 -94h-166l-41 -211h260zM493 872h61q-11 -61 -53 -101.5t-107 -40.5q-66 0 -95.5 41t-19.5 101h60q-1 -26 15 -45t51 -19q34 0 57 19t31 45z" />
    <glyph glyph-name="ebreve" unicode="&#x115;" horiz-adv-x="489" 
d="M325 211h-125q-5 -30 -5 -51q0 -36 21 -52.5t68 -16.5q69 0 155 37l16 -87q-84 -51 -191 -51q-90 0 -138.5 40.5t-48.5 117.5q0 61 21.5 138.5t58.5 125.5q60 78 193 78q84 0 124.5 -33.5t40.5 -91.5q0 -72 -49 -113t-141 -41zM255 369q-22 -18 -37 -71h101q81 0 81 54
q0 21 -15.5 31t-51.5 10q-51 0 -78 -24zM455 676h61q-11 -61 -53 -101.5t-107 -40.5q-66 0 -95.5 41t-19.5 101h60q-1 -26 15 -45t51 -19q34 0 57 19t31 45z" />
    <glyph glyph-name="Edotaccent" unicode="&#x116;" horiz-adv-x="465" 
d="M468 98l-19 -98h-381l131 676h358l-19 -98h-236l-34 -175h166l-19 -94h-166l-41 -211h260zM463 822q0 -32 -18 -50.5t-47 -18.5q-28 0 -46.5 18.5t-18.5 50.5q0 33 18.5 51.5t46.5 18.5q29 0 47 -18.5t18 -51.5z" />
    <glyph glyph-name="edotaccent" unicode="&#x117;" horiz-adv-x="489" 
d="M325 211h-125q-5 -30 -5 -51q0 -36 21 -52.5t68 -16.5q69 0 155 37l16 -87q-84 -51 -191 -51q-90 0 -138.5 40.5t-48.5 117.5q0 61 21.5 138.5t58.5 125.5q60 78 193 78q84 0 124.5 -33.5t40.5 -91.5q0 -72 -49 -113t-141 -41zM255 369q-22 -18 -37 -71h101q81 0 81 54
q0 21 -15.5 31t-51.5 10q-51 0 -78 -24zM425 626q0 -32 -18 -50.5t-47 -18.5q-28 0 -46.5 18.5t-18.5 50.5q0 33 18.5 51.5t46.5 18.5q29 0 47 -18.5t18 -51.5z" />
    <glyph glyph-name="Eogonek" unicode="&#x118;" horiz-adv-x="465" 
d="M468 98l-19 -98q-93 -65 -93 -120q0 -34 46 -34l37 3l2 -53q-33 -12 -78 -12q-53 0 -81 19.5t-28 55.5q0 42 31.5 78t72.5 60v3h-290l131 676h358l-19 -98h-236l-34 -175h166l-19 -94h-166l-41 -211h260z" />
    <glyph glyph-name="eogonek" unicode="&#x119;" horiz-adv-x="489" 
d="M325 211h-125q-5 -30 -5 -51q0 -36 21 -52.5t68 -16.5q69 0 155 37l16 -87q-39 -24 -90 -38q-92 -67 -92 -123q0 -34 46 -34l37 3l2 -53q-33 -12 -78 -12q-53 0 -81 19.5t-28 55.5q0 38 26.5 72t63.5 57v2q-89 1 -136.5 41t-47.5 117q0 61 21.5 138.5t58.5 125.5
q60 78 193 78q84 0 124.5 -33.5t40.5 -91.5q0 -72 -49 -113t-141 -41zM255 369q-22 -18 -37 -71h101q81 0 81 54q0 21 -15.5 31t-51.5 10q-51 0 -78 -24z" />
    <glyph glyph-name="Ecaron" unicode="&#x11a;" horiz-adv-x="465" 
d="M468 98l-19 -98h-381l131 676h358l-19 -98h-236l-34 -175h166l-19 -94h-166l-41 -211h260zM365 730l-102 106l35 40l101 -55h9l116 55l26 -40l-140 -106h-45z" />
    <glyph glyph-name="ecaron" unicode="&#x11b;" horiz-adv-x="489" 
d="M325 211h-125q-5 -30 -5 -51q0 -36 21 -52.5t68 -16.5q69 0 155 37l16 -87q-84 -51 -191 -51q-90 0 -138.5 40.5t-48.5 117.5q0 61 21.5 138.5t58.5 125.5q60 78 193 78q84 0 124.5 -33.5t40.5 -91.5q0 -72 -49 -113t-141 -41zM255 369q-22 -18 -37 -71h101q81 0 81 54
q0 21 -15.5 31t-51.5 10q-51 0 -78 -24zM325 534l-102 106l35 40l101 -55h9l116 55l26 -40l-140 -106h-45z" />
    <glyph glyph-name="Gcircumflex" unicode="&#x11c;" horiz-adv-x="614" 
d="M359 91q54 0 113 21l33 166h-137l18 94h258l-63 -320q-104 -67 -240 -67q-109 0 -175.5 53.5t-66.5 161.5q0 71 13.5 147t49.5 155t88 120q88 69 219 69q117 0 192 -42l-44 -96q-73 32 -152 32q-90 0 -144 -49q-45 -40 -72 -141.5t-27 -179.5q0 -124 137 -124zM516 873
l101 -107l-34 -40l-102 55h-9l-116 -55l-26 40l140 107h46z" />
    <glyph glyph-name="gcircumflex" unicode="&#x11d;" horiz-adv-x="503" 
d="M381 243l27 139q-25 7 -57 7q-59 0 -94 -39q-24 -26 -41.5 -81t-17.5 -105q0 -73 57 -73q44 0 79 45t47 107zM542 462l-97 -500q-20 -101 -71 -149.5t-150 -48.5q-53 0 -95.5 13.5t-61.5 26.5l36 89q54 -29 115 -29q90 0 106 81l23 125h-6q-47 -80 -128 -80
q-64 0 -99.5 39t-35.5 110q0 78 27.5 159t74.5 126q69 66 194 66q44 0 86 -7t62 -14zM430 677l101 -107l-34 -40l-102 55h-9l-116 -55l-26 40l140 107h46z" />
    <glyph glyph-name="Gbreve" unicode="&#x11e;" horiz-adv-x="614" 
d="M359 91q54 0 113 21l33 166h-137l18 94h258l-63 -320q-104 -67 -240 -67q-109 0 -175.5 53.5t-66.5 161.5q0 71 13.5 147t49.5 155t88 120q88 69 219 69q117 0 192 -42l-44 -96q-73 32 -152 32q-90 0 -144 -49q-45 -40 -72 -141.5t-27 -179.5q0 -124 137 -124zM577 872
h61q-11 -61 -53 -101.5t-107 -40.5q-66 0 -95.5 41t-19.5 101h60q-1 -26 15 -45t51 -19q34 0 57 19t31 45z" />
    <glyph glyph-name="gbreve" unicode="&#x11f;" horiz-adv-x="503" 
d="M381 243l27 139q-25 7 -57 7q-59 0 -94 -39q-24 -26 -41.5 -81t-17.5 -105q0 -73 57 -73q44 0 79 45t47 107zM542 462l-97 -500q-20 -101 -71 -149.5t-150 -48.5q-53 0 -95.5 13.5t-61.5 26.5l36 89q54 -29 115 -29q90 0 106 81l23 125h-6q-47 -80 -128 -80
q-64 0 -99.5 39t-35.5 110q0 78 27.5 159t74.5 126q69 66 194 66q44 0 86 -7t62 -14zM482 676h61q-11 -61 -53 -101.5t-107 -40.5q-66 0 -95.5 41t-19.5 101h60q-1 -26 15 -45t51 -19q34 0 57 19t31 45z" />
    <glyph glyph-name="Gdotaccent" unicode="&#x120;" horiz-adv-x="614" 
d="M359 91q54 0 113 21l33 166h-137l18 94h258l-63 -320q-104 -67 -240 -67q-109 0 -175.5 53.5t-66.5 161.5q0 71 13.5 147t49.5 155t88 120q88 69 219 69q117 0 192 -42l-44 -96q-73 32 -152 32q-90 0 -144 -49q-45 -40 -72 -141.5t-27 -179.5q0 -124 137 -124zM537 822
q0 -32 -18 -50.5t-47 -18.5q-28 0 -46.5 18.5t-18.5 50.5q0 33 18.5 51.5t46.5 18.5q29 0 47 -18.5t18 -51.5z" />
    <glyph glyph-name="gdotaccent" unicode="&#x121;" horiz-adv-x="503" 
d="M381 243l27 139q-25 7 -57 7q-59 0 -94 -39q-24 -26 -41.5 -81t-17.5 -105q0 -73 57 -73q44 0 79 45t47 107zM542 462l-97 -500q-20 -101 -71 -149.5t-150 -48.5q-53 0 -95.5 13.5t-61.5 26.5l36 89q54 -29 115 -29q90 0 106 81l23 125h-6q-47 -80 -128 -80
q-64 0 -99.5 39t-35.5 110q0 78 27.5 159t74.5 126q69 66 194 66q44 0 86 -7t62 -14zM458 626q0 -32 -18 -50.5t-47 -18.5q-28 0 -46.5 18.5t-18.5 50.5q0 33 18.5 51.5t46.5 18.5q29 0 47 -18.5t18 -51.5z" />
    <glyph glyph-name="Gcommaaccent" unicode="&#x122;" horiz-adv-x="614" 
d="M359 91q54 0 113 21l33 166h-137l18 94h258l-63 -320q-104 -67 -240 -67q-109 0 -175.5 53.5t-66.5 161.5q0 71 13.5 147t49.5 155t88 120q88 69 219 69q117 0 192 -42l-44 -96q-73 32 -152 32q-90 0 -144 -49q-45 -40 -72 -141.5t-27 -179.5q0 -124 137 -124zM396 -115
q0 -33 -42 -109l-50 -89l-48 9l41 121v4q-41 17 -41 64q0 33 20 51.5t50 18.5q31 0 50.5 -18.5t19.5 -51.5z" />
    <glyph glyph-name="gcommaaccent" unicode="&#x123;" horiz-adv-x="503" 
d="M381 243l27 139q-25 7 -57 7q-59 0 -94 -39q-24 -26 -41.5 -81t-17.5 -105q0 -73 57 -73q44 0 79 45t47 107zM542 462l-97 -500q-20 -101 -71 -149.5t-150 -48.5q-53 0 -95.5 13.5t-61.5 26.5l36 89q54 -29 115 -29q90 0 106 81l23 125h-6q-47 -80 -128 -80
q-64 0 -99.5 39t-35.5 110q0 78 27.5 159t74.5 126q69 66 194 66q44 0 86 -7t62 -14zM322 612q0 7 1 14t2 12.5t4 13.5l4.5 12t6.5 14t6 12.5t7 14t7 13.5l42 82l43 -7l-35 -117v-1q45 -15 45 -63q0 -31 -19 -49t-48 -18t-47.5 18t-18.5 49z" />
    <glyph glyph-name="Hcircumflex" unicode="&#x124;" horiz-adv-x="655" 
d="M717 676l-131 -676h-121q4 22 29 151t30 156h-275l-60 -307h-121l131 676h121q-4 -24 -26.5 -138.5t-25.5 -132.5h275q24 131 53 271h121zM503 873l101 -107l-34 -40l-102 55h-9l-116 -55l-26 40l140 107h46z" />
    <glyph glyph-name="hcircumflex" unicode="&#x125;" horiz-adv-x="505" 
d="M513 310l-60 -310h-119l59 302q4 19 4 37q0 50 -52 50q-43 0 -75 -34.5t-44 -95.5l-50 -259h-118l135 696h118l-53 -268h6q59 62 136 62q55 0 87.5 -31t32.5 -82q0 -32 -7 -67zM306 873l101 -107l-34 -40l-102 55h-9l-116 -55l-26 40l140 107h46z" />
    <glyph glyph-name="Imacron" unicode="&#x12a;" horiz-adv-x="258" 
d="M407 826l-16 -80h-249l15 80h250zM320 676l-131 -676h-121l130 676h122z" />
    <glyph glyph-name="imacron" unicode="&#x12b;" horiz-adv-x="236" 
d="M358 630l-16 -80h-249l15 80h250zM269 480l-93 -480h-118l93 480h118z" />
    <glyph glyph-name="Iogonek" unicode="&#x12e;" horiz-adv-x="258" 
d="M320 676l-131 -676q-93 -68 -93 -120q0 -34 46 -34l37 3l2 -53q-33 -12 -78 -12q-53 0 -81 19.5t-28 55.5q0 42 32 78.5t73 59.5v3h-31l130 676h122z" />
    <glyph glyph-name="iogonek" unicode="&#x12f;" horiz-adv-x="236" 
d="M269 480l-93 -480q-93 -68 -93 -120q0 -34 46 -34l37 3l2 -53q-33 -12 -78 -12q-53 0 -81 19.5t-28 55.5q0 43 33 79.5t75 59.5v2h-31l93 480h118zM306 626q0 -32 -19.5 -50.5t-50.5 -18.5q-30 0 -50 18.5t-20 50.5q0 33 20 51.5t50 18.5q31 0 50.5 -18.5t19.5 -51.5z
" />
    <glyph glyph-name="Idotaccent" unicode="&#x130;" horiz-adv-x="258" 
d="M336 822q0 -32 -18 -50.5t-47 -18.5q-28 0 -46.5 18.5t-18.5 50.5q0 33 18.5 51.5t46.5 18.5q29 0 47 -18.5t18 -51.5zM320 676l-131 -676h-121l130 676h122z" />
    <glyph glyph-name="dotlessi" unicode="&#x131;" horiz-adv-x="236" 
d="M269 480l-93 -480h-118l93 480h118z" />
    <glyph glyph-name="Jcircumflex" unicode="&#x134;" horiz-adv-x="299" 
d="M366 676l-86 -443q-26 -137 -86.5 -192.5t-200.5 -55.5l20 106q69 2 99 31.5t46 108.5l87 445h121zM357 873l101 -107l-34 -40l-102 55h-9l-116 -55l-26 40l140 107h46z" />
    <glyph glyph-name="jcircumflex" unicode="&#x135;" horiz-adv-x="237" 
d="M271 480q-16 -80 -49.5 -256t-51.5 -269q-21 -105 -65 -148t-135 -43q-11 0 -27.5 1t-19.5 1q14 68 20 102q2 0 13 -0.5t18 -0.5q32 0 49.5 18.5t25.5 60.5q76 384 104 534h118zM264 677l101 -107l-34 -40l-102 55h-9l-116 -55l-26 40l140 107h46z" />
    <glyph glyph-name="Kcommaaccent" unicode="&#x136;" horiz-adv-x="592" 
d="M398 337l184 -337h-134q-55 102 -167 306h-31l-60 -306h-122l131 676h122l-55 -285h34l249 285h145zM369 -115q0 -33 -42 -109l-50 -89l-48 9l41 121v4q-41 17 -41 64q0 33 20 51.5t50 18.5q31 0 50.5 -18.5t19.5 -51.5z" />
    <glyph glyph-name="kcommaaccent" unicode="&#x137;" horiz-adv-x="489" 
d="M548 480l-192 -238l129 -242h-130l-113 213h-25l-41 -213h-118l135 696h118l-78 -401h27l149 185h139zM326 -115q0 -33 -42 -109l-50 -89l-48 9l41 121v4q-41 17 -41 64q0 33 20 51.5t50 18.5q31 0 50.5 -18.5t19.5 -51.5z" />
    <glyph glyph-name="Lacute" unicode="&#x139;" horiz-adv-x="437" 
d="M440 98l-19 -98h-353l130 676h122l-112 -578h232zM433 841q0 -14 -9.5 -23t-34.5 -24l-106 -64h-62l83 101q20 24 38.5 32t50.5 8q40 0 40 -30z" />
    <glyph glyph-name="lacute" unicode="&#x13a;" horiz-adv-x="262" 
d="M263 87l-29 -97q-150 8 -150 117q0 39 13 105l94 484h118l-92 -479q-13 -65 -13 -80q0 -32 40 -44zM427 841q0 -14 -9.5 -23t-34.5 -24l-106 -64h-62l83 101q20 24 38.5 32t50.5 8q40 0 40 -30z" />
    <glyph glyph-name="Lcommaaccent" unicode="&#x13b;" horiz-adv-x="437" 
d="M440 98l-19 -98h-353l130 676h122l-112 -578h232zM320 -115q0 -33 -42 -109l-50 -89l-48 9l41 121v4q-41 17 -41 64q0 33 20 51.5t50 18.5q31 0 50.5 -18.5t19.5 -51.5z" />
    <glyph glyph-name="lcommaaccent" unicode="&#x13c;" horiz-adv-x="262" 
d="M270 87l-29 -97q-150 8 -150 117q0 39 13 105l94 484h118l-92 -479q-13 -65 -13 -80q0 -32 40 -44zM230 -115q0 -33 -42 -109l-50 -89l-48 9l41 121v4q-41 17 -41 64q0 33 20 51.5t50 18.5q31 0 50.5 -18.5t19.5 -51.5z" />
    <glyph glyph-name="Lcaron" unicode="&#x13d;" horiz-adv-x="437" 
d="M440 98l-19 -98h-353l130 676h122l-112 -578h232zM515 620q0 -6 -0.5 -12t-2.5 -13t-3 -12t-4 -12.5t-5 -12t-6 -13t-5.5 -12t-7 -13t-6.5 -12.5l-44 -86l-45 7l36 123v2q-47 15 -47 66q0 33 20 51.5t50 18.5q31 0 50.5 -18.5t19.5 -51.5z" />
    <glyph glyph-name="lcaron" unicode="&#x13e;" horiz-adv-x="379" 
d="M263 87l-29 -97q-150 8 -150 117q0 39 13 105l94 484h118l-92 -479q-13 -65 -13 -80q0 -32 40 -44zM493 640q0 -6 -0.5 -12t-2.5 -13t-3 -12t-4 -12.5t-5 -12t-6 -13t-5.5 -12t-7 -13t-6.5 -12.5l-44 -86l-45 7l36 123v2q-47 15 -47 66q0 33 20 51.5t50 18.5
q31 0 50.5 -18.5t19.5 -51.5z" />
    <glyph glyph-name="Ldot" unicode="&#x13f;" horiz-adv-x="437" 
d="M440 98l-19 -98h-353l130 676h122l-112 -578h232zM465 343q0 -32 -19.5 -50.5t-50.5 -18.5q-30 0 -50 18.5t-20 50.5q0 33 20 51.5t50 18.5q31 0 50.5 -18.5t19.5 -51.5z" />
    <glyph glyph-name="ldot" unicode="&#x140;" horiz-adv-x="383" 
d="M263 87l-29 -97q-150 8 -150 117q0 39 13 105l94 484h118l-92 -479q-13 -65 -13 -80q0 -32 40 -44zM438 358q0 -32 -19.5 -50.5t-50.5 -18.5q-30 0 -50 18.5t-20 50.5q0 33 20 51.5t50 18.5q31 0 50.5 -18.5t19.5 -51.5z" />
    <glyph glyph-name="Lslash" unicode="&#x141;" horiz-adv-x="437" 
d="M60 220l-33 70l107 51l64 335h122l-43 -222l-14 -51l3 -2q12 9 32 19l73 36q6 -11 17 -34.5t17 -35.5l-156 -75l-41 -213h232l-19 -98h-353l43 224l8 25l-2 2q-10 -8 -19 -13z" />
    <glyph glyph-name="lslash" unicode="&#x142;" horiz-adv-x="262" 
d="M236 314l-19 -97q-13 -65 -13 -80q0 -32 40 -44l19 -6l-29 -97q-150 8 -150 117q0 39 13 105l2 10l9 31l-2 2q-7 -6 -13 -9l-36 -18l-31 68l97 48l68 352h118l-49 -257l-11 -32l3 -3q5 4 15 9l48 24l30 -70q-37 -17 -109 -53z" />
    <glyph glyph-name="Nacute" unicode="&#x143;" horiz-adv-x="666" 
d="M728 676l-131 -676h-138l-156 415l-18 71l-10 -1q-7 -78 -14 -116l-72 -369h-121l131 676h132l152 -411l22 -87l11 2q6 62 15 108l75 388h122zM649 841q0 -14 -9.5 -23t-34.5 -24l-106 -64h-62l83 101q20 24 38.5 32t50.5 8q40 0 40 -30z" />
    <glyph glyph-name="nacute" unicode="&#x144;" horiz-adv-x="505" 
d="M513 310l-60 -310h-119l59 302q5 23 5 38q0 49 -53 49q-42 0 -74 -34t-44 -95l-50 -260h-119l93 480h79l21 -58h5q61 68 143 68q56 0 88.5 -30.5t32.5 -82.5q0 -31 -7 -67zM516 645q0 -14 -9.5 -23t-34.5 -24l-106 -64h-62l83 101q20 24 38.5 32t50.5 8q40 0 40 -30z" />
    <glyph glyph-name="Ncommaaccent" unicode="&#x145;" horiz-adv-x="666" 
d="M728 676l-131 -676h-138l-156 415l-18 71l-10 -1q-7 -78 -14 -116l-72 -369h-121l131 676h132l152 -411l22 -87l11 2q6 62 15 108l75 388h122zM395 -115q0 -33 -42 -109l-50 -89l-48 9l41 121v4q-41 17 -41 64q0 33 20 51.5t50 18.5q31 0 50.5 -18.5t19.5 -51.5z" />
    <glyph glyph-name="ncommaaccent" unicode="&#x146;" horiz-adv-x="505" 
d="M513 310l-60 -310h-119l59 302q5 23 5 38q0 49 -53 49q-42 0 -74 -34t-44 -95l-50 -260h-119l93 480h79l21 -58h5q61 68 143 68q56 0 88.5 -30.5t32.5 -82.5q0 -31 -7 -67zM323 -115q0 -33 -42 -109l-50 -89l-48 9l41 121v4q-41 17 -41 64q0 33 20 51.5t50 18.5
q31 0 50.5 -18.5t19.5 -51.5z" />
    <glyph glyph-name="Ncaron" unicode="&#x147;" horiz-adv-x="666" 
d="M728 676l-131 -676h-138l-156 415l-18 71l-10 -1q-7 -78 -14 -116l-72 -369h-121l131 676h132l152 -411l22 -87l11 2q6 62 15 108l75 388h122zM453 730l-102 106l35 40l101 -55h9l116 55l26 -40l-140 -106h-45z" />
    <glyph glyph-name="ncaron" unicode="&#x148;" horiz-adv-x="505" 
d="M513 310l-60 -310h-119l59 302q5 23 5 38q0 49 -53 49q-42 0 -74 -34t-44 -95l-50 -260h-119l93 480h79l21 -58h5q61 68 143 68q56 0 88.5 -30.5t32.5 -82.5q0 -31 -7 -67zM324 534l-102 106l35 40l101 -55h9l116 55l26 -40l-140 -106h-45z" />
    <glyph glyph-name="Omacron" unicode="&#x14c;" horiz-adv-x="648" 
d="M454 131q47 39 74.5 142.5t27.5 184.5q0 65 -27 96t-90 31q-64 0 -111 -38q-48 -39 -77 -145.5t-29 -185.5q0 -65 27 -95t91 -30q65 0 114 40zM680 474q0 -109 -41 -239t-114 -188q-79 -62 -205 -62q-105 0 -163 53t-58 163q0 108 39 237t110 186q84 67 209 67
q105 0 164 -53.5t59 -163.5zM605 826l-16 -80h-249l15 80h250z" />
    <glyph glyph-name="omacron" unicode="&#x14d;" horiz-adv-x="484" 
d="M260 91q39 0 65 26q24 24 42 86.5t18 118.5q0 32 -17 49.5t-48 17.5q-41 0 -65 -26q-27 -28 -44 -93t-17 -113q0 -31 18.5 -48.5t47.5 -17.5zM501 332q1 -75 -24 -159t-75 -130q-56 -53 -156 -53q-78 0 -122.5 41.5t-45.5 116.5t24.5 162t77.5 130q61 50 154 50
q77 0 121.5 -40.5t45.5 -117.5zM479 630l-16 -80h-249l15 80h250z" />
    <glyph glyph-name="Obreve" unicode="&#x14e;" horiz-adv-x="648" 
d="M454 131q47 39 74.5 142.5t27.5 184.5q0 65 -27 96t-90 31q-64 0 -111 -38q-48 -39 -77 -145.5t-29 -185.5q0 -65 27 -95t91 -30q65 0 114 40zM680 474q0 -109 -41 -239t-114 -188q-79 -62 -205 -62q-105 0 -163 53t-58 163q0 108 39 237t110 186q84 67 209 67
q105 0 164 -53.5t59 -163.5zM565 872h61q-11 -61 -53 -101.5t-107 -40.5q-66 0 -95.5 41t-19.5 101h60q-1 -26 15 -45t51 -19q34 0 57 19t31 45z" />
    <glyph glyph-name="obreve" unicode="&#x14f;" horiz-adv-x="484" 
d="M260 91q39 0 65 26q24 24 42 86.5t18 118.5q0 32 -17 49.5t-48 17.5q-41 0 -65 -26q-27 -28 -44 -93t-17 -113q0 -31 18.5 -48.5t47.5 -17.5zM501 332q1 -75 -24 -159t-75 -130q-56 -53 -156 -53q-78 0 -122.5 41.5t-45.5 116.5t24.5 162t77.5 130q61 50 154 50
q77 0 121.5 -40.5t45.5 -117.5zM445 676h61q-11 -61 -53 -101.5t-107 -40.5q-66 0 -95.5 41t-19.5 101h60q-1 -26 15 -45t51 -19q34 0 57 19t31 45z" />
    <glyph glyph-name="Ohungarumlaut" unicode="&#x150;" horiz-adv-x="651" 
d="M454 131q47 39 74.5 142.5t27.5 184.5q0 65 -27 96t-90 31q-64 0 -111 -38q-48 -39 -77 -145.5t-29 -185.5q0 -65 27 -95t91 -30q65 0 114 40zM680 474q0 -109 -41 -239t-114 -188q-79 -62 -205 -62q-105 0 -163 53t-58 163q0 108 39 237t110 186q84 67 209 67
q105 0 164 -53.5t59 -163.5zM545 840q0 -24 -39 -46l-111 -64h-49l87 105q30 36 77 36q35 0 35 -31zM707 840q0 -24 -39 -46l-111 -64h-49l87 105q30 36 77 36q35 0 35 -31z" />
    <glyph glyph-name="ohungarumlaut" unicode="&#x151;" horiz-adv-x="484" 
d="M260 91q39 0 65 26q24 24 42 86.5t18 118.5q0 32 -17 49.5t-48 17.5q-41 0 -65 -26q-27 -28 -44 -93t-17 -113q0 -31 18.5 -48.5t47.5 -17.5zM501 332q1 -75 -24 -159t-75 -130q-56 -53 -156 -53q-78 0 -122.5 41.5t-45.5 116.5t24.5 162t77.5 130q61 50 154 50
q77 0 121.5 -40.5t45.5 -117.5zM429 644q0 -24 -39 -46l-111 -64h-49l87 105q30 36 77 36q35 0 35 -31zM591 644q0 -24 -39 -46l-111 -64h-49l87 105q30 36 77 36q35 0 35 -31z" />
    <glyph glyph-name="OE" unicode="&#x152;" horiz-adv-x="864" 
d="M680 474q0 -28 -5 -71h162l-19 -94h-159q-30 -132 -86 -206l4 -5h289l-18 -98h-416q-51 -15 -112 -15q-105 0 -163 53t-58 163q0 107 39.5 236.5t109.5 186.5q84 67 209 67q55 0 99 -15h400l-19 -98h-273l-3 -5q19 -43 19 -99zM454 131q47 39 74.5 142.5t27.5 184.5
q0 65 -27 96t-90 31q-64 0 -111 -38q-48 -39 -77 -145.5t-29 -185.5q0 -65 27 -95t91 -30q65 0 114 40z" />
    <glyph glyph-name="oe" unicode="&#x153;" horiz-adv-x="774" 
d="M259 91q39 0 65 26q24 24 42 86.5t18 118.5q0 32 -17 49.5t-48 17.5q-41 0 -65 -26q-27 -28 -44 -93t-17 -113q0 -31 18.5 -48.5t47.5 -17.5zM540 369q-20 -18 -37 -71h102q81 0 81 54q0 21 -15.5 31t-51.5 10q-52 0 -79 -24zM610 211h-125q-5 -30 -5 -51
q0 -36 20.5 -52.5t69.5 -16.5q69 0 154 37q6 -29 16 -87q-84 -51 -191 -51q-104 0 -146 56h-5q-48 -56 -153 -56q-77 0 -122.5 42t-45.5 116q0 76 25 162.5t77 129.5q61 50 154 50q89 0 130 -57h4q60 57 169 57q83 0 124 -34t41 -91q0 -72 -49 -113t-142 -41z" />
    <glyph glyph-name="Racute" unicode="&#x154;" horiz-adv-x="556" 
d="M502 303q-28 -21 -67 -29l101 -274h-127l-94 260h-75l-51 -260h-121l131 676h223q81 0 127 -43.5t46 -125.5q0 -60 -23.5 -115t-69.5 -89zM428 379q44 41 44 120q0 72 -72 72h-99l-43 -217h98q45 0 72 25zM543 841q0 -14 -9.5 -23t-34.5 -24l-106 -64h-62l83 101
q20 24 38.5 32t50.5 8q40 0 40 -30z" />
    <glyph glyph-name="racute" unicode="&#x155;" horiz-adv-x="311" 
d="M380 490h11l-19 -106h-21q-50 0 -81 -32.5t-46 -108.5l-47 -243h-119l93 480h72l22 -58h5q48 68 130 68zM451 645q0 -14 -9.5 -23t-34.5 -24l-106 -64h-62l83 101q20 24 38.5 32t50.5 8q40 0 40 -30z" />
    <glyph glyph-name="Rcommaaccent" unicode="&#x156;" horiz-adv-x="556" 
d="M502 303q-28 -21 -67 -29l101 -274h-127l-94 260h-75l-51 -260h-121l131 676h223q81 0 127 -43.5t46 -125.5q0 -60 -23.5 -115t-69.5 -89zM428 379q44 41 44 120q0 72 -72 72h-99l-43 -217h98q45 0 72 25zM350 -115q0 -33 -42 -109l-50 -89l-48 9l41 121v4q-41 17 -41 64
q0 33 20 51.5t50 18.5q31 0 50.5 -18.5t19.5 -51.5z" />
    <glyph glyph-name="rcommaaccent" unicode="&#x157;" horiz-adv-x="311" 
d="M380 490h11l-19 -106h-21q-50 0 -81 -32.5t-46 -108.5l-47 -243h-119l93 480h72l22 -58h5q48 68 130 68zM179 -115q0 -33 -42 -109l-50 -89l-48 9l41 121v4q-41 17 -41 64q0 33 20 51.5t50 18.5q31 0 50.5 -18.5t19.5 -51.5z" />
    <glyph glyph-name="Rcaron" unicode="&#x158;" horiz-adv-x="556" 
d="M502 303q-28 -21 -67 -29l101 -274h-127l-94 260h-75l-51 -260h-121l131 676h223q81 0 127 -43.5t46 -125.5q0 -60 -23.5 -115t-69.5 -89zM428 379q44 41 44 120q0 72 -72 72h-99l-43 -217h98q45 0 72 25zM352 730l-102 106l35 40l101 -55h9l116 55l26 -40l-140 -106h-45
z" />
    <glyph glyph-name="rcaron" unicode="&#x159;" horiz-adv-x="311" 
d="M380 490h11l-19 -106h-21q-50 0 -81 -32.5t-46 -108.5l-47 -243h-119l93 480h72l22 -58h5q48 68 130 68zM251 534l-102 106l35 40l101 -55h9l116 55l26 -40l-140 -106h-45z" />
    <glyph glyph-name="Sacute" unicode="&#x15a;" horiz-adv-x="505" 
d="M510 208q0 -95 -62 -159t-179 -64q-66 0 -125 20.5t-94 49.5l44 94q89 -58 172 -58q57 0 88 30.5t31 77.5q0 53 -68 89l-53 28q-122 64 -122 167q0 89 62 148.5t173 59.5q98 0 178 -51l-49 -95q-65 40 -131 40q-51 0 -80 -27t-29 -66q0 -47 60 -79l62 -32
q122 -63 122 -173zM553 841q0 -14 -9.5 -23t-34.5 -24l-106 -64h-62l83 101q20 24 38.5 32t50.5 8q40 0 40 -30z" />
    <glyph glyph-name="sacute" unicode="&#x15b;" horiz-adv-x="429" 
d="M426 154q0 -72 -50.5 -118t-145.5 -46q-53 0 -103.5 16t-80.5 40l43 88q66 -43 138 -43q41 0 59.5 15.5t18.5 37.5q0 28 -45 47l-52 21q-96 39 -96 117q0 75 53 118t141 43t153 -39l-44 -91q-52 29 -112 29q-37 0 -54.5 -14t-17.5 -34q0 -25 37 -39l55 -22
q103 -42 103 -126zM474 645q0 -14 -9.5 -23t-34.5 -24l-106 -64h-62l83 101q20 24 38.5 32t50.5 8q40 0 40 -30z" />
    <glyph glyph-name="Scircumflex" unicode="&#x15c;" horiz-adv-x="505" 
d="M510 208q0 -95 -62 -159t-179 -64q-66 0 -125 20.5t-94 49.5l44 94q89 -58 172 -58q57 0 88 30.5t31 77.5q0 53 -68 89l-53 28q-122 64 -122 167q0 89 62 148.5t173 59.5q98 0 178 -51l-49 -95q-65 40 -131 40q-51 0 -80 -27t-29 -66q0 -47 60 -79l62 -32
q122 -63 122 -173zM428 873l101 -107l-34 -40l-102 55h-9l-116 -55l-26 40l140 107h46z" />
    <glyph glyph-name="scircumflex" unicode="&#x15d;" horiz-adv-x="429" 
d="M426 154q0 -72 -50.5 -118t-145.5 -46q-53 0 -103.5 16t-80.5 40l43 88q66 -43 138 -43q41 0 59.5 15.5t18.5 37.5q0 28 -45 47l-52 21q-96 39 -96 117q0 75 53 118t141 43t153 -39l-44 -91q-52 29 -112 29q-37 0 -54.5 -14t-17.5 -34q0 -25 37 -39l55 -22
q103 -42 103 -126zM352 677l101 -107l-34 -40l-102 55h-9l-116 -55l-26 40l140 107h46z" />
    <glyph glyph-name="Scedilla" unicode="&#x15e;" horiz-adv-x="505" 
d="M369 -112q0 -50 -33 -77t-96 -27q-23 0 -49 3t-40 6l-14 3l14 49q51 -7 77 -7q53 0 53 42q0 25 -40 25h-57l32 84q-103 14 -166 66l44 94q89 -58 172 -58q57 0 88 30.5t31 77.5q0 53 -68 89l-53 28q-122 64 -122 167q0 89 62 148.5t173 59.5q98 0 178 -51l-49 -95
q-65 40 -131 40q-51 0 -80 -27t-29 -66q0 -47 60 -79l62 -32q122 -63 122 -173q0 -92 -58.5 -155.5t-168.5 -67.5l-11 -34h14q83 0 83 -63z" />
    <glyph glyph-name="scedilla" unicode="&#x15f;" horiz-adv-x="429" 
d="M426 154q0 -69 -47 -114.5t-136 -49.5l-13 -39h14q83 0 83 -63q0 -50 -33 -77t-96 -27q-23 0 -49 3t-40 6l-14 3l14 49q51 -7 77 -7q53 0 53 42q0 25 -40 25h-57l34 90q-84 13 -130 51l43 88q66 -43 138 -43q41 0 59.5 15.5t18.5 37.5q0 28 -45 47l-52 21q-96 39 -96 117
q0 75 53 118t141 43t153 -39l-44 -91q-52 29 -112 29q-37 0 -54.5 -14t-17.5 -34q0 -25 37 -39l55 -22q103 -42 103 -126z" />
    <glyph glyph-name="Scaron" unicode="&#x160;" horiz-adv-x="505" 
d="M510 208q0 -95 -62 -159t-179 -64q-66 0 -125 20.5t-94 49.5l44 94q89 -58 172 -58q57 0 88 30.5t31 77.5q0 53 -68 89l-53 28q-122 64 -122 167q0 89 62 148.5t173 59.5q98 0 178 -51l-49 -95q-65 40 -131 40q-51 0 -80 -27t-29 -66q0 -47 60 -79l62 -32
q122 -63 122 -173zM353 734l-102 106l35 40l101 -55h9l116 55l26 -40l-140 -106h-45z" />
    <glyph glyph-name="scaron" unicode="&#x161;" horiz-adv-x="429" 
d="M426 154q0 -72 -50.5 -118t-145.5 -46q-53 0 -103.5 16t-80.5 40l43 88q66 -43 138 -43q41 0 59.5 15.5t18.5 37.5q0 28 -45 47l-52 21q-96 39 -96 117q0 75 53 118t141 43t153 -39l-44 -91q-52 29 -112 29q-37 0 -54.5 -14t-17.5 -34q0 -25 37 -39l55 -22
q103 -42 103 -126zM282 534l-102 106l35 40l101 -55h9l116 55l26 -40l-140 -106h-45z" />
    <glyph glyph-name="Tcommaaccent" unicode="&#x162;" 
d="M616 676l-18 -98h-180l-113 -578h-122l113 578h-180l19 98h481zM301 -115q0 -33 -42 -109l-50 -89l-48 9l41 121v4q-41 17 -41 64q0 33 20 51.5t50 18.5q31 0 50.5 -18.5t19.5 -51.5z" />
    <glyph glyph-name="Tcommaaccent" unicode="&#x21a;" 
d="M616 676l-18 -98h-180l-113 -578h-122l113 578h-180l19 98h481zM301 -115q0 -33 -42 -109l-50 -89l-48 9l41 121v4q-41 17 -41 64q0 33 20 51.5t50 18.5q31 0 50.5 -18.5t19.5 -51.5z" />
    <glyph glyph-name="tcommaaccent" unicode="&#x163;" horiz-adv-x="308" 
d="M275 90l21 -5l-27 -95q-170 0 -170 114q0 25 13 92l36 188h-64l19 96h64l24 120l123 27l-29 -147h91l-19 -96h-91l-39 -205q-6 -34 -6 -45q0 -18 12 -27.5t42 -16.5zM247 -115q0 -33 -42 -109l-50 -89l-48 9l41 121v4q-41 17 -41 64q0 33 20 51.5t50 18.5
q31 0 50.5 -18.5t19.5 -51.5z" />
    <glyph glyph-name="tcommaaccent" unicode="&#x21b;" horiz-adv-x="308" 
d="M275 90l21 -5l-27 -95q-170 0 -170 114q0 25 13 92l36 188h-64l19 96h64l24 120l123 27l-29 -147h91l-19 -96h-91l-39 -205q-6 -34 -6 -45q0 -18 12 -27.5t42 -16.5zM247 -115q0 -33 -42 -109l-50 -89l-48 9l41 121v4q-41 17 -41 64q0 33 20 51.5t50 18.5
q31 0 50.5 -18.5t19.5 -51.5z" />
    <glyph glyph-name="Tcaron" unicode="&#x164;" 
d="M616 676l-18 -98h-180l-113 -578h-122l113 578h-180l19 98h481zM351 730l-102 106l35 40l101 -55h9l116 55l26 -40l-140 -106h-45z" />
    <glyph glyph-name="tcaron" unicode="&#x165;" horiz-adv-x="308" 
d="M275 90l21 -5l-27 -95q-170 0 -170 114q0 25 13 92l36 188h-64l19 96h64l24 120l123 27l-29 -147h91l-19 -96h-91l-39 -205q-6 -34 -6 -45q0 -18 12 -27.5t42 -16.5zM467 717q0 -33 -38 -107l-42 -81l-43 6l34 117v2q-44 15 -44 63q0 31 18.5 48.5t47.5 17.5t48 -17.5
t19 -48.5z" />
    <glyph glyph-name="Utilde" unicode="&#x168;" horiz-adv-x="604" 
d="M672 676l-90 -462q-22 -111 -92 -170t-184 -59q-98 0 -153 47.5t-55 133.5q0 39 11 91l81 419h122l-82 -419q-11 -57 -11 -81q0 -41 26 -63t73 -22q118 0 145 139l87 446h122zM566 854l42 -16q-5 -17 -10 -29.5t-16.5 -30t-30.5 -27t-45 -9.5q-17 0 -61.5 12.5
t-60.5 12.5q-29 0 -48 -29l-41 16q24 96 101 96q18 0 62 -12.5t60 -12.5q29 0 48 29z" />
    <glyph glyph-name="utilde" unicode="&#x169;" horiz-adv-x="510" 
d="M493 99l15 -8l-43 -101q-45 3 -73.5 26t-36.5 57h-6q-52 -83 -141 -83q-58 0 -93 35.5t-35 94.5q0 39 12 99l50 261h118l-52 -268q-10 -47 -10 -69q0 -52 51 -52q43 0 76.5 44t46.5 112l46 233h118l-63 -328q-7 -39 20 -53zM473 658l42 -16q-5 -17 -10 -29.5t-16.5 -30
t-30.5 -27t-45 -9.5q-17 0 -61.5 12.5t-60.5 12.5q-29 0 -48 -29l-41 16q24 96 101 96q18 0 62 -12.5t60 -12.5q29 0 48 29z" />
    <glyph glyph-name="Umacron" unicode="&#x16a;" horiz-adv-x="604" 
d="M672 676l-90 -462q-22 -111 -92 -170t-184 -59q-98 0 -153 47.5t-55 133.5q0 39 11 91l81 419h122l-82 -419q-11 -57 -11 -81q0 -41 26 -63t73 -22q118 0 145 139l87 446h122zM587 826l-16 -80h-249l15 80h250z" />
    <glyph glyph-name="umacron" unicode="&#x16b;" horiz-adv-x="510" 
d="M493 99l15 -8l-43 -101q-45 3 -73.5 26t-36.5 57h-6q-52 -83 -141 -83q-58 0 -93 35.5t-35 94.5q0 39 12 99l50 261h118l-52 -268q-10 -47 -10 -69q0 -52 51 -52q43 0 76.5 44t46.5 112l46 233h118l-63 -328q-7 -39 20 -53zM495 630l-16 -80h-249l15 80h250z" />
    <glyph glyph-name="Ubreve" unicode="&#x16c;" horiz-adv-x="604" 
d="M672 676l-90 -462q-22 -111 -92 -170t-184 -59q-98 0 -153 47.5t-55 133.5q0 39 11 91l81 419h122l-82 -419q-11 -57 -11 -81q0 -41 26 -63t73 -22q118 0 145 139l87 446h122zM537 872h61q-11 -61 -53 -101.5t-107 -40.5q-66 0 -95.5 41t-19.5 101h60q-1 -26 15 -45
t51 -19q34 0 57 19t31 45z" />
    <glyph glyph-name="ubreve" unicode="&#x16d;" horiz-adv-x="510" 
d="M493 99l15 -8l-43 -101q-45 3 -73.5 26t-36.5 57h-6q-52 -83 -141 -83q-58 0 -93 35.5t-35 94.5q0 39 12 99l50 261h118l-52 -268q-10 -47 -10 -69q0 -52 51 -52q43 0 76.5 44t46.5 112l46 233h118l-63 -328q-7 -39 20 -53zM451 676h61q-11 -61 -53 -101.5t-107 -40.5
q-66 0 -95.5 41t-19.5 101h60q-1 -26 15 -45t51 -19q34 0 57 19t31 45z" />
    <glyph glyph-name="Uring" unicode="&#x16e;" horiz-adv-x="604" 
d="M672 676l-90 -462q-22 -111 -92 -170t-184 -59q-98 0 -153 47.5t-55 133.5q0 39 11 91l81 419h122l-82 -419q-11 -57 -11 -81q0 -41 26 -63t73 -22q118 0 145 139l87 446h122zM491 833q0 21 -14.5 36t-35.5 15q-22 0 -36.5 -15t-14.5 -36t14.5 -35.5t36.5 -14.5t36 14.5
t14 35.5zM551 833q0 -45 -30 -74t-80 -29t-80.5 29t-30.5 74t30.5 74.5t80.5 29.5q49 0 79.5 -29.5t30.5 -74.5z" />
    <glyph glyph-name="uring" unicode="&#x16f;" horiz-adv-x="510" 
d="M493 99l15 -8l-43 -101q-45 3 -73.5 26t-36.5 57h-6q-52 -83 -141 -83q-58 0 -93 35.5t-35 94.5q0 39 12 99l50 261h118l-52 -268q-10 -47 -10 -69q0 -52 51 -52q43 0 76.5 44t46.5 112l46 233h118l-63 -328q-7 -39 20 -53zM401 637q0 21 -14.5 36t-35.5 15
q-22 0 -36.5 -15t-14.5 -36t14.5 -35.5t36.5 -14.5t36 14.5t14 35.5zM461 637q0 -45 -30 -74t-80 -29t-80.5 29t-30.5 74t30.5 74.5t80.5 29.5q49 0 79.5 -29.5t30.5 -74.5z" />
    <glyph glyph-name="Uhungarumlaut" unicode="&#x170;" horiz-adv-x="604" 
d="M672 676l-90 -462q-22 -111 -92 -170t-184 -59q-98 0 -153 47.5t-55 133.5q0 39 11 91l81 419h122l-82 -419q-11 -57 -11 -81q0 -41 26 -63t73 -22q118 0 145 139l87 446h122zM515 840q0 -24 -39 -46l-111 -64h-49l87 105q30 36 77 36q35 0 35 -31zM677 840
q0 -24 -39 -46l-111 -64h-49l87 105q30 36 77 36q35 0 35 -31z" />
    <glyph glyph-name="uhungarumlaut" unicode="&#x171;" horiz-adv-x="510" 
d="M493 99l15 -8l-43 -101q-45 3 -73.5 26t-36.5 57h-6q-52 -83 -141 -83q-58 0 -93 35.5t-35 94.5q0 39 12 99l50 261h118l-52 -268q-10 -47 -10 -69q0 -52 51 -52q43 0 76.5 44t46.5 112l46 233h118l-63 -328q-7 -39 20 -53zM427 644q0 -24 -39 -46l-111 -64h-49l87 105
q30 36 77 36q35 0 35 -31zM589 644q0 -24 -39 -46l-111 -64h-49l87 105q30 36 77 36q35 0 35 -31z" />
    <glyph glyph-name="Uogonek" unicode="&#x172;" horiz-adv-x="604" 
d="M672 676l-90 -462q-32 -164 -165 -212q-91 -67 -91 -122q0 -34 46 -34l37 3l2 -53q-33 -12 -78 -12q-53 0 -81 19.5t-28 55.5q0 68 84 125v1h-2q-98 0 -153 47.5t-55 133.5q0 39 11 91l81 419h122l-82 -419q-11 -57 -11 -81q0 -41 26 -63t73 -22q118 0 145 139l87 446
h122z" />
    <glyph glyph-name="uogonek" unicode="&#x173;" horiz-adv-x="510" 
d="M493 99l15 -8l-43 -101q-76 -62 -76 -110q0 -34 46 -34l37 3l2 -53q-33 -12 -78 -12q-53 0 -81 19.5t-28 55.5q0 45 37 84t80 60v3q-39 22 -49 67h-6q-52 -83 -141 -83q-58 0 -93 35.5t-35 94.5q0 39 12 99l50 261h118l-52 -268q-10 -47 -10 -69q0 -52 51 -52
q43 0 76.5 44t46.5 112l46 233h118l-63 -328q-7 -39 20 -53z" />
    <glyph glyph-name="Wcircumflex" unicode="&#x174;" horiz-adv-x="888" 
d="M516 442q0 -3 -10 -34.5t-17 -47.5l-160 -360h-157l-36 676h120l22 -425l1 -96h11q17 52 30 81l172 387h119l29 -378l1 -90h11q17 59 31 92l191 429h129l-300 -676h-145l-30 360l-2 82h-10zM612 873l101 -107l-34 -40l-102 55h-9l-116 -55l-26 40l140 107h46z" />
    <glyph glyph-name="wcircumflex" unicode="&#x175;" horiz-adv-x="686" 
d="M638 480h126l-201 -480h-136l-28 212l-2 66h-11q-11 -45 -22 -68l-104 -210h-134l-21 480h117l9 -259l-2 -75h12q17 60 30 85l107 220h86l30 -232l4 -73h11q15 56 24 77zM469 677l101 -107l-34 -40l-102 55h-9l-116 -55l-26 40l140 107h46z" />
    <glyph glyph-name="Ycircumflex" unicode="&#x176;" horiz-adv-x="530" 
d="M323 379h10q17 52 34 78l137 219h141l-282 -444l-45 -232h-121l49 252l-114 424h122l60 -220q3 -11 5.5 -30t2.5 -33zM434 873l101 -107l-34 -40l-102 55h-9l-116 -55l-26 40l140 107h46z" />
    <glyph glyph-name="ycircumflex" unicode="&#x177;" horiz-adv-x="476" 
d="M429 480h125l-221 -533q-44 -107 -101 -145t-164 -38h-61l18 104h75q43 0 68 19t47 74l15 39h-41l-87 480h119l48 -276l9 -87h11q14 57 29 94zM380 677l101 -107l-34 -40l-102 55h-9l-116 -55l-26 40l140 107h46z" />
    <glyph glyph-name="Ydieresis" unicode="&#x178;" horiz-adv-x="530" 
d="M323 379h10q17 52 34 78l137 219h141l-282 -444l-45 -232h-121l49 252l-114 424h122l60 -220q3 -11 5.5 -30t2.5 -33zM368 822q0 -32 -18 -50.5t-47 -18.5q-28 0 -46.5 18.5t-18.5 50.5q0 33 18.5 51.5t46.5 18.5q29 0 47 -18.5t18 -51.5zM550 822q0 -32 -18 -50.5
t-47 -18.5q-28 0 -46.5 18.5t-18.5 50.5q0 33 18.5 51.5t46.5 18.5q29 0 47 -18.5t18 -51.5z" />
    <glyph glyph-name="Zacute" unicode="&#x179;" horiz-adv-x="479" 
d="M478 98l-19 -98h-443l332 520q8 13 18.5 25.5t17.5 18.5l6 7l-1 7h-244l19 98h423l-341 -534q-7 -11 -15.5 -20.5t-14.5 -13.5l-5 -5l1 -5h266zM545 841q0 -14 -9.5 -23t-34.5 -24l-106 -64h-62l83 101q20 24 38.5 32t50.5 8q40 0 40 -30z" />
    <glyph glyph-name="zacute" unicode="&#x17a;" horiz-adv-x="426" 
d="M419 96l-19 -96h-366l9 48l229 303q4 6 11 12.5t11 10.5l5 3l-1 7h-176l18 96h345l-8 -46l-232 -303q-6 -8 -14 -15.5t-13 -10.5l-4 -3l1 -6h204zM493 645q0 -14 -9.5 -23t-34.5 -24l-106 -64h-62l83 101q20 24 38.5 32t50.5 8q40 0 40 -30z" />
    <glyph glyph-name="Zdotaccent" unicode="&#x17b;" horiz-adv-x="479" 
d="M478 98l-19 -98h-443l332 520q8 13 18.5 25.5t17.5 18.5l6 7l-1 7h-244l19 98h423l-341 -534q-7 -11 -15.5 -20.5t-14.5 -13.5l-5 -5l1 -5h266zM445 822q0 -32 -18 -50.5t-47 -18.5q-28 0 -46.5 18.5t-18.5 50.5q0 33 18.5 51.5t46.5 18.5q29 0 47 -18.5t18 -51.5z" />
    <glyph glyph-name="zdotaccent" unicode="&#x17c;" horiz-adv-x="426" 
d="M419 96l-19 -96h-366l9 48l229 303q4 6 11 12.5t11 10.5l5 3l-1 7h-176l18 96h345l-8 -46l-232 -303q-6 -8 -14 -15.5t-13 -10.5l-4 -3l1 -6h204zM390 626q0 -32 -18 -50.5t-47 -18.5q-28 0 -46.5 18.5t-18.5 50.5q0 33 18.5 51.5t46.5 18.5q29 0 47 -18.5t18 -51.5z" />
    <glyph glyph-name="Zcaron" unicode="&#x17d;" horiz-adv-x="479" 
d="M478 98l-19 -98h-443l332 520q8 13 18.5 25.5t17.5 18.5l6 7l-1 7h-244l19 98h423l-341 -534q-7 -11 -15.5 -20.5t-14.5 -13.5l-5 -5l1 -5h266zM357 734l-102 106l35 40l101 -55h9l116 55l26 -40l-140 -106h-45z" />
    <glyph glyph-name="zcaron" unicode="&#x17e;" horiz-adv-x="426" 
d="M419 96l-19 -96h-366l9 48l229 303q4 6 11 12.5t11 10.5l5 3l-1 7h-176l18 96h345l-8 -46l-232 -303q-6 -8 -14 -15.5t-13 -10.5l-4 -3l1 -6h204zM293 534l-102 106l35 40l101 -55h9l116 55l26 -40l-140 -106h-45z" />
    <glyph glyph-name="florin" unicode="&#x192;" horiz-adv-x="336" 
d="M-56 -230l20 96q18 -2 39 -2q32 0 49.5 12.5t23.5 45.5l90 462h-64l20 96h63l16 82q16 81 58.5 115t124.5 34q13 0 29.5 -2t26.5 -4l10 -2l-21 -95q-17 3 -39 3q-31 0 -48 -12.5t-24 -45.5l-14 -73h98l-19 -96h-99l-91 -473q-16 -80 -59 -113.5t-125 -33.5z" />
    <glyph glyph-name="AEacute" unicode="&#x1fc;" horiz-adv-x="765" 
d="M124 0h-134l387 676h480l-19 -99h-237l-34 -174h166l-19 -94h-166l-41 -211h261l-19 -98h-382l31 162h-181zM379 445l-107 -185h146l36 183l29 135l-31 6q-46 -93 -73 -139zM803 841q0 -14 -9.5 -23t-34.5 -24l-106 -64h-62l83 101q20 24 38.5 32t50.5 8q40 0 40 -30z
" />
    <glyph glyph-name="aeacute" unicode="&#x1fd;" horiz-adv-x="781" 
d="M618 211h-126q-5 -30 -5 -53q0 -35 21 -51t69 -16q75 0 155 35l14 -85q-84 -51 -190 -51q-121 0 -164 74h-6q-74 -74 -181 -74q-64 0 -102 35t-38 91q0 98 75 140t215 42h37q8 42 8 51q0 39 -70 39q-79 0 -161 -34l-16 91q103 45 196 45t134 -46h5q53 46 161 46
q79 0 118.5 -34.5t39.5 -89.5q0 -72 -48.5 -113.5t-140.5 -41.5zM237 91q70 0 131 54v12q2 35 6 56q-29 0 -49 -0.5t-50 -5t-48 -12t-32 -23t-14 -37.5q0 -44 56 -44zM547 369q-20 -16 -37 -71h101q82 0 82 53q0 40 -69 40q-51 0 -77 -22zM685 645q0 -14 -9.5 -23t-34.5 -24
l-106 -64h-62l83 101q20 24 38.5 32t50.5 8q40 0 40 -30z" />
    <glyph glyph-name="Oslashacute" unicode="&#x1fe;" horiz-adv-x="648" 
d="M651 841q0 -14 -9.5 -23t-34.5 -24l-106 -64h-62l83 101q20 24 38.5 32t50.5 8q40 0 40 -30zM78 14l49 61q-28 51 -28 126q0 108 39 237t110 186q84 67 209 67q86 0 140 -35l43 54l61 -50l-50 -61q29 -50 29 -125q0 -109 -41 -239t-114 -188q-79 -62 -205 -62
q-85 0 -138 34l-44 -54zM222 216v-24l3 -1q8 14 19 28l276 343q-28 23 -81 23q-64 0 -111 -38q-48 -39 -77 -145.5t-29 -185.5zM454 131q47 39 74.5 142.5t27.5 184.5v23h-3q-10 -16 -19 -27l-276 -341q26 -22 82 -22q65 0 114 40z" />
    <glyph glyph-name="oslashacute" unicode="&#x1ff;" horiz-adv-x="484" 
d="M516 645q0 -14 -9.5 -23t-34.5 -24l-106 -64h-62l83 101q20 24 38.5 32t50.5 8q40 0 40 -30zM500 332q1 -75 -24 -159t-75 -130q-56 -53 -156 -53q-62 0 -106 28l-33 -38l-51 43l40 46q-18 33 -18 79q-1 75 24.5 162t77.5 130q61 50 154 50q64 0 105 -28l31 38l51 -44
l-38 -44q16 -33 18 -80zM262 91q46 0 72 26q24 24 41 82.5t19 114.5l-3 1q-8 -14 -17 -25l-160 -187q20 -12 48 -12zM244 363q-25 -26 -41.5 -85t-19.5 -108l3 -1q6 11 20 28l157 180q-20 12 -47 12q-48 0 -72 -26z" />
    <glyph glyph-name="Adblgrave" unicode="&#x200;" horiz-adv-x="578" 
d="M448 0l-20 161h-212l-75 -161h-130l317 676h158l81 -676h-119zM347 442l-85 -183h154l-22 189l-4 84h-13q-17 -62 -30 -90zM194 871h10q40 0 62 -35l69 -106h-48l-102 66q-30 19 -30 41q0 14 10.5 24t28.5 10zM355 871h10q40 0 62 -35l69 -106h-48l-102 66q-30 19 -30 41
q0 14 10.5 24t28.5 10z" />
    <glyph glyph-name="adblgrave" unicode="&#x201;" horiz-adv-x="516" 
d="M77 141q0 78 27.5 158t74.5 125q69 66 194 66q44 0 86 -7t63 -14l20 -7l-59 -305q-5 -26 -0.5 -38.5t21.5 -20.5l13 -7l-43 -101q-48 4 -76 28t-35 60h-5q-55 -88 -146 -88q-62 0 -98.5 40t-36.5 111zM351 389q-59 0 -94 -39q-23 -26 -41 -81t-18 -104q0 -74 58 -74
q43 0 77 41t46 101l29 149q-26 7 -57 7zM179 675h10q40 0 62 -35l69 -106h-48l-102 66q-30 19 -30 41q0 14 10.5 24t28.5 10zM340 675h10q40 0 62 -35l69 -106h-48l-102 66q-30 19 -30 41q0 14 10.5 24t28.5 10z" />
    <glyph glyph-name="Ainvertedbreve" unicode="&#x202;" horiz-adv-x="578" 
d="M448 0l-20 161h-212l-75 -161h-130l317 676h158l81 -676h-119zM347 442l-85 -183h154l-22 189l-4 84h-13q-17 -62 -30 -90zM548 730h-61q-4 63 -64 63q-32 0 -55.5 -18.5t-34.5 -44.5h-61q11 60 54 100.5t110 40.5q54 0 84 -32.5t30 -82.5q0 -8 -2 -26z" />
    <glyph glyph-name="ainvertedbreve" unicode="&#x203;" horiz-adv-x="516" 
d="M77 141q0 78 27.5 158t74.5 125q69 66 194 66q44 0 86 -7t63 -14l20 -7l-59 -305q-5 -26 -0.5 -38.5t21.5 -20.5l13 -7l-43 -101q-48 4 -76 28t-35 60h-5q-55 -88 -146 -88q-62 0 -98.5 40t-36.5 111zM351 389q-59 0 -94 -39q-23 -26 -41 -81t-18 -104q0 -74 58 -74
q43 0 77 41t46 101l29 149q-26 7 -57 7zM509 534h-61q-4 63 -64 63q-32 0 -55.5 -18.5t-34.5 -44.5h-61q11 60 54 100.5t110 40.5q54 0 84 -32.5t30 -82.5q0 -8 -2 -26z" />
    <glyph glyph-name="Edblgrave" unicode="&#x204;" horiz-adv-x="465" 
d="M468 98l-19 -98h-381l131 676h358l-19 -98h-236l-34 -175h166l-19 -94h-166l-41 -211h260zM196 871h10q40 0 62 -35l69 -106h-48l-102 66q-30 19 -30 41q0 14 10.5 24t28.5 10zM357 871h10q40 0 62 -35l69 -106h-48l-102 66q-30 19 -30 41q0 14 10.5 24t28.5 10z" />
    <glyph glyph-name="edblgrave" unicode="&#x205;" horiz-adv-x="489" 
d="M325 211h-125q-5 -30 -5 -51q0 -36 21 -52.5t68 -16.5q69 0 155 37l16 -87q-84 -51 -191 -51q-90 0 -138.5 40.5t-48.5 117.5q0 61 21.5 138.5t58.5 125.5q60 78 193 78q84 0 124.5 -33.5t40.5 -91.5q0 -72 -49 -113t-141 -41zM255 369q-22 -18 -37 -71h101q81 0 81 54
q0 21 -15.5 31t-51.5 10q-51 0 -78 -24zM156 675h10q40 0 62 -35l69 -106h-48l-102 66q-30 19 -30 41q0 14 10.5 24t28.5 10zM317 675h10q40 0 62 -35l69 -106h-48l-102 66q-30 19 -30 41q0 14 10.5 24t28.5 10z" />
    <glyph glyph-name="Einvertedbreve" unicode="&#x206;" horiz-adv-x="465" 
d="M468 98l-19 -98h-381l131 676h358l-19 -98h-236l-34 -175h166l-19 -94h-166l-41 -211h260zM524 730h-61q-4 63 -64 63q-32 0 -55.5 -18.5t-34.5 -44.5h-61q11 60 54 100.5t110 40.5q54 0 84 -32.5t30 -82.5q0 -8 -2 -26z" />
    <glyph glyph-name="einvertedbreve" unicode="&#x207;" horiz-adv-x="489" 
d="M325 211h-125q-5 -30 -5 -51q0 -36 21 -52.5t68 -16.5q69 0 155 37l16 -87q-84 -51 -191 -51q-90 0 -138.5 40.5t-48.5 117.5q0 61 21.5 138.5t58.5 125.5q60 78 193 78q84 0 124.5 -33.5t40.5 -91.5q0 -72 -49 -113t-141 -41zM255 369q-22 -18 -37 -71h101q81 0 81 54
q0 21 -15.5 31t-51.5 10q-51 0 -78 -24zM491 534h-61q-4 63 -64 63q-32 0 -55.5 -18.5t-34.5 -44.5h-61q11 60 54 100.5t110 40.5q54 0 84 -32.5t30 -82.5q0 -8 -2 -26z" />
    <glyph glyph-name="Idblgrave" unicode="&#x208;" horiz-adv-x="258" 
d="M63 871h10q40 0 62 -35l69 -106h-48l-102 66q-30 19 -30 41q0 14 10.5 24t28.5 10zM224 871h10q40 0 62 -35l69 -106h-48l-102 66q-30 19 -30 41q0 14 10.5 24t28.5 10zM320 676l-131 -676h-121l130 676h122z" />
    <glyph glyph-name="idblgrave" unicode="&#x209;" horiz-adv-x="236" 
d="M15 675h10q40 0 62 -35l69 -106h-48l-102 66q-30 19 -30 41q0 14 10.5 24t28.5 10zM176 675h10q40 0 62 -35l69 -106h-48l-102 66q-30 19 -30 41q0 14 10.5 24t28.5 10zM269 480l-93 -480h-118l93 480h118z" />
    <glyph glyph-name="Iinvertedbreve" unicode="&#x20a;" horiz-adv-x="258" 
d="M403 730h-61q-4 63 -64 63q-32 0 -55.5 -18.5t-34.5 -44.5h-61q11 60 54 100.5t110 40.5q54 0 84 -32.5t30 -82.5q0 -8 -2 -26zM320 676l-131 -676h-121l130 676h122z" />
    <glyph glyph-name="iinvertedbreve" unicode="&#x20b;" horiz-adv-x="236" 
d="M269 480l-93 -480h-118l93 480h118zM355 534h-61q-4 63 -64 63q-32 0 -55.5 -18.5t-34.5 -44.5h-61q11 60 54 100.5t110 40.5q54 0 84 -32.5t30 -82.5q0 -8 -2 -26z" />
    <glyph glyph-name="Odblgrave" unicode="&#x20c;" horiz-adv-x="648" 
d="M454 131q47 39 74.5 142.5t27.5 184.5q0 65 -27 96t-90 31q-64 0 -111 -38q-48 -39 -77 -145.5t-29 -185.5q0 -65 27 -95t91 -30q65 0 114 40zM680 474q0 -109 -41 -239t-114 -188q-79 -62 -205 -62q-105 0 -163 53t-58 163q0 108 39 237t110 186q84 67 209 67
q105 0 164 -53.5t59 -163.5zM264 871h10q40 0 62 -35l69 -106h-48l-102 66q-30 19 -30 41q0 14 10.5 24t28.5 10zM425 871h10q40 0 62 -35l69 -106h-48l-102 66q-30 19 -30 41q0 14 10.5 24t28.5 10z" />
    <glyph glyph-name="odblgrave" unicode="&#x20d;" horiz-adv-x="484" 
d="M260 91q39 0 65 26q24 24 42 86.5t18 118.5q0 32 -17 49.5t-48 17.5q-41 0 -65 -26q-27 -28 -44 -93t-17 -113q0 -31 18.5 -48.5t47.5 -17.5zM501 332q1 -75 -24 -159t-75 -130q-56 -53 -156 -53q-78 0 -122.5 41.5t-45.5 116.5t24.5 162t77.5 130q61 50 154 50
q77 0 121.5 -40.5t45.5 -117.5zM141 675h10q40 0 62 -35l69 -106h-48l-102 66q-30 19 -30 41q0 14 10.5 24t28.5 10zM302 675h10q40 0 62 -35l69 -106h-48l-102 66q-30 19 -30 41q0 14 10.5 24t28.5 10z" />
    <glyph glyph-name="Oinvertedbreve" unicode="&#x20e;" horiz-adv-x="648" 
d="M454 131q47 39 74.5 142.5t27.5 184.5q0 65 -27 96t-90 31q-64 0 -111 -38q-48 -39 -77 -145.5t-29 -185.5q0 -65 27 -95t91 -30q65 0 114 40zM680 474q0 -109 -41 -239t-114 -188q-79 -62 -205 -62q-105 0 -163 53t-58 163q0 108 39 237t110 186q84 67 209 67
q105 0 164 -53.5t59 -163.5zM602 730h-61q-4 63 -64 63q-32 0 -55.5 -18.5t-34.5 -44.5h-61q11 60 54 100.5t110 40.5q54 0 84 -32.5t30 -82.5q0 -8 -2 -26z" />
    <glyph glyph-name="oinvertedbreve" unicode="&#x20f;" horiz-adv-x="484" 
d="M260 91q39 0 65 26q24 24 42 86.5t18 118.5q0 32 -17 49.5t-48 17.5q-41 0 -65 -26q-27 -28 -44 -93t-17 -113q0 -31 18.5 -48.5t47.5 -17.5zM501 332q1 -75 -24 -159t-75 -130q-56 -53 -156 -53q-78 0 -122.5 41.5t-45.5 116.5t24.5 162t77.5 130q61 50 154 50
q77 0 121.5 -40.5t45.5 -117.5zM477 534h-61q-4 63 -64 63q-32 0 -55.5 -18.5t-34.5 -44.5h-61q11 60 54 100.5t110 40.5q54 0 84 -32.5t30 -82.5q0 -8 -2 -26z" />
    <glyph glyph-name="Rdblgrave" unicode="&#x210;" horiz-adv-x="556" 
d="M502 303q-28 -21 -67 -29l101 -274h-127l-94 260h-75l-51 -260h-121l131 676h223q81 0 127 -43.5t46 -125.5q0 -60 -23.5 -115t-69.5 -89zM428 379q44 41 44 120q0 72 -72 72h-99l-43 -217h98q45 0 72 25zM171 871h10q40 0 62 -35l69 -106h-48l-102 66q-30 19 -30 41
q0 14 10.5 24t28.5 10zM332 871h10q40 0 62 -35l69 -106h-48l-102 66q-30 19 -30 41q0 14 10.5 24t28.5 10z" />
    <glyph glyph-name="rdblgrave" unicode="&#x211;" horiz-adv-x="311" 
d="M380 490h11l-19 -106h-21q-50 0 -81 -32.5t-46 -108.5l-47 -243h-119l93 480h72l22 -58h5q48 68 130 68zM91 675h10q40 0 62 -35l69 -106h-48l-102 66q-30 19 -30 41q0 14 10.5 24t28.5 10zM252 675h10q40 0 62 -35l69 -106h-48l-102 66q-30 19 -30 41q0 14 10.5 24
t28.5 10z" />
    <glyph glyph-name="Rinvertedbreve" unicode="&#x212;" horiz-adv-x="556" 
d="M502 303q-28 -21 -67 -29l101 -274h-127l-94 260h-75l-51 -260h-121l131 676h223q81 0 127 -43.5t46 -125.5q0 -60 -23.5 -115t-69.5 -89zM428 379q44 41 44 120q0 72 -72 72h-99l-43 -217h98q45 0 72 25zM517 730h-61q-4 63 -64 63q-32 0 -55.5 -18.5t-34.5 -44.5h-61
q11 60 54 100.5t110 40.5q54 0 84 -32.5t30 -82.5q0 -8 -2 -26z" />
    <glyph glyph-name="rinvertedbreve" unicode="&#x213;" horiz-adv-x="311" 
d="M380 490h11l-19 -106h-21q-50 0 -81 -32.5t-46 -108.5l-47 -243h-119l93 480h72l22 -58h5q48 68 130 68zM411 534h-61q-4 63 -64 63q-32 0 -55.5 -18.5t-34.5 -44.5h-61q11 60 54 100.5t110 40.5q54 0 84 -32.5t30 -82.5q0 -8 -2 -26z" />
    <glyph glyph-name="Udblgrave" unicode="&#x214;" horiz-adv-x="604" 
d="M672 676l-90 -462q-22 -111 -92 -170t-184 -59q-98 0 -153 47.5t-55 133.5q0 39 11 91l81 419h122l-82 -419q-11 -57 -11 -81q0 -41 26 -63t73 -22q118 0 145 139l87 446h122zM242 871h10q40 0 62 -35l69 -106h-48l-102 66q-30 19 -30 41q0 14 10.5 24t28.5 10zM403 871
h10q40 0 62 -35l69 -106h-48l-102 66q-30 19 -30 41q0 14 10.5 24t28.5 10z" />
    <glyph glyph-name="udblgrave" unicode="&#x215;" horiz-adv-x="510" 
d="M493 99l15 -8l-43 -101q-45 3 -73.5 26t-36.5 57h-6q-52 -83 -141 -83q-58 0 -93 35.5t-35 94.5q0 39 12 99l50 261h118l-52 -268q-10 -47 -10 -69q0 -52 51 -52q43 0 76.5 44t46.5 112l46 233h118l-63 -328q-7 -39 20 -53zM162 675h10q40 0 62 -35l69 -106h-48l-102 66
q-30 19 -30 41q0 14 10.5 24t28.5 10zM323 675h10q40 0 62 -35l69 -106h-48l-102 66q-30 19 -30 41q0 14 10.5 24t28.5 10z" />
    <glyph glyph-name="Uinvertedbreve" unicode="&#x216;" horiz-adv-x="604" 
d="M672 676l-90 -462q-22 -111 -92 -170t-184 -59q-98 0 -153 47.5t-55 133.5q0 39 11 91l81 419h122l-82 -419q-11 -57 -11 -81q0 -41 26 -63t73 -22q118 0 145 139l87 446h122zM577 730h-61q-4 63 -64 63q-32 0 -55.5 -18.5t-34.5 -44.5h-61q11 60 54 100.5t110 40.5
q54 0 84 -32.5t30 -82.5q0 -8 -2 -26z" />
    <glyph glyph-name="uinvertedbreve" unicode="&#x217;" horiz-adv-x="510" 
d="M493 99l15 -8l-43 -101q-45 3 -73.5 26t-36.5 57h-6q-52 -83 -141 -83q-58 0 -93 35.5t-35 94.5q0 39 12 99l50 261h118l-52 -268q-10 -47 -10 -69q0 -52 51 -52q43 0 76.5 44t46.5 112l46 233h118l-63 -328q-7 -39 20 -53zM490 534h-61q-4 63 -64 63q-32 0 -55.5 -18.5
t-34.5 -44.5h-61q11 60 54 100.5t110 40.5q54 0 84 -32.5t30 -82.5q0 -8 -2 -26z" />
    <glyph glyph-name="Scommaaccent" unicode="&#x218;" horiz-adv-x="505" 
d="M510 208q0 -95 -62 -159t-179 -64q-66 0 -125 20.5t-94 49.5l44 94q89 -58 172 -58q57 0 88 30.5t31 77.5q0 53 -68 89l-53 28q-122 64 -122 167q0 89 62 148.5t173 59.5q98 0 178 -51l-49 -95q-65 40 -131 40q-51 0 -80 -27t-29 -66q0 -47 60 -79l62 -32
q122 -63 122 -173zM338 -115q0 -33 -42 -109l-50 -89l-48 9l41 121v4q-41 17 -41 64q0 33 20 51.5t50 18.5q31 0 50.5 -18.5t19.5 -51.5z" />
    <glyph glyph-name="scommaaccent" unicode="&#x219;" horiz-adv-x="429" 
d="M426 154q0 -72 -50.5 -118t-145.5 -46q-53 0 -103.5 16t-80.5 40l43 88q66 -43 138 -43q41 0 59.5 15.5t18.5 37.5q0 28 -45 47l-52 21q-96 39 -96 117q0 75 53 118t141 43t153 -39l-44 -91q-52 29 -112 29q-37 0 -54.5 -14t-17.5 -34q0 -25 37 -39l55 -22
q103 -42 103 -126zM297 -115q0 -33 -42 -109l-50 -89l-48 9l41 121v4q-41 17 -41 64q0 33 20 51.5t50 18.5q31 0 50.5 -18.5t19.5 -51.5z" />
    <glyph glyph-name="circumflex" unicode="&#x2c6;" horiz-adv-x="447" 
d="M259 677l101 -107l-34 -40l-102 55h-9l-116 -55l-26 40l140 107h46z" />
    <glyph glyph-name="caron" unicode="&#x2c7;" horiz-adv-x="447" 
d="M190 534l-102 106l35 40l101 -55h9l116 55l26 -40l-140 -106h-45z" />
    <glyph glyph-name="breve" unicode="&#x2d8;" horiz-adv-x="470" 
d="M323 676h61q-11 -61 -53 -101.5t-107 -40.5q-66 0 -95.5 41t-19.5 101h60q-1 -26 15 -45t51 -19q34 0 57 19t31 45z" />
    <glyph glyph-name="dotaccent" unicode="&#x2d9;" horiz-adv-x="470" 
d="M300 626q0 -32 -18 -50.5t-47 -18.5q-28 0 -46.5 18.5t-18.5 50.5q0 33 18.5 51.5t46.5 18.5q29 0 47 -18.5t18 -51.5z" />
    <glyph glyph-name="ring" unicode="&#x2da;" horiz-adv-x="470" 
d="M285 637q0 21 -14.5 36t-35.5 15q-22 0 -36.5 -15t-14.5 -36t14.5 -35.5t36.5 -14.5t36 14.5t14 35.5zM345 637q0 -45 -30 -74t-80 -29t-80.5 29t-30.5 74t30.5 74.5t80.5 29.5q49 0 79.5 -29.5t30.5 -74.5z" />
    <glyph glyph-name="ogonek" unicode="&#x2db;" horiz-adv-x="470" 
d="M314 -151l2 -53q-33 -12 -78 -12q-53 0 -81 19.5t-28 55.5q0 46 38 85t80 60h77q-93 -70 -93 -124q0 -34 46 -34z" />
    <glyph glyph-name="tilde" unicode="&#x2dc;" horiz-adv-x="470" 
d="M346 658l42 -16q-5 -17 -10 -29.5t-16.5 -30t-30.5 -27t-45 -9.5q-17 0 -61.5 12.5t-60.5 12.5q-29 0 -48 -29l-41 16q24 96 101 96q18 0 62 -12.5t60 -12.5q29 0 48 29z" />
    <glyph glyph-name="hungarumlaut" unicode="&#x2dd;" horiz-adv-x="470" 
d="M259 644q0 -24 -39 -46l-111 -64h-49l87 105q30 36 77 36q35 0 35 -31zM421 644q0 -24 -39 -46l-111 -64h-49l87 105q30 36 77 36q35 0 35 -31z" />
    <glyph glyph-name="invertedbreve" unicode="&#x311;" horiz-adv-x="470" 
d="M359 534h-61q-4 63 -64 63q-32 0 -55.5 -18.5t-34.5 -44.5h-61q11 60 54 100.5t110 40.5q54 0 84 -32.5t30 -82.5q0 -8 -2 -26z" />
    <glyph glyph-name="pi" unicode="&#x3c0;" horiz-adv-x="560" 
d="M526 384l-32 -167q-13 -65 -13 -80q0 -32 40 -44l19 -6l-29 -97q-150 8 -150 117q0 39 13 105l33 172h-124l-75 -384h-118l75 384h-81l19 96h523l-19 -96h-81z" />
    <glyph glyph-name="bahtthai" unicode="&#xe3f;" horiz-adv-x="592" 
d="M588 224q0 -104 -64.5 -164t-176.5 -60h-19l-18 -92h-84l18 92h-176l130 676h177l18 91h84l-18 -92q74 -3 114 -41t40 -105q0 -58 -27.5 -101.5t-80.5 -63.5l-1 -2v-2q84 -35 84 -136zM389 304h-2l-39 -198h5q54 0 84 33t30 87q0 36 -20 57t-58 21zM248 304l-39 -198h55
l39 198h-55zM301 570l-35 -176h54l34 176h-53zM490 504q0 56 -52 65l-34 -174q39 4 62.5 35t23.5 74z" />
    <glyph glyph-name="Wgrave" unicode="&#x1e80;" horiz-adv-x="888" 
d="M516 442q0 -3 -10 -34.5t-17 -47.5l-160 -360h-157l-36 676h120l22 -425l1 -96h11q17 52 30 81l172 387h119l29 -378l1 -90h11q17 59 31 92l191 429h129l-300 -676h-145l-30 360l-2 82h-10zM397 837q0 34 49 34q50 0 72 -34l71 -107h-61l-112 76q-19 13 -19 31z" />
    <glyph glyph-name="wgrave" unicode="&#x1e81;" horiz-adv-x="686" 
d="M638 480h126l-201 -480h-136l-28 212l-2 66h-11q-11 -45 -22 -68l-104 -210h-134l-21 480h117l9 -259l-2 -75h12q17 60 30 85l107 220h86l30 -232l4 -73h11q15 56 24 77zM262 641q0 34 49 34q50 0 72 -34l71 -107h-61l-112 76q-19 13 -19 31z" />
    <glyph glyph-name="Wacute" unicode="&#x1e82;" horiz-adv-x="888" 
d="M516 442q0 -3 -10 -34.5t-17 -47.5l-160 -360h-157l-36 676h120l22 -425l1 -96h11q17 52 30 81l172 387h119l29 -378l1 -90h11q17 59 31 92l191 429h129l-300 -676h-145l-30 360l-2 82h-10zM739 841q0 -14 -9.5 -23t-34.5 -24l-106 -64h-62l83 101q20 24 38.5 32t50.5 8
q40 0 40 -30z" />
    <glyph glyph-name="wacute" unicode="&#x1e83;" horiz-adv-x="686" 
d="M638 480h126l-201 -480h-136l-28 212l-2 66h-11q-11 -45 -22 -68l-104 -210h-134l-21 480h117l9 -259l-2 -75h12q17 60 30 85l107 220h86l30 -232l4 -73h11q15 56 24 77zM600 645q0 -14 -9.5 -23t-34.5 -24l-106 -64h-62l83 101q20 24 38.5 32t50.5 8q40 0 40 -30z" />
    <glyph glyph-name="Wdieresis" unicode="&#x1e84;" horiz-adv-x="888" 
d="M516 442q0 -3 -10 -34.5t-17 -47.5l-160 -360h-157l-36 676h120l22 -425l1 -96h11q17 52 30 81l172 387h119l29 -378l1 -90h11q17 59 31 92l191 429h129l-300 -676h-145l-30 360l-2 82h-10zM543 822q0 -32 -18 -50.5t-47 -18.5q-28 0 -46.5 18.5t-18.5 50.5
q0 33 18.5 51.5t46.5 18.5q29 0 47 -18.5t18 -51.5zM725 822q0 -32 -18 -50.5t-47 -18.5q-28 0 -46.5 18.5t-18.5 50.5q0 33 18.5 51.5t46.5 18.5q29 0 47 -18.5t18 -51.5z" />
    <glyph glyph-name="wdieresis" unicode="&#x1e85;" horiz-adv-x="686" 
d="M638 480h126l-201 -480h-136l-28 212l-2 66h-11q-11 -45 -22 -68l-104 -210h-134l-21 480h117l9 -259l-2 -75h12q17 60 30 85l107 220h86l30 -232l4 -73h11q15 56 24 77zM407 626q0 -32 -18 -50.5t-47 -18.5q-28 0 -46.5 18.5t-18.5 50.5q0 33 18.5 51.5t46.5 18.5
q29 0 47 -18.5t18 -51.5zM589 626q0 -32 -18 -50.5t-47 -18.5q-28 0 -46.5 18.5t-18.5 50.5q0 33 18.5 51.5t46.5 18.5q29 0 47 -18.5t18 -51.5z" />
    <glyph glyph-name="Ygrave" unicode="&#x1ef2;" horiz-adv-x="530" 
d="M323 379h10q17 52 34 78l137 219h141l-282 -444l-45 -232h-121l49 252l-114 424h122l60 -220q3 -11 5.5 -30t2.5 -33zM227 837q0 34 49 34q50 0 72 -34l71 -107h-61l-112 76q-19 13 -19 31z" />
    <glyph glyph-name="ygrave" unicode="&#x1ef3;" horiz-adv-x="476" 
d="M429 480h125l-221 -533q-44 -107 -101 -145t-164 -38h-61l18 104h75q43 0 68 19t47 74l15 39h-41l-87 480h119l48 -276l9 -87h11q14 57 29 94zM175 641q0 34 49 34q50 0 72 -34l71 -107h-61l-112 76q-19 13 -19 31z" />
    <glyph glyph-name="endash" unicode="&#x2013;" horiz-adv-x="499" 
d="M508 281l-16 -83h-410l16 83h410z" />
    <glyph glyph-name="emdash" unicode="&#x2014;" horiz-adv-x="899" 
d="M908 281l-16 -83h-810l16 83h810z" />
    <glyph glyph-name="quoteleft" unicode="&#x2018;" horiz-adv-x="221" 
d="M138 517q0 6 0.5 12t2.5 13t3 12t4 12.5t5 12t6 13t5.5 12t7 13t6.5 12.5l44 86l45 -7l-36 -123v-2q47 -15 47 -66q0 -33 -20 -51.5t-50 -18.5q-31 0 -50.5 18.5t-19.5 51.5z" />
    <glyph glyph-name="quoteright" unicode="&#x2019;" horiz-adv-x="217" 
d="M301 640q0 -6 -0.5 -12t-2.5 -13t-3 -12t-4 -12.5t-5 -12t-6 -13t-5.5 -12t-7 -13t-6.5 -12.5l-44 -86l-45 7l36 123v2q-47 15 -47 66q0 33 20 51.5t50 18.5q31 0 50.5 -18.5t19.5 -51.5z" />
    <glyph glyph-name="quotesinglbase" unicode="&#x201a;" horiz-adv-x="221" 
d="M194 59q0 -6 -0.5 -12t-2.5 -13t-3 -12t-4 -12.5t-5 -12t-6 -13t-5.5 -12t-7 -13t-6.5 -12.5l-44 -86l-45 7l36 123v2q-47 15 -47 66q0 33 20 51.5t50 18.5q31 0 50.5 -18.5t19.5 -51.5z" />
    <glyph glyph-name="quotedblleft" unicode="&#x201c;" horiz-adv-x="411" 
d="M328 517q0 6 0.5 12t2.5 13t3 12t4 12.5t5 12t6 13t5.5 12t7 13t6.5 12.5l44 86l45 -7l-36 -123v-2q47 -15 47 -66q0 -33 -20 -51.5t-50 -18.5q-31 0 -50.5 18.5t-19.5 51.5zM138 517q0 6 0.5 12t2.5 13t3 12t4 12.5t5 12t6 13t5.5 12t7 13t6.5 12.5l44 86l45 -7
l-36 -123v-2q47 -15 47 -66q0 -33 -20 -51.5t-50 -18.5q-31 0 -50.5 18.5t-19.5 51.5z" />
    <glyph glyph-name="quotedblright" unicode="&#x201d;" horiz-adv-x="406" 
d="M301 640q0 -6 -0.5 -12t-2.5 -13t-3 -12t-4 -12.5t-5 -12t-6 -13t-5.5 -12t-7 -13t-6.5 -12.5l-44 -86l-45 7l36 123v2q-47 15 -47 66q0 33 20 51.5t50 18.5q31 0 50.5 -18.5t19.5 -51.5zM491 640q0 -6 -0.5 -12t-2.5 -13t-3 -12t-4 -12.5t-5 -12t-6 -13t-5.5 -12t-7 -13
t-6.5 -12.5l-44 -86l-45 7l36 123v2q-47 15 -47 66q0 33 20 51.5t50 18.5q31 0 50.5 -18.5t19.5 -51.5z" />
    <glyph glyph-name="quotedblbase" unicode="&#x201e;" horiz-adv-x="411" 
d="M194 59q0 -6 -0.5 -12t-2.5 -13t-3 -12t-4 -12.5t-5 -12t-6 -13t-5.5 -12t-7 -13t-6.5 -12.5l-44 -86l-45 7l36 123v2q-47 15 -47 66q0 33 20 51.5t50 18.5q31 0 50.5 -18.5t19.5 -51.5zM384 59q0 -6 -0.5 -12t-2.5 -13t-3 -12t-4 -12.5t-5 -12t-6 -13t-5.5 -12t-7 -13
t-6.5 -12.5l-44 -86l-45 7l36 123v2q-47 15 -47 66q0 33 20 51.5t50 18.5q31 0 50.5 -18.5t19.5 -51.5z" />
    <glyph glyph-name="dagger" unicode="&#x2020;" horiz-adv-x="528" 
d="M129 394l21 110h67l92 -15l11 5l5 110l15 82h110l-15 -82l-37 -110l10 -5l95 15h68l-21 -110h-68l-81 16l-7 -4l-33 -164l-55 -212l-42 -218h-74l42 218l26 212l33 164l-8 4l-87 -16h-67z" />
    <glyph glyph-name="daggerdbl" unicode="&#x2021;" horiz-adv-x="528" 
d="M499 129l-22 -109h-67l-91 13l-11 -5l-6 -109l-16 -81h-110l16 81l38 109l-10 5l-96 -13h-68l22 109h68l79 -16l9 4l56 289l-7 4l-87 -16h-67l22 110h67l90 -15l11 5l6 110l16 82h110l-16 -82l-37 -110l10 -5l96 15h68l-22 -110h-68l-80 16l-9 -4l-56 -289l7 -4l88 16h67
z" />
    <glyph glyph-name="bullet" unicode="&#x2022;" horiz-adv-x="334" 
d="M332 282q0 -50 -33 -81t-79 -31q-47 0 -79 30.5t-32 81.5q0 49 32 80t79 31q46 0 79 -31t33 -80z" />
    <glyph glyph-name="ellipsis" unicode="&#x2026;" horiz-adv-x="872" 
d="M231 59q0 -32 -19.5 -50.5t-50.5 -18.5q-30 0 -50 18.5t-20 50.5q0 33 20 51.5t50 18.5q31 0 50.5 -18.5t19.5 -51.5zM518 59q0 -32 -19.5 -50.5t-50.5 -18.5q-30 0 -50 18.5t-20 50.5q0 33 20 51.5t50 18.5q31 0 50.5 -18.5t19.5 -51.5zM805 59q0 -32 -19.5 -50.5
t-50.5 -18.5q-30 0 -50 18.5t-20 50.5q0 33 20 51.5t50 18.5q31 0 50.5 -18.5t19.5 -51.5z" />
    <glyph glyph-name="perthousand" unicode="&#x2030;" horiz-adv-x="989" 
d="M292 449q15 14 25.5 57t10.5 72q0 38 -36 38q-20 0 -35 -12q-16 -14 -25.5 -56t-9.5 -74q0 -37 35 -37q22 0 35 12zM406 591q0 -49 -18 -106.5t-50 -86.5q-35 -32 -95 -32q-47 0 -73.5 24.5t-26.5 70.5q0 48 17 105.5t46 84.5q39 36 100 36q47 0 73.5 -25t26.5 -71z
M612 703h84l-475 -723h-84zM577 73q15 14 25.5 57t10.5 72q0 38 -36 38q-20 0 -35 -12q-16 -14 -25.5 -56t-9.5 -74q0 -37 35 -37q22 0 35 12zM691 215q0 -49 -18 -106.5t-50 -86.5q-35 -32 -95 -32q-47 0 -73.5 24.5t-26.5 70.5q0 48 17 105.5t46 84.5q39 36 100 36
q47 0 73.5 -25t26.5 -71zM877 73q15 14 25.5 57t10.5 72q0 38 -36 38q-20 0 -35 -12q-16 -14 -25.5 -56t-9.5 -74q0 -37 35 -37q22 0 35 12zM991 215q0 -49 -18 -106.5t-50 -86.5q-35 -32 -95 -32q-47 0 -73.5 24.5t-26.5 70.5q0 48 17 105.5t46 84.5q39 36 100 36
q47 0 73.5 -25t26.5 -71z" />
    <glyph glyph-name="guilsinglleft" unicode="&#x2039;" horiz-adv-x="300" 
d="M196 27l-126 211l126 211h96l-126 -211l126 -211h-96z" />
    <glyph glyph-name="guilsinglright" unicode="&#x203a;" horiz-adv-x="300" 
d="M316 238l-126 -211h-96l126 211l-126 211h96z" />
    <glyph glyph-name="fraction" unicode="&#x2044;" horiz-adv-x="313" 
d="M389 693h88l-422 -713h-88z" />
    <glyph glyph-name="zerosuperior" unicode="&#x2070;" horiz-adv-x="316" 
d="M246 428q17 16 29 66.5t12 84.5q0 42 -37 42q-22 0 -36 -15t-26.5 -66t-12.5 -84q0 -40 36 -40q22 0 35 12zM366 590q0 -54 -18 -117.5t-51 -93.5q-37 -33 -100 -33q-49 0 -75.5 25.5t-26.5 73.5q0 53 18 115.5t49 93.5q37 37 102 37q102 0 102 -101z" />
    <glyph glyph-name="foursuperior" unicode="&#x2074;" horiz-adv-x="293" 
d="M253 602l-14 4q-20 -46 -29 -59l-49 -75h65l14 73zM341 472l-12 -61h-36l-12 -61h-79l12 61h-142l10 52l148 223h116l-42 -214h37z" />
    <glyph glyph-name="fivesuperior" unicode="&#x2075;" horiz-adv-x="247" 
d="M292 487q0 -58 -35.5 -99.5t-101.5 -41.5q-48 0 -85 16l24 64q49 -9 56 -9q30 0 44 15.5t14 34.5q0 29 -40 29q-16 0 -46 -6l-25 17l54 180h154l-14 -71h-89l-16 -51q14 2 22 2q84 0 84 -80z" />
    <glyph glyph-name="sixsuperior" unicode="&#x2076;" horiz-adv-x="287" 
d="M201 415q23 0 36.5 17.5t13.5 40.5q0 28 -32 28q-11 0 -22 -2.5t-17 -4.5l-5 -2q-8 -20 -8 -45q0 -32 34 -32zM330 486q0 -57 -37.5 -98.5t-103.5 -41.5q-47 0 -73.5 23.5t-26.5 70.5q0 97 62.5 168t173.5 83q2 -40 2 -61q-94 -21 -128 -73v-1q32 8 51 8q80 0 80 -78z
" />
    <glyph glyph-name="sevensuperior" unicode="&#x2077;" horiz-adv-x="210" 
d="M298 687l-11 -61l-143 -276h-88l144 258v8h-106l13 71h191z" />
    <glyph glyph-name="eightsuperior" unicode="&#x2078;" horiz-adv-x="277" 
d="M316 450q0 -48 -34 -76t-97 -28q-53 0 -79 22.5t-26 56.5q0 65 71 101l1 2v3q-30 25 -30 62q0 42 33.5 70t89.5 28q47 0 71 -20.5t24 -53.5q0 -56 -63 -92q0 -1 -0.5 -3l-0.5 -2q40 -27 40 -70zM193 408q20 0 32.5 11.5t12.5 29.5q0 16 -19 30l-17 13l-18 -14
q-24 -19 -24 -43q0 -12 9 -19.5t24 -7.5zM236 628q-17 0 -28 -9.5t-11 -24.5q0 -16 14 -25l16 -12q12 5 24 19.5t12 28.5q0 23 -27 23z" />
    <glyph glyph-name="ninesuperior" unicode="&#x2079;" horiz-adv-x="285" 
d="M229 622q-23 0 -37 -17.5t-14 -40.5q0 -29 31 -29q10 0 21.5 2.5t17.5 4.5l6 3q7 22 7 45q0 32 -32 32zM98 551q0 57 37.5 98.5t103.5 41.5q46 0 73 -25.5t27 -72.5q0 -98 -61 -167t-175 -80q0 20 -2 60q91 18 129 73v2q-24 -9 -52 -9q-39 0 -59.5 21t-20.5 58z" />
    <glyph glyph-name="parenleftsuperior" unicode="&#x207d;" horiz-adv-x="188" 
d="M275 717q-96 -147 -96 -297q0 -56 15 -109h-60q-27 58 -27 127q0 148 107 279h61z" />
    <glyph glyph-name="parenrightsuperior" unicode="&#x207e;" horiz-adv-x="182" 
d="M118 311h-59q87 130 87 275q0 68 -19 131h62q30 -67 30 -145q0 -138 -101 -261z" />
    <glyph glyph-name="zeroinferior" unicode="&#x2080;" horiz-adv-x="316" 
d="M191 28q17 16 29 66.5t12 84.5q0 42 -37 42q-23 0 -36 -15q-14 -15 -26.5 -66t-12.5 -84q0 -40 36 -40q22 0 35 12zM311 190q0 -54 -18 -117.5t-51 -93.5q-38 -33 -100 -33q-49 0 -75.5 25.5t-26.5 73.5q0 53 18 115.5t49 93.5q37 37 102 37q102 0 102 -101z" />
    <glyph glyph-name="oneinferior" unicode="&#x2081;" horiz-adv-x="200" 
d="M203 287l-65 -337h-79l49 255q1 5 -1.5 7t-8.5 1l-37 -8l-7 40l91 42h58z" />
    <glyph glyph-name="twoinferior" unicode="&#x2082;" horiz-adv-x="264" 
d="M234 21l-14 -71h-214l13 69l122 113q42 38 42 61q0 28 -36 28q-32 0 -71 -16l-8 62q55 24 98 24q49 0 73 -25.5t24 -63.5q0 -32 -17 -59.5t-51 -59.5l-49 -44l-24 -17l2 -6q17 5 27 5h83z" />
    <glyph glyph-name="threeinferior" unicode="&#x2083;" horiz-adv-x="249" 
d="M190 133l-1 -3q42 -17 42 -66q0 -55 -38.5 -86.5t-98.5 -31.5q-47 0 -92 18l25 63q1 0 10.5 -2.5t24.5 -5t30 -2.5q60 0 60 45q0 29 -38 29h-51l13 67h43q19 0 31 10t12 26q0 25 -34 25q-31 0 -53 -8l-7 63q48 16 85 16q91 0 91 -72q0 -59 -54 -85z" />
    <glyph glyph-name="fourinferior" unicode="&#x2084;" horiz-adv-x="293" 
d="M198 202l-14 4q-20 -46 -29 -59l-49 -75h65l14 73zM286 72l-12 -61h-36l-12 -61h-79l12 61h-142l10 52l148 223h116l-42 -214h37z" />
    <glyph glyph-name="fiveinferior" unicode="&#x2085;" horiz-adv-x="247" 
d="M237 87q0 -58 -35.5 -99.5t-101.5 -41.5q-48 0 -85 16l24 64q50 -9 56 -9q30 0 44 15.5t14 34.5q0 29 -40 29q-16 0 -46 -6l-25 17l54 180h154l-14 -71h-89l-16 -51q14 2 22 2q84 0 84 -80z" />
    <glyph glyph-name="sixinferior" unicode="&#x2086;" horiz-adv-x="287" 
d="M146 15q23 0 36.5 17.5t13.5 40.5q0 28 -32 28q-11 0 -22 -2.5t-16 -4.5l-6 -2q-8 -20 -8 -45q0 -32 34 -32zM275 86q0 -57 -37.5 -98.5t-103.5 -41.5q-47 0 -73.5 23.5t-26.5 70.5q0 97 62.5 168t173.5 83q2 -40 2 -61q-94 -21 -128 -73v-1q32 8 51 8q80 0 80 -78z" />
    <glyph glyph-name="seveninferior" unicode="&#x2087;" horiz-adv-x="210" 
d="M243 287l-11 -61l-143 -276h-88l144 258v8h-106l13 71h191z" />
    <glyph glyph-name="eightinferior" unicode="&#x2088;" horiz-adv-x="277" 
d="M261 50q0 -48 -34 -76t-97 -28q-53 0 -79 22.5t-26 56.5q0 65 71 101v2q1 2 1 3q-30 25 -30 62q0 42 33.5 70t89.5 28q47 0 71 -20.5t24 -53.5q0 -56 -63 -92q0 -1 -0.5 -3l-0.5 -2q40 -27 40 -70zM138 8q20 0 32.5 11.5t12.5 29.5q0 16 -19 30l-17 13l-18 -14
q-24 -19 -24 -43q0 -12 9 -19.5t24 -7.5zM181 228q-17 0 -28 -9.5t-11 -24.5q0 -16 14 -25l16 -12q12 5 24 19.5t12 28.5q0 23 -27 23z" />
    <glyph glyph-name="nineinferior" unicode="&#x2089;" horiz-adv-x="285" 
d="M174 222q-23 0 -37 -17.5t-14 -40.5q0 -29 31 -29q10 0 21.5 2.5t17.5 4.5l6 3q7 22 7 45q0 32 -32 32zM43 151q0 57 37.5 98.5t103.5 41.5q46 0 73 -25.5t27 -72.5q0 -98 -61 -167t-175 -80q0 20 -2 60q91 18 129 73v2q-24 -9 -52 -9q-39 0 -59.5 21t-20.5 58z" />
    <glyph glyph-name="parenleftinferior" unicode="&#x208d;" horiz-adv-x="188" 
d="M220 321q-96 -147 -96 -297q0 -56 15 -109h-60q-27 58 -27 127q0 148 107 279h61z" />
    <glyph glyph-name="parenrightinferior" unicode="&#x208e;" horiz-adv-x="182" 
d="M63 -85h-59q87 130 87 275q0 68 -19 131h62q30 -67 30 -145q0 -138 -101 -261z" />
    <glyph glyph-name="colonmonetary" unicode="&#x20a1;" horiz-adv-x="549" 
d="M138 -40l32 74q-71 55 -71 165q0 111 37.5 238t112.5 188q79 64 197 66l39 91l65 -27l-29 -70q34 -5 64 -16l26 61l65 -27l-258 -606q36 4 86 21l11 -94q-65 -29 -142 -35l-45 -108l-64 27l33 79q-24 2 -66 14l-29 -68zM276 108q25 -12 65 -17l203 481q-31 9 -66 12z
M221 214q0 -34 1 -48h7q0 10 15 45l156 369q-49 -10 -78 -38q-44 -42 -72.5 -148t-28.5 -180z" />
    <glyph glyph-name="cruzeiro" unicode="&#x20a2;" horiz-adv-x="546" 
d="M504 118l11 -94q-83 -39 -189 -39q-102 0 -164.5 55.5t-62.5 158.5q0 111 37.5 238t112.5 188q80 66 204 66q93 0 162 -34l-46 -93q-60 22 -117 22q-81 0 -130 -45q-44 -41 -72 -146t-28 -181q0 -96 79 -118l58 297h64l22 -58h5q41 68 118 68h11l-18 -106h-17
q-47 0 -76 -32.5t-44 -108.5l-12 -61q44 6 92 23z" />
    <glyph glyph-name="franc" unicode="&#x20a3;" horiz-adv-x="463" 
d="M101 377l15 77h71l43 222h338l-18 -98h-218l-24 -124h159l-15 -77h-159l-13 -67h159l-15 -77h-159l-45 -233h-121l45 233h-70l15 77h70l12 67h-70z" />
    <glyph glyph-name="naira" unicode="&#x20a6;" horiz-adv-x="754" 
d="M765 676l-41 -212h92l-15 -77h-92l-21 -106h93l-15 -77h-93l-39 -204h-138l-77 204h-153l-40 -204h-121l39 204h-93l15 77h93l21 106h-94l15 77h94l41 212h132l78 -212h156l41 212h122zM553 180q6 62 15 108l19 99h-112l45 -122l22 -87zM298 369l-17 -88h109l-50 134
l-18 71l-10 -1q-7 -78 -14 -116z" />
    <glyph glyph-name="peseta" unicode="&#x20a7;" horiz-adv-x="576" 
d="M101 412l15 77h62l37 187h203q82 0 127 -46t45 -131v-10h60l-15 -77h-55q-20 -80 -78.5 -131t-164.5 -51h-88l-44 -230h-121l79 412h-62zM423 354q21 18 34 58h-172l-16 -84h79q44 0 75 26zM316 571l-16 -82h169q0 82 -71 82h-82z" />
    <glyph glyph-name="rupee" unicode="&#x20a8;" horiz-adv-x="925" 
d="M475 303q-30 -21 -68 -31l77 -272h-125l-69 260h-56l-51 -260h-122l131 676h203q82 0 127.5 -43.5t45.5 -125.5q0 -61 -23.5 -116.5t-69.5 -87.5zM402 379q43 39 43 120q0 72 -72 72h-79l-43 -217h78q45 0 73 25zM917 154q0 -72 -50.5 -118t-145.5 -46q-53 0 -103.5 16
t-80.5 40l43 88q66 -43 138 -43q41 0 59.5 15.5t18.5 37.5q0 28 -45 47l-52 21q-96 39 -96 117q0 75 53 118t141 43t153 -39l-44 -91q-52 29 -112 29q-37 0 -54.5 -14t-17.5 -34q0 -25 37 -39l55 -22q103 -42 103 -126z" />
    <glyph glyph-name="won" unicode="&#x20a9;" horiz-adv-x="991" 
d="M606 0l-17 204h-122l-90 -204h-157l-11 204h-149l15 77h130l-6 106h-104l15 77h85l-11 212h120l11 -212h154l71 159h119l12 -159h156l95 212h129l-95 -212h83l-15 -77h-102l-47 -106h129l-15 -77h-148l-90 -204h-145zM338 155q17 52 30 81l67 151h-116l7 -136l1 -96h11z
M700 155q17 59 31 92l62 140h-116l11 -142l1 -90h11zM564 442q0 -3 -10 -34.5t-17 -47.5l-35 -79h80l-6 79l-2 82h-10z" />
    <glyph glyph-name="sheqel" unicode="&#x20aa;" horiz-adv-x="784" 
d="M571 168h-110l20 105q7 33 7 52q0 30 -21 42.5t-70 12.5h-152l-74 -380h-117l93 480h261q105 0 150 -29.5t45 -89.5q0 -30 -9 -77zM703 480h117l-55 -286q-12 -63 -34 -102t-59 -59t-78.5 -26.5t-108.5 -6.5h-242l60 311h110l-41 -211h150q61 0 88.5 21.5t39.5 83.5z" />
    <glyph glyph-name="Euro" unicode="&#x20ac;" horiz-adv-x="573" 
d="M556 118l11 -94q-83 -39 -189 -39q-102 0 -164.5 55.5t-62.5 158.5v26h-89l30 77h67q7 46 10 63h-86l30 77h77q41 126 111 183q80 66 204 66q93 0 162 -34l-46 -93q-60 22 -117 22q-82 0 -130 -45q-32 -31 -57 -99h235l-30 -77h-228q-8 -33 -12 -63h214l-30 -77h-192v-11
q0 -54 31 -88.5t101 -34.5q72 0 150 27z" />
    <glyph glyph-name="litre" unicode="&#x2113;" horiz-adv-x="420" 
d="M58 153l-25 72q57 33 100 58l42 215q7 38 19 68.5t33 60t57.5 46t85.5 16.5q133 0 133 -123q0 -196 -204 -295l-56 -27l-11 -57q-7 -40 -7 -55q0 -25 20 -35.5t68 -10.5h15l-32 -96q-98 0 -143 27t-45 90q0 10 7 75zM296 517l-24 -120l-12 -42l2 -2l20 13q100 65 101 176
q0 42 -33 42q-23 0 -35 -15.5t-19 -51.5z" />
    <glyph glyph-name="trademark" unicode="&#x2122;" horiz-adv-x="768" 
d="M387 711v-65h-97v-284h-76v284h-97v65h270zM825 711v-349h-76v185l2 54q-1 0 -4 0.5t-5 0.5q-9 -28 -19 -52l-63 -146h-57l-65 146l-17 52l-10 -1q3 -43 3 -54v-185h-76v349h99l76 -177l15 -38h7q7 21 14 38l76 177h100z" />
    <glyph glyph-name="Omega" unicode="&#x2126;" horiz-adv-x="680" 
d="M59 0l19 98h124l9 45q-90 49 -90 171q0 55 11 106.5t37 101.5t65 87t100.5 59.5t138.5 22.5q103 0 171 -52t68 -158q0 -268 -193 -338l-8 -45h125l-20 -98h-228l40 204q160 40 160 258q0 123 -136 123q-69 0 -117 -35q-43 -31 -67.5 -98t-24.5 -128q0 -47 18.5 -76
t64.5 -44l-40 -204h-227z" />
    <glyph glyph-name="estimated" unicode="&#x212e;" horiz-adv-x="863" 
d="M739 347v190q0 13 -10 23q-98 98 -234 98q-138 0 -236 -101q-10 -10 -10 -24v-186q0 -5 5 -5h480q5 0 5 5zM880 322h-626q-5 0 -5 -4v-189q0 -13 9 -22q96 -102 237 -102q73 0 137.5 30.5t110.5 83.5h57q-53 -63 -133.5 -99t-172.5 -36q-160 0 -273.5 101.5t-113.5 245.5
t113.5 246t273.5 102t273 -102t113 -246v-9z" />
    <glyph glyph-name="onethird" unicode="&#x2153;" horiz-adv-x="618" 
d="M258 676l-65 -337h-79l49 255q1 5 -1.5 7t-8.5 1l-37 -8l-7 40l91 42h58zM562 183l-1 -3q42 -17 42 -66q0 -55 -38.5 -86.5t-98.5 -31.5q-47 0 -92 18l25 63q1 0 10.5 -2.5t24.5 -5t30 -2.5q60 0 60 45q0 29 -38 29h-51l13 67h43q19 0 31 10t12 26q0 25 -34 25
q-31 0 -53 -8l-7 63q48 16 85 16q91 0 91 -72q0 -59 -54 -85zM494 693h88l-422 -713h-88z" />
    <glyph glyph-name="twothirds" unicode="&#x2154;" horiz-adv-x="702" 
d="M635 183l-1 -3q42 -17 42 -66q0 -55 -38.5 -86.5t-98.5 -31.5q-47 0 -92 18l25 63q1 0 10.5 -2.5t24.5 -5t30 -2.5q60 0 60 45q0 29 -38 29h-51l13 67h43q19 0 31 10t12 26q0 25 -34 25q-31 0 -53 -8l-7 63q48 16 85 16q91 0 91 -72q0 -59 -54 -85zM307 410l-14 -71h-214
l13 69l122 113q42 38 42 61q0 28 -36 28q-32 0 -71 -16l-8 62q55 24 98 24q49 0 73 -25.5t24 -63.5q0 -58 -68 -119l-49 -44l-24 -17l2 -6q17 5 27 5h83zM567 693h88l-422 -713h-88z" />
    <glyph glyph-name="oneeighth" unicode="&#x215b;" horiz-adv-x="626" 
d="M258 676l-65 -337h-79l49 255q1 5 -1.5 7t-8.5 1l-37 -8l-7 40l91 42h58zM611 100q0 -48 -34 -76t-97 -28q-53 0 -79 22.5t-26 56.5q0 65 71 101v2q1 2 1 3q-30 25 -30 62q0 42 33.5 70t89.5 28q47 0 71 -20.5t24 -53.5q0 -56 -63 -92q0 -1 -0.5 -3l-0.5 -2
q40 -27 40 -70zM488 58q20 0 32.5 11.5t12.5 29.5q0 16 -19 30l-17 13l-18 -14q-24 -19 -24 -43q0 -12 9 -19.5t24 -7.5zM531 278q-17 0 -28 -9.5t-11 -24.5q0 -16 14 -25l16 -12q12 5 24 19.5t12 28.5q0 23 -27 23zM495 693h88l-422 -713h-88z" />
    <glyph glyph-name="threeeighths" unicode="&#x215c;" horiz-adv-x="678" 
d="M655 100q0 -48 -34 -76t-97 -28q-53 0 -79 22.5t-26 56.5q0 65 71 101v2q1 2 1 3q-30 25 -30 62q0 42 33.5 70t89.5 28q47 0 71 -20.5t24 -53.5q0 -56 -63 -92q0 -1 -0.5 -3l-0.5 -2q40 -27 40 -70zM532 58q20 0 32.5 11.5t12.5 29.5q0 16 -19 30l-17 13l-18 -14
q-24 -19 -24 -43q0 -12 9 -19.5t24 -7.5zM575 278q-17 0 -28 -9.5t-11 -24.5q0 -16 14 -25l16 -12q12 5 24 19.5t12 28.5q0 23 -27 23zM261 522l-1 -3q42 -17 42 -66q0 -55 -38.5 -86.5t-98.5 -31.5q-47 0 -92 18l25 63q1 0 10.5 -2.5t24.5 -5t30 -2.5q60 0 60 45
q0 29 -38 29h-51l13 67h43q19 0 31 10t12 26q0 25 -34 25q-31 0 -53 -8l-7 63q48 16 85 16q91 0 91 -72q0 -59 -54 -85zM538 693h88l-422 -713h-88z" />
    <glyph glyph-name="fiveeighths" unicode="&#x215d;" horiz-adv-x="683" 
d="M657 100q0 -48 -34 -76t-97 -28q-53 0 -79 22.5t-26 56.5q0 65 71 101v2q1 2 1 3q-30 25 -30 62q0 42 33.5 70t89.5 28q47 0 71 -20.5t24 -53.5q0 -56 -63 -92q0 -1 -0.5 -3l-0.5 -2q40 -27 40 -70zM534 58q20 0 32.5 11.5t12.5 29.5q0 16 -19 30l-17 13l-18 -14
q-24 -19 -24 -43q0 -12 9 -19.5t24 -7.5zM577 278q-17 0 -28 -9.5t-11 -24.5q0 -16 14 -25l16 -12q12 5 24 19.5t12 28.5q0 23 -27 23zM309 476q0 -58 -35.5 -99.5t-101.5 -41.5q-48 0 -85 16l24 64q50 -9 56 -9q30 0 44 15.5t14 34.5q0 29 -40 29q-16 0 -46 -6l-25 17
l54 180h154l-14 -71h-89l-16 -51q14 2 22 2q84 0 84 -80zM540 693h88l-422 -713h-88z" />
    <glyph glyph-name="seveneighths" unicode="&#x215e;" horiz-adv-x="593" 
d="M581 100q0 -48 -34 -76t-97 -28q-53 0 -79 22.5t-26 56.5q0 65 71 101v2q1 2 1 3q-30 25 -30 62q0 42 33.5 70t89.5 28q47 0 71 -20.5t24 -53.5q0 -56 -63 -92q0 -1 -0.5 -3l-0.5 -2q40 -27 40 -70zM458 58q20 0 32.5 11.5t12.5 29.5q0 16 -19 30l-17 13l-18 -14
q-24 -19 -24 -43q0 -12 9 -19.5t24 -7.5zM501 278q-17 0 -28 -9.5t-11 -24.5q0 -16 14 -25l16 -12q12 5 24 19.5t12 28.5q0 23 -27 23zM307 676l-11 -61l-143 -276h-88l144 258v8h-106l13 71h191zM464 693h88l-422 -713h-88z" />
    <glyph glyph-name="partialdiff" unicode="&#x2202;" horiz-adv-x="484" 
d="M260 91q39 0 65 26q24 24 42 86.5t18 118.5q0 32 -17 49.5t-48 17.5q-41 0 -65 -26q-27 -28 -44 -93t-17 -113q0 -31 18.5 -48.5t47.5 -17.5zM397 470q-16 126 -161 190l37 71q122 -38 180.5 -117t58.5 -205q0 -102 -25.5 -206.5t-84.5 -159.5q-56 -53 -156 -53
q-78 0 -122.5 41.5t-45.5 116.5t24.5 162.5t77.5 130.5q58 48 134 48q47 0 79 -21z" />
    <glyph glyph-name="Delta" unicode="&#x2206;" horiz-adv-x="589" 
d="M29 0l16 81l316 595h116l98 -595l-16 -81h-530zM355 427l-165 -315l-3 -14h263l2 13l-51 316l-4 82h-9q-23 -64 -33 -82z" />
    <glyph glyph-name="product" unicode="&#x220f;" horiz-adv-x="634" 
d="M189 0h-121l131 676h497l-131 -676h-121l112 578h-255z" />
    <glyph glyph-name="summation" unicode="&#x2211;" horiz-adv-x="456" 
d="M14 0l269 363l-153 313h414l-20 -98h-228l-2 -6q16 -13 25 -33l93 -188l-159 -212q-5 -6 -14 -15t-16 -14l-7 -6l1 -6h238l-19 -98h-422z" />
    <glyph glyph-name="minus" unicode="&#x2212;" 
d="M508 281l-16 -83h-410l16 83h410z" />
    <glyph glyph-name="radical" unicode="&#x221a;" horiz-adv-x="482" 
d="M71 245l15 76h146l20 -137l5 -69h14q14 46 23 69l208 512h92l-292 -716h-105l-45 265h-81z" />
    <glyph glyph-name="infinity" unicode="&#x221e;" horiz-adv-x="650" 
d="M537 316q-33 0 -57.5 -16.5t-59.5 -60.5l15 -31q22 -46 69 -46h6q33 2 55.5 28t22.5 74q0 27 -14.5 39.5t-36.5 12.5zM204 162q47 -1 93 50l24 27l-13 26q-26 50 -68 50q-14 0 -27 -4t-27.5 -14t-23.5 -31.5t-9 -52.5q0 -26 14.5 -38.5t36.5 -12.5zM553 398
q121 0 121 -109q0 -87 -46 -148t-136 -61q-52 0 -81.5 18.5t-51.5 69.5h-5q-41 -51 -78.5 -69.5t-87.5 -18.5q-121 0 -121 109q0 88 46.5 148.5t135.5 60.5q50 0 80.5 -19.5t52.5 -70.5h4q45 53 80 71.5t87 18.5z" />
    <glyph glyph-name="integral" unicode="&#x222b;" horiz-adv-x="233" 
d="M-78 -229l22 84q25 -3 46 -3q53 0 62 60l103 650q13 81 50.5 115t112.5 34l65 -7l-22 -84q-26 3 -47 3q-55 0 -64 -61l-104 -649q-13 -81 -50 -115t-110 -34z" />
    <glyph glyph-name="approxequal" unicode="&#x2248;" 
d="M494 208l-16 -84q-35 -22 -57 -31t-51 -9q-32 0 -97 40t-98 40q-44 0 -107 -40l16 84q35 22 57 31t51 9q32 0 97 -40t98 -40q44 0 107 40zM522 354l-15 -83q-35 -22 -57 -31t-51 -9q-33 0 -98 40t-97 40q-44 0 -107 -40l15 83q35 22 57 31t51 9q32 0 97 -40t98 -40
q44 0 107 40z" />
    <glyph glyph-name="notequal" unicode="&#x2260;" 
d="M494 207l-16 -84h-245l-78 -78h-102l77 78h-62l16 84h127l66 66h-180l16 82h246l78 79h101l-78 -79h63l-16 -82h-127l-66 -66h180z" />
    <glyph glyph-name="lessequal" unicode="&#x2264;" 
d="M469 83l-17 -83h-407l15 83h409zM489 195l-15 -83l-368 207l13 68l448 205l-19 -96l-313 -147l-1 -7z" />
    <glyph glyph-name="greaterequal" unicode="&#x2265;" 
d="M470 82l-16 -82h-408l15 82h409zM529 387l-13 -68l-449 -207l21 96l312 147l2 7l-256 147l15 82z" />
    <glyph glyph-name="lozenge" unicode="&#x25ca;" horiz-adv-x="529" 
d="M560 341l-256 -341h-55l-149 342l259 344h50zM309 149l151 199l-82 187l-7 28h-5q-7 -19 -14 -28l-151 -200l80 -186l7 -28h5q9 19 16 28z" />
    <glyph glyph-name="zero.tb" unicode="&#xf639;" 
d="M202 95q43 0 72 32q33 37 62 162.5t29 202.5q0 45 -15 67t-54 22q-43 0 -72 -33q-36 -40 -63 -167t-27 -198q0 -88 68 -88zM484 504q0 -67 -13 -150.5t-46 -173.5t-78 -132q-62 -58 -160 -58q-84 0 -127.5 47t-43.5 134q0 111 34.5 249.5t97.5 202.5q63 63 167 63
q84 0 126.5 -47t42.5 -135z" />
    <glyph glyph-name="two.tb" unicode="&#xf63a;" 
d="M393 105l-20 -105h-393l19 96l243 244q33 33 43 43.5t30.5 36t27 45.5t6.5 44q0 32 -21 51.5t-62 19.5q-54 0 -122 -35l-32 88q88 51 174 52q91 0 138 -47t47 -123q0 -64 -34.5 -121.5t-100.5 -120.5l-135 -129q-8 -8 -20.5 -17.5t-21.5 -14.5l-9 -6l3 -8q31 7 57 7h183z
" />
    <glyph glyph-name="three.tb" unicode="&#xf63b;" 
d="M415 236q0 -104 -63.5 -175t-180.5 -71q-24 0 -47.5 3t-41 7.5t-34 10t-26.5 10t-18.5 9t-9.5 4.5l36 92q62 -31 130 -31q62 0 99.5 36.5t37.5 101.5q0 39 -22.5 58t-73.5 19h-73l18 94h60q51 0 82 29t31 81q0 66 -73 66q-37 0 -107 -20l-20 90q76 34 157 35
q82 0 124.5 -40.5t42.5 -106.5q0 -115 -106 -166v-3q38 -16 58 -51.5t20 -81.5z" />
    <glyph glyph-name="four.tb" unicode="&#xf63c;" 
d="M331 516l-17 6q-28 -64 -58 -114l-109 -174h123l32 165zM469 234l-18 -94h-81l-27 -140h-118l27 140h-240l17 84l275 447h169l-84 -437h80z" />
    <glyph glyph-name="five.tb" unicode="&#xf63d;" 
d="M415 271q0 -54 -13.5 -102t-42 -89.5t-78 -66t-115.5 -24.5q-95 0 -155 31l32 94q15 -6 51.5 -12.5t63.5 -6.5q68 0 101 41.5t33 108.5q0 74 -87 74q-45 0 -95 -14l-38 25l96 341h275l-20 -105h-169l-41 -146q1 0 9 1t19 2t17 1q72 0 114.5 -39t42.5 -114z" />
    <glyph glyph-name="six.tb" unicode="&#xf63e;" 
d="M282 118q23 21 34 62t11 79q0 68 -61 68q-44 0 -92 -24q-19 -65 -19 -134q0 -74 61 -74q40 0 66 23zM450 281q0 -53 -13.5 -102t-41.5 -92.5t-78 -70t-115 -26.5q-80 0 -123 50t-43 144q0 109 48 224t135 184q94 75 229 94l7 -91q-186 -48 -245 -191q44 27 98 27
q66 0 104 -38.5t38 -111.5z" />
    <glyph glyph-name="seven.tb" unicode="&#xf63f;" 
d="M491 671l-14 -73l-284 -598h-132l291 566h-269l21 105h387z" />
    <glyph glyph-name="eight.tb" unicode="&#xf640;" 
d="M19 140q1 63 26 107.5t79 82.5l46 32l-8 7q-58 51 -58 120q0 84 58 140.5t160 56.5q77 0 120 -40.5t43 -105.5q0 -57 -25.5 -98t-80.5 -81l-25 -18l8 -7q39 -37 57 -69t18 -72q0 -85 -59 -145t-177 -60q-95 0 -138.5 42t-43.5 108zM273 272l-32 28l-38 -30
q-38 -30 -52 -55t-13 -62q0 -62 75 -62q48 0 76.5 28.5t28.5 75.5q0 38 -45 77zM308 583q-44 0 -67.5 -25.5t-23.5 -65.5q0 -13 5.5 -24.5t11 -17.5t19.5 -18l30 -27q50 35 69 59.5t19 64.5q0 54 -63 54z" />
    <glyph glyph-name="nine.tb" unicode="&#xf641;" 
d="M224 557q-23 -21 -34.5 -62t-11.5 -80q0 -67 62 -67q41 0 91 24q20 73 20 134q0 74 -63 74q-38 0 -64 -23zM56 396q0 41 8.5 81t27.5 78.5t47 67t71 46t95 17.5q79 0 122 -46.5t43 -130.5q0 -66 -12.5 -132t-43 -133t-76 -119.5t-116.5 -89.5t-159 -45l-13 91
q184 40 246 189q-47 -26 -99 -26q-64 0 -102.5 41t-38.5 111z" />
    <glyph glyph-name="zero.ot" unicode="&#xf643;" 
d="M295 124q30 28 46.5 81t16.5 104q0 96 -77 96q-44 0 -76 -32q-30 -29 -46 -80.5t-16 -101.5q0 -96 78 -96q42 0 74 29zM477 320q0 -78 -30 -155t-86 -123q-63 -52 -159 -52q-81 0 -130 50t-49 136q0 78 27.5 153.5t81.5 122.5q66 58 164 58q85 0 133 -50.5t48 -139.5z
" />
    <glyph glyph-name="one.ot" unicode="&#xf644;" 
d="M387 510l-79 -405h141l-21 -105h-402l20 105h144l51 261q2 10 -2.5 13.5t-14.5 0.5l-101 -26l-14 65l199 91h79z" />
    <glyph glyph-name="two.ot" unicode="&#xf645;" 
d="M403 105l-22 -105h-376l19 96l196 134q64 43 82 67q19 24 19 49q0 28 -21 43.5t-59 15.5q-46 0 -112 -28l-26 91q81 42 164 42q85 0 129.5 -43.5t44.5 -109.5q0 -60 -35 -103t-108 -89l-54 -34l-55 -24l3 -13q66 11 87 11h124z" />
    <glyph glyph-name="three.ot" unicode="&#xf646;" 
d="M399 67q0 -100 -63 -167.5t-180 -67.5q-29 0 -56.5 4t-48 10.5t-34.5 12.5t-25 12l-12 6l34 92q64 -32 131 -32q62 0 99 33t37 95q0 77 -96 77h-74l18 94h61q51 0 82 26t31 74q0 68 -75 68q-35 0 -107 -20l-19 90q94 36 162 36q79 0 120.5 -41.5t41.5 -104.5
q0 -57 -25 -96t-80 -64v-4q78 -32 78 -133z" />
    <glyph glyph-name="four.ot" unicode="&#xf647;" 
d="M319 363l-13 4q-31 -60 -48 -87l-116 -171h123l28 144zM464 109l-19 -95h-80l-33 -168h-118l32 168h-243l16 82l273 404h168l-77 -391h81z" />
    <glyph glyph-name="five.ot" unicode="&#xf648;" 
d="M416 110q0 -121 -63.5 -199.5t-185.5 -78.5q-92 0 -156 32l33 94q54 -21 115 -21q68 0 101 40t33 107q0 39 -21 57.5t-66 18.5q-37 0 -95 -14l-38 25l92 329h276l-20 -105h-170l-37 -134q22 4 42 4q73 0 116.5 -40t43.5 -115z" />
    <glyph glyph-name="six.ot" unicode="&#xf649;" 
d="M291 118q40 34 40 118q0 69 -61 69q-43 0 -91 -24q-15 -55 -15 -112q0 -75 61 -75q37 0 66 24zM455 258q0 -66 -24.5 -125t-82.5 -101t-139 -42q-77 0 -120.5 48.5t-43.5 137.5q2 107 43.5 212t123.5 171q99 80 241 98l7 -91q-88 -23 -150 -65.5t-95 -119.5q43 26 98 26
q66 0 104 -38t38 -111z" />
    <glyph glyph-name="seven.ot" unicode="&#xf64a;" 
d="M476 500l-14 -73l-298 -585h-132l301 553h-275l21 105h397z" />
    <glyph glyph-name="eight.ot" unicode="&#xf64b;" 
d="M36 137q0 63 34 110.5t111 97.5q-63 53 -63 122q0 73 57 128t158 55q73 0 119.5 -38t46.5 -98q0 -105 -128 -187q82 -74 82 -144q0 -32 -12 -63.5t-38 -61.5t-74.5 -49t-112.5 -19q-92 0 -136 43t-44 104zM288 258l-35 28l-37 -28q-61 -47 -61 -103q0 -29 19 -46.5
t57 -17.5q47 0 75 26.5t28 65.5q0 38 -46 75zM320 548q-43 0 -65.5 -22t-22.5 -56q0 -29 33 -57l33 -28q85 55 85 112q0 23 -16.5 37t-46.5 14z" />
    <glyph glyph-name="nine.ot" unicode="&#xf64c;" 
d="M217 380q-20 -18 -31.5 -55t-11.5 -72q0 -68 61 -68q42 0 92 25q17 61 17 120q0 75 -61 75q-40 0 -66 -25zM52 234q0 50 14.5 97.5t42.5 88t77 65.5t112 25q77 0 121 -46.5t44 -130.5q0 -106 -38 -214.5t-117 -181.5q-93 -87 -250 -105l-12 92q115 25 179 81
q20 17 37.5 42t25.5 41l7 17l-2 5q-54 -27 -100 -27q-64 0 -102.5 41t-38.5 110z" />
    <glyph glyph-name="zero.denominator" unicode="&#xf655;" horiz-adv-x="316" 
d="M211 78q17 16 29 66.5t12 84.5q0 42 -37 42q-23 0 -36 -15q-14 -15 -26.5 -66t-12.5 -84q0 -40 36 -40q22 0 35 12zM331 240q0 -54 -18 -117.5t-51 -93.5q-38 -33 -100 -33q-49 0 -75.5 25.5t-26.5 73.5q0 53 18 115.5t49 93.5q37 37 102 37q102 0 102 -101z" />
    <glyph glyph-name="one.denominator" unicode="&#xf656;" horiz-adv-x="200" 
d="M223 337l-65 -337h-79l49 255q1 5 -1.5 7t-8.5 1l-37 -8l-7 40l91 42h58z" />
    <glyph glyph-name="two.denominator" unicode="&#xf657;" horiz-adv-x="264" 
d="M254 71l-14 -71h-214l13 69l122 113q42 38 42 61q0 28 -36 28q-32 0 -71 -16l-8 62q55 24 98 24q49 0 73 -25.5t24 -63.5q0 -32 -17 -59.5t-51 -59.5l-49 -44l-24 -17l2 -6q17 5 27 5h83z" />
    <glyph glyph-name="three.denominator" unicode="&#xf658;" horiz-adv-x="249" 
d="M210 183l-1 -3q42 -17 42 -66q0 -55 -38.5 -86.5t-98.5 -31.5q-47 0 -92 18l25 63q1 0 10.5 -2.5t24.5 -5t30 -2.5q60 0 60 45q0 29 -38 29h-51l13 67h43q19 0 31 10t12 26q0 25 -34 25q-31 0 -53 -8l-7 63q48 16 85 16q91 0 91 -72q0 -59 -54 -85z" />
    <glyph glyph-name="four.denominator" unicode="&#xf659;" horiz-adv-x="293" 
d="M218 252l-14 4q-20 -46 -29 -59l-49 -75h65l14 73zM306 122l-12 -61h-36l-12 -61h-79l12 61h-142l10 52l148 223h116l-42 -214h37z" />
    <glyph glyph-name="five.denominator" unicode="&#xf65a;" horiz-adv-x="247" 
d="M257 137q0 -58 -35.5 -99.5t-101.5 -41.5q-48 0 -85 16l24 64q50 -9 56 -9q30 0 44 15.5t14 34.5q0 29 -40 29q-16 0 -46 -6l-25 17l54 180h154l-14 -71h-89l-16 -51q14 2 22 2q84 0 84 -80z" />
    <glyph glyph-name="six.denominator" unicode="&#xf65b;" horiz-adv-x="287" 
d="M166 65q23 0 36.5 17.5t13.5 40.5q0 28 -32 28q-11 0 -22 -2.5t-16 -4.5l-6 -2q-8 -20 -8 -45q0 -32 34 -32zM295 136q0 -57 -37.5 -98.5t-103.5 -41.5q-47 0 -73.5 23.5t-26.5 70.5q0 97 62.5 168t173.5 83q2 -40 2 -61q-94 -21 -128 -73v-1q32 8 51 8q80 0 80 -78z" />
    <glyph glyph-name="seven.denominator" unicode="&#xf65c;" horiz-adv-x="210" 
d="M263 337l-11 -61l-143 -276h-88l144 258v8h-106l13 71h191z" />
    <glyph glyph-name="eight.denominator" unicode="&#xf65d;" horiz-adv-x="277" 
d="M281 100q0 -48 -34 -76t-97 -28q-53 0 -79 22.5t-26 56.5q0 65 71 101v2q1 2 1 3q-30 25 -30 62q0 42 33.5 70t89.5 28q47 0 71 -20.5t24 -53.5q0 -56 -63 -92q0 -1 -0.5 -3l-0.5 -2q40 -27 40 -70zM158 58q20 0 32.5 11.5t12.5 29.5q0 16 -19 30l-17 13l-18 -14
q-24 -19 -24 -43q0 -12 9 -19.5t24 -7.5zM201 278q-17 0 -28 -9.5t-11 -24.5q0 -16 14 -25l16 -12q12 5 24 19.5t12 28.5q0 23 -27 23z" />
    <glyph glyph-name="nine.denominator" unicode="&#xf65e;" horiz-adv-x="285" 
d="M194 272q-23 0 -37 -17.5t-14 -40.5q0 -29 31 -29q10 0 21.5 2.5t17.5 4.5l6 3q7 22 7 45q0 32 -32 32zM63 201q0 57 37.5 98.5t103.5 41.5q46 0 73 -25.5t27 -72.5q0 -98 -61 -167t-175 -80q0 20 -2 60q91 18 129 73v2q-24 -9 -52 -9q-39 0 -59.5 21t-20.5 58z" />
    <glyph glyph-name="zero.numerator" unicode="&#xf661;" horiz-adv-x="316" 
d="M266 417q17 16 29 66.5t12 84.5q0 42 -37 42q-22 0 -36 -15t-26.5 -66t-12.5 -84q0 -40 36 -40q22 0 35 12zM386 579q0 -54 -18 -117.5t-51 -93.5q-37 -33 -100 -33q-49 0 -75.5 25.5t-26.5 73.5q0 53 18 115.5t49 93.5q37 37 102 37q102 0 102 -101z" />
    <glyph glyph-name="one.numerator" unicode="&#xf662;" horiz-adv-x="200" 
d="M278 676l-65 -337h-79l49 255q1 5 -1.5 7t-8.5 1l-37 -8l-7 40l91 42h58z" />
    <glyph glyph-name="two.numerator" unicode="&#xf663;" horiz-adv-x="264" 
d="M309 410l-14 -71h-214l13 69l122 113q42 38 42 61q0 28 -36 28q-32 0 -71 -16l-8 62q55 24 98 24q49 0 73 -25.5t24 -63.5q0 -32 -17 -59.5t-51 -59.5l-49 -44l-24 -17l2 -6q17 5 27 5h83z" />
    <glyph glyph-name="three.numerator" unicode="&#xf664;" horiz-adv-x="249" 
d="M265 522l-1 -3q42 -17 42 -66q0 -55 -38.5 -86.5t-98.5 -31.5q-47 0 -92 18l25 63q1 0 10.5 -2.5t24.5 -5t30 -2.5q60 0 60 45q0 29 -38 29h-51l13 67h43q19 0 31 10t12 26q0 25 -34 25q-31 0 -53 -8l-7 63q48 16 85 16q91 0 91 -72q0 -59 -54 -85z" />
    <glyph glyph-name="four.numerator" unicode="&#xf665;" horiz-adv-x="293" 
d="M273 591l-14 4q-20 -46 -29 -59l-49 -75h65l14 73zM361 461l-12 -61h-36l-12 -61h-79l12 61h-142l10 52l148 223h116l-42 -214h37z" />
    <glyph glyph-name="five.numerator" unicode="&#xf666;" horiz-adv-x="247" 
d="M312 476q0 -58 -35.5 -99.5t-101.5 -41.5q-48 0 -85 16l24 64q50 -9 56 -9q30 0 44 15.5t14 34.5q0 29 -40 29q-16 0 -46 -6l-25 17l54 180h154l-14 -71h-89l-16 -51q14 2 22 2q84 0 84 -80z" />
    <glyph glyph-name="six.numerator" unicode="&#xf667;" horiz-adv-x="287" 
d="M221 404q23 0 36.5 17.5t13.5 40.5q0 28 -32 28q-11 0 -22 -2t-17 -4l-5 -3q-8 -20 -8 -45q0 -32 34 -32zM350 475q0 -57 -37.5 -98.5t-103.5 -41.5q-47 0 -73.5 23.5t-26.5 70.5q0 97 62.5 168t173.5 83q2 -40 2 -61q-94 -21 -128 -73v-1q32 8 51 8q80 0 80 -78z" />
    <glyph glyph-name="seven.numerator" unicode="&#xf668;" horiz-adv-x="210" 
d="M318 676l-11 -61l-143 -276h-88l144 258v8h-106l13 71h191z" />
    <glyph glyph-name="eight.numerator" unicode="&#xf669;" horiz-adv-x="277" 
d="M336 439q0 -48 -34 -76t-97 -28q-53 0 -79 22.5t-26 56.5q0 65 71 101q0 1 0.5 3l0.5 2q-30 25 -30 62q0 42 33.5 70t89.5 28q47 0 71 -20.5t24 -53.5q0 -56 -63 -92l-1 -2v-3q40 -27 40 -70zM213 397q20 0 32.5 11.5t12.5 29.5q0 16 -19 30l-17 13l-18 -14
q-24 -19 -24 -43q0 -12 9 -19.5t24 -7.5zM256 617q-17 0 -28 -9.5t-11 -24.5q0 -16 14 -25l16 -12q12 5 24 19.5t12 28.5q0 23 -27 23z" />
    <glyph glyph-name="nine.numerator" unicode="&#xf66a;" horiz-adv-x="285" 
d="M249 611q-23 0 -37 -17.5t-14 -40.5q0 -29 31 -29q10 0 21.5 2.5t17.5 5.5l6 2q7 22 7 45q0 32 -32 32zM118 540q0 57 37.5 98.5t103.5 41.5q46 0 73 -25.5t27 -72.5q0 -98 -61 -167t-175 -80q0 20 -2 60q91 18 129 73v2q-24 -9 -52 -9q-39 0 -59.5 21t-20.5 58z" />
    <glyph glyph-name="Abreve.sc" unicode="&#xf66d;" horiz-adv-x="511" 
d="M383 0l-14 106h-179l-52 -106h-127l252 520h169l68 -520h-117zM303 339l-67 -137h121l-18 135l-3 63h-10q-14 -43 -23 -61zM447 701h61q-11 -61 -53 -101.5t-107 -40.5q-66 0 -95.5 41t-19.5 101h60q-1 -26 15 -45t51 -19q34 0 57 19t31 45z" />
    <glyph glyph-name="Amacron.sc" unicode="&#xf66e;" horiz-adv-x="511" 
d="M383 0l-14 106h-179l-52 -106h-127l252 520h169l68 -520h-117zM303 339l-67 -137h121l-18 135l-3 63h-10q-14 -43 -23 -61zM490 660l-16 -80h-249l15 80h250z" />
    <glyph glyph-name="Aogonek.sc" unicode="&#xf66f;" horiz-adv-x="511" 
d="M383 0l-14 106h-179l-52 -106h-127l252 520h169l68 -520q-93 -70 -93 -120q0 -34 46 -34l37 3l2 -53q-33 -12 -78 -12q-53 0 -81 19.5t-28 55.5q0 43 32.5 79t74.5 59v3h-29zM303 339l-67 -137h121l-18 135l-3 63h-10q-14 -43 -23 -61z" />
    <glyph glyph-name="Cacute.sc" unicode="&#xf671;" horiz-adv-x="417" 
d="M405 108l10 -89q-61 -29 -142 -29q-92 0 -142.5 45.5t-50.5 135.5q0 84 32.5 175t91.5 136q64 48 167 48q58 0 111 -19l-30 -92q-39 10 -79 10q-61 0 -97 -29q-35 -29 -54.5 -91t-19.5 -118q0 -51 23.5 -75.5t76.5 -24.5q54 0 103 17zM530 674q0 -14 -9.5 -23t-34.5 -24
l-106 -64h-62l83 101q20 24 38.5 32t50.5 8q40 0 40 -30z" />
    <glyph glyph-name="Ccaron.sc" unicode="&#xf672;" horiz-adv-x="417" 
d="M405 108l10 -89q-61 -29 -142 -29q-92 0 -142.5 45.5t-50.5 135.5q0 84 32.5 175t91.5 136q64 48 167 48q58 0 111 -19l-30 -92q-39 10 -79 10q-61 0 -97 -29q-35 -29 -54.5 -91t-19.5 -118q0 -51 23.5 -75.5t76.5 -24.5q54 0 103 17zM335 561l-102 106l35 40l101 -55h9
l116 55l26 -40l-140 -106h-45z" />
    <glyph glyph-name="Ccircumflex.sc" unicode="&#xf673;" horiz-adv-x="417" 
d="M405 108l10 -89q-61 -29 -142 -29q-92 0 -142.5 45.5t-50.5 135.5q0 84 32.5 175t91.5 136q64 48 167 48q58 0 111 -19l-30 -92q-39 10 -79 10q-61 0 -97 -29q-35 -29 -54.5 -91t-19.5 -118q0 -51 23.5 -75.5t76.5 -24.5q54 0 103 17zM405 707l101 -107l-34 -40l-102 55
h-9l-116 -55l-26 40l140 107h46z" />
    <glyph glyph-name="Cdotaccent.sc" unicode="&#xf674;" horiz-adv-x="417" 
d="M405 108l10 -89q-61 -29 -142 -29q-92 0 -142.5 45.5t-50.5 135.5q0 84 32.5 175t91.5 136q64 48 167 48q58 0 111 -19l-30 -92q-39 10 -79 10q-61 0 -97 -29q-35 -29 -54.5 -91t-19.5 -118q0 -51 23.5 -75.5t76.5 -24.5q54 0 103 17zM430 656q0 -32 -18 -50.5t-47 -18.5
q-28 0 -46.5 18.5t-18.5 50.5q0 33 18.5 51.5t46.5 18.5q29 0 47 -18.5t18 -51.5z" />
    <glyph glyph-name="Dcaron.sc" unicode="&#xf675;" horiz-adv-x="520" 
d="M358 127q29 28 45 87t16 111q0 94 -98 94h-60l-63 -318h84q50 0 76 26zM539 333q0 -85 -25 -164t-79 -123q-57 -46 -165 -46h-210l101 520h179q94 0 146.5 -47.5t52.5 -139.5zM303 561l-102 106l35 40l101 -55h9l116 55l26 -40l-140 -106h-45z" />
    <glyph glyph-name="Dmacron.sc" unicode="&#xf676;" horiz-adv-x="520" 
d="M49 219l16 87h54l42 214h179q94 0 146.5 -47.5t52.5 -139.5q0 -85 -25 -164t-79 -123q-57 -46 -165 -46h-210l43 219h-54zM358 127q29 28 45 87t16 111q0 94 -98 94h-60l-23 -113h86l-17 -87h-86l-23 -118h84q50 0 76 26z" />
    <glyph glyph-name="Ebreve.sc" unicode="&#xf677;" horiz-adv-x="408" 
d="M416 96l-19 -96h-337l101 520h317l-19 -96h-198l-22 -111h127l-17 -87h-126l-26 -130h219zM422 700h61q-11 -61 -53 -101.5t-107 -40.5q-66 0 -95.5 41t-19.5 101h60q-1 -26 15 -45t51 -19q34 0 57 19t31 45z" />
    <glyph glyph-name="Ecaron.sc" unicode="&#xf678;" horiz-adv-x="408" 
d="M416 96l-19 -96h-337l101 520h317l-19 -96h-198l-22 -111h127l-17 -87h-126l-26 -130h219zM302 561l-102 106l35 40l101 -55h9l116 55l26 -40l-140 -106h-45z" />
    <glyph glyph-name="Edotaccent.sc" unicode="&#xf679;" horiz-adv-x="408" 
d="M416 96l-19 -96h-337l101 520h317l-19 -96h-198l-22 -111h127l-17 -87h-126l-26 -130h219zM396 656q0 -32 -18 -50.5t-47 -18.5q-28 0 -46.5 18.5t-18.5 50.5q0 33 18.5 51.5t46.5 18.5q29 0 47 -18.5t18 -51.5z" />
    <glyph glyph-name="Emacron.sc" unicode="&#xf67a;" horiz-adv-x="408" 
d="M416 96l-19 -96h-337l101 520h317l-19 -96h-198l-22 -111h127l-17 -87h-126l-26 -130h219zM466 659l-16 -80h-249l15 80h250z" />
    <glyph glyph-name="Eogonek.sc" unicode="&#xf67c;" horiz-adv-x="408" 
d="M416 96l-19 -96q-93 -68 -93 -120q0 -34 46 -34l37 3l2 -53q-33 -12 -78 -12q-53 0 -81 19.5t-28 55.5q0 43 33.5 80t74.5 59v2h-250l101 520h317l-19 -96h-198l-22 -111h127l-17 -87h-126l-26 -130h219z" />
    <glyph glyph-name="Gbreve.sc" unicode="&#xf67d;" horiz-adv-x="522" 
d="M483 705h61q-11 -61 -53 -101.5t-107 -40.5q-66 0 -95.5 41t-19.5 101h60q-1 -26 15 -45t51 -19q34 0 57 19t31 45zM304 91q43 0 81 18l19 99h-88l17 87h206l-49 -253q-92 -52 -200 -52q-98 0 -154 46.5t-56 141.5q0 80 32 168t94 133q71 52 180 52q81 0 154 -29l-33 -93
q-60 20 -119 20q-77 0 -116 -35q-34 -30 -53 -90.5t-19 -112.5q0 -100 104 -100z" />
    <glyph glyph-name="Gcircumflex.sc" unicode="&#xf67e;" horiz-adv-x="522" 
d="M304 91q43 0 81 18l19 99h-88l17 87h206l-49 -253q-92 -52 -200 -52q-98 0 -154 46.5t-56 141.5q0 80 32 168t94 133q71 52 180 52q81 0 154 -29l-33 -93q-60 20 -119 20q-77 0 -116 -35q-34 -30 -53 -90.5t-19 -112.5q0 -100 104 -100zM424 707l101 -107l-34 -40
l-102 55h-9l-116 -55l-26 40l140 107h46z" />
    <glyph glyph-name="Gcommaaccent.sc" unicode="&#xf67f;" horiz-adv-x="522" 
d="M304 91q43 0 81 18l19 99h-88l17 87h206l-49 -253q-92 -52 -200 -52q-98 0 -154 46.5t-56 141.5q0 80 32 168t94 133q71 52 180 52q81 0 154 -29l-33 -93q-60 20 -119 20q-77 0 -116 -35q-34 -30 -53 -90.5t-19 -112.5q0 -100 104 -100zM345 -115q0 -33 -42 -109l-50 -89
l-48 9l41 121v4q-41 17 -41 64q0 33 20 51.5t50 18.5q31 0 50.5 -18.5t19.5 -51.5z" />
    <glyph glyph-name="Gdotaccent.sc" unicode="&#xf680;" horiz-adv-x="522" 
d="M304 91q43 0 81 18l19 99h-88l17 87h206l-49 -253q-92 -52 -200 -52q-98 0 -154 46.5t-56 141.5q0 80 32 168t94 133q71 52 180 52q81 0 154 -29l-33 -93q-60 20 -119 20q-77 0 -116 -35q-34 -30 -53 -90.5t-19 -112.5q0 -100 104 -100zM452 656q0 -32 -18 -50.5
t-47 -18.5q-28 0 -46.5 18.5t-18.5 50.5q0 33 18.5 51.5t46.5 18.5q29 0 47 -18.5t18 -51.5z" />
    <glyph glyph-name="Hcircumflex.sc" unicode="&#xf682;" horiz-adv-x="566" 
d="M605 520l-101 -520h-118l43 222h-207l-43 -222h-119l101 520h119l-40 -202h207l40 202h118zM435 707l101 -107l-34 -40l-102 55h-9l-116 -55l-26 40l140 107h46z" />
    <glyph glyph-name="Imacron.sc" unicode="&#xf685;" horiz-adv-x="240" 
d="M279 520l-101 -520h-118l101 520h118zM367 659l-16 -80h-249l15 80h250z" />
    <glyph glyph-name="Iogonek.sc" unicode="&#xf686;" horiz-adv-x="240" 
d="M168 -151l2 -53q-33 -12 -78 -12q-53 0 -81 19.5t-28 55.5q0 43 33 79.5t75 59.5v2h-31l101 520h118l-101 -520q-93 -68 -93 -120q0 -34 46 -34z" />
    <glyph glyph-name="Jcircumflex.sc" unicode="&#xf688;" horiz-adv-x="268" 
d="M311 520l-66 -339q-21 -106 -73 -148.5t-170 -42.5q6 39 19 100q50 0 73.5 22.5t34.5 80.5l63 327h119zM299 699l101 -107l-34 -40l-102 55h-9l-116 -55l-26 40l140 107h46z" />
    <glyph glyph-name="Kcommaaccent.sc" unicode="&#xf689;" horiz-adv-x="508" 
d="M367 262l138 -262h-129l-122 231h-31l-45 -231h-118l101 520h118l-42 -215h27l180 215h142zM335 -115q0 -33 -42 -109l-50 -89l-48 9l41 121v4q-41 17 -41 64q0 33 20 51.5t50 18.5q31 0 50.5 -18.5t19.5 -51.5z" />
    <glyph glyph-name="Lacute.sc" unicode="&#xf68a;" horiz-adv-x="368" 
d="M377 96l-19 -96h-298l101 520h119l-83 -424h180zM392 674q0 -14 -9.5 -23t-34.5 -24l-106 -64h-62l83 101q20 24 38.5 32t50.5 8q40 0 40 -30z" />
    <glyph glyph-name="Lcaron.sc" unicode="&#xf68b;" horiz-adv-x="388" 
d="M377 96l-19 -96h-298l101 520h119l-83 -424h180zM462 467q0 -33 -38 -107l-42 -81l-43 6l34 117v2q-44 15 -44 63q0 31 18.5 48.5t47.5 17.5t48 -17.5t19 -48.5z" />
    <glyph glyph-name="Lcommaaccent.sc" unicode="&#xf68c;" horiz-adv-x="368" 
d="M377 96l-19 -96h-298l101 520h119l-83 -424h180zM284 -115q0 -33 -42 -109l-50 -89l-48 9l41 121v4q-41 17 -41 64q0 33 20 51.5t50 18.5q31 0 50.5 -18.5t19.5 -51.5z" />
    <glyph glyph-name="Ldot.sc" unicode="&#xf68d;" horiz-adv-x="368" 
d="M376 96q-7 -32 -19 -96h-297l101 520h118l-83 -424h180zM409 281q0 -26 -19 -45.5t-46 -19.5t-46.5 19.5t-19.5 45.5q0 28 19.5 47.5t46.5 19.5t46 -19.5t19 -47.5z" />
    <glyph glyph-name="Nacute.sc" unicode="&#xf68e;" horiz-adv-x="596" 
d="M635 520l-101 -520h-150l-108 284q-6 15 -12 37.5t-9 36.5l-3 15l-11 -1q-2 -60 -8 -92l-55 -280h-118l101 520h145l114 -303l19 -74l10 1q3 47 9 79l59 297h118zM594 674q0 -14 -9.5 -23t-34.5 -24l-106 -64h-62l83 101q20 24 38.5 32t50.5 8q40 0 40 -30z" />
    <glyph glyph-name="Ncaron.sc" unicode="&#xf68f;" horiz-adv-x="596" 
d="M635 520l-101 -520h-150l-108 284q-6 15 -12 37.5t-9 36.5l-3 15l-11 -1q-2 -60 -8 -92l-55 -280h-118l101 520h145l114 -303l19 -74l10 1q3 47 9 79l59 297h118zM390 561l-102 106l35 40l101 -55h9l116 55l26 -40l-140 -106h-45z" />
    <glyph glyph-name="Ncommaaccent.sc" unicode="&#xf690;" horiz-adv-x="596" 
d="M635 520l-101 -520h-150l-108 284q-6 15 -12 37.5t-9 36.5l-3 15l-11 -1q-2 -60 -8 -92l-55 -280h-118l101 520h145l114 -303l19 -74l10 1q3 47 9 79l59 297h118zM351 -115q0 -33 -42 -109l-50 -89l-48 9l41 121v4q-41 17 -41 64q0 33 20 51.5t50 18.5q31 0 50.5 -18.5
t19.5 -51.5z" />
    <glyph glyph-name="Obreve.sc" unicode="&#xf691;" horiz-adv-x="554" 
d="M381 120q33 27 52.5 90.5t19.5 118.5q0 100 -92 100q-52 0 -85 -28q-34 -29 -54.5 -93.5t-20.5 -118.5q0 -98 94 -98q50 0 86 29zM573 340q0 -82 -33.5 -171.5t-93.5 -130.5q-71 -48 -172 -48q-91 0 -142.5 47.5t-51.5 141.5q0 80 32.5 168t90.5 131q69 52 174 52
q92 0 144 -49t52 -141zM485 701h61q-11 -61 -53 -101.5t-107 -40.5q-66 0 -95.5 41t-19.5 101h60q-1 -26 15 -45t51 -19q34 0 57 19t31 45z" />
    <glyph glyph-name="Ohungarumlaut.sc" unicode="&#xf692;" horiz-adv-x="554" 
d="M381 120q33 27 52.5 90.5t19.5 118.5q0 100 -92 100q-52 0 -85 -28q-34 -29 -54.5 -93.5t-20.5 -118.5q0 -98 94 -98q50 0 86 29zM573 340q0 -82 -33.5 -171.5t-93.5 -130.5q-71 -48 -172 -48q-91 0 -142.5 47.5t-51.5 141.5q0 80 32.5 168t90.5 131q69 52 174 52
q92 0 144 -49t52 -141zM472 672q0 -24 -39 -46l-111 -64h-49l87 105q30 36 77 36q35 0 35 -31zM634 672q0 -24 -39 -46l-111 -64h-49l87 105q30 36 77 36q35 0 35 -31z" />
    <glyph glyph-name="Omacron.sc" unicode="&#xf693;" horiz-adv-x="554" 
d="M381 120q33 27 52.5 90.5t19.5 118.5q0 100 -92 100q-52 0 -85 -28q-34 -29 -54.5 -93.5t-20.5 -118.5q0 -98 94 -98q50 0 86 29zM573 340q0 -82 -33.5 -171.5t-93.5 -130.5q-71 -48 -172 -48q-91 0 -142.5 47.5t-51.5 141.5q0 80 32.5 168t90.5 131q69 52 174 52
q92 0 144 -49t52 -141zM521 659l-16 -80h-249l15 80h250z" />
    <glyph glyph-name="Oslashacute.sc" unicode="&#xf694;" horiz-adv-x="554" 
d="M572 674q0 -14 -9.5 -23t-34.5 -24l-106 -64h-62l83 101q20 24 38.5 32t50.5 8q40 0 40 -30zM573 340q0 -82 -33.5 -171.5t-93.5 -130.5q-71 -48 -172 -48q-75 0 -122 31l-43 -46l-50 46l46 50q-25 44 -25 108q0 80 32.5 168t90.5 131q69 52 174 52q75 0 123 -33l44 48
l51 -47l-48 -51q26 -47 26 -107zM383 120q33 27 52.5 90.5t19.5 118.5l-1 18l-221 -240q22 -16 62 -16q52 0 88 29zM199 189q0 -12 1 -17l221 241q-24 16 -60 16q-54 0 -87 -28q-34 -29 -54.5 -93.5t-20.5 -118.5z" />
    <glyph glyph-name="Racute.sc" unicode="&#xf695;" horiz-adv-x="480" 
d="M232 274h69q40 0 61.5 24.5t21.5 66.5q0 54 -57 54h-67zM376 197l94 -197h-127l-88 187h-41l-36 -187h-118l101 520h195q72 0 110.5 -36.5t38.5 -100.5q0 -143 -129 -184v-2zM490 674q0 -14 -9.5 -23t-34.5 -24l-106 -64h-62l83 101q20 24 38.5 32t50.5 8q40 0 40 -30z
" />
    <glyph glyph-name="Rcaron.sc" unicode="&#xf696;" horiz-adv-x="480" 
d="M232 274h69q40 0 61.5 24.5t21.5 66.5q0 54 -57 54h-67zM376 197l94 -197h-127l-88 187h-41l-36 -187h-118l101 520h195q72 0 110.5 -36.5t38.5 -100.5q0 -143 -129 -184v-2zM294 561l-102 106l35 40l101 -55h9l116 55l26 -40l-140 -106h-45z" />
    <glyph glyph-name="Rcommaaccent.sc" unicode="&#xf697;" horiz-adv-x="480" 
d="M232 274h69q40 0 61.5 24.5t21.5 66.5q0 54 -57 54h-67zM376 197l94 -197h-127l-88 187h-41l-36 -187h-118l101 520h195q72 0 110.5 -36.5t38.5 -100.5q0 -143 -129 -184v-2zM326 -115q0 -33 -42 -109l-50 -89l-48 9l41 121v4q-41 17 -41 64q0 33 20 51.5t50 18.5
q31 0 50.5 -18.5t19.5 -51.5z" />
    <glyph glyph-name="Sacute.sc" unicode="&#xf698;" horiz-adv-x="427" 
d="M425 162q0 -76 -50.5 -124t-146.5 -48q-50 0 -102.5 13.5t-85.5 33.5l37 91q71 -37 143 -37q86 0 86 63q0 33 -40 53l-59 29q-94 46 -94 123q0 80 55 125.5t144 45.5q78 0 148 -38l-42 -91q-56 28 -105 28q-38 0 -59 -16.5t-21 -44.5q0 -30 34 -46l65 -30q93 -43 93 -130
zM495 675q0 -14 -9.5 -23t-34.5 -24l-106 -64h-62l83 101q20 24 38.5 32t50.5 8q40 0 40 -30z" />
    <glyph glyph-name="Scedilla.sc" unicode="&#xf699;" horiz-adv-x="427" 
d="M322 -112q0 -50 -33 -77t-96 -27q-23 0 -49 3t-40 6l-14 3l14 49q51 -7 77 -7q53 0 53 42q0 25 -40 25h-57l34 89q-78 11 -131 43l37 91q71 -37 143 -37q86 0 86 63q0 33 -40 53l-59 29q-94 46 -94 123q0 80 55 125.5t144 45.5q78 0 148 -38l-42 -91q-56 28 -105 28
q-38 0 -59 -16.5t-21 -44.5q0 -30 34 -46l65 -30q93 -43 93 -130q0 -74 -48 -121.5t-139 -50.5l-13 -39h14q83 0 83 -63z" />
    <glyph glyph-name="Scircumflex.sc" unicode="&#xf69a;" horiz-adv-x="427" 
d="M425 162q0 -76 -50.5 -124t-146.5 -48q-50 0 -102.5 13.5t-85.5 33.5l37 91q71 -37 143 -37q86 0 86 63q0 33 -40 53l-59 29q-94 46 -94 123q0 80 55 125.5t144 45.5q78 0 148 -38l-42 -91q-56 28 -105 28q-38 0 -59 -16.5t-21 -44.5q0 -30 34 -46l65 -30q93 -43 93 -130
zM357 707l101 -107l-34 -40l-102 55h-9l-116 -55l-26 40l140 107h46z" />
    <glyph glyph-name="Scommaaccent.sc" unicode="&#xf69b;" horiz-adv-x="427" 
d="M425 162q0 -76 -50.5 -124t-146.5 -48q-50 0 -102.5 13.5t-85.5 33.5l37 91q71 -37 143 -37q86 0 86 63q0 33 -40 53l-59 29q-94 46 -94 123q0 80 55 125.5t144 45.5q78 0 148 -38l-42 -91q-56 28 -105 28q-38 0 -59 -16.5t-21 -44.5q0 -30 34 -46l65 -30q93 -43 93 -130
zM302 -115q0 -33 -42 -109l-50 -89l-48 9l41 121v4q-41 17 -41 64q0 33 20 51.5t50 18.5q31 0 50.5 -18.5t19.5 -51.5z" />
    <glyph glyph-name="Tcaron.sc" unicode="&#xf69d;" horiz-adv-x="408" 
d="M503 520l-19 -96h-136l-82 -424h-118l82 424h-136l19 96h390zM280 561l-102 106l35 40l101 -55h9l116 55l26 -40l-140 -106h-45z" />
    <glyph glyph-name="Tcommaaccent.sc" unicode="&#xf69e;" horiz-adv-x="408" 
d="M503 520l-19 -96h-136l-82 -424h-118l82 424h-136l19 96h390zM267 -115q0 -33 -42 -109l-50 -89l-48 9l41 121v4q-41 17 -41 64q0 33 20 51.5t50 18.5q31 0 50.5 -18.5t19.5 -51.5z" />
    <glyph glyph-name="Ubreve.sc" unicode="&#xf69f;" horiz-adv-x="528" 
d="M571 520l-67 -345q-17 -89 -78.5 -137t-160.5 -48q-84 0 -130.5 38.5t-46.5 105.5q0 34 12 99l55 287h119l-60 -305q-8 -42 -8 -61q0 -31 20.5 -47t54.5 -16q88 0 107 99l64 330h119zM469 701h61q-11 -61 -53 -101.5t-107 -40.5q-66 0 -95.5 41t-19.5 101h60
q-1 -26 15 -45t51 -19q34 0 57 19t31 45z" />
    <glyph glyph-name="Uhungarumlaut.sc" unicode="&#xf6a0;" horiz-adv-x="528" 
d="M571 520l-67 -345q-17 -89 -78.5 -137t-160.5 -48q-84 0 -130.5 38.5t-46.5 105.5q0 34 12 99l55 287h119l-60 -305q-8 -42 -8 -61q0 -31 20.5 -47t54.5 -16q88 0 107 99l64 330h119zM448 673q0 -24 -39 -46l-111 -64h-49l87 105q30 36 77 36q35 0 35 -31zM610 673
q0 -24 -39 -46l-111 -64h-49l87 105q30 36 77 36q35 0 35 -31z" />
    <glyph glyph-name="Umacron.sc" unicode="&#xf6a1;" horiz-adv-x="528" 
d="M571 520l-67 -345q-17 -89 -78.5 -137t-160.5 -48q-84 0 -130.5 38.5t-46.5 105.5q0 34 12 99l55 287h119l-60 -305q-8 -42 -8 -61q0 -31 20.5 -47t54.5 -16q88 0 107 99l64 330h119zM506 659l-16 -80h-249l15 80h250z" />
    <glyph glyph-name="Uogonek.sc" unicode="&#xf6a2;" horiz-adv-x="528" 
d="M571 520l-67 -345q-26 -132 -146 -172q-92 -67 -92 -123q0 -34 46 -34l37 3l2 -53q-33 -12 -78 -12q-53 0 -81 19.5t-28 55.5q0 38 26.5 72t63.5 57v2q-79 3 -122.5 41t-43.5 103q0 34 12 99l55 287h119l-60 -305q-8 -42 -8 -61q0 -31 20.5 -47t54.5 -16q88 0 107 99
l64 330h119z" />
    <glyph glyph-name="Uring.sc" unicode="&#xf6a3;" horiz-adv-x="528" 
d="M571 520l-67 -345q-17 -89 -78.5 -137t-160.5 -48q-84 0 -130.5 38.5t-46.5 105.5q0 34 12 99l55 287h119l-60 -305q-8 -42 -8 -61q0 -31 20.5 -47t54.5 -16q88 0 107 99l64 330h119zM422 664q0 21 -14.5 36t-35.5 15q-22 0 -36.5 -15t-14.5 -36t14.5 -35.5t36.5 -14.5
t36 14.5t14 35.5zM482 664q0 -45 -30 -74t-80 -29t-80.5 29t-30.5 74t30.5 74.5t80.5 29.5q49 0 79.5 -29.5t30.5 -74.5z" />
    <glyph glyph-name="Utilde.sc" unicode="&#xf6a4;" horiz-adv-x="528" 
d="M571 520l-67 -345q-17 -89 -78.5 -137t-160.5 -48q-84 0 -130.5 38.5t-46.5 105.5q0 34 12 99l55 287h119l-60 -305q-8 -42 -8 -61q0 -31 20.5 -47t54.5 -16q88 0 107 99l64 330h119zM494 687l42 -16q-5 -17 -10 -29.5t-16.5 -30t-30.5 -27t-45 -9.5q-17 0 -61.5 12.5
t-60.5 12.5q-29 0 -48 -29l-41 16q24 96 101 96q18 0 62 -12.5t60 -12.5q29 0 48 29z" />
    <glyph glyph-name="Wacute.sc" unicode="&#xf6a5;" horiz-adv-x="766" 
d="M558 120h10q11 46 24 76l135 324h123l-215 -520h-165l-22 264l-1 69h-9q-12 -45 -23 -69l-119 -264h-163l-24 520h116l14 -309l-2 -91h11q15 52 26 76l128 284h132l22 -269zM641 674q0 -14 -9.5 -23t-34.5 -24l-106 -64h-62l83 101q20 24 38.5 32t50.5 8q40 0 40 -30z
" />
    <glyph glyph-name="Wcircumflex.sc" unicode="&#xf6a6;" horiz-adv-x="766" 
d="M558 120h10q11 46 24 76l135 324h123l-215 -520h-165l-22 264l-1 69h-9q-12 -45 -23 -69l-119 -264h-163l-24 520h116l14 -309l-2 -91h11q15 52 26 76l128 284h132l22 -269zM522 706l101 -107l-34 -40l-102 55h-9l-116 -55l-26 40l140 107h46z" />
    <glyph glyph-name="Wdieresis.sc" unicode="&#xf6a7;" horiz-adv-x="766" 
d="M558 120h10q11 46 24 76l135 324h123l-215 -520h-165l-22 264l-1 69h-9q-12 -45 -23 -69l-119 -264h-163l-24 520h116l14 -309l-2 -91h11q15 52 26 76l128 284h132l22 -269zM451 656q0 -32 -18 -50.5t-47 -18.5q-28 0 -46.5 18.5t-18.5 50.5q0 33 18.5 51.5t46.5 18.5
q29 0 47 -18.5t18 -51.5zM633 656q0 -32 -18 -50.5t-47 -18.5q-28 0 -46.5 18.5t-18.5 50.5q0 33 18.5 51.5t46.5 18.5q29 0 47 -18.5t18 -51.5z" />
    <glyph glyph-name="Wgrave.sc" unicode="&#xf6a8;" horiz-adv-x="766" 
d="M558 120h10q11 46 24 76l135 324h123l-215 -520h-165l-22 264l-1 69h-9q-12 -45 -23 -69l-119 -264h-163l-24 520h116l14 -309l-2 -91h11q15 52 26 76l128 284h132l22 -269zM319 670q0 34 49 34q50 0 72 -34l71 -107h-61l-112 76q-19 13 -19 31z" />
    <glyph glyph-name="Ycircumflex.sc" unicode="&#xf6a9;" horiz-adv-x="476" 
d="M283 302h9q14 40 31 65l101 153h138l-234 -346l-33 -174h-118l35 180l-106 340h120l46 -153q4 -14 7 -30t3 -25zM379 706l101 -107l-34 -40l-102 55h-9l-116 -55l-26 40l140 107h46z" />
    <glyph glyph-name="Ygrave.sc" unicode="&#xf6aa;" horiz-adv-x="476" 
d="M283 302h9q14 40 31 65l101 153h138l-234 -346l-33 -174h-118l35 180l-106 340h120l46 -153q4 -14 7 -30t3 -25zM174 670q0 34 49 34q50 0 72 -34l71 -107h-61l-112 76q-19 13 -19 31z" />
    <glyph glyph-name="Zacute.sc" unicode="&#xf6ab;" horiz-adv-x="412" 
d="M409 96l-18 -96h-382l256 380q7 11 15.5 20t13.5 13l5 4l-1 7h-187l19 96h365l-261 -385q-6 -9 -14 -17.5t-12 -12.5l-5 -4l1 -5h205zM481 674q0 -14 -9.5 -23t-34.5 -24l-106 -64h-62l83 101q20 24 38.5 32t50.5 8q40 0 40 -30z" />
    <glyph glyph-name="Zdotaccent.sc" unicode="&#xf6ac;" horiz-adv-x="412" 
d="M409 96l-18 -96h-382l256 380q7 11 15.5 20t13.5 13l5 4l-1 7h-187l19 96h365l-261 -385q-6 -9 -14 -17.5t-12 -12.5l-5 -4l1 -5h205zM384 656q0 -32 -18 -50.5t-47 -18.5q-28 0 -46.5 18.5t-18.5 50.5q0 33 18.5 51.5t46.5 18.5q29 0 47 -18.5t18 -51.5z" />
    <glyph glyph-name="Idotaccent.sc" unicode="&#xf6ad;" horiz-adv-x="240" 
d="M279 520l-101 -520h-118l101 520h118zM296 656q0 -32 -18 -50.5t-47 -18.5q-28 0 -46.5 18.5t-18.5 50.5q0 33 18.5 51.5t46.5 18.5q29 0 47 -18.5t18 -51.5z" />
    <glyph glyph-name="Germandbls.sc" unicode="&#xf6be;" horiz-adv-x="845" 
d="M425 162q0 -76 -50.5 -124t-146.5 -48q-50 0 -102.5 13.5t-85.5 33.5l37 91q71 -37 143 -37q86 0 86 63q0 33 -40 53l-59 29q-94 46 -94 123q0 80 55 125.5t144 45.5q78 0 148 -38l-42 -91q-56 28 -105 28q-38 0 -59 -16.5t-21 -44.5q0 -30 34 -46l65 -30q93 -43 93 -130
zM843 162q0 -76 -50.5 -124t-146.5 -48q-50 0 -102.5 13.5t-85.5 33.5l37 91q71 -37 143 -37q86 0 86 63q0 33 -40 53l-59 29q-94 46 -94 123q0 80 55 125.5t144 45.5q78 0 148 -38l-42 -91q-56 28 -105 28q-38 0 -59 -16.5t-21 -44.5q0 -30 34 -46l65 -30q93 -43 93 -130z
" />
    <glyph glyph-name="commaaccent" unicode="&#xf6c3;" horiz-adv-x="470" 
d="M307 -115q0 -33 -42 -109l-50 -89l-48 9l41 121v4q-41 17 -41 64q0 33 20 51.5t50 18.5q31 0 50.5 -18.5t19.5 -51.5z" />
    <glyph glyph-name="dblgrave" unicode="&#xf6d6;" horiz-adv-x="470" 
d="M83 675h10q40 0 62 -35l69 -106h-48l-102 66q-30 19 -30 41q0 14 10.5 24t28.5 10zM244 675h10q40 0 62 -35l69 -106h-48l-102 66q-30 19 -30 41q0 14 10.5 24t28.5 10z" />
    <glyph glyph-name="one.tb" unicode="&#xf6dc;" 
d="M400 676l-111 -571h141l-21 -105h-402l20 105h144l83 427q2 10 -2.5 13.5t-14.5 0.5l-101 -26l-14 65l199 91h79z" />
    <glyph glyph-name="rupiah" unicode="&#xf6dd;" horiz-adv-x="996" 
d="M475 303q-30 -21 -68 -31l77 -272h-125l-69 260h-56l-51 -260h-122l131 676h203q82 0 127.5 -43.5t45.5 -125.5q0 -61 -23.5 -116.5t-69.5 -87.5zM402 379q43 39 43 120q0 72 -72 72h-79l-43 -217h78q45 0 73 25zM828 114q30 28 45 88t15 111q0 76 -63 76
q-41 0 -70.5 -31t-38.5 -80l-31 -161q28 -26 78 -26q39 0 65 23zM1008 342q0 -59 -12 -117.5t-37 -113t-69 -88t-101 -33.5q-70 0 -122 38l-49 -255h-118l137 707h78l22 -58h4q54 68 138 68q59 0 94 -37.5t35 -110.5z" />
    <glyph glyph-name="Lslash.sc" unicode="&#xf6f9;" horiz-adv-x="368" 
d="M224 233l-27 -137h180l-19 -96h-298l24 121l14 53l-3 2q-9 -9 -22 -15l-33 -16l-30 70l102 50l49 255h119l-33 -167l-9 -29l3 -2q12 10 26 17l60 30l30 -71z" />
    <glyph glyph-name="OE.sc" unicode="&#xf6fa;" horiz-adv-x="718" 
d="M381 120q33 27 52.5 90.5t19.5 118.5q0 100 -92 100q-52 0 -85 -28q-34 -29 -54.5 -93.5t-20.5 -118.5q0 -98 94 -98q50 0 86 29zM573 340q0 -4 -0.5 -13t-0.5 -14h118l-16 -86h-116q-20 -78 -55 -129l2 -2h220l-18 -96h-345q-39 -10 -88 -10q-91 0 -142.5 47.5
t-51.5 141.5q0 80 32.5 168t90.5 131q69 52 174 52q37 0 74 -10h337l-19 -96h-207l-3 -4q14 -36 14 -80z" />
    <glyph glyph-name="Scaron.sc" unicode="&#xf6fd;" horiz-adv-x="427" 
d="M425 162q0 -76 -50.5 -124t-146.5 -48q-50 0 -102.5 13.5t-85.5 33.5l37 91q71 -37 143 -37q86 0 86 63q0 33 -40 53l-59 29q-94 46 -94 123q0 80 55 125.5t144 45.5q78 0 148 -38l-42 -91q-56 28 -105 28q-38 0 -59 -16.5t-21 -44.5q0 -30 34 -46l65 -30q93 -43 93 -130
zM289 561l-102 106l35 40l101 -55h9l116 55l26 -40l-140 -106h-45z" />
    <glyph glyph-name="Zcaron.sc" unicode="&#xf6ff;" horiz-adv-x="412" 
d="M409 96l-18 -96h-382l256 380q7 11 15.5 20t13.5 13l5 4l-1 7h-187l19 96h365l-261 -385q-6 -9 -14 -17.5t-12 -12.5l-5 -4l1 -5h205zM290 561l-102 106l35 40l101 -55h9l116 55l26 -40l-140 -106h-45z" />
    <glyph glyph-name="exclam.sc" unicode="&#xf721;" horiz-adv-x="248" 
d="M271 442l-71 -221h-71l18 247q5 63 78 63q57 0 57 -40q0 -12 -11 -49zM204 59q0 -32 -19.5 -50.5t-50.5 -18.5q-30 0 -50 18.5t-20 50.5q0 33 20 51.5t50 18.5q31 0 50.5 -18.5t19.5 -51.5z" />
    <glyph glyph-name="ampersand.sc" unicode="&#xf726;" horiz-adv-x="528" 
d="M398 0q-20 26 -31 39q-54 -49 -143 -49q-66 0 -113 31.5t-47 97.5q0 52 28.5 96.5t90.5 68.5q-27 42 -27 83q0 76 53 119.5t147 43.5q43 0 97 -15l-26 -94q-48 8 -70 8q-40 0 -62 -18.5t-22 -45.5q0 -23 42 -75l33 -42l12 -23l4 1q1 17 4 30l14 72h178l-20 -104h-78
q-11 -67 -21 -99l97 -125h-140zM244 88q44 0 66 25l-81 105q-48 -20 -48 -78q0 -52 63 -52z" />
    <glyph glyph-name="zerooldstyle" unicode="&#xf730;" horiz-adv-x="525" 
d="M355 124q30 29 47 82.5t17 102.5q0 96 -78 96q-44 0 -76 -32q-29 -29 -45 -80.5t-16 -101.5q0 -96 77 -96q42 0 74 29zM538 320q0 -78 -30.5 -155t-86.5 -123q-62 -52 -158 -52q-81 0 -130 50t-49 136q0 78 27.5 153.5t80.5 122.5q66 58 165 58q85 0 133 -50.5t48 -139.5
z" />
    <glyph glyph-name="oneoldstyle" unicode="&#xf731;" horiz-adv-x="306" 
d="M236 0h-118l72 371q3 17 -18 12l-73 -14l-9 62l176 79h69z" />
    <glyph glyph-name="twooldstyle" unicode="&#xf732;" horiz-adv-x="436" 
d="M419 105l-22 -105h-376l19 96l196 134q64 43 82 67q19 24 19 49q0 28 -21 43.5t-59 15.5q-46 0 -112 -28l-26 91q81 42 164 42q85 0 129.5 -43.5t44.5 -109.5q0 -60 -35 -104t-108 -88l-54 -34l-55 -24l3 -13q66 11 87 11h124z" />
    <glyph glyph-name="threeoldstyle" unicode="&#xf733;" horiz-adv-x="413" 
d="M394 67q0 -100 -63 -167.5t-180 -67.5q-29 0 -56.5 4t-48 10.5t-34.5 12.5t-26 12l-11 6l34 92q64 -32 131 -32q62 0 99 33t37 95q0 77 -96 77h-74l18 94h61q51 0 82 26t31 74q0 68 -75 68q-35 0 -107 -20l-19 90q94 36 162 36q79 0 120.5 -41.5t41.5 -104.5
q0 -57 -25 -96t-80 -64v-4q78 -32 78 -133z" />
    <glyph glyph-name="fouroldstyle" unicode="&#xf734;" horiz-adv-x="470" 
d="M347 363l-13 4q-31 -59 -48 -85l-121 -173h127l29 144zM491 109l-18 -95h-81l-33 -168h-117l32 168h-252l15 75l288 411h162l-77 -391h81z" />
    <glyph glyph-name="fiveoldstyle" unicode="&#xf735;" horiz-adv-x="426" 
d="M425 110q0 -120 -64 -199t-186 -79q-91 0 -155 32l32 94q57 -21 116 -21q67 0 100 40t33 107q0 39 -20.5 57.5t-65.5 18.5q-35 0 -96 -14l-37 25l92 329h275l-20 -105h-169l-38 -134q22 4 42 4q73 0 117 -40t44 -115z" />
    <glyph glyph-name="sixoldstyle" unicode="&#xf736;" horiz-adv-x="482" 
d="M327 118q40 34 40 118q0 69 -61 69q-43 0 -91 -24q-15 -55 -15 -112q0 -75 61 -75q37 0 66 24zM491 258q0 -66 -24.5 -125t-82.5 -101t-139 -42q-77 0 -120.5 48.5t-43.5 137.5q2 107 43.5 212t123.5 171q99 80 241 98l7 -91q-88 -23 -150 -65.5t-95 -119.5q43 26 98 26
q66 0 104 -38t38 -111z" />
    <glyph glyph-name="sevenoldstyle" unicode="&#xf737;" horiz-adv-x="360" 
d="M435 500l-14 -73l-290 -585h-132l293 553h-225l21 105h347z" />
    <glyph glyph-name="eightoldstyle" unicode="&#xf738;" horiz-adv-x="491" 
d="M72 137q0 63 34 110.5t111 97.5q-63 53 -63 122q0 73 57 128t158 55q73 0 119.5 -38t46.5 -98q0 -105 -128 -187q82 -74 82 -144q0 -32 -12 -63.5t-38 -61.5t-74.5 -49t-112.5 -19q-92 0 -136 43t-44 104zM324 258l-35 28l-37 -28q-61 -47 -61 -103q0 -29 19 -46.5
t57 -17.5q47 0 75 26.5t28 65.5q0 38 -46 75zM356 548q-43 0 -65.5 -22t-22.5 -56q0 -29 33 -57l33 -28q85 55 85 112q0 23 -16.5 37t-46.5 14z" />
    <glyph glyph-name="nineoldstyle" unicode="&#xf739;" horiz-adv-x="489" 
d="M259 380q-20 -18 -31.5 -55t-11.5 -72q0 -68 61 -68q42 0 92 25q17 61 17 120q0 75 -61 75q-40 0 -66 -25zM94 234q0 50 14.5 97.5t42.5 88t77 65.5t112 25q77 0 121 -46.5t44 -130.5q0 -106 -38 -214.5t-117 -181.5q-93 -87 -250 -105l-12 92q115 25 179 81
q20 17 37.5 42t25.5 41l7 17l-2 5q-54 -27 -100 -27q-64 0 -102.5 41t-38.5 110z" />
    <glyph glyph-name="question.sc" unicode="&#xf73f;" horiz-adv-x="357" 
d="M409 418q0 -54 -24.5 -83t-79.5 -51q-42 -17 -55.5 -26t-18.5 -27l-8 -30h-86l4 50q3 35 20 53.5t66 39.5q31 14 45 25t14 27q0 33 -59 33q-46 0 -90 -12l-4 90q72 24 138 24q68 0 103 -29.5t35 -83.5zM224 59q0 -32 -19.5 -50.5t-50.5 -18.5q-30 0 -50 18.5t-20 50.5
q0 33 20 51.5t50 18.5q31 0 50.5 -18.5t19.5 -51.5z" />
    <glyph glyph-name="A.sc" unicode="&#xf761;" horiz-adv-x="511" 
d="M383 0l-14 106h-179l-52 -106h-127l252 520h169l68 -520h-117zM303 339l-67 -137h121l-18 135l-3 63h-10q-14 -43 -23 -61z" />
    <glyph glyph-name="B.sc" unicode="&#xf762;" horiz-adv-x="503" 
d="M198 101h99q82 0 82 75q0 46 -59 46h-98q-20 -106 -24 -121zM321 309q33 0 52 17t19 49q0 44 -51 44h-81l-22 -110h83zM496 177q0 -86 -57.5 -131.5t-154.5 -45.5h-224l101 520h209q70 0 106 -32.5t36 -84.5q0 -89 -81 -121l-1 -4q66 -23 66 -101z" />
    <glyph glyph-name="C.sc" unicode="&#xf763;" horiz-adv-x="417" 
d="M405 108l10 -89q-61 -29 -142 -29q-92 0 -142.5 45.5t-50.5 135.5q0 84 32.5 175t91.5 136q64 48 167 48q58 0 111 -19l-30 -92q-39 10 -79 10q-61 0 -97 -29q-35 -29 -54.5 -91t-19.5 -118q0 -51 23.5 -75.5t76.5 -24.5q54 0 103 17z" />
    <glyph glyph-name="D.sc" unicode="&#xf764;" horiz-adv-x="520" 
d="M358 127q29 28 45 87t16 111q0 94 -98 94h-60l-63 -318h84q50 0 76 26zM539 333q0 -85 -25 -164t-79 -123q-57 -46 -165 -46h-210l101 520h179q94 0 146.5 -47.5t52.5 -139.5z" />
    <glyph glyph-name="E.sc" unicode="&#xf765;" horiz-adv-x="408" 
d="M416 96l-19 -96h-337l101 520h317l-19 -96h-198l-22 -111h127l-17 -87h-126l-26 -130h219z" />
    <glyph glyph-name="F.sc" unicode="&#xf766;" horiz-adv-x="362" 
d="M453 520l-19 -97h-173l-24 -120h131l-16 -87h-131l-42 -216h-119l101 520h292z" />
    <glyph glyph-name="G.sc" unicode="&#xf767;" horiz-adv-x="522" 
d="M304 91q43 0 81 18l19 99h-88l17 87h206l-49 -253q-92 -52 -200 -52q-98 0 -154 46.5t-56 141.5q0 80 32 168t94 133q71 52 180 52q81 0 154 -29l-33 -93q-60 20 -119 20q-77 0 -116 -35q-34 -30 -53 -90.5t-19 -112.5q0 -100 104 -100z" />
    <glyph glyph-name="H.sc" unicode="&#xf768;" horiz-adv-x="566" 
d="M605 520l-101 -520h-118l43 222h-207l-43 -222h-119l101 520h119l-40 -202h207l40 202h118z" />
    <glyph glyph-name="I.sc" unicode="&#xf769;" horiz-adv-x="240" 
d="M279 520l-101 -520h-118l101 520h118z" />
    <glyph glyph-name="J.sc" unicode="&#xf76a;" horiz-adv-x="268" 
d="M311 520l-66 -339q-21 -106 -73 -148.5t-170 -42.5q6 39 19 100q50 0 73.5 22.5t34.5 80.5l63 327h119z" />
    <glyph glyph-name="K.sc" unicode="&#xf76b;" horiz-adv-x="508" 
d="M367 262l138 -262h-129l-122 231h-31l-45 -231h-118l101 520h118l-42 -215h27l180 215h142z" />
    <glyph glyph-name="L.sc" unicode="&#xf76c;" horiz-adv-x="368" 
d="M377 96l-19 -96h-298l101 520h119l-83 -424h180z" />
    <glyph glyph-name="M.sc" unicode="&#xf76d;" horiz-adv-x="686" 
d="M725 520l-101 -520h-117l54 282l16 68l-13 4q-27 -55 -41 -79l-127 -208h-74l-54 209l-14 76l-14 -2q-4 -50 -11 -85l-51 -265h-118l101 520h145l73 -293h4l174 293h168z" />
    <glyph glyph-name="N.sc" unicode="&#xf76e;" horiz-adv-x="596" 
d="M635 520l-101 -520h-150l-108 284q-6 15 -12 37.5t-9 36.5l-3 15l-11 -1q-2 -60 -8 -92l-55 -280h-118l101 520h145l114 -303l19 -74l10 1q3 47 9 79l59 297h118z" />
    <glyph glyph-name="O.sc" unicode="&#xf76f;" horiz-adv-x="554" 
d="M381 120q33 27 52.5 90.5t19.5 118.5q0 100 -92 100q-52 0 -85 -28q-34 -29 -54.5 -93.5t-20.5 -118.5q0 -98 94 -98q50 0 86 29zM573 340q0 -82 -33.5 -171.5t-93.5 -130.5q-71 -48 -172 -48q-91 0 -142.5 47.5t-51.5 141.5q0 80 32.5 168t90.5 131q69 52 174 52
q92 0 144 -49t52 -141z" />
    <glyph glyph-name="P.sc" unicode="&#xf770;" horiz-adv-x="464" 
d="M231 267h63q42 0 63 26t21 72q0 54 -57 54h-61zM499 379q0 -92 -54.5 -145.5t-153.5 -53.5h-77l-35 -180h-119l101 520h191q73 0 110 -38.5t37 -102.5z" />
    <glyph glyph-name="Q.sc" unicode="&#xf771;" horiz-adv-x="554" 
d="M573 340q0 -81 -32 -164t-89 -133l37 -62l-72 -43l-40 66q-48 -14 -103 -14q-91 0 -142.5 47.5t-51.5 141.5q0 80 32.5 168t90.5 131q69 52 174 52q92 0 144 -49t52 -141zM288 152l72 44l34 -60q28 31 43.5 87.5t15.5 105.5q0 100 -92 100q-52 0 -85 -28
q-34 -29 -54.5 -93.5t-20.5 -118.5q0 -98 94 -98l25 1l1 3z" />
    <glyph glyph-name="R.sc" unicode="&#xf772;" horiz-adv-x="480" 
d="M232 274h69q40 0 61.5 24.5t21.5 66.5q0 54 -57 54h-67zM376 197l94 -197h-127l-88 187h-41l-36 -187h-118l101 520h195q72 0 110.5 -36.5t38.5 -100.5q0 -143 -129 -184v-2z" />
    <glyph glyph-name="S.sc" unicode="&#xf773;" horiz-adv-x="427" 
d="M425 162q0 -76 -50.5 -124t-146.5 -48q-50 0 -102.5 13.5t-85.5 33.5l37 91q71 -37 143 -37q86 0 86 63q0 33 -40 53l-59 29q-94 46 -94 123q0 80 55 125.5t144 45.5q78 0 148 -38l-42 -91q-56 28 -105 28q-38 0 -59 -16.5t-21 -44.5q0 -30 34 -46l65 -30q93 -43 93 -130
z" />
    <glyph glyph-name="T.sc" unicode="&#xf774;" horiz-adv-x="408" 
d="M503 520l-19 -96h-136l-82 -424h-118l82 424h-136l19 96h390z" />
    <glyph glyph-name="U.sc" unicode="&#xf775;" horiz-adv-x="528" 
d="M571 520l-67 -345q-17 -89 -78.5 -137t-160.5 -48q-84 0 -130.5 38.5t-46.5 105.5q0 34 12 99l55 287h119l-60 -305q-8 -42 -8 -61q0 -31 20.5 -47t54.5 -16q88 0 107 99l64 330h119z" />
    <glyph glyph-name="V.sc" unicode="&#xf776;" horiz-adv-x="483" 
d="M439 520h128l-239 -520h-175l-44 520h116l27 -321v-84h13q13 53 27 83z" />
    <glyph glyph-name="W.sc" unicode="&#xf777;" horiz-adv-x="766" 
d="M558 120h10q11 46 24 76l135 324h123l-215 -520h-165l-22 264l-1 69h-9q-12 -45 -23 -69l-119 -264h-163l-24 520h116l14 -309l-2 -91h11q15 52 26 76l128 284h132l22 -269z" />
    <glyph glyph-name="X.sc" unicode="&#xf778;" horiz-adv-x="469" 
d="M550 520l-173 -261l93 -259h-123l-57 158l-10 46h-6q-12 -31 -22 -46l-103 -158h-139l182 272l-88 248h122l48 -141l13 -56h6q14 37 26 56l93 141h138z" />
    <glyph glyph-name="Y.sc" unicode="&#xf779;" horiz-adv-x="476" 
d="M283 302h9q14 40 31 65l101 153h138l-234 -346l-33 -174h-118l35 180l-106 340h120l46 -153q4 -14 7 -30t3 -25z" />
    <glyph glyph-name="Z.sc" unicode="&#xf77a;" horiz-adv-x="412" 
d="M409 96l-18 -96h-382l256 380q7 11 15.5 20t13.5 13l5 4l-1 7h-187l19 96h365l-261 -385q-6 -9 -14 -17.5t-12 -12.5l-5 -4l1 -5h205z" />
    <glyph glyph-name="exclamdown.sc" unicode="&#xf7a1;" horiz-adv-x="248" 
d="M47 -75l71 221h71l-18 -247q-5 -63 -78 -63q-57 0 -57 40q0 12 11 49zM254 307q0 -32 -19.5 -50.5t-50.5 -18.5q-30 0 -50 18.5t-20 50.5q0 33 20 51.5t50 18.5q31 0 50.5 -18.5t19.5 -51.5z" />
    <glyph glyph-name="questiondown.sc" unicode="&#xf7bf;" horiz-adv-x="339" 
d="M17 -52q0 54 24.5 83t79.5 51q42 17 55.5 26t18.5 27l8 30h86l-4 -50q-3 -35 -20 -53.5t-66 -39.5q-31 -14 -45 -25t-14 -27q0 -33 59 -33q46 0 90 12l4 -90q-72 -24 -138 -24q-68 0 -103 29.5t-35 83.5zM342 307q0 -32 -19.5 -50.5t-50.5 -18.5q-30 0 -50 18.5t-20 50.5
q0 33 20 51.5t50 18.5q31 0 50.5 -18.5t19.5 -51.5z" />
    <glyph glyph-name="Agrave.sc" unicode="&#xf7e0;" horiz-adv-x="511" 
d="M383 0l-14 106h-179l-52 -106h-127l252 520h169l68 -520h-117zM303 339l-67 -137h121l-18 135l-3 63h-10q-14 -43 -23 -61zM192 670q0 34 49 34q50 0 72 -34l71 -107h-61l-112 76q-19 13 -19 31z" />
    <glyph glyph-name="Aacute.sc" unicode="&#xf7e1;" horiz-adv-x="511" 
d="M383 0l-14 106h-179l-52 -106h-127l252 520h169l68 -520h-117zM303 339l-67 -137h121l-18 135l-3 63h-10q-14 -43 -23 -61zM519 674q0 -14 -9.5 -23t-34.5 -24l-106 -64h-62l83 101q20 24 38.5 32t50.5 8q40 0 40 -30z" />
    <glyph glyph-name="Acircumflex.sc" unicode="&#xf7e2;" horiz-adv-x="511" 
d="M383 0l-14 106h-179l-52 -106h-127l252 520h169l68 -520h-117zM303 339l-67 -137h121l-18 135l-3 63h-10q-14 -43 -23 -61zM396 707l101 -107l-34 -40l-102 55h-9l-116 -55l-26 40l140 107h46z" />
    <glyph glyph-name="Atilde.sc" unicode="&#xf7e3;" horiz-adv-x="511" 
d="M383 0l-14 106h-179l-52 -106h-127l252 520h169l68 -520h-117zM303 339l-67 -137h121l-18 135l-3 63h-10q-14 -43 -23 -61zM466 685l42 -16q-5 -17 -10 -29.5t-16.5 -30t-30.5 -27t-45 -9.5q-17 0 -61.5 12.5t-60.5 12.5q-29 0 -48 -29l-41 16q24 96 101 96
q18 0 62 -12.5t60 -12.5q29 0 48 29z" />
    <glyph glyph-name="Adieresis.sc" unicode="&#xf7e4;" horiz-adv-x="511" 
d="M383 0l-14 106h-179l-52 -106h-127l252 520h169l68 -520h-117zM303 339l-67 -137h121l-18 135l-3 63h-10q-14 -43 -23 -61zM318 656q0 -32 -18 -50.5t-47 -18.5q-28 0 -46.5 18.5t-18.5 50.5q0 33 18.5 51.5t46.5 18.5q29 0 47 -18.5t18 -51.5zM500 656q0 -32 -18 -50.5
t-47 -18.5q-28 0 -46.5 18.5t-18.5 50.5q0 33 18.5 51.5t46.5 18.5q29 0 47 -18.5t18 -51.5z" />
    <glyph glyph-name="Aring.sc" unicode="&#xf7e5;" horiz-adv-x="511" 
d="M383 0l-14 106h-179l-52 -106h-127l252 520h169l68 -520h-117zM303 339l-67 -137h121l-18 135l-3 63h-10q-14 -43 -23 -61zM400 664q0 21 -14.5 36t-35.5 15q-22 0 -36.5 -15t-14.5 -36t14.5 -35.5t36.5 -14.5t36 14.5t14 35.5zM460 664q0 -45 -30 -74t-80 -29t-80.5 29
t-30.5 74t30.5 74.5t80.5 29.5q49 0 79.5 -29.5t30.5 -74.5z" />
    <glyph glyph-name="AE.sc" unicode="&#xf7e6;" horiz-adv-x="713" 
d="M145 0h-135l337 520h436l-19 -96h-199l-21 -111h127l-17 -86h-127l-25 -131h218l-18 -96h-337l20 105h-172zM366 340l-91 -139h129l29 144l18 82l-32 4q-36 -65 -53 -91z" />
    <glyph glyph-name="Ccedilla.sc" unicode="&#xf7e7;" horiz-adv-x="417" 
d="M364 -112q0 -50 -33 -77t-96 -27q-23 0 -49 3t-40 6l-14 3l14 49q51 -7 77 -7q53 0 53 42q0 25 -40 25h-57l35 91q-134 26 -134 175q0 84 32.5 175t91.5 136q64 48 167 48q58 0 111 -19l-30 -92q-39 10 -79 10q-61 0 -97 -29q-35 -29 -54.5 -91t-19.5 -118
q0 -51 23.5 -75.5t76.5 -24.5q54 0 103 17l10 -89q-60 -27 -135 -29l-13 -39h14q83 0 83 -63z" />
    <glyph glyph-name="Egrave.sc" unicode="&#xf7e8;" horiz-adv-x="408" 
d="M416 96l-19 -96h-337l101 520h317l-19 -96h-198l-22 -111h127l-17 -87h-126l-26 -130h219zM181 670q0 34 49 34q50 0 72 -34l71 -107h-61l-112 76q-19 13 -19 31z" />
    <glyph glyph-name="Eacute.sc" unicode="&#xf7e9;" horiz-adv-x="408" 
d="M416 96l-19 -96h-337l101 520h317l-19 -96h-198l-22 -111h127l-17 -87h-126l-26 -130h219zM490 674q0 -14 -9.5 -23t-34.5 -24l-106 -64h-62l83 101q20 24 38.5 32t50.5 8q40 0 40 -30z" />
    <glyph glyph-name="Ecircumflex.sc" unicode="&#xf7ea;" horiz-adv-x="408" 
d="M416 96l-19 -96h-337l101 520h317l-19 -96h-198l-22 -111h127l-17 -87h-126l-26 -130h219zM373 706l101 -107l-34 -40l-102 55h-9l-116 -55l-26 40l140 107h46z" />
    <glyph glyph-name="Edieresis.sc" unicode="&#xf7eb;" horiz-adv-x="408" 
d="M416 96l-19 -96h-337l101 520h317l-19 -96h-198l-22 -111h127l-17 -87h-126l-26 -130h219zM305 656q0 -32 -18 -50.5t-47 -18.5q-28 0 -46.5 18.5t-18.5 50.5q0 33 18.5 51.5t46.5 18.5q29 0 47 -18.5t18 -51.5zM487 656q0 -32 -18 -50.5t-47 -18.5q-28 0 -46.5 18.5
t-18.5 50.5q0 33 18.5 51.5t46.5 18.5q29 0 47 -18.5t18 -51.5z" />
    <glyph glyph-name="Igrave.sc" unicode="&#xf7ec;" horiz-adv-x="240" 
d="M279 520l-101 -520h-118l101 520h118zM75 670q0 34 49 34q50 0 72 -34l71 -107h-61l-112 76q-19 13 -19 31z" />
    <glyph glyph-name="Iacute.sc" unicode="&#xf7ed;" horiz-adv-x="240" 
d="M279 520l-101 -520h-118l101 520h118zM388 674q0 -14 -9.5 -23t-34.5 -24l-106 -64h-62l83 101q20 24 38.5 32t50.5 8q40 0 40 -30z" />
    <glyph glyph-name="Icircumflex.sc" unicode="&#xf7ee;" horiz-adv-x="240" 
d="M279 520l-101 -520h-118l101 520h118zM270 709l101 -107l-34 -40l-102 55h-9l-116 -55l-26 40l140 107h46z" />
    <glyph glyph-name="Idieresis.sc" unicode="&#xf7ef;" horiz-adv-x="240" 
d="M206 656q0 -32 -18 -50.5t-47 -18.5q-28 0 -46.5 18.5t-18.5 50.5q0 33 18.5 51.5t46.5 18.5q29 0 47 -18.5t18 -51.5zM378 656q0 -32 -18 -50.5t-47 -18.5q-28 0 -46.5 18.5t-18.5 50.5q0 33 18.5 51.5t46.5 18.5q29 0 47 -18.5t18 -51.5zM279 520l-101 -520h-118
l101 520h118z" />
    <glyph glyph-name="Eth.sc" unicode="&#xf7f0;" horiz-adv-x="520" 
d="M49 219l16 87h54l42 214h179q94 0 146.5 -47.5t52.5 -139.5q0 -85 -25 -164t-79 -123q-57 -46 -165 -46h-210l43 219h-54zM358 127q29 28 45 87t16 111q0 94 -98 94h-60l-23 -113h86l-17 -87h-86l-23 -118h84q50 0 76 26z" />
    <glyph glyph-name="Ntilde.sc" unicode="&#xf7f1;" horiz-adv-x="596" 
d="M635 520l-101 -520h-150l-108 284q-6 15 -12 37.5t-9 36.5l-3 15l-11 -1q-2 -60 -8 -92l-55 -280h-118l101 520h145l114 -303l19 -74l10 1q3 47 9 79l59 297h118zM544 688l42 -16q-5 -17 -10 -29.5t-16.5 -30t-30.5 -27t-45 -9.5q-17 0 -61.5 12.5t-60.5 12.5
q-29 0 -48 -29l-41 16q24 96 101 96q18 0 62 -12.5t60 -12.5q29 0 48 29z" />
    <glyph glyph-name="Ograve.sc" unicode="&#xf7f2;" horiz-adv-x="554" 
d="M381 120q33 27 52.5 90.5t19.5 118.5q0 100 -92 100q-52 0 -85 -28q-34 -29 -54.5 -93.5t-20.5 -118.5q0 -98 94 -98q50 0 86 29zM573 340q0 -82 -33.5 -171.5t-93.5 -130.5q-71 -48 -172 -48q-91 0 -142.5 47.5t-51.5 141.5q0 80 32.5 168t90.5 131q69 52 174 52
q92 0 144 -49t52 -141zM230 670q0 34 49 34q50 0 72 -34l71 -107h-61l-112 76q-19 13 -19 31z" />
    <glyph glyph-name="Oacute.sc" unicode="&#xf7f3;" horiz-adv-x="554" 
d="M381 120q33 27 52.5 90.5t19.5 118.5q0 100 -92 100q-52 0 -85 -28q-34 -29 -54.5 -93.5t-20.5 -118.5q0 -98 94 -98q50 0 86 29zM573 340q0 -82 -33.5 -171.5t-93.5 -130.5q-71 -48 -172 -48q-91 0 -142.5 47.5t-51.5 141.5q0 80 32.5 168t90.5 131q69 52 174 52
q92 0 144 -49t52 -141zM563 674q0 -14 -9.5 -23t-34.5 -24l-106 -64h-62l83 101q20 24 38.5 32t50.5 8q40 0 40 -30z" />
    <glyph glyph-name="Ocircumflex.sc" unicode="&#xf7f4;" horiz-adv-x="554" 
d="M381 120q33 27 52.5 90.5t19.5 118.5q0 100 -92 100q-52 0 -85 -28q-34 -29 -54.5 -93.5t-20.5 -118.5q0 -98 94 -98q50 0 86 29zM573 340q0 -82 -33.5 -171.5t-93.5 -130.5q-71 -48 -172 -48q-91 0 -142.5 47.5t-51.5 141.5q0 80 32.5 168t90.5 131q69 52 174 52
q92 0 144 -49t52 -141zM434 708l101 -107l-34 -40l-102 55h-9l-116 -55l-26 40l140 107h46z" />
    <glyph glyph-name="Otilde.sc" unicode="&#xf7f5;" horiz-adv-x="554" 
d="M381 120q33 27 52.5 90.5t19.5 118.5q0 100 -92 100q-52 0 -85 -28q-34 -29 -54.5 -93.5t-20.5 -118.5q0 -98 94 -98q50 0 86 29zM573 340q0 -82 -33.5 -171.5t-93.5 -130.5q-71 -48 -172 -48q-91 0 -142.5 47.5t-51.5 141.5q0 80 32.5 168t90.5 131q69 52 174 52
q92 0 144 -49t52 -141zM515 688l42 -16q-5 -17 -10 -29.5t-16.5 -30t-30.5 -27t-45 -9.5q-17 0 -61.5 12.5t-60.5 12.5q-29 0 -48 -29l-41 16q24 96 101 96q18 0 62 -12.5t60 -12.5q29 0 48 29z" />
    <glyph glyph-name="Odieresis.sc" unicode="&#xf7f6;" horiz-adv-x="554" 
d="M381 120q33 27 52.5 90.5t19.5 118.5q0 100 -92 100q-52 0 -85 -28q-34 -29 -54.5 -93.5t-20.5 -118.5q0 -98 94 -98q50 0 86 29zM573 340q0 -82 -33.5 -171.5t-93.5 -130.5q-71 -48 -172 -48q-91 0 -142.5 47.5t-51.5 141.5q0 80 32.5 168t90.5 131q69 52 174 52
q92 0 144 -49t52 -141zM361 656q0 -32 -18 -50.5t-47 -18.5q-28 0 -46.5 18.5t-18.5 50.5q0 33 18.5 51.5t46.5 18.5q29 0 47 -18.5t18 -51.5zM543 656q0 -32 -18 -50.5t-47 -18.5q-28 0 -46.5 18.5t-18.5 50.5q0 33 18.5 51.5t46.5 18.5q29 0 47 -18.5t18 -51.5z" />
    <glyph glyph-name="AEacute.sc" unicode="&#xf7f7;" horiz-adv-x="713" 
d="M145 0h-135l337 520h436l-19 -96h-199l-21 -111h127l-17 -86h-127l-25 -131h218l-18 -96h-337l20 105h-172zM366 340l-91 -139h129l29 144l18 82l-32 4q-36 -65 -53 -91zM747 674q0 -14 -9.5 -23t-34.5 -24l-106 -64h-62l83 101q20 24 38.5 32t50.5 8q40 0 40 -30z" />
    <glyph glyph-name="Oslash.sc" unicode="&#xf7f8;" horiz-adv-x="554" 
d="M573 340q0 -82 -33.5 -171.5t-93.5 -130.5q-71 -48 -172 -48q-75 0 -122 31l-43 -46l-50 46l46 50q-25 44 -25 108q0 80 32.5 168t90.5 131q69 52 174 52q75 0 123 -33l44 48l51 -47l-48 -51q26 -47 26 -107zM383 120q33 27 52.5 90.5t19.5 118.5l-1 18l-221 -240
q22 -16 62 -16q52 0 88 29zM199 189q0 -12 1 -17l221 241q-24 16 -60 16q-54 0 -87 -28q-34 -29 -54.5 -93.5t-20.5 -118.5z" />
    <glyph glyph-name="Ugrave.sc" unicode="&#xf7f9;" horiz-adv-x="528" 
d="M571 520l-67 -345q-17 -89 -78.5 -137t-160.5 -48q-84 0 -130.5 38.5t-46.5 105.5q0 34 12 99l55 287h119l-60 -305q-8 -42 -8 -61q0 -31 20.5 -47t54.5 -16q88 0 107 99l64 330h119zM210 670q0 34 49 34q50 0 72 -34l71 -107h-61l-112 76q-19 13 -19 31z" />
    <glyph glyph-name="Uacute.sc" unicode="&#xf7fa;" horiz-adv-x="528" 
d="M571 520l-67 -345q-17 -89 -78.5 -137t-160.5 -48q-84 0 -130.5 38.5t-46.5 105.5q0 34 12 99l55 287h119l-60 -305q-8 -42 -8 -61q0 -31 20.5 -47t54.5 -16q88 0 107 99l64 330h119zM544 674q0 -14 -9.5 -23t-34.5 -24l-106 -64h-62l83 101q20 24 38.5 32t50.5 8
q40 0 40 -30z" />
    <glyph glyph-name="Ucircumflex.sc" unicode="&#xf7fb;" horiz-adv-x="528" 
d="M571 520l-67 -345q-17 -89 -78.5 -137t-160.5 -48q-84 0 -130.5 38.5t-46.5 105.5q0 34 12 99l55 287h119l-60 -305q-8 -42 -8 -61q0 -31 20.5 -47t54.5 -16q88 0 107 99l64 330h119zM411 707l101 -107l-34 -40l-102 55h-9l-116 -55l-26 40l140 107h46z" />
    <glyph glyph-name="Udieresis.sc" unicode="&#xf7fc;" horiz-adv-x="528" 
d="M571 520l-67 -345q-17 -89 -78.5 -137t-160.5 -48q-84 0 -130.5 38.5t-46.5 105.5q0 34 12 99l55 287h119l-60 -305q-8 -42 -8 -61q0 -31 20.5 -47t54.5 -16q88 0 107 99l64 330h119zM345 656q0 -32 -18 -50.5t-47 -18.5q-28 0 -46.5 18.5t-18.5 50.5q0 33 18.5 51.5
t46.5 18.5q29 0 47 -18.5t18 -51.5zM527 656q0 -32 -18 -50.5t-47 -18.5q-28 0 -46.5 18.5t-18.5 50.5q0 33 18.5 51.5t46.5 18.5q29 0 47 -18.5t18 -51.5z" />
    <glyph glyph-name="Yacute.sc" unicode="&#xf7fd;" horiz-adv-x="476" 
d="M283 302h9q14 40 31 65l101 153h138l-234 -346l-33 -174h-118l35 180l-106 340h120l46 -153q4 -14 7 -30t3 -25zM513 674q0 -14 -9.5 -23t-34.5 -24l-106 -64h-62l83 101q20 24 38.5 32t50.5 8q40 0 40 -30z" />
    <glyph glyph-name="Thorn.sc" unicode="&#xf7fe;" horiz-adv-x="465" 
d="M213 176h63q42 0 63 26t21 72q0 54 -57 54h-61zM481 288q0 -92 -54.5 -145.5t-153.5 -53.5h-77l-17 -89h-119l101 520h119l-18 -91h72q73 0 110 -38.5t37 -102.5z" />
    <glyph glyph-name="Ydieresis.sc" unicode="&#xf7ff;" horiz-adv-x="476" 
d="M283 302h9q14 40 31 65l101 153h138l-234 -346l-33 -174h-118l35 180l-106 340h120l46 -153q4 -14 7 -30t3 -25zM311 656q0 -32 -18 -50.5t-47 -18.5q-28 0 -46.5 18.5t-18.5 50.5q0 33 18.5 51.5t46.5 18.5q29 0 47 -18.5t18 -51.5zM493 656q0 -32 -18 -50.5t-47 -18.5
q-28 0 -46.5 18.5t-18.5 50.5q0 33 18.5 51.5t46.5 18.5q29 0 47 -18.5t18 -51.5z" />
    <glyph glyph-name="s_t" unicode="&#xfb06;" horiz-adv-x="711" 
d="M678 90l21 -5l-27 -95q-170 0 -170 114q0 25 13 92l36 188h-64l19 96h64l8 39q4 23 4 35q0 61 -85 61q-48 0 -73 -22.5t-25 -57.5q0 -45 45 -80l-43 -91q-48 25 -98 25q-37 0 -54.5 -14t-17.5 -34q0 -25 37 -39l55 -22q103 -42 103 -126q0 -72 -50.5 -118t-145.5 -46
q-53 0 -103.5 16t-80.5 40l43 88q65 -43 135 -43q81 0 81 53q0 28 -45 47l-52 21q-96 38 -96 117q0 76 52.5 118.5t141.5 42.5h7l1 1v1q-14 20 -14 53q0 76 60.5 121t155.5 45q89 0 137.5 -36.5t48.5 -95.5q0 -23 -6 -55l-8 -44h91l-19 -96h-91l-39 -205q-6 -34 -6 -45
q0 -18 12 -27.5t42 -16.5z" />
    <glyph glyph-name="c_t" unicode="&#xfb1e;" horiz-adv-x="705" 
d="M672 90l21 -5l-27 -95q-170 0 -170 114q0 25 13 92l36 188h-64l19 96h64l8 39q4 23 4 35q0 61 -85 61q-48 0 -73 -22.5t-25 -57.5q0 -23 12 -37.5t38 -30.5l-34 -91q-44 14 -76 14q-49 0 -74 -25q-26 -26 -42.5 -86t-16.5 -108q0 -80 78 -80q40 0 90 18l13 -87
q-53 -32 -133 -32q-81 0 -126 43t-45 126q0 73 26.5 158.5t79.5 127.5q52 40 127 44l1 3q-14 23 -14 53q0 77 59 121.5t154 44.5q89 0 137.5 -36.5t48.5 -95.5q0 -23 -6 -55l-8 -44h91l-19 -96h-91l-39 -205q-6 -34 -6 -45q0 -18 12 -27.5t42 -16.5z" />
    <glyph glyph-name="Adblgrave.sc" unicode="&#xfff0;" horiz-adv-x="511" 
d="M383 0l-14 106h-179l-52 -106h-127l252 520h169l68 -520h-117zM303 339l-67 -137h121l-18 135l-3 63h-10q-14 -43 -23 -61zM143 704h10q40 0 62 -35l69 -106h-48l-102 66q-30 19 -30 41q0 14 10.5 24t28.5 10zM304 704h10q40 0 62 -35l69 -106h-48l-102 66q-30 19 -30 41
q0 14 10.5 24t28.5 10z" />
    <glyph glyph-name="Ainvertedbreve.sc" unicode="&#xfff1;" horiz-adv-x="511" 
d="M383 0l-14 106h-179l-52 -106h-127l252 520h169l68 -520h-117zM303 339l-67 -137h121l-18 135l-3 63h-10q-14 -43 -23 -61zM485 559h-61q-4 63 -64 63q-32 0 -55.5 -18.5t-34.5 -44.5h-61q11 60 54 100.5t110 40.5q54 0 84 -32.5t30 -82.5q0 -8 -2 -26z" />
    <glyph glyph-name="Edblgrave.sc" unicode="&#xfff2;" horiz-adv-x="408" 
d="M416 96l-19 -96h-337l101 520h317l-19 -96h-198l-22 -111h127l-17 -87h-126l-26 -130h219zM139 704h10q40 0 62 -35l69 -106h-48l-102 66q-30 19 -30 41q0 14 10.5 24t28.5 10zM300 704h10q40 0 62 -35l69 -106h-48l-102 66q-30 19 -30 41q0 14 10.5 24t28.5 10z" />
    <glyph glyph-name="Einvertedbreve.sc" unicode="&#xfff3;" horiz-adv-x="408" 
d="M416 96l-19 -96h-337l101 520h317l-19 -96h-198l-22 -111h127l-17 -87h-126l-26 -130h219zM468 559h-61q-4 63 -64 63q-32 0 -55.5 -18.5t-34.5 -44.5h-61q11 60 54 100.5t110 40.5q54 0 84 -32.5t30 -82.5q0 -8 -2 -26z" />
    <glyph glyph-name="Idblgrave.sc" unicode="&#xfff4;" horiz-adv-x="240" 
d="M279 520l-101 -520h-118l101 520h118zM20 704h10q40 0 62 -35l69 -106h-48l-102 66q-30 19 -30 41q0 14 10.5 24t28.5 10zM181 704h10q40 0 62 -35l69 -106h-48l-102 66q-30 19 -30 41q0 14 10.5 24t28.5 10z" />
    </font>
</defs>
</svg>
