<?xml version="1.0" standalone="no"?>
<!DOCTYPE svg PUBLIC "-//W3C//DTD SVG 1.1//EN" "http://www.w3.org/Graphics/SVG/1.1/DTD/svg11.dtd" >
<svg xmlns="http://www.w3.org/2000/svg" xmlns:xlink="http://www.w3.org/1999/xlink" version="1.1">
<metadata>
Created by FontForge 20170731 at Tue Dec 10 00:03:26 2013
 By Aleksey,,,
Copyright (c) 2013 by Nikola &#38; Zoran Kostic. All rights reserved.
</metadata>
<defs>
<font id="Argumentum-Ultra" horiz-adv-x="500" >
  <font-face 
    font-family="Argumentum Ult"
    font-weight="900"
    font-stretch="normal"
    units-per-em="1000"
    panose-1="2 11 0 0 0 0 0 0 0 0"
    ascent="751"
    descent="-249"
    x-height="480"
    cap-height="676"
    bbox="-134 -363 1246 937"
    underline-thickness="50"
    underline-position="-200"
    unicode-range="U+0020-FFFB"
  />
<missing-glyph horiz-adv-x="470" 
d="M117 59h235v616h-235v-616zM59 0v733h353v-733h-353z" />
    <glyph glyph-name="f_f" unicode="ff" horiz-adv-x="690" 
d="M693 695l-12 -164q-33 6 -56 6q-16 0 -22 -6t-6 -23v-28h86v-162h-86v-318h-218v318h-100v-318h-218v318h-54v162h54v62q0 88 46 128.5t150 40.5q25 0 52 -3.5t41 -7.5l15 -3l-14 -164q-23 4 -44 4q-16 0 -22 -6t-6 -23v-28h100v62q0 88 46 128.5t150 40.5q28 0 57.5 -4
t45.5 -8z" />
    <glyph glyph-name="fi" unicode="fi" horiz-adv-x="592" 
d="M349 0v318h-70v-318h-218v318h-54v162h54v62q0 87 57.5 128t180.5 41q45 0 94 -6.5t75 -12.5l27 -7l-26 -161q-70 13 -130 13q-36 0 -48 -9t-12 -30v-18h288v-480h-218z" />
    <glyph glyph-name="fl" unicode="fl" horiz-adv-x="664" 
d="M662 151l-16 -157q-32 -5 -58 -5q-103 0 -151 38.5t-48 131.5v374q-33 4 -62 4q-27 0 -37.5 -7t-10.5 -24v-26h76v-162h-76v-318h-218v318h-54v162h54v62q0 86 60 127.5t186 41.5q75 0 150 -8.5t113 -16.5l37 -8v-486q0 -27 23 -33z" />
    <glyph glyph-name="f_f_i" unicode="ffi" horiz-adv-x="910" 
d="M667 0v318h-70v-318h-218v318h-100v-318h-218v318h-54v162h54v62q0 88 46 128.5t150 40.5q25 0 52 -3.5t41 -7.5l15 -3l-14 -164q-23 4 -44 4q-16 0 -22 -6t-6 -23v-28h100v62q0 87 57.5 128t180.5 41q45 0 94 -6.5t75 -12.5l27 -7l-26 -161q-70 13 -130 13q-36 0 -48 -9
t-12 -30v-18h288v-480h-218z" />
    <glyph glyph-name="f_f_l" unicode="ffl" horiz-adv-x="982" 
d="M980 151l-16 -157q-32 -5 -58 -5q-103 0 -151 38.5t-48 131.5v374q-33 4 -62 4q-27 0 -37.5 -7t-10.5 -24v-26h76v-162h-76v-318h-218v318h-100v-318h-218v318h-54v162h54v62q0 88 46 128.5t150 40.5q25 0 52 -3.5t41 -7.5l15 -3l-14 -164q-23 4 -44 4q-16 0 -22 -6
t-6 -23v-28h100v62q0 86 60 127.5t186 41.5q75 0 150 -8.5t113 -16.5l37 -8v-486q0 -27 23 -33z" />
    <glyph glyph-name="f_t" unicode="ft" horiz-adv-x="691" 
d="M355 700l-14 -165q-18 2 -34 2t-22 -6t-6 -23v-28h100v105l218 44v-149h83v-162h-83v-109q0 -31 10.5 -44t33.5 -13h43l-10 -162h-85q-210 0 -210 178v150h-100v-318h-218v318h-54v162h54v62q0 88 46 128.5t150 40.5q22 0 46.5 -2.5t38.5 -5.5z" />
    <glyph glyph-name="f_f_t" unicode="fft" horiz-adv-x="1009" 
d="M597 318v-318h-218v318h-100v-318h-218v318h-54v162h54v62q0 88 46 128.5t150 40.5q25 0 52 -3.5t41 -7.5l15 -3l-14 -164q-23 4 -44 4q-16 0 -22 -6t-6 -23v-28h100v62q0 88 46 128.5t150 40.5q22 0 46.5 -2.5t38.5 -5.5l13 -3l-14 -165q-18 2 -34 2t-22 -6t-6 -23v-28
h100v105l218 44v-149h83v-162h-83v-109q0 -31 10.5 -44t33.5 -13h43l-10 -162h-85q-210 0 -210 178v150h-100z" />
    <glyph glyph-name="f_b" unicode="fb" horiz-adv-x="890" 
d="M873 241q0 -124 -42.5 -187.5t-140.5 -63.5q-71 0 -110 48h-3l-23 -38h-165v533q-33 4 -62 4q-27 0 -37.5 -7t-10.5 -24v-26h76v-162h-76v-318h-218v318h-54v162h54v62q0 86 60 127.5t186 41.5q75 0 150 -8.5t113 -16.5l37 -8v-184l-1 -32l2 -1q38 29 96 29q89 0 129 -58
t40 -191zM655 198v82q0 30 -5 39t-16 9q-27 0 -27 -63v-55q0 -58 27 -58q11 0 16 9.5t5 36.5z" />
    <glyph glyph-name="f_h" unicode="fh" horiz-adv-x="880" 
d="M607 678v-184l-1 -29l1 -1q38 26 96 26q75 0 115.5 -41.5t40.5 -119.5v-329h-218v309q0 19 -12 19q-22 0 -22 -43v-285h-218v533q-33 4 -62 4q-27 0 -37.5 -7t-10.5 -24v-26h76v-162h-76v-318h-218v318h-54v162h54v62q0 86 60 127.5t186 41.5q75 0 150 -8.5t113 -16.5z
" />
    <glyph glyph-name="f_j" unicode="fj" horiz-adv-x="592" 
d="M567 480v-513q0 -203 -224 -203h-76v162h42q40 0 40 50v342h-70v-318h-218v318h-54v162h54v62q0 87 57.5 128t180.5 41q45 0 94 -6.5t75 -12.5l27 -7l-26 -161q-70 13 -130 13q-36 0 -48 -9t-12 -30v-18h288z" />
    <glyph glyph-name="f_k" unicode="fk" horiz-adv-x="899" 
d="M607 678v-330h2l47 132h236l-95 -236l105 -244h-240l-51 125h-4v-125h-218v533q-33 4 -62 4q-27 0 -37.5 -7t-10.5 -24v-26h76v-162h-76v-318h-218v318h-54v162h54v62q0 86 60 127.5t186 41.5q75 0 150 -8.5t113 -16.5z" />
    <glyph glyph-name="f_y" unicode="fy" horiz-adv-x="882" 
d="M651 480h228l-153 -553q-24 -84 -79.5 -123.5t-155.5 -39.5h-139v162h103q47 0 60 45l8 29h-67l-104 318h-73v-318h-218v318h-54v162h54v62q0 88 46 128.5t150 40.5q28 0 57.5 -4t45.5 -8l15 -4l-12 -164q-33 6 -56 6q-16 0 -22 -6t-6 -23v-28h247l50 -160l15 -73h4
q7 45 14 73z" />
    <glyph glyph-name="f_f_b" unicode="ffb" horiz-adv-x="1208" 
d="M1191 241q0 -124 -42.5 -187.5t-140.5 -63.5q-71 0 -110 48h-3l-23 -38h-165v533q-33 4 -62 4q-27 0 -37.5 -7t-10.5 -24v-26h76v-162h-76v-318h-218v318h-100v-318h-218v318h-54v162h54v62q0 88 46 128.5t150 40.5q25 0 52 -3.5t41 -7.5l15 -3l-14 -164q-23 4 -44 4
q-16 0 -22 -6t-6 -23v-28h100v62q0 86 60 127.5t186 41.5q75 0 150 -8.5t113 -16.5l37 -8v-184l-1 -32l2 -1q38 29 96 29q89 0 129 -58t40 -191zM973 198v82q0 30 -5 39t-16 9q-27 0 -27 -63v-55q0 -58 27 -58q11 0 16 9.5t5 36.5z" />
    <glyph glyph-name="f_f_h" unicode="ffh" horiz-adv-x="1198" 
d="M1177 329v-329h-218v309q0 19 -12 19q-22 0 -22 -43v-285h-218v533q-33 4 -62 4q-27 0 -37.5 -7t-10.5 -24v-26h76v-162h-76v-318h-218v318h-100v-318h-218v318h-54v162h54v62q0 88 46 128.5t150 40.5q25 0 52 -3.5t41 -7.5l15 -3l-14 -164q-23 4 -44 4q-16 0 -22 -6
t-6 -23v-28h100v62q0 86 60 127.5t186 41.5q75 0 150 -8.5t113 -16.5l37 -8v-184l-1 -29l1 -1q38 26 96 26q75 0 115.5 -41.5t40.5 -119.5z" />
    <glyph glyph-name="f_f_j" unicode="ffj" horiz-adv-x="910" 
d="M885 480v-513q0 -203 -224 -203h-76v162h42q40 0 40 50v342h-70v-318h-218v318h-100v-318h-218v318h-54v162h54v62q0 88 46 128.5t150 40.5q25 0 52 -3.5t41 -7.5l15 -3l-14 -164q-23 4 -44 4q-16 0 -22 -6t-6 -23v-28h100v62q0 87 57.5 128t180.5 41q45 0 94 -6.5
t75 -12.5l27 -7l-26 -161q-70 13 -130 13q-36 0 -48 -9t-12 -30v-18h288z" />
    <glyph glyph-name="f_f_k" unicode="ffk" horiz-adv-x="1217" 
d="M980 0l-51 125h-4v-125h-218v533q-33 4 -62 4q-27 0 -37.5 -7t-10.5 -24v-26h76v-162h-76v-318h-218v318h-100v-318h-218v318h-54v162h54v62q0 88 46 128.5t150 40.5q25 0 52 -3.5t41 -7.5l15 -3l-14 -164q-23 4 -44 4q-16 0 -22 -6t-6 -23v-28h100v62q0 86 60 127.5
t186 41.5q75 0 150 -8.5t113 -16.5l37 -8v-330h2l47 132h236l-95 -236l105 -244h-240z" />
    <glyph glyph-name="f_f_y" unicode="ffy" horiz-adv-x="1200" 
d="M969 480h228l-153 -553q-24 -84 -79.5 -123.5t-155.5 -39.5h-139v162h103q47 0 60 45l8 29h-67l-104 318h-73v-318h-218v318h-100v-318h-218v318h-54v162h54v62q0 88 46 128.5t150 40.5q25 0 52 -3.5t41 -7.5l15 -3l-14 -164q-23 4 -44 4q-16 0 -22 -6t-6 -23v-28h100v62
q0 88 46 128.5t150 40.5q28 0 57.5 -4t45.5 -8l15 -4l-12 -164q-33 6 -56 6q-16 0 -22 -6t-6 -23v-28h247l50 -160l15 -73h4q7 45 14 73z" />
    <glyph glyph-name="t_t" unicode="tt" horiz-adv-x="713" 
d="M281 318v-109q0 -31 10.5 -44t33.5 -13h38l-10 -162h-80q-210 0 -210 178v150h-56v162h56v105l218 44v-149h120v105l218 44v-149h83v-162h-83v-109q0 -31 10.5 -44t33.5 -13h43l-10 -162h-85q-210 0 -210 178v150h-120z" />
    <glyph glyph-name="t_y" unicode="ty" horiz-adv-x="911" 
d="M680 480h228l-153 -553q-24 -84 -79.5 -123.5t-155.5 -39.5h-139v162h103q47 0 60 45l8 29h-67l-104 318h-100v-109q0 -31 10.5 -44t33.5 -13h43l-10 -162h-85q-210 0 -210 178v150h-56v162h56v105l218 44v-149h274l50 -160l15 -73h4q7 45 14 73z" />
    <glyph glyph-name="t_t_y" unicode="tty" horiz-adv-x="1249" 
d="M1018 480h228l-153 -553q-24 -84 -79.5 -123.5t-155.5 -39.5h-139v162h103q47 0 60 45l8 29h-67l-104 318h-100v-109q0 -31 10.5 -44t33.5 -13h43l-10 -162h-85q-210 0 -210 178v150h-120v-109q0 -31 10.5 -44t33.5 -13h38l-10 -162h-80q-210 0 -210 178v150h-56v162h56
v105l218 44v-149h120v105l218 44v-149h274l50 -160l15 -73h4q7 45 14 73z" />
    <glyph glyph-name="T_i" unicode="Ti" horiz-adv-x="733" 
d="M549 498h-149v-498h-242v498h-149v178h540v-178zM490 0v480h218v-480h-218z" />
    <glyph glyph-name="f_t_y" unicode="fty" horiz-adv-x="1227" 
d="M996 480h228l-153 -553q-24 -84 -79.5 -123.5t-155.5 -39.5h-139v162h103q47 0 60 45l8 29h-67l-104 318h-100v-109q0 -31 10.5 -44t33.5 -13h43l-10 -162h-85q-210 0 -210 178v150h-100v-318h-218v318h-54v162h54v62q0 88 46 128.5t150 40.5q22 0 46.5 -2.5t38.5 -5.5
l13 -3l-14 -165q-18 2 -34 2t-22 -6t-6 -23v-28h100v105l218 44v-149h274l50 -160l15 -73h4q7 45 14 73z" />
    <glyph glyph-name=".notdef" horiz-adv-x="470" 
d="M117 59h235v616h-235v-616zM59 0v733h353v-733h-353z" />
    <glyph glyph-name=".null" horiz-adv-x="0" 
 />
    <glyph glyph-name="nonmarkingreturn" horiz-adv-x="333" 
 />
    <glyph glyph-name="space" unicode=" " horiz-adv-x="235" 
 />
    <glyph glyph-name="exclam" unicode="!" horiz-adv-x="304" 
d="M264 603l-42 -357h-140l-42 357q-5 47 28 68t84 21q53 0 85.5 -20.5t26.5 -68.5zM252 85q0 -43 -27.5 -69t-72.5 -26q-44 0 -72 26t-28 69t28 69t72 26q45 0 72.5 -26t27.5 -69z" />
    <glyph glyph-name="quotedbl" unicode="&#x22;" horiz-adv-x="446" 
d="M76 418l-31 191q-5 40 -5 48q0 54 79 54t79 -54q0 -8 -5 -48l-31 -191h-86zM284 418l-31 191q-5 40 -5 48q0 54 79 54t79 -54q0 -8 -5 -48l-31 -191h-86z" />
    <glyph glyph-name="numbersign" unicode="#" horiz-adv-x="585" 
d="M63 350v160h103l26 168h132l-26 -168h46l26 168h132l-26 -168h69v-160h-94l-9 -59h80v-160h-105l-20 -131h-132l20 131h-46l-20 -131h-132l20 131h-67v160h92l9 59h-78zM273 350l-9 -59h46l9 59h-46z" />
    <glyph glyph-name="dollar" unicode="$" horiz-adv-x="590" 
d="M217 -92v85q-111 16 -177 49l42 192q113 -45 200 -45q36 0 36 20q0 13 -22 18l-64 15q-97 22 -149.5 72t-52.5 148q0 87 47 144t140 74v87h150v-87q76 -12 153 -45l-56 -192q-31 13 -81 26t-83 13q-28 0 -28 -20q0 -16 20 -20l56 -13q107 -24 159.5 -68t52.5 -135
t-46 -155.5t-147 -80.5v-82h-150z" />
    <glyph glyph-name="percent" unicode="%" horiz-adv-x="780" 
d="M222 525q0 39 -9 47q-6 5 -17 5t-17 -5q-9 -8 -9 -47q0 -33 9 -43q6 -6 17 -6t17 6q9 10 9 43zM352 526q0 -91 -46 -130q-33 -30 -110 -30t-111 30q-45 37 -45 130q0 89 43 128q37 33 113 33q74 0 113 -33q43 -38 43 -128zM493 703h144l-347 -723h-145zM610 149
q0 39 -9 47q-6 5 -17 5t-17 -5q-9 -8 -9 -47q0 -33 9 -43q6 -6 17 -6t17 6q9 10 9 43zM740 150q0 -91 -46 -130q-33 -30 -110 -30t-111 30q-45 37 -45 130q0 89 43 128q37 33 113 33q74 0 113 -33q43 -38 43 -128z" />
    <glyph glyph-name="ampersand" unicode="&#x26;" horiz-adv-x="622" 
d="M602 442v-198h-58v-209q-11 -5 -31 -12.5t-81 -20t-121 -12.5q-137 0 -199 42q-84 56 -84 172q0 95 53 143q21 19 46 28v3q-56 47 -56 132q0 83 59 132q53 44 171 44q40 0 81 -5t62 -11l21 -5l-25 -181q-51 4 -82 4q-45 0 -45 -25q0 -21 26 -21h263zM302 189v55h-21
q-11 0 -17 -7q-4 -5 -4 -20q0 -16 6 -22q5 -7 19 -7z" />
    <glyph glyph-name="quotesingle" unicode="'" horiz-adv-x="238" 
d="M76 418l-31 191q-5 40 -5 48q0 54 79 54t79 -54q0 -8 -5 -48l-31 -191h-86z" />
    <glyph glyph-name="parenleft" unicode="(" horiz-adv-x="310" 
d="M208 290q0 -108 24.5 -220t58.5 -185h-136q-125 188 -125 405q0 213 125 407h135q-36 -79 -59 -194.5t-23 -212.5z" />
    <glyph glyph-name="parenright" unicode=")" horiz-adv-x="310" 
d="M102 290q0 97 -23 212.5t-59 194.5h135q125 -194 125 -407q0 -217 -125 -405h-136q34 73 58.5 185t24.5 220z" />
    <glyph glyph-name="asterisk" unicode="*" horiz-adv-x="428" 
d="M118 616l62 -67q1 1 2.5 2t2.5 1l-44 81q-7 13 -7 34q0 45 80 45t80 -45q0 -21 -7 -34l-44 -81q1 -1 4 -3l63 67q9 9 30 17q43 14 68 -62t-18 -90q-19 -6 -35 -4l-90 17q0 -1 -2 -5l84 -39q15 -8 25 -24q27 -35 -38 -83q-65 -47 -91 -11q-12 17 -15 32l-12 91h-2h-3
l-11 -91q-3 -15 -15 -32q-26 -36 -91 11q-65 48 -38 83q10 16 25 24l83 39q0 1 -2 5l-89 -17q-16 -2 -35 4q-43 14 -18 90t68 62q21 -8 30 -17z" />
    <glyph glyph-name="plus" unicode="+" 
d="M45 170v140h135v135h140v-135h135v-140h-135v-135h-140v135h-135z" />
    <glyph glyph-name="comma" unicode="," horiz-adv-x="266" 
d="M33 85q0 43 27 69t72 26t73 -26.5t28 -68.5q0 -55 -33 -127l-44 -97l-72 11l18 118v4q-32 8 -50.5 32t-18.5 59z" />
    <glyph glyph-name="hyphen" unicode="-" horiz-adv-x="329" 
d="M42 165v150h245v-150h-245z" />
    <glyph glyph-name="period" unicode="." horiz-adv-x="266" 
d="M33 85q0 43 27.5 69t72.5 26q44 0 72 -26t28 -69t-28 -69t-72 -26q-45 0 -72.5 26t-27.5 69z" />
    <glyph glyph-name="slash" unicode="/" horiz-adv-x="328" 
d="M180 693h148l-180 -713h-148z" />
    <glyph glyph-name="zero" unicode="0" horiz-adv-x="590" 
d="M562 337q0 -117 -19.5 -180.5t-57.5 -102.5q-61 -64 -190 -64t-190 64q-38 39 -57.5 102.5t-19.5 180.5q0 199 70 279q30 35 84.5 52.5t112.5 17.5q132 0 195 -70q72 -81 72 -279zM320 338q0 120 -7 138q-5 12 -18 12t-18 -12q-7 -19 -7 -138q0 -117 7 -138q4 -12 18 -12
t18 12q7 21 7 138z" />
    <glyph glyph-name="one" unicode="1" horiz-adv-x="380" 
d="M330 676v-676h-242v439q0 8 -10 8h-58l-10 145l166 84h154z" />
    <glyph glyph-name="two" unicode="2" horiz-adv-x="502" 
d="M469 198v-198h-444v165l161 197q44 54 44 81q0 45 -60 45q-48 0 -110 -25l-35 179q92 44 193 44q125 0 192 -64t67 -162q0 -99 -59 -173l-50 -64l-26 -27l1 -3q26 5 43 5h83z" />
    <glyph glyph-name="three" unicode="3" horiz-adv-x="515" 
d="M487 216q0 -226 -257 -226q-53 0 -105.5 8t-78.5 16l-26 9l28 191q73 -16 136 -16q34 0 47.5 6.5t13.5 22.5q0 23 -33 23h-102v187h82q26 0 26 23q0 28 -44 28q-23 0 -49.5 -3.5t-42.5 -6.5l-15 -4l-29 180q93 32 196 32q115 0 170.5 -51.5t55.5 -139.5q0 -71 -47 -121
v-3q74 -53 74 -155z" />
    <glyph glyph-name="four" unicode="4" horiz-adv-x="555" 
d="M20 78v197l164 396h315v-395h36v-198h-36v-78h-242v78h-237zM234 302l-10 -26h43v16l9 119l-9 1q-25 -88 -33 -110z" />
    <glyph glyph-name="five" unicode="5" horiz-adv-x="502" 
d="M474 224q0 -127 -73 -188q-59 -47 -168 -47q-50 0 -100 8t-75 17l-25 8l16 184q74 -18 129 -18q30 0 42 6.5t12 23.5q0 26 -45 26q-12 0 -26.5 -2t-22.5 -4l-9 -3l-99 53l32 383h363v-198h-148l-2 -31h2q80 0 124 -32q73 -53 73 -186z" />
    <glyph glyph-name="six" unicode="6" horiz-adv-x="568" 
d="M540 228q0 -115 -69 -178q-65 -60 -188 -60t-185 68q-31 34 -50.5 93.5t-19.5 132.5q0 212 102 308q52 48 128 71t200 23l17 -186q-158 -6 -185 -53l3 -4q19 8 49 8q82 0 130 -39q68 -58 68 -184zM298 224q0 23 -3 31t-11 8l-14 -3v-36q0 -46 14 -46t14 46z" />
    <glyph glyph-name="seven" unicode="7" horiz-adv-x="425" 
d="M10 473v198h405v-133l-139 -538h-251l135 473h-150z" />
    <glyph glyph-name="eight" unicode="8" horiz-adv-x="564" 
d="M516 496q0 -79 -61 -142q81 -66 81 -165q0 -36 -12 -68.5t-39 -63.5t-79 -49t-124 -18q-69 0 -121 18.5t-79.5 48.5t-40.5 63t-13 69q0 96 73 162q-53 55 -53 141q0 81 62.5 137.5t171.5 56.5q108 0 171 -55t63 -135zM282 230l-6 3q-16 -14 -16 -32q0 -23 22 -23t22 23
q0 16 -22 29zM280 464l11 -7q13 16 13 32q0 19 -22 19t-22 -19q0 -13 20 -25z" />
    <glyph glyph-name="nine" unicode="9" horiz-adv-x="568" 
d="M28 448q0 113 69 176q30 27 80 44.5t108 17.5q123 0 185 -68q31 -34 50.5 -93.5t19.5 -132.5q0 -216 -100 -312q-50 -47 -125 -68.5t-201 -21.5l-21 186q158 6 185 53l-3 4q-19 -8 -49 -8q-82 0 -130 39q-68 58 -68 184zM270 452q0 -23 3 -31t11 -8l14 3v36q0 46 -14 46
t-14 -46z" />
    <glyph glyph-name="colon" unicode=":" horiz-adv-x="266" 
d="M33 85q0 43 27.5 69t72.5 26q44 0 72 -26t28 -69t-28 -69t-72 -26q-45 0 -72.5 26t-27.5 69zM33 376q0 43 27.5 69t72.5 26q44 0 72 -26t28 -69t-28 -69t-72 -26q-45 0 -72.5 26t-27.5 69z" />
    <glyph glyph-name="semicolon" unicode=";" horiz-adv-x="266" 
d="M33 376q0 43 27.5 69t72.5 26q44 0 72 -26t28 -69t-28 -69t-72 -26q-45 0 -72.5 26t-27.5 69zM33 85q0 43 27 69t72 26t73 -26.5t28 -68.5q0 -55 -33 -127l-44 -97l-72 11l18 118v4q-32 8 -50.5 32t-18.5 59z" />
    <glyph glyph-name="less" unicode="&#x3c;" 
d="M452 160v-168l-407 212v122l407 210v-168l-200 -103v-2z" />
    <glyph glyph-name="equal" unicode="=" 
d="M45 263v140h410v-140h-410zM45 77v140h410v-140h-410z" />
    <glyph glyph-name="greater" unicode="&#x3e;" 
d="M48 -8v168l200 103v2l-200 103v168l407 -210v-122z" />
    <glyph glyph-name="question" unicode="?" horiz-adv-x="416" 
d="M406 510q-1 -63 -23 -103t-67 -65q-37 -21 -46.5 -31.5t-10.5 -33.5l-1 -30h-176l-3 58q-4 76 6.5 106t50.5 53q27 14 34.5 20.5t7.5 14.5q0 15 -30 15q-42 0 -90 -14l-30 163q76 29 170 29q99 0 153.5 -46.5t54.5 -135.5zM71 85q0 43 27.5 69t72.5 26q44 0 72 -26
t28 -69t-28 -69t-72 -26q-45 0 -72.5 26t-27.5 69z" />
    <glyph glyph-name="at" unicode="@" horiz-adv-x="795" 
d="M670 122l22 -86q-105 -46 -280 -46q-76 0 -145.5 16t-113.5 45q-29 19 -48 37.5t-38.5 49.5t-29 77.5t-9.5 108.5q0 61 9.5 108t28 79t37 52t44.5 39q93 67 255 67q163 0 258 -67q107 -78 107 -229q0 -114 -62 -170.5t-156 -56.5q-101 0 -127 49h-5q-18 -18 -46 -29.5
t-55 -11.5q-49 0 -80 27.5t-31 80.5q0 54 21.5 111.5t61.5 91.5q48 44 149 44q32 0 67 -5.5t54 -10.5l20 -5l-43 -182q-11 -49 25 -49q87 0 87 111q0 101 -66 151q-60 45 -180 45q-117 0 -175 -45q-78 -57 -78 -195t81 -189q31 -20 85 -32.5t106 -12.5q150 0 250 32z
M416 314l22 81q-10 2 -25 2q-23 0 -37 -13q-12 -11 -22.5 -44t-10.5 -47q0 -27 23 -27q18 0 31.5 14.5t18.5 33.5z" />
    <glyph glyph-name="A" unicode="A" horiz-adv-x="678" 
d="M3 0l199 676h274l199 -676h-254l-15 72h-134l-15 -72h-254zM321 309l-8 -39h52l-8 39l-14 91h-8q-11 -76 -14 -91z" />
    <glyph glyph-name="B" unicode="B" horiz-adv-x="619" 
d="M597 208q0 -103 -62 -155.5t-176 -52.5h-327v676h296q119 0 181.5 -47t62.5 -137q0 -85 -54 -124v-2q79 -44 79 -158zM340 459q0 29 -26 29h-40v-60h40q26 0 26 31zM355 222q0 17 -7 25q-8 9 -24 9h-50v-68h50q16 0 24 9q7 9 7 25z" />
    <glyph glyph-name="C" unicode="C" horiz-adv-x="538" 
d="M489 207l38 -177q-84 -45 -204 -45q-130 0 -206 59q-100 78 -100 294q0 202 90 284q74 68 216 68q100 0 184 -32l-36 -181q-69 15 -114 15q-47 0 -69 -26q-29 -36 -29 -128q0 -97 29 -130q22 -25 73 -25q52 0 128 24z" />
    <glyph glyph-name="D" unicode="D" horiz-adv-x="628" 
d="M369 327q0 105 -22 132q-15 19 -52 19h-21v-280h37q25 0 38 14q20 22 20 115zM611 324q0 -100 -20.5 -158.5t-58.5 -97.5q-70 -68 -200 -68h-300v676h257q158 0 234 -76q43 -43 65.5 -102.5t22.5 -173.5z" />
    <glyph glyph-name="E" unicode="E" horiz-adv-x="518" 
d="M32 0v676h456v-198h-214v-44h150v-188h-150v-48h227v-198h-469z" />
    <glyph glyph-name="F" unicode="F" horiz-adv-x="476" 
d="M32 0v676h431v-198h-189v-71h141v-188h-141v-219h-242z" />
    <glyph glyph-name="G" unicode="G" horiz-adv-x="646" 
d="M259 336q0 -78 17.5 -115.5t67.5 -37.5l28 3v58h-75v178h317v-360q-55 -38 -127.5 -57.5t-139.5 -19.5q-150 0 -227 61q-49 38 -76 104.5t-27 185.5q0 195 96 282q82 72 227 72q139 0 252 -50l-43 -176q-106 28 -170 28q-69 0 -94.5 -34.5t-25.5 -121.5z" />
    <glyph glyph-name="H" unicode="H" horiz-adv-x="660" 
d="M386 0v249h-112v-249h-242v676h242v-229h112v229h242v-676h-242z" />
    <glyph glyph-name="I" unicode="I" horiz-adv-x="306" 
d="M32 0v676h242v-676h-242z" />
    <glyph glyph-name="J" unicode="J" horiz-adv-x="378" 
d="M351 676v-418q0 -74 -12 -122t-43.5 -84t-87.5 -51.5t-143 -15.5h-63v198q60 0 83.5 21.5t23.5 73.5v398h242z" />
    <glyph glyph-name="K" unicode="K" horiz-adv-x="648" 
d="M376 0l-95 217h-7v-217h-242v676h242v-240h7l101 240h254l-146 -336l151 -340h-265z" />
    <glyph glyph-name="L" unicode="L" horiz-adv-x="472" 
d="M32 0v676h242v-478h187v-198h-429z" />
    <glyph glyph-name="M" unicode="M" horiz-adv-x="784" 
d="M752 0h-242v140l6 101l-8 2q-19 -66 -29 -91l-39 -102h-96l-39 102l-29 91l-8 -2q6 -69 6 -101v-140h-242v676h267l92 -234h2l93 234h266v-676z" />
    <glyph glyph-name="N" unicode="N" horiz-adv-x="692" 
d="M274 144v-144h-242v676h242l98 -160q8 -14 19.5 -38t18.5 -42l8 -17l6 2q-6 70 -6 109v146h242v-676h-242l-98 158q-8 14 -19.5 38t-18.5 42l-8 17l-6 -2q6 -70 6 -109z" />
    <glyph glyph-name="O" unicode="O" horiz-adv-x="668" 
d="M409 337q0 107 -22 134q-17 21 -53 21t-53 -21q-22 -27 -22 -134q0 -101 21 -132q17 -22 54 -22t54 22q21 31 21 132zM651 337q0 -199 -96 -284q-75 -68 -222 -68q-145 0 -220 68q-96 85 -96 284q0 197 92 282q78 72 224 72q148 0 226 -72q92 -85 92 -282z" />
    <glyph glyph-name="P" unicode="P" horiz-adv-x="582" 
d="M312 190h-38v-190h-242v676h276q125 0 186 -57q71 -65 71 -185q0 -132 -73 -193q-62 -51 -180 -51zM323 434q0 27 -7 36q-5 8 -20 8h-22v-90h23q14 0 20 9q6 8 6 37z" />
    <glyph glyph-name="Q" unicode="Q" horiz-adv-x="668" 
d="M468 -95l-50 87q-47 -7 -85 -7q-145 0 -220 68q-96 85 -96 284q0 197 92 282q78 72 224 72q148 0 226 -72q92 -85 92 -282q0 -164 -62 -247l49 -85zM409 337q0 107 -22 134q-17 21 -53 21t-53 -21q-22 -27 -22 -134q0 -101 21 -132q17 -22 54 -22t54 22q21 31 21 132z
" />
    <glyph glyph-name="R" unicode="R" horiz-adv-x="608" 
d="M575 439q0 -118 -75 -185l105 -254h-254l-71 190h-6v-190h-242v676h285q123 0 183 -54q75 -67 75 -183zM333 434q0 26 -6 34q-7 10 -23 10h-30v-90h30q16 0 23 9q6 7 6 37z" />
    <glyph glyph-name="S" unicode="S" horiz-adv-x="564" 
d="M547 226q0 -106 -61.5 -173.5t-197.5 -67.5q-62 0 -139.5 18t-121.5 39l42 192q113 -45 200 -45q36 0 36 22q0 14 -22 19l-64 15q-98 23 -150 71t-52 146q0 105 66.5 167t195.5 62q110 0 228 -51l-56 -192q-31 13 -81 26t-83 13q-28 0 -28 -22q0 -16 20 -20l56 -13
q106 -24 159 -69t53 -137z" />
    <glyph glyph-name="T" unicode="T" horiz-adv-x="558" 
d="M549 478h-149v-478h-242v478h-149v198h540v-198z" />
    <glyph glyph-name="U" unicode="U" horiz-adv-x="620" 
d="M591 676v-449q0 -116 -77.5 -179t-203.5 -63t-203.5 63t-77.5 179v449h242v-438q0 -55 39 -55t39 55v438h242z" />
    <glyph glyph-name="V" unicode="V" horiz-adv-x="678" 
d="M194 0l-191 676h252l51 -196q4 -15 11.5 -60t12.5 -82l6 -38h6q21 146 30 180l51 196h252l-191 -676h-290z" />
    <glyph glyph-name="W" unicode="W" horiz-adv-x="988" 
d="M562 0l-52 190l-13 80h-6q-5 -50 -13 -80l-52 -190h-247l-176 676h250l56 -216q5 -20 8.5 -45.5t4.5 -40.5l2 -16h6q6 58 18 102l47 174h198l47 -174q5 -20 9.5 -45.5t6.5 -40.5l2 -16h6q4 59 15 102l56 216h250l-176 -676h-247z" />
    <glyph glyph-name="X" unicode="X" horiz-adv-x="650" 
d="M3 0l141 348l-133 328h258l32 -89q5 -12 10 -34t8 -38l3 -16h6q10 60 21 88l32 89h258l-133 -328l141 -348h-259l-39 100q-5 13 -10.5 33.5t-8.5 34.5l-3 13h-4q-10 -51 -22 -81l-39 -100h-259z" />
    <glyph glyph-name="Y" unicode="Y" horiz-adv-x="674" 
d="M671 676l-213 -442v-234h-242v234l-213 442h266l45 -112q5 -13 10 -33t8 -34l2 -14h6q8 52 20 81l45 112h266z" />
    <glyph glyph-name="Z" unicode="Z" horiz-adv-x="573" 
d="M556 0h-539l180 421q7 15 14.5 28.5t12.5 18.5l4 6v4h-181v198h509l-182 -425q-6 -14 -14 -27t-13 -18l-5 -6v-2h214v-198z" />
    <glyph glyph-name="bracketleft" unicode="[" horiz-adv-x="338" 
d="M318 -8v-102h-268v811h268v-102h-90v-607h90z" />
    <glyph glyph-name="backslash" unicode="\" horiz-adv-x="328" 
d="M0 693h148l180 -713h-148z" />
    <glyph glyph-name="bracketright" unicode="]" horiz-adv-x="338" 
d="M20 -110v102h90v607h-90v102h268v-811h-268z" />
    <glyph glyph-name="asciicircum" unicode="^" 
d="M283 677l197 -307h-155l-72 107h-6l-72 -107h-155l199 307h64z" />
    <glyph glyph-name="underscore" unicode="_" 
d="M500 -51v-87h-500v87h500z" />
    <glyph glyph-name="grave" unicode="`" horiz-adv-x="470" 
d="M88 648q0 33 42 33h62q55 0 79 -34l76 -113h-111l-109 71q-16 11 -21.5 15t-11.5 11.5t-6 16.5z" />
    <glyph glyph-name="a" unicode="a" horiz-adv-x="545" 
d="M454 -11q-91 0 -136 51h-2q-39 -50 -130 -50q-84 0 -126.5 43.5t-42.5 112.5q0 126 146 157q57 12 121 12v6q0 11 -30 11q-96 0 -182 -40l-35 142q46 23 114.5 39.5t122.5 16.5q114 0 171 -44.5t57 -125.5v-130q0 -17 5.5 -24t17.5 -10l18 -5l-28 -155q-20 -7 -61 -7z
M243 151q16 0 41 16v23q-30 -2 -44 -6q-15 -4 -15 -17q0 -16 18 -16z" />
    <glyph glyph-name="b" unicode="b" horiz-adv-x="526" 
d="M291 198v82q0 30 -5 39t-16 9q-27 0 -27 -63v-55q0 -58 27 -58q11 0 16 9.5t5 36.5zM509 241q0 -124 -42.5 -187.5t-140.5 -63.5q-71 0 -110 48h-3l-23 -38h-165v696h218v-202l-1 -32l2 -1q38 29 96 29q89 0 129 -58t40 -191z" />
    <glyph glyph-name="c" unicode="c" horiz-adv-x="417" 
d="M388 174l27 -144q-67 -40 -160 -40q-110 0 -170 50q-68 56 -68 201q0 139 70 201q56 48 164 48q86 0 154 -31l-28 -147q-42 16 -80 16q-31 0 -46.5 -20t-14.5 -67q1 -48 15.5 -68.5t45.5 -20.5q18 0 41 5.5t36 10.5z" />
    <glyph glyph-name="d" unicode="d" horiz-adv-x="544" 
d="M501 696v-506q0 -17 5.5 -24t17.5 -10l18 -5l-28 -155q-20 -7 -61 -7q-94 0 -137 52h-1q-40 -51 -114 -51q-90 0 -137 59.5t-47 191.5q0 125 44.5 187t141.5 62q46 0 80 -17l1 1q-1 13 -1 26v196h218zM235 277v-76q0 -49 23 -49q25 0 25 58v51q0 67 -25 67
q-12 0 -17.5 -10.5t-5.5 -40.5z" />
    <glyph glyph-name="e" unicode="e" horiz-adv-x="521" 
d="M235 305h62q0 18 -6.5 25.5t-22.5 7.5q-33 0 -33 -33zM469 164l11 -144q-84 -30 -195 -30q-144 0 -206 62.5t-62 188.5q0 249 253 249q234 0 234 -208q0 -25 -3 -52t-6 -41l-3 -14h-257q0 -23 60 -23q62 0 174 12z" />
    <glyph glyph-name="f" unicode="f" horiz-adv-x="372" 
d="M375 695l-12 -164q-33 6 -56 6q-16 0 -22 -6t-6 -23v-28h86v-162h-86v-318h-218v318h-54v162h54v62q0 88 46 128.5t150 40.5q28 0 57.5 -4t45.5 -8z" />
    <glyph glyph-name="g" unicode="g" horiz-adv-x="555" 
d="M276 127l-37 2q-4 -5 -4 -12q0 -14 15 -14h68q103 0 155 -41t52 -119q0 -87 -58.5 -133t-163.5 -46h-72q-101 0 -157.5 36.5t-56.5 102.5q0 55 43 95q-33 30 -33 77q0 59 53 100q-53 47 -53 125q0 84 58.5 137t173.5 53q26 0 52.5 -2.5t40.5 -5.5l13 -2h183v-163h-36
l-25 4l-1 -2q8 -16 8 -39q0 -69 -53 -111t-165 -42zM294 -45h-59q-6 -6 -6 -14q0 -18 20 -18h45q19 0 19 17q0 15 -19 15zM261 358q-9 0 -12.5 -9.5t-3.5 -40.5q0 -30 3 -39.5t13 -9.5t13 9.5t3 39.5q0 31 -3.5 40.5t-12.5 9.5z" />
    <glyph glyph-name="h" unicode="h" horiz-adv-x="516" 
d="M495 329v-329h-218v309q0 19 -12 19q-22 0 -22 -43v-285h-218v696h218v-202l-1 -29l1 -1q38 26 96 26q75 0 115.5 -41.5t40.5 -119.5z" />
    <glyph glyph-name="i" unicode="i" horiz-adv-x="268" 
d="M25 0v480h218v-480h-218zM15 603q0 47 32.5 71t86.5 24t86.5 -24t32.5 -71q0 -46 -32.5 -70.5t-86.5 -24.5t-86.5 24.5t-32.5 70.5z" />
    <glyph glyph-name="j" unicode="j" horiz-adv-x="278" 
d="M253 480v-513q0 -203 -224 -203h-76v162h42q40 0 40 50v504h218zM25 603q0 47 32.5 71t86.5 24t86.5 -24t32.5 -71q0 -46 -32.5 -70.5t-86.5 -24.5t-86.5 24.5t-32.5 70.5z" />
    <glyph glyph-name="k" unicode="k" horiz-adv-x="535" 
d="M298 0l-51 125h-4v-125h-218v696h218v-348h2l47 132h236l-95 -236l105 -244h-240z" />
    <glyph glyph-name="l" unicode="l" horiz-adv-x="300" 
d="M298 151l-16 -157q-32 -5 -58 -5q-103 0 -151 38.5t-48 131.5v537h218v-504q0 -27 23 -33z" />
    <glyph glyph-name="m" unicode="m" horiz-adv-x="756" 
d="M517 0v310q0 18 -11 18q-17 0 -17 -38v-290h-218v310q0 18 -11 18q-17 0 -17 -38v-290h-218v480h160l23 -40h2q41 50 124 50q79 0 118 -50h2q48 50 127 50q75 0 114.5 -42t39.5 -121v-327h-218z" />
    <glyph glyph-name="n" unicode="n" horiz-adv-x="516" 
d="M495 329v-329h-218v309q0 19 -12 19q-22 0 -22 -43v-285h-218v480h160l23 -40h3q45 50 126 50q76 0 117 -41.5t41 -119.5z" />
    <glyph glyph-name="o" unicode="o" horiz-adv-x="512" 
d="M495 240q0 -132 -65 -197q-53 -53 -174 -53t-174 53q-65 65 -65 197q0 134 67 197q56 53 172 53q114 0 172 -53q39 -36 53 -83.5t14 -113.5zM277 241q0 52 -4 69.5t-17 17.5t-17 -17.5t-4 -69.5q0 -54 4 -71.5t17 -17.5t17 17.5t4 71.5z" />
    <glyph glyph-name="p" unicode="p" horiz-adv-x="526" 
d="M25 480h160l23 -40h3q44 50 125 50q84 0 128.5 -55.5t44.5 -193.5q0 -251 -183 -251q-47 0 -83 17l-2 -1q2 -21 2 -38v-195h-218v707zM291 198v82q0 30 -4.5 39t-16.5 9q-27 0 -27 -63v-55q0 -58 27 -58q11 0 16 9.5t5 36.5z" />
    <glyph glyph-name="q" unicode="q" horiz-adv-x="522" 
d="M279 212v114q-6 2 -13 2q-17 0 -24 -17t-7 -70q0 -38 3 -58t7 -25.5t12 -5.5q22 0 22 60zM497 464v-690h-218v200l2 33l-1 1q-34 -18 -78 -18q-102 0 -143.5 60t-41.5 190q0 136 67 195q62 55 194 55q49 0 104 -6.5t85 -13.5z" />
    <glyph glyph-name="r" unicode="r" horiz-adv-x="365" 
d="M310 490h48l-12 -192h-44q-29 0 -44 -16.5t-15 -58.5v-223h-218v480h160l23 -40h2q32 50 100 50z" />
    <glyph glyph-name="s" unicode="s" horiz-adv-x="502" 
d="M485 164q0 -78 -53.5 -126t-164.5 -48q-148 0 -250 48l34 144q110 -34 191 -34q25 0 25 9q0 5 -11 6q-77 6 -90 9q-144 28 -144 146q0 79 58.5 125.5t162.5 46.5q109 0 212 -41l-36 -143q-94 28 -161 28q-18 0 -18 -8q0 -6 9 -7q54 -5 96 -13q140 -27 140 -142z" />
    <glyph glyph-name="t" unicode="t" horiz-adv-x="375" 
d="M7 318v162h56v105l218 44v-149h83v-162h-83v-109q0 -31 10.5 -44t33.5 -13h43l-10 -162h-85q-210 0 -210 178v150h-56z" />
    <glyph glyph-name="u" unicode="u" horiz-adv-x="534" 
d="M491 480v-290q0 -17 5.5 -24t17.5 -10l18 -5l-28 -155q-20 -7 -61 -7q-90 0 -135 51h-2q-48 -50 -119 -50q-85 0 -125.5 45t-40.5 135v310h218v-302q0 -26 15 -26q19 0 19 66v262h218z" />
    <glyph glyph-name="v" unicode="v" horiz-adv-x="544" 
d="M320 480h221l-139 -480h-260l-139 480h222l32 -133l13 -77h4q7 55 13 77z" />
    <glyph glyph-name="w" unicode="w" horiz-adv-x="760" 
d="M312 469h136l30 -97l17 -71h3q4 40 12 71l27 108h220l-139 -480h-189l-32 107l-15 64h-4q-8 -41 -15 -64l-32 -107h-189l-139 480h220l27 -108l12 -71h3q8 42 17 71z" />
    <glyph glyph-name="x" unicode="x" horiz-adv-x="561" 
d="M446 250l112 -250h-233l-32 84l-11 44h-4q-6 -31 -11 -44l-31 -84h-233l111 250l-101 230h229l25 -68l11 -44h4q5 29 11 44l24 68h230z" />
    <glyph glyph-name="y" unicode="y" horiz-adv-x="586" 
d="M355 480h228l-153 -553q-24 -84 -79.5 -123.5t-155.5 -39.5h-139v162h103q47 0 60 45l8 29h-67l-157 480h227l50 -160l15 -73h4q7 45 14 73z" />
    <glyph glyph-name="z" unicode="z" horiz-adv-x="453" 
d="M35 318v162h401v-85l-104 -187q-6 -11 -13.5 -22t-12.5 -16l-4 -5l1 -3h133v-162h-419v81l110 198l26 37l-1 2h-117z" />
    <glyph glyph-name="braceleft" unicode="{" horiz-adv-x="330" 
d="M310 -8v-102q-121 0 -175.5 38t-54.5 131v110v23t-2.5 18t-6.5 15t-13 8t-22 4h-16v116h16q13 0 22 4t13 8t6.5 15t2.5 18v23v111q0 93 54.5 131t175.5 38v-102q-37 -4 -44.5 -18t-7.5 -64v-104q0 -43 -21 -72.5t-62 -36.5v-19q40 -6 61.5 -35.5t21.5 -72.5v-103
q0 -50 7.5 -64t44.5 -18z" />
    <glyph glyph-name="bar" unicode="|" horiz-adv-x="250" 
d="M50 -40v752h150v-752h-150z" />
    <glyph glyph-name="braceright" unicode="}" horiz-adv-x="330" 
d="M20 -110v102q37 4 44.5 18t7.5 64v103q0 43 21.5 72.5t61.5 35.5v19q-41 7 -62 36.5t-21 72.5v104q0 50 -7.5 64t-44.5 18v102q121 0 175.5 -38t54.5 -131v-111v-23t2.5 -18t6.5 -15t13 -8t22 -4h16v-116h-16q-13 0 -22 -4t-13 -8t-6.5 -15t-2.5 -18v-23v-110
q0 -93 -54.5 -131t-175.5 -38z" />
    <glyph glyph-name="asciitilde" unicode="~" 
d="M368 331h95q0 -112 -33 -154.5t-129 -21.5l-104 22q-70 16 -70 -34h-90q0 29 2.5 52.5t9 47.5t18 39t29.5 27.5t43 13t59 -4.5l105 -22q34 -7 49.5 1t15.5 34z" />
    <glyph glyph-name="nbspace" unicode="&#xa0;" horiz-adv-x="235" 
 />
    <glyph glyph-name="exclamdown" unicode="&#xa1;" horiz-adv-x="304" 
d="M40 -124l42 357h140l42 -357q5 -47 -28 -68t-84 -21q-53 0 -85.5 20.5t-26.5 68.5zM52 394q0 43 27.5 69t72.5 26q44 0 72 -26t28 -69t-28 -69t-72 -26q-45 0 -72.5 26t-27.5 69z" />
    <glyph glyph-name="cent" unicode="&#xa2;" horiz-adv-x="423" 
d="M168 -75v75q-46 11 -80 40q-68 56 -68 201q0 139 70 201q31 26 78 38v75h150v-70q45 -6 90 -26l-28 -147q-42 16 -80 16q-31 0 -46.5 -20t-14.5 -67q1 -48 15.5 -68.5t45.5 -20.5q18 0 41 5.5t37 10.5l13 6l27 -144q-44 -26 -100 -35v-70h-150z" />
    <glyph glyph-name="sterling" unicode="&#xa3;" horiz-adv-x="568" 
d="M9 303v120h60v66q0 101 60 151.5t175 50.5q91 0 181 -32l-32 -179q-62 13 -91 13q-28 0 -39.5 -12t-11.5 -39v-19h134v-120h-134v-86q0 -10 -2 -26q9 -3 19 -3q20 0 21 30l1 21h198v-72q0 -177 -178 -177q-54 0 -118 16q-42 10 -80 10q-54 0 -104 -28l-59 188
q36 16 48 32.5t12 49.5v45h-60z" />
    <glyph glyph-name="currency" unicode="&#xa4;" horiz-adv-x="550" 
d="M73 287q0 54 27 102l-60 61l70 70l59 -60q49 30 106 30q58 0 105 -30l60 60l70 -70l-60 -60q28 -47 28 -103q0 -57 -30 -106l62 -61l-70 -70l-63 62q-48 -27 -102 -27q-55 0 -103 27l-62 -62l-70 70l62 62q-29 46 -29 105zM173 287q0 -42 30 -72t72 -30t71.5 30t29.5 72
t-29.5 71.5t-71.5 29.5t-72 -29.5t-30 -71.5z" />
    <glyph glyph-name="yen" unicode="&#xa5;" horiz-adv-x="688" 
d="M80 244v120h83l1 3q-11 12 -16 23l-138 286h266l45 -112q5 -13 10 -33t7 -34l3 -14h6q8 52 20 81l45 112h266l-138 -286l-16 -24l1 -2h81v-120h-136l-5 -10v-20h141v-120h-141v-94h-242v94h-143v120h143v20l-5 10h-138z" />
    <glyph glyph-name="brokenbar" unicode="&#xa6;" horiz-adv-x="250" 
d="M200 165v-353h-150v353h150zM200 692v-354h-150v354h150z" />
    <glyph glyph-name="section" unicode="&#xa7;" horiz-adv-x="552" 
d="M94 -167l32 166q52 -15 97 -15q44 0 44 26q0 16 -36 31l-103 45q-49 21 -76 61.5t-27 94.5q0 95 64 161q-22 41 -22 92q0 93 61.5 144.5t177.5 51.5q92 0 152 -22l-32 -166q-52 15 -97 15q-44 0 -44 -26q0 -16 36 -31l103 -45q49 -21 76 -61.5t27 -94.5q0 -95 -65 -162
q23 -40 23 -91q0 -93 -61.5 -144.5t-177.5 -51.5q-92 0 -152 22zM282 271l-37 16q-3 -9 -3 -18q0 -26 28 -38l37 -17q3 10 3 19q0 26 -28 38z" />
    <glyph glyph-name="dieresis" unicode="&#xa8;" horiz-adv-x="470" 
d="M34 603q0 47 25.5 71t67.5 24t67.5 -24t25.5 -71q0 -46 -25.5 -70.5t-67.5 -24.5t-67.5 24.5t-25.5 70.5zM250 603q0 47 25.5 71t67.5 24t67.5 -24t25.5 -71q0 -46 -25.5 -70.5t-67.5 -24.5t-67.5 24.5t-25.5 70.5z" />
    <glyph glyph-name="copyright" unicode="&#xa9;" horiz-adv-x="761" 
d="M625 320q0 101 -71 172t-173 71t-173 -71t-71 -173t71 -173t174 -71q101 0 172 71t71 174zM715 320q0 -139 -97.5 -237t-235.5 -98q-139 0 -237 97.5t-98 236.5t97.5 236.5t236.5 97.5t236.5 -97.5t97.5 -235.5zM478 245l15 -84q-40 -20 -101 -20q-64 0 -101 29
q-49 41 -49 149q0 100 47 145q36 32 103 32q51 0 90 -12l-15 -87q-30 6 -49 6q-33 0 -47 -14q-18 -18 -18 -70t19 -71q13 -12 46 -12q20 0 60 9z" />
    <glyph glyph-name="ordfeminine" unicode="&#xaa;" horiz-adv-x="311" 
d="M252 441q-52 0 -75 26h-2q-20 -26 -74 -26q-42 0 -64 20.5t-22 56.5q0 57 73 76q27 7 80 7v7q0 11 -22 11q-55 0 -107 -20l-14 68q60 24 128 24q58 0 90.5 -22.5t32.5 -62.5v-65q0 -14 12 -17l8 -2l-13 -78q-10 -3 -31 -3zM135 513q18 0 33 11v14q-24 0 -34 -2
q-11 -2 -11 -12q0 -11 12 -11z" />
    <glyph glyph-name="guillemotleft" unicode="&#xab;" horiz-adv-x="554" 
d="M141 27l-121 211l121 211h156l-121 -211l121 -211h-156zM378 27l-121 211l121 211h156l-121 -211l121 -211h-156z" />
    <glyph glyph-name="logicalnot" unicode="&#xac;" 
d="M455 310v-229h-140v89h-270v140h410z" />
    <glyph glyph-name="registered" unicode="&#xae;" horiz-adv-x="459" 
d="M439 509q0 -85 -57.5 -142.5t-151.5 -57.5q-95 0 -152.5 57.5t-57.5 142.5t57.5 142t152.5 57q94 0 151.5 -57t57.5 -142zM81 509q0 -62 39.5 -102.5t109.5 -40.5t110 40.5t40 102.5t-40 103t-110 41t-109.5 -41t-39.5 -103zM149 409v204h104q26 0 42 -17t16 -47
q0 -47 -30 -60l49 -80h-63l-43 74h-17v-74h-58zM255 549q0 19 -18 19h-30v-40h30q18 0 18 21z" />
    <glyph glyph-name="macron" unicode="&#xaf;" horiz-adv-x="470" 
d="M372 660v-116h-274v116h274z" />
    <glyph glyph-name="degree" unicode="&#xb0;" horiz-adv-x="373" 
d="M331 567q0 -60 -42.5 -102.5t-101.5 -42.5q-60 0 -102.5 42.5t-42.5 101.5q0 60 42.5 102.5t101.5 42.5q60 0 102.5 -42.5t42.5 -101.5zM217 566q0 13 -9 22t-22 9t-21.5 -9t-8.5 -22t8.5 -21.5t21.5 -8.5t22 8.5t9 21.5z" />
    <glyph glyph-name="plusminus" unicode="&#xb1;" 
d="M45 0v140h410v-140h-410zM45 261v140h135v95h140v-95h135v-140h-135v-92h-140v92h-135z" />
    <glyph glyph-name="twosuperior" unicode="&#xb2;" horiz-adv-x="283" 
d="M255 448v-98h-229v85l71 92q30 40 30 50q0 16 -23 16q-30 0 -70 -20l-19 92q50 26 109 26q60 0 95.5 -31t35.5 -81q0 -49 -34 -90l-16 -20q-6 -7 -13 -13t-12 -8l-4 -3l2 -4q24 7 36 7h41z" />
    <glyph glyph-name="threesuperior" unicode="&#xb3;" horiz-adv-x="271" 
d="M252 454q0 -52 -35 -80t-102 -28q-28 0 -53.5 3.5t-37.5 6.5l-12 4l10 92q28 -8 65 -8t37 15q0 11 -22 11h-59v98h49q18 0 18 11q0 14 -27 14l-53 -4l-12 88q45 14 94 14q65 0 95.5 -25t30.5 -68q0 -41 -35 -64v-2q49 -20 49 -78z" />
    <glyph glyph-name="acute" unicode="&#xb4;" horiz-adv-x="470" 
d="M437 648q0 -3 -0.5 -5.5t-1 -4.5t-2.5 -4.5t-3 -4t-3.5 -4l-4 -4t-5.5 -4t-5.5 -3.5t-6.5 -4.5t-7 -4.5l-109 -71h-111l76 113q24 34 79 34h62q42 0 42 -33z" />
    <glyph glyph-name="mu" unicode="&#xb5;" horiz-adv-x="554" 
d="M38 -227v707h218v-302q0 -26 15 -26q19 0 19 66v262h218v-290q0 -17 5.5 -24t17.5 -10l18 -5l-28 -155q-20 -7 -61 -7q-90 0 -135 51h-2q-33 -33 -67 -43v-224h-218z" />
    <glyph glyph-name="paragraph" unicode="&#xb6;" horiz-adv-x="508" 
d="M312 0v545h-35v-545h-130v319q-60 20 -93.5 65t-33.5 111q0 82 54.5 132t146.5 50h267v-132h-46v-545h-130z" />
    <glyph glyph-name="periodcentered" unicode="&#xb7;" horiz-adv-x="272" 
d="M36 248q0 43 27.5 69t72.5 26q44 0 72 -26t28 -69t-28 -69t-72 -26q-45 0 -72.5 26t-27.5 69z" />
    <glyph glyph-name="cedilla" unicode="&#xb8;" horiz-adv-x="470" 
d="M412 -127q0 -89 -131 -89q-25 0 -55 2.5t-48 5.5l-18 2l6 71q54 -5 80 -5q30 0 30 20q0 16 -29 16h-66l23 108h110l-11 -46h10q99 0 99 -85z" />
    <glyph glyph-name="onesuperior" unicode="&#xb9;" horiz-adv-x="199" 
d="M178 687v-337h-128v217q0 8 -10 8h-32l-5 72l83 40h92z" />
    <glyph glyph-name="ordmasculine" unicode="&#xba;" horiz-adv-x="284" 
d="M161 566q0 27 -3.5 37t-15.5 10t-15.5 -10t-3.5 -37t3.5 -37t15.5 -10t15.5 10t3.5 37zM269 566q0 -68 -35 -99q-29 -26 -92 -26t-92 26q-35 32 -35 99q0 68 37 100q30 25 90 25q63 0 91 -25q36 -32 36 -100z" />
    <glyph glyph-name="guillemotright" unicode="&#xbb;" horiz-adv-x="554" 
d="M534 238l-121 -211h-156l121 211l-121 211h156zM297 238l-121 -211h-156l121 211l-121 211h156z" />
    <glyph glyph-name="onequarter" unicode="&#xbc;" horiz-adv-x="597" 
d="M178 676v-337h-128v217q0 8 -10 8h-32l-5 72l83 40h92zM353 693h144l-319 -713h-145zM300 51v90l85 194h168v-186h29v-98h-29v-51h-128v51h-125zM440 149v17l5 65l-8 1q-14 -44 -20 -58l-12 -25h35z" />
    <glyph glyph-name="onehalf" unicode="&#xbd;" horiz-adv-x="610" 
d="M178 676v-337h-128v217q0 8 -10 8h-32l-5 72l83 40h92zM353 693h144l-319 -713h-145zM582 98v-98h-229v85l71 92q30 40 30 50q0 16 -23 16q-30 0 -70 -20l-19 92q50 26 109 26q60 0 95.5 -31t35.5 -81q0 -49 -34 -90l-16 -20q-6 -7 -13 -13t-11 -8l-5 -3l2 -4q24 7 36 7
h41z" />
    <glyph glyph-name="threequarters" unicode="&#xbe;" horiz-adv-x="656" 
d="M252 443q0 -52 -35 -80t-102 -28q-28 0 -53.5 3.5t-37.5 7.5l-12 3l10 92q28 -8 65 -8t37 15q0 11 -22 11h-59v98h49q18 0 18 11q0 14 -27 14l-53 -4l-12 88q45 14 94 14q65 0 95.5 -25t30.5 -68q0 -41 -35 -64v-2q49 -20 49 -78zM410 693h144l-319 -713h-145zM359 51v90
l85 194h168v-186h29v-98h-29v-51h-128v51h-125zM499 149v17l5 65l-8 1q-14 -44 -20 -58l-12 -25h35z" />
    <glyph glyph-name="questiondown" unicode="&#xbf;" horiz-adv-x="416" 
d="M10 -31q1 63 23 103t67 65q37 21 46.5 31.5t10.5 33.5l1 30h176l3 -58q4 -76 -6.5 -106t-50.5 -53q-27 -14 -34.5 -20.5t-7.5 -14.5q0 -15 30 -15q42 0 90 14l30 -163q-76 -29 -170 -29q-99 0 -153.5 46.5t-54.5 135.5zM145 394q0 43 27.5 69t72.5 26q44 0 72 -26t28 -69
t-28 -69t-72 -26q-45 0 -72.5 26t-27.5 69z" />
    <glyph glyph-name="Agrave" unicode="&#xc0;" horiz-adv-x="678" 
d="M3 0l199 676h274l199 -676h-254l-15 72h-134l-15 -72h-254zM321 309l-8 -39h52l-8 39l-14 91h-8q-11 -76 -14 -91zM165 847q0 33 42 33h62q55 0 79 -34l76 -113h-111l-109 71q-16 11 -21.5 15t-11.5 11.5t-6 16.5z" />
    <glyph glyph-name="Aacute" unicode="&#xc1;" horiz-adv-x="678" 
d="M3 0l199 676h274l199 -676h-254l-15 72h-134l-15 -72h-254zM321 309l-8 -39h52l-8 39l-14 91h-8q-11 -76 -14 -91zM494 846q0 -3 -0.5 -5.5t-1 -4.5t-2.5 -4.5t-3 -4t-3.5 -4l-4 -4t-5.5 -4t-5.5 -3.5t-6.5 -4.5t-7 -4.5l-109 -71h-111l76 113q24 34 79 34h62
q42 0 42 -33z" />
    <glyph glyph-name="Acircumflex" unicode="&#xc2;" horiz-adv-x="678" 
d="M3 0l199 676h274l199 -676h-254l-15 72h-134l-15 -72h-254zM321 309l-8 -39h52l-8 39l-14 91h-8q-11 -76 -14 -91zM387 886l117 -121l-34 -49l-125 46h-11l-125 -46l-34 49l117 121h95z" />
    <glyph glyph-name="Atilde" unicode="&#xc3;" horiz-adv-x="678" 
d="M3 0l199 676h274l199 -676h-254l-15 72h-134l-15 -72h-254zM321 309l-8 -39h52l-8 39l-14 91h-8q-11 -76 -14 -91zM452 892l63 -51q-7 -42 -32.5 -74t-77.5 -32q-24 0 -67 17.5t-57 17.5q-30 0 -49 -39l-63 51q6 38 32.5 72t77.5 34q24 0 66.5 -17.5t56.5 -17.5
q32 0 50 39z" />
    <glyph glyph-name="Adieresis" unicode="&#xc4;" horiz-adv-x="678" 
d="M3 0l199 676h274l199 -676h-254l-15 72h-134l-15 -72h-254zM321 309l-8 -39h52l-8 39l-14 91h-8q-11 -76 -14 -91zM138 807q0 47 25.5 71t67.5 24t67.5 -24t25.5 -71q0 -46 -25.5 -70.5t-67.5 -24.5t-67.5 24.5t-25.5 70.5zM354 807q0 47 25.5 71t67.5 24t67.5 -24
t25.5 -71q0 -46 -25.5 -70.5t-67.5 -24.5t-67.5 24.5t-25.5 70.5z" />
    <glyph glyph-name="Aring" unicode="&#xc5;" horiz-adv-x="678" 
d="M3 0l199 676q-9 22 -9 51q0 60 38.5 96.5t107.5 36.5t107.5 -36.5t38.5 -96.5q0 -29 -9 -51l199 -676h-254l-15 72h-134l-15 -72h-254zM321 309l-8 -39h52l-8 39l-14 91h-8q-11 -76 -14 -91zM381 728q0 17 -11.5 28.5t-30.5 11.5t-30.5 -11.5t-11.5 -28.5
q0 -16 11.5 -26.5t30.5 -10.5t30.5 10.5t11.5 26.5z" />
    <glyph glyph-name="AE" unicode="&#xc6;" horiz-adv-x="874" 
d="M388 0v72h-109l-20 -72h-256l230 676h611v-198h-214v-44h150v-188h-150v-48h227v-198h-469zM344 309l-11 -39h55v167l-13 1q-27 -114 -31 -129z" />
    <glyph glyph-name="Ccedilla" unicode="&#xc7;" horiz-adv-x="538" 
d="M446 -127q0 -89 -131 -89q-25 0 -55 2.5t-48 5.5l-18 2l6 71q54 -5 80 -5q30 0 30 20q0 16 -29 16h-66l20 98q-71 14 -118 50q-100 78 -100 294q0 202 90 284q74 68 216 68q100 0 184 -32l-36 -181q-69 15 -114 15q-47 0 -69 -26q-29 -36 -29 -128q0 -97 29 -130
q22 -25 73 -25q52 0 128 24l38 -177q-76 -40 -184 -45l-6 -27h10q99 0 99 -85z" />
    <glyph glyph-name="Egrave" unicode="&#xc8;" horiz-adv-x="518" 
d="M32 0v676h456v-198h-214v-44h150v-188h-150v-48h227v-198h-469zM79 847q0 33 42 33h62q55 0 79 -34l76 -113h-111l-109 71q-16 11 -21.5 15t-11.5 11.5t-6 16.5z" />
    <glyph glyph-name="Eacute" unicode="&#xc9;" horiz-adv-x="518" 
d="M32 0v676h456v-198h-214v-44h150v-188h-150v-48h227v-198h-469zM429 848q0 -3 -0.5 -5.5t-1 -4.5t-2.5 -4.5t-3 -4t-3.5 -4l-4 -4t-5.5 -4t-5.5 -3.5t-6.5 -4.5t-7 -4.5l-109 -71h-111l76 113q24 34 79 34h62q42 0 42 -33z" />
    <glyph glyph-name="Ecircumflex" unicode="&#xca;" horiz-adv-x="518" 
d="M32 0v676h456v-198h-214v-44h150v-188h-150v-48h227v-198h-469zM305 885l117 -121l-34 -49l-125 46h-11l-125 -46l-34 49l117 121h95z" />
    <glyph glyph-name="Edieresis" unicode="&#xcb;" horiz-adv-x="518" 
d="M32 0v676h456v-198h-214v-44h150v-188h-150v-48h227v-198h-469zM63 807q0 47 25.5 71t67.5 24t67.5 -24t25.5 -71q0 -46 -25.5 -70.5t-67.5 -24.5t-67.5 24.5t-25.5 70.5zM279 807q0 47 25.5 71t67.5 24t67.5 -24t25.5 -71q0 -46 -25.5 -70.5t-67.5 -24.5t-67.5 24.5
t-25.5 70.5z" />
    <glyph glyph-name="Igrave" unicode="&#xcc;" horiz-adv-x="306" 
d="M0 847q0 33 42 33h62q55 0 79 -34l76 -113h-111l-109 71q-16 11 -21.5 15t-11.5 11.5t-6 16.5zM32 0v676h242v-676h-242z" />
    <glyph glyph-name="Iacute" unicode="&#xcd;" horiz-adv-x="306" 
d="M297 847q0 -3 -0.5 -5.5t-1 -4.5t-2.5 -4.5t-3 -4t-3.5 -4l-4 -4t-5.5 -4t-5.5 -3.5t-6.5 -4.5t-7 -4.5l-109 -71h-111l76 113q24 34 79 34h62q42 0 42 -33zM32 0v676h242v-676h-242z" />
    <glyph glyph-name="Icircumflex" unicode="&#xce;" horiz-adv-x="306" 
d="M200 883l117 -121l-34 -49l-125 46h-11l-125 -46l-34 49l117 121h95zM32 0v676h242v-676h-242z" />
    <glyph glyph-name="Idieresis" unicode="&#xcf;" horiz-adv-x="306" 
d="M-48 807q0 47 25.5 71t67.5 24t67.5 -24t25.5 -71q0 -46 -25.5 -70.5t-67.5 -24.5t-67.5 24.5t-25.5 70.5zM168 807q0 47 25.5 71t67.5 24t67.5 -24t25.5 -71q0 -46 -25.5 -70.5t-67.5 -24.5t-67.5 24.5t-25.5 70.5zM32 0v676h242v-676h-242z" />
    <glyph glyph-name="Eth" unicode="&#xd0;" horiz-adv-x="643" 
d="M3 267v142h44v267h257q158 0 234 -76q43 -43 65.5 -102.5t22.5 -173.5q0 -100 -20.5 -158.5t-58.5 -97.5q-70 -68 -200 -68h-300v267h-44zM384 327q0 105 -22 132q-15 19 -52 19h-21v-69h50v-142h-50v-69h37q25 0 38 14q20 22 20 115z" />
    <glyph glyph-name="Ntilde" unicode="&#xd1;" horiz-adv-x="692" 
d="M274 144v-144h-242v676h242l98 -160q8 -14 19.5 -38t18.5 -42l8 -17l6 2q-6 70 -6 109v146h242v-676h-242l-98 158q-8 14 -19.5 38t-18.5 42l-8 17l-6 -2q6 -70 6 -109zM456 892l63 -51q-7 -42 -32.5 -74t-77.5 -32q-24 0 -67 17.5t-57 17.5q-30 0 -49 -39l-63 51
q6 38 32.5 72t77.5 34q24 0 66.5 -17.5t56.5 -17.5q32 0 50 39z" />
    <glyph glyph-name="Ograve" unicode="&#xd2;" horiz-adv-x="668" 
d="M153 846q0 33 42 33h62q55 0 79 -34l76 -113h-111l-109 71q-16 11 -21.5 15t-11.5 11.5t-6 16.5zM409 337q0 107 -22 134q-17 21 -53 21t-53 -21q-22 -27 -22 -134q0 -101 21 -132q17 -22 54 -22t54 22q21 31 21 132zM651 337q0 -199 -96 -284q-75 -68 -222 -68
q-145 0 -220 68q-96 85 -96 284q0 197 92 282q78 72 224 72q148 0 226 -72q92 -85 92 -282z" />
    <glyph glyph-name="Oacute" unicode="&#xd3;" horiz-adv-x="668" 
d="M500 846q0 -3 -0.5 -5.5t-1 -4.5t-2.5 -4.5t-3 -4t-3.5 -4l-4 -4t-5.5 -4t-5.5 -3.5t-6.5 -4.5t-7 -4.5l-109 -71h-111l76 113q24 34 79 34h62q42 0 42 -33zM409 337q0 107 -22 134q-17 21 -53 21t-53 -21q-22 -27 -22 -134q0 -101 21 -132q17 -22 54 -22t54 22
q21 31 21 132zM651 337q0 -199 -96 -284q-75 -68 -222 -68q-145 0 -220 68q-96 85 -96 284q0 197 92 282q78 72 224 72q148 0 226 -72q92 -85 92 -282z" />
    <glyph glyph-name="Ocircumflex" unicode="&#xd4;" horiz-adv-x="668" 
d="M381 890l117 -121l-34 -49l-125 46h-11l-125 -46l-34 49l117 121h95zM409 337q0 107 -22 134q-17 21 -53 21t-53 -21q-22 -27 -22 -134q0 -101 21 -132q17 -22 54 -22t54 22q21 31 21 132zM651 337q0 -199 -96 -284q-75 -68 -222 -68q-145 0 -220 68q-96 85 -96 284
q0 197 92 282q78 72 224 72q148 0 226 -72q92 -85 92 -282z" />
    <glyph glyph-name="Otilde" unicode="&#xd5;" horiz-adv-x="668" 
d="M450 892l63 -51q-7 -42 -32.5 -74t-77.5 -32q-24 0 -67 17.5t-57 17.5q-30 0 -49 -39l-63 51q6 38 32.5 72t77.5 34q24 0 66.5 -17.5t56.5 -17.5q32 0 50 39zM409 337q0 107 -22 134q-17 21 -53 21t-53 -21q-22 -27 -22 -134q0 -101 21 -132q17 -22 54 -22t54 22
q21 31 21 132zM651 337q0 -199 -96 -284q-75 -68 -222 -68q-145 0 -220 68q-96 85 -96 284q0 197 92 282q78 72 224 72q148 0 226 -72q92 -85 92 -282z" />
    <glyph glyph-name="Odieresis" unicode="&#xd6;" horiz-adv-x="668" 
d="M132 807q0 47 25.5 71t67.5 24t67.5 -24t25.5 -71q0 -46 -25.5 -70.5t-67.5 -24.5t-67.5 24.5t-25.5 70.5zM348 807q0 47 25.5 71t67.5 24t67.5 -24t25.5 -71q0 -46 -25.5 -70.5t-67.5 -24.5t-67.5 24.5t-25.5 70.5zM409 337q0 107 -22 134q-17 21 -53 21t-53 -21
q-22 -27 -22 -134q0 -101 21 -132q17 -22 54 -22t54 22q21 31 21 132zM651 337q0 -199 -96 -284q-75 -68 -222 -68q-145 0 -220 68q-96 85 -96 284q0 197 92 282q78 72 224 72q148 0 226 -72q92 -85 92 -282z" />
    <glyph glyph-name="multiply" unicode="&#xd7;" 
d="M155 46l-99 99l95 95l-95 95l99 99l95 -95l95 95l99 -99l-95 -95l95 -95l-99 -99l-95 95z" />
    <glyph glyph-name="Oslash" unicode="&#xd8;" horiz-adv-x="668" 
d="M18 50l47 60q-48 81 -48 227q0 197 92 282q78 72 224 72q94 0 163 -32l44 56l112 -84l-51 -64q50 -84 50 -230q0 -199 -96 -284q-75 -68 -222 -68q-97 0 -163 31l-40 -51zM388 205q19 29 22 118h-1q-6 -10 -18 -25l-87 -111q12 -4 30 -4q37 0 54 22zM281 471
q-22 -27 -23 -115h2q7 11 14 20l88 112q-12 4 -28 4q-36 0 -53 -21z" />
    <glyph glyph-name="Ugrave" unicode="&#xd9;" horiz-adv-x="620" 
d="M591 676v-449q0 -116 -77.5 -179t-203.5 -63t-203.5 63t-77.5 179v449h242v-438q0 -55 39 -55t39 55v438h242zM122 847q0 33 42 33h62q55 0 79 -34l76 -113h-111l-109 71q-16 11 -21.5 15t-11.5 11.5t-6 16.5z" />
    <glyph glyph-name="Uacute" unicode="&#xda;" horiz-adv-x="620" 
d="M591 676v-449q0 -116 -77.5 -179t-203.5 -63t-203.5 63t-77.5 179v449h242v-438q0 -55 39 -55t39 55v438h242zM505 847q0 -3 -0.5 -5.5t-1 -4.5t-2.5 -4.5t-3 -4t-3.5 -4l-4 -4t-5.5 -4t-5.5 -3.5t-6.5 -4.5t-7 -4.5l-109 -71h-111l76 113q24 34 79 34h62q42 0 42 -33z
" />
    <glyph glyph-name="Ucircumflex" unicode="&#xdb;" horiz-adv-x="620" 
d="M591 676v-449q0 -116 -77.5 -179t-203.5 -63t-203.5 63t-77.5 179v449h242v-438q0 -55 39 -55t39 55v438h242zM360 890l117 -121l-34 -49l-125 46h-11l-125 -46l-34 49l117 121h95z" />
    <glyph glyph-name="Udieresis" unicode="&#xdc;" horiz-adv-x="620" 
d="M591 676v-449q0 -116 -77.5 -179t-203.5 -63t-203.5 63t-77.5 179v449h242v-438q0 -55 39 -55t39 55v438h242zM109 807q0 47 25.5 71t67.5 24t67.5 -24t25.5 -71q0 -46 -25.5 -70.5t-67.5 -24.5t-67.5 24.5t-25.5 70.5zM325 807q0 47 25.5 71t67.5 24t67.5 -24t25.5 -71
q0 -46 -25.5 -70.5t-67.5 -24.5t-67.5 24.5t-25.5 70.5z" />
    <glyph glyph-name="Yacute" unicode="&#xdd;" horiz-adv-x="674" 
d="M671 676l-213 -442v-234h-242v234l-213 442h266l45 -112q5 -13 10 -33t8 -34l2 -14h6q8 52 20 81l45 112h266zM534 849q0 -3 -0.5 -5.5t-1 -4.5t-2.5 -4.5t-3 -4t-3.5 -4l-4 -4t-5.5 -4t-5.5 -3.5t-6.5 -4.5t-7 -4.5l-109 -71h-111l76 113q24 34 79 34h62q42 0 42 -33z
" />
    <glyph glyph-name="Thorn" unicode="&#xde;" horiz-adv-x="580" 
d="M323 338q0 27 -7 36q-5 8 -20 8h-22v-90h23q14 0 20 9q6 8 6 37zM312 94h-38v-94h-242v676h242v-96h34q125 0 186 -57q71 -65 71 -185q0 -132 -73 -193q-62 -51 -180 -51z" />
    <glyph glyph-name="germandbls" unicode="&#xdf;" horiz-adv-x="557" 
d="M243 517v-517h-218v490q0 113 62 168q59 53 176 53q114 0 177.5 -48.5t63.5 -142.5q0 -74 -41 -118q77 -52 77 -174q0 -134 -60.5 -186t-206.5 -52v162q29 5 39 18.5t10 49.5q0 57 -53 57h-6v161q14 5 19 15.5t5 42.5q0 53 -24 53q-20 0 -20 -32z" />
    <glyph glyph-name="agrave" unicode="&#xe0;" horiz-adv-x="545" 
d="M454 -11q-91 0 -136 51h-2q-39 -50 -130 -50q-84 0 -126.5 43.5t-42.5 112.5q0 126 146 157q57 12 121 12v6q0 11 -30 11q-96 0 -182 -40l-35 142q46 23 114.5 39.5t122.5 16.5q114 0 171 -44.5t57 -125.5v-130q0 -17 5.5 -24t17.5 -10l18 -5l-28 -155q-20 -7 -61 -7z
M243 151q16 0 41 16v23q-30 -2 -44 -6q-15 -4 -15 -17q0 -16 18 -16zM93 648q0 33 42 33h62q55 0 79 -34l76 -113h-111l-109 71q-16 11 -21.5 15t-11.5 11.5t-6 16.5z" />
    <glyph glyph-name="aacute" unicode="&#xe1;" horiz-adv-x="545" 
d="M454 -11q-91 0 -136 51h-2q-39 -50 -130 -50q-84 0 -126.5 43.5t-42.5 112.5q0 126 146 157q57 12 121 12v6q0 11 -30 11q-96 0 -182 -40l-35 142q46 23 114.5 39.5t122.5 16.5q114 0 171 -44.5t57 -125.5v-130q0 -17 5.5 -24t17.5 -10l18 -5l-28 -155q-20 -7 -61 -7z
M243 151q16 0 41 16v23q-30 -2 -44 -6q-15 -4 -15 -17q0 -16 18 -16zM461 648q0 -3 -0.5 -5.5t-1 -4.5t-2.5 -4.5t-3 -4t-3.5 -4l-4 -4t-5.5 -4t-5.5 -3.5t-6.5 -4.5t-7 -4.5l-109 -71h-111l76 113q24 34 79 34h62q42 0 42 -33z" />
    <glyph glyph-name="acircumflex" unicode="&#xe2;" horiz-adv-x="545" 
d="M454 -11q-91 0 -136 51h-2q-39 -50 -130 -50q-84 0 -126.5 43.5t-42.5 112.5q0 126 146 157q57 12 121 12v6q0 11 -30 11q-96 0 -182 -40l-35 142q46 23 114.5 39.5t122.5 16.5q114 0 171 -44.5t57 -125.5v-130q0 -17 5.5 -24t17.5 -10l18 -5l-28 -155q-20 -7 -61 -7z
M243 151q16 0 41 16v23q-30 -2 -44 -6q-15 -4 -15 -17q0 -16 18 -16zM330 687l117 -121l-34 -49l-125 46h-11l-125 -46l-34 49l117 121h95z" />
    <glyph glyph-name="atilde" unicode="&#xe3;" horiz-adv-x="545" 
d="M454 -11q-91 0 -136 51h-2q-39 -50 -130 -50q-84 0 -126.5 43.5t-42.5 112.5q0 126 146 157q57 12 121 12v6q0 11 -30 11q-96 0 -182 -40l-35 142q46 23 114.5 39.5t122.5 16.5q114 0 171 -44.5t57 -125.5v-130q0 -17 5.5 -24t17.5 -10l18 -5l-28 -155q-20 -7 -61 -7z
M243 151q16 0 41 16v23q-30 -2 -44 -6q-15 -4 -15 -17q0 -16 18 -16zM385 694l63 -51q-7 -42 -32.5 -74t-77.5 -32q-24 0 -67 17.5t-57 17.5q-30 0 -49 -39l-63 51q6 38 32.5 72t77.5 34q24 0 66.5 -17.5t56.5 -17.5q32 0 50 39z" />
    <glyph glyph-name="adieresis" unicode="&#xe4;" horiz-adv-x="545" 
d="M454 -11q-91 0 -136 51h-2q-39 -50 -130 -50q-84 0 -126.5 43.5t-42.5 112.5q0 126 146 157q57 12 121 12v6q0 11 -30 11q-96 0 -182 -40l-35 142q46 23 114.5 39.5t122.5 16.5q114 0 171 -44.5t57 -125.5v-130q0 -17 5.5 -24t17.5 -10l18 -5l-28 -155q-20 -7 -61 -7z
M243 151q16 0 41 16v23q-30 -2 -44 -6q-15 -4 -15 -17q0 -16 18 -16zM79 603q0 47 25.5 71t67.5 24t67.5 -24t25.5 -71q0 -46 -25.5 -70.5t-67.5 -24.5t-67.5 24.5t-25.5 70.5zM295 603q0 47 25.5 71t67.5 24t67.5 -24t25.5 -71q0 -46 -25.5 -70.5t-67.5 -24.5t-67.5 24.5
t-25.5 70.5z" />
    <glyph glyph-name="aring" unicode="&#xe5;" horiz-adv-x="545" 
d="M454 -11q-91 0 -136 51h-2q-39 -50 -130 -50q-84 0 -126.5 43.5t-42.5 112.5q0 126 146 157q57 12 121 12v6q0 11 -30 11q-96 0 -182 -40l-35 142q46 23 114.5 39.5t122.5 16.5q114 0 171 -44.5t57 -125.5v-130q0 -17 5.5 -24t17.5 -10l18 -5l-28 -155q-20 -7 -61 -7z
M243 151q16 0 41 16v23q-30 -2 -44 -6q-15 -4 -15 -17q0 -16 18 -16zM315 637q0 13 -10 22t-26 9t-26 -9t-10 -22t10 -21.5t26 -8.5t26 8.5t10 21.5zM407 637q0 -46 -33.5 -74.5t-94.5 -28.5t-94.5 28.5t-33.5 74.5q0 47 33.5 75.5t94.5 28.5t94.5 -28.5t33.5 -75.5z" />
    <glyph glyph-name="ae" unicode="&#xe6;" horiz-adv-x="788" 
d="M736 164l11 -144q-84 -30 -195 -30q-130 0 -193 51h-5q-67 -51 -168 -51q-84 0 -126.5 43.5t-42.5 112.5q0 126 146 157q57 12 121 12v6q0 11 -30 11q-92 0 -182 -40l-35 144q46 23 114.5 38.5t122.5 15.5q81 0 133 -27h2q52 27 128 27q234 0 234 -208q0 -25 -3 -51.5
t-6 -40.5l-3 -14h-257q0 -24 60 -24q62 0 174 12zM243 151q16 0 41 16v23q-30 -2 -44 -6q-15 -4 -15 -17q0 -16 18 -16zM502 305h62q0 18 -6.5 25.5t-22.5 7.5q-33 0 -33 -33z" />
    <glyph glyph-name="ccedilla" unicode="&#xe7;" horiz-adv-x="417" 
d="M388 174l27 -144q-57 -34 -137 -39l-8 -33h10q99 0 99 -85q0 -89 -131 -89q-25 0 -55 2.5t-48 5.5l-18 2l6 71q54 -5 80 -5q30 0 30 20q0 16 -29 16h-66l22 103q-51 11 -85 41q-68 56 -68 201q0 139 70 201q56 48 164 48q86 0 154 -31l-28 -147q-42 16 -80 16
q-31 0 -46.5 -20t-14.5 -67q1 -48 15.5 -68.5t45.5 -20.5q18 0 41 5.5t36 10.5z" />
    <glyph glyph-name="egrave" unicode="&#xe8;" horiz-adv-x="521" 
d="M235 305h62q0 18 -6.5 25.5t-22.5 7.5q-33 0 -33 -33zM469 164l11 -144q-84 -30 -195 -30q-144 0 -206 62.5t-62 188.5q0 249 253 249q234 0 234 -208q0 -25 -3 -52t-6 -41l-3 -14h-257q0 -23 60 -23q62 0 174 12zM82 648q0 33 42 33h62q55 0 79 -34l76 -113h-111
l-109 71q-16 11 -21.5 15t-11.5 11.5t-6 16.5z" />
    <glyph glyph-name="eacute" unicode="&#xe9;" horiz-adv-x="521" 
d="M235 305h62q0 18 -6.5 25.5t-22.5 7.5q-33 0 -33 -33zM469 164l11 -144q-84 -30 -195 -30q-144 0 -206 62.5t-62 188.5q0 249 253 249q234 0 234 -208q0 -25 -3 -52t-6 -41l-3 -14h-257q0 -23 60 -23q62 0 174 12zM456 648q0 -3 -0.5 -5.5t-1 -4.5t-2.5 -4.5t-3 -4
t-3.5 -4l-4 -4t-5.5 -4t-5.5 -3.5t-6.5 -4.5t-7 -4.5l-109 -71h-111l76 113q24 34 79 34h62q42 0 42 -33z" />
    <glyph glyph-name="ecircumflex" unicode="&#xea;" horiz-adv-x="521" 
d="M235 305h62q0 18 -6.5 25.5t-22.5 7.5q-33 0 -33 -33zM469 164l11 -144q-84 -30 -195 -30q-144 0 -206 62.5t-62 188.5q0 249 253 249q234 0 234 -208q0 -25 -3 -52t-6 -41l-3 -14h-257q0 -23 60 -23q62 0 174 12zM320 685l117 -121l-34 -49l-125 46h-11l-125 -46l-34 49
l117 121h95z" />
    <glyph glyph-name="edieresis" unicode="&#xeb;" horiz-adv-x="521" 
d="M235 305h62q0 18 -6.5 25.5t-22.5 7.5q-33 0 -33 -33zM469 164l11 -144q-84 -30 -195 -30q-144 0 -206 62.5t-62 188.5q0 249 253 249q234 0 234 -208q0 -25 -3 -52t-6 -41l-3 -14h-257q0 -23 60 -23q62 0 174 12zM71 603q0 47 25.5 71t67.5 24t67.5 -24t25.5 -71
q0 -46 -25.5 -70.5t-67.5 -24.5t-67.5 24.5t-25.5 70.5zM287 603q0 47 25.5 71t67.5 24t67.5 -24t25.5 -71q0 -46 -25.5 -70.5t-67.5 -24.5t-67.5 24.5t-25.5 70.5z" />
    <glyph glyph-name="igrave" unicode="&#xec;" horiz-adv-x="268" 
d="M-22 648q0 33 42 33h62q55 0 79 -34l76 -113h-111l-109 71q-16 11 -21.5 15t-11.5 11.5t-6 16.5zM25 0v480h218v-480h-218z" />
    <glyph glyph-name="iacute" unicode="&#xed;" horiz-adv-x="268" 
d="M295 648q0 -3 -0.5 -5.5t-1 -4.5t-2.5 -4.5t-3 -4t-3.5 -4l-4 -4t-5.5 -4t-5.5 -3.5t-6.5 -4.5t-7 -4.5l-109 -71h-111l76 113q24 34 79 34h62q42 0 42 -33zM25 0v480h218v-480h-218z" />
    <glyph glyph-name="icircumflex" unicode="&#xee;" horiz-adv-x="268" 
d="M181 687l117 -121l-34 -49l-125 46h-11l-125 -46l-34 49l117 121h95zM25 0v480h218v-480h-218z" />
    <glyph glyph-name="idieresis" unicode="&#xef;" horiz-adv-x="268" 
d="M-57 603q0 47 24 71t65 24t65 -24t24 -71t-24.5 -71t-64.5 -24t-64.5 24t-24.5 71zM147 603q0 47 24 71t65 24t65 -24t24 -71t-24.5 -71t-64.5 -24t-64.5 24t-24.5 71zM25 0v480h218v-480h-218z" />
    <glyph glyph-name="eth" unicode="&#xf0;" horiz-adv-x="512" 
d="M107 474l-45 100l59 27q-22 10 -57 19l24 103q111 -5 203 -46l113 51l45 -99l-55 -25q101 -107 101 -339v-25q0 -132 -65 -197q-53 -53 -174 -53t-174 53q-65 65 -65 197q0 139 68 199q53 47 132 47q19 0 34 -3l5 7q-10 22 -27 39zM277 241q0 52 -4 69.5t-17 17.5
t-17 -17.5t-4 -69.5q0 -54 4 -71.5t17 -17.5t17 17.5t4 71.5z" />
    <glyph glyph-name="ntilde" unicode="&#xf1;" horiz-adv-x="516" 
d="M495 329v-329h-218v309q0 19 -12 19q-22 0 -22 -43v-285h-218v480h160l23 -40h3q45 50 126 50q76 0 117 -41.5t41 -119.5zM376 694l63 -51q-7 -42 -32.5 -74t-77.5 -32q-24 0 -67 17.5t-57 17.5q-30 0 -49 -39l-63 51q6 38 32.5 72t77.5 34q24 0 66.5 -17.5t56.5 -17.5
q32 0 50 39z" />
    <glyph glyph-name="ograve" unicode="&#xf2;" horiz-adv-x="512" 
d="M495 240q0 -132 -65 -197q-53 -53 -174 -53t-174 53q-65 65 -65 197q0 134 67 197q56 53 172 53q114 0 172 -53q39 -36 53 -83.5t14 -113.5zM277 241q0 52 -4 69.5t-17 17.5t-17 -17.5t-4 -69.5q0 -54 4 -71.5t17 -17.5t17 17.5t4 71.5zM63 648q0 33 42 33h62
q55 0 79 -34l76 -113h-111l-109 71q-16 11 -21.5 15t-11.5 11.5t-6 16.5z" />
    <glyph glyph-name="oacute" unicode="&#xf3;" horiz-adv-x="512" 
d="M495 240q0 -132 -65 -197q-53 -53 -174 -53t-174 53q-65 65 -65 197q0 134 67 197q56 53 172 53q114 0 172 -53q39 -36 53 -83.5t14 -113.5zM277 241q0 52 -4 69.5t-17 17.5t-17 -17.5t-4 -69.5q0 -54 4 -71.5t17 -17.5t17 17.5t4 71.5zM450 648q0 -3 -0.5 -5.5t-1 -4.5
t-2.5 -4.5t-3 -4t-3.5 -4l-4 -4t-5.5 -4t-5.5 -3.5t-6.5 -4.5t-7 -4.5l-109 -71h-111l76 113q24 34 79 34h62q42 0 42 -33z" />
    <glyph glyph-name="ocircumflex" unicode="&#xf4;" horiz-adv-x="512" 
d="M495 240q0 -132 -65 -197q-53 -53 -174 -53t-174 53q-65 65 -65 197q0 134 67 197q56 53 172 53q114 0 172 -53q39 -36 53 -83.5t14 -113.5zM277 241q0 52 -4 69.5t-17 17.5t-17 -17.5t-4 -69.5q0 -54 4 -71.5t17 -17.5t17 17.5t4 71.5zM303 687l117 -121l-34 -49
l-125 46h-11l-125 -46l-34 49l117 121h95z" />
    <glyph glyph-name="otilde" unicode="&#xf5;" horiz-adv-x="512" 
d="M495 240q0 -132 -65 -197q-53 -53 -174 -53t-174 53q-65 65 -65 197q0 134 67 197q56 53 172 53q114 0 172 -53q39 -36 53 -83.5t14 -113.5zM277 241q0 52 -4 69.5t-17 17.5t-17 -17.5t-4 -69.5q0 -54 4 -71.5t17 -17.5t17 17.5t4 71.5zM368 694l63 -51q-7 -42 -32.5 -74
t-77.5 -32q-24 0 -67 17.5t-57 17.5q-30 0 -49 -39l-63 51q6 38 32.5 72t77.5 34q24 0 66.5 -17.5t56.5 -17.5q32 0 50 39z" />
    <glyph glyph-name="odieresis" unicode="&#xf6;" horiz-adv-x="512" 
d="M495 240q0 -132 -65 -197q-53 -53 -174 -53t-174 53q-65 65 -65 197q0 134 67 197q56 53 172 53q114 0 172 -53q39 -36 53 -83.5t14 -113.5zM277 241q0 52 -4 69.5t-17 17.5t-17 -17.5t-4 -69.5q0 -54 4 -71.5t17 -17.5t17 17.5t4 71.5zM55 603q0 47 25.5 71t67.5 24
t67.5 -24t25.5 -71q0 -46 -25.5 -70.5t-67.5 -24.5t-67.5 24.5t-25.5 70.5zM271 603q0 47 25.5 71t67.5 24t67.5 -24t25.5 -71q0 -46 -25.5 -70.5t-67.5 -24.5t-67.5 24.5t-25.5 70.5z" />
    <glyph glyph-name="divide" unicode="&#xf7;" 
d="M45 180v140h410v-140h-410zM328 71q0 -36 -22 -56.5t-56 -20.5t-56.5 20.5t-22.5 56.5q0 37 22.5 58t56.5 21t56 -21t22 -58zM328 427q0 -36 -22 -56.5t-56 -20.5t-56.5 20.5t-22.5 56.5q0 37 22.5 58t56.5 21t56 -21t22 -58z" />
    <glyph glyph-name="oslash" unicode="&#xf8;" horiz-adv-x="512" 
d="M21 37l33 39q-37 57 -37 164q0 134 67 197q56 53 172 53q74 0 129 -25l29 35l73 -61l-30 -36q38 -56 38 -163q0 -132 -65 -197q-53 -53 -174 -53q-76 0 -130 24l-32 -38zM283 175l2 27l-2 1q-5 -9 -12 -18l-33 -39q5 -6 18 -6q27 0 27 35zM228 298l-2 -20l2 -1q5 9 9 14
l36 43q-6 6 -17 6q-15 0 -21.5 -9t-6.5 -33z" />
    <glyph glyph-name="ugrave" unicode="&#xf9;" horiz-adv-x="534" 
d="M491 480v-290q0 -17 5.5 -24t17.5 -10l18 -5l-28 -155q-20 -7 -61 -7q-90 0 -135 51h-2q-48 -50 -119 -50q-85 0 -125.5 45t-40.5 135v310h218v-302q0 -26 15 -26q19 0 19 66v262h218zM66 648q0 33 42 33h62q55 0 79 -34l76 -113h-111l-109 71q-16 11 -21.5 15
t-11.5 11.5t-6 16.5z" />
    <glyph glyph-name="uacute" unicode="&#xfa;" horiz-adv-x="534" 
d="M491 480v-290q0 -17 5.5 -24t17.5 -10l18 -5l-28 -155q-20 -7 -61 -7q-90 0 -135 51h-2q-48 -50 -119 -50q-85 0 -125.5 45t-40.5 135v310h218v-302q0 -26 15 -26q19 0 19 66v262h218zM452 648q0 -3 -0.5 -5.5t-1 -4.5t-2.5 -4.5t-3 -4t-3.5 -4l-4 -4t-5.5 -4t-5.5 -3.5
t-6.5 -4.5t-7 -4.5l-109 -71h-111l76 113q24 34 79 34h62q42 0 42 -33z" />
    <glyph glyph-name="ucircumflex" unicode="&#xfb;" horiz-adv-x="534" 
d="M491 480v-290q0 -17 5.5 -24t17.5 -10l18 -5l-28 -155q-20 -7 -61 -7q-90 0 -135 51h-2q-48 -50 -119 -50q-85 0 -125.5 45t-40.5 135v310h218v-302q0 -26 15 -26q19 0 19 66v262h218zM305 687l117 -121l-34 -49l-125 46h-11l-125 -46l-34 49l117 121h95z" />
    <glyph glyph-name="udieresis" unicode="&#xfc;" horiz-adv-x="534" 
d="M491 480v-290q0 -17 5.5 -24t17.5 -10l18 -5l-28 -155q-20 -7 -61 -7q-90 0 -135 51h-2q-48 -50 -119 -50q-85 0 -125.5 45t-40.5 135v310h218v-302q0 -26 15 -26q19 0 19 66v262h218zM55 603q0 47 25.5 71t67.5 24t67.5 -24t25.5 -71q0 -46 -25.5 -70.5t-67.5 -24.5
t-67.5 24.5t-25.5 70.5zM271 603q0 47 25.5 71t67.5 24t67.5 -24t25.5 -71q0 -46 -25.5 -70.5t-67.5 -24.5t-67.5 24.5t-25.5 70.5z" />
    <glyph glyph-name="yacute" unicode="&#xfd;" horiz-adv-x="586" 
d="M355 480h228l-153 -553q-24 -84 -79.5 -123.5t-155.5 -39.5h-139v162h103q47 0 60 45l8 29h-67l-157 480h227l50 -160l15 -73h4q7 45 14 73zM497 648q0 -3 -0.5 -5.5t-1 -4.5t-2.5 -4.5t-3 -4t-3.5 -4l-4 -4t-5.5 -4t-5.5 -3.5t-6.5 -4.5t-7 -4.5l-109 -71h-111l76 113
q24 34 79 34h62q42 0 42 -33z" />
    <glyph glyph-name="thorn" unicode="&#xfe;" horiz-adv-x="526" 
d="M25 696h218v-208l-1 -26l2 -1q39 29 96 29q84 0 126.5 -54.5t42.5 -194.5q0 -251 -183 -251q-47 0 -83 17l-2 -1q2 -21 2 -38v-195h-218v923zM291 198v82q0 30 -4.5 39t-16.5 9q-27 0 -27 -63v-55q0 -58 27 -58q11 0 16 9.5t5 36.5z" />
    <glyph glyph-name="ydieresis" unicode="&#xff;" horiz-adv-x="586" 
d="M355 480h228l-153 -553q-24 -84 -79.5 -123.5t-155.5 -39.5h-139v162h103q47 0 60 45l8 29h-67l-157 480h227l50 -160l15 -73h4q7 45 14 73zM94 603q0 47 25.5 71t67.5 24t67.5 -24t25.5 -71q0 -46 -25.5 -70.5t-67.5 -24.5t-67.5 24.5t-25.5 70.5zM310 603q0 47 25.5 71
t67.5 24t67.5 -24t25.5 -71q0 -46 -25.5 -70.5t-67.5 -24.5t-67.5 24.5t-25.5 70.5z" />
    <glyph glyph-name="Amacron" unicode="&#x100;" horiz-adv-x="678" 
d="M3 0l199 676h274l199 -676h-254l-15 72h-134l-15 -72h-254zM321 309l-8 -39h52l-8 39l-14 91h-8q-11 -76 -14 -91zM473 856v-116h-274v116h274z" />
    <glyph glyph-name="amacron" unicode="&#x101;" horiz-adv-x="545" 
d="M454 -11q-91 0 -136 51h-2q-39 -50 -130 -50q-84 0 -126.5 43.5t-42.5 112.5q0 126 146 157q57 12 121 12v6q0 11 -30 11q-96 0 -182 -40l-35 142q46 23 114.5 39.5t122.5 16.5q114 0 171 -44.5t57 -125.5v-130q0 -17 5.5 -24t17.5 -10l18 -5l-28 -155q-20 -7 -61 -7z
M243 151q16 0 41 16v23q-30 -2 -44 -6q-15 -4 -15 -17q0 -16 18 -16zM415 660v-116h-274v116h274z" />
    <glyph glyph-name="Abreve" unicode="&#x102;" horiz-adv-x="678" 
d="M3 0l199 676h274l199 -676h-254l-15 72h-134l-15 -72h-254zM321 309l-8 -39h52l-8 39l-14 91h-8q-11 -76 -14 -91zM391 877h105q0 -65 -42 -106t-118 -41t-118 41t-42 106h105q12 -47 55 -47t55 47z" />
    <glyph glyph-name="abreve" unicode="&#x103;" horiz-adv-x="545" 
d="M454 -11q-91 0 -136 51h-2q-39 -50 -130 -50q-84 0 -126.5 43.5t-42.5 112.5q0 126 146 157q57 12 121 12v6q0 11 -30 11q-96 0 -182 -40l-35 142q46 23 114.5 39.5t122.5 16.5q114 0 171 -44.5t57 -125.5v-130q0 -17 5.5 -24t17.5 -10l18 -5l-28 -155q-20 -7 -61 -7z
M243 151q16 0 41 16v23q-30 -2 -44 -6q-15 -4 -15 -17q0 -16 18 -16zM333 681h105q0 -65 -42 -106t-118 -41t-118 41t-42 106h105q12 -47 55 -47t55 47z" />
    <glyph glyph-name="Aogonek" unicode="&#x104;" horiz-adv-x="678" 
d="M3 0l199 676h274l199 -676q-49 -54 -49 -93q0 -31 36 -31l31 2l7 -84q-38 -10 -84 -10q-68 0 -104 23.5t-36 66.5q0 41 26 73t58 52v1h-139l-15 72h-134l-15 -72h-254zM321 309l-8 -39h52l-8 39l-14 91h-8q-11 -76 -14 -91z" />
    <glyph glyph-name="aogonek" unicode="&#x105;" horiz-adv-x="545" 
d="M536 -122l7 -84q-38 -10 -84 -10q-68 0 -104 23.5t-36 66.5q0 70 77 121v1q-50 12 -78 44h-2q-39 -50 -130 -50q-84 0 -126.5 43.5t-42.5 112.5q0 126 146 157q57 12 121 12v6q0 11 -30 11q-96 0 -182 -40l-35 142q46 23 114.5 39.5t122.5 16.5q114 0 171 -44.5
t57 -125.5v-130q0 -17 5.5 -24t17.5 -10l18 -5l-28 -155q-46 -52 -46 -89q0 -31 36 -31zM243 151q16 0 41 16v23q-30 -2 -44 -6q-15 -4 -15 -17q0 -16 18 -16z" />
    <glyph glyph-name="Cacute" unicode="&#x106;" horiz-adv-x="538" 
d="M489 207l38 -177q-84 -45 -204 -45q-130 0 -206 59q-100 78 -100 294q0 202 90 284q74 68 216 68q100 0 184 -32l-36 -181q-69 15 -114 15q-47 0 -69 -26q-29 -36 -29 -128q0 -97 29 -130q22 -25 73 -25q52 0 128 24zM507 848q0 -3 -0.5 -5.5t-1 -4.5t-2.5 -4.5t-3 -4
t-3.5 -4l-4 -4t-5.5 -4t-5.5 -3.5t-6.5 -4.5t-7 -4.5l-109 -71h-111l76 113q24 34 79 34h62q42 0 42 -33z" />
    <glyph glyph-name="cacute" unicode="&#x107;" horiz-adv-x="417" 
d="M388 174l27 -144q-67 -40 -160 -40q-110 0 -170 50q-68 56 -68 201q0 139 70 201q56 48 164 48q86 0 154 -31l-28 -147q-42 16 -80 16q-31 0 -46.5 -20t-14.5 -67q1 -48 15.5 -68.5t45.5 -20.5q18 0 41 5.5t36 10.5zM432 648q0 -3 -0.5 -5.5t-1 -4.5t-2.5 -4.5t-3 -4
t-3.5 -4l-4 -4t-5.5 -4t-5.5 -3.5t-6.5 -4.5t-7 -4.5l-109 -71h-111l76 113q24 34 79 34h62q42 0 42 -33z" />
    <glyph glyph-name="Ccircumflex" unicode="&#x108;" horiz-adv-x="538" 
d="M489 207l38 -177q-84 -45 -204 -45q-130 0 -206 59q-100 78 -100 294q0 202 90 284q74 68 216 68q100 0 184 -32l-36 -181q-69 15 -114 15q-47 0 -69 -26q-29 -36 -29 -128q0 -97 29 -130q22 -25 73 -25q52 0 128 24zM364 883l117 -121l-34 -49l-125 46h-11l-125 -46
l-34 49l117 121h95z" />
    <glyph glyph-name="ccircumflex" unicode="&#x109;" horiz-adv-x="417" 
d="M388 174l27 -144q-67 -40 -160 -40q-110 0 -170 50q-68 56 -68 201q0 139 70 201q56 48 164 48q86 0 154 -31l-28 -147q-42 16 -80 16q-31 0 -46.5 -20t-14.5 -67q1 -48 15.5 -68.5t45.5 -20.5q18 0 41 5.5t36 10.5zM296 687l117 -121l-34 -49l-125 46h-11l-125 -46
l-34 49l117 121h95z" />
    <glyph glyph-name="Cdotaccent" unicode="&#x10a;" horiz-adv-x="538" 
d="M489 207l38 -177q-84 -45 -204 -45q-130 0 -206 59q-100 78 -100 294q0 202 90 284q74 68 216 68q100 0 184 -32l-36 -181q-69 15 -114 15q-47 0 -69 -26q-29 -36 -29 -128q0 -97 29 -130q22 -25 73 -25q52 0 128 24zM191 807q0 43 27.5 69t72.5 26q44 0 72 -26t28 -69
t-28 -69t-72 -26q-45 0 -72.5 26t-27.5 69z" />
    <glyph glyph-name="cdotaccent" unicode="&#x10b;" horiz-adv-x="417" 
d="M388 174l27 -144q-67 -40 -160 -40q-110 0 -170 50q-68 56 -68 201q0 139 70 201q56 48 164 48q86 0 154 -31l-28 -147q-42 16 -80 16q-31 0 -46.5 -20t-14.5 -67q1 -48 15.5 -68.5t45.5 -20.5q18 0 41 5.5t36 10.5zM150 603q0 43 27.5 69t72.5 26q44 0 72 -26t28 -69
t-28 -69t-72 -26q-45 0 -72.5 26t-27.5 69z" />
    <glyph glyph-name="Ccaron" unicode="&#x10c;" horiz-adv-x="538" 
d="M489 207l38 -177q-84 -45 -204 -45q-130 0 -206 59q-100 78 -100 294q0 202 90 284q74 68 216 68q100 0 184 -32l-36 -181q-69 15 -114 15q-47 0 -69 -26q-29 -36 -29 -128q0 -97 29 -130q22 -25 73 -25q52 0 128 24zM265 734l-107 111l34 49l125 -46h11l125 46l34 -49
l-107 -111h-115z" />
    <glyph glyph-name="ccaron" unicode="&#x10d;" horiz-adv-x="417" 
d="M388 174l27 -144q-67 -40 -160 -40q-110 0 -170 50q-68 56 -68 201q0 139 70 201q56 48 164 48q86 0 154 -31l-28 -147q-42 16 -80 16q-31 0 -46.5 -20t-14.5 -67q1 -48 15.5 -68.5t45.5 -20.5q18 0 41 5.5t36 10.5zM186 534l-107 111l34 49l125 -46h11l125 46l34 -49
l-107 -111h-115z" />
    <glyph glyph-name="Dcaron" unicode="&#x10e;" horiz-adv-x="628" 
d="M369 327q0 105 -22 132q-15 19 -52 19h-21v-280h37q25 0 38 14q20 22 20 115zM611 324q0 -100 -20.5 -158.5t-58.5 -97.5q-70 -68 -200 -68h-300v676h257q158 0 234 -76q43 -43 65.5 -102.5t22.5 -173.5zM212 730l-107 111l34 49l125 -46h11l125 46l34 -49l-107 -111
h-115z" />
    <glyph glyph-name="dcaron" unicode="&#x10f;" horiz-adv-x="713" 
d="M501 696v-506q0 -17 5.5 -24t17.5 -10l18 -5l-28 -155q-20 -7 -61 -7q-94 0 -137 52h-1q-40 -51 -114 -51q-90 0 -137 59.5t-47 191.5q0 125 44.5 187t141.5 62q46 0 80 -17l1 1q-1 13 -1 26v196h218zM235 277v-76q0 -49 23 -49q25 0 25 58v51q0 67 -25 67
q-12 0 -17.5 -10.5t-5.5 -40.5zM597 523v3q-34 7 -52 32t-18 60q0 44 26.5 69.5t67.5 25.5q43 0 69.5 -25.5t26.5 -69.5q0 -50 -29 -130l-33 -95l-69 10z" />
    <glyph glyph-name="Dmacron" unicode="&#x110;" horiz-adv-x="643" 
d="M3 267v142h44v267h257q158 0 234 -76q43 -43 65.5 -102.5t22.5 -173.5q0 -100 -20.5 -158.5t-58.5 -97.5q-70 -68 -200 -68h-300v267h-44zM384 327q0 105 -22 132q-15 19 -52 19h-21v-69h50v-142h-50v-69h37q25 0 38 14q20 22 20 115z" />
    <glyph glyph-name="dmacron" unicode="&#x111;" horiz-adv-x="544" 
d="M190 522v108h93v66h218v-66h45v-108h-45v-332q0 -17 5.5 -24t17.5 -10l18 -5l-28 -155q-20 -7 -61 -7q-94 0 -137 52h-1q-40 -51 -114 -51q-90 0 -137 59.5t-47 191.5q0 125 44.5 187t141.5 62q46 0 80 -17l1 1q-1 13 -1 26v22h-93zM235 277v-76q0 -49 23 -49q25 0 25 58
v51q0 67 -25 67q-12 0 -17.5 -10.5t-5.5 -40.5z" />
    <glyph glyph-name="Emacron" unicode="&#x112;" horiz-adv-x="518" 
d="M32 0v676h456v-198h-214v-44h150v-188h-150v-48h227v-198h-469zM394 856v-116h-274v116h274z" />
    <glyph glyph-name="emacron" unicode="&#x113;" horiz-adv-x="521" 
d="M235 305h62q0 18 -6.5 25.5t-22.5 7.5q-33 0 -33 -33zM469 164l11 -144q-84 -30 -195 -30q-144 0 -206 62.5t-62 188.5q0 249 253 249q234 0 234 -208q0 -25 -3 -52t-6 -41l-3 -14h-257q0 -23 60 -23q62 0 174 12zM401 660v-116h-274v116h274z" />
    <glyph glyph-name="Ebreve" unicode="&#x114;" horiz-adv-x="518" 
d="M32 0v676h456v-198h-214v-44h150v-188h-150v-48h227v-198h-469zM312 877h105q0 -65 -42 -106t-118 -41t-118 41t-42 106h105q12 -47 55 -47t55 47z" />
    <glyph glyph-name="ebreve" unicode="&#x115;" horiz-adv-x="521" 
d="M235 305h62q0 18 -6.5 25.5t-22.5 7.5q-33 0 -33 -33zM469 164l11 -144q-84 -30 -195 -30q-144 0 -206 62.5t-62 188.5q0 249 253 249q234 0 234 -208q0 -25 -3 -52t-6 -41l-3 -14h-257q0 -23 60 -23q62 0 174 12zM323 681h105q0 -65 -42 -106t-118 -41t-118 41t-42 106
h105q12 -47 55 -47t55 47z" />
    <glyph glyph-name="Edotaccent" unicode="&#x116;" horiz-adv-x="518" 
d="M32 0v676h456v-198h-214v-44h150v-188h-150v-48h227v-198h-469zM163 807q0 43 27.5 69t72.5 26q44 0 72 -26t28 -69t-28 -69t-72 -26q-45 0 -72.5 26t-27.5 69z" />
    <glyph glyph-name="edotaccent" unicode="&#x117;" horiz-adv-x="521" 
d="M235 305h62q0 18 -6.5 25.5t-22.5 7.5q-33 0 -33 -33zM469 164l11 -144q-84 -30 -195 -30q-144 0 -206 62.5t-62 188.5q0 249 253 249q234 0 234 -208q0 -25 -3 -52t-6 -41l-3 -14h-257q0 -23 60 -23q62 0 174 12zM169 603q0 43 27.5 69t72.5 26q44 0 72 -26t28 -69
t-28 -69t-72 -26q-45 0 -72.5 26t-27.5 69z" />
    <glyph glyph-name="Eogonek" unicode="&#x118;" horiz-adv-x="518" 
d="M32 0v676h456v-198h-214v-44h150v-188h-150v-48h227v-198q-49 -54 -49 -93q0 -31 36 -31l31 2l7 -84q-38 -10 -84 -10q-68 0 -104 23.5t-36 66.5q0 41 26 73t58 52v1h-354z" />
    <glyph glyph-name="eogonek" unicode="&#x119;" horiz-adv-x="521" 
d="M469 164l11 -144q-19 -8 -61 -16h1q-53 -56 -53 -97q0 -31 36 -31l31 2l7 -84q-38 -10 -84 -10q-68 0 -104 23.5t-36 66.5q0 66 68 114v2q-144 0 -206 62.5t-62 188.5q0 249 253 249q234 0 234 -208q0 -25 -3 -52t-6 -41l-3 -14h-257q0 -23 60 -23q62 0 174 12zM235 305
h62q0 18 -6.5 25.5t-22.5 7.5q-33 0 -33 -33z" />
    <glyph glyph-name="Ecaron" unicode="&#x11a;" horiz-adv-x="518" 
d="M32 0v676h456v-198h-214v-44h150v-188h-150v-48h227v-198h-469zM195 730l-107 111l34 49l125 -46h11l125 46l34 -49l-107 -111h-115z" />
    <glyph glyph-name="ecaron" unicode="&#x11b;" horiz-adv-x="521" 
d="M235 305h62q0 18 -6.5 25.5t-22.5 7.5q-33 0 -33 -33zM469 164l11 -144q-84 -30 -195 -30q-144 0 -206 62.5t-62 188.5q0 249 253 249q234 0 234 -208q0 -25 -3 -52t-6 -41l-3 -14h-257q0 -23 60 -23q62 0 174 12zM206 534l-107 111l34 49l125 -46h11l125 46l34 -49
l-107 -111h-115z" />
    <glyph glyph-name="Gcircumflex" unicode="&#x11c;" horiz-adv-x="646" 
d="M259 336q0 -78 17.5 -115.5t67.5 -37.5l28 3v58h-75v178h317v-360q-55 -38 -127.5 -57.5t-139.5 -19.5q-150 0 -227 61q-49 38 -76 104.5t-27 185.5q0 195 96 282q82 72 227 72q139 0 252 -50l-43 -176q-106 28 -170 28q-69 0 -94.5 -34.5t-25.5 -121.5zM389 883
l117 -121l-34 -49l-125 46h-11l-125 -46l-34 49l117 121h95z" />
    <glyph glyph-name="gcircumflex" unicode="&#x11d;" horiz-adv-x="555" 
d="M276 127l-37 2q-4 -5 -4 -12q0 -14 15 -14h68q103 0 155 -41t52 -119q0 -87 -58.5 -133t-163.5 -46h-72q-101 0 -157.5 36.5t-56.5 102.5q0 55 43 95q-33 30 -33 77q0 59 53 100q-53 47 -53 125q0 84 58.5 137t173.5 53q26 0 52.5 -2.5t40.5 -5.5l13 -2h183v-163h-36
l-25 4l-1 -2q8 -16 8 -39q0 -69 -53 -111t-165 -42zM294 -45h-59q-6 -6 -6 -14q0 -18 20 -18h45q19 0 19 17q0 15 -19 15zM261 358q-9 0 -12.5 -9.5t-3.5 -40.5q0 -30 3 -39.5t13 -9.5t13 9.5t3 39.5q0 31 -3.5 40.5t-12.5 9.5zM312 687l117 -121l-34 -49l-125 46h-11
l-125 -46l-34 49l117 121h95z" />
    <glyph glyph-name="Gbreve" unicode="&#x11e;" horiz-adv-x="646" 
d="M259 336q0 -78 17.5 -115.5t67.5 -37.5l28 3v58h-75v178h317v-360q-55 -38 -127.5 -57.5t-139.5 -19.5q-150 0 -227 61q-49 38 -76 104.5t-27 185.5q0 195 96 282q82 72 227 72q139 0 252 -50l-43 -176q-106 28 -170 28q-69 0 -94.5 -34.5t-25.5 -121.5zM389 877h105
q0 -65 -42 -106t-118 -41t-118 41t-42 106h105q12 -47 55 -47t55 47z" />
    <glyph glyph-name="gbreve" unicode="&#x11f;" horiz-adv-x="555" 
d="M276 127l-37 2q-4 -5 -4 -12q0 -14 15 -14h68q103 0 155 -41t52 -119q0 -87 -58.5 -133t-163.5 -46h-72q-101 0 -157.5 36.5t-56.5 102.5q0 55 43 95q-33 30 -33 77q0 59 53 100q-53 47 -53 125q0 84 58.5 137t173.5 53q26 0 52.5 -2.5t40.5 -5.5l13 -2h183v-163h-36
l-25 4l-1 -2q8 -16 8 -39q0 -69 -53 -111t-165 -42zM294 -45h-59q-6 -6 -6 -14q0 -18 20 -18h45q19 0 19 17q0 15 -19 15zM261 358q-9 0 -12.5 -9.5t-3.5 -40.5q0 -30 3 -39.5t13 -9.5t13 9.5t3 39.5q0 31 -3.5 40.5t-12.5 9.5zM317 681h105q0 -65 -42 -106t-118 -41
t-118 41t-42 106h105q12 -47 55 -47t55 47z" />
    <glyph glyph-name="Gdotaccent" unicode="&#x120;" horiz-adv-x="646" 
d="M259 336q0 -78 17.5 -115.5t67.5 -37.5l28 3v58h-75v178h317v-360q-55 -38 -127.5 -57.5t-139.5 -19.5q-150 0 -227 61q-49 38 -76 104.5t-27 185.5q0 195 96 282q82 72 227 72q139 0 252 -50l-43 -176q-106 28 -170 28q-69 0 -94.5 -34.5t-25.5 -121.5zM229 807
q0 43 27.5 69t72.5 26q44 0 72 -26t28 -69t-28 -69t-72 -26q-45 0 -72.5 26t-27.5 69z" />
    <glyph glyph-name="gdotaccent" unicode="&#x121;" horiz-adv-x="555" 
d="M276 127l-37 2q-4 -5 -4 -12q0 -14 15 -14h68q103 0 155 -41t52 -119q0 -87 -58.5 -133t-163.5 -46h-72q-101 0 -157.5 36.5t-56.5 102.5q0 55 43 95q-33 30 -33 77q0 59 53 100q-53 47 -53 125q0 84 58.5 137t173.5 53q26 0 52.5 -2.5t40.5 -5.5l13 -2h183v-163h-36
l-25 4l-1 -2q8 -16 8 -39q0 -69 -53 -111t-165 -42zM294 -45h-59q-6 -6 -6 -14q0 -18 20 -18h45q19 0 19 17q0 15 -19 15zM261 358q-9 0 -12.5 -9.5t-3.5 -40.5q0 -30 3 -39.5t13 -9.5t13 9.5t3 39.5q0 31 -3.5 40.5t-12.5 9.5zM167 603q0 43 27.5 69t72.5 26q44 0 72 -26
t28 -69t-28 -69t-72 -26q-45 0 -72.5 26t-27.5 69z" />
    <glyph glyph-name="Gcommaaccent" unicode="&#x122;" horiz-adv-x="646" 
d="M259 336q0 -78 17.5 -115.5t67.5 -37.5l28 3v58h-75v178h317v-360q-55 -38 -127.5 -57.5t-139.5 -19.5q-150 0 -227 61q-49 38 -76 104.5t-27 185.5q0 195 96 282q82 72 227 72q139 0 252 -50l-43 -176q-106 28 -170 28q-69 0 -94.5 -34.5t-25.5 -121.5zM247 -139
q0 43 27 69t72 26t73 -26.5t28 -68.5q0 -55 -33 -127l-44 -97l-72 11l18 118v4q-32 8 -50.5 32t-18.5 59z" />
    <glyph glyph-name="gcommaaccent" unicode="&#x123;" horiz-adv-x="555" 
d="M276 127l-37 2q-4 -5 -4 -12q0 -14 15 -14h68q103 0 155 -41t52 -119q0 -87 -58.5 -133t-163.5 -46h-72q-101 0 -157.5 36.5t-56.5 102.5q0 55 43 95q-33 30 -33 77q0 59 53 100q-53 47 -53 125q0 84 58.5 137t173.5 53q26 0 52.5 -2.5t40.5 -5.5l13 -2h183v-163h-36
l-25 4l-1 -2q8 -16 8 -39q0 -69 -53 -111t-165 -42zM294 -45h-59q-6 -6 -6 -14q0 -18 20 -18h45q19 0 19 17q0 15 -19 15zM261 358q-9 0 -12.5 -9.5t-3.5 -40.5q0 -30 3 -39.5t13 -9.5t13 9.5t3 39.5q0 31 -3.5 40.5t-12.5 9.5zM285 708v-3q34 -7 52 -32t18 -60
q0 -44 -26.5 -69.5t-67.5 -25.5q-43 0 -69.5 25.5t-26.5 69.5q0 50 29 130l33 95l69 -10z" />
    <glyph glyph-name="Hcircumflex" unicode="&#x124;" horiz-adv-x="660" 
d="M386 0v249h-112v-249h-242v676h242v-229h112v229h242v-676h-242zM378 883l117 -121l-34 -49l-125 46h-11l-125 -46l-34 49l117 121h95z" />
    <glyph glyph-name="hcircumflex" unicode="&#x125;" horiz-adv-x="516" 
d="M495 329v-329h-218v309q0 19 -12 19q-22 0 -22 -43v-285h-218v696h218v-202l-1 -29l1 -1q38 26 96 26q75 0 115.5 -41.5t40.5 -119.5zM180 883l117 -121l-34 -49l-125 46h-11l-125 -46l-34 49l117 121h95z" />
    <glyph glyph-name="Imacron" unicode="&#x12a;" horiz-adv-x="306" 
d="M290 856v-116h-274v116h274zM32 0v676h242v-676h-242z" />
    <glyph glyph-name="imacron" unicode="&#x12b;" horiz-adv-x="268" 
d="M271 660v-116h-274v116h274zM25 0v480h218v-480h-218z" />
    <glyph glyph-name="Iogonek" unicode="&#x12e;" horiz-adv-x="306" 
d="M32 0v676h242v-676q-49 -54 -49 -93q0 -31 36 -31l31 2l7 -84q-38 -10 -84 -10q-68 0 -104 23.5t-36 66.5q0 41 26 73t58 52v1h-127z" />
    <glyph glyph-name="iogonek" unicode="&#x12f;" horiz-adv-x="268" 
d="M25 0v480h218v-480q-49 -54 -49 -93q0 -31 36 -31l31 2l7 -84q-38 -10 -84 -10q-68 0 -104 23.5t-36 66.5q0 41 26 73t58 52v1h-103zM15 603q0 47 32.5 71t86.5 24t86.5 -24t32.5 -71q0 -46 -32.5 -70.5t-86.5 -24.5t-86.5 24.5t-32.5 70.5z" />
    <glyph glyph-name="Idotaccent" unicode="&#x130;" horiz-adv-x="306" 
d="M53 807q0 43 27.5 69t72.5 26q44 0 72 -26t28 -69t-28 -69t-72 -26q-45 0 -72.5 26t-27.5 69zM32 0v676h242v-676h-242z" />
    <glyph glyph-name="dotlessi" unicode="&#x131;" horiz-adv-x="268" 
d="M25 0v480h218v-480h-218z" />
    <glyph glyph-name="Jcircumflex" unicode="&#x134;" horiz-adv-x="378" 
d="M279 883l117 -121l-34 -49l-125 46h-11l-125 -46l-34 49l117 121h95zM351 676v-418q0 -74 -12 -122t-43.5 -84t-87.5 -51.5t-143 -15.5h-63v198q60 0 83.5 21.5t23.5 73.5v398h242z" />
    <glyph glyph-name="jcircumflex" unicode="&#x135;" horiz-adv-x="278" 
d="M253 480v-513q0 -203 -224 -203h-76v162h42q40 0 40 50v504h218zM186 687l117 -121l-34 -49l-125 46h-11l-125 -46l-34 49l117 121h95z" />
    <glyph glyph-name="Kcommaaccent" unicode="&#x136;" horiz-adv-x="648" 
d="M376 0l-95 217h-7v-217h-242v676h242v-240h7l101 240h254l-146 -336l151 -340h-265zM218 -139q0 43 27 69t72 26t73 -26.5t28 -68.5q0 -55 -33 -127l-44 -97l-72 11l18 118v4q-32 8 -50.5 32t-18.5 59z" />
    <glyph glyph-name="kcommaaccent" unicode="&#x137;" horiz-adv-x="535" 
d="M298 0l-51 125h-4v-125h-218v696h218v-348h2l47 132h236l-95 -236l105 -244h-240zM174 -139q0 43 27 69t72 26t73 -26.5t28 -68.5q0 -55 -33 -127l-44 -97l-72 11l18 118v4q-32 8 -50.5 32t-18.5 59z" />
    <glyph glyph-name="Lacute" unicode="&#x139;" horiz-adv-x="472" 
d="M32 0v676h242v-478h187v-198h-429zM292 844q0 -3 -0.5 -5.5t-1 -4.5t-2.5 -4.5t-3 -4t-3.5 -4l-4 -4t-5.5 -4t-5.5 -3.5t-6.5 -4.5t-7 -4.5l-109 -71h-111l76 113q24 34 79 34h62q42 0 42 -33z" />
    <glyph glyph-name="lacute" unicode="&#x13a;" horiz-adv-x="300" 
d="M303 844q0 -3 -0.5 -5.5t-1 -4.5t-2.5 -4.5t-3 -4t-3.5 -4l-4 -4t-5.5 -4t-5.5 -3.5t-6.5 -4.5t-7 -4.5l-109 -71h-111l76 113q24 34 79 34h62q42 0 42 -33zM298 151l-16 -157q-32 -5 -58 -5q-103 0 -151 38.5t-48 131.5v537h218v-504q0 -27 23 -33z" />
    <glyph glyph-name="Lcommaaccent" unicode="&#x13b;" horiz-adv-x="472" 
d="M32 0v676h242v-478h187v-198h-429zM155 -139q0 43 27 69t72 26t73 -26.5t28 -68.5q0 -55 -33 -127l-44 -97l-72 11l18 118v4q-32 8 -50.5 32t-18.5 59z" />
    <glyph glyph-name="lcommaaccent" unicode="&#x13c;" horiz-adv-x="300" 
d="M64 -139q0 43 27 69t72 26t73 -26.5t28 -68.5q0 -55 -33 -127l-44 -97l-72 11l18 118v4q-32 8 -50.5 32t-18.5 59zM298 151l-16 -157q-32 -5 -58 -5q-103 0 -151 38.5t-48 131.5v537h218v-504q0 -27 23 -33z" />
    <glyph glyph-name="Lcaron" unicode="&#x13d;" horiz-adv-x="505" 
d="M32 0v676h242v-478h187v-198h-429zM379 501v3q-34 7 -52 32t-18 60q0 44 26.5 69.5t67.5 25.5q43 0 69.5 -25.5t26.5 -69.5q0 -50 -29 -130l-33 -95l-69 10z" />
    <glyph glyph-name="lcaron" unicode="&#x13e;" horiz-adv-x="467" 
d="M298 151l-16 -157q-32 -5 -58 -5q-103 0 -151 38.5t-48 131.5v537h218v-504q0 -27 23 -33zM346 521v3q-34 7 -52 32t-18 60q0 44 26.5 69.5t67.5 25.5q43 0 69.5 -25.5t26.5 -69.5q0 -50 -29 -130l-33 -95l-69 10z" />
    <glyph glyph-name="Ldot" unicode="&#x13f;" horiz-adv-x="518" 
d="M32 0v676h242v-478h218v-198h-460zM302 375q0 43 27.5 69t72.5 26q44 0 72 -26t28 -69t-28 -69t-72 -26q-45 0 -72.5 26t-27.5 69z" />
    <glyph glyph-name="ldot" unicode="&#x140;" horiz-adv-x="466" 
d="M298 151l-16 -157q-32 -5 -58 -5q-103 0 -151 38.5t-48 131.5v537h218v-504q0 -27 23 -33zM270 359q0 43 27.5 69t72.5 26q44 0 72 -26t28 -69t-28 -69t-72 -26q-45 0 -72.5 26t-27.5 69z" />
    <glyph glyph-name="Lslash" unicode="&#x141;" horiz-adv-x="499" 
d="M59 355v321h242v-163l-4 -34l3 -2q12 10 24 16l63 32v-158l-86 -45v-124h187v-198h-429v171l2 27l-1 1q-8 -6 -20 -12l-43 -22v158z" />
    <glyph glyph-name="lslash" unicode="&#x142;" horiz-adv-x="320" 
d="M253 696v-227l-3 -28l2 -1q7 4 17 9l41 19v-129l-57 -28v-119q0 -27 23 -33l32 -8l-16 -157q-32 -5 -58 -5q-103 0 -151 38.5t-48 131.5v16l3 31l-2 2q-7 -5 -19 -11l-25 -12v132l43 21v358h218z" />
    <glyph glyph-name="Nacute" unicode="&#x143;" horiz-adv-x="692" 
d="M274 144v-144h-242v676h242l98 -160q8 -14 19.5 -38t18.5 -42l8 -17l6 2q-6 70 -6 109v146h242v-676h-242l-98 158q-8 14 -19.5 38t-18.5 42l-8 17l-6 -2q6 -70 6 -109zM517 844q0 -3 -0.5 -5.5t-1 -4.5t-2.5 -4.5t-3 -4t-3.5 -4l-4 -4t-5.5 -4t-5.5 -3.5t-6.5 -4.5
t-7 -4.5l-109 -71h-111l76 113q24 34 79 34h62q42 0 42 -33z" />
    <glyph glyph-name="nacute" unicode="&#x144;" horiz-adv-x="516" 
d="M495 329v-329h-218v309q0 19 -12 19q-22 0 -22 -43v-285h-218v480h160l23 -40h3q45 50 126 50q76 0 117 -41.5t41 -119.5zM408 648q0 -3 -0.5 -5.5t-1 -4.5t-2.5 -4.5t-3 -4t-3.5 -4l-4 -4t-5.5 -4t-5.5 -3.5t-6.5 -4.5t-7 -4.5l-109 -71h-111l76 113q24 34 79 34h62
q42 0 42 -33z" />
    <glyph glyph-name="Ncommaaccent" unicode="&#x145;" horiz-adv-x="692" 
d="M274 144v-144h-242v676h242l98 -160q8 -14 19.5 -38t18.5 -42l8 -17l6 2q-6 70 -6 109v146h242v-676h-242l-98 158q-8 14 -19.5 38t-18.5 42l-8 17l-6 -2q6 -70 6 -109zM238 -139q0 43 27 69t72 26t73 -26.5t28 -68.5q0 -55 -33 -127l-44 -97l-72 11l18 118v4
q-32 8 -50.5 32t-18.5 59z" />
    <glyph glyph-name="ncommaaccent" unicode="&#x146;" horiz-adv-x="516" 
d="M495 329v-329h-218v309q0 19 -12 19q-22 0 -22 -43v-285h-218v480h160l23 -40h3q45 50 126 50q76 0 117 -41.5t41 -119.5zM157 -139q0 43 27 69t72 26t73 -26.5t28 -68.5q0 -55 -33 -127l-44 -97l-72 11l18 118v4q-32 8 -50.5 32t-18.5 59z" />
    <glyph glyph-name="Ncaron" unicode="&#x147;" horiz-adv-x="692" 
d="M274 144v-144h-242v676h242l98 -160q8 -14 19.5 -38t18.5 -42l8 -17l6 2q-6 70 -6 109v146h242v-676h-242l-98 158q-8 14 -19.5 38t-18.5 42l-8 17l-6 -2q6 -70 6 -109zM290 730l-107 111l34 49l125 -46h11l125 46l34 -49l-107 -111h-115z" />
    <glyph glyph-name="ncaron" unicode="&#x148;" horiz-adv-x="516" 
d="M495 329v-329h-218v309q0 19 -12 19q-22 0 -22 -43v-285h-218v480h160l23 -40h3q45 50 126 50q76 0 117 -41.5t41 -119.5zM193 534l-107 111l34 49l125 -46h11l125 46l34 -49l-107 -111h-115z" />
    <glyph glyph-name="Omacron" unicode="&#x14c;" horiz-adv-x="668" 
d="M409 337q0 107 -22 134q-17 21 -53 21t-53 -21q-22 -27 -22 -134q0 -101 21 -132q17 -22 54 -22t54 22q21 31 21 132zM651 337q0 -199 -96 -284q-75 -68 -222 -68q-145 0 -220 68q-96 85 -96 284q0 197 92 282q78 72 224 72q148 0 226 -72q92 -85 92 -282zM471 856v-116
h-274v116h274z" />
    <glyph glyph-name="omacron" unicode="&#x14d;" horiz-adv-x="512" 
d="M495 240q0 -132 -65 -197q-53 -53 -174 -53t-174 53q-65 65 -65 197q0 134 67 197q56 53 172 53q114 0 172 -53q39 -36 53 -83.5t14 -113.5zM277 241q0 52 -4 69.5t-17 17.5t-17 -17.5t-4 -69.5q0 -54 4 -71.5t17 -17.5t17 17.5t4 71.5zM393 660v-116h-274v116h274z" />
    <glyph glyph-name="Obreve" unicode="&#x14e;" horiz-adv-x="668" 
d="M409 337q0 107 -22 134q-17 21 -53 21t-53 -21q-22 -27 -22 -134q0 -101 21 -132q17 -22 54 -22t54 22q21 31 21 132zM651 337q0 -199 -96 -284q-75 -68 -222 -68q-145 0 -220 68q-96 85 -96 284q0 197 92 282q78 72 224 72q148 0 226 -72q92 -85 92 -282zM389 877h105
q0 -65 -42 -106t-118 -41t-118 41t-42 106h105q12 -47 55 -47t55 47z" />
    <glyph glyph-name="obreve" unicode="&#x14f;" horiz-adv-x="512" 
d="M495 240q0 -132 -65 -197q-53 -53 -174 -53t-174 53q-65 65 -65 197q0 134 67 197q56 53 172 53q114 0 172 -53q39 -36 53 -83.5t14 -113.5zM277 241q0 52 -4 69.5t-17 17.5t-17 -17.5t-4 -69.5q0 -54 4 -71.5t17 -17.5t17 17.5t4 71.5zM311 681h105q0 -65 -42 -106
t-118 -41t-118 41t-42 106h105q12 -47 55 -47t55 47z" />
    <glyph glyph-name="Ohungarumlaut" unicode="&#x150;" horiz-adv-x="668" 
d="M409 337q0 107 -22 134q-17 21 -53 21t-53 -21q-22 -27 -22 -134q0 -101 21 -132q17 -22 54 -22t54 22q21 31 21 132zM651 337q0 -199 -96 -284q-75 -68 -222 -68q-145 0 -220 68q-96 85 -96 284q0 197 92 282q78 72 224 72q148 0 226 -72q92 -85 92 -282zM604 844
q0 -21 -39 -45l-109 -69h-76l76 113q24 34 79 34h29q40 0 40 -33zM417 844q0 -21 -39 -45l-109 -69h-76l76 113q24 34 79 34h29q40 0 40 -33z" />
    <glyph glyph-name="ohungarumlaut" unicode="&#x151;" horiz-adv-x="512" 
d="M529 648q0 -21 -39 -45l-109 -69h-76l76 113q24 34 79 34h29q40 0 40 -33zM342 648q0 -21 -39 -45l-109 -69h-76l76 113q24 34 79 34h29q40 0 40 -33zM495 240q0 -132 -65 -197q-53 -53 -174 -53t-174 53q-65 65 -65 197q0 134 67 197q56 53 172 53q114 0 172 -53
q39 -36 53 -83.5t14 -113.5zM277 241q0 52 -4 69.5t-17 17.5t-17 -17.5t-4 -69.5q0 -54 4 -71.5t17 -17.5t17 17.5t4 71.5z" />
    <glyph glyph-name="OE" unicode="&#x152;" horiz-adv-x="885" 
d="M637 475q4 -16 7 -41h147v-188h-146q-2 -19 -8 -46l2 -2h229v-198h-413q-54 -15 -122 -15q-145 0 -220 68q-96 85 -96 284q0 197 92 282q78 72 224 72q64 0 118 -15h404v-198h-216zM409 337q0 107 -22 134q-17 21 -53 21t-53 -21q-22 -27 -22 -134q0 -101 21 -132
q17 -22 54 -22t54 22q21 31 21 132z" />
    <glyph glyph-name="oe" unicode="&#x153;" horiz-adv-x="779" 
d="M727 164l11 -144q-84 -30 -195 -30q-99 0 -152 28h-3q-50 -28 -132 -28q-121 0 -174 53q-65 65 -65 197q0 134 67 197q56 53 172 53q81 0 131 -29h2q52 29 139 29q234 0 234 -208q0 -25 -3 -52t-6 -41l-3 -14h-257q0 -23 60 -23q62 0 174 12zM277 241q0 52 -4 69.5
t-17 17.5t-17 -17.5t-4 -69.5q0 -54 4 -71.5t17 -17.5t17 17.5t4 71.5zM493 305h62q0 18 -6.5 25.5t-22.5 7.5q-33 0 -33 -33z" />
    <glyph glyph-name="Racute" unicode="&#x154;" horiz-adv-x="608" 
d="M575 439q0 -118 -75 -185l105 -254h-254l-71 190h-6v-190h-242v676h285q123 0 183 -54q75 -67 75 -183zM333 434q0 26 -6 34q-7 10 -23 10h-30v-90h30q16 0 23 9q6 7 6 37zM420 844q0 -3 -0.5 -5.5t-1 -4.5t-2.5 -4.5t-3 -4t-3.5 -4l-4 -4t-5.5 -4t-5.5 -3.5t-6.5 -4.5
t-7 -4.5l-109 -71h-111l76 113q24 34 79 34h62q42 0 42 -33z" />
    <glyph glyph-name="racute" unicode="&#x155;" horiz-adv-x="365" 
d="M372 648q0 -3 -0.5 -5.5t-1 -4.5t-2.5 -4.5t-3 -4t-3.5 -4l-4 -4t-5.5 -4t-5.5 -3.5t-6.5 -4.5t-7 -4.5l-109 -71h-111l76 113q24 34 79 34h62q42 0 42 -33zM310 490h48l-12 -192h-44q-29 0 -44 -16.5t-15 -58.5v-223h-218v480h160l23 -40h2q32 50 100 50z" />
    <glyph glyph-name="Rcommaaccent" unicode="&#x156;" horiz-adv-x="608" 
d="M575 439q0 -118 -75 -185l105 -254h-254l-71 190h-6v-190h-242v676h285q123 0 183 -54q75 -67 75 -183zM333 434q0 26 -6 34q-7 10 -23 10h-30v-90h30q16 0 23 9q6 7 6 37zM200 -139q0 43 27 69t72 26t73 -26.5t28 -68.5q0 -55 -33 -127l-44 -97l-72 11l18 118v4
q-32 8 -50.5 32t-18.5 59z" />
    <glyph glyph-name="rcommaaccent" unicode="&#x157;" horiz-adv-x="365" 
d="M36 -139q0 43 27 69t72 26t73 -26.5t28 -68.5q0 -55 -33 -127l-44 -97l-72 11l18 118v4q-32 8 -50.5 32t-18.5 59zM310 490h48l-12 -192h-44q-29 0 -44 -16.5t-15 -58.5v-223h-218v480h160l23 -40h2q32 50 100 50z" />
    <glyph glyph-name="Rcaron" unicode="&#x158;" horiz-adv-x="608" 
d="M575 439q0 -118 -75 -185l105 -254h-254l-71 190h-6v-190h-242v676h285q123 0 183 -54q75 -67 75 -183zM333 434q0 26 -6 34q-7 10 -23 10h-30v-90h30q16 0 23 9q6 7 6 37zM211 730l-107 111l34 49l125 -46h11l125 46l34 -49l-107 -111h-115z" />
    <glyph glyph-name="rcaron" unicode="&#x159;" horiz-adv-x="365" 
d="M136 534l-107 111l34 49l125 -46h11l125 46l34 -49l-107 -111h-115zM310 490h48l-12 -192h-44q-29 0 -44 -16.5t-15 -58.5v-223h-218v480h160l23 -40h2q32 50 100 50z" />
    <glyph glyph-name="Sacute" unicode="&#x15a;" horiz-adv-x="564" 
d="M547 226q0 -106 -61.5 -173.5t-197.5 -67.5q-62 0 -139.5 18t-121.5 39l42 192q113 -45 200 -45q36 0 36 22q0 14 -22 19l-64 15q-98 23 -150 71t-52 146q0 105 66.5 167t195.5 62q110 0 228 -51l-56 -192q-31 13 -81 26t-83 13q-28 0 -28 -22q0 -16 20 -20l56 -13
q106 -24 159 -69t53 -137zM465 844q0 -3 -0.5 -5.5t-1 -4.5t-2.5 -4.5t-3 -4t-3.5 -4l-4 -4t-5.5 -4t-5.5 -3.5t-6.5 -4.5t-7 -4.5l-109 -71h-111l76 113q24 34 79 34h62q42 0 42 -33z" />
    <glyph glyph-name="sacute" unicode="&#x15b;" horiz-adv-x="502" 
d="M485 164q0 -78 -53.5 -126t-164.5 -48q-148 0 -250 48l34 144q110 -34 191 -34q25 0 25 9q0 5 -11 6q-77 6 -90 9q-144 28 -144 146q0 79 58.5 125.5t162.5 46.5q109 0 212 -41l-36 -143q-94 28 -161 28q-18 0 -18 -8q0 -6 9 -7q54 -5 96 -13q140 -27 140 -142zM434 648
q0 -3 -0.5 -5.5t-1 -4.5t-2.5 -4.5t-3 -4t-3.5 -4l-4 -4t-5.5 -4t-5.5 -3.5t-6.5 -4.5t-7 -4.5l-109 -71h-111l76 113q24 34 79 34h62q42 0 42 -33z" />
    <glyph glyph-name="Scircumflex" unicode="&#x15c;" horiz-adv-x="564" 
d="M547 226q0 -106 -61.5 -173.5t-197.5 -67.5q-62 0 -139.5 18t-121.5 39l42 192q113 -45 200 -45q36 0 36 22q0 14 -22 19l-64 15q-98 23 -150 71t-52 146q0 105 66.5 167t195.5 62q110 0 228 -51l-56 -192q-31 13 -81 26t-83 13q-28 0 -28 -22q0 -16 20 -20l56 -13
q106 -24 159 -69t53 -137zM324 883l117 -121l-34 -49l-125 46h-11l-125 -46l-34 49l117 121h95z" />
    <glyph glyph-name="scircumflex" unicode="&#x15d;" horiz-adv-x="502" 
d="M485 164q0 -78 -53.5 -126t-164.5 -48q-148 0 -250 48l34 144q110 -34 191 -34q25 0 25 9q0 5 -11 6q-77 6 -90 9q-144 28 -144 146q0 79 58.5 125.5t162.5 46.5q109 0 212 -41l-36 -143q-94 28 -161 28q-18 0 -18 -8q0 -6 9 -7q54 -5 96 -13q140 -27 140 -142zM298 687
l117 -121l-34 -49l-125 46h-11l-125 -46l-34 49l117 121h95z" />
    <glyph glyph-name="Scedilla" unicode="&#x15e;" horiz-adv-x="564" 
d="M420 -127q0 -89 -131 -89q-25 0 -55 2.5t-48 5.5l-18 2l6 71q54 -5 80 -5q30 0 30 20q0 16 -29 16h-66l20 96q-112 16 -182 50l42 192q113 -45 200 -45q36 0 36 22q0 14 -22 19l-64 15q-98 23 -150 71t-52 146q0 105 66.5 167t195.5 62q110 0 228 -51l-56 -192
q-31 13 -81 26t-83 13q-28 0 -28 -22q0 -16 20 -20l56 -13q106 -24 159 -69t53 -137q0 -100 -54.5 -166t-175.5 -74l-6 -28h10q99 0 99 -85z" />
    <glyph glyph-name="scedilla" unicode="&#x15f;" horiz-adv-x="502" 
d="M485 164q0 -73 -48 -120.5t-147 -52.5l-8 -33h10q99 0 99 -85q0 -89 -131 -89q-25 0 -55 2.5t-48 5.5l-18 2l6 71q54 -5 80 -5q30 0 30 20q0 16 -29 16h-66l21 100q-102 12 -164 42l34 144q110 -34 191 -34q25 0 25 9q0 5 -11 6q-77 6 -90 9q-144 28 -144 146
q0 79 58.5 125.5t162.5 46.5q109 0 212 -41l-36 -143q-94 28 -161 28q-18 0 -18 -8q0 -6 9 -7q54 -5 96 -13q140 -27 140 -142z" />
    <glyph glyph-name="Scaron" unicode="&#x160;" horiz-adv-x="564" 
d="M547 226q0 -106 -61.5 -173.5t-197.5 -67.5q-62 0 -139.5 18t-121.5 39l42 192q113 -45 200 -45q36 0 36 22q0 14 -22 19l-64 15q-98 23 -150 71t-52 146q0 105 66.5 167t195.5 62q110 0 228 -51l-56 -192q-31 13 -81 26t-83 13q-28 0 -28 -22q0 -16 20 -20l56 -13
q106 -24 159 -69t53 -137zM216 734l-107 111l34 49l125 -46h11l125 46l34 -49l-107 -111h-115z" />
    <glyph glyph-name="scaron" unicode="&#x161;" horiz-adv-x="502" 
d="M485 164q0 -78 -53.5 -126t-164.5 -48q-148 0 -250 48l34 144q110 -34 191 -34q25 0 25 9q0 5 -11 6q-77 6 -90 9q-144 28 -144 146q0 79 58.5 125.5t162.5 46.5q109 0 212 -41l-36 -143q-94 28 -161 28q-18 0 -18 -8q0 -6 9 -7q54 -5 96 -13q140 -27 140 -142zM191 534
l-107 111l34 49l125 -46h11l125 46l34 -49l-107 -111h-115z" />
    <glyph glyph-name="Tcommaaccent" unicode="&#x162;" horiz-adv-x="558" 
d="M549 478h-149v-478h-242v478h-149v198h540v-198zM176 -139q0 43 27 69t72 26t73 -26.5t28 -68.5q0 -55 -33 -127l-44 -97l-72 11l18 118v4q-32 8 -50.5 32t-18.5 59z" />
    <glyph glyph-name="Tcommaaccent" unicode="&#x21a;" horiz-adv-x="558" 
d="M549 478h-149v-478h-242v478h-149v198h540v-198zM176 -139q0 43 27 69t72 26t73 -26.5t28 -68.5q0 -55 -33 -127l-44 -97l-72 11l18 118v4q-32 8 -50.5 32t-18.5 59z" />
    <glyph glyph-name="tcommaaccent" unicode="&#x163;" horiz-adv-x="375" 
d="M109 -139q0 43 27 69t72 26t73 -26.5t28 -68.5q0 -55 -33 -127l-44 -97l-72 11l18 118v4q-32 8 -50.5 32t-18.5 59zM7 318v162h56v105l218 44v-149h83v-162h-83v-109q0 -31 10.5 -44t33.5 -13h43l-10 -162h-85q-210 0 -210 178v150h-56z" />
    <glyph glyph-name="tcommaaccent" unicode="&#x21b;" horiz-adv-x="375" 
d="M109 -139q0 43 27 69t72 26t73 -26.5t28 -68.5q0 -55 -33 -127l-44 -97l-72 11l18 118v4q-32 8 -50.5 32t-18.5 59zM7 318v162h56v105l218 44v-149h83v-162h-83v-109q0 -31 10.5 -44t33.5 -13h43l-10 -162h-85q-210 0 -210 178v150h-56z" />
    <glyph glyph-name="Tcaron" unicode="&#x164;" horiz-adv-x="558" 
d="M549 478h-149v-478h-242v478h-149v198h540v-198zM221 730l-107 111l34 49l125 -46h11l125 46l34 -49l-107 -111h-115z" />
    <glyph glyph-name="tcaron" unicode="&#x165;" horiz-adv-x="375" 
d="M326 648v3q-34 7 -52 32t-18 60q0 44 26.5 69.5t67.5 25.5q43 0 69.5 -25.5t26.5 -69.5q0 -50 -29 -130l-33 -95l-69 10zM7 318v162h56v105l218 44v-149h83v-162h-83v-109q0 -31 10.5 -44t33.5 -13h43l-10 -162h-85q-210 0 -210 178v150h-56z" />
    <glyph glyph-name="Utilde" unicode="&#x168;" horiz-adv-x="620" 
d="M591 676v-449q0 -116 -77.5 -179t-203.5 -63t-203.5 63t-77.5 179v449h242v-438q0 -55 39 -55t39 55v438h242zM419 890l63 -51q-7 -42 -32.5 -74t-77.5 -32q-24 0 -67 17.5t-57 17.5q-30 0 -49 -39l-63 51q6 38 32.5 72t77.5 34q24 0 66.5 -17.5t56.5 -17.5q32 0 50 39z
" />
    <glyph glyph-name="utilde" unicode="&#x169;" horiz-adv-x="534" 
d="M491 480v-290q0 -17 5.5 -24t17.5 -10l18 -5l-28 -155q-20 -7 -61 -7q-90 0 -135 51h-2q-48 -50 -119 -50q-85 0 -125.5 45t-40.5 135v310h218v-302q0 -26 15 -26q19 0 19 66v262h218zM367 694l63 -51q-7 -42 -32.5 -74t-77.5 -32q-24 0 -67 17.5t-57 17.5q-30 0 -49 -39
l-63 51q6 38 32.5 72t77.5 34q24 0 66.5 -17.5t56.5 -17.5q32 0 50 39z" />
    <glyph glyph-name="Umacron" unicode="&#x16a;" horiz-adv-x="620" 
d="M591 676v-449q0 -116 -77.5 -179t-203.5 -63t-203.5 63t-77.5 179v449h242v-438q0 -55 39 -55t39 55v438h242zM447 856v-116h-274v116h274z" />
    <glyph glyph-name="umacron" unicode="&#x16b;" horiz-adv-x="534" 
d="M491 480v-290q0 -17 5.5 -24t17.5 -10l18 -5l-28 -155q-20 -7 -61 -7q-90 0 -135 51h-2q-48 -50 -119 -50q-85 0 -125.5 45t-40.5 135v310h218v-302q0 -26 15 -26q19 0 19 66v262h218zM394 660v-116h-274v116h274z" />
    <glyph glyph-name="Ubreve" unicode="&#x16c;" horiz-adv-x="620" 
d="M591 676v-449q0 -116 -77.5 -179t-203.5 -63t-203.5 63t-77.5 179v449h242v-438q0 -55 39 -55t39 55v438h242zM365 877h105q0 -65 -42 -106t-118 -41t-118 41t-42 106h105q12 -47 55 -47t55 47z" />
    <glyph glyph-name="ubreve" unicode="&#x16d;" horiz-adv-x="534" 
d="M491 480v-290q0 -17 5.5 -24t17.5 -10l18 -5l-28 -155q-20 -7 -61 -7q-90 0 -135 51h-2q-48 -50 -119 -50q-85 0 -125.5 45t-40.5 135v310h218v-302q0 -26 15 -26q19 0 19 66v262h218zM314 681h105q0 -65 -42 -106t-118 -41t-118 41t-42 106h105q12 -47 55 -47t55 47z
" />
    <glyph glyph-name="Uring" unicode="&#x16e;" horiz-adv-x="620" 
d="M591 676v-449q0 -116 -77.5 -179t-203.5 -63t-203.5 63t-77.5 179v449h242v-438q0 -55 39 -55t39 55v438h242zM346 833q0 13 -10 22t-26 9t-26 -9t-10 -22t10 -21.5t26 -8.5t26 8.5t10 21.5zM438 833q0 -46 -33.5 -74.5t-94.5 -28.5t-94.5 28.5t-33.5 74.5
q0 47 33.5 75.5t94.5 28.5t94.5 -28.5t33.5 -75.5z" />
    <glyph glyph-name="uring" unicode="&#x16f;" horiz-adv-x="534" 
d="M491 480v-290q0 -17 5.5 -24t17.5 -10l18 -5l-28 -155q-20 -7 -61 -7q-90 0 -135 51h-2q-48 -50 -119 -50q-85 0 -125.5 45t-40.5 135v310h218v-302q0 -26 15 -26q19 0 19 66v262h218zM292 637q0 13 -10 22t-26 9t-26 -9t-10 -22t10 -21.5t26 -8.5t26 8.5t10 21.5z
M384 637q0 -46 -33.5 -74.5t-94.5 -28.5t-94.5 28.5t-33.5 74.5q0 47 33.5 75.5t94.5 28.5t94.5 -28.5t33.5 -75.5z" />
    <glyph glyph-name="Uhungarumlaut" unicode="&#x170;" horiz-adv-x="620" 
d="M591 676v-449q0 -116 -77.5 -179t-203.5 -63t-203.5 63t-77.5 179v449h242v-438q0 -55 39 -55t39 55v438h242zM573 844q0 -21 -39 -45l-109 -69h-76l76 113q24 34 79 34h29q40 0 40 -33zM386 844q0 -21 -39 -45l-109 -69h-76l76 113q24 34 79 34h29q40 0 40 -33z" />
    <glyph glyph-name="uhungarumlaut" unicode="&#x171;" horiz-adv-x="534" 
d="M491 480v-290q0 -17 5.5 -24t17.5 -10l18 -5l-28 -155q-20 -7 -61 -7q-90 0 -135 51h-2q-48 -50 -119 -50q-85 0 -125.5 45t-40.5 135v310h218v-302q0 -26 15 -26q19 0 19 66v262h218zM521 648q0 -21 -39 -45l-109 -69h-76l76 113q24 34 79 34h29q40 0 40 -33zM334 648
q0 -21 -39 -45l-109 -69h-76l76 113q24 34 79 34h29q40 0 40 -33z" />
    <glyph glyph-name="Uogonek" unicode="&#x172;" horiz-adv-x="620" 
d="M591 676v-449q0 -85 -42.5 -142t-117.5 -82q-52 -54 -52 -96q0 -31 36 -31l31 2l7 -84q-38 -10 -84 -10q-68 0 -104 23.5t-36 66.5q0 60 63 110v1q-118 5 -190.5 67.5t-72.5 174.5v449h242v-438q0 -55 39 -55t39 55v438h242z" />
    <glyph glyph-name="uogonek" unicode="&#x173;" horiz-adv-x="534" 
d="M491 480v-290q0 -17 5.5 -24t17.5 -10l18 -5l-28 -155q-46 -52 -46 -89q0 -31 36 -31l31 2l7 -84q-38 -10 -84 -10q-68 0 -104 23.5t-36 66.5q0 71 76 120v2q-49 12 -76 44h-2q-48 -50 -119 -50q-85 0 -125.5 45t-40.5 135v310h218v-302q0 -26 15 -26q19 0 19 66v262h218
z" />
    <glyph glyph-name="Wcircumflex" unicode="&#x174;" horiz-adv-x="988" 
d="M562 0l-52 190l-13 80h-6q-5 -50 -13 -80l-52 -190h-247l-176 676h250l56 -216q5 -20 8.5 -45.5t4.5 -40.5l2 -16h6q6 58 18 102l47 174h198l47 -174q5 -20 9.5 -45.5t6.5 -40.5l2 -16h6q4 59 15 102l56 216h250l-176 -676h-247zM542 883l117 -121l-34 -49l-125 46h-11
l-125 -46l-34 49l117 121h95z" />
    <glyph glyph-name="wcircumflex" unicode="&#x175;" horiz-adv-x="760" 
d="M312 469h136l30 -97l17 -71h3q4 40 12 71l27 108h220l-139 -480h-189l-32 107l-15 64h-4q-8 -41 -15 -64l-32 -107h-189l-139 480h220l27 -108l12 -71h3q8 42 17 71zM428 687l117 -121l-34 -49l-125 46h-11l-125 -46l-34 49l117 121h95z" />
    <glyph glyph-name="Ycircumflex" unicode="&#x176;" horiz-adv-x="674" 
d="M671 676l-213 -442v-234h-242v234l-213 442h266l45 -112q5 -13 10 -33t8 -34l2 -14h6q8 52 20 81l45 112h266zM387 883l117 -121l-34 -49l-125 46h-11l-125 -46l-34 49l117 121h95z" />
    <glyph glyph-name="ycircumflex" unicode="&#x177;" horiz-adv-x="586" 
d="M355 480h228l-153 -553q-24 -84 -79.5 -123.5t-155.5 -39.5h-139v162h103q47 0 60 45l8 29h-67l-157 480h227l50 -160l15 -73h4q7 45 14 73zM340 687l117 -121l-34 -49l-125 46h-11l-125 -46l-34 49l117 121h95z" />
    <glyph glyph-name="Ydieresis" unicode="&#x178;" horiz-adv-x="674" 
d="M671 676l-213 -442v-234h-242v234l-213 442h266l45 -112q5 -13 10 -33t8 -34l2 -14h6q8 52 20 81l45 112h266zM136 807q0 47 25.5 71t67.5 24t67.5 -24t25.5 -71q0 -46 -25.5 -70.5t-67.5 -24.5t-67.5 24.5t-25.5 70.5zM352 807q0 47 25.5 71t67.5 24t67.5 -24t25.5 -71
q0 -46 -25.5 -70.5t-67.5 -24.5t-67.5 24.5t-25.5 70.5z" />
    <glyph glyph-name="Zacute" unicode="&#x179;" horiz-adv-x="573" 
d="M556 0h-539l180 421q7 15 14.5 28.5t12.5 18.5l4 6v4h-181v198h509l-182 -425q-6 -14 -14 -27t-13 -18l-5 -6v-2h214v-198zM480 844q0 -3 -0.5 -5.5t-1 -4.5t-2.5 -4.5t-3 -4t-3.5 -4l-4 -4t-5.5 -4t-5.5 -3.5t-6.5 -4.5t-7 -4.5l-109 -71h-111l76 113q24 34 79 34h62
q42 0 42 -33z" />
    <glyph glyph-name="zacute" unicode="&#x17a;" horiz-adv-x="453" 
d="M35 318v162h401v-85l-104 -187q-6 -11 -13.5 -22t-12.5 -16l-4 -5l1 -3h133v-162h-419v81l110 198l26 37l-1 2h-117zM416 648q0 -3 -0.5 -5.5t-1 -4.5t-2.5 -4.5t-3 -4t-3.5 -4l-4 -4t-5.5 -4t-5.5 -3.5t-6.5 -4.5t-7 -4.5l-109 -71h-111l76 113q24 34 79 34h62
q42 0 42 -33z" />
    <glyph glyph-name="Zdotaccent" unicode="&#x17b;" horiz-adv-x="573" 
d="M556 0h-539l180 421q7 15 14.5 28.5t12.5 18.5l4 6v4h-181v198h509l-182 -425q-6 -14 -14 -27t-13 -18l-5 -6v-2h214v-198zM202 807q0 43 27.5 69t72.5 26q44 0 72 -26t28 -69t-28 -69t-72 -26q-45 0 -72.5 26t-27.5 69z" />
    <glyph glyph-name="zdotaccent" unicode="&#x17c;" horiz-adv-x="453" 
d="M35 318v162h401v-85l-104 -187q-6 -11 -13.5 -22t-12.5 -16l-4 -5l1 -3h133v-162h-419v81l110 198l26 37l-1 2h-117zM127 603q0 43 27.5 69t72.5 26q44 0 72 -26t28 -69t-28 -69t-72 -26q-45 0 -72.5 26t-27.5 69z" />
    <glyph glyph-name="Zcaron" unicode="&#x17d;" horiz-adv-x="573" 
d="M556 0h-539l180 421q7 15 14.5 28.5t12.5 18.5l4 6v4h-181v198h509l-182 -425q-6 -14 -14 -27t-13 -18l-5 -6v-2h214v-198zM242 734l-107 111l34 49l125 -46h11l125 46l34 -49l-107 -111h-115z" />
    <glyph glyph-name="zcaron" unicode="&#x17e;" horiz-adv-x="453" 
d="M35 318v162h401v-85l-104 -187q-6 -11 -13.5 -22t-12.5 -16l-4 -5l1 -3h133v-162h-419v81l110 198l26 37l-1 2h-117zM189 534l-107 111l34 49l125 -46h11l125 46l34 -49l-107 -111h-115z" />
    <glyph glyph-name="florin" unicode="&#x192;" horiz-adv-x="423" 
d="M443 697l-33 -165q-27 5 -50 5q-33 0 -39 -29l-5 -28h86l-32 -162h-86l-68 -351q-21 -104 -81 -153.5t-172 -49.5q-18 0 -39 2.5t-32 5.5l-12 2l29 155q18 -3 36 -3q25 0 37.5 11t18.5 39l65 342h-54l32 162h54l12 62q17 88 68 128.5t155 40.5q28 0 55.5 -3.5t41.5 -7.5z
" />
    <glyph glyph-name="AEacute" unicode="&#x1fc;" horiz-adv-x="874" 
d="M388 0v72h-109l-20 -72h-256l230 676h611v-198h-214v-44h150v-188h-150v-48h227v-198h-469zM344 309l-11 -39h55v167l-13 1q-27 -114 -31 -129zM764 844q0 -3 -0.5 -5.5t-1 -4.5t-2.5 -4.5t-3 -4t-3.5 -4l-4 -4t-5.5 -4t-5.5 -3.5t-6.5 -4.5t-7 -4.5l-109 -71h-111
l76 113q24 34 79 34h62q42 0 42 -33z" />
    <glyph glyph-name="aeacute" unicode="&#x1fd;" horiz-adv-x="788" 
d="M736 164l11 -144q-84 -30 -195 -30q-130 0 -193 51h-5q-67 -51 -168 -51q-84 0 -126.5 43.5t-42.5 112.5q0 126 146 157q57 12 121 12v6q0 11 -30 11q-92 0 -182 -40l-35 144q46 23 114.5 38.5t122.5 15.5q81 0 133 -27h2q52 27 128 27q234 0 234 -208q0 -25 -3 -51.5
t-6 -40.5l-3 -14h-257q0 -24 60 -24q62 0 174 12zM243 151q16 0 41 16v23q-30 -2 -44 -6q-15 -4 -15 -17q0 -16 18 -16zM502 305h62q0 18 -6.5 25.5t-22.5 7.5q-33 0 -33 -33zM616 648q0 -3 -0.5 -5.5t-1 -4.5t-2.5 -4.5t-3 -4t-3.5 -4l-4 -4t-5.5 -4t-5.5 -3.5t-6.5 -4.5
t-7 -4.5l-109 -71h-111l76 113q24 34 79 34h62q42 0 42 -33z" />
    <glyph glyph-name="Oslashacute" unicode="&#x1fe;" horiz-adv-x="668" 
d="M524 844q0 -3 -0.5 -5.5t-1 -4.5t-2.5 -4.5t-3 -4t-3.5 -4l-4 -4t-5.5 -4t-5.5 -3.5t-6.5 -4.5t-7 -4.5l-109 -71h-111l76 113q24 34 79 34h62q42 0 42 -33zM18 50l47 60q-48 81 -48 227q0 197 92 282q78 72 224 72q94 0 163 -32l44 56l112 -84l-51 -64q50 -84 50 -230
q0 -199 -96 -284q-75 -68 -222 -68q-97 0 -163 31l-40 -51zM388 205q19 29 22 118h-1q-6 -10 -18 -25l-87 -111q12 -4 30 -4q37 0 54 22zM281 471q-22 -27 -23 -115h2q7 11 14 20l88 112q-12 4 -28 4q-36 0 -53 -21z" />
    <glyph glyph-name="oslashacute" unicode="&#x1ff;" horiz-adv-x="512" 
d="M448 648q0 -3 -0.5 -5.5t-1 -4.5t-2.5 -4.5t-3 -4t-3.5 -4l-4 -4t-5.5 -4t-5.5 -3.5t-6.5 -4.5t-7 -4.5l-109 -71h-111l76 113q24 34 79 34h62q42 0 42 -33zM21 37l33 39q-37 57 -37 164q0 134 67 197q56 53 172 53q74 0 129 -25l29 35l73 -61l-30 -36q38 -56 38 -163
q0 -132 -65 -197q-53 -53 -174 -53q-76 0 -130 24l-32 -38zM283 175l2 27l-2 1q-5 -9 -12 -18l-33 -39q5 -6 18 -6q27 0 27 35zM228 298l-2 -20l2 -1q5 9 9 14l36 43q-6 6 -17 6q-15 0 -21.5 -9t-6.5 -33z" />
    <glyph glyph-name="Adblgrave" unicode="&#x200;" horiz-adv-x="678" 
d="M3 0l199 676h274l199 -676h-254l-15 72h-134l-15 -72h-254zM321 309l-8 -39h52l-8 39l-14 91h-8q-11 -76 -14 -91zM93 844q0 33 40 33h29q55 0 79 -34l76 -113h-76l-109 69q-39 24 -39 45zM280 844q0 33 40 33h29q55 0 79 -34l76 -113h-76l-109 69q-39 24 -39 45z" />
    <glyph glyph-name="adblgrave" unicode="&#x201;" horiz-adv-x="545" 
d="M454 -11q-91 0 -136 51h-2q-39 -50 -130 -50q-84 0 -126.5 43.5t-42.5 112.5q0 126 146 157q57 12 121 12v6q0 11 -30 11q-96 0 -182 -40l-35 142q46 23 114.5 39.5t122.5 16.5q114 0 171 -44.5t57 -125.5v-130q0 -17 5.5 -24t17.5 -10l18 -5l-28 -155q-20 -7 -61 -7z
M243 151q16 0 41 16v23q-30 -2 -44 -6q-15 -4 -15 -17q0 -16 18 -16zM26 648q0 33 40 33h29q55 0 79 -34l76 -113h-76l-109 69q-39 24 -39 45zM213 648q0 33 40 33h29q55 0 79 -34l76 -113h-76l-109 69q-39 24 -39 45z" />
    <glyph glyph-name="Ainvertedbreve" unicode="&#x202;" horiz-adv-x="678" 
d="M3 0l199 676h274l199 -676h-254l-15 72h-134l-15 -72h-254zM321 309l-8 -39h52l-8 39l-14 91h-8q-11 -76 -14 -91zM281 730h-105q0 65 42 106t118 41t118 -41t42 -106h-105q-12 47 -55 47t-55 -47z" />
    <glyph glyph-name="ainvertedbreve" unicode="&#x203;" horiz-adv-x="545" 
d="M454 -11q-91 0 -136 51h-2q-39 -50 -130 -50q-84 0 -126.5 43.5t-42.5 112.5q0 126 146 157q57 12 121 12v6q0 11 -30 11q-96 0 -182 -40l-35 142q46 23 114.5 39.5t122.5 16.5q114 0 171 -44.5t57 -125.5v-130q0 -17 5.5 -24t17.5 -10l18 -5l-28 -155q-20 -7 -61 -7z
M243 151q16 0 41 16v23q-30 -2 -44 -6q-15 -4 -15 -17q0 -16 18 -16zM223 534h-105q0 65 42 106t118 41t118 -41t42 -106h-105q-12 47 -55 47t-55 -47z" />
    <glyph glyph-name="Edblgrave" unicode="&#x204;" horiz-adv-x="518" 
d="M32 0v676h456v-198h-214v-44h150v-188h-150v-48h227v-198h-469zM-9 844q0 33 40 33h29q55 0 79 -34l76 -113h-76l-109 69q-39 24 -39 45zM178 844q0 33 40 33h29q55 0 79 -34l76 -113h-76l-109 69q-39 24 -39 45z" />
    <glyph glyph-name="edblgrave" unicode="&#x205;" horiz-adv-x="521" 
d="M235 305h62q0 18 -6.5 25.5t-22.5 7.5q-33 0 -33 -33zM469 164l11 -144q-84 -30 -195 -30q-144 0 -206 62.5t-62 188.5q0 249 253 249q234 0 234 -208q0 -25 -3 -52t-6 -41l-3 -14h-257q0 -23 60 -23q62 0 174 12zM17 648q0 33 40 33h29q55 0 79 -34l76 -113h-76l-109 69
q-39 24 -39 45zM204 648q0 33 40 33h29q55 0 79 -34l76 -113h-76l-109 69q-39 24 -39 45z" />
    <glyph glyph-name="Einvertedbreve" unicode="&#x206;" horiz-adv-x="518" 
d="M32 0v676h456v-198h-214v-44h150v-188h-150v-48h227v-198h-469zM200 730h-105q0 65 42 106t118 41t118 -41t42 -106h-105q-12 47 -55 47t-55 -47z" />
    <glyph glyph-name="einvertedbreve" unicode="&#x207;" horiz-adv-x="521" 
d="M235 305h62q0 18 -6.5 25.5t-22.5 7.5q-33 0 -33 -33zM469 164l11 -144q-84 -30 -195 -30q-144 0 -206 62.5t-62 188.5q0 249 253 249q234 0 234 -208q0 -25 -3 -52t-6 -41l-3 -14h-257q0 -23 60 -23q62 0 174 12zM218 534h-105q0 65 42 106t118 41t118 -41t42 -106h-105
q-12 47 -55 47t-55 -47z" />
    <glyph glyph-name="Idblgrave" unicode="&#x208;" horiz-adv-x="306" 
d="M-132 844q0 33 40 33h29q55 0 79 -34l76 -113h-76l-109 69q-39 24 -39 45zM55 844q0 33 40 33h29q55 0 79 -34l76 -113h-76l-109 69q-39 24 -39 45zM32 0v676h242v-676h-242z" />
    <glyph glyph-name="idblgrave" unicode="&#x209;" horiz-adv-x="268" 
d="M-134 648q0 33 40 33h29q55 0 79 -34l76 -113h-76l-109 69q-39 24 -39 45zM53 648q0 33 40 33h29q55 0 79 -34l76 -113h-76l-109 69q-39 24 -39 45zM25 0v480h218v-480h-218z" />
    <glyph glyph-name="Iinvertedbreve" unicode="&#x20a;" horiz-adv-x="306" 
d="M98 730h-105q0 65 42 106t118 41t118 -41t42 -106h-105q-12 47 -55 47t-55 -47zM32 0v676h242v-676h-242z" />
    <glyph glyph-name="iinvertedbreve" unicode="&#x20b;" horiz-adv-x="268" 
d="M79 534h-105q0 65 42 106t118 41t118 -41t42 -106h-105q-12 47 -55 47t-55 -47zM25 0v480h218v-480h-218z" />
    <glyph glyph-name="Odblgrave" unicode="&#x20c;" horiz-adv-x="668" 
d="M409 337q0 107 -22 134q-17 21 -53 21t-53 -21q-22 -27 -22 -134q0 -101 21 -132q17 -22 54 -22t54 22q21 31 21 132zM651 337q0 -199 -96 -284q-75 -68 -222 -68q-145 0 -220 68q-96 85 -96 284q0 197 92 282q78 72 224 72q148 0 226 -72q92 -85 92 -282zM74 844
q0 33 40 33h29q55 0 79 -34l76 -113h-76l-109 69q-39 24 -39 45zM261 844q0 33 40 33h29q55 0 79 -34l76 -113h-76l-109 69q-39 24 -39 45z" />
    <glyph glyph-name="odblgrave" unicode="&#x20d;" horiz-adv-x="512" 
d="M495 240q0 -132 -65 -197q-53 -53 -174 -53t-174 53q-65 65 -65 197q0 134 67 197q56 53 172 53q114 0 172 -53q39 -36 53 -83.5t14 -113.5zM277 241q0 52 -4 69.5t-17 17.5t-17 -17.5t-4 -69.5q0 -54 4 -71.5t17 -17.5t17 17.5t4 71.5zM-1 648q0 33 40 33h29
q55 0 79 -34l76 -113h-76l-109 69q-39 24 -39 45zM186 648q0 33 40 33h29q55 0 79 -34l76 -113h-76l-109 69q-39 24 -39 45z" />
    <glyph glyph-name="Oinvertedbreve" unicode="&#x20e;" horiz-adv-x="668" 
d="M409 337q0 107 -22 134q-17 21 -53 21t-53 -21q-22 -27 -22 -134q0 -101 21 -132q17 -22 54 -22t54 22q21 31 21 132zM651 337q0 -199 -96 -284q-75 -68 -222 -68q-145 0 -220 68q-96 85 -96 284q0 197 92 282q78 72 224 72q148 0 226 -72q92 -85 92 -282zM279 730h-105
q0 65 42 106t118 41t118 -41t42 -106h-105q-12 47 -55 47t-55 -47z" />
    <glyph glyph-name="oinvertedbreve" unicode="&#x20f;" horiz-adv-x="512" 
d="M495 240q0 -132 -65 -197q-53 -53 -174 -53t-174 53q-65 65 -65 197q0 134 67 197q56 53 172 53q114 0 172 -53q39 -36 53 -83.5t14 -113.5zM277 241q0 52 -4 69.5t-17 17.5t-17 -17.5t-4 -69.5q0 -54 4 -71.5t17 -17.5t17 17.5t4 71.5zM201 534h-105q0 65 42 106t118 41
t118 -41t42 -106h-105q-12 47 -55 47t-55 -47z" />
    <glyph glyph-name="Rdblgrave" unicode="&#x210;" horiz-adv-x="608" 
d="M-4 844q0 33 40 33h29q55 0 79 -34l76 -113h-76l-109 69q-39 24 -39 45zM183 844q0 33 40 33h29q55 0 79 -34l76 -113h-76l-109 69q-39 24 -39 45zM575 439q0 -118 -75 -185l105 -254h-254l-71 190h-6v-190h-242v676h285q123 0 183 -54q75 -67 75 -183zM333 434
q0 26 -6 34q-7 10 -23 10h-30v-90h30q16 0 23 9q6 7 6 37z" />
    <glyph glyph-name="rdblgrave" unicode="&#x211;" horiz-adv-x="365" 
d="M-72 648q0 33 40 33h29q55 0 79 -34l76 -113h-76l-109 69q-39 24 -39 45zM115 648q0 33 40 33h29q55 0 79 -34l76 -113h-76l-109 69q-39 24 -39 45zM310 490h48l-12 -192h-44q-29 0 -44 -16.5t-15 -58.5v-223h-218v480h160l23 -40h2q32 50 100 50z" />
    <glyph glyph-name="Rinvertedbreve" unicode="&#x212;" horiz-adv-x="608" 
d="M575 439q0 -118 -75 -185l105 -254h-254l-71 190h-6v-190h-242v676h285q123 0 183 -54q75 -67 75 -183zM333 434q0 26 -6 34q-7 10 -23 10h-30v-90h30q16 0 23 9q6 7 6 37zM215 730h-105q0 65 42 106t118 41t118 -41t42 -106h-105q-12 47 -55 47t-55 -47z" />
    <glyph glyph-name="rinvertedbreve" unicode="&#x213;" horiz-adv-x="365" 
d="M134 534h-105q0 65 42 106t118 41t118 -41t42 -106h-105q-12 47 -55 47t-55 -47zM310 490h48l-12 -192h-44q-29 0 -44 -16.5t-15 -58.5v-223h-218v480h160l23 -40h2q32 50 100 50z" />
    <glyph glyph-name="Udblgrave" unicode="&#x214;" horiz-adv-x="620" 
d="M591 676v-449q0 -116 -77.5 -179t-203.5 -63t-203.5 63t-77.5 179v449h242v-438q0 -55 39 -55t39 55v438h242zM47 844q0 33 40 33h29q55 0 79 -34l76 -113h-76l-109 69q-39 24 -39 45zM234 844q0 33 40 33h29q55 0 79 -34l76 -113h-76l-109 69q-39 24 -39 45z" />
    <glyph glyph-name="udblgrave" unicode="&#x215;" horiz-adv-x="534" 
d="M491 480v-290q0 -17 5.5 -24t17.5 -10l18 -5l-28 -155q-20 -7 -61 -7q-90 0 -135 51h-2q-48 -50 -119 -50q-85 0 -125.5 45t-40.5 135v310h218v-302q0 -26 15 -26q19 0 19 66v262h218zM17 648q0 33 40 33h29q55 0 79 -34l76 -113h-76l-109 69q-39 24 -39 45zM204 648
q0 33 40 33h29q55 0 79 -34l76 -113h-76l-109 69q-39 24 -39 45z" />
    <glyph glyph-name="Uinvertedbreve" unicode="&#x216;" horiz-adv-x="620" 
d="M591 676v-449q0 -116 -77.5 -179t-203.5 -63t-203.5 63t-77.5 179v449h242v-438q0 -55 39 -55t39 55v438h242zM255 730h-105q0 65 42 106t118 41t118 -41t42 -106h-105q-12 47 -55 47t-55 -47z" />
    <glyph glyph-name="uinvertedbreve" unicode="&#x217;" horiz-adv-x="534" 
d="M491 480v-290q0 -17 5.5 -24t17.5 -10l18 -5l-28 -155q-20 -7 -61 -7q-90 0 -135 51h-2q-48 -50 -119 -50q-85 0 -125.5 45t-40.5 135v310h218v-302q0 -26 15 -26q19 0 19 66v262h218zM202 534h-105q0 65 42 106t118 41t118 -41t42 -106h-105q-12 47 -55 47t-55 -47z" />
    <glyph glyph-name="Scommaaccent" unicode="&#x218;" horiz-adv-x="564" 
d="M547 226q0 -106 -61.5 -173.5t-197.5 -67.5q-62 0 -139.5 18t-121.5 39l42 192q113 -45 200 -45q36 0 36 22q0 14 -22 19l-64 15q-98 23 -150 71t-52 146q0 105 66.5 167t195.5 62q110 0 228 -51l-56 -192q-31 13 -81 26t-83 13q-28 0 -28 -22q0 -16 20 -20l56 -13
q106 -24 159 -69t53 -137zM195 -139q0 43 27 69t72 26t73 -26.5t28 -68.5q0 -55 -33 -127l-44 -97l-72 11l18 118v4q-32 8 -50.5 32t-18.5 59z" />
    <glyph glyph-name="scommaaccent" unicode="&#x219;" horiz-adv-x="502" 
d="M485 164q0 -78 -53.5 -126t-164.5 -48q-148 0 -250 48l34 144q110 -34 191 -34q25 0 25 9q0 5 -11 6q-77 6 -90 9q-144 28 -144 146q0 79 58.5 125.5t162.5 46.5q109 0 212 -41l-36 -143q-94 28 -161 28q-18 0 -18 -8q0 -6 9 -7q54 -5 96 -13q140 -27 140 -142zM169 -139
q0 43 27 69t72 26t73 -26.5t28 -68.5q0 -55 -33 -127l-44 -97l-72 11l18 118v4q-32 8 -50.5 32t-18.5 59z" />
    <glyph glyph-name="circumflex" unicode="&#x2c6;" horiz-adv-x="447" 
d="M271 687l117 -121l-34 -49l-125 46h-11l-125 -46l-34 49l117 121h95z" />
    <glyph glyph-name="caron" unicode="&#x2c7;" horiz-adv-x="447" 
d="M166 534l-107 111l34 49l125 -46h11l125 46l34 -49l-107 -111h-115z" />
    <glyph glyph-name="breve" unicode="&#x2d8;" horiz-adv-x="470" 
d="M290 681h105q0 -65 -42 -106t-118 -41t-118 41t-42 106h105q12 -47 55 -47t55 47z" />
    <glyph glyph-name="dotaccent" unicode="&#x2d9;" horiz-adv-x="470" 
d="M135 603q0 43 27.5 69t72.5 26q44 0 72 -26t28 -69t-28 -69t-72 -26q-45 0 -72.5 26t-27.5 69z" />
    <glyph glyph-name="ring" unicode="&#x2da;" horiz-adv-x="470" 
d="M271 637q0 13 -10 22t-26 9t-26 -9t-10 -22t10 -21.5t26 -8.5t26 8.5t10 21.5zM363 637q0 -46 -33.5 -74.5t-94.5 -28.5t-94.5 28.5t-33.5 74.5q0 47 33.5 75.5t94.5 28.5t94.5 -28.5t33.5 -75.5z" />
    <glyph glyph-name="ogonek" unicode="&#x2db;" horiz-adv-x="470" 
d="M332 -122l7 -84q-38 -10 -84 -10q-68 0 -104 23.5t-36 66.5q0 45 31 79.5t62 50.5h110q-53 -56 -53 -97q0 -31 36 -31z" />
    <glyph glyph-name="tilde" unicode="&#x2dc;" horiz-adv-x="470" 
d="M347 694l63 -51q-7 -42 -32.5 -74t-77.5 -32q-24 0 -67 17.5t-57 17.5q-30 0 -49 -39l-63 51q6 38 32.5 72t77.5 34q24 0 66.5 -17.5t56.5 -17.5q32 0 50 39z" />
    <glyph glyph-name="hungarumlaut" unicode="&#x2dd;" horiz-adv-x="470" 
d="M437 648q0 -21 -39 -45l-109 -69h-76l76 113q24 34 79 34h29q40 0 40 -33zM250 648q0 -21 -39 -45l-109 -69h-76l76 113q24 34 79 34h29q40 0 40 -33z" />
    <glyph glyph-name="invertedbreve" unicode="&#x311;" horiz-adv-x="470" 
d="M180 534h-105q0 65 42 106t118 41t118 -41t42 -106h-105q-12 47 -55 47t-55 -47z" />
    <glyph glyph-name="pi" unicode="&#x3c0;" horiz-adv-x="626" 
d="M10 318v162h596v-162h-68v-109q0 -31 10.5 -44t33.5 -13h23l-10 -162h-65q-210 0 -210 178v150h-34v-318h-218v318h-58z" />
    <glyph glyph-name="bahtthai" unicode="&#xe3f;" horiz-adv-x="643" 
d="M236 -92v92h-186v676h186v71h150v-73q100 -8 152 -54t52 -128q0 -85 -54 -124v-2q79 -44 79 -158q0 -100 -60 -153t-169 -55v-92h-150zM373 222q0 17 -7 25q-7 9 -24 9h-50v-68h50q16 0 24 9q7 9 7 25zM358 459q0 29 -26 29h-40v-60h40q26 0 26 31z" />
    <glyph glyph-name="Wgrave" unicode="&#x1e80;" horiz-adv-x="988" 
d="M562 0l-52 190l-13 80h-6q-5 -50 -13 -80l-52 -190h-247l-176 676h250l56 -216q5 -20 8.5 -45.5t4.5 -40.5l2 -16h6q6 58 18 102l47 174h198l47 -174q5 -20 9.5 -45.5t6.5 -40.5l2 -16h6q4 59 15 102l56 216h250l-176 -676h-247zM298 844q0 33 42 33h62q55 0 79 -34
l76 -113h-111l-109 71q-16 11 -21.5 15t-11.5 11.5t-6 16.5z" />
    <glyph glyph-name="wgrave" unicode="&#x1e81;" horiz-adv-x="760" 
d="M312 469h136l30 -97l17 -71h3q4 40 12 71l27 108h220l-139 -480h-189l-32 107l-15 64h-4q-8 -41 -15 -64l-32 -107h-189l-139 480h220l27 -108l12 -71h3q8 42 17 71zM185 648q0 33 42 33h62q55 0 79 -34l76 -113h-111l-109 71q-16 11 -21.5 15t-11.5 11.5t-6 16.5z" />
    <glyph glyph-name="Wacute" unicode="&#x1e82;" horiz-adv-x="988" 
d="M562 0l-52 190l-13 80h-6q-5 -50 -13 -80l-52 -190h-247l-176 676h250l56 -216q5 -20 8.5 -45.5t4.5 -40.5l2 -16h6q6 58 18 102l47 174h198l47 -174q5 -20 9.5 -45.5t6.5 -40.5l2 -16h6q4 59 15 102l56 216h250l-176 -676h-247zM683 844q0 -3 -0.5 -5.5t-1 -4.5
t-2.5 -4.5t-3 -4t-3.5 -4l-4 -4t-5.5 -4t-5.5 -3.5t-6.5 -4.5t-7 -4.5l-109 -71h-111l76 113q24 34 79 34h62q42 0 42 -33z" />
    <glyph glyph-name="wacute" unicode="&#x1e83;" horiz-adv-x="760" 
d="M312 469h136l30 -97l17 -71h3q4 40 12 71l27 108h220l-139 -480h-189l-32 107l-15 64h-4q-8 -41 -15 -64l-32 -107h-189l-139 480h220l27 -108l12 -71h3q8 42 17 71zM563 648q0 -3 -0.5 -5.5t-1 -4.5t-2.5 -4.5t-3 -4t-3.5 -4l-4 -4t-5.5 -4t-5.5 -3.5t-6.5 -4.5t-7 -4.5
l-109 -71h-111l76 113q24 34 79 34h62q42 0 42 -33z" />
    <glyph glyph-name="Wdieresis" unicode="&#x1e84;" horiz-adv-x="988" 
d="M562 0l-52 190l-13 80h-6q-5 -50 -13 -80l-52 -190h-247l-176 676h250l56 -216q5 -20 8.5 -45.5t4.5 -40.5l2 -16h6q6 58 18 102l47 174h198l47 -174q5 -20 9.5 -45.5t6.5 -40.5l2 -16h6q4 59 15 102l56 216h250l-176 -676h-247zM293 807q0 47 25.5 71t67.5 24t67.5 -24
t25.5 -71q0 -46 -25.5 -70.5t-67.5 -24.5t-67.5 24.5t-25.5 70.5zM509 807q0 47 25.5 71t67.5 24t67.5 -24t25.5 -71q0 -46 -25.5 -70.5t-67.5 -24.5t-67.5 24.5t-25.5 70.5z" />
    <glyph glyph-name="wdieresis" unicode="&#x1e85;" horiz-adv-x="760" 
d="M312 469h136l30 -97l17 -71h3q4 40 12 71l27 108h220l-139 -480h-189l-32 107l-15 64h-4q-8 -41 -15 -64l-32 -107h-189l-139 480h220l27 -108l12 -71h3q8 42 17 71zM179 603q0 47 25.5 71t67.5 24t67.5 -24t25.5 -71q0 -46 -25.5 -70.5t-67.5 -24.5t-67.5 24.5
t-25.5 70.5zM395 603q0 47 25.5 71t67.5 24t67.5 -24t25.5 -71q0 -46 -25.5 -70.5t-67.5 -24.5t-67.5 24.5t-25.5 70.5z" />
    <glyph glyph-name="Ygrave" unicode="&#x1ef2;" horiz-adv-x="674" 
d="M671 676l-213 -442v-234h-242v234l-213 442h266l45 -112q5 -13 10 -33t8 -34l2 -14h6q8 52 20 81l45 112h266zM147 844q0 33 42 33h62q55 0 79 -34l76 -113h-111l-109 71q-16 11 -21.5 15t-11.5 11.5t-6 16.5z" />
    <glyph glyph-name="ygrave" unicode="&#x1ef3;" horiz-adv-x="586" 
d="M355 480h228l-153 -553q-24 -84 -79.5 -123.5t-155.5 -39.5h-139v162h103q47 0 60 45l8 29h-67l-157 480h227l50 -160l15 -73h4q7 45 14 73zM95 648q0 33 42 33h62q55 0 79 -34l76 -113h-111l-109 71q-16 11 -21.5 15t-11.5 11.5t-6 16.5z" />
    <glyph glyph-name="endash" unicode="&#x2013;" 
d="M45 170v140h410v-140h-410z" />
    <glyph glyph-name="emdash" unicode="&#x2014;" horiz-adv-x="900" 
d="M45 170v140h810v-140h-810z" />
    <glyph glyph-name="quoteleft" unicode="&#x2018;" horiz-adv-x="262" 
d="M156 585v-3q34 -7 52 -32t18 -60q0 -44 -26.5 -69.5t-67.5 -25.5q-43 0 -69.5 25.5t-26.5 69.5q0 50 29 130l33 95l69 -10z" />
    <glyph glyph-name="quoteright" unicode="&#x2019;" horiz-adv-x="262" 
d="M106 521v3q-34 7 -52 32t-18 60q0 44 26.5 69.5t67.5 25.5q43 0 69.5 -25.5t26.5 -69.5q0 -50 -29 -130l-33 -95l-69 10z" />
    <glyph glyph-name="quotesinglbase" unicode="&#x201a;" horiz-adv-x="262" 
d="M106 -10v3q-34 7 -52 32t-18 60q0 44 26.5 69.5t67.5 25.5q43 0 69.5 -25.5t26.5 -69.5q0 -50 -29 -130l-33 -95l-69 10z" />
    <glyph glyph-name="quotedblleft" unicode="&#x201c;" horiz-adv-x="484" 
d="M156 585v-3q34 -7 52 -32t18 -60q0 -44 -26.5 -69.5t-67.5 -25.5q-43 0 -69.5 25.5t-26.5 69.5q0 50 29 130l33 95l69 -10zM377 585v-3q34 -7 52 -32t18 -60q0 -44 -26.5 -69.5t-67.5 -25.5q-43 0 -69.5 25.5t-26.5 69.5q0 50 29 130l33 95l69 -10z" />
    <glyph glyph-name="quotedblright" unicode="&#x201d;" horiz-adv-x="484" 
d="M106 521v3q-34 7 -52 32t-18 60q0 44 26.5 69.5t67.5 25.5q43 0 69.5 -25.5t26.5 -69.5q0 -50 -29 -130l-33 -95l-69 10zM328 521v3q-34 7 -52 32t-18 60q0 44 26.5 69.5t67.5 25.5q43 0 69.5 -25.5t26.5 -69.5q0 -50 -29 -130l-33 -95l-69 10z" />
    <glyph glyph-name="quotedblbase" unicode="&#x201e;" horiz-adv-x="484" 
d="M106 -10v3q-34 7 -52 32t-18 60q0 44 26.5 69.5t67.5 25.5q43 0 69.5 -25.5t26.5 -69.5q0 -50 -29 -130l-33 -95l-69 10zM328 -10v3q-34 7 -52 32t-18 60q0 44 26.5 69.5t67.5 25.5q43 0 69.5 -25.5t26.5 -69.5q0 -50 -29 -130l-33 -95l-69 10z" />
    <glyph glyph-name="dagger" unicode="&#x2020;" horiz-adv-x="528" 
d="M41 324v180h82l51 -29l10 5l-10 75v131h180v-131l-11 -75l11 -5l50 29h83v-180h-83l-42 31l-8 -4v-129l-25 -192v-218h-130v218l-25 192v129l-8 4l-43 -31h-82z" />
    <glyph glyph-name="daggerdbl" unicode="&#x2021;" horiz-adv-x="528" 
d="M487 200v-180h-82l-51 29l-10 -5l10 -75v-131h-180v131l11 75l-11 5l-50 -29h-83v180h83l42 -31l8 4v178l-8 4l-43 -31h-82v180h82l51 -29l10 5l-10 75v131h180v-131l-11 -75l11 -5l50 29h83v-180h-83l-42 31l-8 -4v-178l8 -4l43 31h82z" />
    <glyph glyph-name="bullet" unicode="&#x2022;" horiz-adv-x="353" 
d="M306 282q0 -62 -37 -96t-93 -34t-92.5 33.5t-36.5 96.5t36 96t93 33q56 0 93 -33.5t37 -95.5z" />
    <glyph glyph-name="ellipsis" unicode="&#x2026;" horiz-adv-x="926" 
d="M71 85q0 43 27.5 69t72.5 26q44 0 72 -26t28 -69t-28 -69t-72 -26q-45 0 -72.5 26t-27.5 69zM363 85q0 43 27.5 69t72.5 26q44 0 72 -26t28 -69t-28 -69t-72 -26q-45 0 -72.5 26t-27.5 69zM655 85q0 43 27.5 69t72.5 26q44 0 72 -26t28 -69t-28 -69t-72 -26
q-45 0 -72.5 26t-27.5 69z" />
    <glyph glyph-name="perthousand" unicode="&#x2030;" horiz-adv-x="1112" 
d="M222 525q0 39 -9 47q-6 5 -17 5t-17 -5q-9 -8 -9 -47q0 -33 9 -43q6 -6 17 -6t17 6q9 10 9 43zM352 526q0 -91 -46 -130q-33 -30 -110 -30t-111 30q-45 37 -45 130q0 89 43 128q37 33 113 33q74 0 113 -33q43 -38 43 -128zM493 703h144l-347 -723h-145zM610 149
q0 39 -9 47q-6 5 -17 5t-17 -5q-9 -8 -9 -47q0 -33 9 -43q6 -6 17 -6t17 6q9 10 9 43zM740 150q0 -91 -46 -130q-33 -30 -110 -30t-111 30q-45 37 -45 130q0 89 43 128q37 33 113 33q74 0 113 -33q43 -38 43 -128zM942 149q0 39 -9 47q-6 5 -17 5t-17 -5q-9 -7 -9 -47
q0 -33 9 -43q6 -6 17 -6t17 6q9 11 9 43zM1072 150q0 -91 -46 -130q-33 -30 -110 -30t-111 30q-45 37 -45 130q0 89 43 128q37 33 113 33q74 0 113 -33q43 -38 43 -128z" />
    <glyph glyph-name="guilsinglleft" unicode="&#x2039;" horiz-adv-x="317" 
d="M141 27l-121 211l121 211h156l-121 -211l121 -211h-156z" />
    <glyph glyph-name="guilsinglright" unicode="&#x203a;" horiz-adv-x="317" 
d="M297 238l-121 -211h-156l121 211l-121 211h156z" />
    <glyph glyph-name="fraction" unicode="&#x2044;" horiz-adv-x="404" 
d="M290 693h144l-319 -713h-145z" />
    <glyph glyph-name="zerosuperior" unicode="&#x2070;" horiz-adv-x="322" 
d="M179 518q0 58 -5 68q-4 7 -13 7t-13 -7q-5 -10 -5 -68q0 -59 5 -68q4 -6 13 -6t13 6q5 8 5 68zM307 518q0 -100 -44 -142q-36 -30 -102 -30t-103 30q-43 41 -43 142q0 97 41 138q35 35 105 35q69 0 105 -35q41 -41 41 -138z" />
    <glyph glyph-name="foursuperior" unicode="&#x2074;" horiz-adv-x="290" 
d="M5 401v90l85 194h168v-186h29v-98h-29v-51h-128v51h-125zM145 499v17l5 65l-8 1q-14 -44 -20 -58l-12 -25h35z" />
    <glyph glyph-name="fivesuperior" unicode="&#x2075;" horiz-adv-x="263" 
d="M253 464q0 -69 -41 -97q-31 -21 -86 -21q-65 0 -111 18l16 89q37 -9 66 -9q31 0 31 15q0 14 -31 14l-37 -4l-41 15l15 203h192v-98h-101l-1 -18q62 0 89 -17q40 -26 40 -90z" />
    <glyph glyph-name="sixsuperior" unicode="&#x2076;" horiz-adv-x="308" 
d="M163 468q0 25 -12 25l-12 -3v-19q0 -31 12 -31t12 28zM285 462q0 -61 -39 -91q-32 -25 -97 -25q-67 0 -97 35q-35 38 -35 113q0 109 71 158q55 39 155 39l9 -93q-75 0 -97 -24l1 -2q11 3 26 3q39 0 66 -20q37 -28 37 -93z" />
    <glyph glyph-name="sevensuperior" unicode="&#x2077;" horiz-adv-x="221" 
d="M5 589v98h214v-79l-72 -258h-134l73 239h-81z" />
    <glyph glyph-name="eightsuperior" unicode="&#x2078;" horiz-adv-x="310" 
d="M282 598q0 -42 -36 -73q46 -29 46 -80q0 -99 -137 -99q-75 0 -106 29t-31 70q0 51 44 83q-34 27 -34 70q0 42 33 67.5t94 25.5q60 0 93.5 -25.5t33.5 -67.5zM155 471l-7 5q-10 -11 -10 -26q0 -16 17 -16t17 16q0 9 -17 21zM151 579l10 -5q11 14 11 19q0 12 -17 12
t-17 -12q0 -7 13 -14z" />
    <glyph glyph-name="ninesuperior" unicode="&#x2079;" horiz-adv-x="308" 
d="M142 569q0 -25 12 -25l12 3v19q0 31 -12 31t-12 -28zM20 573q0 61 40 92q34 26 96 26q66 0 97 -36q35 -38 35 -112q0 -112 -70 -161q-53 -36 -156 -36l-9 93q75 0 97 24l-1 2q-11 -3 -26 -3q-40 0 -66 19q-37 28 -37 92z" />
    <glyph glyph-name="parenleftsuperior" unicode="&#x207d;" horiz-adv-x="197" 
d="M139 513q0 -102 46 -202h-94q-60 93 -60 202q0 105 61 204h95q-48 -104 -48 -204z" />
    <glyph glyph-name="parenrightsuperior" unicode="&#x207e;" horiz-adv-x="197" 
d="M58 513q0 100 -48 204h95q61 -99 61 -204q0 -109 -60 -202h-94q46 100 46 202z" />
    <glyph glyph-name="zeroinferior" unicode="&#x2080;" horiz-adv-x="322" 
d="M179 118q0 58 -5 68q-4 7 -13 7t-13 -7q-5 -10 -5 -68q0 -59 5 -68q4 -6 13 -6t13 6q5 8 5 68zM307 118q0 -100 -44 -142q-36 -30 -102 -30t-103 30q-43 41 -43 142q0 97 41 138q35 35 105 35q69 0 105 -35q41 -41 41 -138z" />
    <glyph glyph-name="oneinferior" unicode="&#x2081;" horiz-adv-x="199" 
d="M178 287v-337h-128v217q0 8 -10 8h-32l-5 72l83 40h92z" />
    <glyph glyph-name="twoinferior" unicode="&#x2082;" horiz-adv-x="283" 
d="M255 48v-98h-229v85l71 92q30 40 30 50q0 16 -23 16q-30 0 -70 -20l-19 92q50 26 109 26q60 0 95.5 -31t35.5 -81q0 -49 -34 -90l-16 -20q-6 -7 -13 -13t-12 -8l-4 -3l2 -4q24 7 36 7h41z" />
    <glyph glyph-name="threeinferior" unicode="&#x2083;" horiz-adv-x="271" 
d="M252 54q0 -52 -35 -80t-102 -28q-28 0 -53.5 3.5t-37.5 6.5l-12 4l10 92q28 -8 65 -8t37 15q0 11 -22 11h-59v98h49q18 0 18 11q0 14 -27 14l-53 -4l-12 88q45 14 94 14q65 0 95.5 -25t30.5 -68q0 -41 -35 -64v-2q49 -20 49 -78z" />
    <glyph glyph-name="fourinferior" unicode="&#x2084;" horiz-adv-x="290" 
d="M5 1v90l85 194h168v-186h29v-98h-29v-51h-128v51h-125zM145 99v17l5 65l-8 1q-14 -44 -20 -58l-12 -25h35z" />
    <glyph glyph-name="fiveinferior" unicode="&#x2085;" horiz-adv-x="263" 
d="M253 64q0 -69 -41 -97q-31 -21 -86 -21q-65 0 -111 18l16 89q37 -9 66 -9q31 0 31 15q0 14 -31 14l-37 -4l-41 15l15 203h192v-98h-101l-1 -18q62 0 89 -17q40 -26 40 -90z" />
    <glyph glyph-name="sixinferior" unicode="&#x2086;" horiz-adv-x="308" 
d="M163 68q0 25 -12 25l-12 -3v-19q0 -31 12 -31t12 28zM285 62q0 -61 -39 -91q-32 -25 -97 -25q-67 0 -97 35q-35 38 -35 113q0 109 71 158q56 39 155 39l9 -93q-75 0 -97 -24l1 -2q11 3 26 3q39 0 66 -20q37 -28 37 -93z" />
    <glyph glyph-name="seveninferior" unicode="&#x2087;" horiz-adv-x="221" 
d="M5 189v98h214v-79l-72 -258h-134l73 239h-81z" />
    <glyph glyph-name="eightinferior" unicode="&#x2088;" horiz-adv-x="310" 
d="M282 198q0 -42 -36 -73q46 -29 46 -80q0 -99 -137 -99q-75 0 -106 29t-31 70q0 51 44 83q-34 27 -34 70q0 42 33 67.5t94 25.5q60 0 93.5 -25.5t33.5 -67.5zM155 71l-7 5q-10 -11 -10 -26q0 -16 17 -16t17 16q0 9 -17 21zM151 179l10 -5q11 14 11 19q0 12 -17 12t-17 -12
q0 -7 13 -14z" />
    <glyph glyph-name="nineinferior" unicode="&#x2089;" horiz-adv-x="308" 
d="M142 169q0 -25 12 -25l12 3v19q0 31 -12 31t-12 -28zM20 173q0 61 40 92q34 26 96 26q66 0 97 -36q35 -38 35 -112q0 -112 -70 -161q-53 -36 -156 -36l-9 93q75 0 97 24l-1 2q-11 -3 -26 -3q-40 0 -66 19q-37 28 -37 92z" />
    <glyph glyph-name="parenleftinferior" unicode="&#x208d;" horiz-adv-x="197" 
d="M139 113q0 -102 46 -202h-94q-60 93 -60 202q0 105 61 204h95q-48 -104 -48 -204z" />
    <glyph glyph-name="parenrightinferior" unicode="&#x208e;" horiz-adv-x="197" 
d="M58 113q0 100 -48 204h95q61 -99 61 -204q0 -109 -60 -202h-94q46 100 46 202z" />
    <glyph glyph-name="colonmonetary" unicode="&#x20a1;" horiz-adv-x="635" 
d="M193 -88l19 92q-49 15 -82 41q-48 38 -74 105.5t-26 187.5q0 199 92 282q76 70 214 70h23l22 99l108 -21l-19 -88q22 -4 32 -6l19 88l109 -23l-114 -533q8 2 26 8l38 -181q-45 -25 -109 -37l-29 -134l-108 21l21 102h-19h-14l-20 -96zM374 183h24l63 299q-7 2 -18.5 4
t-13.5 2l-65 -305h10zM262 338v-83l4 -1l49 230q-16 -6 -24 -16q-29 -31 -29 -130z" />
    <glyph glyph-name="cruzeiro" unicode="&#x20a2;" horiz-adv-x="575" 
d="M516 426h27l-10 -156h-16q-23 0 -35 -13t-12 -47v-22q34 6 58 14l33 -179q-84 -38 -213 -38q-63 0 -123.5 15.5t-96.5 43.5q-100 78 -100 294q0 202 90 284q74 68 230 68q114 0 200 -31l-36 -186q-67 19 -130 19t-89 -25q-33 -31 -33 -129q0 -109 24 -130q4 -3 11 -8v216
h131l10 -30h6q20 40 74 40z" />
    <glyph glyph-name="franc" unicode="&#x20a3;" horiz-adv-x="514" 
d="M20 314v120h45v242h431v-198h-189v-44h141v-120h-141v-25h141v-120h-141v-169h-242v169h-45v120h45v25h-45z" />
    <glyph glyph-name="naira" unicode="&#x20a6;" horiz-adv-x="812" 
d="M334 144v-144h-242v182h-72v120h72v63h-72v120h72v191h242l98 -160q8 -14 19.5 -38t18.5 -42l8 -17l6 2q-6 70 -6 109v146h242v-191h72v-120h-72v-63h72v-120h-72v-182h-242l-98 158q-8 14 -19.5 38t-18.5 42l-8 17l-6 -2q6 -70 6 -109z" />
    <glyph glyph-name="peseta" unicode="&#x20a7;" horiz-adv-x="659" 
d="M342 190h-38v-190h-242v364h-52v120h52v192h276q125 0 186 -57q54 -51 67 -135h48v-120h-51q-16 -82 -66 -123q-62 -51 -180 -51zM353 434q0 27 -7 36q-5 8 -20 8h-22v-90h23q14 0 20 9q6 8 6 37z" />
    <glyph glyph-name="rupee" unicode="&#x20a8;" horiz-adv-x="1093" 
d="M593 439q0 -113 -68 -179l68 -260h-254l-39 190h-8v-190h-242v676h285q123 0 183 -54q75 -67 75 -183zM1069 164q0 -78 -53.5 -126t-164.5 -48q-137 0 -239 43l23 149q110 -34 191 -34q25 0 25 9q0 5 -11 6q-76 6 -90 9q-144 28 -144 146q0 79 58.5 125.5t162.5 46.5
q109 0 212 -41l-36 -143q-94 28 -161 28q-18 0 -18 -8q0 -6 9 -7q54 -5 96 -13q140 -27 140 -142zM351 434q0 26 -6 34q-7 10 -23 10h-30v-90h30q16 0 23 9q6 7 6 37z" />
    <glyph glyph-name="won" unicode="&#x20a9;" horiz-adv-x="1022" 
d="M10 365v120h60l-50 191h250l56 -216q5 -20 8.5 -45.5t5.5 -40.5l1 -16h6q6 58 18 102l47 174h198l47 -174q5 -20 9.5 -45.5t6.5 -40.5l2 -16h6q4 59 15 102l56 216h250l-50 -191h60v-120h-92l-17 -63h109v-120h-140l-46 -182h-247l-52 190l-13 80h-6q-5 -50 -13 -80
l-52 -190h-247l-46 182h-140v120h109l-17 63h-92z" />
    <glyph glyph-name="sheqel" unicode="&#x20aa;" horiz-adv-x="912" 
d="M641 186h-162v96q0 25 -11 36.5t-40 11.5h-196v-330h-202v480h412q111 0 155 -34t44 -136v-124zM680 480h202v-302q0 -97 -45.5 -137.5t-151.5 -40.5h-414v294h162v-144h201q27 0 36.5 11t9.5 40v279z" />
    <glyph glyph-name="Euro" unicode="&#x20ac;" horiz-adv-x="642" 
d="M11 344l45 120h55q23 97 88 155q77 71 226 71q123 0 207 -32l-63 -169q-71 13 -119 13q-60 0 -80 -24l-8 -14h198l-45 -120h-174v-20h167l-44 -120h-97q3 -6 5 -8q17 -23 71 -23q52 0 128 24l38 -167q-84 -45 -204 -45q-130 0 -206 59q-68 51 -89 160h-100l44 120h45v14
v6h-88z" />
    <glyph glyph-name="litre" unicode="&#x2113;" horiz-adv-x="544" 
d="M44 129l-34 150l61 24v183q0 89 63 146t177 57q208 0 208 -219q0 -104 -44 -162t-143 -92l-18 -6q16 -22 81 -22h55l-21 -198h-96q-203 0 -249 151zM289 458v-36l-4 -34l2 -2q3 2 7 5q27 20 27 67q0 33 -16 33t-16 -33z" />
    <glyph glyph-name="trademark" unicode="&#x2122;" horiz-adv-x="770" 
d="M294 626h-88v-264h-98v264h-88v85h274v-85zM628 516l-52 -113h-64l-53 113l-15 46h-12q4 -37 4 -52v-148h-100v349h126l78 -175h8l78 175h124v-349h-98v148l3 52h-12q-10 -35 -15 -46z" />
    <glyph glyph-name="Omega" unicode="&#x2126;" horiz-adv-x="720" 
d="M380 0v286q42 12 56 39t14 71q0 55 -23 75q-25 22 -67 22q-46 0 -68 -22t-22 -75q0 -44 14 -71t56 -39v-286h-309v198h68v3q-71 66 -71 203q0 163 100 230q84 57 232 57t232 -57q100 -67 100 -230q0 -136 -71 -202v-4h71v-198h-312z" />
    <glyph glyph-name="estimated" unicode="&#x212e;" horiz-adv-x="863" 
d="M677 347v190q0 13 -10 23q-98 98 -234 98q-138 0 -236 -101q-10 -10 -10 -24v-186q0 -5 5 -5h480q5 0 5 5zM818 322h-626q-5 0 -5 -4v-189q0 -13 9 -22q96 -102 237 -102q73 0 137.5 30.5t110.5 83.5h57q-53 -63 -133.5 -99t-172.5 -36q-160 0 -273.5 101.5t-113.5 245.5
t113.5 246t273.5 102t273 -102t113 -246v-9z" />
    <glyph glyph-name="onethird" unicode="&#x2153;" horiz-adv-x="606" 
d="M178 676v-337h-128v217q0 8 -10 8h-32l-5 72l83 40h92zM354 693h144l-319 -713h-145zM587 104q0 -52 -35 -80t-102 -28q-28 0 -53.5 3.5t-37.5 6.5l-12 4l10 92q28 -8 65 -8t37 15q0 11 -22 11h-59v98h49q18 0 18 11q0 14 -27 14l-53 -4l-12 88q45 14 94 14
q65 0 95.5 -25t30.5 -68q0 -41 -35 -64v-2q49 -20 49 -78z" />
    <glyph glyph-name="twothirds" unicode="&#x2154;" horiz-adv-x="693" 
d="M255 437v-98h-229v85l71 92q30 40 30 50q0 16 -23 16q-30 0 -70 -20l-19 92q50 26 109 26q60 0 95.5 -31t35.5 -81q0 -49 -34 -90l-16 -20q-6 -7 -13 -13t-12 -9l-4 -2l2 -4q24 7 36 7h41zM438 693h144l-319 -713h-145zM674 104q0 -52 -35 -80t-102 -28q-28 0 -53.5 3.5
t-37.5 6.5l-12 4l10 92q28 -8 65 -8t37 15q0 11 -22 11h-59v98h49q18 0 18 11q0 14 -27 14l-53 -4l-12 88q45 14 94 14q65 0 95.5 -25t30.5 -68q0 -41 -35 -64v-2q49 -20 49 -78z" />
    <glyph glyph-name="oneeighth" unicode="&#x215b;" horiz-adv-x="618" 
d="M178 676v-337h-128v217q0 8 -10 8h-32l-5 72l83 40h92zM353 693h144l-319 -713h-145zM590 248q0 -42 -36 -73q46 -29 46 -80q0 -99 -137 -99q-75 0 -106 29t-31 70q0 51 44 83q-34 27 -34 70q0 42 33 67.5t94 25.5q60 0 93.5 -25.5t33.5 -67.5zM463 121l-7 5
q-10 -11 -10 -26q0 -16 17 -16t17 16q0 9 -17 21zM459 229l10 -5q11 14 11 19q0 12 -17 12t-17 -12q0 -7 13 -14z" />
    <glyph glyph-name="threeeighths" unicode="&#x215c;" horiz-adv-x="679" 
d="M252 443q0 -52 -35 -80t-102 -28q-28 0 -53.5 3.5t-37.5 7.5l-12 3l10 92q28 -8 65 -8t37 15q0 11 -22 11h-59v98h49q18 0 18 11q0 14 -27 14l-53 -4l-12 88q45 14 94 14q65 0 95.5 -25t30.5 -68q0 -41 -35 -64v-2q49 -20 49 -78zM409 693h144l-319 -713h-145zM651 248
q0 -42 -36 -73q46 -29 46 -80q0 -99 -137 -99q-75 0 -106 29t-31 70q0 51 44 83q-34 27 -34 70q0 42 33 67.5t94 25.5q60 0 93.5 -25.5t33.5 -67.5zM524 121l-7 5q-10 -11 -10 -26q0 -16 17 -16t17 16q0 9 -17 21zM520 229l10 -5q11 14 11 19q0 12 -17 12t-17 -12
q0 -7 13 -14z" />
    <glyph glyph-name="fiveeighths" unicode="&#x215d;" horiz-adv-x="687" 
d="M253 453q0 -69 -41 -97q-31 -21 -86 -21q-65 0 -111 18l16 89q37 -9 66 -9q31 0 31 15q0 14 -31 14l-37 -4l-41 15l15 203h192v-98h-101l-1 -18q62 0 89 -17q40 -26 40 -90zM420 693h144l-319 -713h-145zM659 248q0 -42 -36 -73q46 -29 46 -80q0 -99 -137 -99
q-75 0 -106 29t-31 70q0 51 44 83q-34 27 -34 70q0 42 33 67.5t94 25.5q60 0 93.5 -25.5t33.5 -67.5zM532 121l-7 5q-10 -11 -10 -26q0 -16 17 -16t17 16q0 9 -17 21zM528 229l10 -5q11 14 11 19q0 12 -17 12t-17 -12q0 -7 13 -14z" />
    <glyph glyph-name="seveneighths" unicode="&#x215e;" horiz-adv-x="603" 
d="M5 578v98h214v-79l-72 -258h-134l73 239h-81zM339 693h144l-319 -713h-145zM575 248q0 -42 -36 -73q46 -29 46 -80q0 -99 -137 -99q-75 0 -106 29t-31 70q0 51 44 83q-34 27 -34 70q0 42 33 67.5t94 25.5q60 0 93.5 -25.5t33.5 -67.5zM448 121l-7 5q-10 -11 -10 -26
q0 -16 17 -16t17 16q0 9 -17 21zM444 229l10 -5q11 14 11 19q0 12 -17 12t-17 -12q0 -7 13 -14z" />
    <glyph glyph-name="partialdiff" unicode="&#x2202;" horiz-adv-x="512" 
d="M495 265v-25q0 -132 -65 -197q-53 -53 -174 -53t-174 53q-65 65 -65 197q0 136 67 199q51 48 133 48q18 0 42 -5l5 7q-47 70 -198 105l26 129q178 -6 279 -96q63 -55 93.5 -139t30.5 -223zM277 241q0 52 -4 69.5t-17 17.5t-17 -17.5t-4 -69.5q0 -54 4 -71.5t17 -17.5
t17 17.5t4 71.5z" />
    <glyph glyph-name="Delta" unicode="&#x2206;" horiz-adv-x="636" 
d="M455 676l161 -547v-129h-596v129l161 547h274zM300 309l-23 -111h82l-23 111l-14 91h-8q-11 -76 -14 -91z" />
    <glyph glyph-name="product" unicode="&#x220f;" horiz-adv-x="684" 
d="M392 0v478h-100v-478h-242v676h584v-676h-242z" />
    <glyph glyph-name="summation" unicode="&#x2211;" horiz-adv-x="512" 
d="M20 0l141 356l-141 320h467v-198h-127l-1 -3q8 -10 17 -31l38 -85l-50 -126l-17 -32l2 -3h143v-198h-472z" />
    <glyph glyph-name="minus" unicode="&#x2212;" 
d="M45 170v140h410v-140h-410z" />
    <glyph glyph-name="radical" unicode="&#x221a;" horiz-adv-x="540" 
d="M10 245v140h196l34 -174l9 -74h7q6 52 10 74l82 485h152l-127 -716h-229l-55 265h-79z" />
    <glyph glyph-name="infinity" unicode="&#x221e;" horiz-adv-x="692" 
d="M498 426q174 0 174 -186q0 -187 -174 -187q-50 0 -84.5 13.5t-65.5 49.5h-4q-30 -36 -64.5 -49.5t-85.5 -13.5q-174 0 -174 186q0 187 174 187q50 0 84.5 -14t65.5 -50h3q32 37 66 50.5t85 13.5zM494 286q-20 0 -31.5 -7t-25.5 -28l-8 -12l8 -12q23 -34 57 -34
q38 0 38 47q0 46 -38 46zM198 193q20 0 32 7t25 27l8 12l-8 12q-23 35 -57 35q-38 0 -38 -47q0 -46 38 -46z" />
    <glyph glyph-name="integral" unicode="&#x222b;" horiz-adv-x="296" 
d="M49 -47v633q0 155 160 155l87 -7l-12 -136q-29 3 -39 3q-20 0 -28 -10.5t-8 -38.5v-633q0 -155 -160 -155l-87 7l12 136q21 -3 39 -3q20 0 28 10.5t8 38.5z" />
    <glyph glyph-name="approxequal" unicode="&#x2248;" 
d="M455 218v-140q-21 -15 -32.5 -22t-29.5 -12.5t-38 -5.5q-33 0 -105.5 40t-104.5 40q-20 0 -38 -5.5t-29.5 -12.5t-32.5 -22v140q21 15 32.5 22t29.5 12.5t38 5.5q32 0 104.5 -40t105.5 -40q20 0 38 5.5t29.5 12.5t32.5 22zM455 401v-140q-21 -15 -32.5 -22t-29.5 -12.5
t-38 -5.5q-33 0 -105.5 40t-104.5 40q-20 0 -38 -5.5t-29.5 -12.5t-32.5 -22v140q21 15 32.5 22t29.5 12.5t38 5.5q32 0 104.5 -40t105.5 -40q20 0 38 5.5t29.5 12.5t32.5 22z" />
    <glyph glyph-name="notequal" unicode="&#x2260;" 
d="M299 508h156l-50 -105h50v-140h-116l-22 -46h138v-140h-204l-50 -105h-156l50 105h-50v140h116l22 46h-138v140h204z" />
    <glyph glyph-name="lessequal" unicode="&#x2264;" 
d="M452 140v-140h-407v140h407zM452 283v-113h-106l-301 157v122l349 180h58v-138l-200 -103v-2z" />
    <glyph glyph-name="greaterequal" unicode="&#x2265;" 
d="M48 0v140h407v-140h-407zM48 170v113l200 103v2l-200 103v138h58l349 -180v-122l-301 -157h-106z" />
    <glyph glyph-name="lozenge" unicode="&#x25ca;" horiz-adv-x="528" 
d="M498 342l-198 -342h-74l-196 342l196 344h74zM275 241l55 101l-55 99l-9 22h-6q-4 -13 -9 -22l-56 -99l56 -101l9 -21h6q4 12 9 21z" />
    <glyph glyph-name="zero.tb" unicode="&#xf639;" 
d="M497 337q0 -120 -16 -183t-53 -100q-61 -64 -178 -64t-178 64q-37 37 -53 100t-16 183q0 115 15 179t47 100q30 35 80 52.5t105 17.5q120 0 183 -70q33 -37 48.5 -100t15.5 -179zM275 338q0 120 -7 138q-4 12 -18 12t-18 -12q-7 -19 -7 -138q0 -117 7 -138q4 -12 18 -12
t18 12q7 21 7 138z" />
    <glyph glyph-name="two.tb" unicode="&#xf63a;" 
d="M469 198v-198h-444v165l161 197q44 54 44 81q0 45 -60 45q-48 0 -110 -25l-35 179q92 44 193 44q125 0 192 -64t67 -162q0 -99 -59 -173l-50 -64l-26 -27l1 -3q26 5 43 5h83z" />
    <glyph glyph-name="three.tb" unicode="&#xf63b;" 
d="M483 216q0 -226 -257 -226q-53 0 -105.5 8t-78.5 16l-26 9l28 191q73 -16 136 -16q34 0 47.5 6.5t13.5 22.5q0 23 -33 23h-102v187h82q26 0 26 23q0 28 -44 28q-23 0 -49.5 -3.5t-42.5 -6.5l-15 -4l-29 180q93 32 196 32q115 0 170.5 -51.5t55.5 -139.5q0 -71 -47 -121
v-3q74 -53 74 -155z" />
    <glyph glyph-name="four.tb" unicode="&#xf63c;" 
d="M3 78v197l153 396h306v-395h36v-198h-36v-78h-242v78h-217zM207 302l-10 -26h43v16l9 119l-9 1q-25 -88 -33 -110z" />
    <glyph glyph-name="five.tb" unicode="&#xf63d;" 
d="M479 224q0 -127 -73 -188q-59 -47 -168 -47q-50 0 -100 8t-75 17l-25 8l16 184q74 -18 129 -18q30 0 42 6.5t12 23.5q0 26 -45 26q-12 0 -26.5 -2t-23.5 -4l-8 -3l-99 53l32 383h363v-198h-148l-2 -31h2q80 0 124 -32q73 -53 73 -186z" />
    <glyph glyph-name="six.tb" unicode="&#xf63e;" 
d="M496 228q0 -122 -61 -178q-65 -60 -186 -60t-183 68t-62 226q0 108 19.5 182.5t74.5 125.5q52 48 127 71t199 23l17 -186q-158 -6 -185 -53l3 -4q19 8 49 8q80 0 128 -39q60 -51 60 -184zM264 224q0 23 -3 31t-11 8l-14 -3v-36q0 -46 14 -46t14 46z" />
    <glyph glyph-name="seven.tb" unicode="&#xf63f;" 
d="M10 473v198h480v-139l-181 -532h-259l175 473h-215z" />
    <glyph glyph-name="eight.tb" unicode="&#xf640;" 
d="M484 496q0 -79 -61 -142q71 -59 71 -165q0 -37 -10.5 -69t-35.5 -63t-75.5 -49t-122.5 -18q-69 0 -119.5 18t-76 49t-37 63.5t-11.5 68.5q0 103 63 162q-53 55 -53 141q0 81 62.5 137.5t171.5 56.5q108 0 171 -55t63 -135zM250 230l-6 3q-16 -14 -16 -32q0 -23 22 -23
t22 23q0 16 -22 29zM248 464l11 -7q13 16 13 32q0 19 -22 19t-22 -19q0 -13 20 -25z" />
    <glyph glyph-name="nine.tb" unicode="&#xf641;" 
d="M4 448q0 120 61 176q67 62 186 62q121 0 183 -68t62 -226q0 -108 -20 -185t-74 -129q-49 -47 -122.5 -67.5t-199.5 -20.5l-21 186q158 6 185 53l-3 4q-19 -8 -49 -8q-78 0 -126 39q-62 52 -62 184zM236 452q0 -23 3 -31t11 -8l14 3v36q0 46 -14 46t-14 -46z" />
    <glyph glyph-name="zero.ot" unicode="&#xf643;" 
d="M493 249q0 -150 -81 -214q-58 -45 -162 -45q-103 0 -162 45q-81 64 -81 214q0 144 76 212q56 49 167 49q110 0 167 -49q76 -68 76 -212zM250 188q11 0 17 7q8 12 8 54q0 45 -8 56q-5 7 -17 7t-17 -7q-8 -11 -8 -56q0 -42 8 -54q6 -7 17 -7z" />
    <glyph glyph-name="one.ot" unicode="&#xf644;" 
d="M390 510v-312h90v-198h-443v198h111v75q0 8 -10 8h-80l-10 145l188 84h154z" />
    <glyph glyph-name="two.ot" unicode="&#xf645;" 
d="M474 198v-198h-454v158l189 123q15 10 15 18q0 13 -24 13q-58 0 -137 -34l-46 184q101 48 219 48t174 -50t56 -136q0 -84 -70 -128l1 -2q24 4 43 4h34z" />
    <glyph glyph-name="three.ot" unicode="&#xf646;" 
d="M480 53q0 -221 -257 -221q-53 0 -105.5 8t-78.5 16l-26 9l28 181q73 -16 136 -16q61 0 61 28q0 20 -31 20h-104v188h82q26 0 26 22q0 24 -44 24q-23 0 -49.5 -3.5t-41.5 -6.5l-16 -4l-29 180q93 32 196 32q115 0 170.5 -49.5t55.5 -137.5q0 -74 -49 -120v-3
q76 -46 76 -147z" />
    <glyph glyph-name="four.ot" unicode="&#xf647;" 
d="M5 0v197l145 303h309v-302h36v-198h-36v-154h-242v154h-212zM218 224l-12 -26h41v16l5 87l-11 1q-13 -57 -23 -78z" />
    <glyph glyph-name="five.ot" unicode="&#xf648;" 
d="M474 58q0 -125 -73 -181q-60 -45 -168 -45q-50 0 -100 8t-75 16l-25 9l16 183q74 -18 129 -18q31 0 42.5 5.5t11.5 17.5q0 22 -45 22l-58 -7l-96 43l28 389h364v-198h-149l-1 -29h2q81 0 124 -32q73 -53 73 -183z" />
    <glyph glyph-name="six.ot" unicode="&#xf649;" 
d="M496 218q0 -103 -67 -168q-28 -27 -76 -43.5t-104 -16.5q-118 0 -177 68q-68 75 -68 206q0 103 23.5 175t78.5 123q50 46 119.5 67t186.5 21l16 -184q-146 0 -172 -39l3 -4q19 8 49 8q77 0 124 -39q64 -53 64 -174zM264 214q0 18 -3 23.5t-11 5.5l-14 -3v-26
q0 -36 14 -36q8 0 11 7t3 29z" />
    <glyph glyph-name="seven.ot" unicode="&#xf64a;" 
d="M10 302v198h480v-139l-178 -519h-259l172 460h-215z" />
    <glyph glyph-name="eight.ot" unicode="&#xf64b;" 
d="M474 470q0 -75 -57 -134q77 -63 77 -156q0 -35 -11.5 -66t-37 -60t-76 -46.5t-119.5 -17.5q-126 0 -185 57.5t-59 132.5q0 91 71 154q-51 51 -51 132q0 77 60 130.5t164 53.5q105 0 164.5 -52t59.5 -128zM250 220l-7 4q-15 -14 -15 -33q0 -23 22 -23t22 23q0 17 -22 29z
M248 438l12 -7q12 15 12 32q0 19 -22 19t-22 -19q0 -13 20 -25z" />
    <glyph glyph-name="nine.ot" unicode="&#xf64c;" 
d="M4 278q0 109 67 172q28 26 76.5 43t103.5 17q119 0 177 -66q68 -73 68 -220q0 -209 -96 -304q-48 -47 -120 -67.5t-194 -20.5l-19 184q149 3 177 49l-3 4q-17 -8 -47 -8q-78 0 -124 38q-66 57 -66 179zM236 283q0 -20 3 -27t11 -7l14 3v31q0 39 -14 39t-14 -39z" />
    <glyph glyph-name="zero.denominator" unicode="&#xf655;" horiz-adv-x="322" 
d="M179 168q0 58 -5 68q-4 7 -13 7t-13 -7q-5 -10 -5 -68q0 -59 5 -68q4 -6 13 -6t13 6q5 8 5 68zM307 168q0 -100 -44 -142q-36 -30 -102 -30t-103 30q-43 41 -43 142q0 97 41 138q35 35 105 35q69 0 105 -35q41 -41 41 -138z" />
    <glyph glyph-name="one.denominator" unicode="&#xf656;" horiz-adv-x="199" 
d="M178 337v-337h-128v217q0 8 -10 8h-32l-5 72l83 40h92z" />
    <glyph glyph-name="two.denominator" unicode="&#xf657;" horiz-adv-x="283" 
d="M255 98v-98h-229v85l71 92q30 40 30 50q0 16 -23 16q-30 0 -70 -20l-19 92q50 26 109 26q60 0 95.5 -31t35.5 -81q0 -49 -34 -90l-16 -20q-6 -7 -13 -13t-12 -8l-4 -3l2 -4q24 7 36 7h41z" />
    <glyph glyph-name="three.denominator" unicode="&#xf658;" horiz-adv-x="271" 
d="M252 104q0 -52 -35 -80t-102 -28q-28 0 -53.5 3.5t-37.5 6.5l-12 4l10 92q28 -8 65 -8t37 15q0 11 -22 11h-59v98h49q18 0 18 11q0 14 -27 14l-53 -4l-12 88q45 14 94 14q65 0 95.5 -25t30.5 -68q0 -41 -35 -64v-2q49 -20 49 -78z" />
    <glyph glyph-name="four.denominator" unicode="&#xf659;" horiz-adv-x="290" 
d="M5 51v90l85 194h168v-186h29v-98h-29v-51h-128v51h-125zM145 149v17l5 65l-8 1q-14 -44 -20 -58l-12 -25h35z" />
    <glyph glyph-name="five.denominator" unicode="&#xf65a;" horiz-adv-x="263" 
d="M253 114q0 -69 -41 -97q-31 -21 -86 -21q-65 0 -111 18l16 89q37 -9 66 -9q31 0 31 15q0 14 -31 14l-37 -4l-41 15l15 203h192v-98h-101l-1 -18q62 0 89 -17q40 -26 40 -90z" />
    <glyph glyph-name="six.denominator" unicode="&#xf65b;" horiz-adv-x="308" 
d="M163 118q0 25 -12 25l-12 -3v-19q0 -31 12 -31t12 28zM285 112q0 -61 -39 -91q-32 -25 -97 -25q-67 0 -97 35q-35 38 -35 113q0 109 71 158q56 39 155 39l9 -93q-75 0 -97 -24l1 -2q11 3 26 3q39 0 66 -20q37 -28 37 -93z" />
    <glyph glyph-name="seven.denominator" unicode="&#xf65c;" horiz-adv-x="221" 
d="M5 239v98h214v-79l-72 -258h-134l73 239h-81z" />
    <glyph glyph-name="eight.denominator" unicode="&#xf65d;" horiz-adv-x="310" 
d="M282 248q0 -42 -36 -73q46 -29 46 -80q0 -99 -137 -99q-75 0 -106 29t-31 70q0 51 44 83q-34 27 -34 70q0 42 33 67.5t94 25.5q60 0 93.5 -25.5t33.5 -67.5zM155 121l-7 5q-10 -11 -10 -26q0 -16 17 -16t17 16q0 9 -17 21zM151 229l10 -5q11 14 11 19q0 12 -17 12
t-17 -12q0 -7 13 -14z" />
    <glyph glyph-name="nine.denominator" unicode="&#xf65e;" horiz-adv-x="308" 
d="M142 219q0 -25 12 -25l12 3v19q0 31 -12 31t-12 -28zM20 223q0 61 40 92q34 26 96 26q66 0 97 -36q35 -38 35 -112q0 -112 -70 -161q-53 -36 -156 -36l-9 93q75 0 97 24l-1 2q-11 -3 -26 -3q-40 0 -66 19q-37 28 -37 92z" />
    <glyph glyph-name="zero.numerator" unicode="&#xf661;" horiz-adv-x="322" 
d="M179 507q0 58 -5 68q-4 7 -13 7t-13 -7q-5 -10 -5 -68q0 -59 5 -68q4 -6 13 -6t13 6q5 8 5 68zM307 507q0 -100 -44 -142q-36 -30 -102 -30t-103 30q-43 41 -43 142q0 97 41 138q35 35 105 35q69 0 105 -35q41 -41 41 -138z" />
    <glyph glyph-name="one.numerator" unicode="&#xf662;" horiz-adv-x="199" 
d="M178 676v-337h-128v217q0 8 -10 8h-32l-5 72l83 40h92z" />
    <glyph glyph-name="two.numerator" unicode="&#xf663;" horiz-adv-x="283" 
d="M255 437v-98h-229v85l71 92q30 40 30 50q0 16 -23 16q-30 0 -70 -20l-19 92q50 26 109 26q60 0 95.5 -31t35.5 -81q0 -49 -34 -90l-16 -20q-6 -7 -13 -13t-12 -9l-4 -2l2 -4q24 7 36 7h41z" />
    <glyph glyph-name="three.numerator" unicode="&#xf664;" horiz-adv-x="271" 
d="M252 443q0 -52 -35 -80t-102 -28q-28 0 -53.5 3.5t-37.5 7.5l-12 3l10 92q28 -8 65 -8t37 15q0 11 -22 11h-59v98h49q18 0 18 11q0 14 -27 14l-53 -4l-12 88q45 14 94 14q65 0 95.5 -25t30.5 -68q0 -41 -35 -64v-2q49 -20 49 -78z" />
    <glyph glyph-name="four.numerator" unicode="&#xf665;" horiz-adv-x="290" 
d="M5 390v90l85 194h168v-186h29v-98h-29v-51h-128v51h-125zM145 488v17l5 65l-8 1q-14 -44 -20 -58l-12 -25h35z" />
    <glyph glyph-name="five.numerator" unicode="&#xf666;" horiz-adv-x="263" 
d="M253 453q0 -69 -41 -97q-31 -21 -86 -21q-65 0 -111 18l16 89q37 -9 66 -9q31 0 31 15q0 14 -31 14l-37 -4l-41 15l15 203h192v-98h-101l-1 -18q62 0 89 -17q40 -26 40 -90z" />
    <glyph glyph-name="six.numerator" unicode="&#xf667;" horiz-adv-x="308" 
d="M163 457q0 25 -12 25l-12 -3v-19q0 -31 12 -31t12 28zM285 451q0 -61 -39 -91q-32 -25 -97 -25q-67 0 -97 35q-35 38 -35 113q0 109 71 158q55 39 155 39l9 -93q-75 0 -97 -24l1 -2q11 3 26 3q39 0 66 -20q37 -28 37 -93z" />
    <glyph glyph-name="seven.numerator" unicode="&#xf668;" horiz-adv-x="221" 
d="M5 578v98h214v-79l-72 -258h-134l73 239h-81z" />
    <glyph glyph-name="eight.numerator" unicode="&#xf669;" horiz-adv-x="310" 
d="M282 587q0 -42 -36 -73q46 -29 46 -80q0 -99 -137 -99q-75 0 -106 29t-31 70q0 51 44 83q-34 27 -34 70q0 42 33 67.5t94 25.5q60 0 93.5 -25.5t33.5 -67.5zM155 460l-7 5q-10 -11 -10 -26q0 -16 17 -16t17 16q0 9 -17 21zM151 568l10 -5q11 14 11 19q0 12 -17 12
t-17 -12q0 -7 13 -14z" />
    <glyph glyph-name="nine.numerator" unicode="&#xf66a;" horiz-adv-x="308" 
d="M142 558q0 -25 12 -25l12 3v19q0 31 -12 31t-12 -28zM20 562q0 61 40 92q34 26 96 26q66 0 97 -36q35 -38 35 -112q0 -112 -70 -161q-53 -36 -156 -36l-9 93q75 0 97 24l-1 2q-11 -3 -26 -3q-40 0 -66 19q-37 28 -37 92z" />
    <glyph glyph-name="Abreve.sc" unicode="&#xf66d;" horiz-adv-x="626" 
d="M393 0l-14 54h-133l-13 -54h-230l168 520h284l168 -520h-230zM293 239l-6 -23h52l-6 23l-16 86h-8q-8 -55 -16 -86zM368 709h105q0 -65 -42 -106t-118 -41t-118 41t-42 106h105q12 -47 55 -47t55 47z" />
    <glyph glyph-name="Amacron.sc" unicode="&#xf66e;" horiz-adv-x="626" 
d="M393 0l-14 54h-133l-13 -54h-230l168 520h284l168 -520h-230zM293 239l-6 -23h52l-6 23l-16 86h-8q-8 -55 -16 -86zM450 689v-116h-274v116h274z" />
    <glyph glyph-name="Aogonek.sc" unicode="&#xf66f;" horiz-adv-x="626" 
d="M393 0l-14 54h-133l-13 -54h-230l168 520h284l168 -520q-49 -54 -49 -93q0 -31 36 -31l31 2l7 -84q-38 -10 -84 -10q-68 0 -104 23.5t-36 66.5q0 41 26 73t58 52v1h-115zM293 239l-6 -23h52l-6 23l-16 86h-8q-8 -55 -16 -86z" />
    <glyph glyph-name="Cacute.sc" unicode="&#xf671;" horiz-adv-x="467" 
d="M436 168l24 -152q-72 -26 -164 -26q-110 0 -174 42q-101 65 -101 228q0 78 26 134.5t67 85.5q70 50 190 50q68 0 138 -20l-29 -152q-49 10 -83 10q-48 0 -69 -21q-22 -22 -22 -85q0 -68 26 -92q19 -18 69 -18q33 0 102 16zM478 677q0 -3 -0.5 -5.5t-1 -4.5t-2.5 -4.5
t-3 -4t-3.5 -4l-4 -4t-5.5 -4t-5.5 -3.5t-6.5 -4.5t-7 -4.5l-109 -71h-111l76 113q24 34 79 34h62q42 0 42 -33z" />
    <glyph glyph-name="Ccaron.sc" unicode="&#xf672;" horiz-adv-x="467" 
d="M436 168l24 -152q-72 -26 -164 -26q-110 0 -174 42q-101 65 -101 228q0 78 26 134.5t67 85.5q70 50 190 50q68 0 138 -20l-29 -152q-49 10 -83 10q-48 0 -69 -21q-22 -22 -22 -85q0 -68 26 -92q19 -18 69 -18q33 0 102 16zM234 563l-107 111l34 49l125 -46h11l125 46
l34 -49l-107 -111h-115z" />
    <glyph glyph-name="Ccircumflex.sc" unicode="&#xf673;" horiz-adv-x="467" 
d="M436 168l24 -152q-72 -26 -164 -26q-110 0 -174 42q-101 65 -101 228q0 78 26 134.5t67 85.5q70 50 190 50q68 0 138 -20l-29 -152q-49 10 -83 10q-48 0 -69 -21q-22 -22 -22 -85q0 -68 26 -92q19 -18 69 -18q33 0 102 16zM343 722l117 -121l-34 -49l-125 46h-11
l-125 -46l-34 49l117 121h95z" />
    <glyph glyph-name="Cdotaccent.sc" unicode="&#xf674;" horiz-adv-x="467" 
d="M436 168l24 -152q-72 -26 -164 -26q-110 0 -174 42q-101 65 -101 228q0 78 26 134.5t67 85.5q70 50 190 50q68 0 138 -20l-29 -152q-49 10 -83 10q-48 0 -69 -21q-22 -22 -22 -85q0 -68 26 -92q19 -18 69 -18q33 0 102 16zM168 641q0 43 27.5 69t72.5 26q44 0 72 -26
t28 -69t-28 -69t-72 -26q-45 0 -72.5 26t-27.5 69z" />
    <glyph glyph-name="Dcaron.sc" unicode="&#xf675;" horiz-adv-x="561" 
d="M540 257q0 -145 -70 -208q-55 -49 -176 -49h-262v520h234q131 0 194 -55q34 -30 57 -84.5t23 -123.5zM322 257q0 60 -13 83q-10 18 -38 18h-21v-196h28q23 0 33 14q11 15 11 81zM211 563l-107 111l34 49l125 -46h11l125 46l34 -49l-107 -111h-115z" />
    <glyph glyph-name="Dmacron.sc" unicode="&#xf676;" horiz-adv-x="566" 
d="M1 191v138h36v191h234q131 0 194 -55q34 -30 57 -84.5t23 -123.5q0 -145 -70 -208q-55 -49 -176 -49h-262v191h-36zM327 257q0 60 -13 83q-10 18 -38 18h-21v-29h38v-138h-38v-29h28q23 0 33 14q11 15 11 81z" />
    <glyph glyph-name="Ebreve.sc" unicode="&#xf677;" horiz-adv-x="443" 
d="M32 0v520h380v-162h-162v-27h122v-142h-122v-27h176v-162h-394zM286 709h105q0 -65 -42 -106t-118 -41t-118 41t-42 106h105q12 -47 55 -47t55 47z" />
    <glyph glyph-name="Ecaron.sc" unicode="&#xf678;" horiz-adv-x="443" 
d="M32 0v520h380v-162h-162v-27h122v-142h-122v-27h176v-162h-394zM179 563l-107 111l34 49l125 -46h11l125 46l34 -49l-107 -111h-115z" />
    <glyph glyph-name="Edotaccent.sc" unicode="&#xf679;" horiz-adv-x="443" 
d="M32 0v520h380v-162h-162v-27h122v-142h-122v-27h176v-162h-394zM131 641q0 43 27.5 69t72.5 26q44 0 72 -26t28 -69t-28 -69t-72 -26q-45 0 -72.5 26t-27.5 69z" />
    <glyph glyph-name="Emacron.sc" unicode="&#xf67a;" horiz-adv-x="443" 
d="M32 0v520h380v-162h-162v-27h122v-142h-122v-27h176v-162h-394zM367 689v-116h-274v116h274z" />
    <glyph glyph-name="Eogonek.sc" unicode="&#xf67c;" horiz-adv-x="443" 
d="M32 0v520h380v-162h-162v-27h122v-142h-122v-27h176v-162q-49 -54 -49 -93q0 -31 36 -31l31 2l7 -84q-38 -10 -84 -10q-68 0 -104 23.5t-36 66.5q0 41 26 73t58 52v1h-279z" />
    <glyph glyph-name="Gbreve.sc" unicode="&#xf67d;" horiz-adv-x="573" 
d="M307 152l16 1v35h-54v132h272v-278q-104 -52 -232 -52q-130 0 -196 44q-92 61 -92 224q0 149 96 222q68 52 203 52q94 0 193 -33l-29 -151q-78 22 -142 22q-55 0 -79 -19q-25 -21 -25 -95q0 -64 13.5 -84t55.5 -20zM353 710h105q0 -65 -42 -106t-118 -41t-118 41t-42 106
h105q12 -47 55 -47t55 47z" />
    <glyph glyph-name="Gcircumflex.sc" unicode="&#xf67e;" horiz-adv-x="573" 
d="M307 152l16 1v35h-54v132h272v-278q-104 -52 -232 -52q-130 0 -196 44q-92 61 -92 224q0 149 96 222q68 52 203 52q94 0 193 -33l-29 -151q-78 22 -142 22q-55 0 -79 -19q-25 -21 -25 -95q0 -64 13.5 -84t55.5 -20zM350 721l117 -121l-34 -49l-125 46h-11l-125 -46
l-34 49l117 121h95z" />
    <glyph glyph-name="Gcommaaccent.sc" unicode="&#xf67f;" horiz-adv-x="573" 
d="M307 152l16 1v35h-54v132h272v-278q-104 -52 -232 -52q-130 0 -196 44q-92 61 -92 224q0 149 96 222q68 52 203 52q94 0 193 -33l-29 -151q-78 22 -142 22q-55 0 -79 -19q-25 -21 -25 -95q0 -64 13.5 -84t55.5 -20zM205 -139q0 43 27 69t72 26t73 -26.5t28 -68.5
q0 -55 -33 -127l-44 -97l-72 11l18 118v4q-32 8 -50.5 32t-18.5 59z" />
    <glyph glyph-name="Gdotaccent.sc" unicode="&#xf680;" horiz-adv-x="573" 
d="M307 152l16 1v35h-54v132h272v-278q-104 -52 -232 -52q-130 0 -196 44q-92 61 -92 224q0 149 96 222q68 52 203 52q94 0 193 -33l-29 -151q-78 22 -142 22q-55 0 -79 -19q-25 -21 -25 -95q0 -64 13.5 -84t55.5 -20zM200 641q0 43 27.5 69t72.5 26q44 0 72 -26t28 -69
t-28 -69t-72 -26q-45 0 -72.5 26t-27.5 69z" />
    <glyph glyph-name="Hcircumflex.sc" unicode="&#xf682;" horiz-adv-x="594" 
d="M344 0v182h-94v-182h-218v520h218v-176h94v176h218v-520h-218zM345 723l117 -121l-34 -49l-125 46h-11l-125 -46l-34 49l117 121h95z" />
    <glyph glyph-name="Imacron.sc" unicode="&#xf685;" horiz-adv-x="282" 
d="M32 0v520h218v-520h-218zM278 688v-116h-274v116h274z" />
    <glyph glyph-name="Iogonek.sc" unicode="&#xf686;" horiz-adv-x="282" 
d="M32 0v520h218v-520q-49 -54 -49 -93q0 -31 36 -31l31 2l7 -84q-38 -10 -84 -10q-68 0 -104 23.5t-36 66.5q0 41 26 73t58 52v1h-103z" />
    <glyph glyph-name="Jcircumflex.sc" unicode="&#xf688;" horiz-adv-x="314" 
d="M285 520v-330q0 -108 -48.5 -154t-183.5 -46h-61v162q44 0 59.5 16t15.5 54v298h218zM225 718l117 -121l-34 -49l-125 46h-11l-125 -46l-34 49l117 121h95z" />
    <glyph glyph-name="Kcommaaccent.sc" unicode="&#xf689;" horiz-adv-x="576" 
d="M334 0l-79 158h-5v-158h-218v520h218v-174h5l78 174h240l-131 -262l137 -258h-245zM210 -139q0 43 27 69t72 26t73 -26.5t28 -68.5q0 -55 -33 -127l-44 -97l-72 11l18 118v4q-32 8 -50.5 32t-18.5 59z" />
    <glyph glyph-name="Lacute.sc" unicode="&#xf68a;" horiz-adv-x="408" 
d="M32 0v520h218v-358h151v-162h-369zM329 677q0 -3 -0.5 -5.5t-1 -4.5t-2.5 -4.5t-3 -4t-3.5 -4l-4 -4t-5.5 -4t-5.5 -3.5t-6.5 -4.5t-7 -4.5l-109 -71h-111l76 113q24 34 79 34h62q42 0 42 -33z" />
    <glyph glyph-name="Lcaron.sc" unicode="&#xf68b;" horiz-adv-x="441" 
d="M32 0v520h218v-358h151v-162h-369zM339 364v3q-30 7 -46.5 29t-16.5 53q0 40 23.5 63t61.5 23t62 -23t24 -63q0 -45 -26 -117l-29 -85l-63 9z" />
    <glyph glyph-name="Lcommaaccent.sc" unicode="&#xf68c;" horiz-adv-x="408" 
d="M32 0v520h218v-358h151v-162h-369zM131 -139q0 43 27 69t72 26t73 -26.5t28 -68.5q0 -55 -33 -127l-44 -97l-72 11l18 118v4q-32 8 -50.5 32t-18.5 59z" />
    <glyph glyph-name="Ldot.sc" unicode="&#xf68d;" horiz-adv-x="480" 
d="M32 0v520h218v-358h204v-162h-422zM270 303q0 43 27.5 69t72.5 26q44 0 72 -26t28 -69t-28 -69t-72 -26q-45 0 -72.5 26t-27.5 69z" />
    <glyph glyph-name="Nacute.sc" unicode="&#xf68e;" horiz-adv-x="644" 
d="M269 520l95 -150q7 -11 15 -28t13 -28l4 -12l5 1q-7 47 -7 77v140h218v-520h-237l-95 150l-32 68l-5 -1q7 -51 7 -77v-140h-218v520h237zM490 677q0 -3 -0.5 -5.5t-1 -4.5t-2.5 -4.5t-3 -4t-3.5 -4l-4 -4t-5.5 -4t-5.5 -3.5t-6.5 -4.5t-7 -4.5l-109 -71h-111l76 113
q24 34 79 34h62q42 0 42 -33z" />
    <glyph glyph-name="Ncaron.sc" unicode="&#xf68f;" horiz-adv-x="644" 
d="M269 520l95 -150q7 -11 15 -28t13 -28l4 -12l5 1q-7 47 -7 77v140h218v-520h-237l-95 150l-32 68l-5 -1q7 -51 7 -77v-140h-218v520h237zM273 563l-107 111l34 49l125 -46h11l125 46l34 -49l-107 -111h-115z" />
    <glyph glyph-name="Ncommaaccent.sc" unicode="&#xf690;" horiz-adv-x="644" 
d="M269 520l95 -150q7 -11 15 -28t13 -28l4 -12l5 1q-7 47 -7 77v140h218v-520h-237l-95 150l-32 68l-5 -1q7 -51 7 -77v-140h-218v520h237zM217 -139q0 43 27 69t72 26t73 -26.5t28 -68.5q0 -55 -33 -127l-44 -97l-72 11l18 118v4q-32 8 -50.5 32t-18.5 59z" />
    <glyph glyph-name="Obreve.sc" unicode="&#xf691;" horiz-adv-x="600" 
d="M361 259q0 75 -19 94q-15 15 -42 15t-42 -15q-19 -19 -19 -94q0 -72 18 -91q14 -16 43 -16t43 16q18 19 18 91zM579 259q0 -158 -86 -218q-73 -51 -194 -51q-119 0 -192 51q-86 60 -86 218q0 157 82 217q74 54 196 54q125 0 198 -54q82 -60 82 -217zM355 710h105
q0 -65 -42 -106t-118 -41t-118 41t-42 106h105q12 -47 55 -47t55 47z" />
    <glyph glyph-name="Ohungarumlaut.sc" unicode="&#xf692;" horiz-adv-x="600" 
d="M361 259q0 75 -19 94q-15 15 -42 15t-42 -15q-19 -19 -19 -94q0 -72 18 -91q14 -16 43 -16t43 16q18 19 18 91zM579 259q0 -158 -86 -218q-73 -51 -194 -51q-119 0 -192 51q-86 60 -86 218q0 157 82 217q74 54 196 54q125 0 198 -54q82 -60 82 -217zM564 677
q0 -21 -39 -45l-109 -69h-76l76 113q24 34 79 34h29q40 0 40 -33zM377 677q0 -21 -39 -45l-109 -69h-76l76 113q24 34 79 34h29q40 0 40 -33z" />
    <glyph glyph-name="Omacron.sc" unicode="&#xf693;" horiz-adv-x="600" 
d="M361 259q0 75 -19 94q-15 15 -42 15t-42 -15q-19 -19 -19 -94q0 -72 18 -91q14 -16 43 -16t43 16q18 19 18 91zM579 259q0 -158 -86 -218q-73 -51 -194 -51q-119 0 -192 51q-86 60 -86 218q0 157 82 217q74 54 196 54q125 0 198 -54q82 -60 82 -217zM437 689v-116h-274
v116h274z" />
    <glyph glyph-name="Oslashacute.sc" unicode="&#xf694;" horiz-adv-x="600" 
d="M41 31l33 39q-53 64 -53 189q0 157 82 217q74 54 196 54q88 0 145 -24l38 45l73 -61l-32 -38q56 -66 56 -193q0 -158 -86 -218q-73 -51 -194 -51q-91 0 -147 25l-38 -45zM361 259v3l-2 1q-8 -13 -18 -25l-69 -81q10 -5 28 -5q29 0 43 16q18 19 18 91zM258 353
q-19 -19 -19 -89l2 -1q5 9 9 14l74 87q-11 4 -24 4q-27 0 -42 -15zM502 677q0 -3 -0.5 -5.5t-1 -4.5t-2.5 -4.5t-3 -4t-3.5 -4l-4 -4t-5.5 -4t-5.5 -3.5t-6.5 -4.5t-7 -4.5l-109 -71h-111l76 113q24 34 79 34h62q42 0 42 -33z" />
    <glyph glyph-name="Racute.sc" unicode="&#xf695;" horiz-adv-x="541" 
d="M302 0l-47 126h-5v-126h-218v520h277q98 0 154 -50.5t56 -141.5q0 -101 -54 -152l69 -176h-232zM301 322q0 36 -26 36h-25v-72h27q24 0 24 36zM440 677q0 -3 -0.5 -5.5t-1 -4.5t-2.5 -4.5t-3 -4t-3.5 -4l-4 -4t-5.5 -4t-5.5 -3.5t-6.5 -4.5t-7 -4.5l-109 -71h-111l76 113
q24 34 79 34h62q42 0 42 -33z" />
    <glyph glyph-name="Rcaron.sc" unicode="&#xf696;" horiz-adv-x="541" 
d="M302 0l-47 126h-5v-126h-218v520h277q98 0 154 -50.5t56 -141.5q0 -101 -54 -152l69 -176h-232zM301 322q0 36 -26 36h-25v-72h27q24 0 24 36zM210 563l-107 111l34 49l125 -46h11l125 46l34 -49l-107 -111h-115z" />
    <glyph glyph-name="Rcommaaccent.sc" unicode="&#xf697;" horiz-adv-x="541" 
d="M302 0l-47 126h-5v-126h-218v520h277q98 0 154 -50.5t56 -141.5q0 -101 -54 -152l69 -176h-232zM301 322q0 36 -26 36h-25v-72h27q24 0 24 36zM189 -139q0 43 27 69t72 26t73 -26.5t28 -68.5q0 -55 -33 -127l-44 -97l-72 11l18 118v4q-32 8 -50.5 32t-18.5 59z" />
    <glyph glyph-name="Sacute.sc" unicode="&#xf698;" horiz-adv-x="512" 
d="M491 167q0 -177 -228 -177q-124 0 -236 44l36 156q100 -38 180 -38q30 0 30 14q0 10 -15 12l-57 10q-90 16 -135 55t-45 111q0 79 60 127.5t172 48.5q104 0 203 -42l-44 -150q-77 30 -146 30q-27 0 -27 -15q0 -8 13 -11l67 -12q172 -30 172 -163zM443 678q0 -3 -0.5 -5.5
t-1 -4.5t-2.5 -4.5t-3 -4t-3.5 -4l-4 -4t-5.5 -4t-5.5 -3.5t-6.5 -4.5t-7 -4.5l-109 -71h-111l76 113q24 34 79 34h62q42 0 42 -33z" />
    <glyph glyph-name="Scedilla.sc" unicode="&#xf699;" horiz-adv-x="512" 
d="M395 -127q0 -89 -131 -89q-25 0 -55 2.5t-48 5.5l-18 2l6 71q54 -5 80 -5q30 0 30 20q0 16 -29 16h-66l21 99q-92 12 -158 39l36 156q100 -38 180 -38q30 0 30 14q0 10 -15 12l-57 10q-90 16 -135 55t-45 111q0 79 60 127.5t172 48.5q104 0 203 -42l-44 -150
q-77 30 -146 30q-27 0 -27 -15q0 -8 13 -11l67 -12q172 -30 172 -163q0 -165 -197 -176l-8 -33h10q99 0 99 -85z" />
    <glyph glyph-name="Scircumflex.sc" unicode="&#xf69a;" horiz-adv-x="512" 
d="M491 167q0 -177 -228 -177q-124 0 -236 44l36 156q100 -38 180 -38q30 0 30 14q0 10 -15 12l-57 10q-90 16 -135 55t-45 111q0 79 60 127.5t172 48.5q104 0 203 -42l-44 -150q-77 30 -146 30q-27 0 -27 -15q0 -8 13 -11l67 -12q172 -30 172 -163zM299 723l117 -121
l-34 -49l-125 46h-11l-125 -46l-34 49l117 121h95z" />
    <glyph glyph-name="Scommaaccent.sc" unicode="&#xf69b;" horiz-adv-x="512" 
d="M491 167q0 -177 -228 -177q-124 0 -236 44l36 156q100 -38 180 -38q30 0 30 14q0 10 -15 12l-57 10q-90 16 -135 55t-45 111q0 79 60 127.5t172 48.5q104 0 203 -42l-44 -150q-77 30 -146 30q-27 0 -27 -15q0 -8 13 -11l67 -12q172 -30 172 -163zM176 -139q0 43 27 69
t72 26t73 -26.5t28 -68.5q0 -55 -33 -127l-44 -97l-72 11l18 118v4q-32 8 -50.5 32t-18.5 59z" />
    <glyph glyph-name="Tcaron.sc" unicode="&#xf69d;" horiz-adv-x="452" 
d="M449 358h-114v-358h-218v358h-114v162h446v-162zM171 563l-107 111l34 49l125 -46h11l125 46l34 -49l-107 -111h-115z" />
    <glyph glyph-name="Tcommaaccent.sc" unicode="&#xf69e;" horiz-adv-x="452" 
d="M449 358h-114v-358h-218v358h-114v162h446v-162zM130 -139q0 43 27 69t72 26t73 -26.5t28 -68.5q0 -55 -33 -127l-44 -97l-72 11l18 118v4q-32 8 -50.5 32t-18.5 59z" />
    <glyph glyph-name="Ubreve.sc" unicode="&#xf69f;" horiz-adv-x="566" 
d="M537 520v-326q0 -93 -65 -148.5t-189 -55.5q-123 0 -188.5 56t-65.5 148v326h218v-315q0 -53 36 -53q19 0 27.5 11.5t8.5 41.5v315h218zM340 710h105q0 -65 -42 -106t-118 -41t-118 41t-42 106h105q12 -47 55 -47t55 47z" />
    <glyph glyph-name="Uhungarumlaut.sc" unicode="&#xf6a0;" horiz-adv-x="566" 
d="M537 520v-326q0 -93 -65 -148.5t-189 -55.5q-123 0 -188.5 56t-65.5 148v326h218v-315q0 -53 36 -53q19 0 27.5 11.5t8.5 41.5v315h218zM551 677q0 -21 -39 -45l-109 -69h-76l76 113q24 34 79 34h29q40 0 40 -33zM364 677q0 -21 -39 -45l-109 -69h-76l76 113q24 34 79 34
h29q40 0 40 -33z" />
    <glyph glyph-name="Umacron.sc" unicode="&#xf6a1;" horiz-adv-x="566" 
d="M537 520v-326q0 -93 -65 -148.5t-189 -55.5q-123 0 -188.5 56t-65.5 148v326h218v-315q0 -53 36 -53q19 0 27.5 11.5t8.5 41.5v315h218zM420 689v-116h-274v116h274z" />
    <glyph glyph-name="Uogonek.sc" unicode="&#xf6a2;" horiz-adv-x="566" 
d="M537 520v-326q0 -70 -37.5 -119.5t-109.5 -70.5q-53 -56 -53 -97q0 -31 36 -31l31 2l7 -84q-38 -10 -84 -10q-68 0 -104 23.5t-36 66.5q0 66 69 115v2q-110 6 -168.5 61t-58.5 142v326h218v-315q0 -53 36 -53q19 0 27.5 11.5t8.5 41.5v315h218z" />
    <glyph glyph-name="Uring.sc" unicode="&#xf6a3;" horiz-adv-x="566" 
d="M537 520v-326q0 -93 -65 -148.5t-189 -55.5q-123 0 -188.5 56t-65.5 148v326h218v-315q0 -53 36 -53q19 0 27.5 11.5t8.5 41.5v315h218zM320 666q0 13 -10 22t-26 9t-26 -9t-10 -22t10 -21.5t26 -8.5t26 8.5t10 21.5zM412 666q0 -46 -33.5 -74.5t-94.5 -28.5t-94.5 28.5
t-33.5 74.5q0 47 33.5 75.5t94.5 28.5t94.5 -28.5t33.5 -75.5z" />
    <glyph glyph-name="Utilde.sc" unicode="&#xf6a4;" horiz-adv-x="566" 
d="M537 520v-326q0 -93 -65 -148.5t-189 -55.5q-123 0 -188.5 56t-65.5 148v326h218v-315q0 -53 36 -53q19 0 27.5 11.5t8.5 41.5v315h218zM395 723l63 -51q-7 -42 -32.5 -74t-77.5 -32q-24 0 -67 17.5t-57 17.5q-30 0 -49 -39l-63 51q6 38 32.5 72t77.5 34q24 0 66.5 -17.5
t56.5 -17.5q32 0 50 39z" />
    <glyph glyph-name="Wacute.sc" unicode="&#xf6a5;" horiz-adv-x="890" 
d="M502 0l-42 140l-13 84h-4q-7 -64 -13 -84l-42 -140h-255l-130 520h225l34 -140q4 -17 8.5 -48t7.5 -54l2 -22h4q10 84 22 124l35 117h208l35 -117q5 -18 10.5 -48.5t8.5 -52.5l3 -22h4q8 83 18 123l34 140h225l-130 -520h-255zM633 677q0 -3 -0.5 -5.5t-1 -4.5t-2.5 -4.5
t-3 -4t-3.5 -4l-4 -4t-5.5 -4t-5.5 -3.5t-6.5 -4.5t-7 -4.5l-109 -71h-111l76 113q24 34 79 34h62q42 0 42 -33z" />
    <glyph glyph-name="Wcircumflex.sc" unicode="&#xf6a6;" horiz-adv-x="890" 
d="M502 0l-42 140l-13 84h-4q-7 -64 -13 -84l-42 -140h-255l-130 520h225l34 -140q4 -17 8.5 -48t7.5 -54l2 -22h4q10 84 22 124l35 117h208l35 -117q5 -18 10.5 -48.5t8.5 -52.5l3 -22h4q8 83 18 123l34 140h225l-130 -520h-255zM493 721l117 -121l-34 -49l-125 46h-11
l-125 -46l-34 49l117 121h95z" />
    <glyph glyph-name="Wdieresis.sc" unicode="&#xf6a7;" horiz-adv-x="890" 
d="M502 0l-42 140l-13 84h-4q-7 -64 -13 -84l-42 -140h-255l-130 520h225l34 -140q4 -17 8.5 -48t7.5 -54l2 -22h4q10 84 22 124l35 117h208l35 -117q5 -18 10.5 -48.5t8.5 -52.5l3 -22h4q8 83 18 123l34 140h225l-130 -520h-255zM244 641q0 47 25.5 71t67.5 24t67.5 -24
t25.5 -71q0 -46 -25.5 -70.5t-67.5 -24.5t-67.5 24.5t-25.5 70.5zM460 641q0 47 25.5 71t67.5 24t67.5 -24t25.5 -71q0 -46 -25.5 -70.5t-67.5 -24.5t-67.5 24.5t-25.5 70.5z" />
    <glyph glyph-name="Wgrave.sc" unicode="&#xf6a8;" horiz-adv-x="890" 
d="M502 0l-42 140l-13 84h-4q-7 -64 -13 -84l-42 -140h-255l-130 520h225l34 -140q4 -17 8.5 -48t7.5 -54l2 -22h4q10 84 22 124l35 117h208l35 -117q5 -18 10.5 -48.5t8.5 -52.5l3 -22h4q8 83 18 123l34 140h225l-130 -520h-255zM260 677q0 33 42 33h62q55 0 79 -34
l76 -113h-111l-109 71q-16 11 -21.5 15t-11.5 11.5t-6 16.5z" />
    <glyph glyph-name="Ycircumflex.sc" unicode="&#xf6a9;" horiz-adv-x="556" 
d="M553 520l-166 -353v-167h-218v167l-166 353h231l22 -60q5 -13 9.5 -35t6.5 -37l3 -16h6q7 59 18 88l22 60h232zM326 722l117 -121l-34 -49l-125 46h-11l-125 -46l-34 49l117 121h95z" />
    <glyph glyph-name="Ygrave.sc" unicode="&#xf6aa;" horiz-adv-x="556" 
d="M553 520l-166 -353v-167h-218v167l-166 353h231l22 -60q5 -13 9.5 -35t6.5 -37l3 -16h6q7 59 18 88l22 60h232zM93 677q0 33 42 33h62q55 0 79 -34l76 -113h-111l-109 71q-16 11 -21.5 15t-11.5 11.5t-6 16.5z" />
    <glyph glyph-name="Zacute.sc" unicode="&#xf6ab;" horiz-adv-x="464" 
d="M452 0h-445l126 302q5 13 12.5 26.5t12.5 20.5l5 7l-1 2h-130v162h425l-129 -310q-5 -12 -12 -23.5t-11 -16.5l-4 -6l1 -2h150v-162zM427 676q0 -3 -0.5 -5.5t-1 -4.5t-2.5 -4.5t-3 -4t-3.5 -4l-4 -4t-5.5 -4t-5.5 -3.5t-6.5 -4.5t-7 -4.5l-109 -71h-111l76 113
q24 34 79 34h62q42 0 42 -33z" />
    <glyph glyph-name="Zdotaccent.sc" unicode="&#xf6ac;" horiz-adv-x="464" 
d="M452 0h-445l126 302q5 13 12.5 26.5t12.5 20.5l5 7l-1 2h-130v162h425l-129 -310q-5 -12 -12 -23.5t-11 -16.5l-4 -6l1 -2h150v-162zM140 641q0 43 27.5 69t72.5 26q44 0 72 -26t28 -69t-28 -69t-72 -26q-45 0 -72.5 26t-27.5 69z" />
    <glyph glyph-name="Idotaccent.sc" unicode="&#xf6ad;" horiz-adv-x="282" 
d="M32 0v520h218v-520h-218zM41 641q0 43 27.5 69t72.5 26q44 0 72 -26t28 -69t-28 -69t-72 -26q-45 0 -72.5 26t-27.5 69z" />
    <glyph glyph-name="Germandbls.sc" unicode="&#xf6be;" horiz-adv-x="1012" 
d="M491 167q0 -177 -228 -177q-124 0 -236 44l36 156q100 -38 180 -38q30 0 30 14q0 10 -15 12l-57 10q-90 16 -135 55t-45 111q0 79 60 127.5t172 48.5q104 0 203 -42l-44 -150q-77 30 -146 30q-27 0 -27 -15q0 -8 13 -11l67 -12q172 -30 172 -163zM991 167
q0 -177 -228 -177q-124 0 -236 44l36 156q100 -38 180 -38q30 0 30 14q0 10 -15 12l-57 10q-90 16 -135 55t-45 111q0 79 60 127.5t172 48.5q104 0 203 -42l-44 -150q-77 30 -146 30q-27 0 -27 -15q0 -8 13 -11l67 -12q172 -30 172 -163z" />
    <glyph glyph-name="commaaccent" unicode="&#xf6c3;" horiz-adv-x="470" 
d="M131 -139q0 43 27 69t72 26t73 -26.5t28 -68.5q0 -55 -33 -127l-44 -97l-72 11l18 118v4q-32 8 -50.5 32t-18.5 59z" />
    <glyph glyph-name="dblgrave" unicode="&#xf6d6;" horiz-adv-x="470" 
d="M22 648q0 33 40 33h29q55 0 79 -34l76 -113h-76l-109 69q-39 24 -39 45zM209 648q0 33 40 33h29q55 0 79 -34l76 -113h-76l-109 69q-39 24 -39 45z" />
    <glyph glyph-name="one.tb" unicode="&#xf6dc;" 
d="M390 676v-478h90v-198h-443v198h111v241q0 8 -10 8h-80l-10 145l188 84h154z" />
    <glyph glyph-name="rupiah" unicode="&#xf6dd;" horiz-adv-x="1117" 
d="M593 439q0 -113 -68 -179l68 -260h-254l-39 190h-8v-190h-242v676h285q123 0 183 -54q75 -67 75 -183zM351 434q0 26 -6 34q-7 10 -23 10h-30v-90h30q16 0 23 9q6 7 6 37zM613 480h160l23 -40h3q44 50 125 50q84 0 128.5 -55.5t44.5 -193.5q0 -251 -183 -251
q-47 0 -83 17l-2 -1q2 -21 2 -38v-195h-218v707zM879 198v82q0 30 -4.5 39t-16.5 9q-27 0 -27 -63v-55q0 -58 27 -58q11 0 16 9.5t5 36.5z" />
    <glyph glyph-name="Lslash.sc" unicode="&#xf6f9;" horiz-adv-x="413" 
d="M255 216v-54h151v-162h-369v92l2 27l-1 1q-8 -6 -19 -11l-17 -8v158l35 16v245h218v-116l-3 -33l2 -1q9 7 24 14l45 20v-157z" />
    <glyph glyph-name="OE.sc" unicode="&#xf6fa;" horiz-adv-x="764" 
d="M568 356q4 -16 5 -25h120v-142h-119q-1 -11 -5 -26l1 -1h177v-162h-345q-41 -10 -103 -10q-119 0 -192 51q-86 60 -86 218q0 157 82 217q74 54 196 54q54 0 102 -10h332v-162h-163zM361 259q0 75 -19 94q-15 15 -42 15t-42 -15q-19 -19 -19 -94q0 -72 18 -91
q14 -16 43 -16t43 16q18 19 18 91z" />
    <glyph glyph-name="Scaron.sc" unicode="&#xf6fd;" horiz-adv-x="512" 
d="M491 167q0 -177 -228 -177q-124 0 -236 44l36 156q100 -38 180 -38q30 0 30 14q0 10 -15 12l-57 10q-90 16 -135 55t-45 111q0 79 60 127.5t172 48.5q104 0 203 -42l-44 -150q-77 30 -146 30q-27 0 -27 -15q0 -8 13 -11l67 -12q172 -30 172 -163zM194 563l-107 111l34 49
l125 -46h11l125 46l34 -49l-107 -111h-115z" />
    <glyph glyph-name="Zcaron.sc" unicode="&#xf6ff;" horiz-adv-x="464" 
d="M452 0h-445l126 302q5 13 12.5 26.5t12.5 20.5l5 7l-1 2h-130v162h425l-129 -310q-5 -12 -12 -23.5t-11 -16.5l-4 -6l1 -2h150v-162zM193 563l-107 111l34 49l125 -46h11l125 46l34 -49l-107 -111h-115z" />
    <glyph glyph-name="exclam.sc" unicode="&#xf721;" horiz-adv-x="272" 
d="M243 449l-33 -213h-148l-33 213q-7 41 22 62t85 21q55 0 84.5 -21t22.5 -62zM36 85q0 43 27.5 69t72.5 26q44 0 72 -26t28 -69t-28 -69t-72 -26q-45 0 -72.5 26t-27.5 69z" />
    <glyph glyph-name="ampersand.sc" unicode="&#xf726;" horiz-adv-x="550" 
d="M530 347v-162h-43v-166q-108 -29 -214 -29q-125 0 -175 30q-74 44 -74 132q0 81 53 118q10 7 34 18v3q-46 36 -46 98q0 75 61 113q45 28 145 28q32 0 70 -5t60 -9l22 -5l-25 -143q-47 10 -88 10q-27 0 -27 -17q0 -14 19 -14h228zM273 144v51h-14q-18 0 -18 -27
q0 -26 20 -26z" />
    <glyph glyph-name="zerooldstyle" unicode="&#xf730;" horiz-adv-x="584" 
d="M559 249q0 -150 -89 -214q-64 -45 -178 -45q-113 0 -178 45q-89 64 -89 214q0 145 84 212q61 49 183 49q120 0 183 -49q84 -67 84 -212zM292 188q11 0 17 7q8 12 8 54q0 45 -8 56q-5 7 -17 7t-17 -7q-8 -11 -8 -56q0 -42 8 -54q6 -7 17 -7z" />
    <glyph glyph-name="oneoldstyle" unicode="&#xf731;" horiz-adv-x="380" 
d="M330 510v-510h-242v273q0 8 -10 8h-58l-10 145l166 84h154z" />
    <glyph glyph-name="twooldstyle" unicode="&#xf732;" horiz-adv-x="507" 
d="M482 198v-198h-454v158l189 123q15 10 15 18q0 13 -24 13q-58 0 -137 -34l-46 184q101 48 219 48t174 -50t56 -136q0 -84 -70 -128l1 -2q24 4 43 4h34z" />
    <glyph glyph-name="threeoldstyle" unicode="&#xf733;" horiz-adv-x="502" 
d="M477 53q0 -221 -257 -221q-53 0 -105.5 8t-78.5 16l-26 9l28 181q73 -16 136 -16q61 0 61 28q0 20 -31 20h-104v188h82q26 0 26 22q0 24 -44 24q-23 0 -49.5 -3.5t-42.5 -6.5l-15 -4l-29 180q93 32 196 32q115 0 170.5 -49.5t55.5 -137.5q0 -74 -49 -120v-3
q76 -46 76 -147z" />
    <glyph glyph-name="fouroldstyle" unicode="&#xf734;" horiz-adv-x="555" 
d="M20 0v197l150 303h319v-302h46v-198h-46v-154h-242v154h-227zM238 224l-12 -26h41v16l5 87l-11 1q-13 -57 -23 -78z" />
    <glyph glyph-name="fiveoldstyle" unicode="&#xf735;" horiz-adv-x="481" 
d="M461 58q0 -125 -73 -181q-60 -45 -168 -45q-50 0 -100 8t-75 16l-25 9l16 183q74 -18 129 -18q31 0 42.5 5.5t11.5 17.5q0 22 -45 22l-58 -7l-96 43l28 389h364v-198h-149l-1 -29h2q81 0 124 -32q73 -53 73 -183z" />
    <glyph glyph-name="sixoldstyle" unicode="&#xf736;" horiz-adv-x="562" 
d="M537 218q0 -104 -69 -168q-65 -60 -188 -60q-122 0 -185 68q-70 77 -70 206q0 203 106 298q52 46 124.5 67t193.5 21l18 -184q-151 0 -180 -39l3 -4q21 8 51 8q82 0 130 -39q66 -56 66 -174zM295 214q0 18 -3 23.5t-11 5.5l-14 -3v-26q0 -36 14 -36q8 0 11 7t3 29z" />
    <glyph glyph-name="sevenoldstyle" unicode="&#xf737;" horiz-adv-x="425" 
d="M10 302v198h405v-133l-135 -525h-251l131 460h-150z" />
    <glyph glyph-name="eightoldstyle" unicode="&#xf738;" horiz-adv-x="558" 
d="M513 470q0 -75 -61 -134q81 -62 81 -156q0 -35 -12 -66t-38.5 -60t-79 -46.5t-124.5 -17.5q-69 0 -120.5 17.5t-79.5 46.5t-41 60.5t-13 65.5q0 92 73 154q-53 53 -53 132q0 77 62.5 130.5t171.5 53.5t171.5 -52t62.5 -128zM279 220l-7 4q-15 -14 -15 -33q0 -23 22 -23
t22 23q0 17 -22 29zM277 438l12 -7q12 15 12 32q0 19 -22 19t-22 -19q0 -13 20 -25z" />
    <glyph glyph-name="nineoldstyle" unicode="&#xf739;" horiz-adv-x="562" 
d="M25 278q0 110 69 172q30 27 80 43.5t108 16.5q124 0 185 -66q31 -33 50.5 -91t19.5 -129q0 -210 -100 -304q-50 -47 -125 -67.5t-201 -20.5l-21 184q157 3 185 49l-3 4q-19 -8 -49 -8q-82 0 -130 38q-68 56 -68 179zM267 283q0 -20 3 -27t11 -7l14 3v31q0 39 -14 39
t-14 -39z" />
    <glyph glyph-name="question.sc" unicode="&#xf73f;" horiz-adv-x="397" 
d="M387 392q0 -64 -20 -92t-75 -40q-31 -7 -40.5 -12.5t-11.5 -17.5l-1 -14h-148l-4 29q-7 46 4 70t49 33q10 2 24 6q24 7 25 12q0 12 -35 12q-20 0 -43 -2.5t-35 -5.5l-13 -2l-26 142q73 20 156 20q194 0 194 -138zM67 85q0 43 27.5 69t72.5 26q44 0 72 -26t28 -69t-28 -69
t-72 -26q-45 0 -72.5 26t-27.5 69z" />
    <glyph glyph-name="A.sc" unicode="&#xf761;" horiz-adv-x="626" 
d="M393 0l-14 54h-133l-13 -54h-230l168 520h284l168 -520h-230zM293 239l-6 -23h52l-6 23l-16 86h-8q-8 -55 -16 -86z" />
    <glyph glyph-name="B.sc" unicode="&#xf762;" horiz-adv-x="543" 
d="M526 155q0 -155 -209 -155h-285v520h270q99 0 149.5 -40t50.5 -104q0 -65 -47 -92v-1q71 -35 71 -128zM308 174q0 23 -21 23h-37v-45h37q21 0 21 22zM298 345q0 23 -22 23h-26v-45h27q21 0 21 22z" />
    <glyph glyph-name="C.sc" unicode="&#xf763;" horiz-adv-x="467" 
d="M436 168l24 -152q-72 -26 -164 -26q-110 0 -174 42q-101 65 -101 228q0 78 26 134.5t67 85.5q70 50 190 50q68 0 138 -20l-29 -152q-49 10 -83 10q-48 0 -69 -21q-22 -22 -22 -85q0 -68 26 -92q19 -18 69 -18q33 0 102 16z" />
    <glyph glyph-name="D.sc" unicode="&#xf764;" horiz-adv-x="561" 
d="M540 257q0 -145 -70 -208q-55 -49 -176 -49h-262v520h234q131 0 194 -55q34 -30 57 -84.5t23 -123.5zM322 257q0 60 -13 83q-10 18 -38 18h-21v-196h28q23 0 33 14q11 15 11 81z" />
    <glyph glyph-name="E.sc" unicode="&#xf765;" horiz-adv-x="443" 
d="M32 0v520h380v-162h-162v-27h122v-142h-122v-27h176v-162h-394z" />
    <glyph glyph-name="F.sc" unicode="&#xf766;" horiz-adv-x="383" 
d="M32 0v520h344v-162h-126v-50h106v-142h-106v-166h-218z" />
    <glyph glyph-name="G.sc" unicode="&#xf767;" horiz-adv-x="573" 
d="M307 152l16 1v35h-54v132h272v-278q-104 -52 -232 -52q-130 0 -196 44q-92 61 -92 224q0 149 96 222q68 52 203 52q94 0 193 -33l-29 -151q-78 22 -142 22q-55 0 -79 -19q-25 -21 -25 -95q0 -64 13.5 -84t55.5 -20z" />
    <glyph glyph-name="H.sc" unicode="&#xf768;" horiz-adv-x="594" 
d="M344 0v182h-94v-182h-218v520h218v-176h94v176h218v-520h-218z" />
    <glyph glyph-name="I.sc" unicode="&#xf769;" horiz-adv-x="282" 
d="M32 0v520h218v-520h-218z" />
    <glyph glyph-name="J.sc" unicode="&#xf76a;" horiz-adv-x="314" 
d="M285 520v-330q0 -108 -48.5 -154t-183.5 -46h-61v162q44 0 59.5 16t15.5 54v298h218z" />
    <glyph glyph-name="K.sc" unicode="&#xf76b;" horiz-adv-x="576" 
d="M334 0l-79 158h-5v-158h-218v520h218v-174h5l78 174h240l-131 -262l137 -258h-245z" />
    <glyph glyph-name="L.sc" unicode="&#xf76c;" horiz-adv-x="408" 
d="M32 0v520h218v-358h151v-162h-369z" />
    <glyph glyph-name="M.sc" unicode="&#xf76d;" horiz-adv-x="722" 
d="M690 0h-218v106l9 109l-7 1q-20 -70 -30 -94l-34 -80h-98l-34 80l-30 94l-7 -1q9 -85 9 -109v-106h-218v520h262l66 -156h2l66 156h262v-520z" />
    <glyph glyph-name="N.sc" unicode="&#xf76e;" horiz-adv-x="644" 
d="M269 520l95 -150q7 -11 15 -28t13 -28l4 -12l5 1q-7 47 -7 77v140h218v-520h-237l-95 150l-32 68l-5 -1q7 -51 7 -77v-140h-218v520h237z" />
    <glyph glyph-name="O.sc" unicode="&#xf76f;" horiz-adv-x="600" 
d="M361 259q0 75 -19 94q-15 15 -42 15t-42 -15q-19 -19 -19 -94q0 -72 18 -91q14 -16 43 -16t43 16q18 19 18 91zM579 259q0 -158 -86 -218q-73 -51 -194 -51q-119 0 -192 51q-86 60 -86 218q0 157 82 217q74 54 196 54q125 0 198 -54q82 -60 82 -217z" />
    <glyph glyph-name="P.sc" unicode="&#xf770;" horiz-adv-x="526" 
d="M299 148h-49v-148h-218v520h267q100 0 155 -46t55 -140q0 -186 -210 -186zM291 324q0 34 -22 34h-19v-68h21q20 0 20 34z" />
    <glyph glyph-name="Q.sc" unicode="&#xf771;" horiz-adv-x="600" 
d="M468 -69l-60 71q-45 -12 -109 -12q-119 0 -192 51q-86 60 -86 218q0 157 82 217q74 54 196 54q125 0 198 -54q82 -60 82 -217q0 -104 -37 -164l51 -61zM361 259q0 75 -19 94q-15 15 -42 15t-42 -15q-19 -19 -19 -94q0 -72 18 -91q14 -16 43 -16t43 16q18 19 18 91z" />
    <glyph glyph-name="R.sc" unicode="&#xf772;" horiz-adv-x="541" 
d="M302 0l-47 126h-5v-126h-218v520h277q98 0 154 -50.5t56 -141.5q0 -101 -54 -152l69 -176h-232zM301 322q0 36 -26 36h-25v-72h27q24 0 24 36z" />
    <glyph glyph-name="S.sc" unicode="&#xf773;" horiz-adv-x="512" 
d="M491 167q0 -177 -228 -177q-124 0 -236 44l36 156q100 -38 180 -38q30 0 30 14q0 10 -15 12l-57 10q-90 16 -135 55t-45 111q0 79 60 127.5t172 48.5q104 0 203 -42l-44 -150q-77 30 -146 30q-27 0 -27 -15q0 -8 13 -11l67 -12q172 -30 172 -163z" />
    <glyph glyph-name="T.sc" unicode="&#xf774;" horiz-adv-x="452" 
d="M449 358h-114v-358h-218v358h-114v162h446v-162z" />
    <glyph glyph-name="U.sc" unicode="&#xf775;" horiz-adv-x="566" 
d="M537 520v-326q0 -93 -65 -148.5t-189 -55.5q-123 0 -188.5 56t-65.5 148v326h218v-315q0 -53 36 -53q19 0 27.5 11.5t8.5 41.5v315h218z" />
    <glyph glyph-name="V.sc" unicode="&#xf776;" horiz-adv-x="588" 
d="M3 520h225l39 -150q5 -21 11 -57.5t10 -62.5l3 -26h6q12 99 24 146l39 150h225l-148 -520h-286z" />
    <glyph glyph-name="W.sc" unicode="&#xf777;" horiz-adv-x="890" 
d="M502 0l-42 140l-13 84h-4q-7 -64 -13 -84l-42 -140h-255l-130 520h225l34 -140q4 -17 8.5 -48t7.5 -54l2 -22h4q10 84 22 124l35 117h208l35 -117q5 -18 10.5 -48.5t8.5 -52.5l3 -22h4q8 83 18 123l34 140h225l-130 -520h-255z" />
    <glyph glyph-name="X.sc" unicode="&#xf778;" horiz-adv-x="564" 
d="M3 0l108 268l-99 252h228l22 -60l18 -78h4q11 58 18 78l22 60h228l-99 -252l108 -268h-235l-29 80l-13 53h-4q-5 -33 -13 -53l-30 -80h-234z" />
    <glyph glyph-name="Y.sc" unicode="&#xf779;" horiz-adv-x="556" 
d="M553 520l-166 -353v-167h-218v167l-166 353h231l22 -60q5 -13 9.5 -35t6.5 -37l3 -16h6q7 59 18 88l22 60h232z" />
    <glyph glyph-name="Z.sc" unicode="&#xf77a;" horiz-adv-x="464" 
d="M452 0h-445l126 302q5 13 12.5 26.5t12.5 20.5l5 7l-1 2h-130v162h425l-129 -310q-5 -12 -12 -23.5t-11 -16.5l-4 -6l1 -2h150v-162z" />
    <glyph glyph-name="exclamdown.sc" unicode="&#xf7a1;" horiz-adv-x="272" 
d="M29 -83l33 213h148l33 -213q7 -41 -22 -62t-85 -21q-55 0 -84.5 21t-22.5 62zM236 281q0 -43 -27.5 -69t-72.5 -26q-44 0 -72 26t-28 69t28 69t72 26q45 0 72.5 -26t27.5 -69z" />
    <glyph glyph-name="questiondown.sc" unicode="&#xf7bf;" horiz-adv-x="397" 
d="M10 -26q0 64 20 92t75 40q31 7 40.5 12.5t11.5 17.5l1 14h148l4 -29q7 -46 -4 -70t-49 -33q-46 -11 -48 -13q-1 -2 -1 -5q0 -12 35 -12q20 0 42.5 2.5t35.5 5.5l13 2l26 -142q-73 -20 -156 -20q-194 0 -194 138zM130 281q0 43 27.5 69t72.5 26q44 0 72 -26t28 -69
t-28 -69t-72 -26q-45 0 -72.5 26t-27.5 69z" />
    <glyph glyph-name="Agrave.sc" unicode="&#xf7e0;" horiz-adv-x="626" 
d="M393 0l-14 54h-133l-13 -54h-230l168 520h284l168 -520h-230zM293 239l-6 -23h52l-6 23l-16 86h-8q-8 -55 -16 -86zM135 676q0 33 42 33h62q55 0 79 -34l76 -113h-111l-109 71q-16 11 -21.5 15t-11.5 11.5t-6 16.5z" />
    <glyph glyph-name="Aacute.sc" unicode="&#xf7e1;" horiz-adv-x="626" 
d="M393 0l-14 54h-133l-13 -54h-230l168 520h284l168 -520h-230zM293 239l-6 -23h52l-6 23l-16 86h-8q-8 -55 -16 -86zM486 677q0 -3 -0.5 -5.5t-1 -4.5t-2.5 -4.5t-3 -4t-3.5 -4l-4 -4t-5.5 -4t-5.5 -3.5t-6.5 -4.5t-7 -4.5l-109 -71h-111l76 113q24 34 79 34h62
q42 0 42 -33z" />
    <glyph glyph-name="Acircumflex.sc" unicode="&#xf7e2;" horiz-adv-x="626" 
d="M393 0l-14 54h-133l-13 -54h-230l168 520h284l168 -520h-230zM293 239l-6 -23h52l-6 23l-16 86h-8q-8 -55 -16 -86zM361 722l117 -121l-34 -49l-125 46h-11l-125 -46l-34 49l117 121h95z" />
    <glyph glyph-name="Atilde.sc" unicode="&#xf7e3;" horiz-adv-x="626" 
d="M393 0l-14 54h-133l-13 -54h-230l168 520h284l168 -520h-230zM293 239l-6 -23h52l-6 23l-16 86h-8q-8 -55 -16 -86zM419 723l63 -51q-7 -42 -32.5 -74t-77.5 -32q-24 0 -67 17.5t-57 17.5q-30 0 -49 -39l-63 51q6 38 32.5 72t77.5 34q24 0 66.5 -17.5t56.5 -17.5
q32 0 50 39z" />
    <glyph glyph-name="Adieresis.sc" unicode="&#xf7e4;" horiz-adv-x="626" 
d="M393 0l-14 54h-133l-13 -54h-230l168 520h284l168 -520h-230zM293 239l-6 -23h52l-6 23l-16 86h-8q-8 -55 -16 -86zM112 641q0 47 25.5 71t67.5 24t67.5 -24t25.5 -71q0 -46 -25.5 -70.5t-67.5 -24.5t-67.5 24.5t-25.5 70.5zM328 641q0 47 25.5 71t67.5 24t67.5 -24
t25.5 -71q0 -46 -25.5 -70.5t-67.5 -24.5t-67.5 24.5t-25.5 70.5z" />
    <glyph glyph-name="Aring.sc" unicode="&#xf7e5;" horiz-adv-x="626" 
d="M393 0l-14 54h-133l-13 -54h-230l168 520h284l168 -520h-230zM293 239l-6 -23h52l-6 23l-16 86h-8q-8 -55 -16 -86zM349 666q0 13 -10 22t-26 9t-26 -9t-10 -22t10 -21.5t26 -8.5t26 8.5t10 21.5zM441 666q0 -46 -33.5 -74.5t-94.5 -28.5t-94.5 28.5t-33.5 74.5
q0 47 33.5 75.5t94.5 28.5t94.5 -28.5t33.5 -75.5z" />
    <glyph glyph-name="AE.sc" unicode="&#xf7e6;" horiz-adv-x="761" 
d="M350 0v54h-101l-16 -54h-230l173 520h554v-162h-162v-27h122v-142h-122v-27h176v-162h-394zM307 239l-7 -23h50v142h-12q-20 -83 -31 -119z" />
    <glyph glyph-name="Ccedilla.sc" unicode="&#xf7e7;" horiz-adv-x="467" 
d="M418 -127q0 -89 -131 -89q-25 0 -55 2.5t-48 5.5l-18 2l6 71q54 -5 80 -5q30 0 30 20q0 16 -29 16h-66l22 103q-53 9 -87 33q-101 65 -101 228q0 78 26 134.5t67 85.5q70 50 190 50q68 0 138 -20l-29 -152q-49 10 -83 10q-48 0 -69 -21q-22 -22 -22 -85q0 -68 26 -92
q19 -18 69 -18q33 0 102 16l24 -152q-65 -23 -144 -26l-7 -32h10q99 0 99 -85z" />
    <glyph glyph-name="Egrave.sc" unicode="&#xf7e8;" horiz-adv-x="443" 
d="M32 0v520h380v-162h-162v-27h122v-142h-122v-27h176v-162h-394zM54 677q0 33 42 33h62q55 0 79 -34l76 -113h-111l-109 71q-16 11 -21.5 15t-11.5 11.5t-6 16.5z" />
    <glyph glyph-name="Eacute.sc" unicode="&#xf7e9;" horiz-adv-x="443" 
d="M32 0v520h380v-162h-162v-27h122v-142h-122v-27h176v-162h-394zM420 677q0 -3 -0.5 -5.5t-1 -4.5t-2.5 -4.5t-3 -4t-3.5 -4l-4 -4t-5.5 -4t-5.5 -3.5t-6.5 -4.5t-7 -4.5l-109 -71h-111l76 113q24 34 79 34h62q42 0 42 -33z" />
    <glyph glyph-name="Ecircumflex.sc" unicode="&#xf7ea;" horiz-adv-x="443" 
d="M32 0v520h380v-162h-162v-27h122v-142h-122v-27h176v-162h-394zM279 722l117 -121l-34 -49l-125 46h-11l-125 -46l-34 49l117 121h95z" />
    <glyph glyph-name="Edieresis.sc" unicode="&#xf7eb;" horiz-adv-x="443" 
d="M32 0v520h380v-162h-162v-27h122v-142h-122v-27h176v-162h-394zM25 641q0 47 25.5 71t67.5 24t67.5 -24t25.5 -71q0 -46 -25.5 -70.5t-67.5 -24.5t-67.5 24.5t-25.5 70.5zM241 641q0 47 25.5 71t67.5 24t67.5 -24t25.5 -71q0 -46 -25.5 -70.5t-67.5 -24.5t-67.5 24.5
t-25.5 70.5z" />
    <glyph glyph-name="Igrave.sc" unicode="&#xf7ec;" horiz-adv-x="282" 
d="M32 0v520h218v-520h-218zM-20 677q0 33 42 33h62q55 0 79 -34l76 -113h-111l-109 71q-16 11 -21.5 15t-11.5 11.5t-6 16.5z" />
    <glyph glyph-name="Iacute.sc" unicode="&#xf7ed;" horiz-adv-x="282" 
d="M32 0v520h218v-520h-218zM300 677q0 -3 -0.5 -5.5t-1 -4.5t-2.5 -4.5t-3 -4t-3.5 -4l-4 -4t-5.5 -4t-5.5 -3.5t-6.5 -4.5t-7 -4.5l-109 -71h-111l76 113q24 34 79 34h62q42 0 42 -33z" />
    <glyph glyph-name="Icircumflex.sc" unicode="&#xf7ee;" horiz-adv-x="282" 
d="M32 0v520h218v-520h-218zM189 723l117 -121l-34 -49l-125 46h-11l-125 -46l-34 49l117 121h95z" />
    <glyph glyph-name="Idieresis.sc" unicode="&#xf7ef;" horiz-adv-x="282" 
d="M-50 641q0 47 24 71t65 24t65 -24t24 -71t-24 -71t-65 -24t-65 24t-24 71zM154 641q0 47 24 71t65 24t65 -24t24 -71t-24 -71t-65 -24t-65 24t-24 71zM32 0v520h218v-520h-218z" />
    <glyph glyph-name="Eth.sc" unicode="&#xf7f0;" horiz-adv-x="566" 
d="M1 191v138h36v191h234q131 0 194 -55q34 -30 57 -84.5t23 -123.5q0 -145 -70 -208q-55 -49 -176 -49h-262v191h-36zM327 257q0 60 -13 83q-10 18 -38 18h-21v-29h38v-138h-38v-29h28q23 0 33 14q11 15 11 81z" />
    <glyph glyph-name="Ntilde.sc" unicode="&#xf7f1;" horiz-adv-x="644" 
d="M269 520l95 -150q7 -11 15 -28t13 -28l4 -12l5 1q-7 47 -7 77v140h218v-520h-237l-95 150l-32 68l-5 -1q7 -51 7 -77v-140h-218v520h237zM440 725l63 -51q-7 -42 -32.5 -74t-77.5 -32q-24 0 -67 17.5t-57 17.5q-30 0 -49 -39l-63 51q6 38 32.5 72t77.5 34
q24 0 66.5 -17.5t56.5 -17.5q32 0 50 39z" />
    <glyph glyph-name="Ograve.sc" unicode="&#xf7f2;" horiz-adv-x="600" 
d="M361 259q0 75 -19 94q-15 15 -42 15t-42 -15q-19 -19 -19 -94q0 -72 18 -91q14 -16 43 -16t43 16q18 19 18 91zM579 259q0 -158 -86 -218q-73 -51 -194 -51q-119 0 -192 51q-86 60 -86 218q0 157 82 217q74 54 196 54q125 0 198 -54q82 -60 82 -217zM107 677q0 33 42 33
h62q55 0 79 -34l76 -113h-111l-109 71q-16 11 -21.5 15t-11.5 11.5t-6 16.5z" />
    <glyph glyph-name="Oacute.sc" unicode="&#xf7f3;" horiz-adv-x="600" 
d="M361 259q0 75 -19 94q-15 15 -42 15t-42 -15q-19 -19 -19 -94q0 -72 18 -91q14 -16 43 -16t43 16q18 19 18 91zM579 259q0 -158 -86 -218q-73 -51 -194 -51q-119 0 -192 51q-86 60 -86 218q0 157 82 217q74 54 196 54q125 0 198 -54q82 -60 82 -217zM492 677
q0 -3 -0.5 -5.5t-1 -4.5t-2.5 -4.5t-3 -4t-3.5 -4l-4 -4t-5.5 -4t-5.5 -3.5t-6.5 -4.5t-7 -4.5l-109 -71h-111l76 113q24 34 79 34h62q42 0 42 -33z" />
    <glyph glyph-name="Ocircumflex.sc" unicode="&#xf7f4;" horiz-adv-x="600" 
d="M361 259q0 75 -19 94q-15 15 -42 15t-42 -15q-19 -19 -19 -94q0 -72 18 -91q14 -16 43 -16t43 16q18 19 18 91zM579 259q0 -158 -86 -218q-73 -51 -194 -51q-119 0 -192 51q-86 60 -86 218q0 157 82 217q74 54 196 54q125 0 198 -54q82 -60 82 -217zM349 722l117 -121
l-34 -49l-125 46h-11l-125 -46l-34 49l117 121h95z" />
    <glyph glyph-name="Otilde.sc" unicode="&#xf7f5;" horiz-adv-x="600" 
d="M361 259q0 75 -19 94q-15 15 -42 15t-42 -15q-19 -19 -19 -94q0 -72 18 -91q14 -16 43 -16t43 16q18 19 18 91zM579 259q0 -158 -86 -218q-73 -51 -194 -51q-119 0 -192 51q-86 60 -86 218q0 157 82 217q74 54 196 54q125 0 198 -54q82 -60 82 -217zM412 723l63 -51
q-7 -42 -32.5 -74t-77.5 -32q-24 0 -67 17.5t-57 17.5q-30 0 -49 -39l-63 51q6 38 32.5 72t77.5 34q24 0 66.5 -17.5t56.5 -17.5q32 0 50 39z" />
    <glyph glyph-name="Odieresis.sc" unicode="&#xf7f6;" horiz-adv-x="600" 
d="M361 259q0 75 -19 94q-15 15 -42 15t-42 -15q-19 -19 -19 -94q0 -72 18 -91q14 -16 43 -16t43 16q18 19 18 91zM579 259q0 -158 -86 -218q-73 -51 -194 -51q-119 0 -192 51q-86 60 -86 218q0 157 82 217q74 54 196 54q125 0 198 -54q82 -60 82 -217zM99 641q0 47 25.5 71
t67.5 24t67.5 -24t25.5 -71q0 -46 -25.5 -70.5t-67.5 -24.5t-67.5 24.5t-25.5 70.5zM315 641q0 47 25.5 71t67.5 24t67.5 -24t25.5 -71q0 -46 -25.5 -70.5t-67.5 -24.5t-67.5 24.5t-25.5 70.5z" />
    <glyph glyph-name="AEacute.sc" unicode="&#xf7f7;" horiz-adv-x="761" 
d="M350 0v54h-101l-16 -54h-230l173 520h554v-162h-162v-27h122v-142h-122v-27h176v-162h-394zM307 239l-7 -23h50v142h-12q-20 -83 -31 -119zM665 677q0 -3 -0.5 -5.5t-1 -4.5t-2.5 -4.5t-3 -4t-3.5 -4l-4 -4t-5.5 -4t-5.5 -3.5t-6.5 -4.5t-7 -4.5l-109 -71h-111l76 113
q24 34 79 34h62q42 0 42 -33z" />
    <glyph glyph-name="Oslash.sc" unicode="&#xf7f8;" horiz-adv-x="600" 
d="M41 31l33 39q-53 64 -53 189q0 157 82 217q74 54 196 54q88 0 145 -24l38 45l73 -61l-32 -38q56 -66 56 -193q0 -158 -86 -218q-73 -51 -194 -51q-91 0 -147 25l-38 -45zM361 259v3l-2 1q-8 -13 -18 -25l-69 -81q10 -5 28 -5q29 0 43 16q18 19 18 91zM258 353
q-19 -19 -19 -89l2 -1q5 9 9 14l74 87q-11 4 -24 4q-27 0 -42 -15z" />
    <glyph glyph-name="Ugrave.sc" unicode="&#xf7f9;" horiz-adv-x="566" 
d="M537 520v-326q0 -93 -65 -148.5t-189 -55.5q-123 0 -188.5 56t-65.5 148v326h218v-315q0 -53 36 -53q19 0 27.5 11.5t8.5 41.5v315h218zM108 677q0 33 42 33h62q55 0 79 -34l76 -113h-111l-109 71q-16 11 -21.5 15t-11.5 11.5t-6 16.5z" />
    <glyph glyph-name="Uacute.sc" unicode="&#xf7fa;" horiz-adv-x="566" 
d="M537 520v-326q0 -93 -65 -148.5t-189 -55.5q-123 0 -188.5 56t-65.5 148v326h218v-315q0 -53 36 -53q19 0 27.5 11.5t8.5 41.5v315h218zM474 677q0 -3 -0.5 -5.5t-1 -4.5t-2.5 -4.5t-3 -4t-3.5 -4l-4 -4t-5.5 -4t-5.5 -3.5t-6.5 -4.5t-7 -4.5l-109 -71h-111l76 113
q24 34 79 34h62q42 0 42 -33z" />
    <glyph glyph-name="Ucircumflex.sc" unicode="&#xf7fb;" horiz-adv-x="566" 
d="M537 520v-326q0 -93 -65 -148.5t-189 -55.5q-123 0 -188.5 56t-65.5 148v326h218v-315q0 -53 36 -53q19 0 27.5 11.5t8.5 41.5v315h218zM333 722l117 -121l-34 -49l-125 46h-11l-125 -46l-34 49l117 121h95z" />
    <glyph glyph-name="Udieresis.sc" unicode="&#xf7fc;" horiz-adv-x="566" 
d="M537 520v-326q0 -93 -65 -148.5t-189 -55.5q-123 0 -188.5 56t-65.5 148v326h218v-315q0 -53 36 -53q19 0 27.5 11.5t8.5 41.5v315h218zM82 641q0 47 25.5 71t67.5 24t67.5 -24t25.5 -71q0 -46 -25.5 -70.5t-67.5 -24.5t-67.5 24.5t-25.5 70.5zM298 641q0 47 25.5 71
t67.5 24t67.5 -24t25.5 -71q0 -46 -25.5 -70.5t-67.5 -24.5t-67.5 24.5t-25.5 70.5z" />
    <glyph glyph-name="Yacute.sc" unicode="&#xf7fd;" horiz-adv-x="556" 
d="M553 520l-166 -353v-167h-218v167l-166 353h231l22 -60q5 -13 9.5 -35t6.5 -37l3 -16h6q7 59 18 88l22 60h232zM473 677q0 -3 -0.5 -5.5t-1 -4.5t-2.5 -4.5t-3 -4t-3.5 -4l-4 -4t-5.5 -4t-5.5 -3.5t-6.5 -4.5t-7 -4.5l-109 -71h-111l76 113q24 34 79 34h62q42 0 42 -33z
" />
    <glyph glyph-name="Thorn.sc" unicode="&#xf7fe;" horiz-adv-x="526" 
d="M299 76h-49v-76h-218v520h218v-72h49q100 0 155 -46t55 -140q0 -186 -210 -186zM291 252q0 34 -22 34h-19v-68h21q20 0 20 34z" />
    <glyph glyph-name="Ydieresis.sc" unicode="&#xf7ff;" horiz-adv-x="556" 
d="M553 520l-166 -353v-167h-218v167l-166 353h231l22 -60q5 -13 9.5 -35t6.5 -37l3 -16h6q7 59 18 88l22 60h232zM77 641q0 47 25.5 71t67.5 24t67.5 -24t25.5 -71q0 -46 -25.5 -70.5t-67.5 -24.5t-67.5 24.5t-25.5 70.5zM293 641q0 47 25.5 71t67.5 24t67.5 -24t25.5 -71
q0 -46 -25.5 -70.5t-67.5 -24.5t-67.5 24.5t-25.5 70.5z" />
    <glyph glyph-name="s_t" unicode="&#xfb06;" horiz-adv-x="842" 
d="M484 318v162h46v32q0 47 -43 47q-21 0 -33 -13.5t-12 -35.5q0 -30 13 -61l-36 -143q-94 28 -161 28q-18 0 -18 -8q0 -6 9 -7q54 -5 96 -13q140 -27 140 -142q0 -78 -53.5 -126t-164.5 -48q-148 0 -250 48l34 144q110 -34 191 -34q25 0 25 9q0 5 -11 6q-77 6 -90 9
q-144 28 -144 146q0 79 58.5 125.5t162.5 46.5q3 0 9 -0.5t9 -0.5l3 7q-10 23 -10 53q0 73 63 122.5t180 49.5q122 0 186.5 -49t64.5 -140v-52h83v-162h-83v-109q0 -31 10.5 -44t33.5 -13h43l-10 -162h-85q-210 0 -210 178v150h-46z" />
    <glyph glyph-name="c_t" unicode="&#xfb1e;" horiz-adv-x="783" 
d="M425 318v162h46v28q-3 41 -44 41q-19 0 -30.5 -13t-11.5 -32q0 -28 14 -43l-22 -149q-42 16 -80 16q-31 0 -46.5 -20t-14.5 -67q1 -48 15.5 -68.5t45.5 -20.5q18 0 41 5.5t36 10.5l14 6l27 -144q-67 -40 -160 -40q-110 0 -170 50q-68 56 -68 201q0 139 70 201
q43 37 120 46l2 4q-16 24 -16 59q0 72 65 121t177 49q254 0 254 -189v-52h83v-162h-83v-109q0 -31 10.5 -44t33.5 -13h43l-10 -162h-85q-210 0 -210 178v150h-46z" />
    <glyph glyph-name="Adblgrave.sc" unicode="&#xfff0;" horiz-adv-x="626" 
d="M393 0l-14 54h-133l-13 -54h-230l168 520h284l168 -520h-230zM293 239l-6 -23h52l-6 23l-16 86h-8q-8 -55 -16 -86zM50 677q0 33 40 33h29q55 0 79 -34l76 -113h-76l-109 69q-39 24 -39 45zM237 677q0 33 40 33h29q55 0 79 -34l76 -113h-76l-109 69q-39 24 -39 45z" />
    <glyph glyph-name="Ainvertedbreve.sc" unicode="&#xfff1;" horiz-adv-x="626" 
d="M393 0l-14 54h-133l-13 -54h-230l168 520h284l168 -520h-230zM293 239l-6 -23h52l-6 23l-16 86h-8q-8 -55 -16 -86zM257 563h-105q0 65 42 106t118 41t118 -41t42 -106h-105q-12 47 -55 47t-55 -47z" />
    <glyph glyph-name="Edblgrave.sc" unicode="&#xfff2;" horiz-adv-x="443" 
d="M32 0v520h380v-162h-162v-27h122v-142h-122v-27h176v-162h-394zM-31 677q0 33 40 33h29q55 0 79 -34l76 -113h-76l-109 69q-39 24 -39 45zM156 677q0 33 40 33h29q55 0 79 -34l76 -113h-76l-109 69q-39 24 -39 45z" />
    <glyph glyph-name="Einvertedbreve.sc" unicode="&#xfff3;" horiz-adv-x="443" 
d="M32 0v520h380v-162h-162v-27h122v-142h-122v-27h176v-162h-394zM173 563h-105q0 65 42 106t118 41t118 -41t42 -106h-105q-12 47 -55 47t-55 -47z" />
    <glyph glyph-name="Idblgrave.sc" unicode="&#xfff4;" horiz-adv-x="282" 
d="M32 0v520h218v-520h-218zM-126 677q0 33 40 33h29q55 0 79 -34l76 -113h-76l-109 69q-39 24 -39 45zM61 677q0 33 40 33h29q55 0 79 -34l76 -113h-76l-109 69q-39 24 -39 45z" />
    <glyph glyph-name="Iinvertedbreve.sc" unicode="&#xfff5;" horiz-adv-x="282" 
d="M32 0v520h218v-520h-218zM86 563h-105q0 65 42 106t118 41t118 -41t42 -106h-105q-12 47 -55 47t-55 -47z" />
    <glyph glyph-name="Odblgrave.sc" unicode="&#xfff6;" horiz-adv-x="600" 
d="M361 259q0 75 -19 94q-15 15 -42 15t-42 -15q-19 -19 -19 -94q0 -72 18 -91q14 -16 43 -16t43 16q18 19 18 91zM579 259q0 -158 -86 -218q-73 -51 -194 -51q-119 0 -192 51q-86 60 -86 218q0 157 82 217q74 54 196 54q125 0 198 -54q82 -60 82 -217zM26 677q0 33 40 33
h29q55 0 79 -34l76 -113h-76l-109 69q-39 24 -39 45zM213 677q0 33 40 33h29q55 0 79 -34l76 -113h-76l-109 69q-39 24 -39 45z" />
    <glyph glyph-name="Oinvertedbreve.sc" unicode="&#xfff7;" horiz-adv-x="600" 
d="M361 259q0 75 -19 94q-15 15 -42 15t-42 -15q-19 -19 -19 -94q0 -72 18 -91q14 -16 43 -16t43 16q18 19 18 91zM579 259q0 -158 -86 -218q-73 -51 -194 -51q-119 0 -192 51q-86 60 -86 218q0 157 82 217q74 54 196 54q125 0 198 -54q82 -60 82 -217zM245 563h-105
q0 65 42 106t118 41t118 -41t42 -106h-105q-12 47 -55 47t-55 -47z" />
    <glyph glyph-name="Rdblgrave.sc" unicode="&#xfff8;" horiz-adv-x="541" 
d="M302 0l-47 126h-5v-126h-218v520h277q98 0 154 -50.5t56 -141.5q0 -101 -54 -152l69 -176h-232zM301 322q0 36 -26 36h-25v-72h27q24 0 24 36zM-10 677q0 33 40 33h29q55 0 79 -34l76 -113h-76l-109 69q-39 24 -39 45zM177 677q0 33 40 33h29q55 0 79 -34l76 -113h-76
l-109 69q-39 24 -39 45z" />
    <glyph glyph-name="Rinvertedbreve.sc" unicode="&#xfff9;" horiz-adv-x="541" 
d="M302 0l-47 126h-5v-126h-218v520h277q98 0 154 -50.5t56 -141.5q0 -101 -54 -152l69 -176h-232zM301 322q0 36 -26 36h-25v-72h27q24 0 24 36zM184 563h-105q0 65 42 106t118 41t118 -41t42 -106h-105q-12 47 -55 47t-55 -47z" />
    <glyph glyph-name="Udblgrave.sc" unicode="&#xfffa;" horiz-adv-x="566" 
d="M537 520v-326q0 -93 -65 -148.5t-189 -55.5q-123 0 -188.5 56t-65.5 148v326h218v-315q0 -53 36 -53q19 0 27.5 11.5t8.5 41.5v315h218zM19 677q0 33 40 33h29q55 0 79 -34l76 -113h-76l-109 69q-39 24 -39 45zM206 677q0 33 40 33h29q55 0 79 -34l76 -113h-76l-109 69
q-39 24 -39 45z" />
    <glyph glyph-name="Uinvertedbreve.sc" unicode="&#xfffb;" horiz-adv-x="566" 
d="M537 520v-326q0 -93 -65 -148.5t-189 -55.5q-123 0 -188.5 56t-65.5 148v326h218v-315q0 -53 36 -53q19 0 27.5 11.5t8.5 41.5v315h218zM230 563h-105q0 65 42 106t118 41t118 -41t42 -106h-105q-12 47 -55 47t-55 -47z" />
    </font>
</defs>
</svg>
