<?xml version="1.0" standalone="no"?>
<!DOCTYPE svg PUBLIC "-//W3C//DTD SVG 1.1//EN" "http://www.w3.org/Graphics/SVG/1.1/DTD/svg11.dtd" >
<svg xmlns="http://www.w3.org/2000/svg" xmlns:xlink="http://www.w3.org/1999/xlink" version="1.1">
<metadata>
Created by FontForge 20170731 at Tue Dec 10 00:03:19 2013
 By Aleksey,,,
Copyright (c) 2013 by Nikola &#38; Zoran Kostic. All rights reserved.
</metadata>
<defs>
<font id="Argumentum-ThinItalic" horiz-adv-x="500" >
  <font-face 
    font-family="Argumentum Tn"
    font-weight="250"
    font-style="italic"
    font-stretch="normal"
    units-per-em="1000"
    panose-1="2 11 0 0 0 0 0 0 0 0"
    ascent="751"
    descent="-249"
    x-height="480"
    cap-height="676"
    bbox="-100 -245 939 937"
    underline-thickness="50"
    underline-position="-200"
    unicode-range="U+0020-FFFB"
  />
<missing-glyph horiz-adv-x="470" 
d="M114 40h262l128 656h-262zM68 0l142 735h343l-142 -735h-343z" />
    <glyph glyph-name="f_f" unicode="ff" horiz-adv-x="450" 
d="M595 708l-5 -21q-15 2 -30 2q-47 0 -74 -25t-38 -82l-20 -102h111l-5 -22h-111l-89 -458h-24l89 458h-202l-89 -458h-24l89 458h-72l5 22h72l20 102q13 66 45.5 97.5t91.5 31.5l34 -3l-5 -21q-15 2 -30 2q-47 0 -74 -25t-38 -82l-20 -102h202l20 102q13 66 45.5 97.5
t91.5 31.5z" />
    <glyph glyph-name="fi" unicode="fi" horiz-adv-x="388" 
d="M408 480l-94 -480h-24l90 458h-183l-89 -458h-24l89 458h-72l5 22h72l20 102q13 66 45 97.5t91 31.5q60 0 116 -28l-8 -19q-61 25 -108 25t-74 -25t-38 -82l-20 -102h206z" />
    <glyph glyph-name="fl" unicode="fl" horiz-adv-x="427" 
d="M407 11l-6 -21q-36 7 -57 33.5t-21 62.5q0 29 11 86l99 507q-43 10 -80 10q-63 0 -91 -23.5t-40 -83.5l-20 -102h111l-5 -22h-111l-89 -458h-24l89 458h-72l5 22h72l20 102q13 68 47 98.5t108 30.5q43 0 107 -15l-102 -524q-11 -55 -11 -85q0 -57 60 -76z" />
    <glyph glyph-name="f_f_i" unicode="ffi" horiz-adv-x="614" 
d="M634 480l-94 -480h-24l90 458h-183l-89 -458h-24l89 458h-202l-89 -458h-24l89 458h-72l5 22h72l20 102q13 66 45.5 97.5t91.5 31.5l34 -3l-5 -21q-15 2 -30 2q-47 0 -74 -25t-38 -82l-20 -102h202l20 102q13 66 45 97.5t91 31.5q60 0 116 -28l-8 -19q-61 25 -108 25
t-74 -25t-38 -82l-20 -102h206z" />
    <glyph glyph-name="f_f_l" unicode="ffl" horiz-adv-x="653" 
d="M539 480l-5 -22h-111l-89 -458h-24l89 458h-202l-89 -458h-24l89 458h-72l5 22h72l20 102q13 66 45.5 97.5t91.5 31.5l34 -3l-5 -21q-15 2 -30 2q-47 0 -74 -25t-38 -82l-20 -102h202l20 102q13 68 47 98.5t108 30.5q43 0 107 -15l-102 -524q-11 -55 -11 -85
q0 -57 60 -76l-6 -21q-36 7 -57 33.5t-21 62.5q0 29 11 86l99 507q-43 10 -80 10q-63 0 -91 -23.5t-40 -83.5l-20 -102h111z" />
    <glyph glyph-name="f_t" unicode="ft" horiz-adv-x="454" 
d="M197 458l-89 -458h-24l89 458h-72l5 22h72l20 102q13 66 45.5 97.5t91.5 31.5l34 -3l-5 -21q-15 2 -30 2q-47 0 -74 -25t-38 -82l-20 -102h192l27 140l26 7l-29 -147h98l-4 -22h-98l-59 -303q-9 -45 -9 -72q0 -31 17.5 -48t60.5 -24l-6 -21q-96 12 -96 92q0 24 9 73
l59 303h-193z" />
    <glyph glyph-name="f_f_t" unicode="fft" horiz-adv-x="680" 
d="M423 458l-89 -458h-24l89 458h-202l-89 -458h-24l89 458h-72l5 22h72l20 102q13 66 45.5 97.5t91.5 31.5l34 -3l-5 -21q-15 2 -30 2q-47 0 -74 -25t-38 -82l-20 -102h202l20 102q13 66 45.5 97.5t91.5 31.5l34 -3l-5 -21q-15 2 -30 2q-47 0 -74 -25t-38 -82l-20 -102h192
l27 140l26 7l-29 -147h98l-4 -22h-98l-59 -303q-9 -45 -9 -72q0 -31 17.5 -48t60.5 -24l-6 -21q-96 12 -96 92q0 24 9 73l59 303h-193z" />
    <glyph glyph-name="f_b" unicode="fb" horiz-adv-x="705" 
d="M313 480l-5 -22h-111l-89 -458h-24l89 458h-72l5 22h72l20 102q13 68 47 98.5t108 30.5q43 0 107 -15l-45 -232l-21 -97l2 -1q12 26 28 46q61 78 149 78q62 0 98.5 -40t36.5 -110q0 -86 -26.5 -168t-73.5 -127q-58 -55 -136 -55q-60 0 -99 37t-39 108q0 31 12 96l87 448
q-43 10 -80 10q-63 0 -91 -23.5t-40 -83.5l-20 -102h111zM472 13q72 0 120 48q45 45 68.5 122.5t23.5 156.5q0 61 -29.5 94.5t-81.5 33.5q-70 0 -124.5 -58t-68.5 -128l-11 -56q-12 -60 -12 -91q0 -55 30.5 -88.5t84.5 -33.5z" />
    <glyph glyph-name="f_h" unicode="fh" horiz-adv-x="711" 
d="M313 480l-5 -22h-111l-89 -458h-24l89 458h-72l5 22h72l20 102q13 68 47 98.5t108 30.5q43 0 107 -15l-52 -270l-15 -61l2 -1q13 25 33 47q68 78 165 78q52 0 86 -29.5t34 -82.5q0 -23 -5 -48l-64 -329h-24l64 328q5 25 5 49q0 43 -27 66.5t-70 23.5q-80 0 -140 -62
t-74 -133l-53 -272h-24l131 679q-43 10 -79 10q-63 0 -91 -23.5t-40 -83.5l-20 -102h111z" />
    <glyph glyph-name="f_j" unicode="fj" horiz-adv-x="390" 
d="M408 480l-113 -577q-15 -75 -46 -107t-87 -32l-34 3l4 21q15 -2 28 -2q49 0 73.5 26.5t37.5 91.5l108 554h-182l-89 -458h-24l89 458h-72l5 22h72l20 102q13 66 45 97.5t91 31.5q60 0 116 -28l-8 -19q-61 25 -108 25t-74 -25t-38 -82l-20 -102h206z" />
    <glyph glyph-name="f_k" unicode="fk" horiz-adv-x="647" 
d="M313 480l-5 -22h-111l-89 -458h-24l89 458h-72l5 22h72l20 102q13 68 47 98.5t108 30.5q43 0 107 -15l-85 -435h68l200 218h28l-211 -230v-3l174 -246h-28l-169 239h-66l-46 -239h-24l132 679q-43 10 -80 10q-63 0 -91 -23.5t-40 -83.5l-20 -102h111z" />
    <glyph glyph-name="f_y" unicode="fy" horiz-adv-x="601" 
d="M462 71l181 409h25l-263 -593q-32 -72 -65 -97.5t-90 -25.5h-38l5 22h36q46 0 74 22.5t56 84.5l41 92l-112 473h-115l-89 -458h-24l89 458h-72l5 22h72l20 102q13 66 45.5 97.5t91.5 31.5l34 -3l-5 -21q-15 2 -30 2q-47 0 -74 -25t-38 -82l-20 -102h129l96 -409l11 -55h2
q12 32 22 55z" />
    <glyph glyph-name="f_f_b" unicode="ffb" horiz-adv-x="931" 
d="M539 480l-5 -22h-111l-89 -458h-24l89 458h-202l-89 -458h-24l89 458h-72l5 22h72l20 102q13 66 45.5 97.5t91.5 31.5l34 -3l-5 -21q-15 2 -30 2q-47 0 -74 -25t-38 -82l-20 -102h202l20 102q13 68 47 98.5t108 30.5q43 0 107 -15l-45 -232l-21 -97l2 -1q12 26 28 46
q61 78 149 78q62 0 98.5 -40t36.5 -110q0 -86 -26.5 -168t-73.5 -127q-58 -55 -136 -55q-60 0 -99 37t-39 108q0 31 12 96l87 448q-43 10 -80 10q-63 0 -91 -23.5t-40 -83.5l-20 -102h111zM698 13q72 0 120 48q45 45 68.5 122.5t23.5 156.5q0 61 -29.5 94.5t-81.5 33.5
q-70 0 -124.5 -58t-68.5 -128l-11 -56q-12 -60 -12 -91q0 -55 30.5 -88.5t84.5 -33.5z" />
    <glyph glyph-name="f_f_h" unicode="ffh" horiz-adv-x="937" 
d="M539 480l-5 -22h-111l-89 -458h-24l89 458h-202l-89 -458h-24l89 458h-72l5 22h72l20 102q13 66 45.5 97.5t91.5 31.5l34 -3l-5 -21q-15 2 -30 2q-47 0 -74 -25t-38 -82l-20 -102h202l20 102q13 68 47 98.5t108 30.5q43 0 107 -15l-52 -270l-15 -61l2 -1q13 25 33 47
q68 78 165 78q52 0 86 -29.5t34 -82.5q0 -23 -5 -48l-64 -329h-24l64 328q5 25 5 49q0 43 -27 66.5t-70 23.5q-80 0 -140 -62t-74 -133l-53 -272h-24l132 679q-43 10 -80 10q-63 0 -91 -23.5t-40 -83.5l-20 -102h111z" />
    <glyph glyph-name="f_f_j" unicode="ffj" horiz-adv-x="616" 
d="M634 480l-113 -577q-15 -75 -46 -107t-87 -32l-34 3l4 21q15 -2 28 -2q49 0 73.5 26.5t37.5 91.5l108 554h-182l-89 -458h-24l89 458h-202l-89 -458h-24l89 458h-72l5 22h72l20 102q13 66 45.5 97.5t91.5 31.5l34 -3l-5 -21q-15 2 -30 2q-47 0 -74 -25t-38 -82l-20 -102
h202l20 102q13 66 45 97.5t91 31.5q60 0 116 -28l-8 -19q-61 25 -108 25t-74 -25t-38 -82l-20 -102h206z" />
    <glyph glyph-name="f_f_k" unicode="ffk" horiz-adv-x="875" 
d="M539 480l-5 -22h-111l-89 -458h-24l89 458h-202l-89 -458h-24l89 458h-72l5 22h72l20 102q13 66 45.5 97.5t91.5 31.5l34 -3l-5 -21q-15 2 -30 2q-47 0 -74 -25t-38 -82l-20 -102h202l20 102q13 68 47 98.5t108 30.5q43 0 107 -15l-85 -435h68l200 218h28l-211 -230v-3
l174 -246h-28l-169 239h-66l-46 -239h-24l132 679q-43 10 -80 10q-63 0 -91 -23.5t-40 -83.5l-20 -102h111z" />
    <glyph glyph-name="f_f_y" unicode="ffy" horiz-adv-x="827" 
d="M688 71l181 409h25l-263 -593q-32 -72 -65 -97.5t-90 -25.5h-38l5 22h36q46 0 74 22.5t56 84.5l41 92l-112 473h-115l-89 -458h-24l89 458h-202l-89 -458h-24l89 458h-72l5 22h72l20 102q13 66 45.5 97.5t91.5 31.5l34 -3l-5 -21q-15 2 -30 2q-47 0 -74 -25t-38 -82
l-20 -102h202l20 102q13 66 45.5 97.5t91.5 31.5l34 -3l-5 -21q-15 2 -30 2q-47 0 -74 -25t-38 -82l-20 -102h129l96 -409l11 -55h2q12 32 22 55z" />
    <glyph glyph-name="t_t" unicode="tt" horiz-adv-x="458" 
d="M98 458l4 22h72l27 140l26 7l-29 -147h200l27 140l26 7l-29 -147h98l-4 -22h-98l-59 -303q-9 -45 -9 -72q0 -31 17.5 -48t60.5 -24l-6 -21q-96 12 -96 92q0 24 9 73l59 303h-200l-59 -303q-9 -45 -9 -72q0 -31 17.5 -48t60.5 -24l-6 -21q-96 12 -96 92q0 24 9 73l59 303
h-72z" />
    <glyph glyph-name="t_y" unicode="ty" horiz-adv-x="609" 
d="M470 71l181 409h25l-263 -593q-32 -72 -65 -97.5t-90 -25.5h-38l5 22h36q46 0 74 22.5t56 84.5l41 92l-112 473h-126l-59 -303q-9 -45 -9 -72q0 -31 17.5 -48t60.5 -24l-6 -21q-96 12 -96 92q0 24 9 73l59 303h-72l4 22h72l27 140l26 7l-29 -147h141l96 -409l11 -55h2
q12 32 22 55z" />
    <glyph glyph-name="t_t_y" unicode="tty" horiz-adv-x="859" 
d="M194 458l-59 -303q-9 -45 -9 -72q0 -31 17.5 -48t60.5 -24l-6 -21q-96 12 -96 92q0 24 9 73l59 303h-72l4 22h72l27 140l26 7l-29 -147h200l27 140l26 7l-29 -147h141l96 -409l11 -55h2q12 32 22 55l181 409h25l-263 -593q-32 -72 -65 -97.5t-90 -25.5h-38l5 22h36
q46 0 74 22.5t56 84.5l41 92l-112 473h-126l-59 -303q-9 -45 -9 -72q0 -31 17.5 -48t60.5 -24l-6 -21q-96 12 -96 92q0 24 9 73l59 303h-200z" />
    <glyph glyph-name="T_i" unicode="Ti" horiz-adv-x="514" 
d="M562 676l-4 -22h-197l-127 -654h-24l127 654h-197l4 22h418zM534 480l-94 -480h-24l94 480h24z" />
    <glyph glyph-name="f_t_y" unicode="fty" horiz-adv-x="829" 
d="M197 458l-89 -458h-24l89 458h-72l5 22h72l20 102q13 66 45.5 97.5t91.5 31.5l34 -3l-5 -21q-15 2 -30 2q-47 0 -74 -25t-38 -82l-20 -102h192l27 140l26 7l-29 -147h141l96 -409l11 -55h2q12 32 22 55l181 409h25l-263 -593q-32 -72 -65 -97.5t-90 -25.5h-38l5 22h36
q46 0 74 22.5t56 84.5l41 92l-112 473h-126l-59 -303q-9 -45 -9 -72q0 -31 17.5 -48t60.5 -24l-6 -21q-96 12 -96 92q0 24 9 73l59 303h-193z" />
    <glyph glyph-name=".notdef" horiz-adv-x="470" 
d="M114 40h262l128 656h-262zM68 0l142 735h343l-142 -735h-343z" />
    <glyph glyph-name=".null" horiz-adv-x="0" 
 />
    <glyph glyph-name="nonmarkingreturn" horiz-adv-x="333" 
 />
    <glyph glyph-name="space" unicode=" " horiz-adv-x="235" 
 />
    <glyph glyph-name="exclam" unicode="!" horiz-adv-x="170" 
d="M224 667l-97 -474h-18l88 479q4 20 18 20q11 0 11 -11q0 -4 -2 -14zM67 19q0 12 6 20t14 8t14 -8t6 -20q0 -28 -20 -28t-20 28z" />
    <glyph glyph-name="quotedbl" unicode="&#x22;" horiz-adv-x="240" 
d="M229 682l-48 -212h-16l36 221q4 20 19 20q12 0 12 -12q0 -3 -3 -17zM330 682l-48 -212h-16l36 221q4 20 19 20q12 0 12 -12q0 -3 -3 -17z" />
    <glyph glyph-name="numbersign" unicode="#" horiz-adv-x="488" 
d="M279 0l80 235h-163l-80 -235h-24l80 235h-100l5 22h102l62 181h-106l4 22h109l75 218h24l-75 -218h163l75 218h24l-75 -218h88l-4 -22h-91l-62 -181h97l-5 -22h-99l-80 -235h-24zM265 438l-62 -181h163l62 181h-163z" />
    <glyph glyph-name="dollar" unicode="$" horiz-adv-x="498" 
d="M216 -92l15 79q-93 8 -161 68l13 18q70 -58 152 -65l67 342l-31 16q-55 28 -82 63t-27 86q0 69 53 122.5t150 53.5h3l15 76h24l-15 -78q68 -6 125 -43l-10 -18q-53 33 -119 40l-60 -306l14 -7q128 -66 128 -170q0 -85 -59 -142.5t-153 -57.5h-3l-15 -77h-24zM331 335
l-6 3h-1l-65 -331q85 0 136 51t51 127q0 44 -24.5 80.5t-90.5 69.5zM186 515q0 -45 24 -75t72 -54l24 -12l58 295q-90 -1 -134 -47.5t-44 -106.5z" />
    <glyph glyph-name="percent" unicode="%" horiz-adv-x="648" 
d="M373 599q0 -51 -17 -111t-47 -90q-32 -32 -81 -32q-41 0 -62 24.5t-21 68.5t17 103.5t43 87.5q35 37 86 37q40 0 61 -23t21 -65zM616 703h27l-467 -712h-27zM295 416q25 26 39.5 81.5t14.5 101.5q0 66 -61 66q-40 0 -66 -30q-22 -26 -37.5 -79.5t-15.5 -95.5
q0 -72 59 -72q40 0 67 28zM647 223q0 -51 -17 -111t-47 -90q-32 -32 -81 -32q-41 0 -62 24.5t-21 68.5t17 103.5t43 87.5q35 37 86 37q40 0 61 -23t21 -65zM569 40q25 26 39.5 81.5t14.5 101.5q0 66 -61 66q-40 0 -66 -30q-22 -26 -37.5 -79.5t-15.5 -95.5q0 -72 59 -72
q40 0 67 28z" />
    <glyph glyph-name="ampersand" unicode="&#x26;" horiz-adv-x="506" 
d="M505 0h-27l-69 107q-63 -117 -177 -117q-67 0 -106 44t-39 114q0 55 20 109t60 86q27 22 69 35v1l-10 16q-38 60 -38 110q0 40 18.5 80t49.5 63q51 38 124 38q41 0 76 -13l-7 -21q-35 12 -69 12q-65 0 -111 -34q-57 -45 -57 -125q0 -47 35 -101l159 -250q12 32 22 78
l32 161h103l-4 -22h-80l-27 -140q-10 -51 -31 -100zM232 12q109 0 163 117l-147 231q-40 -12 -68 -35q-34 -29 -51.5 -78t-17.5 -99q0 -62 33 -99t88 -37z" />
    <glyph glyph-name="quotesingle" unicode="'" horiz-adv-x="139" 
d="M229 682l-48 -212h-16l36 221q4 20 19 20q12 0 12 -12q0 -3 -3 -17z" />
    <glyph glyph-name="parenleft" unicode="(" horiz-adv-x="227" 
d="M263 697h24q-92 -139 -141.5 -276.5t-49.5 -292.5q0 -104 42 -243h-23q-44 126 -44 242q0 287 192 570z" />
    <glyph glyph-name="parenright" unicode=")" horiz-adv-x="250" 
d="M93 -115h-24q178 276 178 527q0 141 -45 285h24q46 -140 46 -285q0 -271 -179 -527z" />
    <glyph glyph-name="asterisk" unicode="*" horiz-adv-x="402" 
d="M139 577l153 -57l3 2l22 172q3 17 17 17t11 -17l-32 -172l3 -2l160 58q19 6 22 -8t-15 -20l-163 -48l-2 -4l85 -134q9 -14 -3 -21q-13 -8 -20 5l-77 140h-4l-116 -141q-12 -15 -23 -5t1 22l123 134v4l-156 49q-16 6 -10 20q5 12 21 6z" />
    <glyph glyph-name="plus" unicode="+" horiz-adv-x="489" 
d="M497 251l-5 -22h-193l-37 -192h-22l37 192h-192l5 22h192l37 192h22l-37 -192h193z" />
    <glyph glyph-name="comma" unicode="," horiz-adv-x="120" 
d="M50 19q0 12 6 20t14 8q20 0 20 -28q0 -14 -17 -58l-39 -98l-18 3l44 125v3q-10 8 -10 25z" />
    <glyph glyph-name="hyphen" unicode="-" horiz-adv-x="319" 
d="M331 251l-5 -22h-245l5 22h245z" />
    <glyph glyph-name="period" unicode="." horiz-adv-x="120" 
d="M50 19q0 12 6 20t14 8t14 -8t6 -20q0 -28 -20 -28t-20 28z" />
    <glyph glyph-name="slash" unicode="/" horiz-adv-x="225" 
d="M315 693h24l-299 -713h-24z" />
    <glyph glyph-name="zero" unicode="0" horiz-adv-x="498" 
d="M103 162q0 107 36 253t93 207q61 64 147 64q145 0 145 -172q0 -98 -37 -247t-92 -211q-59 -66 -148 -66q-65 0 -104.5 42.5t-39.5 129.5zM127 162q0 -76 32.5 -113t87.5 -37q77 0 130 59q47 53 85 196.5t38 246.5q0 150 -121 150q-78 0 -129 -56q-54 -58 -88.5 -200.5
t-34.5 -245.5z" />
    <glyph glyph-name="one" unicode="1" horiz-adv-x="226" 
d="M277 676l-131 -676h-24l123 635q1 4 -0.5 5t-5.5 -1l-103 -44l-7 19l134 62h14z" />
    <glyph glyph-name="two" unicode="2" horiz-adv-x="433" 
d="M384 22l-4 -22h-360l4 19l271 269q99 97 131.5 146.5t32.5 107.5q0 55 -35.5 88.5t-91.5 33.5q-61 0 -141 -44l-10 19q81 47 151 47q68 0 109.5 -40.5t41.5 -103.5q0 -62 -35 -116t-136 -154l-186 -184l-68 -64v-2h326z" />
    <glyph glyph-name="three" unicode="3" horiz-adv-x="414" 
d="M407 225q0 -103 -59.5 -169t-156.5 -66q-86 0 -153 50l12 18q69 -46 141 -46q85 0 138.5 58.5t53.5 154.5q0 60 -35 95.5t-102 35.5h-57l4 22h53q72 0 119.5 44.5t47.5 127.5q0 51 -28 82.5t-81 31.5q-55 0 -113 -29l-8 20q60 31 121 31q64 0 98.5 -37.5t34.5 -98.5
q0 -138 -122 -181v-2q42 -14 67 -52t25 -90z" />
    <glyph glyph-name="four" unicode="4" horiz-adv-x="428" 
d="M415 638l-2 1q-21 -34 -38 -57l-285 -381h237l71 365zM450 201l-5 -22h-98l-35 -179h-24l35 179h-272l2 9l364 488h26l-92 -475h99z" />
    <glyph glyph-name="five" unicode="5" horiz-adv-x="428" 
d="M425 260q0 -69 -26.5 -133t-77.5 -101q-49 -36 -126 -36q-61 0 -119 25l9 20q52 -23 110 -23q67 0 114 34q45 32 68.5 93t23.5 121t-32.5 91t-90.5 31q-29 0 -61 -5t-49 -11l-18 -5l-7 6l88 304h223l-4 -22h-201l-76 -261q59 16 105 16q70 0 108.5 -39t38.5 -105z" />
    <glyph glyph-name="six" unicode="6" horiz-adv-x="471" 
d="M281 562q-85 -80 -132 -206h1q88 53 168 53q68 0 104 -39.5t36 -101.5q0 -66 -25 -132.5t-73 -105.5q-49 -40 -120 -40q-68 0 -109.5 44.5t-41.5 123.5q0 109 46.5 227t130.5 194q82 74 200 107l3 -22q-119 -37 -188 -102zM318 387q-42 0 -92.5 -18t-86.5 -44
q-26 -87 -26 -167q0 -67 34 -106.5t93 -39.5q63 0 107 36q42 33 64.5 95t22.5 125q0 55 -29.5 87t-86.5 32z" />
    <glyph glyph-name="seven" unicode="7" horiz-adv-x="315" 
d="M425 671l-3 -15l-348 -656h-27l347 649h-268l4 22h295z" />
    <glyph glyph-name="eight" unicode="8" horiz-adv-x="452" 
d="M359 375l-34 -21v-1l28 -21q83 -61 83 -141q0 -89 -56.5 -145t-152.5 -56q-76 0 -113.5 38t-37.5 96q0 126 122 200l69 42v1l-23 17q-75 55 -75 126q0 74 51.5 125t139.5 51q56 0 94 -32.5t38 -91.5q0 -63 -32 -104t-101 -83zM339 313l-52 39l-77 -47q-110 -67 -110 -181
q0 -49 31.5 -80.5t99.5 -31.5q82 0 131.5 48t49.5 131q0 69 -73 122zM258 403l47 -35l44 27q61 37 90 72.5t29 94.5q0 49 -31.5 75.5t-80.5 26.5q-73 0 -118 -44.5t-45 -109.5q0 -59 65 -107z" />
    <glyph glyph-name="nine" unicode="9" horiz-adv-x="477" 
d="M326 113q84 76 130 200l-2 2q-80 -48 -165 -48q-68 0 -104 39.5t-36 101.5q0 66 25 132.5t73 105.5q49 40 120 40q68 0 109.5 -44.5t41.5 -123.5q0 -109 -46.5 -228t-130.5 -195q-78 -70 -206 -105l-3 22q123 37 194 101zM289 289q43 0 92 16.5t86 41.5q27 88 27 171
q0 67 -34 106.5t-93 39.5q-62 0 -107 -36q-42 -33 -64.5 -95t-22.5 -125q0 -55 29.5 -87t86.5 -32z" />
    <glyph glyph-name="colon" unicode=":" horiz-adv-x="120" 
d="M50 19q0 12 6 20t14 8t14 -8t6 -20q0 -28 -20 -28t-20 28zM125 403q0 12 6 20t14 8t14 -8t6 -20q0 -28 -20 -28t-20 28z" />
    <glyph glyph-name="semicolon" unicode=";" horiz-adv-x="120" 
d="M125 403q0 12 6 20t14 8t14 -8t6 -20q0 -28 -20 -28t-20 28zM50 19q0 12 6 20t14 8q20 0 20 -28q0 -14 -17 -58l-39 -98l-18 3l44 125v3q-10 8 -10 25z" />
    <glyph glyph-name="less" unicode="&#x3c;" horiz-adv-x="489" 
d="M452 36l-5 -24l-362 215l5 26l446 215l-5 -28l-418 -201v-2z" />
    <glyph glyph-name="equal" unicode="=" horiz-adv-x="492" 
d="M513 319l-4 -22h-410l4 22h410zM486 182l-4 -22h-410l4 22h410z" />
    <glyph glyph-name="greater" unicode="&#x3e;" horiz-adv-x="490" 
d="M46 12l5 28l418 201v2l-339 201l5 24l362 -215l-5 -26z" />
    <glyph glyph-name="question" unicode="?" horiz-adv-x="310" 
d="M379 575q0 -58 -29 -96.5t-97 -81.5q-50 -32 -65 -49.5t-22 -47.5l-27 -115h-18l21 115q7 39 24 60t75 57q61 38 87.5 71.5t26.5 86.5q0 42 -26 68.5t-71 26.5q-51 0 -107 -26l-6 19q58 29 113 29q54 0 87.5 -32.5t33.5 -84.5zM82 19q0 12 6 20t14 8t14 -8t6 -20
q0 -28 -20 -28t-20 28z" />
    <glyph glyph-name="at" unicode="@" horiz-adv-x="712" 
d="M496 209q0 21 2 34h-2q-21 -36 -57.5 -60t-79.5 -24q-45 0 -70 27t-25 76q0 50 22 111t62 94q45 37 122 37q44 0 112 -17l-56 -229q-7 -29 -7 -47q0 -41 41 -41q68 0 114.5 77.5t46.5 193.5q0 97 -62.5 151.5t-168.5 54.5q-120 0 -209 -64q-75 -55 -111.5 -147.5
t-36.5 -201.5q0 -106 69 -164t177 -58q49 0 96.5 8.5t75.5 18t75 27.5l3 -17q-118 -59 -250 -59q-121 0 -194.5 64.5t-73.5 179.5q0 113 37.5 210.5t120.5 156.5q97 68 221 68q110 0 181.5 -58t71.5 -170q0 -125 -53.5 -209t-131.5 -84q-28 0 -45 16t-17 45zM520 333l35 139
q-46 10 -87 10q-69 0 -106 -32q-34 -31 -54 -84t-20 -104q0 -40 19.5 -60.5t51.5 -20.5q53 0 99 44.5t62 107.5z" />
    <glyph glyph-name="A" unicode="A" horiz-adv-x="501" 
d="M453 0l-32 222h-261l-110 -222h-25l335 676h18l98 -676h-23zM303 509l-132 -265h247l-39 267l-14 127h-3q-31 -73 -59 -129z" />
    <glyph glyph-name="B" unicode="B" horiz-adv-x="506" 
d="M118 22h159q88 0 139 53.5t51 143.5q0 59 -35 92t-103 33h-148zM185 366h146q73 0 118 47t45 127q0 52 -28.5 83t-88.5 31h-136zM491 220q0 -98 -56.5 -159t-157.5 -61h-187q93 479 131 676h158q66 0 102.5 -36.5t36.5 -99.5q0 -64 -30 -113.5t-90 -69.5v-2
q45 -14 69 -50t24 -85z" />
    <glyph glyph-name="C" unicode="C" horiz-adv-x="488" 
d="M461 35l6 -21q-68 -29 -146 -29q-93 0 -149 53t-56 153q0 70 14 150t48 162.5t82 123.5q75 64 187 64q65 0 115 -19l-8 -20q-46 17 -107 17q-105 0 -172 -60q-46 -40 -78 -120t-44.5 -156t-12.5 -142q0 -88 47 -136t134 -48q66 0 140 28z" />
    <glyph glyph-name="D" unicode="D" horiz-adv-x="565" 
d="M424 77q61 54 94.5 175.5t33.5 225.5q0 176 -188 176h-122l-123 -632h149q94 0 156 55zM576 478q0 -114 -36.5 -238.5t-100.5 -180.5q-67 -59 -176 -59h-173q23 119 67 342t65 334h147q98 0 152.5 -48.5t54.5 -149.5z" />
    <glyph glyph-name="E" unicode="E" horiz-adv-x="435" 
d="M419 22l-4 -22h-325l131 676h302l-4 -22h-278l-55 -285h206l-4 -22h-207l-63 -325h301z" />
    <glyph glyph-name="F" unicode="F" horiz-adv-x="390" 
d="M501 676l-4 -22h-256l-55 -286h207l-4 -22h-208l-67 -346h-24l131 676h280z" />
    <glyph glyph-name="G" unicode="G" horiz-adv-x="599" 
d="M598 339l-57 -295q-92 -59 -205 -59q-105 0 -162 57.5t-57 161.5t37.5 227.5t103.5 185.5q79 74 202 74q81 0 159 -38l-10 -19q-73 35 -151 35q-114 0 -185 -69q-62 -61 -97 -179.5t-35 -216.5q0 -94 49.5 -145.5t145.5 -51.5q100 0 184 50l51 260h-166l5 22h188z" />
    <glyph glyph-name="H" unicode="H" horiz-adv-x="616" 
d="M657 676l-131 -676h-24l67 346h-388l-67 -346h-24l131 676h24l-60 -308h388l60 308h24z" />
    <glyph glyph-name="I" unicode="I" horiz-adv-x="205" 
d="M246 676l-132 -676h-24l132 676h24z" />
    <glyph glyph-name="J" unicode="J" horiz-adv-x="241" 
d="M292 676l-88 -454q-14 -75 -36.5 -123.5t-53 -71.5t-58.5 -31.5t-68 -10.5l5 22q81 5 122 52.5t65 163.5l88 453h24z" />
    <glyph glyph-name="K" unicode="K" horiz-adv-x="515" 
d="M245 676l-61 -313h80l316 313h33l-330 -327l225 -349h-28l-220 341h-80l-66 -341h-24l131 676h24z" />
    <glyph glyph-name="L" unicode="L" horiz-adv-x="401" 
d="M391 22l-4 -22h-297l131 676h24l-127 -654h273z" />
    <glyph glyph-name="M" unicode="M" horiz-adv-x="703" 
d="M242 676l132 -541h2l344 541h24l-131 -676h-24l105 541l19 85l-3 1q-18 -36 -44 -77l-292 -459h-12l-111 453l-16 82h-3q-7 -50 -13 -83l-105 -543h-24l131 676h21z" />
    <glyph glyph-name="N" unicode="N" horiz-adv-x="601" 
d="M642 676l-131 -676h-23l-225 565l-25 72h-2q-10 -58 -18 -101l-104 -536h-24l131 676h23l218 -546l32 -92h2q10 60 18 101l104 537h24z" />
    <glyph glyph-name="O" unicode="O" horiz-adv-x="628" 
d="M640 486q0 -121 -39 -249.5t-111 -190.5q-71 -61 -183 -61q-89 0 -139 52t-50 153q0 111 42.5 246.5t107.5 191.5q72 63 184 63q92 0 140 -51.5t48 -153.5zM616 486q0 183 -166 183q-100 0 -167 -58q-60 -52 -100.5 -183.5t-40.5 -237.5q0 -85 40.5 -134t124.5 -49
q103 0 165 54q64 55 104 174t40 251z" />
    <glyph glyph-name="P" unicode="P" horiz-adv-x="453" 
d="M413 357q66 57 66 167q0 130 -121 130h-117l-65 -333h119q76 0 118 36zM503 524q0 -118 -74 -183q-49 -42 -134 -42h-123l-58 -299h-24l131 676h141q64 0 102.5 -38.5t38.5 -113.5z" />
    <glyph glyph-name="Q" unicode="Q" horiz-adv-x="628" 
d="M470 -83l-37 92q-57 -24 -126 -24q-89 0 -139 52t-50 153q0 111 42.5 246.5t107.5 191.5q72 63 184 63q92 0 140 -51.5t48 -153.5q0 -121 -39 -249.5t-111 -190.5q-19 -16 -37 -27l37 -93zM616 486q0 183 -166 183q-100 0 -167 -58q-60 -52 -100.5 -183.5t-40.5 -237.5
q0 -85 40.5 -134t124.5 -49q70 0 118 23l-51 127l21 9l49 -126q13 8 28 21q64 55 104 174t40 251z" />
    <glyph glyph-name="R" unicode="R" horiz-adv-x="507" 
d="M510 524q0 -118 -74 -183q-41 -35 -102 -41l117 -300h-25l-116 299h-138l-58 -299h-24l131 676h148q64 0 102.5 -38.5t38.5 -113.5zM420 357q66 57 66 167q0 130 -121 130h-124l-65 -333h126q76 0 118 36z" />
    <glyph glyph-name="S" unicode="S" horiz-adv-x="477" 
d="M463 185q0 -85 -59 -142.5t-153 -57.5q-107 0 -188 70l13 18q81 -66 175 -66q86 0 137 51t51 127q0 44 -23 80t-89 70l-60 31q-54 28 -80 62.5t-26 86.5q0 69 51.5 122.5t148.5 53.5q79 0 148 -45l-11 -19q-66 42 -137 42q-90 0 -133 -46.5t-43 -107.5q0 -45 23 -75
t70 -54l60 -31q125 -65 125 -170z" />
    <glyph glyph-name="T" unicode="T" horiz-adv-x="451" 
d="M562 676l-4 -22h-197l-127 -654h-24l127 654h-197l4 22h418z" />
    <glyph glyph-name="U" unicode="U" horiz-adv-x="582" 
d="M633 676l-89 -459q-45 -232 -255 -232q-82 0 -129 43.5t-47 118.5q0 36 10 90l85 439h24l-86 -445q-9 -46 -9 -84q0 -68 41.5 -104t114.5 -36q96 0 152 55.5t75 154.5l89 459h24z" />
    <glyph glyph-name="V" unicode="V" horiz-adv-x="485" 
d="M179 676l70 -510l14 -123h2q26 63 55 123l246 510h25l-326 -676h-16l-93 676h23z" />
    <glyph glyph-name="W" unicode="W" horiz-adv-x="807" 
d="M510 551q-22 -50 -45 -95l-228 -456h-19l-62 676h24l47 -517l7 -117h2q25 57 54 116l230 459h6l50 -457l10 -118h2q24 60 52 118l248 516h25l-324 -676h-19l-50 455l-8 96h-2z" />
    <glyph glyph-name="X" unicode="X" horiz-adv-x="438" 
d="M533 676l-233 -334l138 -342h-25l-98 245l-32 81h-2q-23 -36 -55 -82l-173 -244h-28l246 346l-136 330h24l97 -235l31 -81h2q32 50 55 83l162 233h27z" />
    <glyph glyph-name="Y" unicode="Y" horiz-adv-x="476" 
d="M302 296h2q28 46 70 109l181 271h27l-271 -404l-53 -272h-24l53 273l-131 403h25l86 -267z" />
    <glyph glyph-name="Z" unicode="Z" horiz-adv-x="437" 
d="M425 22l-4 -22h-391l417 590l47 63v1h-331l4 22h369l-419 -593l-46 -59v-2h354z" />
    <glyph glyph-name="bracketleft" unicode="[" horiz-adv-x="227" 
d="M192 -78l-4 -22h-128l153 791h128l-4 -22h-104l-145 -747h104z" />
    <glyph glyph-name="backslash" unicode="\" horiz-adv-x="321" 
d="M176 693l123 -713h-24l-123 713h24z" />
    <glyph glyph-name="bracketright" unicode="]" horiz-adv-x="226" 
d="M0 -100l4 22h103l145 747h-104l4 22h128l-153 -791h-127z" />
    <glyph glyph-name="asciicircum" unicode="^" horiz-adv-x="469" 
d="M371 677l149 -307h-25l-132 273h-8l-234 -273h-30l264 307h16z" />
    <glyph glyph-name="underscore" unicode="_" horiz-adv-x="462" 
d="M448 -77v-22h-470v22h470z" />
    <glyph glyph-name="grave" unicode="`" horiz-adv-x="470" 
d="M136 655q0 13 13 13q8 0 20 -13l115 -121h-25l-109 102q-14 13 -14 19z" />
    <glyph glyph-name="a" unicode="a" horiz-adv-x="505" 
d="M499 467l-62 -321q-7 -35 -7 -65q0 -41 28 -62l-11 -19q-41 23 -41 81q0 21 13 76h-2q-71 -167 -197 -167q-61 0 -96 40t-35 112q0 69 29 153t73 128q67 67 174 67q62 0 134 -23zM441 291l31 159q-50 18 -108 18q-99 0 -158 -62q-39 -40 -66 -116.5t-27 -147.5
q0 -65 29.5 -97.5t77.5 -32.5q78 0 138 81t83 198z" />
    <glyph glyph-name="b" unicode="b" horiz-adv-x="470" 
d="M237 13q72 0 120 48q45 45 68.5 122.5t23.5 156.5q0 61 -29.5 94.5t-81.5 33.5q-70 0 -124.5 -58t-68.5 -128l-11 -56q-12 -60 -12 -91q0 -55 30.5 -88.5t84.5 -33.5zM473 340q0 -86 -26.5 -168t-73.5 -127q-58 -55 -136 -55q-60 0 -99 37t-39 108q0 31 12 96l90 465h24
l-45 -232l-21 -97l2 -1q12 26 28 46q61 78 149 78q62 0 98.5 -40t36.5 -110z" />
    <glyph glyph-name="c" unicode="c" horiz-adv-x="380" 
d="M348 38l6 -19q-52 -29 -117 -29q-69 0 -108.5 38.5t-39.5 114.5q0 75 28 167t77 135q51 45 128 45q50 0 91 -16l-8 -20q-37 14 -83 14q-70 0 -113 -40q-43 -39 -69.5 -124.5t-26.5 -160.5q0 -64 33.5 -97.5t90.5 -33.5q53 0 111 26z" />
    <glyph glyph-name="d" unicode="d" horiz-adv-x="505" 
d="M543 696l-106 -550q-7 -35 -7 -65q0 -23 6 -36t22 -26l-11 -19q-41 23 -41 81q0 21 13 76h-2q-71 -167 -197 -167q-61 0 -96 40t-35 112q0 69 29 153t73 128q67 67 174 67q50 0 112 -17l43 223h23zM441 291l31 159q-50 18 -108 18q-99 0 -158 -62q-39 -40 -66 -116.5
t-27 -147.5q0 -65 29.5 -97.5t77.5 -32.5q78 0 138 81t83 198z" />
    <glyph glyph-name="e" unicode="e" horiz-adv-x="457" 
d="M318 258h-189q-16 -64 -16 -112q0 -62 34 -98t94 -36q76 0 168 55l8 -19q-83 -58 -176 -58q-70 0 -111 41t-41 115q0 57 26.5 154t78.5 142q54 48 139 48q63 0 99.5 -28.5t36.5 -73.5q0 -57 -40 -93.5t-111 -36.5zM208 424q-45 -39 -74 -144h184q61 0 94 29.5t33 78.5
q0 37 -30.5 58.5t-81.5 21.5q-76 0 -125 -44z" />
    <glyph glyph-name="f" unicode="f" horiz-adv-x="224" 
d="M369 708l-5 -21q-15 2 -30 2q-47 0 -74 -25t-38 -82l-20 -102h111l-5 -22h-111l-89 -458h-24l89 458h-72l5 22h72l20 102q13 66 45.5 97.5t91.5 31.5z" />
    <glyph glyph-name="g" unicode="g" horiz-adv-x="484" 
d="M500 467l-107 -554q-30 -158 -187 -158q-78 0 -135 33l9 19q58 -30 126 -30q137 0 163 138l28 143l23 99h-2q-71 -167 -197 -167q-61 0 -96 40t-35 112q0 69 29 153t73 128q67 67 174 67q62 0 134 -23zM442 291l31 159q-50 18 -108 18q-99 0 -158 -62q-39 -40 -66 -116.5
t-27 -147.5q0 -65 29.5 -97.5t77.5 -32.5q78 0 138 81t83 198z" />
    <glyph glyph-name="h" unicode="h" horiz-adv-x="485" 
d="M482 329l-64 -329h-24l64 328q5 25 5 49q0 43 -27 66.5t-70 23.5q-80 0 -140 -62t-74 -133l-53 -272h-24l135 696h24l-52 -270l-15 -61l2 -1q13 25 33 47q68 78 165 78q52 0 86 -29.5t34 -82.5q0 -23 -5 -48z" />
    <glyph glyph-name="i" unicode="i" horiz-adv-x="173" 
d="M193 480l-94 -480h-24l94 480h24zM194 658q0 12 6 20t14 8t14 -8t6 -20q0 -28 -20 -28t-20 28z" />
    <glyph glyph-name="j" unicode="j" horiz-adv-x="173" 
d="M193 480l-113 -577q-15 -75 -46 -107t-87 -32l-34 3l4 21q15 -2 28 -2q49 0 73.5 26.5t37.5 91.5l113 576h24zM194 658q0 12 6 20t14 8t14 -8t6 -20q0 -28 -20 -28t-20 28z" />
    <glyph glyph-name="k" unicode="k" horiz-adv-x="394" 
d="M234 696l-85 -435h68l200 218h28l-211 -230v-3l174 -246h-28l-169 239h-66l-46 -239h-24l135 696h24z" />
    <glyph glyph-name="l" unicode="l" horiz-adv-x="199" 
d="M179 11l-6 -21q-36 7 -57 33.5t-21 62.5q0 29 11 86l102 524h24l-102 -524q-11 -55 -11 -85q0 -57 60 -76z" />
    <glyph glyph-name="m" unicode="m" horiz-adv-x="748" 
d="M744 325l-63 -325h-24l64 328q5 25 5 52q0 39 -23.5 63t-66.5 24q-70 0 -124 -58.5t-69 -136.5l-53 -272h-24l64 328q5 25 5 52q0 39 -23.5 63t-66.5 24q-70 0 -124 -58.5t-69 -136.5l-53 -272h-24l93 480h19l-11 -84l-5 -22h2q6 14 23 37q59 78 150 78q54 0 83.5 -30.5
t29.5 -78.5l-1 -13h2q9 22 27 44q63 78 150 78q54 0 83.5 -30.5t29.5 -78.5q0 -25 -6 -55z" />
    <glyph glyph-name="n" unicode="n" horiz-adv-x="485" 
d="M482 329l-64 -329h-24l64 328q5 25 5 49q0 43 -27 66.5t-70 23.5q-82 0 -141.5 -62.5t-72.5 -132.5l-53 -272h-24l93 480h19l-11 -84l-7 -30l2 -1q11 24 31 46q68 78 165 78q52 0 86 -29.5t34 -82.5q0 -23 -5 -48z" />
    <glyph glyph-name="o" unicode="o" horiz-adv-x="460" 
d="M463 340q0 -78 -25 -164t-73 -134q-52 -52 -133 -52q-68 0 -105.5 41t-37.5 109q0 82 27.5 172t78.5 133q55 45 131 45q64 0 100.5 -40t36.5 -110zM439 340q0 62 -31 95t-82 33q-68 0 -117 -41q-46 -38 -71 -124.5t-25 -162.5q0 -59 31 -93.5t88 -34.5q70 0 117 47
q43 43 66.5 126t23.5 155z" />
    <glyph glyph-name="p" unicode="p" horiz-adv-x="478" 
d="M255 -10q-42 0 -82 18.5t-64 46.5l-55 -282h-24l137 707h19l-11 -84l-5 -23h2q9 19 25 39q61 78 149 78q62 0 98.5 -40t36.5 -110q0 -87 -24.5 -168t-70.5 -127q-55 -55 -131 -55zM346 468q-70 0 -124.5 -58t-68.5 -128l-39 -202q22 -28 60.5 -48t80.5 -20q67 0 114 49
q43 45 65.5 123t22.5 156q0 61 -29.5 94.5t-81.5 33.5z" />
    <glyph glyph-name="q" unicode="q" horiz-adv-x="483" 
d="M499 467l-134 -693h-24l55 284l23 99h-2q-71 -167 -197 -167q-61 0 -96 40t-35 112q0 69 29 153t73 128q67 67 174 67q62 0 134 -23zM441 291l31 159q-50 18 -108 18q-99 0 -158 -62q-39 -40 -66 -116.5t-27 -147.5q0 -65 29.5 -97.5t77.5 -32.5q78 0 138 81t83 198z" />
    <glyph glyph-name="r" unicode="r" horiz-adv-x="276" 
d="M346 489l-4 -22h-7q-75 0 -121.5 -58t-61.5 -137l-53 -272h-24l93 480h19l-11 -84l-4 -22h2q14 36 31 55q52 60 135 60h6z" />
    <glyph glyph-name="s" unicode="s" horiz-adv-x="413" 
d="M382 134q0 -59 -44.5 -101.5t-125.5 -42.5q-87 0 -146 51l13 17q58 -46 133 -46q69 0 107.5 35t38.5 87q0 34 -18.5 56t-60.5 39l-67 28q-82 33 -83 100q-1 56 44 94.5t119 38.5q68 0 120 -33l-11 -18q-53 29 -109 29q-66 0 -102.5 -32t-36.5 -76q0 -27 15 -46t55 -36
l69 -29q90 -37 90 -115z" />
    <glyph glyph-name="t" unicode="t" horiz-adv-x="234" 
d="M98 458l4 22h72l27 140l26 7l-29 -147h98l-4 -22h-98l-59 -303q-9 -45 -9 -72q0 -31 17.5 -48t60.5 -24l-6 -21q-96 12 -96 92q0 24 9 73l58 303h-71z" />
    <glyph glyph-name="u" unicode="u" horiz-adv-x="491" 
d="M98 196l55 284h24l-56 -288q-8 -43 -8 -75q0 -50 28 -77.5t74 -27.5q80 0 138.5 83.5t81.5 195.5l37 189h24l-65 -334q-7 -35 -7 -65q0 -42 28 -62l-11 -19q-41 24 -41 81q0 24 13 76h-2q-31 -73 -80.5 -120t-116.5 -47q-55 0 -90 33.5t-35 93.5q0 32 9 79z" />
    <glyph glyph-name="v" unicode="v" horiz-adv-x="375" 
d="M175 0l-57 480h23l47 -396l4 -54h2q11 30 23 54l200 396h26l-244 -480h-24z" />
    <glyph glyph-name="w" unicode="w" horiz-adv-x="596" 
d="M640 480h24l-220 -480h-20l-48 333l-6 62h-2q-11 -32 -26 -62l-163 -333h-20l-41 480h23l30 -352l4 -90h2q19 47 38 87l154 315h15l45 -316l9 -86h2q16 41 39 91z" />
    <glyph glyph-name="x" unicode="x" horiz-adv-x="342" 
d="M234 245l102 -245h-25l-69 168l-23 62h-2q-24 -36 -43 -63l-121 -167h-28l181 249l-93 231h24l62 -156l22 -63h2q19 33 40 62l114 157h28z" />
    <glyph glyph-name="y" unicode="y" horiz-adv-x="405" 
d="M266 71l181 409h25l-263 -593q-32 -72 -65 -97.5t-90 -25.5h-38l5 22h36q46 0 74 22.5t56 84.5l41 92l-117 495h24l96 -409l11 -55h2q12 32 22 55z" />
    <glyph glyph-name="z" unicode="z" horiz-adv-x="418" 
d="M96 22h271l-4 -22h-308l1 5l327 415l31 36v2h-253l4 22h291l-1 -5l-327 -415l-32 -37v-1z" />
    <glyph glyph-name="braceleft" unicode="{" horiz-adv-x="229" 
d="M194 -80l-4 -20q-50 5 -69.5 34t-7.5 90l34 175q17 86 -66 86h-10l4 22h11q82 0 99 89l33 171q11 59 41 89t84 35l-4 -20q-42 -6 -65 -29.5t-33 -74.5l-33 -171q-9 -44 -27.5 -67.5t-56.5 -30.5l-1 -4q63 -14 47 -95l-34 -175q-10 -52 2.5 -75t55.5 -29z" />
    <glyph glyph-name="bar" unicode="|" horiz-adv-x="134" 
d="M144 712v-752h-24v752h24z" />
    <glyph glyph-name="braceright" unicode="}" horiz-adv-x="229" 
d="M0 -100l4 20q41 7 64 30.5t33 73.5l34 175q17 84 83 95l1 4q-62 16 -46 98l33 171q10 51 -3.5 74.5t-54.5 29.5l4 20q98 -12 77 -124l-33 -171q-17 -89 65 -89h10l-4 -22h-11q-80 0 -98 -86l-34 -175q-22 -115 -124 -124z" />
    <glyph glyph-name="asciitilde" unicode="~" horiz-adv-x="481" 
d="M460 283h22q-12 -58 -45 -75t-90 -1l-128 37q-90 26 -107 -54h-22q10 50 45.5 71t91.5 5l131 -38q39 -14 66 -2t36 57z" />
    <glyph glyph-name="nbspace" unicode="&#xa0;" horiz-adv-x="235" 
 />
    <glyph glyph-name="exclamdown" unicode="&#xa1;" horiz-adv-x="170" 
d="M38 -187l97 474h18l-88 -479q-4 -20 -18 -20q-11 0 -11 11q0 4 2 14zM195 461q0 -12 -6 -20t-14 -8t-14 8t-6 20q0 28 20 28t20 -28z" />
    <glyph glyph-name="cent" unicode="&#xa2;" horiz-adv-x="340" 
d="M333 38l6 -19q-52 -29 -117 -29l-13 -65h-24l13 67q-124 13 -124 151q0 75 28 167t77 135q47 42 116 45l13 65h24l-13 -65q47 -3 79 -16l-8 -20q-37 14 -83 14q-70 0 -113 -40q-43 -39 -69.5 -124.5t-26.5 -160.5q0 -64 33.5 -97.5t90.5 -33.5q53 0 111 26z" />
    <glyph glyph-name="sterling" unicode="&#xa3;" horiz-adv-x="466" 
d="M98 342l5 22h103l28 142q19 95 56 140t116 45q48 0 98 -23l-8 -19q-49 20 -90 20q-68 0 -99 -36.5t-49 -126.5l-28 -142h159l-4 -22h-159l-25 -129q-11 -57 -25.5 -87t-40.5 -58l1 -2q12 4 30 4q41 0 91 -27q58 -31 86 -31q70 0 91 103h23l-2 -9q-26 -116 -112 -116
q-34 0 -95 32q-50 26 -81 26q-26 0 -51 -11t-78 -47l-11 21q74 46 105 87.5t45 114.5l25 129h-104z" />
    <glyph glyph-name="currency" unicode="&#xa4;" horiz-adv-x="428" 
d="M102 287q0 -70 48.5 -118.5t118.5 -48.5t119 48.5t49 118.5t-49 119t-119 49t-118.5 -49t-48.5 -119zM476 477l-65 -64q48 -54 48 -126q0 -75 -50 -128l67 -67l-16 -15l-67 67q-54 -46 -124 -46q-71 0 -126 47l-67 -67l-15 15l67 67q-48 54 -48 127q0 70 46 124l-66 66
l16 15l65 -65q53 50 128 50q73 0 127 -49l65 64z" />
    <glyph glyph-name="yen" unicode="&#xa5;" horiz-adv-x="480" 
d="M90 155l4 22h179l19 96l-7 22h-168l4 22h157l-117 359h25l86 -267l35 -113h2q28 46 70 109l181 271h27l-241 -359h157l-4 -22h-168l-15 -23l-19 -95h179l-4 -22h-179l-30 -155h-24l30 155h-179z" />
    <glyph glyph-name="brokenbar" unicode="&#xa6;" horiz-adv-x="134" 
d="M144 165v-353h-24v353h24zM144 692v-354h-24v354h24z" />
    <glyph glyph-name="section" unicode="&#xa7;" horiz-adv-x="428" 
d="M416 230q0 -52 -32.5 -90.5t-89.5 -77.5q42 -54 42 -106q0 -66 -46.5 -105t-116.5 -39q-21 0 -40.5 3t-28.5 7l-9 3l7 20q33 -11 74 -11q56 0 96 32t40 91q0 47 -41 97l-92 113q-46 57 -46 106q0 51 32.5 89.5t88.5 77.5q-41 52 -41 107q0 66 46.5 105t116.5 39
q21 0 40.5 -3.5t28.5 -6.5l9 -3l-7 -20q-33 11 -74 11q-56 0 -96 -32t-40 -91q0 -47 41 -97l92 -113q46 -57 46 -106zM197 182l83 -102q33 22 53 38t39.5 47t19.5 64q0 43 -40 92l-83 102q-25 -17 -39.5 -28.5t-34 -31t-29 -41.5t-9.5 -48q0 -43 40 -92z" />
    <glyph glyph-name="dieresis" unicode="&#xa8;" horiz-adv-x="470" 
d="M138 658q0 12 6 20t14 8t14 -8t6 -20q0 -28 -20 -28t-20 28zM296 658q0 12 6 20t14 8t14 -8t6 -20q0 -28 -20 -28t-20 28z" />
    <glyph glyph-name="copyright" unicode="&#xa9;" horiz-adv-x="747" 
d="M532 183l8 -19q-40 -23 -92 -23q-68 0 -104 37q-36 38 -36 141q0 104 38 142q37 35 101 35q44 0 86 -20l-7 -19q-47 17 -79 17q-56 0 -85 -29q-30 -30 -30 -126q1 -97 29 -125q29 -31 87 -31q41 0 84 20zM770 320q0 -139 -97.5 -237t-235.5 -98q-139 0 -237 97.5
t-98 236.5t97.5 236.5t236.5 97.5t236.5 -97.5t97.5 -235.5zM748 320q0 130 -91 220.5t-221 90.5t-221 -90.5t-91 -221.5t91 -221.5t222 -90.5q130 0 220.5 91t90.5 222z" />
    <glyph glyph-name="ordfeminine" unicode="&#xaa;" horiz-adv-x="244" 
d="M275 488l1 12h-1q-30 -59 -85 -59q-29 0 -47.5 20t-18.5 54q0 39 15 80.5t37 62.5q34 33 87 33q17 0 34.5 -2.5t26.5 -4.5l9 -3l-34 -175q-6 -28 10 -39l3 -2l-10 -19q-27 13 -27 42zM291 590l14 73q-17 6 -43 6q-45 0 -72 -28q-42 -43 -42 -126q0 -26 12 -39t31 -13
q38 0 64 38.5t36 88.5z" />
    <glyph glyph-name="guillemotleft" unicode="&#xab;" horiz-adv-x="439" 
d="M178 27l-133 211l133 211h27l-133 -211l133 -211h-27zM364 27l-133 211l133 211h27l-133 -211l133 -211h-27z" />
    <glyph glyph-name="logicalnot" unicode="&#xac;" horiz-adv-x="491" 
d="M448 111l23 118h-386l4 22h410l-27 -140h-24z" />
    <glyph glyph-name="registered" unicode="&#xae;" horiz-adv-x="453" 
d="M260 409v204h75q23 0 38 -15t15 -43q0 -21 -11 -37.5t-34 -20.5l62 -88h-27l-59 87h-37v-87h-22zM366 556q0 37 -38 37h-46v-77h43q21 0 31 8.5t10 31.5zM523 509q0 -83 -58 -141.5t-141 -58.5t-141.5 58.5t-58.5 141.5t58.5 141t141.5 58t141 -58t58 -141zM501 509
q0 74 -51.5 125.5t-125.5 51.5t-126 -51.5t-52 -125.5t52 -126t126 -52t125.5 52t51.5 126z" />
    <glyph glyph-name="macron" unicode="&#xaf;" horiz-adv-x="470" 
d="M358 620l-4 -22h-226l4 22h226z" />
    <glyph glyph-name="degree" unicode="&#xb0;" horiz-adv-x="359" 
d="M173 570q0 -49 33.5 -82.5t82.5 -33.5t83 33.5t34 82.5t-34 83t-83 34t-82.5 -34t-33.5 -83zM149 570q0 59 41 100t99 41q59 0 100 -41.5t41 -99.5t-41 -99t-100 -41t-99.5 41t-40.5 99z" />
    <glyph glyph-name="plusminus" unicode="&#xb1;" horiz-adv-x="493" 
d="M457 22l-5 -22h-407l5 22h407zM501 251l-4 -22h-193l-30 -153h-22l30 153h-192l4 22h192l38 192h22l-38 -192h193z" />
    <glyph glyph-name="twosuperior" unicode="&#xb2;" horiz-adv-x="277" 
d="M288 372l-4 -22h-194l3 16l150 148q39 39 50 59t11 42q0 24 -15.5 39t-45.5 15q-35 0 -77 -19l-4 20q46 21 83 21q39 0 61 -21.5t22 -54.5q0 -24 -13 -49t-56 -68l-90 -89l-41 -37v-2q39 2 53 2h107z" />
    <glyph glyph-name="threesuperior" unicode="&#xb3;" horiz-adv-x="252" 
d="M241 531v-2q43 -19 43 -68t-33.5 -82t-93.5 -33q-45 0 -79 19l10 19q34 -16 69 -16q46 0 74.5 24.5t28.5 67.5q0 57 -78 57h-31l4 22h30q38 0 64 22t26 57q0 23 -15 37t-43 14q-30 0 -63 -14l-5 21q34 15 70 15q38 0 59 -21t21 -52q0 -60 -58 -87z" />
    <glyph glyph-name="acute" unicode="&#xb4;" horiz-adv-x="470" 
d="M410 656q0 -10 -14 -20l-128 -102h-25l134 121q15 13 21 13q5 0 8.5 -4t3.5 -8z" />
    <glyph glyph-name="mu" unicode="&#xb5;" horiz-adv-x="494" 
d="M25 -227l136 707h24l-56 -288q-8 -43 -8 -75q0 -50 28 -77.5t74 -27.5q80 0 138.5 83.5t81.5 195.5l37 189h24l-65 -334q-7 -35 -7 -65q0 -42 28 -62l-11 -19q-41 24 -41 81q0 24 13 76h-2q-31 -73 -80.5 -120t-116.5 -47q-45 0 -76 22t-40 61h-1q-4 -30 -7 -44l-49 -256
h-24z" />
    <glyph glyph-name="paragraph" unicode="&#xb6;" horiz-adv-x="398" 
d="M145 0l86 446q-50 5 -77.5 32.5t-27.5 71.5q0 55 39.5 91t114.5 36h229l-4 -22h-70l-127 -655h-24l127 655h-115l-127 -655h-24z" />
    <glyph glyph-name="periodcentered" unicode="&#xb7;" horiz-adv-x="156" 
d="M106 248q0 12 6 20t14 8t14 -8t6 -20q0 -28 -20 -28t-20 28z" />
    <glyph glyph-name="cedilla" unicode="&#xb8;" horiz-adv-x="470" 
d="M374 -122q0 -44 -31.5 -69t-86.5 -25q-36 0 -77 11l6 19q37 -8 71 -8q94 0 94 72q0 35 -48 35h-66l36 91h24l-26 -69h33q37 0 54 -16.5t17 -40.5z" />
    <glyph glyph-name="onesuperior" unicode="&#xb9;" horiz-adv-x="178" 
d="M168 350h-24l58 298q1 4 -0.5 5t-5.5 -1l-57 -20l-3 17l83 38h14z" />
    <glyph glyph-name="ordmasculine" unicode="&#xba;" horiz-adv-x="221" 
d="M247 484q17 17 28.5 52.5t11.5 75.5q0 57 -49 57q-27 0 -48 -18q-44 -37 -44 -130q0 -29 13.5 -43.5t34.5 -14.5q31 0 53 21zM311 613q0 -39 -12.5 -80.5t-36.5 -64.5q-29 -27 -68 -27q-31 0 -51.5 21t-20.5 59q0 41 14 83t40 64q28 23 66 23q31 0 50 -19.5t19 -58.5z
" />
    <glyph glyph-name="guillemotright" unicode="&#xbb;" horiz-adv-x="439" 
d="M261 449l133 -211l-133 -211h-27l133 211l-133 211h27zM75 449l133 -211l-133 -211h-27l133 211l-133 211h27z" />
    <glyph glyph-name="onequarter" unicode="&#xbc;" horiz-adv-x="526" 
d="M183 339h-24l58 298q1 4 -0.5 5t-5.5 -1l-57 -20l-3 17l83 38h14zM520 105l-4 -22h-49l-16 -83h-24l16 83h-155l4 17l196 237h28l-44 -232h48zM489 306l-3 1q-20 -31 -38 -53l-123 -149h123l28 144zM503 693h26l-437 -713h-26z" />
    <glyph glyph-name="onehalf" unicode="&#xbd;" horiz-adv-x="568" 
d="M183 339h-24l58 298q1 4 -0.5 5t-5.5 -1l-57 -20l-3 17l83 38h14zM503 693h26l-437 -713h-26zM529 22l-4 -22h-194l3 16l150 148q39 39 50 59t11 42q0 24 -15.5 39t-45.5 15q-35 0 -77 -19l-4 20q46 21 83 21q39 0 61 -21.5t22 -54.5q0 -24 -13 -49t-56 -68l-90 -89
l-41 -37v-2q39 2 53 2h107z" />
    <glyph glyph-name="threequarters" unicode="&#xbe;" horiz-adv-x="566" 
d="M256 520v-2q43 -19 43 -68t-33.5 -82t-93.5 -33q-45 0 -79 19l10 19q34 -16 69 -16q46 0 74.5 24.5t28.5 67.5q0 57 -78 57h-31l4 22h30q38 0 64 22t26 57q0 23 -15 37t-43 14q-30 0 -63 -14l-5 21q34 15 70 15q38 0 59 -21t21 -52q0 -60 -58 -87zM543 693h26l-437 -713
h-26zM543 105l-4 -22h-49l-16 -83h-24l16 83h-155l4 17l196 237h28l-44 -232h48zM512 306l-3 1q-20 -31 -38 -53l-123 -149h123l28 144z" />
    <glyph glyph-name="questiondown" unicode="&#xbf;" horiz-adv-x="309" 
d="M23 -95q0 58 29 96.5t97 81.5q50 32 65 49.5t22 47.5l27 115h18l-21 -115q-7 -39 -24 -60t-75 -57q-61 -38 -87.5 -71.5t-26.5 -86.5q0 -42 26 -68.5t71 -26.5q51 0 107 26l6 -19q-58 -29 -113 -29q-54 0 -87.5 32.5t-33.5 84.5zM320 461q0 -12 -6 -20t-14 -8t-14 8
t-6 20q0 28 20 28t20 -28z" />
    <glyph glyph-name="Agrave" unicode="&#xc0;" horiz-adv-x="501" 
d="M453 0l-32 222h-261l-110 -222h-25l335 676h18l98 -676h-23zM303 509l-132 -265h247l-39 267l-14 127h-3q-31 -73 -59 -129zM242 854q0 13 13 13q8 0 20 -13l115 -121h-25l-109 102q-14 13 -14 19z" />
    <glyph glyph-name="Aacute" unicode="&#xc1;" horiz-adv-x="501" 
d="M453 0l-32 222h-261l-110 -222h-25l335 676h18l98 -676h-23zM303 509l-132 -265h247l-39 267l-14 127h-3q-31 -73 -59 -129zM518 854q0 -10 -14 -20l-128 -102h-25l134 121q15 13 21 13q5 0 8.5 -4t3.5 -8z" />
    <glyph glyph-name="Acircumflex" unicode="&#xc2;" horiz-adv-x="501" 
d="M453 0l-32 222h-261l-110 -222h-25l335 676h18l98 -676h-23zM303 509l-132 -265h247l-39 267l-14 127h-3q-31 -73 -59 -129zM391 866l106 -105l-14 -16l-96 94h-3l-128 -94l-12 18l140 103h7z" />
    <glyph glyph-name="Atilde" unicode="&#xc3;" horiz-adv-x="501" 
d="M453 0l-32 222h-261l-110 -222h-25l335 676h18l98 -676h-23zM303 509l-132 -265h247l-39 267l-14 127h-3q-31 -73 -59 -129zM501 842h22q-8 -31 -29 -54t-56 -23q-22 0 -60.5 23t-56.5 23q-41 0 -62 -53h-21q9 31 30 54t55 23q23 0 61 -23t56 -23q41 0 61 53z" />
    <glyph glyph-name="Adieresis" unicode="&#xc4;" horiz-adv-x="501" 
d="M453 0l-32 222h-261l-110 -222h-25l335 676h18l98 -676h-23zM303 509l-132 -265h247l-39 267l-14 127h-3q-31 -73 -59 -129zM280 844q0 12 6 20t14 8t14 -8t6 -20q0 -28 -20 -28t-20 28zM438 844q0 12 6 20t14 8t14 -8t6 -20q0 -28 -20 -28t-20 28z" />
    <glyph glyph-name="Aring" unicode="&#xc5;" horiz-adv-x="501" 
d="M453 0l-32 222h-261l-110 -222h-25l325 655q-30 8 -50.5 34t-20.5 58q0 39 28.5 67.5t66.5 28.5t66.5 -28.5t28.5 -67.5q0 -37 -26 -64.5t-62 -30.5l95 -652h-23zM303 509l-132 -265h247l-39 267l-14 127h-3q-31 -73 -59 -129zM445 746q0 30 -20.5 51.5t-50.5 21.5
t-50.5 -21.5t-20.5 -51.5q0 -29 20.5 -49.5t50.5 -20.5t50.5 20.5t20.5 49.5z" />
    <glyph glyph-name="AE" unicode="&#xc6;" horiz-adv-x="704" 
d="M688 22l-4 -22h-315l44 229h-210l-150 -229h-28l444 676h323l-4 -22h-268l-55 -285h196l-4 -22h-197l-63 -325h291zM394 521l-177 -270h201l78 403h-16q-46 -72 -86 -133z" />
    <glyph glyph-name="Ccedilla" unicode="&#xc7;" horiz-adv-x="488" 
d="M379 -122q0 -44 -31.5 -69t-86.5 -25q-36 0 -77 11l6 19q37 -8 71 -8q94 0 94 72q0 35 -48 35h-66l30 77q-72 12 -113.5 63.5t-41.5 137.5q0 70 14 150t48 162.5t82 123.5q75 64 187 64q65 0 115 -19l-8 -20q-46 17 -107 17q-105 0 -172 -60q-46 -40 -78 -120t-44.5 -156
t-12.5 -142q0 -88 47 -136t134 -48q66 0 140 28l6 -21q-68 -29 -146 -29q-18 0 -27 1l-19 -51h33q37 0 54 -16.5t17 -40.5z" />
    <glyph glyph-name="Egrave" unicode="&#xc8;" horiz-adv-x="435" 
d="M419 22l-4 -22h-325l131 676h302l-4 -22h-278l-55 -285h206l-4 -22h-207l-63 -325h301zM262 854q0 13 13 13q8 0 20 -13l115 -121h-25l-109 102q-14 13 -14 19z" />
    <glyph glyph-name="Eacute" unicode="&#xc9;" horiz-adv-x="435" 
d="M419 22l-4 -22h-325l131 676h302l-4 -22h-278l-55 -285h206l-4 -22h-207l-63 -325h301zM510 856q0 -10 -14 -20l-128 -102h-25l134 121q15 13 21 13q5 0 8.5 -4t3.5 -8z" />
    <glyph glyph-name="Ecircumflex" unicode="&#xca;" horiz-adv-x="435" 
d="M419 22l-4 -22h-325l131 676h302l-4 -22h-278l-55 -285h206l-4 -22h-207l-63 -325h301zM395 865l106 -105l-14 -16l-96 94h-3l-128 -94l-12 18l140 103h7z" />
    <glyph glyph-name="Edieresis" unicode="&#xcb;" horiz-adv-x="435" 
d="M419 22l-4 -22h-325l131 676h302l-4 -22h-278l-55 -285h206l-4 -22h-207l-63 -325h301zM291 844q0 12 6 20t14 8t14 -8t6 -20q0 -28 -20 -28t-20 28zM449 844q0 12 6 20t14 8t14 -8t6 -20q0 -28 -20 -28t-20 28z" />
    <glyph glyph-name="Igrave" unicode="&#xcc;" horiz-adv-x="205" 
d="M114 854q0 5 4.5 9t9.5 4q8 0 20 -13l119 -125h-26l-112 105q-15 13 -15 20zM246 676l-132 -676h-24l132 676h24z" />
    <glyph glyph-name="Iacute" unicode="&#xcd;" horiz-adv-x="205" 
d="M391 855q0 -9 -14 -20l-128 -102h-25l134 121q15 13 21 13q5 0 8.5 -4t3.5 -8zM246 676l-132 -676h-24l132 676h24z" />
    <glyph glyph-name="Icircumflex" unicode="&#xce;" horiz-adv-x="205" 
d="M263 863l106 -105l-14 -16l-96 94h-3l-128 -94l-12 18l140 103h7zM246 676l-132 -676h-24l132 676h24z" />
    <glyph glyph-name="Idieresis" unicode="&#xcf;" horiz-adv-x="205" 
d="M177 844q0 12 6 20t14 8t14 -8t6 -20q0 -28 -20 -28t-20 28zM295 844q0 12 6 20t14 8t14 -8t6 -20q0 -28 -20 -28t-20 28zM246 676l-132 -676h-24l132 676h24z" />
    <glyph glyph-name="Eth" unicode="&#xd0;" horiz-adv-x="565" 
d="M576 478q0 -114 -36.5 -238.5t-100.5 -180.5q-67 -59 -176 -59h-173q33 174 64 328h-75l4 22h75q7 36 20 101.5t24 120.5t20 104h147q98 0 152.5 -48.5t54.5 -149.5zM424 77q61 54 94.5 175.5t33.5 225.5q0 176 -188 176h-122l-59 -304h149l-4 -22h-150l-59 -306h149
q94 0 156 55z" />
    <glyph glyph-name="Ntilde" unicode="&#xd1;" horiz-adv-x="601" 
d="M642 676l-131 -676h-23l-225 565l-25 72h-2q-10 -58 -18 -101l-104 -536h-24l131 676h23l218 -546l32 -92h2q10 60 18 101l104 537h24zM578 842h22q-8 -31 -29 -54t-56 -23q-22 0 -60.5 23t-56.5 23q-41 0 -62 -53h-21q9 31 30 54t55 23q23 0 61 -23t56 -23q41 0 61 53z
" />
    <glyph glyph-name="Ograve" unicode="&#xd2;" horiz-adv-x="618" 
d="M329 853q0 13 13 13q8 0 20 -13l115 -121h-25l-109 102q-14 13 -14 19zM640 486q0 -121 -39 -249.5t-111 -190.5q-71 -61 -183 -61q-89 0 -139 52t-50 153q0 111 42.5 246.5t107.5 191.5q72 63 184 63q92 0 140 -51.5t48 -153.5zM616 486q0 183 -166 183q-100 0 -167 -58
q-60 -52 -100.5 -183.5t-40.5 -237.5q0 -85 40.5 -134t124.5 -49q103 0 165 54q64 55 104 174t40 251z" />
    <glyph glyph-name="Oacute" unicode="&#xd3;" horiz-adv-x="618" 
d="M607 854q0 -10 -14 -20l-128 -102h-25l134 121q15 13 21 13q5 0 8.5 -4t3.5 -8zM640 486q0 -121 -39 -249.5t-111 -190.5q-71 -61 -183 -61q-89 0 -139 52t-50 153q0 111 42.5 246.5t107.5 191.5q72 63 184 63q92 0 140 -51.5t48 -153.5zM616 486q0 183 -166 183
q-100 0 -167 -58q-60 -52 -100.5 -183.5t-40.5 -237.5q0 -85 40.5 -134t124.5 -49q103 0 165 54q64 55 104 174t40 251z" />
    <glyph glyph-name="Ocircumflex" unicode="&#xd4;" horiz-adv-x="618" 
d="M489 870l106 -105l-14 -16l-96 94h-3l-128 -94l-12 18l140 103h7zM640 486q0 -121 -39 -249.5t-111 -190.5q-71 -61 -183 -61q-89 0 -139 52t-50 153q0 111 42.5 246.5t107.5 191.5q72 63 184 63q92 0 140 -51.5t48 -153.5zM616 486q0 183 -166 183q-100 0 -167 -58
q-60 -52 -100.5 -183.5t-40.5 -237.5q0 -85 40.5 -134t124.5 -49q103 0 165 54q64 55 104 174t40 251z" />
    <glyph glyph-name="Otilde" unicode="&#xd5;" horiz-adv-x="618" 
d="M596 842h22q-8 -31 -29 -54t-56 -23q-22 0 -60.5 23t-56.5 23q-41 0 -62 -53h-21q9 31 30 54t55 23q23 0 61 -23t56 -23q41 0 61 53zM640 486q0 -121 -39 -249.5t-111 -190.5q-71 -61 -183 -61q-89 0 -139 52t-50 153q0 111 42.5 246.5t107.5 191.5q72 63 184 63
q92 0 140 -51.5t48 -153.5zM616 486q0 183 -166 183q-100 0 -167 -58q-60 -52 -100.5 -183.5t-40.5 -237.5q0 -85 40.5 -134t124.5 -49q103 0 165 54q64 55 104 174t40 251z" />
    <glyph glyph-name="Odieresis" unicode="&#xd6;" horiz-adv-x="618" 
d="M380 844q0 12 6 20t14 8t14 -8t6 -20q0 -28 -20 -28t-20 28zM538 844q0 12 6 20t14 8t14 -8t6 -20q0 -28 -20 -28t-20 28zM640 486q0 -121 -39 -249.5t-111 -190.5q-71 -61 -183 -61q-89 0 -139 52t-50 153q0 111 42.5 246.5t107.5 191.5q72 63 184 63q92 0 140 -51.5
t48 -153.5zM616 486q0 183 -166 183q-100 0 -167 -58q-60 -52 -100.5 -183.5t-40.5 -237.5q0 -85 40.5 -134t124.5 -49q103 0 165 54q64 55 104 174t40 251z" />
    <glyph glyph-name="multiply" unicode="&#xd7;" horiz-adv-x="499" 
d="M473 400l13 -17l-174 -146l121 -148l-17 -14l-121 147l-177 -147l-14 17l177 147l-121 147l17 14l120 -147z" />
    <glyph glyph-name="Oslash" unicode="&#xd8;" horiz-adv-x="628" 
d="M87 -6l59 73q-28 48 -28 123q0 111 42.5 246.5t107.5 191.5q72 63 184 63q101 0 148 -62l55 67l17 -14l-59 -73q27 -51 27 -123q0 -121 -39 -249.5t-111 -190.5q-71 -61 -183 -61q-99 0 -148 63l-55 -68zM616 486q0 63 -20 103l-422 -523q41 -59 133 -59q103 0 165 54
q64 55 104 174t40 251zM142 190q0 -63 20 -103l423 522q-43 60 -135 60q-100 0 -167 -58q-60 -52 -100.5 -183.5t-40.5 -237.5z" />
    <glyph glyph-name="Ugrave" unicode="&#xd9;" horiz-adv-x="582" 
d="M633 676l-89 -459q-45 -232 -255 -232q-82 0 -129 43.5t-47 118.5q0 36 10 90l85 439h24l-86 -445q-9 -46 -9 -84q0 -68 41.5 -104t114.5 -36q96 0 152 55.5t75 154.5l89 459h24zM303 854q0 13 13 13q8 0 20 -13l115 -121h-25l-109 102q-14 13 -14 19z" />
    <glyph glyph-name="Uacute" unicode="&#xda;" horiz-adv-x="582" 
d="M633 676l-89 -459q-45 -232 -255 -232q-82 0 -129 43.5t-47 118.5q0 36 10 90l85 439h24l-86 -445q-9 -46 -9 -84q0 -68 41.5 -104t114.5 -36q96 0 152 55.5t75 154.5l89 459h24zM575 855q0 -9 -14 -20l-128 -102h-25l134 121q15 13 21 13q5 0 8.5 -4t3.5 -8z" />
    <glyph glyph-name="Ucircumflex" unicode="&#xdb;" horiz-adv-x="582" 
d="M633 676l-89 -459q-45 -232 -255 -232q-82 0 -129 43.5t-47 118.5q0 36 10 90l85 439h24l-86 -445q-9 -46 -9 -84q0 -68 41.5 -104t114.5 -36q96 0 152 55.5t75 154.5l89 459h24zM457 870l106 -105l-14 -16l-96 94h-3l-128 -94l-12 18l140 103h7z" />
    <glyph glyph-name="Udieresis" unicode="&#xdc;" horiz-adv-x="582" 
d="M633 676l-89 -459q-45 -232 -255 -232q-82 0 -129 43.5t-47 118.5q0 36 10 90l85 439h24l-86 -445q-9 -46 -9 -84q0 -68 41.5 -104t114.5 -36q96 0 152 55.5t75 154.5l89 459h24zM345 844q0 12 6 20t14 8t14 -8t6 -20q0 -28 -20 -28t-20 28zM503 844q0 12 6 20t14 8
t14 -8t6 -20q0 -28 -20 -28t-20 28z" />
    <glyph glyph-name="Yacute" unicode="&#xdd;" horiz-adv-x="476" 
d="M302 296h2q28 46 70 109l181 271h27l-271 -404l-53 -272h-24l53 273l-131 403h25l86 -267zM528 857q0 -9 -14 -20l-128 -102h-25l134 121q15 13 21 13q5 0 8.5 -4t3.5 -8z" />
    <glyph glyph-name="Thorn" unicode="&#xde;" horiz-adv-x="453" 
d="M475 379q0 -118 -74 -183q-49 -42 -134 -42h-123l-30 -154h-24l131 676h24l-28 -145h117q64 0 102.5 -38.5t38.5 -113.5zM385 212q66 57 66 167q0 130 -121 130h-117l-65 -333h119q76 0 118 36z" />
    <glyph glyph-name="germandbls" unicode="&#xdf;" horiz-adv-x="493" 
d="M252 -10l5 23q100 12 151.5 72t51.5 163q0 56 -32 88.5t-97 32.5h-59l4 22h52q58 0 105 49.5t47 127.5q0 121 -109 121q-137 0 -177 -201l-95 -488h-24l95 488q43 223 201 223q64 0 98.5 -38t34.5 -104q0 -63 -29 -112t-86 -73v-1q42 -12 68.5 -48t26.5 -87
q0 -112 -58.5 -179t-173.5 -79z" />
    <glyph glyph-name="agrave" unicode="&#xe0;" horiz-adv-x="505" 
d="M499 467l-62 -321q-7 -35 -7 -65q0 -41 28 -62l-11 -19q-41 23 -41 81q0 21 13 76h-2q-71 -167 -197 -167q-61 0 -96 40t-35 112q0 69 29 153t73 128q67 67 174 67q62 0 134 -23zM441 291l31 159q-50 18 -108 18q-99 0 -158 -62q-39 -40 -66 -116.5t-27 -147.5
q0 -65 29.5 -97.5t77.5 -32.5q78 0 138 81t83 198zM231 655q0 13 13 13q8 0 20 -13l115 -121h-25l-109 102q-14 13 -14 19z" />
    <glyph glyph-name="aacute" unicode="&#xe1;" horiz-adv-x="505" 
d="M499 467l-62 -321q-7 -35 -7 -65q0 -41 28 -62l-11 -19q-41 23 -41 81q0 21 13 76h-2q-71 -167 -197 -167q-61 0 -96 40t-35 112q0 69 29 153t73 128q67 67 174 67q62 0 134 -23zM441 291l31 159q-50 18 -108 18q-99 0 -158 -62q-39 -40 -66 -116.5t-27 -147.5
q0 -65 29.5 -97.5t77.5 -32.5q78 0 138 81t83 198zM510 656q0 -10 -14 -20l-128 -102h-25l134 121q15 13 21 13q5 0 8.5 -4t3.5 -8z" />
    <glyph glyph-name="acircumflex" unicode="&#xe2;" horiz-adv-x="505" 
d="M499 467l-62 -321q-7 -35 -7 -65q0 -41 28 -62l-11 -19q-41 23 -41 81q0 21 13 76h-2q-71 -167 -197 -167q-61 0 -96 40t-35 112q0 69 29 153t73 128q67 67 174 67q62 0 134 -23zM441 291l31 159q-50 18 -108 18q-99 0 -158 -62q-39 -40 -66 -116.5t-27 -147.5
q0 -65 29.5 -97.5t77.5 -32.5q78 0 138 81t83 198zM388 667l106 -105l-14 -16l-96 94h-3l-128 -94l-12 18l140 103h7z" />
    <glyph glyph-name="atilde" unicode="&#xe3;" horiz-adv-x="505" 
d="M499 467l-62 -321q-7 -35 -7 -65q0 -41 28 -62l-11 -19q-41 23 -41 81q0 21 13 76h-2q-71 -167 -197 -167q-61 0 -96 40t-35 112q0 69 29 153t73 128q67 67 174 67q62 0 134 -23zM441 291l31 159q-50 18 -108 18q-99 0 -158 -62q-39 -40 -66 -116.5t-27 -147.5
q0 -65 29.5 -97.5t77.5 -32.5q78 0 138 81t83 198zM484 644h22q-8 -31 -29 -54t-56 -23q-22 0 -60.5 23t-56.5 23q-41 0 -62 -53h-21q9 31 30 54t55 23q23 0 61 -23t56 -23q41 0 61 53z" />
    <glyph glyph-name="adieresis" unicode="&#xe4;" horiz-adv-x="505" 
d="M499 467l-62 -321q-7 -35 -7 -65q0 -41 28 -62l-11 -19q-41 23 -41 81q0 21 13 76h-2q-71 -167 -197 -167q-61 0 -96 40t-35 112q0 69 29 153t73 128q67 67 174 67q62 0 134 -23zM441 291l31 159q-50 18 -108 18q-99 0 -158 -62q-39 -40 -66 -116.5t-27 -147.5
q0 -65 29.5 -97.5t77.5 -32.5q78 0 138 81t83 198zM271 658q0 12 6 20t14 8t14 -8t6 -20q0 -28 -20 -28t-20 28zM429 658q0 12 6 20t14 8t14 -8t6 -20q0 -28 -20 -28t-20 28z" />
    <glyph glyph-name="aring" unicode="&#xe5;" horiz-adv-x="505" 
d="M499 467l-62 -321q-7 -35 -7 -65q0 -41 28 -62l-11 -19q-41 23 -41 81q0 21 13 76h-2q-71 -167 -197 -167q-61 0 -96 40t-35 112q0 69 29 153t73 128q67 67 174 67q62 0 134 -23zM441 291l31 159q-50 18 -108 18q-99 0 -158 -62q-39 -40 -66 -116.5t-27 -147.5
q0 -65 29.5 -97.5t77.5 -32.5q78 0 138 81t83 198zM443 644q0 30 -20.5 51.5t-50.5 21.5t-50.5 -21.5t-20.5 -51.5q0 -29 20.5 -49.5t50.5 -20.5t50.5 20.5t20.5 49.5zM467 645q0 -38 -28.5 -66.5t-66.5 -28.5t-66.5 28.5t-28.5 66.5q0 39 28.5 67.5t66.5 28.5t66.5 -28.5
t28.5 -67.5z" />
    <glyph glyph-name="ae" unicode="&#xe6;" horiz-adv-x="775" 
d="M636 261h-184q-16 -65 -16 -115q0 -62 33 -98t93 -36q73 0 165 55l8 -19q-83 -58 -173 -58q-59 0 -97.5 29.5t-48.5 83.5h-3q-102 -113 -209 -113q-62 0 -95.5 32.5t-33.5 81.5q0 70 45.5 112t123.5 57q50 10 188 10l11 55q12 61 -15.5 95.5t-97.5 34.5q-73 0 -156 -35
l-7 19q86 38 167 38q67 0 102.5 -33t30.5 -89h2q17 46 48 74q54 48 137 48q63 0 98 -28t35 -74q0 -57 -40 -92t-111 -35zM412 146q0 48 16 115q-128 0 -182 -10q-147 -30 -147 -147q0 -40 26.5 -66t78.5 -26q60 0 108.5 31t99.5 90v13zM531 424q-44 -40 -73 -141h178
q61 0 94 28.5t33 76.5q0 37 -29 58.5t-80 21.5q-74 0 -123 -44z" />
    <glyph glyph-name="ccedilla" unicode="&#xe7;" horiz-adv-x="380" 
d="M311 -122q0 -44 -31.5 -69t-86.5 -25q-36 0 -77 11l6 19q37 -8 71 -8q94 0 94 72q0 35 -48 35h-66l31 80q-54 8 -84.5 45.5t-30.5 104.5q0 75 28 167t77 135q51 45 128 45q50 0 91 -16l-8 -20q-37 14 -83 14q-70 0 -113 -40q-43 -39 -69.5 -124.5t-26.5 -160.5
q0 -64 33.5 -97.5t90.5 -33.5q53 0 111 26l6 -19q-52 -29 -117 -29h-9l-21 -55h33q37 0 54 -16.5t17 -40.5z" />
    <glyph glyph-name="egrave" unicode="&#xe8;" horiz-adv-x="457" 
d="M318 258h-189q-16 -64 -16 -112q0 -62 34 -98t94 -36q76 0 168 55l8 -19q-83 -58 -176 -58q-70 0 -111 41t-41 115q0 57 26.5 154t78.5 142q54 48 139 48q63 0 99.5 -28.5t36.5 -73.5q0 -57 -40 -93.5t-111 -36.5zM208 424q-45 -39 -74 -144h184q61 0 94 29.5t33 78.5
q0 37 -30.5 58.5t-81.5 21.5q-76 0 -125 -44zM219 655q0 13 13 13q8 0 20 -13l115 -121h-25l-109 102q-14 13 -14 19z" />
    <glyph glyph-name="eacute" unicode="&#xe9;" horiz-adv-x="457" 
d="M318 258h-189q-16 -64 -16 -112q0 -62 34 -98t94 -36q76 0 168 55l8 -19q-83 -58 -176 -58q-70 0 -111 41t-41 115q0 57 26.5 154t78.5 142q54 48 139 48q63 0 99.5 -28.5t36.5 -73.5q0 -57 -40 -93.5t-111 -36.5zM208 424q-45 -39 -74 -144h184q61 0 94 29.5t33 78.5
q0 37 -30.5 58.5t-81.5 21.5q-76 0 -125 -44zM491 656q0 -10 -14 -20l-128 -102h-25l134 121q15 13 21 13q5 0 8.5 -4t3.5 -8z" />
    <glyph glyph-name="ecircumflex" unicode="&#xea;" horiz-adv-x="457" 
d="M318 258h-189q-16 -64 -16 -112q0 -62 34 -98t94 -36q76 0 168 55l8 -19q-83 -58 -176 -58q-70 0 -111 41t-41 115q0 57 26.5 154t78.5 142q54 48 139 48q63 0 99.5 -28.5t36.5 -73.5q0 -57 -40 -93.5t-111 -36.5zM208 424q-45 -39 -74 -144h184q61 0 94 29.5t33 78.5
q0 37 -30.5 58.5t-81.5 21.5q-76 0 -125 -44zM364 665l106 -105l-14 -16l-96 94h-3l-128 -94l-12 18l140 103h7z" />
    <glyph glyph-name="edieresis" unicode="&#xeb;" horiz-adv-x="457" 
d="M318 258h-189q-16 -64 -16 -112q0 -62 34 -98t94 -36q76 0 168 55l8 -19q-83 -58 -176 -58q-70 0 -111 41t-41 115q0 57 26.5 154t78.5 142q54 48 139 48q63 0 99.5 -28.5t36.5 -73.5q0 -57 -40 -93.5t-111 -36.5zM208 424q-45 -39 -74 -144h184q61 0 94 29.5t33 78.5
q0 37 -30.5 58.5t-81.5 21.5q-76 0 -125 -44zM237 658q0 12 6 20t14 8t14 -8t6 -20q0 -28 -20 -28t-20 28zM395 658q0 12 6 20t14 8t14 -8t6 -20q0 -28 -20 -28t-20 28z" />
    <glyph glyph-name="igrave" unicode="&#xec;" horiz-adv-x="173" 
d="M61 655q0 13 13 13q8 0 20 -13l115 -121h-25l-109 102q-14 13 -14 19zM193 480l-94 -480h-24l94 480h24z" />
    <glyph glyph-name="iacute" unicode="&#xed;" horiz-adv-x="173" 
d="M340 656q0 -10 -14 -20l-128 -102h-25l134 121q15 13 21 13q5 0 8.5 -4t3.5 -8zM193 480l-94 -480h-24l94 480h24z" />
    <glyph glyph-name="icircumflex" unicode="&#xee;" horiz-adv-x="173" 
d="M210 667l106 -105l-14 -16l-96 94h-3l-128 -94l-12 18l140 103h7zM193 480l-94 -480h-24l94 480h24z" />
    <glyph glyph-name="idieresis" unicode="&#xef;" horiz-adv-x="173" 
d="M114 658q0 12 6 20t14 8t14 -8t6 -20q0 -28 -20 -28t-20 28zM232 658q0 12 6 20t14 8t14 -8t6 -20q0 -28 -20 -28t-20 28zM193 480l-94 -480h-24l94 480h24z" />
    <glyph glyph-name="eth" unicode="&#xf0;" horiz-adv-x="454" 
d="M222 550l-13 18l131 82q-41 32 -108 52l8 21q75 -23 120 -60l95 60l12 -18l-90 -57q51 -49 68.5 -122.5t17.5 -185.5q0 -78 -25 -164t-73 -134q-52 -52 -133 -52q-68 0 -105.5 41t-37.5 109q0 82 27.5 172t78.5 133q55 45 131 45q36 0 67 -16.5t44 -43.5l1 1q-1 14 -4 34
q-14 112 -77 171zM439 340q0 62 -31.5 95t-81.5 33q-68 0 -117 -41q-46 -38 -71 -124.5t-25 -162.5q0 -59 31 -93.5t88 -34.5q70 0 117 47q43 43 66.5 126t23.5 155z" />
    <glyph glyph-name="ntilde" unicode="&#xf1;" horiz-adv-x="485" 
d="M482 329l-64 -329h-24l64 328q5 25 5 49q0 43 -27 66.5t-70 23.5q-82 0 -141.5 -62.5t-72.5 -132.5l-53 -272h-24l93 480h19l-11 -84l-7 -30l2 -1q11 24 31 46q68 78 165 78q52 0 86 -29.5t34 -82.5q0 -23 -5 -48zM490 644h22q-8 -31 -29 -54t-56 -23q-22 0 -60.5 23
t-56.5 23q-41 0 -62 -53h-21q9 31 30 54t55 23q23 0 61 -23t56 -23q41 0 61 53z" />
    <glyph glyph-name="ograve" unicode="&#xf2;" horiz-adv-x="460" 
d="M463 340q0 -78 -25 -164t-73 -134q-52 -52 -133 -52q-68 0 -105.5 41t-37.5 109q0 82 27.5 172t78.5 133q55 45 131 45q64 0 100.5 -40t36.5 -110zM439 340q0 62 -31 95t-82 33q-68 0 -117 -41q-46 -38 -71 -124.5t-25 -162.5q0 -59 31 -93.5t88 -34.5q70 0 117 47
q43 43 66.5 126t23.5 155zM198 655q0 13 13 13q8 0 20 -13l115 -121h-25l-109 102q-14 13 -14 19z" />
    <glyph glyph-name="oacute" unicode="&#xf3;" horiz-adv-x="460" 
d="M463 340q0 -78 -25 -164t-73 -134q-52 -52 -133 -52q-68 0 -105.5 41t-37.5 109q0 82 27.5 172t78.5 133q55 45 131 45q64 0 100.5 -40t36.5 -110zM439 340q0 62 -31 95t-82 33q-68 0 -117 -41q-46 -38 -71 -124.5t-25 -162.5q0 -59 31 -93.5t88 -34.5q70 0 117 47
q43 43 66.5 126t23.5 155zM478 656q0 -10 -14 -20l-128 -102h-25l134 121q15 13 21 13q5 0 8.5 -4t3.5 -8z" />
    <glyph glyph-name="ocircumflex" unicode="&#xf4;" horiz-adv-x="460" 
d="M463 340q0 -78 -25 -164t-73 -134q-52 -52 -133 -52q-68 0 -105.5 41t-37.5 109q0 82 27.5 172t78.5 133q55 45 131 45q64 0 100.5 -40t36.5 -110zM439 340q0 62 -31 95t-82 33q-68 0 -117 -41q-46 -38 -71 -124.5t-25 -162.5q0 -59 31 -93.5t88 -34.5q70 0 117 47
q43 43 66.5 126t23.5 155zM356 667l106 -105l-14 -16l-96 94h-3l-128 -94l-12 18l140 103h7z" />
    <glyph glyph-name="otilde" unicode="&#xf5;" horiz-adv-x="460" 
d="M463 340q0 -78 -25 -164t-73 -134q-52 -52 -133 -52q-68 0 -105.5 41t-37.5 109q0 82 27.5 172t78.5 133q55 45 131 45q64 0 100.5 -40t36.5 -110zM439 340q0 62 -31 95t-82 33q-68 0 -117 -41q-46 -38 -71 -124.5t-25 -162.5q0 -59 31 -93.5t88 -34.5q70 0 117 47
q43 43 66.5 126t23.5 155zM453 644h22q-8 -31 -29 -54t-56 -23q-22 0 -60.5 23t-56.5 23q-41 0 -62 -53h-21q9 31 30 54t55 23q23 0 61 -23t56 -23q41 0 61 53z" />
    <glyph glyph-name="odieresis" unicode="&#xf6;" horiz-adv-x="460" 
d="M463 340q0 -78 -25 -164t-73 -134q-52 -52 -133 -52q-68 0 -105.5 41t-37.5 109q0 82 27.5 172t78.5 133q55 45 131 45q64 0 100.5 -40t36.5 -110zM439 340q0 62 -31 95t-82 33q-68 0 -117 -41q-46 -38 -71 -124.5t-25 -162.5q0 -59 31 -93.5t88 -34.5q70 0 117 47
q43 43 66.5 126t23.5 155zM237 658q0 12 6 20t14 8t14 -8t6 -20q0 -28 -20 -28t-20 28zM395 658q0 12 6 20t14 8t14 -8t6 -20q0 -28 -20 -28t-20 28z" />
    <glyph glyph-name="divide" unicode="&#xf7;" horiz-adv-x="492" 
d="M500 251l-5 -22h-410l5 22h410zM242 86q0 12 6 20t14 8t14 -8t6 -20q0 -28 -20 -28t-20 28zM301 391q0 12 6 20t14 8t14 -8t6 -20q0 -28 -20 -28t-20 28z" />
    <glyph glyph-name="oslash" unicode="&#xf8;" horiz-adv-x="460" 
d="M61 -2l48 58q-20 35 -20 84q0 82 27.5 172t78.5 133q55 45 131 45q66 0 104 -44l44 54l16 -14l-48 -58q21 -36 21 -88q0 -78 -25 -164t-73 -134q-52 -52 -133 -52q-73 0 -111 48l-44 -54zM439 340q0 38 -13 67h-1l-289 -351q31 -44 96 -44q70 0 117 47q43 43 66.5 126
t23.5 155zM113 140q0 -34 12 -63h1l288 350q-30 41 -88 41q-68 0 -117 -41q-46 -38 -71 -124.5t-25 -162.5z" />
    <glyph glyph-name="ugrave" unicode="&#xf9;" horiz-adv-x="491" 
d="M98 196l55 284h24l-56 -288q-8 -43 -8 -75q0 -50 28 -77.5t74 -27.5q80 0 138.5 83.5t81.5 195.5l37 189h24l-65 -334q-7 -35 -7 -65q0 -42 28 -62l-11 -19q-41 24 -41 81q0 24 13 76h-2q-31 -73 -80.5 -120t-116.5 -47q-55 0 -90 33.5t-35 93.5q0 32 9 79zM200 655
q0 13 13 13q8 0 20 -13l115 -121h-25l-109 102q-14 13 -14 19z" />
    <glyph glyph-name="uacute" unicode="&#xfa;" horiz-adv-x="491" 
d="M98 196l55 284h24l-56 -288q-8 -43 -8 -75q0 -50 28 -77.5t74 -27.5q80 0 138.5 83.5t81.5 195.5l37 189h24l-65 -334q-7 -35 -7 -65q0 -42 28 -62l-11 -19q-41 24 -41 81q0 24 13 76h-2q-31 -73 -80.5 -120t-116.5 -47q-55 0 -90 33.5t-35 93.5q0 32 9 79zM476 656
q0 -10 -14 -20l-128 -102h-25l134 121q15 13 21 13q5 0 8.5 -4t3.5 -8z" />
    <glyph glyph-name="ucircumflex" unicode="&#xfb;" horiz-adv-x="491" 
d="M98 196l55 284h24l-56 -288q-8 -43 -8 -75q0 -50 28 -77.5t74 -27.5q80 0 138.5 83.5t81.5 195.5l37 189h24l-65 -334q-7 -35 -7 -65q0 -42 28 -62l-11 -19q-41 24 -41 81q0 24 13 76h-2q-31 -73 -80.5 -120t-116.5 -47q-55 0 -90 33.5t-35 93.5q0 32 9 79zM357 667
l106 -105l-14 -16l-96 94h-3l-128 -94l-12 18l140 103h7z" />
    <glyph glyph-name="udieresis" unicode="&#xfc;" horiz-adv-x="491" 
d="M98 196l55 284h24l-56 -288q-8 -43 -8 -75q0 -50 28 -77.5t74 -27.5q80 0 138.5 83.5t81.5 195.5l37 189h24l-65 -334q-7 -35 -7 -65q0 -42 28 -62l-11 -19q-41 24 -41 81q0 24 13 76h-2q-31 -73 -80.5 -120t-116.5 -47q-55 0 -90 33.5t-35 93.5q0 32 9 79zM247 658
q0 12 6 20t14 8t14 -8t6 -20q0 -28 -20 -28t-20 28zM405 658q0 12 6 20t14 8t14 -8t6 -20q0 -28 -20 -28t-20 28z" />
    <glyph glyph-name="yacute" unicode="&#xfd;" horiz-adv-x="405" 
d="M266 71l181 409h25l-263 -593q-32 -72 -65 -97.5t-90 -25.5h-38l5 22h36q46 0 74 22.5t56 84.5l41 92l-117 495h24l96 -409l11 -55h2q12 32 22 55zM461 656q0 -10 -14 -20l-128 -102h-25l134 121q15 13 21 13q5 0 8.5 -4t3.5 -8z" />
    <glyph glyph-name="thorn" unicode="&#xfe;" horiz-adv-x="479" 
d="M256 -10q-42 0 -82 18.5t-64 46.5l-55 -282h-24l179 923h24l-58 -299l-5 -24h2q9 19 25 39q61 78 149 78q62 0 98.5 -40t36.5 -110q0 -87 -24.5 -168t-70.5 -127q-55 -55 -131 -55zM347 468q-70 0 -124.5 -58t-68.5 -128l-39 -202q22 -28 60.5 -48t80.5 -20q67 0 114 49
q43 45 65.5 123t22.5 156q0 61 -29.5 94.5t-81.5 33.5z" />
    <glyph glyph-name="ydieresis" unicode="&#xff;" horiz-adv-x="405" 
d="M266 71l181 409h25l-263 -593q-32 -72 -65 -97.5t-90 -25.5h-38l5 22h36q46 0 74 22.5t56 84.5l41 92l-117 495h24l96 -409l11 -55h2q12 32 22 55zM210 658q0 12 6 20t14 8t14 -8t6 -20q0 -28 -20 -28t-20 28zM368 658q0 12 6 20t14 8t14 -8t6 -20q0 -28 -20 -28t-20 28z
" />
    <glyph glyph-name="Amacron" unicode="&#x100;" horiz-adv-x="501" 
d="M453 0l-32 222h-261l-110 -222h-25l335 676h18l98 -676h-23zM303 509l-132 -265h247l-39 267l-14 127h-3q-31 -73 -59 -129zM496 816l-4 -22h-226l4 22h226z" />
    <glyph glyph-name="amacron" unicode="&#x101;" horiz-adv-x="505" 
d="M499 467l-62 -321q-7 -35 -7 -65q0 -41 28 -62l-11 -19q-41 23 -41 81q0 21 13 76h-2q-71 -167 -197 -167q-61 0 -96 40t-35 112q0 69 29 153t73 128q67 67 174 67q62 0 134 -23zM441 291l31 159q-50 18 -108 18q-99 0 -158 -62q-39 -40 -66 -116.5t-27 -147.5
q0 -65 29.5 -97.5t77.5 -32.5q78 0 138 81t83 198zM486 620l-4 -22h-226l4 22h226z" />
    <glyph glyph-name="Abreve" unicode="&#x102;" horiz-adv-x="501" 
d="M453 0l-32 222h-261l-110 -222h-25l335 676h18l98 -676h-23zM303 509l-132 -265h247l-39 267l-14 127h-3q-31 -73 -59 -129zM487 867h24q-9 -46 -45 -78t-91 -32q-53 0 -79.5 32t-18.5 78h24q-5 -36 13 -61t62 -25q45 0 73.5 25t37.5 61z" />
    <glyph glyph-name="abreve" unicode="&#x103;" horiz-adv-x="505" 
d="M499 467l-62 -321q-7 -35 -7 -65q0 -41 28 -62l-11 -19q-41 23 -41 81q0 21 13 76h-2q-71 -167 -197 -167q-61 0 -96 40t-35 112q0 69 29 153t73 128q67 67 174 67q62 0 134 -23zM441 291l31 159q-50 18 -108 18q-99 0 -158 -62q-39 -40 -66 -116.5t-27 -147.5
q0 -65 29.5 -97.5t77.5 -32.5q78 0 138 81t83 198zM467 671h24q-9 -46 -45 -78t-91 -32q-53 0 -79.5 32t-18.5 78h24q-5 -36 13 -61t62 -25q45 0 73.5 25t37.5 61z" />
    <glyph glyph-name="Aogonek" unicode="&#x104;" horiz-adv-x="501" 
d="M490 -185l1 -20q-31 -11 -64 -11q-39 0 -61 19.5t-22 51.5q0 70 109 148l-32 219h-261l-110 -222h-25l335 676h18l98 -676q-108 -81 -108 -143q0 -22 15.5 -36.5t47.5 -14.5q13 0 27.5 2t23.5 4zM303 509l-132 -265h247l-39 267l-14 127h-3q-31 -73 -59 -129z" />
    <glyph glyph-name="aogonek" unicode="&#x105;" horiz-adv-x="505" 
d="M459 -185l1 -20q-31 -11 -64 -11q-39 0 -61 19.5t-22 51.5q0 43 29.5 78t79.5 71l10 7q-26 25 -26 70q0 21 13 76h-2q-71 -167 -197 -167q-61 0 -96 40t-35 112q0 69 29 153t73 128q67 67 174 67q62 0 134 -23l-62 -321q-7 -35 -7 -65q0 -41 28 -62l-11 -19
q-110 -78 -110 -143q0 -22 15.5 -36.5t47.5 -14.5q13 0 27.5 2t22.5 4zM441 291l31 159q-50 18 -108 18q-99 0 -158 -62q-39 -40 -66 -116.5t-27 -147.5q0 -65 29.5 -97.5t77.5 -32.5q78 0 138 81t83 198z" />
    <glyph glyph-name="Cacute" unicode="&#x106;" horiz-adv-x="488" 
d="M461 35l6 -21q-68 -29 -146 -29q-93 0 -149 53t-56 153q0 70 14 150t48 162.5t82 123.5q75 64 187 64q65 0 115 -19l-8 -20q-46 17 -107 17q-105 0 -172 -60q-46 -40 -78 -120t-44.5 -156t-12.5 -142q0 -88 47 -136t134 -48q66 0 140 28zM585 856q0 -10 -14 -20
l-128 -102h-25l134 121q15 13 21 13q5 0 8.5 -4t3.5 -8z" />
    <glyph glyph-name="cacute" unicode="&#x107;" horiz-adv-x="380" 
d="M348 38l6 -19q-52 -29 -117 -29q-69 0 -108.5 38.5t-39.5 114.5q0 75 28 167t77 135q51 45 128 45q50 0 91 -16l-8 -20q-37 14 -83 14q-70 0 -113 -40q-43 -39 -69.5 -124.5t-26.5 -160.5q0 -64 33.5 -97.5t90.5 -33.5q53 0 111 26zM457 656q0 -10 -14 -20l-128 -102h-25
l134 121q15 13 21 13q5 0 8.5 -4t3.5 -8z" />
    <glyph glyph-name="Ccircumflex" unicode="&#x108;" horiz-adv-x="488" 
d="M461 35l6 -21q-68 -29 -146 -29q-93 0 -149 53t-56 153q0 70 14 150t48 162.5t82 123.5q75 64 187 64q65 0 115 -19l-8 -20q-46 17 -107 17q-105 0 -172 -60q-46 -40 -78 -120t-44.5 -156t-12.5 -142q0 -88 47 -136t134 -48q66 0 140 28zM466 863l106 -105l-14 -16
l-96 94h-3l-128 -94l-12 18l140 103h7z" />
    <glyph glyph-name="ccircumflex" unicode="&#x109;" horiz-adv-x="380" 
d="M348 38l6 -19q-52 -29 -117 -29q-69 0 -108.5 38.5t-39.5 114.5q0 75 28 167t77 135q51 45 128 45q50 0 91 -16l-8 -20q-37 14 -83 14q-70 0 -113 -40q-43 -39 -69.5 -124.5t-26.5 -160.5q0 -64 33.5 -97.5t90.5 -33.5q53 0 111 26zM336 667l106 -105l-14 -16l-96 94h-3
l-128 -94l-12 18l140 103h7z" />
    <glyph glyph-name="Cdotaccent" unicode="&#x10a;" horiz-adv-x="488" 
d="M461 35l6 -21q-68 -29 -146 -29q-93 0 -149 53t-56 153q0 70 14 150t48 162.5t82 123.5q75 64 187 64q65 0 115 -19l-8 -20q-46 17 -107 17q-105 0 -172 -60q-46 -40 -78 -120t-44.5 -156t-12.5 -142q0 -88 47 -136t134 -48q66 0 140 28zM430 844q0 12 6 20t14 8t14 -8
t6 -20q0 -28 -20 -28t-20 28z" />
    <glyph glyph-name="cdotaccent" unicode="&#x10b;" horiz-adv-x="380" 
d="M348 38l6 -19q-52 -29 -117 -29q-69 0 -108.5 38.5t-39.5 114.5q0 75 28 167t77 135q51 45 128 45q50 0 91 -16l-8 -20q-37 14 -83 14q-70 0 -113 -40q-43 -39 -69.5 -124.5t-26.5 -160.5q0 -64 33.5 -97.5t90.5 -33.5q53 0 111 26zM304 658q0 12 6 20t14 8t14 -8t6 -20
q0 -28 -20 -28t-20 28z" />
    <glyph glyph-name="Ccaron" unicode="&#x10c;" horiz-adv-x="488" 
d="M461 35l6 -21q-68 -29 -146 -29q-93 0 -149 53t-56 153q0 70 14 150t48 162.5t82 123.5q75 64 187 64q65 0 115 -19l-8 -20q-46 17 -107 17q-105 0 -172 -60q-46 -40 -78 -120t-44.5 -156t-12.5 -142q0 -88 47 -136t134 -48q66 0 140 28zM446 746l-106 105l14 16l96 -94
h3l128 94l12 -18l-140 -103h-7z" />
    <glyph glyph-name="ccaron" unicode="&#x10d;" horiz-adv-x="380" 
d="M348 38l6 -19q-52 -29 -117 -29q-69 0 -108.5 38.5t-39.5 114.5q0 75 28 167t77 135q51 45 128 45q50 0 91 -16l-8 -20q-37 14 -83 14q-70 0 -113 -40q-43 -39 -69.5 -124.5t-26.5 -160.5q0 -64 33.5 -97.5t90.5 -33.5q53 0 111 26zM315 546l-106 105l14 16l96 -94h3
l128 94l12 -18l-140 -103h-7z" />
    <glyph glyph-name="Dcaron" unicode="&#x10e;" horiz-adv-x="565" 
d="M424 77q61 54 94.5 175.5t33.5 225.5q0 176 -188 176h-122l-123 -632h149q94 0 156 55zM576 478q0 -114 -36.5 -238.5t-100.5 -180.5q-67 -59 -176 -59h-173q23 119 67 342t65 334h147q98 0 152.5 -48.5t54.5 -149.5zM392 742l-106 105l14 16l96 -94h3l128 94l12 -18
l-140 -103h-7z" />
    <glyph glyph-name="dcaron" unicode="&#x10f;" horiz-adv-x="518" 
d="M543 696l-106 -550q-7 -35 -7 -65q0 -23 6 -36t22 -26l-11 -19q-41 23 -41 81q0 21 13 76h-2q-71 -167 -197 -167q-61 0 -96 40t-35 112q0 69 29 153t73 128q67 67 174 67q50 0 112 -17l43 223h23zM441 291l31 159q-50 18 -108 18q-99 0 -158 -62q-39 -40 -66 -116.5
t-27 -147.5q0 -65 29.5 -97.5t77.5 -32.5q78 0 138 81t83 198zM618 685q0 12 6 20t14 8t14 -7.5t6 -18.5q0 -15 -18 -70l-30 -90l-17 4l36 126v3q-11 7 -11 25z" />
    <glyph glyph-name="Dmacron" unicode="&#x110;" horiz-adv-x="565" 
d="M576 478q0 -114 -36.5 -238.5t-100.5 -180.5q-67 -59 -176 -59h-173q33 174 64 328h-75l4 22h75q7 36 20 101.5t24 120.5t20 104h147q98 0 152.5 -48.5t54.5 -149.5zM424 77q61 54 94.5 175.5t33.5 225.5q0 176 -188 176h-122l-59 -304h149l-4 -22h-150l-59 -306h149
q94 0 156 55z" />
    <glyph glyph-name="dmacron" unicode="&#x111;" horiz-adv-x="505" 
d="M324 581l4 22h174l18 93h23l-18 -93h62l-4 -22h-62l-84 -435q-7 -35 -7 -65q0 -23 6 -36t22 -26l-11 -19q-41 23 -41 81q0 21 13 76h-2q-71 -167 -197 -167q-61 0 -96 40t-35 112q0 69 29 153t73 128q67 67 174 67q50 0 112 -17l21 108h-174zM441 291l31 159
q-50 18 -108 18q-99 0 -158 -62q-39 -40 -66 -116.5t-27 -147.5q0 -65 29.5 -97.5t77.5 -32.5q78 0 138 81t83 198z" />
    <glyph glyph-name="Emacron" unicode="&#x112;" horiz-adv-x="435" 
d="M419 22l-4 -22h-325l131 676h302l-4 -22h-278l-55 -285h206l-4 -22h-207l-63 -325h301zM517 816l-4 -22h-226l4 22h226z" />
    <glyph glyph-name="emacron" unicode="&#x113;" horiz-adv-x="457" 
d="M318 258h-189q-16 -64 -16 -112q0 -62 34 -98t94 -36q76 0 168 55l8 -19q-83 -58 -176 -58q-70 0 -111 41t-41 115q0 57 26.5 154t78.5 142q54 48 139 48q63 0 99.5 -28.5t36.5 -73.5q0 -57 -40 -93.5t-111 -36.5zM208 424q-45 -39 -74 -144h184q61 0 94 29.5t33 78.5
q0 37 -30.5 58.5t-81.5 21.5q-76 0 -125 -44zM461 620l-4 -22h-226l4 22h226z" />
    <glyph glyph-name="Ebreve" unicode="&#x114;" horiz-adv-x="435" 
d="M419 22l-4 -22h-325l131 676h302l-4 -22h-278l-55 -285h206l-4 -22h-207l-63 -325h301zM497 867h24q-9 -46 -45 -78t-91 -32q-53 0 -79.5 32t-18.5 78h24q-5 -36 13 -61t62 -25q45 0 73.5 25t37.5 61z" />
    <glyph glyph-name="ebreve" unicode="&#x115;" horiz-adv-x="457" 
d="M318 258h-189q-16 -64 -16 -112q0 -62 34 -98t94 -36q76 0 168 55l8 -19q-83 -58 -176 -58q-70 0 -111 41t-41 115q0 57 26.5 154t78.5 142q54 48 139 48q63 0 99.5 -28.5t36.5 -73.5q0 -57 -40 -93.5t-111 -36.5zM208 424q-45 -39 -74 -144h184q61 0 94 29.5t33 78.5
q0 37 -30.5 58.5t-81.5 21.5q-76 0 -125 -44zM447 671h24q-9 -46 -45 -78t-91 -32q-53 0 -79.5 32t-18.5 78h24q-5 -36 13 -61t62 -25q45 0 73.5 25t37.5 61z" />
    <glyph glyph-name="Edotaccent" unicode="&#x116;" horiz-adv-x="435" 
d="M419 22l-4 -22h-325l131 676h302l-4 -22h-278l-55 -285h206l-4 -22h-207l-63 -325h301zM363 844q0 12 6 20t14 8t14 -8t6 -20q0 -28 -20 -28t-20 28z" />
    <glyph glyph-name="edotaccent" unicode="&#x117;" horiz-adv-x="457" 
d="M318 258h-189q-16 -64 -16 -112q0 -62 34 -98t94 -36q76 0 168 55l8 -19q-83 -58 -176 -58q-70 0 -111 41t-41 115q0 57 26.5 154t78.5 142q54 48 139 48q63 0 99.5 -28.5t36.5 -73.5q0 -57 -40 -93.5t-111 -36.5zM208 424q-45 -39 -74 -144h184q61 0 94 29.5t33 78.5
q0 37 -30.5 58.5t-81.5 21.5q-76 0 -125 -44zM324 658q0 12 6 20t14 8t14 -8t6 -20q0 -28 -20 -28t-20 28z" />
    <glyph glyph-name="Eogonek" unicode="&#x118;" horiz-adv-x="435" 
d="M427 -185l1 -20q-31 -11 -64 -11q-39 0 -61 19.5t-22 51.5q0 69 103 144v1h-294l131 676h302l-4 -22h-278l-55 -285h206l-4 -22h-207l-63 -325h301l-4 -22q-110 -78 -110 -143q0 -22 15.5 -36.5t47.5 -14.5q13 0 27.5 2t22.5 4z" />
    <glyph glyph-name="eogonek" unicode="&#x119;" horiz-adv-x="457" 
d="M334 -185l1 -20q-31 -11 -64 -11q-39 0 -61 19.5t-22 51.5q0 67 94 138v1q-24 -4 -41 -4q-70 0 -111 41t-41 115q0 57 26.5 154t78.5 142q54 48 139 48q63 0 99.5 -28.5t36.5 -73.5q0 -57 -40 -93.5t-111 -36.5h-189q-16 -64 -16 -112q0 -62 34 -98t94 -36q76 0 168 55
l8 -19q-37 -26 -90 -45q-115 -80 -115 -146q0 -22 15.5 -36.5t47.5 -14.5q13 0 27.5 2t23.5 4zM208 424q-45 -39 -74 -144h184q61 0 94 29.5t33 78.5q0 37 -30.5 58.5t-81.5 21.5q-76 0 -125 -44z" />
    <glyph glyph-name="Ecaron" unicode="&#x11a;" horiz-adv-x="435" 
d="M419 22l-4 -22h-325l131 676h302l-4 -22h-278l-55 -285h206l-4 -22h-207l-63 -325h301zM372 742l-106 105l14 16l96 -94h3l128 94l12 -18l-140 -103h-7z" />
    <glyph glyph-name="ecaron" unicode="&#x11b;" horiz-adv-x="457" 
d="M318 258h-189q-16 -64 -16 -112q0 -62 34 -98t94 -36q76 0 168 55l8 -19q-83 -58 -176 -58q-70 0 -111 41t-41 115q0 57 26.5 154t78.5 142q54 48 139 48q63 0 99.5 -28.5t36.5 -73.5q0 -57 -40 -93.5t-111 -36.5zM208 424q-45 -39 -74 -144h184q61 0 94 29.5t33 78.5
q0 37 -30.5 58.5t-81.5 21.5q-76 0 -125 -44zM333 546l-106 105l14 16l96 -94h3l128 94l12 -18l-140 -103h-7z" />
    <glyph glyph-name="Gcircumflex" unicode="&#x11c;" horiz-adv-x="599" 
d="M598 339l-57 -295q-92 -59 -205 -59q-105 0 -162 57.5t-57 161.5t37.5 227.5t103.5 185.5q79 74 202 74q81 0 159 -38l-10 -19q-73 35 -151 35q-114 0 -185 -69q-62 -61 -97 -179.5t-35 -216.5q0 -94 49.5 -145.5t145.5 -51.5q100 0 184 50l51 260h-166l5 22h188z
M482 863l106 -105l-14 -16l-96 94h-3l-128 -94l-12 18l140 103h7z" />
    <glyph glyph-name="gcircumflex" unicode="&#x11d;" horiz-adv-x="484" 
d="M500 467l-107 -554q-30 -158 -187 -158q-78 0 -135 33l9 19q58 -30 126 -30q137 0 163 138l28 143l23 99h-2q-71 -167 -197 -167q-61 0 -96 40t-35 112q0 69 29 153t73 128q67 67 174 67q62 0 134 -23zM442 291l31 159q-50 18 -108 18q-99 0 -158 -62q-39 -40 -66 -116.5
t-27 -147.5q0 -65 29.5 -97.5t77.5 -32.5q78 0 138 81t83 198zM383 667l106 -105l-14 -16l-96 94h-3l-128 -94l-12 18l140 103h7z" />
    <glyph glyph-name="Gbreve" unicode="&#x11e;" horiz-adv-x="599" 
d="M598 339l-57 -295q-92 -59 -205 -59q-105 0 -162 57.5t-57 161.5t37.5 227.5t103.5 185.5q79 74 202 74q81 0 159 -38l-10 -19q-73 35 -151 35q-114 0 -185 -69q-62 -61 -97 -179.5t-35 -216.5q0 -94 49.5 -145.5t145.5 -51.5q100 0 184 50l51 260h-166l5 22h188z
M576 867h24q-9 -46 -45 -78t-91 -32q-53 0 -79.5 32t-18.5 78h24q-5 -36 13 -61t62 -25q45 0 73.5 25t37.5 61z" />
    <glyph glyph-name="gbreve" unicode="&#x11f;" horiz-adv-x="484" 
d="M500 467l-107 -554q-30 -158 -187 -158q-78 0 -135 33l9 19q58 -30 126 -30q137 0 163 138l28 143l23 99h-2q-71 -167 -197 -167q-61 0 -96 40t-35 112q0 69 29 153t73 128q67 67 174 67q62 0 134 -23zM442 291l31 159q-50 18 -108 18q-99 0 -158 -62q-39 -40 -66 -116.5
t-27 -147.5q0 -65 29.5 -97.5t77.5 -32.5q78 0 138 81t83 198zM478 671h24q-9 -46 -45 -78t-91 -32q-53 0 -79.5 32t-18.5 78h24q-5 -36 13 -61t62 -25q45 0 73.5 25t37.5 61z" />
    <glyph glyph-name="Gdotaccent" unicode="&#x120;" horiz-adv-x="599" 
d="M598 339l-57 -295q-92 -59 -205 -59q-105 0 -162 57.5t-57 161.5t37.5 227.5t103.5 185.5q79 74 202 74q81 0 159 -38l-10 -19q-73 35 -151 35q-114 0 -185 -69q-62 -61 -97 -179.5t-35 -216.5q0 -94 49.5 -145.5t145.5 -51.5q100 0 184 50l51 260h-166l5 22h188z
M448 844q0 12 6 20t14 8t14 -8t6 -20q0 -28 -20 -28t-20 28z" />
    <glyph glyph-name="gdotaccent" unicode="&#x121;" horiz-adv-x="484" 
d="M500 467l-107 -554q-30 -158 -187 -158q-78 0 -135 33l9 19q58 -30 126 -30q137 0 163 138l28 143l23 99h-2q-71 -167 -197 -167q-61 0 -96 40t-35 112q0 69 29 153t73 128q67 67 174 67q62 0 134 -23zM442 291l31 159q-50 18 -108 18q-99 0 -158 -62q-39 -40 -66 -116.5
t-27 -147.5q0 -65 29.5 -97.5t77.5 -32.5q78 0 138 81t83 198zM343 658q0 12 6 20t14 8t14 -8t6 -20q0 -28 -20 -28t-20 28z" />
    <glyph glyph-name="Gcommaaccent" unicode="&#x122;" horiz-adv-x="599" 
d="M598 339l-57 -295q-92 -59 -205 -59q-105 0 -162 57.5t-57 161.5t37.5 227.5t103.5 185.5q79 74 202 74q81 0 159 -38l-10 -19q-73 35 -151 35q-114 0 -185 -69q-62 -61 -97 -179.5t-35 -216.5q0 -94 49.5 -145.5t145.5 -51.5q100 0 184 50l51 260h-166l5 22h188z
M293 -72q0 12 6 20t14 8q20 0 20 -28q0 -14 -17 -58l-39 -98l-18 3l44 125v3q-10 8 -10 25z" />
    <glyph glyph-name="gcommaaccent" unicode="&#x123;" horiz-adv-x="484" 
d="M500 467l-107 -554q-30 -158 -187 -158q-78 0 -135 33l9 19q58 -30 126 -30q137 0 163 138l28 143l23 99h-2q-71 -167 -197 -167q-61 0 -96 40t-35 112q0 69 29 153t73 128q67 67 174 67q62 0 134 -23zM442 291l31 159q-50 18 -108 18q-99 0 -158 -62q-39 -40 -66 -116.5
t-27 -147.5q0 -65 29.5 -97.5t77.5 -32.5q78 0 138 81t83 198zM369 612q0 -12 -6 -20t-14 -8t-14 7.5t-6 18.5q0 15 18 70l30 90l17 -4l-36 -126v-3q11 -7 11 -25z" />
    <glyph glyph-name="Hcircumflex" unicode="&#x124;" horiz-adv-x="616" 
d="M657 676l-131 -676h-24l67 346h-388l-67 -346h-24l131 676h24l-60 -308h388l60 308h24zM470 868l106 -105l-14 -16l-96 94h-3l-128 -94l-12 18l140 103h7z" />
    <glyph glyph-name="hcircumflex" unicode="&#x125;" horiz-adv-x="485" 
d="M482 329l-64 -329h-24l64 328q5 25 5 49q0 43 -27 66.5t-70 23.5q-80 0 -140 -62t-74 -133l-53 -272h-24l135 696h24l-52 -270l-15 -61l2 -1q13 25 33 47q68 78 165 78q52 0 86 -29.5t34 -82.5q0 -23 -5 -48zM252 868l106 -105l-14 -16l-96 94h-3l-128 -94l-12 18
l140 103h7z" />
    <glyph glyph-name="Imacron" unicode="&#x12a;" horiz-adv-x="205" 
d="M364 816l-4 -22h-226l4 22h226zM246 676l-132 -676h-24l132 676h24z" />
    <glyph glyph-name="imacron" unicode="&#x12b;" horiz-adv-x="173" 
d="M309 620l-4 -22h-226l4 22h226zM193 480l-94 -480h-24l94 480h24z" />
    <glyph glyph-name="Iogonek" unicode="&#x12e;" horiz-adv-x="205" 
d="M241 676l-132 -676q-107 -81 -107 -143q0 -22 15.5 -36.5t47.5 -14.5q13 0 27.5 2t23.5 4l8 3l1 -20q-31 -11 -64 -11q-39 0 -61 19.5t-22 51.5q0 74 107 145l132 676h24z" />
    <glyph glyph-name="iogonek" unicode="&#x12f;" horiz-adv-x="173" 
d="M193 480l-94 -480q-108 -83 -108 -143q0 -22 15.5 -36.5t47.5 -14.5q13 0 27.5 2t22.5 4l9 3l1 -20q-31 -11 -64 -11q-39 0 -61 19.5t-22 51.5q0 76 108 145l94 480h24zM194 658q0 12 6 20t14 8t14 -8t6 -20q0 -28 -20 -28t-20 28z" />
    <glyph glyph-name="Idotaccent" unicode="&#x130;" horiz-adv-x="205" 
d="M230 844q0 12 6 20t14 8t14 -8t6 -20q0 -28 -20 -28t-20 28zM246 676l-132 -676h-24l132 676h24z" />
    <glyph glyph-name="dotlessi" unicode="&#x131;" horiz-adv-x="173" 
d="M193 480l-94 -480h-24l94 480h24z" />
    <glyph glyph-name="Jcircumflex" unicode="&#x134;" horiz-adv-x="241" 
d="M292 676l-88 -454q-14 -75 -36.5 -123.5t-53 -71.5t-58.5 -31.5t-68 -10.5l5 22q81 5 122 52.5t65 163.5l88 453h24zM305 863l106 -105l-14 -16l-96 94h-3l-128 -94l-12 18l140 103h7z" />
    <glyph glyph-name="jcircumflex" unicode="&#x135;" horiz-adv-x="173" 
d="M193 480l-113 -577q-15 -75 -46 -107t-87 -32l-34 3l4 21q15 -2 28 -2q49 0 73.5 26.5t37.5 91.5l113 576h24zM201 657l106 -105l-14 -16l-96 94h-3l-128 -94l-12 18l140 103h7z" />
    <glyph glyph-name="Kcommaaccent" unicode="&#x136;" horiz-adv-x="515" 
d="M245 676l-61 -313h80l316 313h33l-330 -327l225 -349h-28l-220 341h-80l-66 -341h-24l131 676h24zM250 -72q0 12 6 20t14 8q20 0 20 -28q0 -14 -17 -58l-39 -98l-18 3l44 125v3q-10 8 -10 25z" />
    <glyph glyph-name="kcommaaccent" unicode="&#x137;" horiz-adv-x="394" 
d="M234 696l-85 -435h68l200 218h28l-211 -230v-3l174 -246h-28l-169 239h-66l-46 -239h-24l135 696h24zM201 -72q0 12 6 20t14 8q20 0 20 -28q0 -14 -17 -58l-39 -98l-18 3l44 125v3q-10 8 -10 25z" />
    <glyph glyph-name="Lacute" unicode="&#x139;" horiz-adv-x="401" 
d="M391 22l-4 -22h-297l131 676h24l-127 -654h273zM398 852q0 -10 -14 -20l-128 -102h-25l134 121q15 13 21 13q5 0 8.5 -4t3.5 -8z" />
    <glyph glyph-name="lacute" unicode="&#x13a;" horiz-adv-x="199" 
d="M377 852q0 -10 -14 -20l-128 -102h-25l134 121q15 13 21 13q5 0 8.5 -4t3.5 -8zM179 11l-6 -21q-36 7 -57 33.5t-21 62.5q0 29 11 86l102 524h24l-102 -524q-11 -55 -11 -85q0 -57 60 -76z" />
    <glyph glyph-name="Lcommaaccent" unicode="&#x13b;" horiz-adv-x="401" 
d="M391 22l-4 -22h-297l131 676h24l-127 -654h273zM219 -72q0 12 6 20t14 8q20 0 20 -28q0 -14 -17 -58l-39 -98l-18 3l44 125v3q-10 8 -10 25z" />
    <glyph glyph-name="lcommaaccent" unicode="&#x13c;" horiz-adv-x="199" 
d="M106 -72q0 12 6 20t14 8q20 0 20 -28q0 -14 -17 -58l-39 -98l-18 3l44 125v3q-10 8 -10 25zM179 11l-6 -21q-36 7 -57 33.5t-21 62.5q0 29 11 86l102 524h24l-102 -524q-11 -55 -11 -85q0 -57 60 -76z" />
    <glyph glyph-name="Lcaron" unicode="&#x13d;" horiz-adv-x="401" 
d="M391 22l-4 -22h-297l131 676h24l-127 -654h273zM359 663q0 12 6 20t14 8t14 -7.5t6 -18.5q0 -15 -18 -70l-30 -90l-17 4l36 126v3q-11 7 -11 25z" />
    <glyph glyph-name="lcaron" unicode="&#x13e;" horiz-adv-x="208" 
d="M179 11l-6 -21q-36 7 -57 33.5t-21 62.5q0 29 11 86l102 524h24l-102 -524q-11 -55 -11 -85q0 -57 60 -76zM303 683q0 12 6 20t14 8t14 -7.5t6 -18.5q0 -15 -18 -70l-30 -90l-17 4l36 126v3q-11 7 -11 25z" />
    <glyph glyph-name="Ldot" unicode="&#x13f;" horiz-adv-x="401" 
d="M391 22l-4 -22h-297l131 676h24l-127 -654h273zM285 344q0 12 6 20t14 8t14 -8t6 -20q0 -28 -20 -28t-20 28z" />
    <glyph glyph-name="ldot" unicode="&#x140;" horiz-adv-x="199" 
d="M179 11l-6 -21q-36 7 -57 33.5t-21 62.5q0 29 11 86l102 524h24l-102 -524q-11 -55 -11 -85q0 -57 60 -76zM233 359q0 12 6 20t14 8t14 -8t6 -20q0 -28 -20 -28t-20 28z" />
    <glyph glyph-name="Lslash" unicode="&#x141;" horiz-adv-x="401" 
d="M391 22l-4 -22h-297l56 287l5 20h-1q-9 -6 -19 -11l-66 -34l4 25l85 43l67 346h24l-61 -313l-5 -20l1 -1q8 6 22 13l127 65l-5 -25l-148 -76l-58 -297h273z" />
    <glyph glyph-name="lslash" unicode="&#x142;" horiz-adv-x="199" 
d="M46 267l5 28l88 48l69 353h24l-61 -313l-7 -27l1 -1q8 7 18 12l75 41l-5 -27l-92 -51l-31 -158q-11 -55 -11 -85q0 -57 60 -76l-6 -21q-36 7 -57 33.5t-21 62.5q0 29 11 86l23 119l6 25l-1 1q-8 -6 -19 -12z" />
    <glyph glyph-name="Nacute" unicode="&#x143;" horiz-adv-x="601" 
d="M642 676l-131 -676h-23l-225 565l-25 72h-2q-10 -58 -18 -101l-104 -536h-24l131 676h23l218 -546l32 -92h2q10 60 18 101l104 537h24zM591 852q0 -10 -14 -20l-128 -102h-25l134 121q15 13 21 13q5 0 8.5 -4t3.5 -8z" />
    <glyph glyph-name="nacute" unicode="&#x144;" horiz-adv-x="485" 
d="M482 329l-64 -329h-24l64 328q5 25 5 49q0 43 -27 66.5t-70 23.5q-82 0 -141.5 -62.5t-72.5 -132.5l-53 -272h-24l93 480h19l-11 -84l-7 -30l2 -1q11 24 31 46q68 78 165 78q52 0 86 -29.5t34 -82.5q0 -23 -5 -48zM496 656q0 -10 -14 -20l-128 -102h-25l134 121
q15 13 21 13q5 0 8.5 -4t3.5 -8z" />
    <glyph glyph-name="Ncommaaccent" unicode="&#x145;" horiz-adv-x="601" 
d="M642 676l-131 -676h-23l-225 565l-25 72h-2q-10 -58 -18 -101l-104 -536h-24l131 676h23l218 -546l32 -92h2q10 60 18 101l104 537h24zM268 -72q0 12 6 20t14 8q20 0 20 -28q0 -14 -17 -58l-39 -98l-18 3l44 125v3q-10 8 -10 25z" />
    <glyph glyph-name="ncommaaccent" unicode="&#x146;" horiz-adv-x="485" 
d="M482 329l-64 -329h-24l64 328q5 25 5 49q0 43 -27 66.5t-70 23.5q-82 0 -141.5 -62.5t-72.5 -132.5l-53 -272h-24l93 480h19l-11 -84l-7 -30l2 -1q11 24 31 46q68 78 165 78q52 0 86 -29.5t34 -82.5q0 -23 -5 -48zM221 -72q0 12 6 20t14 8q20 0 20 -28q0 -14 -17 -58
l-39 -98l-18 3l44 125v3q-10 8 -10 25z" />
    <glyph glyph-name="Ncaron" unicode="&#x147;" horiz-adv-x="601" 
d="M642 676l-131 -676h-23l-225 565l-25 72h-2q-10 -58 -18 -101l-104 -536h-24l131 676h23l218 -546l32 -92h2q10 60 18 101l104 537h24zM446 742l-106 105l14 16l96 -94h3l128 94l12 -18l-140 -103h-7z" />
    <glyph glyph-name="ncaron" unicode="&#x148;" horiz-adv-x="485" 
d="M482 329l-64 -329h-24l64 328q5 25 5 49q0 43 -27 66.5t-70 23.5q-82 0 -141.5 -62.5t-72.5 -132.5l-53 -272h-24l93 480h19l-11 -84l-7 -30l2 -1q11 24 31 46q68 78 165 78q52 0 86 -29.5t34 -82.5q0 -23 -5 -48zM365 546l-106 105l14 16l96 -94h3l128 94l12 -18
l-140 -103h-7z" />
    <glyph glyph-name="Omacron" unicode="&#x14c;" horiz-adv-x="628" 
d="M640 486q0 -121 -39 -249.5t-111 -190.5q-71 -61 -183 -61q-89 0 -139 52t-50 153q0 111 42.5 246.5t107.5 191.5q72 63 184 63q92 0 140 -51.5t48 -153.5zM616 486q0 183 -166 183q-100 0 -167 -58q-60 -52 -100.5 -183.5t-40.5 -237.5q0 -85 40.5 -134t124.5 -49
q103 0 165 54q64 55 104 174t40 251zM593 816l-4 -22h-226l4 22h226z" />
    <glyph glyph-name="omacron" unicode="&#x14d;" horiz-adv-x="460" 
d="M463 340q0 -78 -25 -164t-73 -134q-52 -52 -133 -52q-68 0 -105.5 41t-37.5 109q0 82 27.5 172t78.5 133q55 45 131 45q64 0 100.5 -40t36.5 -110zM439 340q0 62 -31 95t-82 33q-68 0 -117 -41q-46 -38 -71 -124.5t-25 -162.5q0 -59 31 -93.5t88 -34.5q70 0 117 47
q43 43 66.5 126t23.5 155zM450 620l-4 -22h-226l4 22h226z" />
    <glyph glyph-name="Obreve" unicode="&#x14e;" horiz-adv-x="628" 
d="M640 486q0 -121 -39 -249.5t-111 -190.5q-71 -61 -183 -61q-89 0 -139 52t-50 153q0 111 42.5 246.5t107.5 191.5q72 63 184 63q92 0 140 -51.5t48 -153.5zM616 486q0 183 -166 183q-100 0 -167 -58q-60 -52 -100.5 -183.5t-40.5 -237.5q0 -85 40.5 -134t124.5 -49
q103 0 165 54q64 55 104 174t40 251zM583 867h24q-9 -46 -45 -78t-91 -32q-53 0 -79.5 32t-18.5 78h24q-5 -36 13 -61t62 -25q45 0 73.5 25t37.5 61z" />
    <glyph glyph-name="obreve" unicode="&#x14f;" horiz-adv-x="460" 
d="M463 340q0 -78 -25 -164t-73 -134q-52 -52 -133 -52q-68 0 -105.5 41t-37.5 109q0 82 27.5 172t78.5 133q55 45 131 45q64 0 100.5 -40t36.5 -110zM439 340q0 62 -31 95t-82 33q-68 0 -117 -41q-46 -38 -71 -124.5t-25 -162.5q0 -59 31 -93.5t88 -34.5q70 0 117 47
q43 43 66.5 126t23.5 155zM447 671h24q-9 -46 -45 -78t-91 -32q-53 0 -79.5 32t-18.5 78h24q-5 -36 13 -61t62 -25q45 0 73.5 25t37.5 61z" />
    <glyph glyph-name="Ohungarumlaut" unicode="&#x150;" horiz-adv-x="628" 
d="M640 486q0 -121 -39 -249.5t-111 -190.5q-71 -61 -183 -61q-89 0 -139 52t-50 153q0 111 42.5 246.5t107.5 191.5q72 63 184 63q92 0 140 -51.5t48 -153.5zM616 486q0 183 -166 183q-100 0 -167 -58q-60 -52 -100.5 -183.5t-40.5 -237.5q0 -85 40.5 -134t124.5 -49
q103 0 165 54q64 55 104 174t40 251zM547 852q0 -8 -14 -20l-130 -102h-19l129 121q13 13 22 13q12 0 12 -12zM669 852q0 -8 -14 -20l-130 -102h-19l129 121q13 13 22 13q12 0 12 -12z" />
    <glyph glyph-name="ohungarumlaut" unicode="&#x151;" horiz-adv-x="460" 
d="M463 340q0 -78 -25 -164t-73 -134q-52 -52 -133 -52q-68 0 -105.5 41t-37.5 109q0 82 27.5 172t78.5 133q55 45 131 45q64 0 100.5 -40t36.5 -110zM439 340q0 62 -31 95t-82 33q-68 0 -117 -41q-46 -38 -71 -124.5t-25 -162.5q0 -59 31 -93.5t88 -34.5q70 0 117 47
q43 43 66.5 126t23.5 155zM419 656q0 -8 -14 -20l-130 -102h-19l129 121q13 13 22 13q12 0 12 -12zM541 656q0 -8 -14 -20l-130 -102h-19l129 121q13 13 22 13q12 0 12 -12z" />
    <glyph glyph-name="OE" unicode="&#x152;" horiz-adv-x="833" 
d="M640 486q0 -56 -9 -117h169l-4 -22h-169q-16 -95 -51 -175.5t-86 -125.5q-9 -8 -32 -22l1 -2h358l-4 -22h-404q-48 -15 -102 -15q-89 0 -139 52t-50 153q0 111 42.5 246.5t107.5 191.5q72 63 184 63q48 0 86 -15h383l-4 -22h-340l-1 -1q64 -53 64 -167zM616 486
q0 183 -166 183q-100 0 -167 -58q-60 -52 -100.5 -183.5t-40.5 -237.5q0 -85 40.5 -134t124.5 -49q103 0 165 54q64 55 104 174t40 251z" />
    <glyph glyph-name="oe" unicode="&#x153;" horiz-adv-x="785" 
d="M326 490q61 0 97.5 -37t38.5 -103h2q24 62 58 92q54 48 139 48q63 0 99.5 -28.5t36.5 -73.5q0 -57 -40 -93.5t-111 -36.5h-189q-16 -64 -16 -112q0 -62 34 -98t94 -36q76 0 168 55l8 -19q-83 -58 -176 -58q-65 0 -105 35.5t-45 99.5h-2q-21 -52 -52 -83q-52 -52 -133 -52
q-68 0 -105.5 41t-37.5 109q0 82 27.5 172t78.5 133q55 45 131 45zM439 340q0 63 -31 95.5t-82 32.5q-68 0 -117 -41q-46 -38 -71 -124.5t-25 -162.5q0 -59 31 -93.5t88 -34.5q70 0 117 47q43 43 66.5 126t23.5 155zM536 424q-45 -39 -74 -144h184q61 0 94 29.5t33 78.5
q0 37 -30.5 58.5t-81.5 21.5q-76 0 -125 -44z" />
    <glyph glyph-name="Racute" unicode="&#x154;" horiz-adv-x="507" 
d="M510 524q0 -118 -74 -183q-41 -35 -102 -41l117 -300h-25l-116 299h-138l-58 -299h-24l131 676h148q64 0 102.5 -38.5t38.5 -113.5zM420 357q66 57 66 167q0 130 -121 130h-124l-65 -333h126q76 0 118 36zM494 852q0 -10 -14 -20l-128 -102h-25l134 121q15 13 21 13
q5 0 8.5 -4t3.5 -8z" />
    <glyph glyph-name="racute" unicode="&#x155;" horiz-adv-x="276" 
d="M394 656q0 -10 -14 -20l-128 -102h-25l134 121q15 13 21 13q5 0 8.5 -4t3.5 -8zM346 489l-4 -22h-7q-75 0 -121.5 -58t-61.5 -137l-53 -272h-24l93 480h19l-11 -84l-4 -22h2q14 36 31 55q52 60 135 60h6z" />
    <glyph glyph-name="Rcommaaccent" unicode="&#x156;" horiz-adv-x="507" 
d="M510 524q0 -118 -74 -183q-41 -35 -102 -41l117 -300h-25l-116 299h-138l-58 -299h-24l131 676h148q64 0 102.5 -38.5t38.5 -113.5zM420 357q66 57 66 167q0 130 -121 130h-124l-65 -333h126q76 0 118 36zM236 -72q0 12 6 20t14 8q20 0 20 -28q0 -14 -17 -58l-39 -98
l-18 3l44 125v3q-10 8 -10 25z" />
    <glyph glyph-name="rcommaaccent" unicode="&#x157;" horiz-adv-x="276" 
d="M61 -72q0 12 6 20t14 8q20 0 20 -28q0 -14 -17 -58l-39 -98l-18 3l44 125v3q-10 8 -10 25zM346 489l-4 -22h-7q-75 0 -121.5 -58t-61.5 -137l-53 -272h-24l93 480h19l-11 -84l-4 -22h2q14 36 31 55q52 60 135 60h6z" />
    <glyph glyph-name="Rcaron" unicode="&#x158;" horiz-adv-x="507" 
d="M510 524q0 -118 -74 -183q-41 -35 -102 -41l117 -300h-25l-116 299h-138l-58 -299h-24l131 676h148q64 0 102.5 -38.5t38.5 -113.5zM420 357q66 57 66 167q0 130 -121 130h-124l-65 -333h126q76 0 118 36zM347 742l-106 105l14 16l96 -94h3l128 94l12 -18l-140 -103h-7z
" />
    <glyph glyph-name="rcaron" unicode="&#x159;" horiz-adv-x="276" 
d="M240 546l-106 105l14 16l96 -94h3l128 94l12 -18l-140 -103h-7zM346 489l-4 -22h-7q-75 0 -121.5 -58t-61.5 -137l-53 -272h-24l93 480h19l-11 -84l-4 -22h2q14 36 31 55q52 60 135 60h6z" />
    <glyph glyph-name="Sacute" unicode="&#x15a;" horiz-adv-x="477" 
d="M463 185q0 -85 -59 -142.5t-153 -57.5q-107 0 -188 70l13 18q81 -66 175 -66q86 0 137 51t51 127q0 44 -23 80t-89 70l-60 31q-54 28 -80 62.5t-26 86.5q0 69 51.5 122.5t148.5 53.5q79 0 148 -45l-11 -19q-66 42 -137 42q-90 0 -133 -46.5t-43 -107.5q0 -45 23 -75
t70 -54l60 -31q125 -65 125 -170zM512 852q0 -10 -14 -20l-128 -102h-25l134 121q15 13 21 13q5 0 8.5 -4t3.5 -8z" />
    <glyph glyph-name="sacute" unicode="&#x15b;" horiz-adv-x="413" 
d="M382 134q0 -59 -44.5 -101.5t-125.5 -42.5q-87 0 -146 51l13 17q58 -46 133 -46q69 0 107.5 35t38.5 87q0 34 -18.5 56t-60.5 39l-67 28q-82 33 -83 100q-1 56 44 94.5t119 38.5q68 0 120 -33l-11 -18q-53 29 -109 29q-66 0 -102.5 -32t-36.5 -76q0 -27 15 -46t55 -36
l69 -29q90 -37 90 -115zM442 656q0 -10 -14 -20l-128 -102h-25l134 121q15 13 21 13q5 0 8.5 -4t3.5 -8z" />
    <glyph glyph-name="Scircumflex" unicode="&#x15c;" horiz-adv-x="477" 
d="M463 185q0 -85 -59 -142.5t-153 -57.5q-107 0 -188 70l13 18q81 -66 175 -66q86 0 137 51t51 127q0 44 -23 80t-89 70l-60 31q-54 28 -80 62.5t-26 86.5q0 69 51.5 122.5t148.5 53.5q79 0 148 -45l-11 -19q-66 42 -137 42q-90 0 -133 -46.5t-43 -107.5q0 -45 23 -75
t70 -54l60 -31q125 -65 125 -170zM387 863l106 -105l-14 -16l-96 94h-3l-128 -94l-12 18l140 103h7z" />
    <glyph glyph-name="scircumflex" unicode="&#x15d;" horiz-adv-x="413" 
d="M382 134q0 -59 -44.5 -101.5t-125.5 -42.5q-87 0 -146 51l13 17q58 -46 133 -46q69 0 107.5 35t38.5 87q0 34 -18.5 56t-60.5 39l-67 28q-82 33 -83 100q-1 56 44 94.5t119 38.5q68 0 120 -33l-11 -18q-53 29 -109 29q-66 0 -102.5 -32t-36.5 -76q0 -27 15 -46t55 -36
l69 -29q90 -37 90 -115zM318 667l106 -105l-14 -16l-96 94h-3l-128 -94l-12 18l140 103h7z" />
    <glyph glyph-name="Scedilla" unicode="&#x15e;" horiz-adv-x="477" 
d="M463 185q0 -84 -58 -141.5t-151 -58.5l-19 -50h33q37 0 54 -16.5t17 -40.5q0 -44 -31.5 -69t-86.5 -25q-36 0 -77 11l6 19q37 -8 71 -8q94 0 94 72q0 35 -48 35h-66l29 73q-96 7 -167 69l13 18q81 -66 175 -66q86 0 137 51t51 127q0 44 -23 80t-89 70l-60 31
q-54 28 -80 62.5t-26 86.5q0 69 51.5 122.5t148.5 53.5q79 0 148 -45l-11 -19q-66 42 -137 42q-90 0 -133 -46.5t-43 -107.5q0 -45 23 -75t70 -54l60 -31q125 -65 125 -170z" />
    <glyph glyph-name="scedilla" unicode="&#x15f;" horiz-adv-x="413" 
d="M303 -122q0 -44 -31.5 -69t-86.5 -25q-36 0 -77 11l6 19q37 -8 71 -8q94 0 94 72q0 35 -48 35h-66l30 78q-78 5 -129 50l13 17q58 -46 133 -46q69 0 107.5 35t38.5 87q0 34 -18.5 56t-60.5 39l-67 28q-82 33 -83 100q-1 56 44 94.5t119 38.5q68 0 120 -33l-11 -18
q-53 29 -109 29q-66 0 -102.5 -32t-36.5 -76q0 -27 15 -46t55 -36l69 -29q90 -37 90 -115q0 -58 -42.5 -100t-120.5 -44l-20 -55h33q37 0 54 -16.5t17 -40.5z" />
    <glyph glyph-name="Scaron" unicode="&#x160;" horiz-adv-x="477" 
d="M463 185q0 -85 -59 -142.5t-153 -57.5q-107 0 -188 70l13 18q81 -66 175 -66q86 0 137 51t51 127q0 44 -23 80t-89 70l-60 31q-54 28 -80 62.5t-26 86.5q0 69 51.5 122.5t148.5 53.5q79 0 148 -45l-11 -19q-66 42 -137 42q-90 0 -133 -46.5t-43 -107.5q0 -45 23 -75
t70 -54l60 -31q125 -65 125 -170zM362 746l-106 105l14 16l96 -94h3l128 94l12 -18l-140 -103h-7z" />
    <glyph glyph-name="scaron" unicode="&#x161;" horiz-adv-x="413" 
d="M382 134q0 -59 -44.5 -101.5t-125.5 -42.5q-87 0 -146 51l13 17q58 -46 133 -46q69 0 107.5 35t38.5 87q0 34 -18.5 56t-60.5 39l-67 28q-82 33 -83 100q-1 56 44 94.5t119 38.5q68 0 120 -33l-11 -18q-53 29 -109 29q-66 0 -102.5 -32t-36.5 -76q0 -27 15 -46t55 -36
l69 -29q90 -37 90 -115zM296 546l-106 105l14 16l96 -94h3l128 94l12 -18l-140 -103h-7z" />
    <glyph glyph-name="Tcommaaccent" unicode="&#x162;" horiz-adv-x="451" 
d="M562 676l-4 -22h-197l-127 -654h-24l127 654h-197l4 22h418zM212 -72q0 12 6 20t14 8q20 0 20 -28q0 -14 -17 -58l-39 -98l-18 3l44 125v3q-10 8 -10 25z" />
    <glyph glyph-name="Tcommaaccent" unicode="&#x21a;" horiz-adv-x="451" 
d="M562 676l-4 -22h-197l-127 -654h-24l127 654h-197l4 22h418zM212 -72q0 12 6 20t14 8q20 0 20 -28q0 -14 -17 -58l-39 -98l-18 3l44 125v3q-10 8 -10 25z" />
    <glyph glyph-name="tcommaaccent" unicode="&#x163;" horiz-adv-x="234" 
d="M98 458l4 22h72l27 140l26 7l-29 -147h98l-4 -22h-98l-59 -303q-9 -45 -9 -72q0 -31 17.5 -48t60.5 -24l-6 -21q-96 12 -96 92q0 24 9 73l58 303h-71zM109 -72q0 12 6 20t14 8q20 0 20 -28q0 -14 -17 -58l-39 -98l-18 3l44 125v3q-10 8 -10 25z" />
    <glyph glyph-name="tcommaaccent" unicode="&#x21b;" horiz-adv-x="234" 
d="M98 458l4 22h72l27 140l26 7l-29 -147h98l-4 -22h-98l-59 -303q-9 -45 -9 -72q0 -31 17.5 -48t60.5 -24l-6 -21q-96 12 -96 92q0 24 9 73l58 303h-71zM109 -72q0 12 6 20t14 8q20 0 20 -28q0 -14 -17 -58l-39 -98l-18 3l44 125v3q-10 8 -10 25z" />
    <glyph glyph-name="Tcaron" unicode="&#x164;" horiz-adv-x="451" 
d="M562 676l-4 -22h-197l-127 -654h-24l127 654h-197l4 22h418zM372 742l-106 105l14 16l96 -94h3l128 94l12 -18l-140 -103h-7z" />
    <glyph glyph-name="tcaron" unicode="&#x165;" horiz-adv-x="234" 
d="M98 458l4 22h72l27 140l26 7l-29 -147h98l-4 -22h-98l-59 -303q-9 -45 -9 -72q0 -31 17.5 -48t60.5 -24l-6 -21q-96 12 -96 92q0 24 9 73l58 303h-71zM302 741q0 12 6 20t14 8t14 -7.5t6 -18.5q0 -15 -18 -70l-30 -90l-17 4l36 126v3q-11 7 -11 25z" />
    <glyph glyph-name="Utilde" unicode="&#x168;" horiz-adv-x="582" 
d="M633 676l-89 -459q-45 -232 -255 -232q-82 0 -129 43.5t-47 118.5q0 36 10 90l85 439h24l-86 -445q-9 -46 -9 -84q0 -68 41.5 -104t114.5 -36q96 0 152 55.5t75 154.5l89 459h24zM562 840h22q-8 -31 -29 -54t-56 -23q-22 0 -60.5 23t-56.5 23q-41 0 -62 -53h-21
q9 31 30 54t55 23q23 0 61 -23t56 -23q41 0 61 53z" />
    <glyph glyph-name="utilde" unicode="&#x169;" horiz-adv-x="491" 
d="M98 196l55 284h24l-56 -288q-8 -43 -8 -75q0 -50 28 -77.5t74 -27.5q80 0 138.5 83.5t81.5 195.5l37 189h24l-65 -334q-7 -35 -7 -65q0 -42 28 -62l-11 -19q-41 24 -41 81q0 24 13 76h-2q-31 -73 -80.5 -120t-116.5 -47q-55 0 -90 33.5t-35 93.5q0 32 9 79zM463 644h22
q-8 -31 -29 -54t-56 -23q-22 0 -60.5 23t-56.5 23q-41 0 -62 -53h-21q9 31 30 54t55 23q23 0 61 -23t56 -23q41 0 61 53z" />
    <glyph glyph-name="Umacron" unicode="&#x16a;" horiz-adv-x="582" 
d="M633 676l-89 -459q-45 -232 -255 -232q-82 0 -129 43.5t-47 118.5q0 36 10 90l85 439h24l-86 -445q-9 -46 -9 -84q0 -68 41.5 -104t114.5 -36q96 0 152 55.5t75 154.5l89 459h24zM554 816l-4 -22h-226l4 22h226z" />
    <glyph glyph-name="umacron" unicode="&#x16b;" horiz-adv-x="491" 
d="M98 196l55 284h24l-56 -288q-8 -43 -8 -75q0 -50 28 -77.5t74 -27.5q80 0 138.5 83.5t81.5 195.5l37 189h24l-65 -334q-7 -35 -7 -65q0 -42 28 -62l-11 -19q-41 24 -41 81q0 24 13 76h-2q-31 -73 -80.5 -120t-116.5 -47q-55 0 -90 33.5t-35 93.5q0 32 9 79zM468 620
l-4 -22h-226l4 22h226z" />
    <glyph glyph-name="Ubreve" unicode="&#x16c;" horiz-adv-x="582" 
d="M633 676l-89 -459q-45 -232 -255 -232q-82 0 -129 43.5t-47 118.5q0 36 10 90l85 439h24l-86 -445q-9 -46 -9 -84q0 -68 41.5 -104t114.5 -36q96 0 152 55.5t75 154.5l89 459h24zM553 867h24q-9 -46 -45 -78t-91 -32q-53 0 -79.5 32t-18.5 78h24q-5 -36 13 -61t62 -25
q45 0 73.5 25t37.5 61z" />
    <glyph glyph-name="ubreve" unicode="&#x16d;" horiz-adv-x="491" 
d="M98 196l55 284h24l-56 -288q-8 -43 -8 -75q0 -50 28 -77.5t74 -27.5q80 0 138.5 83.5t81.5 195.5l37 189h24l-65 -334q-7 -35 -7 -65q0 -42 28 -62l-11 -19q-41 24 -41 81q0 24 13 76h-2q-31 -73 -80.5 -120t-116.5 -47q-55 0 -90 33.5t-35 93.5q0 32 9 79zM450 671h24
q-9 -46 -45 -78t-91 -32q-53 0 -79.5 32t-18.5 78h24q-5 -36 13 -61t62 -25q45 0 73.5 25t37.5 61z" />
    <glyph glyph-name="Uring" unicode="&#x16e;" horiz-adv-x="582" 
d="M633 676l-89 -459q-45 -232 -255 -232q-82 0 -129 43.5t-47 118.5q0 36 10 90l85 439h24l-86 -445q-9 -46 -9 -84q0 -68 41.5 -104t114.5 -36q96 0 152 55.5t75 154.5l89 459h24zM506 840q0 30 -20.5 51.5t-50.5 21.5t-50.5 -21.5t-20.5 -51.5q0 -29 20.5 -49.5
t50.5 -20.5t50.5 20.5t20.5 49.5zM530 841q0 -38 -28.5 -66.5t-66.5 -28.5t-66.5 28.5t-28.5 66.5q0 39 28 67.5t67 28.5t67 -28.5t28 -67.5z" />
    <glyph glyph-name="uring" unicode="&#x16f;" horiz-adv-x="491" 
d="M98 196l55 284h24l-56 -288q-8 -43 -8 -75q0 -50 28 -77.5t74 -27.5q80 0 138.5 83.5t81.5 195.5l37 189h24l-65 -334q-7 -35 -7 -65q0 -42 28 -62l-11 -19q-41 24 -41 81q0 24 13 76h-2q-31 -73 -80.5 -120t-116.5 -47q-55 0 -90 33.5t-35 93.5q0 32 9 79zM408 644
q0 30 -20.5 51.5t-50.5 21.5t-50.5 -21.5t-20.5 -51.5q0 -29 20.5 -49.5t50.5 -20.5t50.5 20.5t20.5 49.5zM432 645q0 -38 -28.5 -66.5t-66.5 -28.5t-66.5 28.5t-28.5 66.5q0 39 28 67.5t67 28.5t67 -28.5t28 -67.5z" />
    <glyph glyph-name="Uhungarumlaut" unicode="&#x170;" horiz-adv-x="582" 
d="M633 676l-89 -459q-45 -232 -255 -232q-82 0 -129 43.5t-47 118.5q0 36 10 90l85 439h24l-86 -445q-9 -46 -9 -84q0 -68 41.5 -104t114.5 -36q96 0 152 55.5t75 154.5l89 459h24zM516 852q0 -8 -14 -20l-130 -102h-19l129 121q13 13 22 13q12 0 12 -12zM638 852
q0 -8 -14 -20l-130 -102h-19l129 121q13 13 22 13q12 0 12 -12z" />
    <glyph glyph-name="uhungarumlaut" unicode="&#x171;" horiz-adv-x="491" 
d="M98 196l55 284h24l-56 -288q-8 -43 -8 -75q0 -50 28 -77.5t74 -27.5q80 0 138.5 83.5t81.5 195.5l37 189h24l-65 -334q-7 -35 -7 -65q0 -42 28 -62l-11 -19q-41 24 -41 81q0 24 13 76h-2q-31 -73 -80.5 -120t-116.5 -47q-55 0 -90 33.5t-35 93.5q0 32 9 79zM418 656
q0 -8 -14 -20l-130 -102h-19l129 121q13 13 22 13q12 0 12 -12zM540 656q0 -8 -14 -20l-130 -102h-19l129 121q13 13 22 13q12 0 12 -12z" />
    <glyph glyph-name="Uogonek" unicode="&#x172;" horiz-adv-x="572" 
d="M396 -185l1 -20q-31 -11 -64 -11q-39 0 -61 19.5t-22 51.5q0 66 88 133v2q-28 -5 -54 -5q-82 0 -129 43.5t-47 118.5q0 36 10 90l85 439h24l-86 -445q-9 -46 -9 -84q0 -68 41.5 -104t114.5 -36q96 0 152 55.5t75 154.5l89 459h24l-89 -459q-31 -165 -149 -213
q-116 -80 -116 -147q0 -22 15.5 -36.5t47.5 -14.5q13 0 27.5 2t23.5 4z" />
    <glyph glyph-name="uogonek" unicode="&#x173;" horiz-adv-x="490" 
d="M98 196l55 284h24l-56 -288q-8 -43 -8 -75q0 -50 28 -77.5t74 -27.5q80 0 138.5 83.5t81.5 195.5l37 189h24l-65 -334q-7 -35 -7 -65q0 -42 28 -62l-11 -19q-110 -78 -110 -143q0 -22 15.5 -36.5t47.5 -14.5q13 0 27.5 2t22.5 4l9 3l1 -20q-31 -11 -64 -11
q-39 0 -61 19.5t-22 51.5q0 43 29.5 78t79.5 71l10 7q-26 22 -26 70q0 24 13 76h-2q-31 -73 -80.5 -120t-116.5 -47q-55 0 -90 33.5t-35 93.5q0 32 9 79z" />
    <glyph glyph-name="Wcircumflex" unicode="&#x174;" horiz-adv-x="807" 
d="M510 551q-22 -50 -45 -95l-228 -456h-19l-62 676h24l47 -517l7 -117h2q25 57 54 116l230 459h6l50 -457l10 -118h2q24 60 52 118l248 516h25l-324 -676h-19l-50 455l-8 96h-2zM558 863l106 -105l-14 -16l-96 94h-3l-128 -94l-12 18l140 103h7z" />
    <glyph glyph-name="wcircumflex" unicode="&#x175;" horiz-adv-x="596" 
d="M640 480h24l-220 -480h-20l-48 333l-6 62h-2q-11 -32 -26 -62l-163 -333h-20l-41 480h23l30 -352l4 -90h2q19 47 38 87l154 315h15l45 -316l9 -86h2q16 41 39 91zM411 667l106 -105l-14 -16l-96 94h-3l-128 -94l-12 18l140 103h7z" />
    <glyph glyph-name="Ycircumflex" unicode="&#x176;" horiz-adv-x="476" 
d="M302 296h2q28 46 70 109l181 271h27l-271 -404l-53 -272h-24l53 273l-131 403h25l86 -267zM399 863l106 -105l-14 -16l-96 94h-3l-128 -94l-12 18l140 103h7z" />
    <glyph glyph-name="ycircumflex" unicode="&#x177;" horiz-adv-x="405" 
d="M266 71l181 409h25l-263 -593q-32 -72 -65 -97.5t-90 -25.5h-38l5 22h36q46 0 74 22.5t56 84.5l41 92l-117 495h24l96 -409l11 -55h2q12 32 22 55zM326 667l106 -105l-14 -16l-96 94h-3l-128 -94l-12 18l140 103h7z" />
    <glyph glyph-name="Ydieresis" unicode="&#x178;" horiz-adv-x="476" 
d="M302 296h2q28 46 70 109l181 271h27l-271 -404l-53 -272h-24l53 273l-131 403h25l86 -267zM286 844q0 12 6 20t14 8t14 -8t6 -20q0 -28 -20 -28t-20 28zM444 844q0 12 6 20t14 8t14 -8t6 -20q0 -28 -20 -28t-20 28z" />
    <glyph glyph-name="Zacute" unicode="&#x179;" horiz-adv-x="437" 
d="M425 22l-4 -22h-391l417 590l47 63v1h-331l4 22h369l-419 -593l-46 -59v-2h354zM489 852q0 -10 -14 -20l-128 -102h-25l134 121q15 13 21 13q5 0 8.5 -4t3.5 -8z" />
    <glyph glyph-name="zacute" unicode="&#x17a;" horiz-adv-x="418" 
d="M96 22h271l-4 -22h-308l1 5l327 415l31 36v2h-253l4 22h291l-1 -5l-327 -415l-32 -37v-1zM455 656q0 -10 -14 -20l-128 -102h-25l134 121q15 13 21 13q5 0 8.5 -4t3.5 -8z" />
    <glyph glyph-name="Zdotaccent" unicode="&#x17b;" horiz-adv-x="437" 
d="M425 22l-4 -22h-391l417 590l47 63v1h-331l4 22h369l-419 -593l-46 -59v-2h354zM339 844q0 12 6 20t14 8t14 -8t6 -20q0 -28 -20 -28t-20 28z" />
    <glyph glyph-name="zdotaccent" unicode="&#x17c;" horiz-adv-x="418" 
d="M96 22h271l-4 -22h-308l1 5l327 415l31 36v2h-253l4 22h291l-1 -5l-327 -415l-32 -37v-1zM294 658q0 12 6 20t14 8t14 -8t6 -20q0 -28 -20 -28t-20 28z" />
    <glyph glyph-name="Zcaron" unicode="&#x17d;" horiz-adv-x="437" 
d="M425 22l-4 -22h-391l417 590l47 63v1h-331l4 22h369l-419 -593l-46 -59v-2h354zM357 746l-106 105l14 16l96 -94h3l128 94l12 -18l-140 -103h-7z" />
    <glyph glyph-name="zcaron" unicode="&#x17e;" horiz-adv-x="418" 
d="M96 22h271l-4 -22h-308l1 5l327 415l31 36v2h-253l4 22h291l-1 -5l-327 -415l-32 -37v-1zM319 546l-106 105l14 16l96 -94h3l128 94l12 -18l-140 -103h-7z" />
    <glyph glyph-name="florin" unicode="&#x192;" horiz-adv-x="215" 
d="M-100 -233l5 21q10 -2 30 -2q47 0 70.5 24t34.5 83l111 565h-73l5 22h72l20 102q14 68 44.5 98.5t91.5 30.5l39 -3l-5 -21q-14 2 -34 2q-52 0 -76.5 -24t-35.5 -83l-20 -102h118l-5 -22h-117l-111 -565q-14 -69 -43.5 -99t-85.5 -30z" />
    <glyph glyph-name="AEacute" unicode="&#x1fc;" horiz-adv-x="704" 
d="M688 22l-4 -22h-315l44 229h-210l-150 -229h-28l444 676h323l-4 -22h-268l-55 -285h196l-4 -22h-197l-63 -325h291zM394 521l-177 -270h201l78 403h-16q-46 -72 -86 -133zM765 854q0 -10 -14 -20l-128 -102h-25l134 121q15 13 21 13q5 0 8.5 -4t3.5 -8z" />
    <glyph glyph-name="aeacute" unicode="&#x1fd;" horiz-adv-x="775" 
d="M636 261h-184q-16 -65 -16 -115q0 -62 33 -98t93 -36q73 0 165 55l8 -19q-83 -58 -173 -58q-59 0 -97.5 29.5t-48.5 83.5h-3q-102 -113 -209 -113q-62 0 -95.5 32.5t-33.5 81.5q0 70 45.5 112t123.5 57q50 10 188 10l11 55q12 61 -15.5 95.5t-97.5 34.5q-73 0 -156 -35
l-7 19q86 38 167 38q67 0 102.5 -33t30.5 -89h2q17 46 48 74q54 48 137 48q63 0 98 -28t35 -74q0 -57 -40 -92t-111 -35zM412 146q0 48 16 115q-128 0 -182 -10q-147 -30 -147 -147q0 -40 26.5 -66t78.5 -26q60 0 108.5 31t99.5 90v13zM531 424q-44 -40 -73 -141h178
q61 0 94 28.5t33 76.5q0 37 -29 58.5t-80 21.5q-74 0 -123 -44zM650 656q0 -10 -14 -20l-128 -102h-25l134 121q15 13 21 13q5 0 8.5 -4t3.5 -8z" />
    <glyph glyph-name="Oslashacute" unicode="&#x1fe;" horiz-adv-x="628" 
d="M602 852q0 -10 -14 -20l-128 -102h-25l134 121q15 13 21 13q5 0 8.5 -4t3.5 -8zM87 -6l59 73q-28 48 -28 123q0 111 42.5 246.5t107.5 191.5q72 63 184 63q101 0 148 -62l55 67l17 -14l-59 -73q27 -51 27 -123q0 -121 -39 -249.5t-111 -190.5q-71 -61 -183 -61
q-99 0 -148 63l-55 -68zM616 486q0 63 -20 103l-422 -523q41 -59 133 -59q103 0 165 54q64 55 104 174t40 251zM142 190q0 -63 20 -103l423 522q-43 60 -135 60q-100 0 -167 -58q-60 -52 -100.5 -183.5t-40.5 -237.5z" />
    <glyph glyph-name="oslashacute" unicode="&#x1ff;" horiz-adv-x="460" 
d="M480 656q0 -10 -14 -20l-128 -102h-25l134 121q15 13 21 13q5 0 8.5 -4t3.5 -8zM61 -2l48 58q-20 35 -20 84q0 82 27.5 172t78.5 133q55 45 131 45q66 0 104 -44l44 54l16 -14l-48 -58q21 -36 21 -88q0 -78 -25 -164t-73 -134q-52 -52 -133 -52q-73 0 -111 48l-44 -54z
M439 340q0 38 -13 67h-1l-289 -351q31 -44 96 -44q70 0 117 47q43 43 66.5 126t23.5 155zM113 140q0 -34 12 -63h1l288 350q-30 41 -88 41q-68 0 -117 -41q-46 -38 -71 -124.5t-25 -162.5z" />
    <glyph glyph-name="Adblgrave" unicode="&#x200;" horiz-adv-x="501" 
d="M453 0l-32 222h-261l-110 -222h-25l335 676h18l98 -676h-23zM303 509l-132 -265h247l-39 267l-14 127h-3q-31 -73 -59 -129zM177 853q0 12 12 12q8 0 21 -14l109 -121h-19l-109 102q-14 13 -14 21zM299 853q0 12 12 12q8 0 21 -14l109 -121h-19l-109 102q-14 13 -14 21z
" />
    <glyph glyph-name="adblgrave" unicode="&#x201;" horiz-adv-x="505" 
d="M499 467l-62 -321q-7 -35 -7 -65q0 -41 28 -62l-11 -19q-41 23 -41 81q0 21 13 76h-2q-71 -167 -197 -167q-61 0 -96 40t-35 112q0 69 29 153t73 128q67 67 174 67q62 0 134 -23zM441 291l31 159q-50 18 -108 18q-99 0 -158 -62q-39 -40 -66 -116.5t-27 -147.5
q0 -65 29.5 -97.5t77.5 -32.5q78 0 138 81t83 198zM190 657q0 12 12 12q8 0 21 -14l109 -121h-19l-109 102q-14 13 -14 21zM312 657q0 12 12 12q8 0 21 -14l109 -121h-19l-109 102q-14 13 -14 21z" />
    <glyph glyph-name="Ainvertedbreve" unicode="&#x202;" horiz-adv-x="501" 
d="M453 0l-32 222h-261l-110 -222h-25l335 676h18l98 -676h-23zM303 509l-132 -265h247l-39 267l-14 127h-3q-31 -73 -59 -129zM283 745h-24q9 46 45 78t91 32q53 0 79.5 -32t18.5 -78h-24q5 36 -13 61t-62 25q-45 0 -73.5 -25t-37.5 -61z" />
    <glyph glyph-name="ainvertedbreve" unicode="&#x203;" horiz-adv-x="505" 
d="M499 467l-62 -321q-7 -35 -7 -65q0 -41 28 -62l-11 -19q-41 23 -41 81q0 21 13 76h-2q-71 -167 -197 -167q-61 0 -96 40t-35 112q0 69 29 153t73 128q67 67 174 67q62 0 134 -23zM441 291l31 159q-50 18 -108 18q-99 0 -158 -62q-39 -40 -66 -116.5t-27 -147.5
q0 -65 29.5 -97.5t77.5 -32.5q78 0 138 81t83 198zM264 549h-24q9 46 45 78t91 32q53 0 79.5 -32t18.5 -78h-24q5 36 -13 61t-62 25q-45 0 -73.5 -25t-37.5 -61z" />
    <glyph glyph-name="Edblgrave" unicode="&#x204;" horiz-adv-x="435" 
d="M419 22l-4 -22h-325l131 676h302l-4 -22h-278l-55 -285h206l-4 -22h-207l-63 -325h301zM204 853q0 12 12 12q8 0 21 -14l109 -121h-19l-109 102q-14 13 -14 21zM326 853q0 12 12 12q8 0 21 -14l109 -121h-19l-109 102q-14 13 -14 21z" />
    <glyph glyph-name="edblgrave" unicode="&#x205;" horiz-adv-x="457" 
d="M318 258h-189q-16 -64 -16 -112q0 -62 34 -98t94 -36q76 0 168 55l8 -19q-83 -58 -176 -58q-70 0 -111 41t-41 115q0 57 26.5 154t78.5 142q54 48 139 48q63 0 99.5 -28.5t36.5 -73.5q0 -57 -40 -93.5t-111 -36.5zM208 424q-45 -39 -74 -144h184q61 0 94 29.5t33 78.5
q0 37 -30.5 58.5t-81.5 21.5q-76 0 -125 -44zM143 657q0 12 12 12q8 0 21 -14l109 -121h-19l-109 102q-14 13 -14 21zM265 657q0 12 12 12q8 0 21 -14l109 -121h-19l-109 102q-14 13 -14 21z" />
    <glyph glyph-name="Einvertedbreve" unicode="&#x206;" horiz-adv-x="435" 
d="M419 22l-4 -22h-325l131 676h302l-4 -22h-278l-55 -285h206l-4 -22h-207l-63 -325h301zM288 745h-24q9 46 45 78t91 32q53 0 79.5 -32t18.5 -78h-24q5 36 -13 61t-62 25q-45 0 -73.5 -25t-37.5 -61z" />
    <glyph glyph-name="einvertedbreve" unicode="&#x207;" horiz-adv-x="457" 
d="M318 258h-189q-16 -64 -16 -112q0 -62 34 -98t94 -36q76 0 168 55l8 -19q-83 -58 -176 -58q-70 0 -111 41t-41 115q0 57 26.5 154t78.5 142q54 48 139 48q63 0 99.5 -28.5t36.5 -73.5q0 -57 -40 -93.5t-111 -36.5zM208 424q-45 -39 -74 -144h184q61 0 94 29.5t33 78.5
q0 37 -30.5 58.5t-81.5 21.5q-76 0 -125 -44zM239 549h-24q9 46 45 78t91 32q53 0 79.5 -32t18.5 -78h-24q5 36 -13 61t-62 25q-45 0 -73.5 -25t-37.5 -61z" />
    <glyph glyph-name="Idblgrave" unicode="&#x208;" horiz-adv-x="205" 
d="M44 853q0 12 12 12q8 0 21 -14l109 -121h-19l-109 102q-14 13 -14 21zM166 853q0 12 12 12q8 0 21 -14l109 -121h-19l-109 102q-14 13 -14 21zM246 676l-132 -676h-24l132 676h24z" />
    <glyph glyph-name="idblgrave" unicode="&#x209;" horiz-adv-x="173" 
d="M-4 657q0 12 12 12q8 0 21 -14l109 -121h-19l-109 102q-14 13 -14 21zM118 657q0 12 12 12q8 0 21 -14l109 -121h-19l-109 102q-14 13 -14 21zM193 480l-94 -480h-24l94 480h24z" />
    <glyph glyph-name="Iinvertedbreve" unicode="&#x20a;" horiz-adv-x="205" 
d="M143 745h-24q9 46 45 78t91 32q53 0 79.5 -32t18.5 -78h-24q5 36 -13 61t-62 25q-45 0 -73.5 -25t-37.5 -61zM246 676l-132 -676h-24l132 676h24z" />
    <glyph glyph-name="iinvertedbreve" unicode="&#x20b;" horiz-adv-x="173" 
d="M91 549h-24q9 46 45 78t91 32q53 0 79.5 -32t18.5 -78h-24q5 36 -13 61t-62 25q-45 0 -73.5 -25t-37.5 -61zM193 480l-94 -480h-24l94 480h24z" />
    <glyph glyph-name="Odblgrave" unicode="&#x20c;" horiz-adv-x="628" 
d="M640 486q0 -121 -39 -249.5t-111 -190.5q-71 -61 -183 -61q-89 0 -139 52t-50 153q0 111 42.5 246.5t107.5 191.5q72 63 184 63q92 0 140 -51.5t48 -153.5zM616 486q0 183 -166 183q-100 0 -167 -58q-60 -52 -100.5 -183.5t-40.5 -237.5q0 -85 40.5 -134t124.5 -49
q103 0 165 54q64 55 104 174t40 251zM259 853q0 12 12 12q8 0 21 -14l109 -121h-19l-109 102q-14 13 -14 21zM381 853q0 12 12 12q8 0 21 -14l109 -121h-19l-109 102q-14 13 -14 21z" />
    <glyph glyph-name="odblgrave" unicode="&#x20d;" horiz-adv-x="460" 
d="M463 340q0 -78 -25 -164t-73 -134q-52 -52 -133 -52q-68 0 -105.5 41t-37.5 109q0 82 27.5 172t78.5 133q55 45 131 45q64 0 100.5 -40t36.5 -110zM439 340q0 62 -31 95t-82 33q-68 0 -117 -41q-46 -38 -71 -124.5t-25 -162.5q0 -59 31 -93.5t88 -34.5q70 0 117 47
q43 43 66.5 126t23.5 155zM128 657q0 12 12 12q8 0 21 -14l109 -121h-19l-109 102q-14 13 -14 21zM250 657q0 12 12 12q8 0 21 -14l109 -121h-19l-109 102q-14 13 -14 21z" />
    <glyph glyph-name="Oinvertedbreve" unicode="&#x20e;" horiz-adv-x="628" 
d="M640 486q0 -121 -39 -249.5t-111 -190.5q-71 -61 -183 -61q-89 0 -139 52t-50 153q0 111 42.5 246.5t107.5 191.5q72 63 184 63q92 0 140 -51.5t48 -153.5zM616 486q0 183 -166 183q-100 0 -167 -58q-60 -52 -100.5 -183.5t-40.5 -237.5q0 -85 40.5 -134t124.5 -49
q103 0 165 54q64 55 104 174t40 251zM372 745h-24q9 46 45 78t91 32q53 0 79.5 -32t18.5 -78h-24q5 36 -13 61t-62 25q-45 0 -73.5 -25t-37.5 -61z" />
    <glyph glyph-name="oinvertedbreve" unicode="&#x20f;" horiz-adv-x="460" 
d="M463 340q0 -78 -25 -164t-73 -134q-52 -52 -133 -52q-68 0 -105.5 41t-37.5 109q0 82 27.5 172t78.5 133q55 45 131 45q64 0 100.5 -40t36.5 -110zM439 340q0 62 -31 95t-82 33q-68 0 -117 -41q-46 -38 -71 -124.5t-25 -162.5q0 -59 31 -93.5t88 -34.5q70 0 117 47
q43 43 66.5 126t23.5 155zM240 549h-24q9 46 45 78t91 32q53 0 79.5 -32t18.5 -78h-24q5 36 -13 61t-62 25q-45 0 -73.5 -25t-37.5 -61z" />
    <glyph glyph-name="Rdblgrave" unicode="&#x210;" horiz-adv-x="507" 
d="M510 524q0 -118 -74 -183q-41 -35 -102 -41l117 -300h-25l-116 299h-138l-58 -299h-24l131 676h148q64 0 102.5 -38.5t38.5 -113.5zM420 357q66 57 66 167q0 130 -121 130h-124l-65 -333h126q76 0 118 36zM158 853q0 12 12 12q8 0 21 -14l109 -121h-19l-109 102
q-14 13 -14 21zM280 853q0 12 12 12q8 0 21 -14l109 -121h-19l-109 102q-14 13 -14 21z" />
    <glyph glyph-name="rdblgrave" unicode="&#x211;" horiz-adv-x="276" 
d="M72 657q0 12 12 12q8 0 21 -14l109 -121h-19l-109 102q-14 13 -14 21zM194 657q0 12 12 12q8 0 21 -14l109 -121h-19l-109 102q-14 13 -14 21zM346 489l-4 -22h-7q-75 0 -121.5 -58t-61.5 -137l-53 -272h-24l93 480h19l-11 -84l-4 -22h2q14 36 31 55q52 60 135 60h6z" />
    <glyph glyph-name="Rinvertedbreve" unicode="&#x212;" horiz-adv-x="507" 
d="M510 524q0 -118 -74 -183q-41 -35 -102 -41l117 -300h-25l-116 299h-138l-58 -299h-24l131 676h148q64 0 102.5 -38.5t38.5 -113.5zM420 357q66 57 66 167q0 130 -121 130h-124l-65 -333h126q76 0 118 36zM268 745h-24q9 46 45 78t91 32q53 0 79.5 -32t18.5 -78h-24
q5 36 -13 61t-62 25q-45 0 -73.5 -25t-37.5 -61z" />
    <glyph glyph-name="rinvertedbreve" unicode="&#x213;" horiz-adv-x="276" 
d="M157 549h-24q9 46 45 78t91 32q53 0 79.5 -32t18.5 -78h-24q5 36 -13 61t-62 25q-45 0 -73.5 -25t-37.5 -61zM346 489l-4 -22h-7q-75 0 -121.5 -58t-61.5 -137l-53 -272h-24l93 480h19l-11 -84l-4 -22h2q14 36 31 55q52 60 135 60h6z" />
    <glyph glyph-name="Udblgrave" unicode="&#x214;" horiz-adv-x="582" 
d="M633 676l-89 -459q-45 -232 -255 -232q-82 0 -129 43.5t-47 118.5q0 36 10 90l85 439h24l-86 -445q-9 -46 -9 -84q0 -68 41.5 -104t114.5 -36q96 0 152 55.5t75 154.5l89 459h24zM240 853q0 12 12 12q8 0 21 -14l109 -121h-19l-109 102q-14 13 -14 21zM362 853
q0 12 12 12q8 0 21 -14l109 -121h-19l-109 102q-14 13 -14 21z" />
    <glyph glyph-name="udblgrave" unicode="&#x215;" horiz-adv-x="491" 
d="M98 196l55 284h24l-56 -288q-8 -43 -8 -75q0 -50 28 -77.5t74 -27.5q80 0 138.5 83.5t81.5 195.5l37 189h24l-65 -334q-7 -35 -7 -65q0 -42 28 -62l-11 -19q-41 24 -41 81q0 24 13 76h-2q-31 -73 -80.5 -120t-116.5 -47q-55 0 -90 33.5t-35 93.5q0 32 9 79zM151 657
q0 12 12 12q8 0 21 -14l109 -121h-19l-109 102q-14 13 -14 21zM273 657q0 12 12 12q8 0 21 -14l109 -121h-19l-109 102q-14 13 -14 21z" />
    <glyph glyph-name="Uinvertedbreve" unicode="&#x216;" horiz-adv-x="582" 
d="M633 676l-89 -459q-45 -232 -255 -232q-82 0 -129 43.5t-47 118.5q0 36 10 90l85 439h24l-86 -445q-9 -46 -9 -84q0 -68 41.5 -104t114.5 -36q96 0 152 55.5t75 154.5l89 459h24zM343 745h-24q9 46 45 78t91 32q53 0 79.5 -32t18.5 -78h-24q5 36 -13 61t-62 25
q-45 0 -73.5 -25t-37.5 -61z" />
    <glyph glyph-name="uinvertedbreve" unicode="&#x217;" horiz-adv-x="491" 
d="M98 196l55 284h24l-56 -288q-8 -43 -8 -75q0 -50 28 -77.5t74 -27.5q80 0 138.5 83.5t81.5 195.5l37 189h24l-65 -334q-7 -35 -7 -65q0 -42 28 -62l-11 -19q-41 24 -41 81q0 24 13 76h-2q-31 -73 -80.5 -120t-116.5 -47q-55 0 -90 33.5t-35 93.5q0 32 9 79zM242 549h-24
q9 46 45 78t91 32q53 0 79.5 -32t18.5 -78h-24q5 36 -13 61t-62 25q-45 0 -73.5 -25t-37.5 -61z" />
    <glyph glyph-name="Scommaaccent" unicode="&#x218;" horiz-adv-x="477" 
d="M463 185q0 -85 -59 -142.5t-153 -57.5q-107 0 -188 70l13 18q81 -66 175 -66q86 0 137 51t51 127q0 44 -23 80t-89 70l-60 31q-54 28 -80 62.5t-26 86.5q0 69 51.5 122.5t148.5 53.5q79 0 148 -45l-11 -19q-66 42 -137 42q-90 0 -133 -46.5t-43 -107.5q0 -45 23 -75
t70 -54l60 -31q125 -65 125 -170zM238 -72q0 12 6 20t14 8q20 0 20 -28q0 -14 -17 -58l-39 -98l-18 3l44 125v3q-10 8 -10 25z" />
    <glyph glyph-name="scommaaccent" unicode="&#x219;" horiz-adv-x="413" 
d="M382 134q0 -59 -44.5 -101.5t-125.5 -42.5q-87 0 -146 51l13 17q58 -46 133 -46q69 0 107.5 35t38.5 87q0 34 -18.5 56t-60.5 39l-67 28q-82 33 -83 100q-1 56 44 94.5t119 38.5q68 0 120 -33l-11 -18q-53 29 -109 29q-66 0 -102.5 -32t-36.5 -76q0 -27 15 -46t55 -36
l69 -29q90 -37 90 -115zM187 -72q0 12 6 20t14 8q20 0 20 -28q0 -14 -17 -58l-39 -98l-18 3l44 125v3q-10 8 -10 25z" />
    <glyph glyph-name="circumflex" unicode="&#x2c6;" horiz-adv-x="447" 
d="M237 667l106 -105l-14 -16l-96 94h-3l-128 -94l-12 18l140 103h7z" />
    <glyph glyph-name="caron" unicode="&#x2c7;" horiz-adv-x="447" 
d="M208 546l-106 105l14 16l96 -94h3l128 94l12 -18l-140 -103h-7z" />
    <glyph glyph-name="breve" unicode="&#x2d8;" horiz-adv-x="470" 
d="M339 671h24q-9 -46 -45 -78t-91 -32q-53 0 -79.5 32t-18.5 78h24q-5 -36 13 -61t62 -25q45 0 73.5 25t37.5 61z" />
    <glyph glyph-name="dotaccent" unicode="&#x2d9;" horiz-adv-x="470" 
d="M215 658q0 12 6 20t14 8t14 -8t6 -20q0 -28 -20 -28t-20 28z" />
    <glyph glyph-name="ring" unicode="&#x2da;" horiz-adv-x="470" 
d="M306 644q0 30 -20.5 51.5t-50.5 21.5t-50.5 -21.5t-20.5 -51.5q0 -29 20.5 -49.5t50.5 -20.5t50.5 20.5t20.5 49.5zM330 645q0 -38 -28.5 -66.5t-66.5 -28.5t-66.5 28.5t-28.5 66.5q0 39 28 67.5t67 28.5t67 -28.5t28 -67.5z" />
    <glyph glyph-name="ogonek" unicode="&#x2db;" horiz-adv-x="470" 
d="M303 -185l1 -20q-31 -11 -64 -11q-39 0 -61 19.5t-22 51.5q0 43 29.5 78t79.5 71h31q-116 -81 -116 -147q0 -22 15.5 -36.5t47.5 -14.5q13 0 27.5 2t22.5 4z" />
    <glyph glyph-name="tilde" unicode="&#x2dc;" horiz-adv-x="470" 
d="M352 644h22q-8 -31 -29 -54t-56 -23q-22 0 -60.5 23t-56.5 23q-41 0 -62 -53h-21q9 31 30 54t55 23q23 0 61 -23t56 -23q41 0 61 53z" />
    <glyph glyph-name="hungarumlaut" unicode="&#x2dd;" horiz-adv-x="470" 
d="M261 656q0 -8 -14 -20l-130 -102h-19l129 121q13 13 22 13q12 0 12 -12zM383 656q0 -8 -14 -20l-130 -102h-19l129 121q13 13 22 13q12 0 12 -12z" />
    <glyph glyph-name="invertedbreve" unicode="&#x311;" horiz-adv-x="470" 
d="M131 549h-24q9 46 45 78t91 32q53 0 79.5 -32t18.5 -78h-24q5 36 -13 61t-62 25q-45 0 -73.5 -25t-37.5 -61z" />
    <glyph glyph-name="Omega" unicode="&#x3a9;" horiz-adv-x="655" 
d="M561 22l-4 -22h-162l28 143q64 12 101 39q58 40 87 125.5t29 173.5q0 92 -47.5 140t-133.5 48q-105 0 -178 -62q-55 -47 -85.5 -136.5t-30.5 -174.5q0 -117 111 -153l-27 -143h-163l4 22h138l21 109q-108 41 -108 165q0 90 32 183.5t92 143.5q81 68 194 68q95 0 150 -54
t55 -156q0 -93 -31.5 -182.5t-94.5 -133.5q-41 -28 -95 -39l-20 -104h138z" />
    <glyph glyph-name="Omega" unicode="&#x2126;" horiz-adv-x="655" 
d="M561 22l-4 -22h-162l28 143q64 12 101 39q58 40 87 125.5t29 173.5q0 92 -47.5 140t-133.5 48q-105 0 -178 -62q-55 -47 -85.5 -136.5t-30.5 -174.5q0 -117 111 -153l-27 -143h-163l4 22h138l21 109q-108 41 -108 165q0 90 32 183.5t92 143.5q81 68 194 68q95 0 150 -54
t55 -156q0 -93 -31.5 -182.5t-94.5 -133.5q-41 -28 -95 -39l-20 -104h138z" />
    <glyph glyph-name="pi" unicode="&#x3c0;" horiz-adv-x="506" 
d="M93 458l4 22h466l-5 -22h-100l-55 -286q-12 -60 -12 -88q0 -54 61 -73l-6 -21q-36 8 -57.5 32.5t-21.5 60.5q0 27 12 89l55 286h-218l-88 -458h-24l88 458h-99z" />
    <glyph glyph-name="bahtthai" unicode="&#xe3f;" horiz-adv-x="512" 
d="M223 -91l17 91h-155l131 676h156l14 71h24l-14 -71q63 -2 98 -38t35 -98q0 -64 -30 -113.5t-90 -69.5v-2q45 -14 69 -50t24 -85q0 -98 -56.5 -159t-157.5 -61h-24l-17 -91h-24zM340 344h-9l-62 -322h19q88 0 139 53.5t51 143.5q0 59 -35 92t-103 33zM113 22h132l62 322
h-131zM180 366h132l56 288h-132zM505 540q0 111 -113 114l-56 -288h6q73 0 118 47t45 127z" />
    <glyph glyph-name="Wgrave" unicode="&#x1e80;" horiz-adv-x="807" 
d="M510 551q-22 -50 -45 -95l-228 -456h-19l-62 676h24l47 -517l7 -117h2q25 57 54 116l230 459h6l50 -457l10 -118h2q24 60 52 118l248 516h25l-324 -676h-19l-50 455l-8 96h-2zM380 851q0 13 13 13q8 0 20 -13l115 -121h-25l-109 102q-14 13 -14 19z" />
    <glyph glyph-name="wgrave" unicode="&#x1e81;" horiz-adv-x="596" 
d="M640 480h24l-220 -480h-20l-48 333l-6 62h-2q-11 -32 -26 -62l-163 -333h-20l-41 480h23l30 -352l4 -90h2q19 47 38 87l154 315h15l45 -316l9 -86h2q16 41 39 91zM253 655q0 13 13 13q8 0 20 -13l115 -121h-25l-109 102q-14 13 -14 19z" />
    <glyph glyph-name="Wacute" unicode="&#x1e82;" horiz-adv-x="807" 
d="M510 551q-22 -50 -45 -95l-228 -456h-19l-62 676h24l47 -517l7 -117h2q25 57 54 116l230 459h6l50 -457l10 -118h2q24 60 52 118l248 516h25l-324 -676h-19l-50 455l-8 96h-2zM677 852q0 -10 -14 -20l-128 -102h-25l134 121q15 13 21 13q5 0 8.5 -4t3.5 -8z" />
    <glyph glyph-name="wacute" unicode="&#x1e83;" horiz-adv-x="596" 
d="M640 480h24l-220 -480h-20l-48 333l-6 62h-2q-11 -32 -26 -62l-163 -333h-20l-41 480h23l30 -352l4 -90h2q19 47 38 87l154 315h15l45 -316l9 -86h2q16 41 39 91zM536 656q0 -10 -14 -20l-128 -102h-25l134 121q15 13 21 13q5 0 8.5 -4t3.5 -8z" />
    <glyph glyph-name="Wdieresis" unicode="&#x1e84;" horiz-adv-x="807" 
d="M510 551q-22 -50 -45 -95l-228 -456h-19l-62 676h24l47 -517l7 -117h2q25 57 54 116l230 459h6l50 -457l10 -118h2q24 60 52 118l248 516h25l-324 -676h-19l-50 455l-8 96h-2zM435 844q0 12 6 20t14 8t14 -8t6 -20q0 -28 -20 -28t-20 28zM593 844q0 12 6 20t14 8t14 -8
t6 -20q0 -28 -20 -28t-20 28z" />
    <glyph glyph-name="wdieresis" unicode="&#x1e85;" horiz-adv-x="596" 
d="M640 480h24l-220 -480h-20l-48 333l-6 62h-2q-11 -32 -26 -62l-163 -333h-20l-41 480h23l30 -352l4 -90h2q19 47 38 87l154 315h15l45 -316l9 -86h2q16 41 39 91zM296 658q0 12 6 20t14 8t14 -8t6 -20q0 -28 -20 -28t-20 28zM454 658q0 12 6 20t14 8t14 -8t6 -20
q0 -28 -20 -28t-20 28z" />
    <glyph glyph-name="Ygrave" unicode="&#x1ef2;" horiz-adv-x="476" 
d="M302 296h2q28 46 70 109l181 271h27l-271 -404l-53 -272h-24l53 273l-131 403h25l86 -267zM237 851q0 13 13 13q8 0 20 -13l115 -121h-25l-109 102q-14 13 -14 19z" />
    <glyph glyph-name="ygrave" unicode="&#x1ef3;" horiz-adv-x="405" 
d="M266 71l181 409h25l-263 -593q-32 -72 -65 -97.5t-90 -25.5h-38l5 22h36q46 0 74 22.5t56 84.5l41 92l-117 495h24l96 -409l11 -55h2q12 32 22 55zM170 655q0 13 13 13q8 0 20 -13l115 -121h-25l-109 102q-14 13 -14 19z" />
    <glyph glyph-name="endash" unicode="&#x2013;" horiz-adv-x="492" 
d="M500 251l-5 -22h-410l5 22h410z" />
    <glyph glyph-name="emdash" unicode="&#x2014;" horiz-adv-x="892" 
d="M900 251l-5 -22h-810l5 22h810z" />
    <glyph glyph-name="quoteleft" unicode="&#x2018;" horiz-adv-x="141" 
d="M181 556q0 -12 -6 -20t-14 -8t-14 7.5t-6 18.5q0 15 18 70l30 90l17 -4l-36 -126v-3q11 -7 11 -25z" />
    <glyph glyph-name="quoteright" unicode="&#x2019;" horiz-adv-x="142" 
d="M190 683q0 12 6 20t14 8t14 -7.5t6 -18.5q0 -15 -18 -70l-30 -90l-17 4l36 126v3q-11 7 -11 25z" />
    <glyph glyph-name="quotesinglbase" unicode="&#x201a;" horiz-adv-x="142" 
d="M72 19q0 12 6 20t14 8t14 -7.5t6 -18.5q0 -15 -18 -70l-30 -90l-17 4l36 126v3q-11 7 -11 25z" />
    <glyph glyph-name="quotedblleft" unicode="&#x201c;" horiz-adv-x="242" 
d="M281 556q0 -12 -6 -20t-14 -8t-14 7.5t-6 18.5q0 15 18 70l30 90l17 -4l-36 -126v-3q11 -7 11 -25zM181 556q0 -12 -6 -20t-14 -8t-14 7.5t-6 18.5q0 15 18 70l30 90l17 -4l-36 -126v-3q11 -7 11 -25z" />
    <glyph glyph-name="quotedblright" unicode="&#x201d;" horiz-adv-x="242" 
d="M190 683q0 12 6 20t14 8t14 -7.5t6 -18.5q0 -15 -18 -70l-30 -90l-17 4l36 126v3q-11 7 -11 25zM290 683q0 12 6 20t14 8t14 -7.5t6 -18.5q0 -15 -18 -70l-30 -90l-17 4l36 126v3q-11 7 -11 25z" />
    <glyph glyph-name="quotedblbase" unicode="&#x201e;" horiz-adv-x="242" 
d="M72 19q0 12 6 20t14 8t14 -7.5t6 -18.5q0 -15 -18 -70l-30 -90l-17 4l36 126v3q-11 7 -11 25zM172 19q0 12 6 20t14 8t14 -7.5t6 -18.5q0 -15 -18 -70l-30 -90l-17 4l36 126v3q-11 7 -11 25z" />
    <glyph glyph-name="dagger" unicode="&#x2020;" horiz-adv-x="514" 
d="M148 452l5 26h41l130 -4l17 15l27 154l8 43h26l-8 -43l-33 -154l11 -15l130 4h43l-5 -26h-43l-128 4l-15 -13l-36 -188l-49 -233l-40 -210h-18l40 210l43 233l36 188l-9 13l-132 -4h-41z" />
    <glyph glyph-name="daggerdbl" unicode="&#x2021;" horiz-adv-x="513" 
d="M466 72l-5 -26h-41l-131 4l-17 -15l-27 -154l-8 -43h-26l8 43l33 154l-11 15l-129 -4h-43l5 26h43l128 -4l14 13l71 362l-10 13l-132 -4h-41l5 26h41l131 -4l17 15l27 154l8 43h26l-8 -43l-33 -154l11 -15l129 4h43l-5 -26h-43l-128 4l-14 -13l-71 -362l10 -13l132 4h41z
" />
    <glyph glyph-name="bullet" unicode="&#x2022;" horiz-adv-x="163" 
d="M98 282q0 16 10.5 27t26.5 11t27 -11t11 -27t-11 -26.5t-27 -10.5t-26.5 10.5t-10.5 26.5z" />
    <glyph glyph-name="ellipsis" unicode="&#x2026;" horiz-adv-x="566" 
d="M82 19q0 12 6 20t14 8t14 -8t6 -20q0 -28 -20 -28t-20 28zM272 19q0 12 6 20t14 8t14 -8t6 -20q0 -28 -20 -28t-20 28zM462 19q0 12 6 20t14 8t14 -8t6 -20q0 -28 -20 -28t-20 28z" />
    <glyph glyph-name="perthousand" unicode="&#x2030;" horiz-adv-x="945" 
d="M374 599q0 -51 -17 -111t-47 -90q-32 -32 -81 -32q-41 0 -62 24.5t-21 68.5t17 103.5t43 87.5q35 37 86 37q40 0 61 -23t21 -65zM617 703h27l-467 -712h-27zM296 416q25 26 39.5 81.5t14.5 101.5q0 66 -61 66q-40 0 -66 -30q-22 -26 -37.5 -79.5t-15.5 -95.5
q0 -72 59 -72q40 0 67 28zM648 223q0 -51 -17 -111t-47 -90q-32 -32 -81 -32q-41 0 -62 24.5t-21 68.5t17 103.5t43 87.5q35 37 86 37q40 0 61 -23t21 -65zM570 40q25 26 39.5 81.5t14.5 101.5q0 66 -61 66q-40 0 -66 -30q-22 -26 -37.5 -79.5t-15.5 -95.5q0 -72 59 -72
q40 0 67 28zM918 223q0 -51 -17 -111t-47 -90q-32 -32 -81 -32q-41 0 -62 24.5t-21 68.5t17 103.5t43 87.5q35 37 86 37q40 0 61 -23t21 -65zM840 40q25 26 39.5 81.5t14.5 101.5q0 66 -61 66q-40 0 -66 -30q-22 -26 -37.5 -79.5t-15.5 -95.5q0 -72 59 -72q40 0 67 28z" />
    <glyph glyph-name="guilsinglleft" unicode="&#x2039;" horiz-adv-x="253" 
d="M178 27l-133 211l133 211h27l-133 -211l133 -211h-27z" />
    <glyph glyph-name="guilsinglright" unicode="&#x203a;" horiz-adv-x="253" 
d="M75 449l133 -211l-133 -211h-27l133 211l-133 211h27z" />
    <glyph glyph-name="fraction" unicode="&#x2044;" horiz-adv-x="266" 
d="M404 693h26l-437 -713h-26z" />
    <glyph glyph-name="zerosuperior" unicode="&#x2070;" horiz-adv-x="299" 
d="M113 441q0 53 19.5 121t48.5 96q33 33 82 33q42 0 65 -25t23 -66q0 -52 -19 -121t-50 -101q-32 -32 -82 -32q-41 0 -64 26t-23 69zM197 643q-24 -24 -42 -89t-18 -112q0 -74 66 -74q37 0 63 26q26 27 43.5 90t17.5 111q0 74 -70 74q-34 0 -60 -26z" />
    <glyph glyph-name="foursuperior" unicode="&#x2074;" horiz-adv-x="267" 
d="M320 455l-4 -22h-49l-16 -83h-24l16 83h-155l4 17l196 237h28l-44 -232h48zM289 656l-3 1q-20 -31 -38 -53l-123 -149h123l28 145z" />
    <glyph glyph-name="fivesuperior" unicode="&#x2075;" horiz-adv-x="241" 
d="M283 476q0 -60 -40 -100q-30 -30 -86 -30q-35 0 -63 14l9 20q29 -12 55 -12q45 0 71 25q31 29 31 83q0 52 -58 52q-15 0 -31.5 -3t-25.5 -6l-9 -3l-11 9l50 162h124l-4 -22h-103l-38 -123q24 8 52 8q34 0 55.5 -18.5t21.5 -55.5z" />
    <glyph glyph-name="sixsuperior" unicode="&#x2076;" horiz-adv-x="283" 
d="M219 619q-46 -39 -68 -90l1 -1q39 23 81 23q35 0 55 -19t20 -53q0 -51 -33 -92t-88 -41q-35 0 -56.5 23t-21.5 64q0 57 25 112.5t71 91.5q49 40 109 54l2 -22q-62 -21 -97 -50zM229 529q-44 0 -87 -27q-9 -32 -9 -69q0 -65 56 -65q41 0 68 31.5t27 79.5q0 50 -55 50z" />
    <glyph glyph-name="sevensuperior" unicode="&#x2077;" horiz-adv-x="187" 
d="M283 687l-3 -15l-185 -322h-27l181 312v3h-145l4 22h175z" />
    <glyph glyph-name="eightsuperior" unicode="&#x2078;" horiz-adv-x="265" 
d="M169 514l25 15v1l-5 4q-41 30 -41 67q0 38 28.5 64t71.5 26q35 0 54 -19.5t19 -44.5q0 -56 -56 -90l-23 -14v-1l7 -5q46 -34 46 -73q0 -43 -30 -70.5t-78 -27.5q-39 0 -60.5 21t-21.5 49q0 60 64 98zM236 499l-22 16l-37 -22q-48 -28 -48 -77q0 -21 16.5 -34.5
t43.5 -13.5q36 0 59 20.5t23 55.5q0 29 -35 55zM172 601q0 -27 27 -47l23 -17l33 20q42 25 42 67q0 19 -14 32t-37 13q-32 0 -53 -19.5t-21 -48.5z" />
    <glyph glyph-name="ninesuperior" unicode="&#x2079;" horiz-adv-x="283" 
d="M229 418q46 38 68 90l-1 1q-39 -23 -81 -23q-35 0 -55 20t-20 54q0 51 33 91t88 40q35 0 56.5 -23t21.5 -64q0 -57 -25 -112.5t-71 -91.5q-49 -40 -109 -54l-2 22q62 21 97 50zM219 508q43 0 87 27q9 31 9 69q0 65 -56 65q-41 0 -68 -30.5t-27 -78.5q0 -23 13.5 -37.5
t41.5 -14.5z" />
    <glyph glyph-name="parenleftsuperior" unicode="&#x207d;" horiz-adv-x="150" 
d="M119 427q0 152 107 290h22q-104 -158 -104 -290q0 -50 15 -116h-22q-18 65 -18 116z" />
    <glyph glyph-name="parenrightsuperior" unicode="&#x207e;" horiz-adv-x="152" 
d="M93 311h-22q88 151 88 268q0 68 -24 138h22q27 -66 27 -142q0 -133 -91 -264z" />
    <glyph glyph-name="zeroinferior" unicode="&#x2080;" horiz-adv-x="299" 
d="M53 41q0 53 19.5 121t48.5 96q33 33 82 33q42 0 65 -25t23 -66q0 -52 -19 -121t-50 -101q-32 -32 -82 -32q-41 0 -64 26t-23 69zM137 243q-24 -24 -42 -89t-18 -112q0 -74 66 -74q37 0 63 26q26 27 43.5 90t17.5 111q0 74 -70 74q-34 0 -60 -26z" />
    <glyph glyph-name="oneinferior" unicode="&#x2081;" horiz-adv-x="178" 
d="M108 -50h-24l58 298q1 4 -0.5 5t-5.5 -1l-57 -20l-3 17l83 38h14z" />
    <glyph glyph-name="twoinferior" unicode="&#x2082;" horiz-adv-x="277" 
d="M228 -28l-4 -22h-194l3 16l150 148q39 39 50 59t11 42q0 24 -15.5 39t-45.5 15q-35 0 -77 -19l-4 20q46 21 83 21q39 0 61 -21.5t22 -54.5q0 -24 -13 -49t-56 -68l-90 -89l-41 -37v-2q39 2 53 2h107z" />
    <glyph glyph-name="threeinferior" unicode="&#x2083;" horiz-adv-x="253" 
d="M181 131v-2q43 -19 43 -68t-33.5 -82t-93.5 -33q-45 0 -79 19l10 19q34 -16 69 -16q46 0 74.5 24.5t28.5 67.5q0 57 -78 57h-31l4 22h30q38 0 64 22t26 57q0 23 -15 37t-43 14q-30 0 -63 -14l-5 21q34 15 70 15q38 0 59 -21t21 -52q0 -60 -58 -87z" />
    <glyph glyph-name="fourinferior" unicode="&#x2084;" horiz-adv-x="267" 
d="M260 55l-4 -22h-49l-16 -83h-24l16 83h-155l4 17l196 237h28l-44 -232h48zM229 256l-3 1q-20 -31 -38 -53l-123 -149h123l28 143z" />
    <glyph glyph-name="fiveinferior" unicode="&#x2085;" horiz-adv-x="242" 
d="M223 76q0 -60 -40 -100q-30 -30 -86 -30q-35 0 -63 14l9 20q29 -12 55 -12q45 0 71 25q31 29 31 83q0 52 -58 52q-15 0 -31.5 -3t-25.5 -6l-9 -3l-11 9l50 162h124l-4 -22h-103l-38 -123q24 8 52 8q34 0 55.5 -18.5t21.5 -55.5z" />
    <glyph glyph-name="sixinferior" unicode="&#x2086;" horiz-adv-x="283" 
d="M159 219q-46 -39 -68 -90l1 -1q39 23 81 23q35 0 55 -19t20 -53q0 -51 -33 -92t-88 -41q-35 0 -56.5 23t-21.5 64q0 57 25 112.5t71 91.5q49 40 109 54l2 -22q-62 -21 -97 -50zM169 129q-44 0 -87 -27q-9 -32 -9 -69q0 -65 56 -65q41 0 68 31.5t27 79.5q0 50 -55 50z" />
    <glyph glyph-name="seveninferior" unicode="&#x2087;" horiz-adv-x="188" 
d="M223 287l-3 -15l-185 -322h-27l181 312v3h-145l4 22h175z" />
    <glyph glyph-name="eightinferior" unicode="&#x2088;" horiz-adv-x="265" 
d="M109 114l25 15v1l-5 4q-41 30 -41 67q0 38 28.5 64t71.5 26q35 0 54 -19.5t19 -44.5q0 -56 -56 -90l-23 -14v-1l7 -5q46 -34 46 -73q0 -43 -30 -70.5t-78 -27.5q-39 0 -60.5 21t-21.5 49q0 60 64 98zM176 99l-22 16l-37 -22q-48 -28 -48 -77q0 -21 16.5 -34.5t43.5 -13.5
q36 0 59 20.5t23 55.5q0 29 -35 55zM112 201q0 -27 27 -47l23 -17l33 20q42 25 42 67q0 19 -14 32t-37 13q-32 0 -53 -19.5t-21 -48.5z" />
    <glyph glyph-name="nineinferior" unicode="&#x2089;" horiz-adv-x="283" 
d="M169 18q46 38 68 90l-1 1q-39 -23 -81 -23q-35 0 -55 20t-20 54q0 51 33 91t88 40q35 0 56.5 -23t21.5 -64q0 -57 -25 -112.5t-71 -91.5q-49 -40 -109 -54l-2 22q62 21 97 50zM159 108q43 0 87 27q9 31 9 69q0 65 -56 65q-41 0 -68 -30.5t-27 -78.5q0 -23 13.5 -37.5
t41.5 -14.5z" />
    <glyph glyph-name="parenleftinferior" unicode="&#x208d;" horiz-adv-x="138" 
d="M74 27q0 152 107 290h22q-104 -158 -104 -290q0 -50 15 -116h-22q-18 65 -18 116z" />
    <glyph glyph-name="parenrightinferior" unicode="&#x208e;" horiz-adv-x="124" 
d="M2 -89h-22q88 151 88 268q0 68 -24 138h22q27 -66 27 -142q0 -133 -91 -264z" />
    <glyph glyph-name="colonmonetary" unicode="&#x20a1;" horiz-adv-x="484" 
d="M99 -43l43 97q-41 54 -41 137q0 70 14 150t48 162.5t82 123.5q74 62 180 64l38 85l20 -9l-34 -77q57 -3 103 -24l27 59l20 -9l-315 -708q7 -1 22 -1q79 0 151 32l4 -21q-69 -33 -155 -33q-11 0 -31 2l-40 -90l-20 9l37 84q-58 13 -94 47l-39 -89zM168 59q36 -39 93 -49
l283 636q-53 22 -105 23zM125 191q0 -67 28 -112l262 589q-90 -3 -155 -59q-46 -40 -78 -120t-44.5 -156t-12.5 -142z" />
    <glyph glyph-name="cruzeiro" unicode="&#x20a2;" horiz-adv-x="507" 
d="M467 39l4 -21q-69 -33 -155 -33q-93 0 -149 53t-56 153q0 70 14 150t48 162.5t82 123.5q75 64 187 64q69 0 129 -29l-9 -19q-57 26 -120 26q-103 0 -172 -60q-46 -40 -78 -120t-44.5 -156t-12.5 -142q0 -80 39 -127.5t112 -55.5l74 378h19l-11 -84l-4 -22h2q15 37 31 56
q48 59 131 59h6l-4 -22h-7q-72 0 -117.5 -58t-61.5 -137l-34 -171h6q79 0 151 32z" />
    <glyph glyph-name="franc" unicode="&#x20a3;" horiz-adv-x="433" 
d="M223 417l-23 -118h205l-5 -22h-204l-54 -277h-24l53 277h-76l5 22h76l23 118h-77l5 22h76l46 237h280l-4 -22h-256l-42 -215h205l-5 -22h-204z" />
    <glyph glyph-name="naira" unicode="&#x20a6;" horiz-adv-x="664" 
d="M117 394l4 22h81l50 260h23l104 -260h220l50 260h24l-50 -260h79l-4 -22h-80l-23 -118h80l-4 -22h-80l-49 -254h-23l-101 254h-224l-49 -254h-24l49 254h-80l4 22h80l23 118h-80zM221 394l-23 -118h211l-47 118h-141zM388 394l47 -118h136l23 118h-206zM249 536l-23 -120
h127l-59 149l-25 72h-2q-10 -58 -18 -101zM527 38q10 60 18 101l22 115h-124l50 -124l32 -92h2z" />
    <glyph glyph-name="peseta" unicode="&#x20a7;" horiz-adv-x="525" 
d="M125 472l4 22h82l35 182h141q64 0 102.5 -38.5t38.5 -113.5q0 -10 -2 -30h72l-4 -22h-71q-15 -84 -69 -131q-49 -42 -134 -42h-123l-58 -299h-24l91 472h-81zM266 654l-31 -160h267q2 20 2 30q0 130 -121 130h-117zM438 357q48 42 61 115h-269l-29 -151h119q76 0 118 36z
" />
    <glyph glyph-name="rupee" unicode="&#x20a8;" horiz-adv-x="833" 
d="M505 524q0 -118 -74 -183q-41 -35 -102 -41l97 -300h-25l-96 299h-138l-58 -299h-24l131 676h148q64 0 102.5 -38.5t38.5 -113.5zM415 357q66 57 66 167q0 130 -121 130h-124l-65 -333h126q76 0 118 36zM802 134q0 -59 -44.5 -101.5t-125.5 -42.5q-87 0 -146 51l13 17
q58 -46 133 -46q69 0 107.5 35t38.5 87q0 34 -18.5 56t-60.5 39l-67 28q-82 33 -83 100q-1 56 44 94.5t119 38.5q68 0 120 -33l-11 -18q-53 29 -109 29q-66 0 -102.5 -32t-36.5 -76q0 -27 15 -46t55 -36l69 -29q90 -37 90 -115z" />
    <glyph glyph-name="won" unicode="&#x20a9;" horiz-adv-x="888" 
d="M74 254l4 22h135l-11 118h-101l4 22h95l-24 260h24l23 -260h216l101 201h6l22 -201h215l125 260h25l-125 -260h94l-4 -22h-101l-56 -118h134l-4 -22h-141l-121 -254h-19l-28 254h-178l-127 -254h-19l-23 254h-141zM530 551q-22 -50 -45 -95l-90 -180h164l-19 179l-8 96
h-2zM225 394l11 -118h133l59 118h-203zM570 394l13 -118h132l57 118h-202zM256 42q25 57 54 116l48 96h-120l9 -95l7 -117h2zM608 42q24 60 52 118l45 94h-119l10 -94l10 -118h2z" />
    <glyph glyph-name="sheqel" unicode="&#x20aa;" horiz-adv-x="677" 
d="M462 133h-24l29 149q10 52 10 80q1 52 -30 74t-106 22h-158l-89 -458h-24l93 480h182q81 0 118 -27.5t37 -88.5q0 -36 -9 -82zM700 480h-24l-55 -282q-19 -100 -61 -138t-144 -38h-147l63 325h-24l-67 -347h173q105 0 157 42t74 156z" />
    <glyph glyph-name="Euro" unicode="&#x20ac;" horiz-adv-x="549" 
d="M93 395l8 22h89q40 149 112 210q75 64 187 64q69 0 129 -29l-9 -19q-57 26 -120 26q-103 0 -172 -60q-67 -58 -103 -192h289l-11 -22h-284q-15 -61 -21 -119h249l-10 -22h-241q-3 -34 -3 -63q0 -88 47 -136t134 -48q79 0 151 32l4 -21q-69 -33 -155 -33q-93 0 -149 53
t-56 153q0 29 3 63h-96l9 22h89q6 58 21 119h-91z" />
    <glyph glyph-name="litre" unicode="&#x2113;" horiz-adv-x="304" 
d="M39 196l-6 19l83 60l53 273q29 141 124 141q41 0 64 -25t23 -73q0 -159 -156 -270l-87 -62l-24 -124q-5 -27 -5 -47q0 -37 23 -56t79 -20l-7 -22q-61 2 -90 25t-29 73q0 23 7 56l19 98q-13 -9 -26 -17.5t-26 -16.5t-19 -12zM193 548l-39 -202l-11 -55h1q11 9 31 24l40 29
q141 102 141 245q0 78 -63 78q-76 0 -100 -119z" />
    <glyph glyph-name="trademark" unicode="&#x2122;" horiz-adv-x="737" 
d="M613 414l-106 204l-22 47l-4 -1q3 -30 3 -55v-247h-24v349h24l122 -234l17 -40h2q8 23 17 40l122 234h24v-349h-24v247l3 55l-4 1q-12 -28 -22 -47l-106 -204h-22zM379 711v-22h-116v-327h-24v327h-117v22h257z" />
    <glyph glyph-name="estimated" unicode="&#x212e;" horiz-adv-x="851" 
d="M735 347v190q0 13 -10 23q-98 98 -234 98q-138 0 -236 -101q-10 -10 -10 -24v-186q0 -5 5 -5h480q5 0 5 5zM876 322h-626q-5 0 -5 -4v-189q0 -13 9 -22q96 -102 237 -102q73 0 137.5 30.5t110.5 83.5h57q-53 -63 -133.5 -99t-172.5 -36q-160 0 -273.5 101.5t-113.5 245.5
t113.5 246t273.5 102t273 -102t113 -246v-9z" />
    <glyph glyph-name="onethird" unicode="&#x2153;" horiz-adv-x="549" 
d="M183 339h-24l58 298q1 4 -0.5 5t-5.5 -1l-57 -20l-3 17l83 38h14zM487 181v-2q43 -19 43 -68t-33.5 -82t-93.5 -33q-45 0 -79 19l10 19q34 -16 69 -16q46 0 74.5 24.5t28.5 67.5q0 57 -78 57h-31l4 22h30q38 0 64 22t26 57q0 23 -15 37t-43 14q-30 0 -63 -14l-5 21
q34 15 70 15q38 0 59 -21t21 -52q0 -60 -58 -87zM503 693h26l-437 -713h-26z" />
    <glyph glyph-name="twothirds" unicode="&#x2154;" horiz-adv-x="639" 
d="M303 361l-4 -22h-194l3 16l150 148q39 39 50 59t11 42q0 24 -15.5 39t-45.5 15q-35 0 -77 -19l-4 20q46 21 83 21q39 0 61 -21.5t22 -54.5q0 -24 -13 -49t-56 -68l-90 -89l-41 -37v-2q39 2 53 2h107zM585 693h26l-437 -713h-26zM577 179v-2q43 -19 43 -68t-33.5 -82
t-93.5 -33q-45 0 -79 19l10 19q34 -16 69 -16q46 0 74.5 24.5t28.5 67.5q0 57 -78 57h-31l4 22h30q38 0 64 22t26 57q0 23 -15 37t-43 14q-30 0 -63 -14l-5 21q34 15 70 15q38 0 59 -21t21 -52q0 -60 -58 -87z" />
    <glyph glyph-name="oneeighth" unicode="&#x215b;" horiz-adv-x="523" 
d="M183 339h-24l58 298q1 4 -0.5 5t-5.5 -1l-57 -20l-3 17l83 38h14zM372 164l25 15v1l-5 4q-41 30 -41 67q0 38 28.5 64t71.5 26q35 0 54 -19.5t19 -44.5q0 -56 -56 -90l-23 -14v-1l7 -5q46 -34 46 -73q0 -43 -30 -70.5t-78 -27.5q-39 0 -60.5 21t-21.5 49q0 60 64 98z
M439 149l-22 16l-37 -22q-48 -28 -48 -77q0 -21 16.5 -34.5t43.5 -13.5q36 0 59 20.5t23 55.5q0 29 -35 55zM375 251q0 -27 27 -47l23 -17l33 20q42 25 42 67q0 19 -14 32t-37 13q-32 0 -53 -19.5t-21 -48.5zM503 693h26l-437 -713h-26z" />
    <glyph glyph-name="threeeighths" unicode="&#x215c;" horiz-adv-x="575" 
d="M256 520v-2q43 -19 43 -68t-33.5 -82t-93.5 -33q-45 0 -79 19l10 19q34 -16 69 -16q46 0 74.5 24.5t28.5 67.5q0 57 -78 57h-31l4 22h30q38 0 64 22t26 57q0 23 -15 37t-43 14q-30 0 -63 -14l-5 21q34 15 70 15q38 0 59 -21t21 -52q0 -60 -58 -87zM429 164l25 15v1l-5 4
q-41 30 -41 67q0 38 28.5 64t71.5 26q35 0 54 -19.5t19 -44.5q0 -56 -56 -90l-23 -14v-1l7 -5q46 -34 46 -73q0 -43 -30 -70.5t-78 -27.5q-39 0 -60.5 21t-21.5 49q0 60 64 98zM496 149l-22 16l-37 -22q-48 -28 -48 -77q0 -21 16.5 -34.5t43.5 -13.5q36 0 59 20.5t23 55.5
q0 29 -35 55zM432 251q0 -27 27 -47l23 -17l33 20q42 25 42 67q0 19 -14 32t-37 13q-32 0 -53 -19.5t-21 -48.5zM546 693h26l-437 -713h-26z" />
    <glyph glyph-name="fiveeighths" unicode="&#x215d;" horiz-adv-x="575" 
d="M301 465q0 -60 -40 -100q-30 -30 -86 -30q-35 0 -63 14l9 20q29 -12 55 -12q45 0 71 25q31 29 31 83q0 52 -58 52q-15 0 -31.5 -3t-25.5 -6l-9 -3l-11 9l50 162h124l-4 -22h-103l-38 -123q24 8 52 8q34 0 55.5 -18.5t21.5 -55.5zM429 164l25 15v1l-5 4q-41 30 -41 67
q0 38 28.5 64t71.5 26q35 0 54 -19.5t19 -44.5q0 -56 -56 -90l-23 -14v-1l7 -5q46 -34 46 -73q0 -43 -30 -70.5t-78 -27.5q-39 0 -60.5 21t-21.5 49q0 60 64 98zM496 149l-22 16l-37 -22q-48 -28 -48 -77q0 -21 16.5 -34.5t43.5 -13.5q36 0 59 20.5t23 55.5q0 29 -35 55z
M432 251q0 -27 27 -47l23 -17l33 20q42 25 42 67q0 19 -14 32t-37 13q-32 0 -53 -19.5t-21 -48.5zM546 693h26l-437 -713h-26z" />
    <glyph glyph-name="seveneighths" unicode="&#x215e;" horiz-adv-x="497" 
d="M318 676l-3 -15l-185 -322h-27l181 312v3h-145l4 22h175zM351 164l25 15v1l-5 4q-41 30 -41 67q0 38 28.5 64t71.5 26q35 0 54 -19.5t19 -44.5q0 -56 -56 -90l-23 -14v-1l7 -5q46 -34 46 -73q0 -43 -30 -70.5t-78 -27.5q-39 0 -60.5 21t-21.5 49q0 60 64 98zM418 149
l-22 16l-37 -22q-48 -28 -48 -77q0 -21 16.5 -34.5t43.5 -13.5q36 0 59 20.5t23 55.5q0 29 -35 55zM354 251q0 -27 27 -47l23 -17l33 20q42 25 42 67q0 19 -14 32t-37 13q-32 0 -53 -19.5t-21 -48.5zM468 693h26l-437 -713h-26z" />
    <glyph glyph-name="partialdiff" unicode="&#x2202;" horiz-adv-x="420" 
d="M217 702l8 21q72 -22 117.5 -56.5t68 -86.5t30 -106t7.5 -134q0 -78 -25 -164t-73 -134q-52 -52 -133 -52q-68 0 -105.5 41t-37.5 109q0 82 27.5 172t78.5 133q55 45 131 45q36 0 67 -16.5t44 -43.5l1 1q-1 14 -4 34q-11 92 -57 150t-145 87zM424 340q0 62 -31.5 95
t-81.5 33q-68 0 -117 -41q-46 -38 -71 -124.5t-25 -162.5q0 -59 31 -93.5t88 -34.5q70 0 117 47q43 43 66.5 126t23.5 155z" />
    <glyph glyph-name="Delta" unicode="&#x2206;" horiz-adv-x="546" 
d="M521 22l-4 -22h-482l4 22l358 654h18zM498 24l-79 487l-18 129h-3q-36 -75 -66 -130l-267 -487v-1h433v2z" />
    <glyph glyph-name="product" unicode="&#x220f;" horiz-adv-x="595" 
d="M641 676l-131 -676h-24l127 654h-377l-127 -654h-24l131 676h425z" />
    <glyph glyph-name="summation" unicode="&#x2211;" horiz-adv-x="436" 
d="M25 0l309 364l-188 312h373l-4 -22h-330v-2q18 -27 31 -49l146 -242l-234 -276l-55 -61v-2h343l-5 -22h-386z" />
    <glyph glyph-name="minus" unicode="&#x2212;" horiz-adv-x="492" 
d="M500 251l-5 -22h-410l5 22h410z" />
    <glyph glyph-name="radical" unicode="&#x221a;" horiz-adv-x="405" 
d="M87 270l5 22h85l39 -207l7 -53h5q11 35 19 53l268 611h25l-305 -696h-26l-52 270h-70z" />
    <glyph glyph-name="infinity" unicode="&#x221e;" horiz-adv-x="619" 
d="M541 386q41 0 69 -25t28 -75q0 -71 -39 -132t-113 -61q-80 0 -115 82l-18 42h-2l-33 -41q-66 -83 -148 -83q-41 0 -69 25t-28 75q0 71 39 132t113 61q78 0 115 -82l18 -41h2l33 40q68 83 148 83zM539 364q-68 0 -128 -73l-42 -50l21 -53q29 -73 98 -73q60 0 93 52t33 118
q0 38 -20 58.5t-55 20.5zM172 115q68 0 128 73l43 53l-22 50q-32 73 -98 73q-60 0 -93 -52t-33 -118q0 -38 20 -58.5t55 -20.5z" />
    <glyph glyph-name="integral" unicode="&#x222b;" horiz-adv-x="178" 
d="M67 -104l108 682q11 71 43 102t96 31l41 -3l-7 -21q-19 2 -35 2q-53 0 -78 -24.5t-35 -85.5l-108 -682q-11 -71 -43 -102t-93 -31l-41 3l7 21q19 -2 35 -2q51 0 75.5 24.5t34.5 85.5z" />
    <glyph glyph-name="approxequal" unicode="&#x2248;" horiz-adv-x="494" 
d="M513 321l-5 -28q-55 -53 -109 -53q-47 0 -101 57q-19 20 -28 28t-25.5 17t-33.5 9q-52 0 -113 -59l5 28q55 53 109 53q21 0 40 -9t29 -18.5t32 -31.5q50 -52 86 -52q51 0 114 59zM487 186l-5 -28q-55 -53 -110 -53q-46 0 -100 57q-19 20 -28 28t-25.5 17t-33.5 9
q-54 0 -113 -59l5 28q53 53 108 53q21 0 40 -9t30 -18.5t32 -31.5q50 -52 86 -52q51 0 114 59z" />
    <glyph glyph-name="notequal" unicode="&#x2260;" horiz-adv-x="462" 
d="M78 64l99 96h-121l4 22h141l121 115h-239l4 22h257l100 97h32l-101 -97h122l-4 -22h-140l-120 -115h237l-4 -22h-257l-99 -96h-32z" />
    <glyph glyph-name="lessequal" unicode="&#x2264;" horiz-adv-x="494" 
d="M452 22l-4 -22h-403l4 22h403zM477 148l-4 -23l-364 208l5 26l445 208l-6 -28l-416 -194v-2z" />
    <glyph glyph-name="greaterequal" unicode="&#x2265;" horiz-adv-x="490" 
d="M45 0l4 22h403l-4 -22h-403zM68 125l5 27l416 195v2l-340 195l5 23l363 -208l-5 -26z" />
    <glyph glyph-name="lozenge" unicode="&#x25ca;" horiz-adv-x="510" 
d="M536 342l-265 -342h-12l-153 343l262 343h12zM295 65l215 280l-124 277l-14 36h-3q-10 -18 -24 -36l-214 -281l123 -276l15 -37h1q10 18 25 37z" />
    <glyph glyph-name="zero.tb" unicode="&#xf639;" 
d="M40 162q0 107 36 253t93 207q61 64 147 64q145 0 145 -172q0 -98 -37 -247t-92 -211q-59 -66 -148 -66q-65 0 -104.5 42.5t-39.5 129.5zM64 162q0 -76 32.5 -113t87.5 -37q77 0 130 59q47 53 85 196.5t38 246.5q0 150 -121 150q-78 0 -129 -56q-54 -58 -88.5 -200.5
t-34.5 -245.5z" />
    <glyph glyph-name="two.tb" unicode="&#xf63a;" 
d="M355 22l-4 -22h-361l4 19l271 269q99 97 131.5 146.5t32.5 107.5q0 55 -35.5 88.5t-91.5 33.5q-61 0 -141 -44l-10 19q81 47 151 47q68 0 109.5 -40.5t41.5 -103.5q0 -62 -35 -116t-136 -154l-186 -184l-68 -64v-2h327z" />
    <glyph glyph-name="three.tb" unicode="&#xf63b;" 
d="M380 225q0 -103 -59.5 -169t-156.5 -66q-86 0 -153 50l12 18q69 -46 141 -46q85 0 138.5 58.5t53.5 154.5q0 60 -35 95.5t-102 35.5h-57l4 22h53q72 0 119.5 44.5t47.5 127.5q0 51 -28 82.5t-81 31.5q-55 0 -113 -29l-8 20q60 31 121 31q64 0 98.5 -37.5t34.5 -98.5
q0 -138 -122 -181v-2q42 -14 67 -52t25 -90z" />
    <glyph glyph-name="four.tb" unicode="&#xf63c;" 
d="M392 638l-2 1q-21 -34 -38 -57l-285 -381h237l71 365zM427 201l-5 -22h-98l-35 -179h-24l35 179h-272l2 9l364 488h26l-92 -475h99z" />
    <glyph glyph-name="five.tb" unicode="&#xf63d;" 
d="M391 260q0 -69 -26.5 -133t-77.5 -101q-50 -36 -126 -36q-61 0 -119 25l9 20q52 -23 110 -23q67 0 114 34q45 32 68.5 93t23.5 121t-32.5 91t-90.5 31q-29 0 -61 -5t-49 -11l-18 -5l-7 6l88 304h223l-4 -22h-201l-76 -261q59 16 105 16q70 0 108.5 -39t38.5 -105z" />
    <glyph glyph-name="six.tb" unicode="&#xf63e;" 
d="M239 562q-85 -80 -132 -206h1q88 53 168 53q68 0 104 -39.5t36 -101.5q0 -66 -25 -132.5t-73 -105.5q-49 -40 -120 -40q-68 0 -109.5 44.5t-41.5 123.5q0 109 46.5 227t130.5 194q82 74 200 107l3 -22q-119 -37 -188 -102zM276 387q-42 0 -92.5 -18t-86.5 -44
q-26 -87 -26 -167q0 -67 34 -106.5t93 -39.5q63 0 107 36q42 33 64.5 95t22.5 125q0 55 -29.5 87t-86.5 32z" />
    <glyph glyph-name="seven.tb" unicode="&#xf63f;" 
d="M476 671l-3 -15l-348 -656h-27l347 649h-314l4 22h341z" />
    <glyph glyph-name="eight.tb" unicode="&#xf640;" 
d="M323 375l-34 -21v-1l28 -21q83 -61 83 -141q0 -89 -56.5 -145t-152.5 -56q-76 0 -113.5 38t-37.5 96q0 126 122 200l69 42v1l-23 17q-75 55 -75 126q0 74 51.5 125t139.5 51q56 0 94 -32.5t38 -91.5q0 -63 -32 -104t-101 -83zM303 313l-52 39l-77 -47q-110 -67 -110 -181
q0 -49 31.5 -80.5t99.5 -31.5q82 0 131.5 48t49.5 131q0 69 -73 122zM222 403l47 -35l44 27q61 37 90 72.5t29 94.5q0 49 -31.5 75.5t-80.5 26.5q-73 0 -118 -44.5t-45 -109.5q0 -59 65 -107z" />
    <glyph glyph-name="nine.tb" unicode="&#xf641;" 
d="M259 113q84 76 130 200l-2 2q-80 -48 -165 -48q-68 0 -104 39.5t-36 101.5q0 66 25 132.5t73 105.5q49 40 120 40q68 0 109.5 -44.5t41.5 -123.5q0 -109 -46.5 -228t-130.5 -195q-78 -70 -206 -105l-3 22q123 37 194 101zM222 289q43 0 92 16.5t86 41.5q27 88 27 171
q0 67 -34 106.5t-93 39.5q-62 0 -107 -36q-42 -33 -64.5 -95t-22.5 -125q0 -55 29.5 -87t86.5 -32z" />
    <glyph glyph-name="zero.ot" unicode="&#xf643;" 
d="M445 328q0 -74 -26 -150t-71 -123q-62 -65 -142 -65q-65 0 -108.5 48t-43.5 133q0 68 26 147t70 124q65 68 147 68q66 0 107 -48t41 -134zM421 328q0 75 -34 117.5t-90 42.5q-70 0 -129 -62q-41 -42 -65.5 -116.5t-24.5 -138.5q0 -75 36.5 -117t91.5 -42q68 0 124 59
q42 44 66.5 115.5t24.5 141.5z" />
    <glyph glyph-name="one.ot" unicode="&#xf644;" 
d="M47 0l4 22h172l87 448q1 4 -0.5 5t-5.5 -1l-151 -65l-7 19l182 82h14l-95 -488h175l-4 -22h-371z" />
    <glyph glyph-name="two.ot" unicode="&#xf645;" 
d="M362 22l-4 -22h-338l4 19l273 211q59 46 80 80.5t21 73.5q0 46 -32.5 75t-85.5 29q-67 0 -134 -36l-9 20q74 38 143 38q65 0 103.5 -36t38.5 -90q0 -43 -23.5 -83t-87.5 -89l-209 -161l-41 -29v-1q26 1 49 1h252z" />
    <glyph glyph-name="three.ot" unicode="&#xf646;" 
d="M364 59q0 -101 -59.5 -164t-156.5 -63q-89 0 -153 50l12 18q67 -46 141 -46q85 0 138.5 56t53.5 149q0 57 -35 92t-102 35h-57l4 22h53q72 0 119.5 43.5t47.5 123.5q0 49 -28 81t-81 32q-56 0 -118 -31l-8 20q64 33 126 33q63 0 98 -38t35 -97q0 -136 -122 -176v-2
q42 -14 67 -51t25 -87z" />
    <glyph glyph-name="four.ot" unicode="&#xf647;" 
d="M394 475l-2 1q-25 -38 -46 -65l-270 -349h235l64 329zM436 62l-5 -22h-100l-38 -194h-24l38 194h-271l2 9l357 461h27l-87 -448h101z" />
    <glyph glyph-name="five.ot" unicode="&#xf648;" 
d="M394 97q0 -68 -26 -129.5t-78 -98.5q-51 -37 -127 -37q-63 0 -118 25l9 20q52 -23 109 -23q67 0 114 34q45 32 69 91t24 118q0 60 -32.5 91t-90.5 31q-29 0 -61 -5.5t-50 -10.5l-17 -5l-7 6l86 296h223l-4 -22h-201l-74 -253q59 16 105 16q70 0 108.5 -39t38.5 -105z" />
    <glyph glyph-name="six.ot" unicode="&#xf649;" 
d="M249 531q-91 -78 -135 -198h1q90 54 169 54q68 0 104 -39.5t36 -101.5q0 -61 -24 -118.5t-71 -96.5q-50 -41 -120 -41q-68 0 -109 44.5t-41 123.5q0 106 45 211t130 179q81 70 198 102l3 -22q-113 -34 -186 -97zM284 365q-92 0 -180 -63q-21 -70 -21 -144
q0 -67 33.5 -106.5t92.5 -39.5q61 0 107 37q41 33 62.5 86t21.5 111q0 55 -29.5 87t-86.5 32z" />
    <glyph glyph-name="seven.ot" unicode="&#xf64a;" 
d="M449 500l-3 -15l-346 -643h-27l345 636h-330l4 22h357z" />
    <glyph glyph-name="eight.ot" unicode="&#xf64b;" 
d="M321 349l-26 -16v-1l28 -21q46 -35 65 -65.5t19 -69.5q0 -75 -56.5 -130.5t-148.5 -55.5q-72 0 -111 37.5t-39 94.5q0 104 124 183l63 40v1l-23 17q-75 55 -75 122q0 71 53.5 118.5t132.5 47.5q58 0 96.5 -34.5t38.5 -88.5q0 -57 -32.5 -94.5t-108.5 -84.5zM309 292
l-51 39l-69 -44q-60 -39 -86.5 -78t-26.5 -87t32 -79t98 -31q78 0 127.5 49t49.5 115q0 33 -17 59.5t-57 56.5zM230 382l46 -35l35 22q33 20 49 32t37.5 32t31 43t9.5 52q0 44 -31.5 72.5t-81.5 28.5q-69 0 -114.5 -40.5t-45.5 -103.5q0 -54 65 -103z" />
    <glyph glyph-name="nine.ot" unicode="&#xf64c;" 
d="M250 -48q91 76 133 210v1q-82 -59 -173 -59q-68 0 -104.5 39.5t-36.5 101.5q0 63 25.5 124t71.5 98q54 43 122 43t108 -44.5t40 -125.5q0 -64 -15 -133.5t-55.5 -146t-100.5 -126.5q-86 -71 -206 -102l-3 22q113 32 194 98zM210 126q95 0 183 68q19 76 19 146
q0 69 -32.5 108.5t-91.5 39.5q-61 0 -109 -39q-41 -33 -63.5 -88.5t-22.5 -115.5q0 -55 30 -87t87 -32z" />
    <glyph glyph-name="zero.denominator" unicode="&#xf655;" horiz-adv-x="299" 
d="M63 91q0 53 19.5 121t48.5 96q33 33 82 33q42 0 65 -25t23 -66q0 -52 -19 -121t-50 -101q-32 -32 -82 -32q-41 0 -64 26t-23 69zM147 293q-24 -24 -42 -89t-18 -112q0 -74 66 -74q37 0 63 26q26 27 43.5 90t17.5 111q0 74 -70 74q-34 0 -60 -26z" />
    <glyph glyph-name="one.denominator" unicode="&#xf656;" horiz-adv-x="178" 
d="M118 0h-24l58 298q1 4 -0.5 5t-5.5 -1l-57 -20l-3 17l83 38h14z" />
    <glyph glyph-name="two.denominator" unicode="&#xf657;" horiz-adv-x="277" 
d="M238 22l-4 -22h-194l3 16l150 148q39 39 50 59t11 42q0 24 -15.5 39t-45.5 15q-35 0 -77 -19l-4 20q46 21 83 21q39 0 61 -21.5t22 -54.5q0 -24 -13 -49t-56 -68l-90 -89l-41 -37v-2q39 2 53 2h107z" />
    <glyph glyph-name="three.denominator" unicode="&#xf658;" horiz-adv-x="252" 
d="M190 181v-2q43 -19 43 -68t-33.5 -82t-93.5 -33q-45 0 -79 19l10 19q34 -16 69 -16q46 0 74.5 24.5t28.5 67.5q0 57 -78 57h-31l4 22h30q38 0 64 22t26 57q0 23 -15 37t-43 14q-30 0 -63 -14l-5 21q34 15 70 15q38 0 59 -21t21 -52q0 -60 -58 -87z" />
    <glyph glyph-name="four.denominator" unicode="&#xf659;" horiz-adv-x="267" 
d="M270 105l-4 -22h-49l-16 -83h-24l16 83h-155l4 17l196 237h28l-44 -232h48zM239 306l-3 1q-20 -31 -38 -53l-123 -149h123l28 144z" />
    <glyph glyph-name="five.denominator" unicode="&#xf65a;" horiz-adv-x="241" 
d="M232 126q0 -60 -40 -100q-30 -30 -86 -30q-35 0 -63 14l9 20q29 -12 55 -12q45 0 71 25q31 29 31 83q0 52 -58 52q-15 0 -31.5 -3t-25.5 -6l-9 -3l-11 9l50 162h124l-4 -22h-103l-38 -123q24 8 52 8q34 0 55.5 -18.5t21.5 -55.5z" />
    <glyph glyph-name="six.denominator" unicode="&#xf65b;" horiz-adv-x="283" 
d="M169 269q-46 -39 -68 -90l1 -1q39 23 81 23q35 0 55 -19t20 -53q0 -51 -33 -92t-88 -41q-35 0 -56.5 23t-21.5 64q0 57 25 112.5t71 91.5q49 40 109 54l2 -22q-62 -21 -97 -50zM179 179q-44 0 -87 -27q-9 -32 -9 -69q0 -65 56 -65q41 0 68 31.5t27 79.5q0 50 -55 50z" />
    <glyph glyph-name="seven.denominator" unicode="&#xf65c;" horiz-adv-x="187" 
d="M232 337l-3 -15l-185 -322h-27l181 312v3h-145l4 22h175z" />
    <glyph glyph-name="eight.denominator" unicode="&#xf65d;" horiz-adv-x="265" 
d="M119 164l25 15v1l-5 4q-41 30 -41 67q0 38 28.5 64t71.5 26q35 0 54 -19.5t19 -44.5q0 -56 -56 -90l-23 -14v-1l7 -5q46 -34 46 -73q0 -43 -30 -70.5t-78 -27.5q-39 0 -60.5 21t-21.5 49q0 60 64 98zM186 149l-22 16l-37 -22q-48 -28 -48 -77q0 -21 16.5 -34.5
t43.5 -13.5q36 0 59 20.5t23 55.5q0 29 -35 55zM122 251q0 -27 27 -47l23 -17l33 20q42 25 42 67q0 19 -14 32t-37 13q-32 0 -53 -19.5t-21 -48.5z" />
    <glyph glyph-name="nine.denominator" unicode="&#xf65e;" horiz-adv-x="283" 
d="M179 68q46 38 68 90l-1 1q-39 -23 -81 -23q-35 0 -55 20t-20 54q0 51 33 91t88 40q35 0 56.5 -23t21.5 -64q0 -57 -25 -112.5t-71 -91.5q-49 -40 -109 -54l-2 22q62 21 97 50zM169 158q43 0 87 27q9 31 9 69q0 65 -56 65q-41 0 -68 -30.5t-27 -78.5q0 -23 13.5 -37.5
t41.5 -14.5z" />
    <glyph glyph-name="zero.numerator" unicode="&#xf661;" horiz-adv-x="299" 
d="M129 430q0 53 19.5 121t48.5 96q33 33 82 33q42 0 65 -25t23 -66q0 -52 -19 -121t-50 -101q-32 -32 -82 -32q-41 0 -64 26t-23 69zM213 632q-24 -24 -42 -89t-18 -112q0 -74 66 -74q37 0 63 26q26 27 43.5 90t17.5 111q0 74 -70 74q-34 0 -60 -26z" />
    <glyph glyph-name="one.numerator" unicode="&#xf662;" horiz-adv-x="177" 
d="M183 339h-24l58 298q1 4 -0.5 5t-5.5 -1l-57 -20l-3 17l83 38h14z" />
    <glyph glyph-name="two.numerator" unicode="&#xf663;" horiz-adv-x="276" 
d="M303 361l-4 -22h-194l3 16l150 148q39 39 50 59t11 42q0 24 -15.5 39t-45.5 15q-35 0 -77 -19l-4 20q46 21 83 21q39 0 61 -21.5t22 -54.5q0 -24 -13 -49t-56 -68l-90 -89l-41 -37v-2q39 2 53 2h107z" />
    <glyph glyph-name="three.numerator" unicode="&#xf664;" horiz-adv-x="252" 
d="M256 520v-2q43 -19 43 -68t-33.5 -82t-93.5 -33q-45 0 -79 19l10 19q34 -16 69 -16q46 0 74.5 24.5t28.5 67.5q0 57 -78 57h-31l4 22h30q38 0 64 22t26 57q0 23 -15 37t-43 14q-30 0 -63 -14l-5 21q34 15 70 15q38 0 59 -21t21 -52q0 -60 -58 -87z" />
    <glyph glyph-name="four.numerator" unicode="&#xf665;" horiz-adv-x="267" 
d="M336 444l-4 -22h-49l-16 -83h-24l16 83h-155l4 17l196 237h28l-44 -232h48zM305 645l-3 1q-20 -31 -38 -53l-123 -149h123l28 144z" />
    <glyph glyph-name="five.numerator" unicode="&#xf666;" horiz-adv-x="241" 
d="M298 465q0 -60 -40 -100q-30 -30 -86 -30q-35 0 -63 14l9 20q29 -12 55 -12q45 0 71 25q31 29 31 83q0 52 -58 52q-15 0 -31.5 -3t-25.5 -6l-9 -3l-11 9l50 162h124l-4 -22h-103l-38 -123q24 8 52 8q34 0 55.5 -18.5t21.5 -55.5z" />
    <glyph glyph-name="six.numerator" unicode="&#xf667;" horiz-adv-x="283" 
d="M235 608q-46 -39 -68 -90l1 -1q39 23 81 23q35 0 55 -19t20 -53q0 -51 -33 -92t-88 -41q-35 0 -56.5 23t-21.5 64q0 57 25 112.5t71 91.5q49 40 109 54l2 -22q-62 -21 -97 -50zM245 518q-44 0 -87 -27q-9 -32 -9 -69q0 -65 56 -65q41 0 68 31.5t27 79.5q0 50 -55 50z" />
    <glyph glyph-name="seven.numerator" unicode="&#xf668;" horiz-adv-x="187" 
d="M298 676l-3 -15l-185 -322h-27l181 312v3h-145l4 22h175z" />
    <glyph glyph-name="eight.numerator" unicode="&#xf669;" horiz-adv-x="265" 
d="M185 503l25 15v1l-5 4q-41 30 -41 67q0 38 28.5 64t71.5 26q35 0 54 -19.5t19 -44.5q0 -56 -56 -90l-23 -14v-1l7 -5q46 -34 46 -73q0 -43 -30 -70.5t-78 -27.5q-39 0 -60.5 21t-21.5 49q0 60 64 98zM252 488l-22 16l-37 -22q-48 -28 -48 -77q0 -21 16.5 -34.5
t43.5 -13.5q36 0 59 20.5t23 55.5q0 29 -35 55zM188 590q0 -28 27 -47l23 -17l33 20q42 25 42 67q0 19 -14 32t-37 13q-32 0 -53 -19.5t-21 -48.5z" />
    <glyph glyph-name="nine.numerator" unicode="&#xf66a;" horiz-adv-x="283" 
d="M244 407q46 38 68 90l-1 1q-39 -23 -81 -23q-35 0 -55 20t-20 54q0 51 33 91t88 40q35 0 56.5 -23t21.5 -64q0 -57 -25 -112.5t-71 -91.5q-49 -40 -109 -54l-2 22q62 21 97 50zM234 497q43 0 87 27q9 31 9 69q0 65 -56 65q-41 0 -68 -30.5t-27 -78.5q0 -23 13.5 -37.5
t41.5 -14.5z" />
    <glyph glyph-name="Abreve.sc" unicode="&#xf66d;" horiz-adv-x="399" 
d="M359 0l-21 148h-220l-76 -148h-25l268 520h23l74 -520h-23zM228 360l-98 -190h205l-28 195l-14 124h-3q-33 -73 -62 -129zM413 689h24q-9 -46 -45 -78t-91 -32q-53 0 -79.5 32t-18.5 78h24q-5 -36 13 -61t62 -25q45 0 73.5 25t37.5 61z" />
    <glyph glyph-name="Amacron.sc" unicode="&#xf66e;" horiz-adv-x="399" 
d="M359 0l-21 148h-220l-76 -148h-25l268 520h23l74 -520h-23zM228 360l-98 -190h205l-28 195l-14 124h-3q-33 -73 -62 -129zM422 633l-4 -22h-226l4 22h226z" />
    <glyph glyph-name="Aogonek.sc" unicode="&#xf66f;" horiz-adv-x="389" 
d="M391 -185l1 -20q-31 -11 -64 -11q-39 0 -61 19.5t-22 51.5q0 72 109 147l-21 146h-220l-76 -148h-25l268 520h23l74 -520q-108 -76 -108 -143q0 -22 15.5 -36.5t47.5 -14.5q13 0 27.5 2t22.5 4zM223 360l-98 -190h205l-28 195l-14 124h-3q-33 -73 -62 -129z" />
    <glyph glyph-name="Cacute.sc" unicode="&#xf671;" horiz-adv-x="395" 
d="M490 687q0 -9 -14 -20l-128 -102h-25l134 121q15 13 21 13q5 0 8.5 -4t3.5 -8zM448 512l-7 -19q-47 15 -88 15q-78 0 -130 -49q-45 -43 -73.5 -126.5t-28.5 -174.5q0 -146 136 -146q58 0 121 29l4 -21q-54 -30 -125 -30q-76 0 -118 42.5t-42 125.5q0 87 28 176t84 142
q57 54 144 54q55 0 95 -18z" />
    <glyph glyph-name="Ccaron.sc" unicode="&#xf672;" horiz-adv-x="395" 
d="M351 570l-106 105l14 16l96 -94h3l128 94l12 -18l-140 -103h-7zM448 512l-7 -19q-47 15 -88 15q-78 0 -130 -49q-45 -43 -73.5 -126.5t-28.5 -174.5q0 -146 136 -146q58 0 121 29l4 -21q-54 -30 -125 -30q-76 0 -118 42.5t-42 125.5q0 87 28 176t84 142q57 54 144 54
q55 0 95 -18z" />
    <glyph glyph-name="Ccircumflex.sc" unicode="&#xf673;" horiz-adv-x="395" 
d="M371 691l106 -105l-14 -16l-96 94h-3l-128 -94l-12 18l140 103h7zM448 512l-7 -19q-47 15 -88 15q-78 0 -130 -49q-45 -43 -73.5 -126.5t-28.5 -174.5q0 -146 136 -146q58 0 121 29l4 -21q-54 -30 -125 -30q-76 0 -118 42.5t-42 125.5q0 87 28 176t84 142q57 54 144 54
q55 0 95 -18z" />
    <glyph glyph-name="Cdotaccent.sc" unicode="&#xf674;" horiz-adv-x="395" 
d="M336 668q0 12 6 20t14 8t14 -8t6 -20q0 -28 -20 -28t-20 28zM448 512l-7 -19q-47 15 -88 15q-78 0 -130 -49q-45 -43 -73.5 -126.5t-28.5 -174.5q0 -146 136 -146q58 0 121 29l4 -21q-54 -30 -125 -30q-76 0 -118 42.5t-42 125.5q0 87 28 176t84 142q57 54 144 54
q55 0 95 -18z" />
    <glyph glyph-name="Dcaron.sc" unicode="&#xf675;" horiz-adv-x="479" 
d="M106 22h131q85 0 131 46q90 90 90 276q0 154 -154 154h-105zM482 344q0 -200 -100 -294q-55 -50 -146 -50h-158l101 520h127q84 0 130 -45t46 -131zM305 570l-106 105l14 16l96 -94h3l128 94l12 -18l-140 -103h-7z" />
    <glyph glyph-name="Dmacron.sc" unicode="&#xf676;" horiz-adv-x="479" 
d="M482 344q0 -200 -100 -294q-55 -50 -146 -50h-158l48 250h-54l4 22h55l48 248h127q84 0 130 -45t46 -131zM106 22h131q85 0 131 46q90 90 90 276q0 154 -154 154h-105l-44 -226h118l-4 -22h-119z" />
    <glyph glyph-name="Ebreve.sc" unicode="&#xf677;" horiz-adv-x="368" 
d="M354 22l-4 -22h-272l101 520h255l-4 -22h-231l-41 -212h157l-4 -22h-158l-47 -242h248zM427 686h24q-9 -46 -45 -78t-91 -32q-53 0 -79.5 32t-18.5 78h24q-5 -36 13 -61t62 -25q45 0 73.5 25t37.5 61z" />
    <glyph glyph-name="Ecaron.sc" unicode="&#xf678;" horiz-adv-x="368" 
d="M354 22l-4 -22h-272l101 520h255l-4 -22h-231l-41 -212h157l-4 -22h-158l-47 -242h248zM307 570l-106 105l14 16l96 -94h3l128 94l12 -18l-140 -103h-7z" />
    <glyph glyph-name="Edotaccent.sc" unicode="&#xf679;" horiz-adv-x="368" 
d="M354 22l-4 -22h-272l101 520h255l-4 -22h-231l-41 -212h157l-4 -22h-158l-47 -242h248zM294 668q0 12 6 20t14 8t14 -8t6 -20q0 -28 -20 -28t-20 28z" />
    <glyph glyph-name="Emacron.sc" unicode="&#xf67a;" horiz-adv-x="368" 
d="M354 22l-4 -22h-272l101 520h255l-4 -22h-231l-41 -212h157l-4 -22h-158l-47 -242h248zM437 633l-4 -22h-226l4 22h226z" />
    <glyph glyph-name="Eogonek.sc" unicode="&#xf67c;" horiz-adv-x="368" 
d="M354 22l-4 -22q-110 -78 -110 -143q0 -22 15.5 -36.5t47.5 -14.5q13 0 27.5 2t23.5 4l8 3l1 -20q-31 -11 -64 -11q-39 0 -61 19.5t-22 51.5q0 69 103 144v1h-241l101 520h255l-4 -22h-231l-41 -212h157l-4 -22h-158l-47 -242h248z" />
    <glyph glyph-name="Gbreve.sc" unicode="&#xf67d;" horiz-adv-x="491" 
d="M500 500l-9 -19q-54 27 -120 27q-84 0 -142 -50q-54 -47 -80.5 -126.5t-26.5 -153.5q0 -166 148 -166q78 0 152 51l35 179h-130l4 22h155l-42 -213q-83 -61 -174 -61q-86 0 -129.5 49.5t-43.5 138.5q0 69 26.5 155.5t90.5 141.5q65 55 157 55q73 0 129 -30zM489 687h24
q-9 -46 -45 -78t-91 -32q-53 0 -79.5 32t-18.5 78h24q-5 -36 13 -61t62 -25q45 0 73.5 25t37.5 61z" />
    <glyph glyph-name="Gcircumflex.sc" unicode="&#xf67e;" horiz-adv-x="491" 
d="M500 500l-9 -19q-54 27 -120 27q-84 0 -142 -50q-54 -47 -80.5 -126.5t-26.5 -153.5q0 -166 148 -166q78 0 152 51l35 179h-130l4 22h155l-42 -213q-83 -61 -174 -61q-86 0 -129.5 49.5t-43.5 138.5q0 69 26.5 155.5t90.5 141.5q65 55 157 55q73 0 129 -30zM389 691
l106 -105l-14 -16l-96 94h-3l-128 -94l-12 18l140 103h7z" />
    <glyph glyph-name="Gcommaaccent.sc" unicode="&#xf67f;" horiz-adv-x="491" 
d="M500 500l-9 -19q-54 27 -120 27q-84 0 -142 -50q-54 -47 -80.5 -126.5t-26.5 -153.5q0 -166 148 -166q78 0 152 51l35 179h-130l4 22h155l-42 -213q-83 -61 -174 -61q-86 0 -129.5 49.5t-43.5 138.5q0 69 26.5 155.5t90.5 141.5q65 55 157 55q73 0 129 -30zM230 -72
q0 12 6 20t14 8q20 0 20 -28q0 -14 -17 -58l-39 -98l-18 3l44 125v3q-10 8 -10 25z" />
    <glyph glyph-name="Gdotaccent.sc" unicode="&#xf680;" horiz-adv-x="491" 
d="M500 500l-9 -19q-54 27 -120 27q-84 0 -142 -50q-54 -47 -80.5 -126.5t-26.5 -153.5q0 -166 148 -166q78 0 152 51l35 179h-130l4 22h155l-42 -213q-83 -61 -174 -61q-86 0 -129.5 49.5t-43.5 138.5q0 69 26.5 155.5t90.5 141.5q65 55 157 55q73 0 129 -30zM357 668
q0 12 6 20t14 8t14 -8t6 -20q0 -28 -20 -28t-20 28z" />
    <glyph glyph-name="Hcircumflex.sc" unicode="&#xf682;" horiz-adv-x="526" 
d="M549 520l-101 -520h-24l51 263h-322l-51 -263h-24l101 520h24l-46 -235h322l46 235h24zM394 707l106 -105l-14 -16l-96 94h-3l-128 -94l-12 18l140 103h7z" />
    <glyph glyph-name="Imacron.sc" unicode="&#xf685;" horiz-adv-x="180" 
d="M203 520l-101 -520h-24l101 520h24zM319 633l-4 -22h-226l4 22h226z" />
    <glyph glyph-name="Iogonek.sc" unicode="&#xf686;" horiz-adv-x="180" 
d="M117 -185l1 -20q-31 -11 -64 -11q-39 0 -61 19.5t-22 51.5q0 72 107 147l101 518h24l-101 -520q-107 -77 -107 -143q0 -22 15.5 -36.5t47.5 -14.5q13 0 27.5 2t22.5 4z" />
    <glyph glyph-name="Jcircumflex.sc" unicode="&#xf688;" horiz-adv-x="228" 
d="M258 520l-66 -340q-19 -97 -63.5 -141.5t-127.5 -48.5l4 22q69 4 107.5 42.5t54.5 121.5l67 344h24zM265 667l106 -105l-14 -16l-96 94h-3l-128 -94l-12 18l140 103h7z" />
    <glyph glyph-name="Kcommaaccent.sc" unicode="&#xf689;" horiz-adv-x="419" 
d="M494 520l-249 -247l178 -273h-28l-171 263h-71l-51 -263h-24l101 520h24l-46 -235h68l237 235h32zM207 -72q0 12 6 20t14 8q20 0 20 -28q0 -14 -17 -58l-39 -98l-18 3l44 125v3q-10 8 -10 25z" />
    <glyph glyph-name="Lacute.sc" unicode="&#xf68a;" horiz-adv-x="335" 
d="M330 22l-4 -22h-248l101 520h24l-97 -498h224zM353 687q0 -9 -14 -20l-128 -102h-25l134 121q15 13 21 13q5 0 8.5 -4t3.5 -8z" />
    <glyph glyph-name="Lcaron.sc" unicode="&#xf68b;" horiz-adv-x="335" 
d="M330 22l-4 -22h-248l101 520h24l-97 -498h224zM299 502q0 12 6 20t14 8t14 -7.5t6 -18.5q0 -15 -18 -70l-30 -90l-17 4l36 126v3q-11 7 -11 25z" />
    <glyph glyph-name="Lcommaaccent.sc" unicode="&#xf68c;" horiz-adv-x="335" 
d="M330 22l-4 -22h-248l101 520h24l-97 -498h224zM189 -72q0 12 6 20t14 8q20 0 20 -28q0 -14 -17 -58l-39 -98l-18 3l44 125v3q-10 8 -10 25z" />
    <glyph glyph-name="Ldot.sc" unicode="&#xf68d;" horiz-adv-x="335" 
d="M330 22l-4 -22h-248l101 520h24l-97 -498h224zM236 270q0 12 6 20t14 8t14 -8t6 -20q0 -28 -20 -28t-20 28z" />
    <glyph glyph-name="Nacute.sc" unicode="&#xf68e;" horiz-adv-x="515" 
d="M538 520l-101 -520h-24l-191 423l-25 63h-2q-5 -32 -12 -71l-81 -415h-24l101 520h24l193 -426l23 -60h2q5 33 12 69l81 417h24zM508 687q0 -9 -14 -20l-128 -102h-25l134 121q15 13 21 13q5 0 8.5 -4t3.5 -8z" />
    <glyph glyph-name="Ncaron.sc" unicode="&#xf68f;" horiz-adv-x="515" 
d="M538 520l-101 -520h-24l-191 423l-25 63h-2q-5 -32 -12 -71l-81 -415h-24l101 520h24l193 -426l23 -60h2q5 33 12 69l81 417h24zM371 570l-106 105l14 16l96 -94h3l128 94l12 -18l-140 -103h-7z" />
    <glyph glyph-name="Ncommaaccent.sc" unicode="&#xf690;" horiz-adv-x="515" 
d="M538 520l-101 -520h-24l-191 423l-25 63h-2q-5 -32 -12 -71l-81 -415h-24l101 520h24l193 -426l23 -60h2q5 33 12 69l81 417h24zM226 -72q0 12 6 20t14 8q20 0 20 -28q0 -14 -17 -58l-39 -98l-18 3l44 125v3q-10 8 -10 25z" />
    <glyph glyph-name="Obreve.sc" unicode="&#xf691;" horiz-adv-x="509" 
d="M512 358q0 -88 -30.5 -182.5t-91.5 -142.5q-55 -43 -136 -43q-74 0 -115.5 44.5t-41.5 125.5q0 85 27.5 176.5t82.5 140.5q62 53 144 53q75 0 118 -47t43 -125zM488 358q0 64 -34 107t-103 43q-75 0 -128 -47q-50 -45 -76 -133.5t-26 -167.5q0 -70 35 -109t98 -39
q72 0 121 39q56 45 84.5 134t28.5 173zM483 686h24q-9 -46 -45 -78t-91 -32q-53 0 -79.5 32t-18.5 78h24q-5 -36 13 -61t62 -25q45 0 73.5 25t37.5 61z" />
    <glyph glyph-name="Ohungarumlaut.sc" unicode="&#xf692;" horiz-adv-x="509" 
d="M512 358q0 -88 -30.5 -182.5t-91.5 -142.5q-55 -43 -136 -43q-74 0 -115.5 44.5t-41.5 125.5q0 85 27.5 176.5t82.5 140.5q62 53 144 53q75 0 118 -47t43 -125zM488 358q0 64 -34 107t-103 43q-75 0 -128 -47q-50 -45 -76 -133.5t-26 -167.5q0 -70 35 -109t98 -39
q72 0 121 39q56 45 84.5 134t28.5 173zM457 687q0 -8 -14 -20l-130 -102h-19l129 121q13 13 22 13q12 0 12 -12zM579 687q0 -8 -14 -20l-130 -102h-19l129 121q13 13 22 13q12 0 12 -12z" />
    <glyph glyph-name="Omacron.sc" unicode="&#xf693;" horiz-adv-x="509" 
d="M512 358q0 -88 -30.5 -182.5t-91.5 -142.5q-55 -43 -136 -43q-74 0 -115.5 44.5t-41.5 125.5q0 85 27.5 176.5t82.5 140.5q62 53 144 53q75 0 118 -47t43 -125zM488 358q0 64 -34 107t-103 43q-75 0 -128 -47q-50 -45 -76 -133.5t-26 -167.5q0 -70 35 -109t98 -39
q72 0 121 39q56 45 84.5 134t28.5 173zM491 635l-4 -22h-226l4 22h226z" />
    <glyph glyph-name="Oslashacute.sc" unicode="&#xf694;" horiz-adv-x="509" 
d="M77 -8l48 60q-28 42 -28 108q0 85 27.5 176.5t82.5 140.5q62 53 144 53q74 0 118 -47l43 53l17 -14l-46 -57q29 -44 29 -107q0 -88 -30.5 -182.5t-91.5 -142.5q-55 -43 -136 -43q-74 0 -115 44l-45 -56zM121 160q0 -53 20 -88l313 392q-36 44 -103 44q-75 0 -128 -47
q-50 -45 -76 -133.5t-26 -167.5zM488 358q0 52 -21 87l-313 -392q35 -41 100 -41q72 0 121 39q56 45 84.5 134t28.5 173zM521 687q0 -9 -14 -20l-128 -102h-25l134 121q15 13 21 13q5 0 8.5 -4t3.5 -8z" />
    <glyph glyph-name="Racute.sc" unicode="&#xf695;" horiz-adv-x="403" 
d="M415 401q0 -41 -15.5 -81t-43.5 -62q-36 -29 -92 -32v-1l127 -225h-26l-127 226h-92l-44 -226h-24l101 520h113q56 0 89.5 -31.5t33.5 -87.5zM341 275q50 43 50 126q0 45 -26 71t-75 26h-91l-49 -250h104q55 0 87 27zM429 687q0 -9 -14 -20l-128 -102h-25l134 121
q15 13 21 13q5 0 8.5 -4t3.5 -8z" />
    <glyph glyph-name="Rcaron.sc" unicode="&#xf696;" horiz-adv-x="403" 
d="M415 401q0 -41 -15.5 -81t-43.5 -62q-36 -29 -92 -32v-1l127 -225h-26l-127 226h-92l-44 -226h-24l101 520h113q56 0 89.5 -31.5t33.5 -87.5zM341 275q50 43 50 126q0 45 -26 71t-75 26h-91l-49 -250h104q55 0 87 27zM284 570l-106 105l14 16l96 -94h3l128 94l12 -18
l-140 -103h-7z" />
    <glyph glyph-name="Rcommaaccent.sc" unicode="&#xf697;" horiz-adv-x="403" 
d="M415 401q0 -41 -15.5 -81t-43.5 -62q-36 -29 -92 -32v-1l127 -225h-26l-127 226h-92l-44 -226h-24l101 520h113q56 0 89.5 -31.5t33.5 -87.5zM341 275q50 43 50 126q0 45 -26 71t-75 26h-91l-49 -250h104q55 0 87 27zM199 -72q0 12 6 20t14 8q20 0 20 -28q0 -14 -17 -58
l-39 -98l-18 3l44 125v3q-10 8 -10 25z" />
    <glyph glyph-name="Sacute.sc" unicode="&#xf698;" horiz-adv-x="388" 
d="M371 138q0 -68 -44.5 -108t-114.5 -40q-82 0 -152 46l12 19q68 -43 140 -43q61 0 98 34.5t37 91.5q0 67 -81 106l-71 34q-78 38 -78 109q0 58 43 100.5t121 42.5q62 0 115 -32l-10 -19q-49 29 -105 29q-67 0 -103.5 -36.5t-36.5 -82.5q0 -60 66 -92l71 -34
q93 -44 93 -125zM431 687q0 -9 -14 -20l-128 -102h-25l134 121q15 13 21 13q5 0 8.5 -4t3.5 -8z" />
    <glyph glyph-name="Scedilla.sc" unicode="&#xf699;" horiz-adv-x="388" 
d="M294 -122q0 -44 -31.5 -69t-86.5 -25q-36 0 -77 11l6 19q37 -8 71 -8q94 0 94 72q0 35 -48 35h-66l31 78q-69 7 -127 45l12 19q68 -43 140 -43q61 0 98 34.5t37 91.5q0 67 -81 106l-71 34q-78 38 -78 109q0 58 43 100.5t121 42.5q62 0 115 -32l-10 -19q-49 29 -105 29
q-67 0 -103.5 -36.5t-36.5 -82.5q0 -60 66 -92l71 -34q93 -44 93 -125q0 -68 -44.5 -108t-114.5 -40h-2l-20 -55h33q37 0 54 -16.5t17 -40.5z" />
    <glyph glyph-name="Scircumflex.sc" unicode="&#xf69a;" horiz-adv-x="388" 
d="M371 138q0 -68 -44.5 -108t-114.5 -40q-82 0 -152 46l12 19q68 -43 140 -43q61 0 98 34.5t37 91.5q0 67 -81 106l-71 34q-78 38 -78 109q0 58 43 100.5t121 42.5q62 0 115 -32l-10 -19q-49 29 -105 29q-67 0 -103.5 -36.5t-36.5 -82.5q0 -60 66 -92l71 -34
q93 -44 93 -125zM304 691l106 -105l-14 -16l-96 94h-3l-128 -94l-12 18l140 103h7z" />
    <glyph glyph-name="Scommaaccent.sc" unicode="&#xf69b;" horiz-adv-x="388" 
d="M371 138q0 -68 -44.5 -108t-114.5 -40q-82 0 -152 46l12 19q68 -43 140 -43q61 0 98 34.5t37 91.5q0 67 -81 106l-71 34q-78 38 -78 109q0 58 43 100.5t121 42.5q62 0 115 -32l-10 -19q-49 29 -105 29q-67 0 -103.5 -36.5t-36.5 -82.5q0 -60 66 -92l71 -34
q93 -44 93 -125zM185 -72q0 12 6 20t14 8q20 0 20 -28q0 -14 -17 -58l-39 -98l-18 3l44 125v3q-10 8 -10 25z" />
    <glyph glyph-name="Tcaron.sc" unicode="&#xf69d;" horiz-adv-x="370" 
d="M456 520l-4 -22h-164l-97 -498h-24l97 498h-164l4 22h352zM289 568l-106 105l14 16l96 -94h3l128 94l12 -18l-140 -103h-7z" />
    <glyph glyph-name="Tcommaaccent.sc" unicode="&#xf69e;" horiz-adv-x="370" 
d="M456 520l-4 -22h-164l-97 -498h-24l97 498h-164l4 22h352zM157 -72q0 12 6 20t14 8q20 0 20 -28q0 -14 -17 -58l-39 -98l-18 3l44 125v3q-10 8 -10 25z" />
    <glyph glyph-name="Ubreve.sc" unicode="&#xf69f;" horiz-adv-x="471" 
d="M236 -10q-57 0 -97.5 32t-40.5 93q0 31 6 59l67 346h24l-68 -350q-6 -34 -6 -53q0 -48 31 -76.5t85 -28.5q141 0 172 157l68 351h24l-68 -350q-35 -180 -197 -180zM461 686h24q-9 -46 -45 -78t-91 -32q-53 0 -79.5 32t-18.5 78h24q-5 -36 13 -61t62 -25q45 0 73.5 25
t37.5 61z" />
    <glyph glyph-name="Uhungarumlaut.sc" unicode="&#xf6a0;" horiz-adv-x="471" 
d="M236 -10q-57 0 -97.5 32t-40.5 93q0 31 6 59l67 346h24l-68 -350q-6 -34 -6 -53q0 -48 31 -76.5t85 -28.5q141 0 172 157l68 351h24l-68 -350q-35 -180 -197 -180zM433 687q0 -8 -14 -20l-130 -102h-19l129 121q13 13 22 13q12 0 12 -12zM555 687q0 -8 -14 -20l-130 -102
h-19l129 121q13 13 22 13q12 0 12 -12z" />
    <glyph glyph-name="Umacron.sc" unicode="&#xf6a1;" horiz-adv-x="471" 
d="M236 -10q-57 0 -97.5 32t-40.5 93q0 31 6 59l67 346h24l-68 -350q-6 -34 -6 -53q0 -48 31 -76.5t85 -28.5q141 0 172 157l68 351h24l-68 -350q-35 -180 -197 -180zM474 635l-4 -22h-226l4 22h226z" />
    <glyph glyph-name="Uogonek.sc" unicode="&#xf6a2;" horiz-adv-x="477" 
d="M239 -10q-57 0 -97.5 32t-40.5 93q0 31 6 59l67 346h24l-68 -350q-6 -34 -6 -53q0 -48 31 -76.5t85 -28.5q141 0 172 157l68 351h24l-68 -350q-24 -124 -118 -166q-116 -81 -116 -147q0 -22 15.5 -36.5t47.5 -14.5q13 0 27.5 2t23.5 4l8 3l1 -20q-31 -11 -64 -11
q-39 0 -61 19.5t-22 51.5q0 67 92 136v1q-16 -2 -31 -2z" />
    <glyph glyph-name="Uring.sc" unicode="&#xf6a3;" horiz-adv-x="471" 
d="M236 -10q-57 0 -97.5 32t-40.5 93q0 31 6 59l67 346h24l-68 -350q-6 -34 -6 -53q0 -48 31 -76.5t85 -28.5q141 0 172 157l68 351h24l-68 -350q-35 -180 -197 -180zM424 670q0 30 -20.5 51.5t-50.5 21.5t-50.5 -21.5t-20.5 -51.5q0 -29 20.5 -49.5t50.5 -20.5t50.5 20.5
t20.5 49.5zM448 671q0 -38 -28.5 -66.5t-66.5 -28.5t-66.5 28.5t-28.5 66.5q0 39 28 67.5t67 28.5t67 -28.5t28 -67.5z" />
    <glyph glyph-name="Utilde.sc" unicode="&#xf6a4;" horiz-adv-x="471" 
d="M236 -10q-57 0 -97.5 32t-40.5 93q0 31 6 59l67 346h24l-68 -350q-6 -34 -6 -53q0 -48 31 -76.5t85 -28.5q141 0 172 157l68 351h24l-68 -350q-35 -180 -197 -180zM472 669h22q-8 -31 -29 -54t-56 -23q-22 0 -60.5 23t-56.5 23q-41 0 -62 -53h-21q9 31 30 54t55 23
q23 0 61 -23t56 -23q41 0 61 53z" />
    <glyph glyph-name="Wacute.sc" unicode="&#xf6a5;" horiz-adv-x="648" 
d="M399 417h-2q-26 -55 -51 -105l-158 -312h-19l-51 520h24l35 -361l8 -119h2q23 51 57 119l158 312h10l40 -312l12 -119h2q28 67 53 119l174 361h26l-250 -520h-19l-40 312zM547 687q0 -9 -14 -20l-128 -102h-25l134 121q15 13 21 13q5 0 8.5 -4t3.5 -8z" />
    <glyph glyph-name="Wcircumflex.sc" unicode="&#xf6a6;" horiz-adv-x="648" 
d="M399 417h-2q-26 -55 -51 -105l-158 -312h-19l-51 520h24l35 -361l8 -119h2q23 51 57 119l158 312h10l40 -312l12 -119h2q28 67 53 119l174 361h26l-250 -520h-19l-40 312zM434 687l106 -105l-14 -16l-96 94h-3l-128 -94l-12 18l140 103h7z" />
    <glyph glyph-name="Wdieresis.sc" unicode="&#xf6a7;" horiz-adv-x="648" 
d="M399 417h-2q-26 -55 -51 -105l-158 -312h-19l-51 520h24l35 -361l8 -119h2q23 51 57 119l158 312h10l40 -312l12 -119h2q28 67 53 119l174 361h26l-250 -520h-19l-40 312zM322 668q0 12 6 20t14 8t14 -8t6 -20q0 -28 -20 -28t-20 28zM480 668q0 12 6 20t14 8t14 -8t6 -20
q0 -28 -20 -28t-20 28z" />
    <glyph glyph-name="Wgrave.sc" unicode="&#xf6a8;" horiz-adv-x="648" 
d="M399 417h-2q-26 -55 -51 -105l-158 -312h-19l-51 520h24l35 -361l8 -119h2q23 51 57 119l158 312h10l40 -312l12 -119h2q28 67 53 119l174 361h26l-250 -520h-19l-40 312zM282 686q0 13 13 13q8 0 20 -13l115 -121h-25l-109 102q-14 13 -14 19z" />
    <glyph glyph-name="Ycircumflex.sc" unicode="&#xf6a9;" horiz-adv-x="403" 
d="M245 234h2q29 45 60 89l140 197h27l-220 -309l-41 -211h-24l42 215l-113 305h24l73 -197zM319 687l106 -105l-14 -16l-96 94h-3l-128 -94l-12 18l140 103h7z" />
    <glyph glyph-name="Ygrave.sc" unicode="&#xf6aa;" horiz-adv-x="403" 
d="M245 234h2q29 45 60 89l140 197h27l-220 -309l-41 -211h-24l42 215l-113 305h24l73 -197zM162 686q0 13 13 13q8 0 20 -13l115 -121h-25l-109 102q-14 13 -14 19z" />
    <glyph glyph-name="Zacute.sc" unicode="&#xf6ab;" horiz-adv-x="375" 
d="M351 22l-4 -22h-321l343 453l36 44v1h-259l4 22h298l-349 -461l-30 -36v-1h282zM438 687q0 -9 -14 -20l-128 -102h-25l134 121q15 13 21 13q5 0 8.5 -4t3.5 -8z" />
    <glyph glyph-name="Zdotaccent.sc" unicode="&#xf6ac;" horiz-adv-x="375" 
d="M351 22l-4 -22h-321l343 453l36 44v1h-259l4 22h298l-349 -461l-30 -36v-1h282zM282 668q0 12 6 20t14 8t14 -8t6 -20q0 -28 -20 -28t-20 28z" />
    <glyph glyph-name="Idotaccent.sc" unicode="&#xf6ad;" horiz-adv-x="180" 
d="M203 520l-101 -520h-24l101 520h24zM187 668q0 12 6 20t14 8t14 -8t6 -20q0 -28 -20 -28t-20 28z" />
    <glyph glyph-name="Germandbls.sc" unicode="&#xf6be;" horiz-adv-x="770" 
d="M753 138q0 -68 -44.5 -108t-114.5 -40q-82 0 -152 46l12 19q68 -43 140 -43q61 0 98 34.5t37 91.5q0 67 -81 106l-71 34q-78 38 -78 109q0 58 43 100.5t121 42.5q62 0 115 -32l-10 -19q-49 29 -105 29q-67 0 -103.5 -36.5t-36.5 -82.5q0 -60 66 -92l71 -34
q93 -44 93 -125zM371 138q0 -68 -44.5 -108t-114.5 -40q-82 0 -152 46l12 19q68 -43 140 -43q61 0 98 34.5t37 91.5q0 67 -81 106l-71 34q-78 38 -78 109q0 58 43 100.5t121 42.5q62 0 115 -32l-10 -19q-49 29 -105 29q-67 0 -103.5 -36.5t-36.5 -82.5q0 -60 66 -92l71 -34
q93 -44 93 -125z" />
    <glyph glyph-name="commaaccent" unicode="&#xf6c3;" horiz-adv-x="470" 
d="M223 -72q0 12 6 20t14 8q20 0 20 -28q0 -14 -17 -58l-39 -98l-18 3l44 125v3q-10 8 -10 25z" />
    <glyph glyph-name="dblgrave" unicode="&#xf6d6;" horiz-adv-x="470" 
d="M73 657q0 12 12 12q8 0 21 -14l109 -121h-19l-109 102q-14 13 -14 21zM195 657q0 12 12 12q8 0 21 -14l109 -121h-19l-109 102q-14 13 -14 21z" />
    <glyph glyph-name="one.tb" unicode="&#xf6dc;" 
d="M39 0l4 22h172l119 614q1 4 -0.5 5t-5.5 -1l-151 -65l-7 19l182 82h14l-127 -654h175l-4 -22h-371z" />
    <glyph glyph-name="rupiah" unicode="&#xf6dd;" horiz-adv-x="919" 
d="M505 524q0 -118 -74 -183q-41 -35 -102 -41l97 -300h-25l-96 299h-138l-58 -299h-24l131 676h148q64 0 102.5 -38.5t38.5 -113.5zM415 357q66 57 66 167q0 130 -121 130h-124l-65 -333h126q76 0 118 36zM694 -10q-42 0 -82 18.5t-64 46.5l-55 -282h-24l137 707h19
l-11 -84l-5 -23h2q9 19 25 39q61 78 149 78q62 0 98.5 -40t36.5 -110q0 -87 -24.5 -168t-70.5 -127q-55 -55 -131 -55zM785 468q-70 0 -124.5 -58t-68.5 -128l-39 -202q22 -28 60.5 -48t80.5 -20q67 0 114 49q43 45 65.5 123t22.5 156q0 61 -29.5 94.5t-81.5 33.5z" />
    <glyph glyph-name="Lslash.sc" unicode="&#xf6f9;" horiz-adv-x="335" 
d="M330 22l-4 -22h-248l41 210l5 20h-1q-9 -6 -19 -11l-58 -30l4 25l77 39l52 267h24l-45 -231l-6 -23l1 -1q11 7 22 13l101 52l-5 -25l-122 -63l-43 -220h224z" />
    <glyph glyph-name="OE.sc" unicode="&#xf6fa;" horiz-adv-x="683" 
d="M512 358q0 -30 -5 -72h143l-4 -22h-143q-28 -164 -113 -231q-5 -4 -15 -10v-1h294l-4 -22h-339q-37 -10 -72 -10q-74 0 -115.5 44.5t-41.5 125.5q0 85 27.5 176.5t82.5 140.5q62 53 144 53q31 0 61 -10h337l-4 -22h-291v-1q58 -47 58 -139zM488 358q0 64 -34 107t-103 43
q-75 0 -128 -47q-50 -45 -76 -133.5t-26 -167.5q0 -70 35 -109t98 -39q72 0 121 39q56 45 84.5 134t28.5 173z" />
    <glyph glyph-name="Scaron.sc" unicode="&#xf6fd;" horiz-adv-x="388" 
d="M371 138q0 -68 -44.5 -108t-114.5 -40q-82 0 -152 46l12 19q68 -43 140 -43q61 0 98 34.5t37 91.5q0 67 -81 106l-71 34q-78 38 -78 109q0 58 43 100.5t121 42.5q62 0 115 -32l-10 -19q-49 29 -105 29q-67 0 -103.5 -36.5t-36.5 -82.5q0 -60 66 -92l71 -34
q93 -44 93 -125zM278 571l-106 105l14 16l96 -94h3l128 94l12 -18l-140 -103h-7z" />
    <glyph glyph-name="Zcaron.sc" unicode="&#xf6ff;" horiz-adv-x="375" 
d="M351 22l-4 -22h-321l343 453l36 44v1h-259l4 22h298l-349 -461l-30 -36v-1h282zM298 570l-106 105l14 16l96 -94h3l128 94l12 -18l-140 -103h-7z" />
    <glyph glyph-name="exclam.sc" unicode="&#xf721;" horiz-adv-x="161" 
d="M187 507l-65 -314h-18l56 319q4 20 18 20q11 0 11 -11q0 -4 -2 -14zM62 19q0 12 6 20t14 8t14 -8t6 -20q0 -28 -20 -28t-20 28z" />
    <glyph glyph-name="ampersand.sc" unicode="&#xf726;" horiz-adv-x="435" 
d="M451 0h-29l-62 78q-51 -88 -149 -88q-64 0 -100 36t-36 93q0 92 63 140q26 20 57 29v1q-33 42 -33 89q0 38 17.5 72t48.5 53q43 27 100 27q44 0 81 -15l-8 -21q-37 13 -75 13q-53 0 -87 -24q-25 -18 -39 -46.5t-14 -58.5q0 -40 31 -80l138 -176h1q6 16 11 42l27 142h81
l-4 -22h-57l-23 -120q-6 -32 -19 -64zM211 12q89 0 134 86l-135 172q-39 -10 -62 -31q-49 -44 -49 -120q0 -48 29.5 -77.5t82.5 -29.5z" />
    <glyph glyph-name="zerooldstyle" unicode="&#xf730;" horiz-adv-x="495" 
d="M491 328q0 -74 -26 -150t-71 -123q-62 -65 -142 -65q-65 0 -108.5 48t-43.5 133q0 68 26 147t70 124q65 68 147 68q66 0 107 -48t41 -134zM467 328q0 75 -34 117.5t-90 42.5q-70 0 -129 -62q-41 -42 -65.5 -116.5t-24.5 -138.5q0 -75 36.5 -117t91.5 -42q68 0 124 59
q42 44 66.5 115.5t24.5 141.5z" />
    <glyph glyph-name="oneoldstyle" unicode="&#xf731;" horiz-adv-x="243" 
d="M163 0h-24l91 469q1 4 -0.5 5t-5.5 -1l-103 -44l-7 19l134 62h14z" />
    <glyph glyph-name="twooldstyle" unicode="&#xf732;" horiz-adv-x="407" 
d="M362 22l-4 -22h-338l4 19l273 211q59 45 80 80t21 74q0 46 -32.5 75t-85.5 29q-67 0 -134 -36l-9 20q74 38 143 38q65 0 103.5 -36t38.5 -90q0 -43 -23.5 -83t-87.5 -89l-209 -161l-41 -29v-1q26 1 49 1h252z" />
    <glyph glyph-name="threeoldstyle" unicode="&#xf733;" horiz-adv-x="399" 
d="M358 59q0 -101 -59.5 -164t-156.5 -63q-89 0 -153 50l12 18q67 -46 141 -46q85 0 138.5 56t53.5 149q0 57 -35 92t-102 35h-57l4 22h53q72 0 119.5 43.5t47.5 123.5q0 49 -28 81t-81 32q-56 0 -118 -31l-8 20q64 33 126 33q63 0 98 -38t35 -97q0 -136 -122 -176v-2
q42 -14 67 -51t25 -87z" />
    <glyph glyph-name="fouroldstyle" unicode="&#xf734;" horiz-adv-x="419" 
d="M373 475l-2 1q-28 -44 -44 -65l-262 -349h225l64 329zM415 62l-5 -22h-100l-38 -194h-24l38 194h-261l2 9l347 461h27l-87 -448h101z" />
    <glyph glyph-name="fiveoldstyle" unicode="&#xf735;" horiz-adv-x="419" 
d="M395 97q0 -68 -26 -129.5t-78 -98.5q-51 -37 -127 -37q-63 0 -118 25l9 20q52 -23 109 -23q67 0 114 34q45 32 69 91t24 118q0 60 -32.5 91t-90.5 31q-29 0 -61 -5.5t-49 -10.5l-18 -5l-7 6l86 296h223l-4 -22h-201l-74 -253q59 16 105 16q70 0 108.5 -39t38.5 -105z" />
    <glyph glyph-name="sixoldstyle" unicode="&#xf736;" horiz-adv-x="469" 
d="M278 531q-91 -78 -135 -198h1q90 54 169 54q68 0 104 -39.5t36 -101.5q0 -61 -24 -118.5t-71 -96.5q-50 -41 -120 -41q-68 0 -109 44.5t-41 123.5q0 106 45 211t130 179q81 70 198 102l3 -22q-113 -34 -186 -97zM313 365q-92 0 -180 -63q-21 -70 -21 -144
q0 -67 33.5 -106.5t92.5 -39.5q61 0 107 37q41 33 62.5 86t21.5 111q0 55 -29.5 87t-86.5 32z" />
    <glyph glyph-name="sevenoldstyle" unicode="&#xf737;" horiz-adv-x="314" 
d="M391 500l-3 -15l-345 -643h-27l344 636h-266l4 22h293z" />
    <glyph glyph-name="eightoldstyle" unicode="&#xf738;" horiz-adv-x="456" 
d="M347 349l-26 -16v-1l28 -21q47 -35 66 -65.5t19 -69.5q0 -75 -57 -130.5t-149 -55.5q-72 0 -112 38t-40 94q0 103 126 183l63 40v1l-23 17q-76 55 -76 122q0 71 54 118.5t133 47.5q58 0 97 -35t39 -88q0 -57 -32.5 -94t-109.5 -85zM335 292l-51 39l-69 -44
q-60 -39 -87.5 -78.5t-27.5 -86.5q0 -48 32.5 -79t99.5 -31q78 0 128 49t50 115q0 32 -17.5 58.5t-57.5 57.5zM256 382l46 -35l35 22q33 21 49 32t38 31.5t31.5 43.5t9.5 52q0 44 -32 72.5t-82 28.5q-69 0 -115 -40.5t-46 -103.5q0 -53 66 -103z" />
    <glyph glyph-name="nineoldstyle" unicode="&#xf739;" horiz-adv-x="473" 
d="M294 -48q91 76 133 210v1q-82 -59 -173 -59q-68 0 -104.5 39.5t-36.5 101.5q0 63 25.5 124t71.5 98q54 43 122 43t108 -44.5t40 -125.5q0 -64 -15 -133.5t-55.5 -146t-100.5 -126.5q-86 -71 -206 -102l-3 22q113 32 194 98zM254 126q95 0 183 68q19 76 19 146
q0 69 -32.5 108.5t-91.5 39.5q-61 0 -109 -39q-41 -33 -63.5 -88.5t-22.5 -115.5q0 -55 30 -87t87 -32z" />
    <glyph glyph-name="question.sc" unicode="&#xf73f;" horiz-adv-x="279" 
d="M325 433q0 -43 -24.5 -72.5t-82.5 -59.5q-43 -22 -54 -34t-20 -46l-19 -79h-20l15 78q10 42 23.5 58.5t65.5 42.5q53 27 72.5 51.5t19.5 60.5q0 32 -21.5 53.5t-63.5 21.5q-49 0 -100 -20l-4 19q57 23 104 23q52 0 80.5 -28.5t28.5 -68.5zM73 19q0 12 6 20t14 8t14 -8
t6 -20q0 -28 -20 -28t-20 28z" />
    <glyph glyph-name="A.sc" unicode="&#xf761;" horiz-adv-x="399" 
d="M359 0l-21 148h-220l-76 -148h-25l268 520h23l74 -520h-23zM228 360l-98 -190h205l-28 195l-14 124h-3q-33 -73 -62 -129z" />
    <glyph glyph-name="B.sc" unicode="&#xf762;" horiz-adv-x="442" 
d="M106 22h133q77 0 118.5 42t41.5 106q0 90 -113 90h-133zM157 282h129q59 0 95.5 35.5t36.5 94.5q0 40 -25.5 63t-72.5 23h-121zM423 170q0 -72 -49 -121t-139 -49h-157l101 520h144q54 0 86.5 -29.5t32.5 -78.5q0 -50 -24 -86t-65 -53v-1q70 -23 70 -102z" />
    <glyph glyph-name="C.sc" unicode="&#xf763;" horiz-adv-x="395" 
d="M448 512l-7 -19q-47 15 -88 15q-78 0 -130 -49q-45 -43 -73.5 -126.5t-28.5 -174.5q0 -146 136 -146q58 0 121 29l4 -21q-54 -30 -125 -30q-76 0 -118 42.5t-42 125.5q0 87 28 176t84 142q57 54 144 54q55 0 95 -18z" />
    <glyph glyph-name="D.sc" unicode="&#xf764;" horiz-adv-x="479" 
d="M106 22h131q85 0 131 46q90 90 90 276q0 154 -154 154h-105zM482 344q0 -200 -100 -294q-55 -50 -146 -50h-158l101 520h127q84 0 130 -45t46 -131z" />
    <glyph glyph-name="E.sc" unicode="&#xf765;" horiz-adv-x="368" 
d="M354 22l-4 -22h-272l101 520h255l-4 -22h-231l-41 -212h157l-4 -22h-158l-47 -242h248z" />
    <glyph glyph-name="F.sc" unicode="&#xf766;" horiz-adv-x="337" 
d="M423 520l-5 -22h-219l-41 -212h166l-4 -22h-167l-51 -264h-24l101 520h244z" />
    <glyph glyph-name="G.sc" unicode="&#xf767;" horiz-adv-x="491" 
d="M500 500l-9 -19q-54 27 -120 27q-84 0 -142 -50q-54 -47 -80.5 -126.5t-26.5 -153.5q0 -166 148 -166q78 0 152 51l35 179h-130l4 22h155l-42 -213q-83 -61 -174 -61q-86 0 -129.5 49.5t-43.5 138.5q0 69 26.5 155.5t90.5 141.5q65 55 157 55q73 0 129 -30z" />
    <glyph glyph-name="H.sc" unicode="&#xf768;" horiz-adv-x="526" 
d="M549 520l-101 -520h-24l51 263h-322l-51 -263h-24l101 520h24l-46 -235h322l46 235h24z" />
    <glyph glyph-name="I.sc" unicode="&#xf769;" horiz-adv-x="180" 
d="M203 520l-101 -520h-24l101 520h24z" />
    <glyph glyph-name="J.sc" unicode="&#xf76a;" horiz-adv-x="228" 
d="M258 520l-66 -340q-19 -97 -63.5 -141.5t-127.5 -48.5l4 22q69 4 107.5 42.5t54.5 121.5l67 344h24z" />
    <glyph glyph-name="K.sc" unicode="&#xf76b;" horiz-adv-x="419" 
d="M494 520l-249 -247l178 -273h-28l-171 263h-71l-51 -263h-24l101 520h24l-46 -235h68l237 235h32z" />
    <glyph glyph-name="L.sc" unicode="&#xf76c;" horiz-adv-x="335" 
d="M330 22l-4 -22h-248l101 520h24l-97 -498h224z" />
    <glyph glyph-name="M.sc" unicode="&#xf76d;" horiz-adv-x="600" 
d="M310 69l-94 331l-20 81h-3q-7 -49 -15 -89l-76 -392h-24l101 520h26l116 -408h2l272 408h28l-101 -520h-24l76 391l20 90h-3q-35 -59 -53 -86l-217 -326h-11z" />
    <glyph glyph-name="N.sc" unicode="&#xf76e;" horiz-adv-x="515" 
d="M538 520l-101 -520h-24l-191 423l-25 63h-2q-5 -32 -12 -71l-81 -415h-24l101 520h24l193 -426l23 -60h2q5 33 12 69l81 417h24z" />
    <glyph glyph-name="O.sc" unicode="&#xf76f;" horiz-adv-x="509" 
d="M512 358q0 -88 -30.5 -182.5t-91.5 -142.5q-55 -43 -136 -43q-74 0 -115.5 44.5t-41.5 125.5q0 85 27.5 176.5t82.5 140.5q62 53 144 53q75 0 118 -47t43 -125zM488 358q0 64 -34 107t-103 43q-75 0 -128 -47q-50 -45 -76 -133.5t-26 -167.5q0 -70 35 -109t98 -39
q72 0 121 39q56 45 84.5 134t28.5 173z" />
    <glyph glyph-name="P.sc" unicode="&#xf770;" horiz-adv-x="390" 
d="M341 275q50 43 50 126q0 45 -26 71t-75 26h-91l-49 -250h104q55 0 87 27zM415 401q0 -41 -15.5 -81t-43.5 -62q-39 -32 -105 -32h-105l-44 -226h-24l101 520h113q56 0 89.5 -31.5t33.5 -87.5z" />
    <glyph glyph-name="Q.sc" unicode="&#xf771;" horiz-adv-x="509" 
d="M388 -64l-36 74q-45 -20 -98 -20q-74 0 -115.5 44.5t-41.5 125.5q0 85 27.5 176.5t82.5 140.5q62 53 144 53q75 0 118 -47t43 -125q0 -88 -30.5 -182.5t-91.5 -142.5l-20 -14l36 -74zM488 358q0 64 -34 107t-103 43q-75 0 -128 -47q-50 -45 -76 -133.5t-26 -167.5
q0 -70 35 -109t98 -39q53 0 88 18l-38 79l18 9l38 -77h1q9 6 14 10q54 42 83.5 129.5t29.5 177.5z" />
    <glyph glyph-name="R.sc" unicode="&#xf772;" horiz-adv-x="403" 
d="M415 401q0 -41 -15.5 -81t-43.5 -62q-36 -29 -92 -32v-1l127 -225h-26l-127 226h-92l-44 -226h-24l101 520h113q56 0 89.5 -31.5t33.5 -87.5zM341 275q50 43 50 126q0 45 -26 71t-75 26h-91l-49 -250h104q55 0 87 27z" />
    <glyph glyph-name="S.sc" unicode="&#xf773;" horiz-adv-x="388" 
d="M371 138q0 -68 -44.5 -108t-114.5 -40q-82 0 -152 46l12 19q68 -43 140 -43q61 0 98 34.5t37 91.5q0 67 -81 106l-71 34q-78 38 -78 109q0 58 43 100.5t121 42.5q62 0 115 -32l-10 -19q-49 29 -105 29q-67 0 -103.5 -36.5t-36.5 -82.5q0 -60 66 -92l71 -34
q93 -44 93 -125z" />
    <glyph glyph-name="T.sc" unicode="&#xf774;" horiz-adv-x="370" 
d="M456 520l-4 -22h-164l-97 -498h-24l97 498h-164l4 22h352z" />
    <glyph glyph-name="U.sc" unicode="&#xf775;" horiz-adv-x="471" 
d="M236 -10q-57 0 -97.5 32t-40.5 93q0 31 6 59l67 346h24l-68 -350q-6 -34 -6 -53q0 -48 31 -76.5t85 -28.5q141 0 172 157l68 351h24l-68 -350q-35 -180 -197 -180z" />
    <glyph glyph-name="V.sc" unicode="&#xf776;" horiz-adv-x="402" 
d="M142 520l50 -355l15 -119h2q27 59 58 120l180 354h26l-265 -520h-16l-74 520h24z" />
    <glyph glyph-name="W.sc" unicode="&#xf777;" horiz-adv-x="648" 
d="M399 417h-2q-26 -55 -51 -105l-158 -312h-19l-51 520h24l35 -361l8 -119h2q23 51 57 119l158 312h10l40 -312l12 -119h2q28 67 53 119l174 361h26l-250 -520h-19l-40 312z" />
    <glyph glyph-name="X.sc" unicode="&#xf778;" horiz-adv-x="362" 
d="M410 520h27l-192 -254l117 -266h-25l-83 189l-26 61h-1q-18 -28 -42 -61l-140 -189h-28l197 266l-108 254h25l74 -175l25 -64h2q21 32 45 64z" />
    <glyph glyph-name="Y.sc" unicode="&#xf779;" horiz-adv-x="403" 
d="M245 234h2q29 45 60 89l140 197h27l-220 -309l-41 -211h-24l42 215l-113 305h24l73 -197z" />
    <glyph glyph-name="Z.sc" unicode="&#xf77a;" horiz-adv-x="375" 
d="M351 22l-4 -22h-321l343 453l36 44v1h-259l4 22h298l-349 -461l-30 -36v-1h282z" />
    <glyph glyph-name="exclamdown.sc" unicode="&#xf7a1;" horiz-adv-x="160" 
d="M44 -140l65 314h18l-56 -319q-4 -20 -18 -20q-11 0 -11 11q0 4 2 14zM169 348q0 -12 -6 -20t-14 -8t-14 8t-6 20q0 28 20 28t20 -28z" />
    <glyph glyph-name="questiondown.sc" unicode="&#xf7bf;" horiz-adv-x="279" 
d="M25 -66q0 43 24.5 72.5t82.5 59.5q44 23 56 35t19 45l18 79h20l-15 -78q-8 -41 -22 -57.5t-67 -43.5q-52 -27 -72 -51.5t-20 -60.5q0 -32 21.5 -53.5t63.5 -21.5q49 0 100 20l4 -19q-57 -23 -104 -23q-52 0 -80.5 28.5t-28.5 68.5zM277 348q0 -12 -6 -20t-14 -8t-14 8
t-6 20q0 28 20 28t20 -28z" />
    <glyph glyph-name="Agrave.sc" unicode="&#xf7e0;" horiz-adv-x="399" 
d="M359 0l-21 148h-220l-76 -148h-25l268 520h23l74 -520h-23zM228 360l-98 -190h205l-28 195l-14 124h-3q-33 -73 -62 -129zM176 688q0 13 13 13q8 0 20 -13l115 -121h-25l-109 102q-14 13 -14 19z" />
    <glyph glyph-name="Aacute.sc" unicode="&#xf7e1;" horiz-adv-x="399" 
d="M359 0l-21 148h-220l-76 -148h-25l268 520h23l74 -520h-23zM228 360l-98 -190h205l-28 195l-14 124h-3q-33 -73 -62 -129zM447 687q0 -9 -14 -20l-128 -102h-25l134 121q15 13 21 13q5 0 8.5 -4t3.5 -8z" />
    <glyph glyph-name="Acircumflex.sc" unicode="&#xf7e2;" horiz-adv-x="399" 
d="M359 0l-21 148h-220l-76 -148h-25l268 520h23l74 -520h-23zM228 360l-98 -190h205l-28 195l-14 124h-3q-33 -73 -62 -129zM324 691l106 -105l-14 -16l-96 94h-3l-128 -94l-12 18l140 103h7z" />
    <glyph glyph-name="Atilde.sc" unicode="&#xf7e3;" horiz-adv-x="399" 
d="M359 0l-21 148h-220l-76 -148h-25l268 520h23l74 -520h-23zM228 360l-98 -190h205l-28 195l-14 124h-3q-33 -73 -62 -129zM431 662h22q-8 -31 -29 -54t-56 -23q-22 0 -60.5 23t-56.5 23q-41 0 -62 -53h-21q9 31 30 54t55 23q23 0 61 -23t56 -23q41 0 61 53z" />
    <glyph glyph-name="Adieresis.sc" unicode="&#xf7e4;" horiz-adv-x="399" 
d="M359 0l-21 148h-220l-76 -148h-25l268 520h23l74 -520h-23zM228 360l-98 -190h205l-28 195l-14 124h-3q-33 -73 -62 -129zM204 668q0 12 6 20t14 8t14 -8t6 -20q0 -28 -20 -28t-20 28zM362 668q0 12 6 20t14 8t14 -8t6 -20q0 -28 -20 -28t-20 28z" />
    <glyph glyph-name="Aring.sc" unicode="&#xf7e5;" horiz-adv-x="399" 
d="M359 0l-21 148h-220l-76 -148h-25l268 520h23l74 -520h-23zM228 360l-98 -190h205l-28 195l-14 124h-3q-33 -73 -62 -129zM377 669q0 30 -20.5 51.5t-50.5 21.5t-50.5 -21.5t-20.5 -51.5q0 -29 20.5 -49.5t50.5 -20.5t50.5 20.5t20.5 49.5zM401 670q0 -38 -28.5 -66.5
t-66.5 -28.5t-66.5 28.5t-28.5 66.5q0 40 28.5 68t66.5 28t66.5 -28t28.5 -68z" />
    <glyph glyph-name="AE.sc" unicode="&#xf7e6;" horiz-adv-x="611" 
d="M597 22l-4 -22h-267l32 165h-193l-120 -165h-28l378 520h282l-4 -22h-226l-41 -212h152l-4 -22h-153l-47 -242h243zM324 384l-143 -197h181l60 311h-17q-40 -58 -81 -114z" />
    <glyph glyph-name="Ccedilla.sc" unicode="&#xf7e7;" horiz-adv-x="395" 
d="M448 512l-7 -19q-47 15 -88 15q-78 0 -130 -49q-45 -43 -73.5 -126.5t-28.5 -174.5q0 -146 136 -146q58 0 121 29l4 -21q-54 -30 -125 -30h-4l-20 -55h33q37 0 54 -16.5t17 -40.5q0 -44 -31.5 -69t-86.5 -25q-36 0 -77 11l6 19q37 -8 71 -8q94 0 94 72q0 35 -48 35h-66
l31 79q-64 7 -98.5 49t-34.5 117q0 87 28 176t84 142q57 54 144 54q55 0 95 -18z" />
    <glyph glyph-name="Egrave.sc" unicode="&#xf7e8;" horiz-adv-x="368" 
d="M354 22l-4 -22h-272l101 520h255l-4 -22h-231l-41 -212h157l-4 -22h-158l-47 -242h248zM185 686q0 13 13 13q8 0 20 -13l115 -121h-25l-109 102q-14 13 -14 19z" />
    <glyph glyph-name="Eacute.sc" unicode="&#xf7e9;" horiz-adv-x="368" 
d="M354 22l-4 -22h-272l101 520h255l-4 -22h-231l-41 -212h157l-4 -22h-158l-47 -242h248zM459 687q0 -9 -14 -20l-128 -102h-25l134 121q15 13 21 13q5 0 8.5 -4t3.5 -8z" />
    <glyph glyph-name="Ecircumflex.sc" unicode="&#xf7ea;" horiz-adv-x="368" 
d="M354 22l-4 -22h-272l101 520h255l-4 -22h-231l-41 -212h157l-4 -22h-158l-47 -242h248zM334 691l106 -105l-14 -16l-96 94h-3l-128 -94l-12 18l140 103h7z" />
    <glyph glyph-name="Edieresis.sc" unicode="&#xf7eb;" horiz-adv-x="368" 
d="M354 22l-4 -22h-272l101 520h255l-4 -22h-231l-41 -212h157l-4 -22h-158l-47 -242h248zM224 668q0 12 6 20t14 8t14 -8t6 -20q0 -28 -20 -28t-20 28zM382 668q0 12 6 20t14 8t14 -8t6 -20q0 -28 -20 -28t-20 28z" />
    <glyph glyph-name="Igrave.sc" unicode="&#xf7ec;" horiz-adv-x="180" 
d="M203 520l-101 -520h-24l101 520h24zM72 686q0 13 13 13q8 0 20 -13l115 -121h-25l-109 102q-14 13 -14 19z" />
    <glyph glyph-name="Iacute.sc" unicode="&#xf7ed;" horiz-adv-x="180" 
d="M203 520l-101 -520h-24l101 520h24zM348 687q0 -9 -14 -20l-128 -102h-25l134 121q15 13 21 13q5 0 8.5 -4t3.5 -8z" />
    <glyph glyph-name="Icircumflex.sc" unicode="&#xf7ee;" horiz-adv-x="180" 
d="M203 520l-101 -520h-24l101 520h24zM221 691l106 -105l-14 -16l-96 94h-3l-128 -94l-12 18l140 103h7z" />
    <glyph glyph-name="Idieresis.sc" unicode="&#xf7ef;" horiz-adv-x="180" 
d="M125 668q0 12 6 20t14 8t14 -8t6 -20q0 -28 -20 -28t-20 28zM243 668q0 12 6 20t14 8t14 -8t6 -20q0 -28 -20 -28t-20 28zM203 520l-101 -520h-24l101 520h24z" />
    <glyph glyph-name="Eth.sc" unicode="&#xf7f0;" horiz-adv-x="479" 
d="M482 344q0 -200 -100 -294q-55 -50 -146 -50h-158l48 250h-54l4 22h55l48 248h127q84 0 130 -45t46 -131zM106 22h131q85 0 131 46q90 90 90 276q0 154 -154 154h-105l-44 -226h118l-4 -22h-119z" />
    <glyph glyph-name="Ntilde.sc" unicode="&#xf7f1;" horiz-adv-x="515" 
d="M538 520l-101 -520h-24l-191 423l-25 63h-2q-5 -32 -12 -71l-81 -415h-24l101 520h24l193 -426l23 -60h2q5 33 12 69l81 417h24zM503 668h22q-8 -31 -29 -54t-56 -23q-22 0 -60.5 23t-56.5 23q-41 0 -62 -53h-21q9 31 30 54t55 23q23 0 61 -23t56 -23q41 0 61 53z" />
    <glyph glyph-name="Ograve.sc" unicode="&#xf7f2;" horiz-adv-x="509" 
d="M512 358q0 -88 -30.5 -182.5t-91.5 -142.5q-55 -43 -136 -43q-74 0 -115.5 44.5t-41.5 125.5q0 85 27.5 176.5t82.5 140.5q62 53 144 53q75 0 118 -47t43 -125zM488 358q0 64 -34 107t-103 43q-75 0 -128 -47q-50 -45 -76 -133.5t-26 -167.5q0 -70 35 -109t98 -39
q72 0 121 39q56 45 84.5 134t28.5 173zM234 686q0 13 13 13q8 0 20 -13l115 -121h-25l-109 102q-14 13 -14 19z" />
    <glyph glyph-name="Oacute.sc" unicode="&#xf7f3;" horiz-adv-x="509" 
d="M512 358q0 -88 -30.5 -182.5t-91.5 -142.5q-55 -43 -136 -43q-74 0 -115.5 44.5t-41.5 125.5q0 85 27.5 176.5t82.5 140.5q62 53 144 53q75 0 118 -47t43 -125zM488 358q0 64 -34 107t-103 43q-75 0 -128 -47q-50 -45 -76 -133.5t-26 -167.5q0 -70 35 -109t98 -39
q72 0 121 39q56 45 84.5 134t28.5 173zM513 687q0 -9 -14 -20l-128 -102h-25l134 121q15 13 21 13q5 0 8.5 -4t3.5 -8z" />
    <glyph glyph-name="Ocircumflex.sc" unicode="&#xf7f4;" horiz-adv-x="509" 
d="M512 358q0 -88 -30.5 -182.5t-91.5 -142.5q-55 -43 -136 -43q-74 0 -115.5 44.5t-41.5 125.5q0 85 27.5 176.5t82.5 140.5q62 53 144 53q75 0 118 -47t43 -125zM488 358q0 64 -34 107t-103 43q-75 0 -128 -47q-50 -45 -76 -133.5t-26 -167.5q0 -70 35 -109t98 -39
q72 0 121 39q56 45 84.5 134t28.5 173zM385 691l106 -105l-14 -16l-96 94h-3l-128 -94l-12 18l140 103h7z" />
    <glyph glyph-name="Otilde.sc" unicode="&#xf7f5;" horiz-adv-x="509" 
d="M512 358q0 -88 -30.5 -182.5t-91.5 -142.5q-55 -43 -136 -43q-74 0 -115.5 44.5t-41.5 125.5q0 85 27.5 176.5t82.5 140.5q62 53 144 53q75 0 118 -47t43 -125zM488 358q0 64 -34 107t-103 43q-75 0 -128 -47q-50 -45 -76 -133.5t-26 -167.5q0 -70 35 -109t98 -39
q72 0 121 39q56 45 84.5 134t28.5 173zM495 670h22q-8 -31 -29 -54t-56 -23q-22 0 -60.5 23t-56.5 23q-41 0 -62 -53h-21q9 31 30 54t55 23q23 0 61 -23t56 -23q41 0 61 53z" />
    <glyph glyph-name="Odieresis.sc" unicode="&#xf7f6;" horiz-adv-x="509" 
d="M512 358q0 -88 -30.5 -182.5t-91.5 -142.5q-55 -43 -136 -43q-74 0 -115.5 44.5t-41.5 125.5q0 85 27.5 176.5t82.5 140.5q62 53 144 53q75 0 118 -47t43 -125zM488 358q0 64 -34 107t-103 43q-75 0 -128 -47q-50 -45 -76 -133.5t-26 -167.5q0 -70 35 -109t98 -39
q72 0 121 39q56 45 84.5 134t28.5 173zM267 668q0 12 6 20t14 8t14 -8t6 -20q0 -28 -20 -28t-20 28zM425 668q0 12 6 20t14 8t14 -8t6 -20q0 -28 -20 -28t-20 28z" />
    <glyph glyph-name="AEacute.sc" unicode="&#xf7f7;" horiz-adv-x="611" 
d="M597 22l-4 -22h-267l32 165h-193l-120 -165h-28l378 520h282l-4 -22h-226l-41 -212h152l-4 -22h-153l-47 -242h243zM324 384l-143 -197h181l60 311h-17q-40 -58 -81 -114zM684 687q0 -9 -14 -20l-128 -102h-25l134 121q15 13 21 13q5 0 8.5 -4t3.5 -8z" />
    <glyph glyph-name="Oslash.sc" unicode="&#xf7f8;" horiz-adv-x="509" 
d="M77 -8l48 60q-28 42 -28 108q0 85 27.5 176.5t82.5 140.5q62 53 144 53q74 0 118 -47l43 53l17 -14l-46 -57q29 -44 29 -107q0 -88 -30.5 -182.5t-91.5 -142.5q-55 -43 -136 -43q-74 0 -115 44l-45 -56zM121 160q0 -53 20 -88l313 392q-36 44 -103 44q-75 0 -128 -47
q-50 -45 -76 -133.5t-26 -167.5zM488 358q0 52 -21 87l-313 -392q35 -41 100 -41q72 0 121 39q56 45 84.5 134t28.5 173z" />
    <glyph glyph-name="Ugrave.sc" unicode="&#xf7f9;" horiz-adv-x="471" 
d="M236 -10q-57 0 -97.5 32t-40.5 93q0 31 6 59l67 346h24l-68 -350q-6 -34 -6 -53q0 -48 31 -76.5t85 -28.5q141 0 172 157l68 351h24l-68 -350q-35 -180 -197 -180zM215 686q0 13 13 13q8 0 20 -13l115 -121h-25l-109 102q-14 13 -14 19z" />
    <glyph glyph-name="Uacute.sc" unicode="&#xf7fa;" horiz-adv-x="471" 
d="M236 -10q-57 0 -97.5 32t-40.5 93q0 31 6 59l67 346h24l-68 -350q-6 -34 -6 -53q0 -48 31 -76.5t85 -28.5q141 0 172 157l68 351h24l-68 -350q-35 -180 -197 -180zM493 687q0 -9 -14 -20l-128 -102h-25l134 121q15 13 21 13q5 0 8.5 -4t3.5 -8z" />
    <glyph glyph-name="Ucircumflex.sc" unicode="&#xf7fb;" horiz-adv-x="471" 
d="M236 -10q-57 0 -97.5 32t-40.5 93q0 31 6 59l67 346h24l-68 -350q-6 -34 -6 -53q0 -48 31 -76.5t85 -28.5q141 0 172 157l68 351h24l-68 -350q-35 -180 -197 -180zM365 691l106 -105l-14 -16l-96 94h-3l-128 -94l-12 18l140 103h7z" />
    <glyph glyph-name="Udieresis.sc" unicode="&#xf7fc;" horiz-adv-x="471" 
d="M236 -10q-57 0 -97.5 32t-40.5 93q0 31 6 59l67 346h24l-68 -350q-6 -34 -6 -53q0 -48 31 -76.5t85 -28.5q141 0 172 157l68 351h24l-68 -350q-35 -180 -197 -180zM256 668q0 12 6 20t14 8t14 -8t6 -20q0 -28 -20 -28t-20 28zM414 668q0 12 6 20t14 8t14 -8t6 -20
q0 -28 -20 -28t-20 28z" />
    <glyph glyph-name="Yacute.sc" unicode="&#xf7fd;" horiz-adv-x="403" 
d="M245 234h2q29 45 60 89l140 197h27l-220 -309l-41 -211h-24l42 215l-113 305h24l73 -197zM445 687q0 -9 -14 -20l-128 -102h-25l134 121q15 13 21 13q5 0 8.5 -4t3.5 -8z" />
    <glyph glyph-name="Thorn.sc" unicode="&#xf7fe;" horiz-adv-x="389" 
d="M102 0h-24l101 520h24l-22 -112h89q56 0 89.5 -31.5t33.5 -87.5q0 -41 -15.5 -81t-43.5 -62q-39 -32 -105 -32h-105zM319 163q50 43 50 126q0 45 -26 71t-75 26h-91l-49 -250h104q55 0 87 27z" />
    <glyph glyph-name="Ydieresis.sc" unicode="&#xf7ff;" horiz-adv-x="403" 
d="M245 234h2q29 45 60 89l140 197h27l-220 -309l-41 -211h-24l42 215l-113 305h24l73 -197zM209 668q0 12 6 20t14 8t14 -8t6 -20q0 -28 -20 -28t-20 28zM367 668q0 12 6 20t14 8t14 -8t6 -20q0 -28 -20 -28t-20 28z" />
    <glyph glyph-name="s_t" unicode="&#xfb06;" horiz-adv-x="637" 
d="M501 458l4 22h72l15 77q5 27 5 47q0 85 -103 85q-70 0 -108 -38t-38 -90q0 -64 64 -104l-11 -18q-53 29 -109 29q-66 0 -102.5 -32t-36.5 -76q0 -27 15 -46t55 -36l69 -29q90 -37 90 -115q0 -59 -44.5 -101.5t-125.5 -42.5q-87 0 -146 51l13 17q58 -46 133 -46
q69 0 107.5 35t38.5 87q0 34 -18.5 56t-60.5 39l-67 28q-82 33 -83 100q-1 56 44 94.5t119 38.5q29 0 59 -8l1 2q-28 30 -28 77q0 61 46 105.5t124 44.5q59 0 93 -27.5t34 -79.5q0 -17 -5 -47l-15 -77h98l-4 -22h-98l-59 -303q-9 -45 -9 -72q0 -31 17.5 -48t60.5 -24l-6 -21
q-96 12 -96 92q0 24 9 73l59 303h-72z" />
    <glyph glyph-name="c_t" unicode="&#xfb1e;" horiz-adv-x="619" 
d="M483 458l4 22h72l15 77q5 27 5 47q0 85 -103 85q-66 0 -101 -35t-35 -84q0 -63 73 -96l-8 -20q-37 14 -83 14q-70 0 -113 -40q-43 -39 -69.5 -124.5t-26.5 -160.5q0 -64 33.5 -97.5t90.5 -33.5q53 0 111 26l6 -19q-52 -29 -117 -29q-69 0 -108.5 38.5t-39.5 114.5
q0 75 28 167t77 135q51 45 128 45q11 0 29 -2l1 2q-36 31 -36 80q0 57 42 99t118 42q59 0 93 -27.5t34 -79.5q0 -17 -5 -47l-15 -77h98l-4 -22h-98l-59 -303q-9 -45 -9 -72q0 -31 17.5 -48t60.5 -24l-6 -21q-96 12 -96 92q0 24 9 73l59 303h-72z" />
    <glyph glyph-name="Adblgrave.sc" unicode="&#xfff0;" horiz-adv-x="399" 
d="M359 0l-21 148h-220l-76 -148h-25l268 520h23l74 -520h-23zM228 360l-98 -190h205l-28 195l-14 124h-3q-33 -73 -62 -129zM108 688q0 12 12 12q8 0 21 -14l109 -121h-19l-109 102q-14 13 -14 21zM230 688q0 12 12 12q8 0 21 -14l109 -121h-19l-109 102q-14 13 -14 21z
" />
    <glyph glyph-name="Ainvertedbreve.sc" unicode="&#xfff1;" horiz-adv-x="399" 
d="M359 0l-21 148h-220l-76 -148h-25l268 520h23l74 -520h-23zM228 360l-98 -190h205l-28 195l-14 124h-3q-33 -73 -62 -129zM202 565h-24q9 46 45 78t91 32q53 0 79.5 -32t18.5 -78h-24q5 36 -13 61t-62 25q-45 0 -73.5 -25t-37.5 -61z" />
    <glyph glyph-name="Edblgrave.sc" unicode="&#xfff2;" horiz-adv-x="368" 
d="M354 22l-4 -22h-272l101 520h255l-4 -22h-231l-41 -212h157l-4 -22h-158l-47 -242h248zM127 688q0 12 12 12q8 0 21 -14l109 -121h-19l-109 102q-14 13 -14 21zM249 688q0 12 12 12q8 0 21 -14l109 -121h-19l-109 102q-14 13 -14 21z" />
    <glyph glyph-name="Einvertedbreve.sc" unicode="&#xfff3;" horiz-adv-x="368" 
d="M354 22l-4 -22h-272l101 520h255l-4 -22h-231l-41 -212h157l-4 -22h-158l-47 -242h248zM220 566h-24q9 46 45 78t91 32q53 0 79.5 -32t18.5 -78h-24q5 36 -13 61t-62 25q-45 0 -73.5 -25t-37.5 -61z" />
    <glyph glyph-name="Idblgrave.sc" unicode="&#xfff4;" horiz-adv-x="180" 
d="M203 520l-101 -520h-24l101 520h24zM4 688q0 12 12 12q8 0 21 -14l109 -121h-19l-109 102q-14 13 -14 21zM126 688q0 12 12 12q8 0 21 -14l109 -121h-19l-109 102q-14 13 -14 21z" />
    <glyph glyph-name="Iinvertedbreve.sc" unicode="&#xfff5;" horiz-adv-x="180" 
d="M203 520l-101 -520h-24l101 520h24zM99 563h-24q9 46 45 78t91 32q53 0 79.5 -32t18.5 -78h-24q5 36 -13 61t-62 25q-45 0 -73.5 -25t-37.5 -61z" />
    <glyph glyph-name="Odblgrave.sc" unicode="&#xfff6;" horiz-adv-x="509" 
d="M512 358q0 -88 -30.5 -182.5t-91.5 -142.5q-55 -43 -136 -43q-74 0 -115.5 44.5t-41.5 125.5q0 85 27.5 176.5t82.5 140.5q62 53 144 53q75 0 118 -47t43 -125zM488 358q0 64 -34 107t-103 43q-75 0 -128 -47q-50 -45 -76 -133.5t-26 -167.5q0 -70 35 -109t98 -39
q72 0 121 39q56 45 84.5 134t28.5 173zM166 688q0 12 12 12q8 0 21 -14l109 -121h-19l-109 102q-14 13 -14 21zM288 688q0 12 12 12q8 0 21 -14l109 -121h-19l-109 102q-14 13 -14 21z" />
    <glyph glyph-name="Oinvertedbreve.sc" unicode="&#xfff7;" horiz-adv-x="509" 
d="M512 358q0 -88 -30.5 -182.5t-91.5 -142.5q-55 -43 -136 -43q-74 0 -115.5 44.5t-41.5 125.5q0 85 27.5 176.5t82.5 140.5q62 53 144 53q75 0 118 -47t43 -125zM488 358q0 64 -34 107t-103 43q-75 0 -128 -47q-50 -45 -76 -133.5t-26 -167.5q0 -70 35 -109t98 -39
q72 0 121 39q56 45 84.5 134t28.5 173zM269 567h-24q9 46 45 78t91 32q53 0 79.5 -32t18.5 -78h-24q5 36 -13 61t-62 25q-45 0 -73.5 -25t-37.5 -61z" />
    <glyph glyph-name="Rdblgrave.sc" unicode="&#xfff8;" horiz-adv-x="403" 
d="M415 401q0 -41 -15.5 -81t-43.5 -62q-36 -29 -92 -32v-1l127 -225h-26l-127 226h-92l-44 -226h-24l101 520h113q56 0 89.5 -31.5t33.5 -87.5zM341 275q50 43 50 126q0 45 -26 71t-75 26h-91l-49 -250h104q55 0 87 27zM102 688q0 12 12 12q8 0 21 -14l109 -121h-19
l-109 102q-14 13 -14 21zM224 688q0 12 12 12q8 0 21 -14l109 -121h-19l-109 102q-14 13 -14 21z" />
    <glyph glyph-name="Rinvertedbreve.sc" unicode="&#xfff9;" horiz-adv-x="403" 
d="M415 401q0 -41 -15.5 -81t-43.5 -62q-36 -29 -92 -32v-1l127 -225h-26l-127 226h-92l-44 -226h-24l101 520h113q56 0 89.5 -31.5t33.5 -87.5zM341 275q50 43 50 126q0 45 -26 71t-75 26h-91l-49 -250h104q55 0 87 27zM206 566h-24q9 46 45 78t91 32q53 0 79.5 -32
t18.5 -78h-24q5 36 -13 61t-62 25q-45 0 -73.5 -25t-37.5 -61z" />
    <glyph glyph-name="Udblgrave.sc" unicode="&#xfffa;" horiz-adv-x="471" 
d="M236 -10q-57 0 -97.5 32t-40.5 93q0 31 6 59l67 346h24l-68 -350q-6 -34 -6 -53q0 -48 31 -76.5t85 -28.5q141 0 172 157l68 351h24l-68 -350q-35 -180 -197 -180zM152 688q0 12 12 12q8 0 21 -14l109 -121h-19l-109 102q-14 13 -14 21zM274 688q0 12 12 12q8 0 21 -14
l109 -121h-19l-109 102q-14 13 -14 21z" />
    <glyph glyph-name="Uinvertedbreve.sc" unicode="&#xfffb;" horiz-adv-x="471" 
d="M236 -10q-57 0 -97.5 32t-40.5 93q0 31 6 59l67 346h24l-68 -350q-6 -34 -6 -53q0 -48 31 -76.5t85 -28.5q141 0 172 157l68 351h24l-68 -350q-35 -180 -197 -180zM253 567h-24q9 46 45 78t91 32q53 0 79.5 -32t18.5 -78h-24q5 36 -13 61t-62 25q-45 0 -73.5 -25
t-37.5 -61z" />
    </font>
</defs>
</svg>
