<?xml version="1.0" standalone="no"?>
<!DOCTYPE svg PUBLIC "-//W3C//DTD SVG 1.1//EN" "http://www.w3.org/Graphics/SVG/1.1/DTD/svg11.dtd" >
<svg xmlns="http://www.w3.org/2000/svg" xmlns:xlink="http://www.w3.org/1999/xlink" version="1.1">
<metadata>
Created by FontForge 20170731 at Tue Dec 10 17:03:39 2013
 By Aleksey,,,
Copyright (c) 2013 by Nikola &#38; Zoran Kostic. All rights reserved.
</metadata>
<defs>
<font id="Argumentum-BlackItalic" horiz-adv-x="500" >
  <font-face 
    font-family="Argumentum Blk"
    font-weight="800"
    font-style="italic"
    font-stretch="normal"
    units-per-em="1000"
    panose-1="2 11 0 0 0 0 0 0 0 0"
    ascent="751"
    descent="-249"
    x-height="480"
    cap-height="676"
    bbox="-93 -353 1232 937"
    underline-thickness="50"
    underline-position="-200"
    unicode-range="U+0020-FFFB"
  />
<missing-glyph horiz-adv-x="470" 
d="M117 59h235v616h-235v-616zM59 0v733h353v-733h-353z" />
    <glyph glyph-name="f_f" unicode="ff" horiz-adv-x="638" 
d="M537 0h-169l66 340h-130l-66 -340h-169l66 340h-59l28 140h59l14 76q15 82 63.5 118.5t140.5 36.5l72 -6l-30 -132q-14 2 -33 2q-41 0 -49 -44l-10 -51h131l14 76q15 82 64 118.5t145 36.5q17 0 39.5 -2.5t35.5 -4.5l14 -3l-32 -131q-26 5 -49 5t-35.5 -9t-17.5 -35
l-10 -51h93l-28 -140h-92z" />
    <glyph glyph-name="fi" unicode="fi" horiz-adv-x="573" 
d="M358 0l65 340h-119l-66 -340h-169l66 340h-59l28 140h59l14 76q28 155 244 155q41 0 80.5 -4.5t58.5 -8.5l19 -4l-32 -130q-62 11 -110 11q-45 0 -68 -9t-28 -35l-10 -51h287l-93 -480h-167z" />
    <glyph glyph-name="fl" unicode="fl" horiz-adv-x="615" 
d="M630 130l-37 -140h-48q-79 0 -115 27.5t-36 84.5q0 35 11 90l73 379q-44 4 -58 4q-39 0 -56.5 -9.5t-22.5 -34.5l-10 -51h83l-28 -140h-82l-66 -340h-169l66 340h-59l28 140h59l14 76q15 83 76.5 119t194.5 36q48 0 104 -3.5t88 -7.5l31 -4l-93 -478q-6 -30 -6 -43
q0 -17 8 -25.5t27 -13.5z" />
    <glyph glyph-name="f_f_i" unicode="ffi" horiz-adv-x="872" 
d="M537 0h-169l66 340h-130l-66 -340h-169l66 340h-59l28 140h59l14 76q15 82 63.5 118.5t140.5 36.5l72 -6l-30 -132q-14 2 -33 2q-41 0 -49 -44l-10 -51h131l14 76q28 155 244 155q41 0 80.5 -4.5t58.5 -8.5l19 -4l-32 -130q-62 11 -110 11q-45 0 -68 -9t-28 -35l-10 -51
h287l-93 -480h-167l65 340h-119z" />
    <glyph glyph-name="f_f_l" unicode="ffl" horiz-adv-x="914" 
d="M537 0h-169l66 340h-130l-66 -340h-169l66 340h-59l28 140h59l14 76q15 82 63.5 118.5t140.5 36.5l72 -6l-30 -132q-14 2 -33 2q-41 0 -49 -44l-10 -51h131l14 76q15 83 76.5 119t194.5 36q48 0 104 -3.5t87 -7.5l32 -4l-93 -478q-6 -30 -6 -43q0 -17 8 -25.5t27 -13.5
l23 -6l-37 -140h-48q-79 0 -115 27.5t-36 84.5q0 35 11 90l73 379q-44 4 -58 4q-39 0 -56.5 -9.5t-22.5 -34.5l-10 -51h83l-28 -140h-82z" />
    <glyph glyph-name="f_t" unicode="ft" horiz-adv-x="648" 
d="M238 0h-169l66 340h-59l28 140h59l14 76q15 82 63.5 118.5t140.5 36.5l72 -6l-30 -132q-14 2 -33 2q-41 0 -49 -44l-10 -51h131l22 115l175 34l-29 -149h89l-28 -140h-89l-23 -120q-4 -19 -4 -35q0 -43 50 -52l25 -5l-36 -138h-46q-86 0 -129 32t-43 89q0 29 9 76l29 153
h-130z" />
    <glyph glyph-name="f_f_t" unicode="fft" horiz-adv-x="947" 
d="M537 0h-169l66 340h-130l-66 -340h-169l66 340h-59l28 140h59l14 76q15 82 63.5 118.5t140.5 36.5l72 -6l-30 -132q-14 2 -33 2q-41 0 -49 -44l-10 -51h131l14 76q15 82 63.5 118.5t140.5 36.5l72 -6l-30 -132q-14 2 -33 2q-41 0 -49 -44l-10 -51h131l22 115l175 34
l-29 -149h89l-28 -140h-89l-23 -120q-4 -19 -4 -35q0 -43 50 -52l25 -5l-36 -138h-46q-86 0 -129 32t-43 89q0 29 9 76l29 153h-130z" />
    <glyph glyph-name="f_b" unicode="fb" horiz-adv-x="842" 
d="M870 350q0 -85 -27.5 -166.5t-83.5 -132.5q-67 -61 -177 -61q-75 0 -125.5 38t-50.5 118q0 45 11 101l62 324q-44 4 -59 4q-39 0 -56.5 -9.5t-22.5 -34.5l-10 -51h83l-28 -140h-82l-66 -340h-169l66 340h-59l28 140h59l14 76q15 83 76.5 119t194.5 36q48 0 104 -3.5
t88 -7.5l31 -4l-44 -228l-11 -32l5 -4q55 58 128 58q57 0 89 -38t32 -102zM611 125q32 0 52 36q15 27 24.5 69t9.5 69q0 56 -39 56q-25 0 -44 -22t-26 -62l-14 -74q-7 -37 4 -54.5t33 -17.5z" />
    <glyph glyph-name="f_h" unicode="fh" horiz-adv-x="838" 
d="M857 306l-59 -306h-169l55 283q5 23 5 36q0 35 -31 35q-53 0 -75 -114l-47 -240h-167l110 571q-44 4 -59 4q-39 0 -56.5 -9.5t-22.5 -34.5l-10 -51h83l-28 -140h-82l-66 -340h-169l66 340h-59l28 140h59l14 76q15 83 76.5 119t194.5 36q48 0 104 -3.5t88 -7.5l31 -4
l-52 -266h5q57 60 128 60q51 0 82 -33t31 -80q0 -33 -8 -71z" />
    <glyph glyph-name="f_j" unicode="fj" horiz-adv-x="573" 
d="M618 480l-104 -533q-19 -98 -76.5 -140.5t-163.5 -42.5h-49l27 140h26q59 0 76 85l68 351h-118l-66 -340h-169l66 340h-59l28 140h59l14 76q28 155 244 155q41 0 80.5 -4.5t58.5 -8.5l19 -4l-32 -130q-62 11 -110 11q-45 0 -68 -9t-28 -35l-10 -51h287z" />
    <glyph glyph-name="f_k" unicode="fk" horiz-adv-x="874" 
d="M672 0l-83 198h-15l-38 -198h-167l110 571q-44 4 -59 4q-39 0 -56.5 -9.5t-22.5 -34.5l-10 -51h83l-28 -140h-82l-66 -340h-169l66 340h-59l28 140h59l14 76q15 83 76.5 119t194.5 36q48 0 104 -3.5t88 -7.5l31 -4l-74 -383h14l129 167h193l-186 -238l105 -242h-180z" />
    <glyph glyph-name="f_y" unicode="fy" horiz-adv-x="791" 
d="M694 480h180l-225 -549q-36 -87 -96.5 -127t-153.5 -40h-122l27 140h91q39 0 58 10.5t31 40.5l17 45h-68l-46 340h-83l-66 -340h-169l66 340h-59l28 140h59l14 76q15 82 64 118.5t145 36.5q17 0 39.5 -2.5t36.5 -4.5l13 -3l-32 -131q-26 5 -49 5t-35.5 -9t-17.5 -35
l-10 -51h206l25 -218l6 -91h15q6 45 25 92z" />
    <glyph glyph-name="f_f_b" unicode="ffb" horiz-adv-x="1141" 
d="M537 0h-169l66 340h-130l-66 -340h-169l66 340h-59l28 140h59l14 76q15 82 63.5 118.5t140.5 36.5l72 -6l-30 -132q-14 2 -33 2q-41 0 -49 -44l-10 -51h131l14 76q15 83 76.5 119t194.5 36q48 0 104 -3.5t87 -7.5l32 -4l-44 -228l-11 -32l5 -4q55 58 128 58q57 0 89 -38
t32 -102q0 -85 -27.5 -166.5t-83.5 -132.5q-67 -61 -177 -61q-75 0 -125.5 38t-50.5 118q0 45 11 101l62 324q-44 4 -59 4q-39 0 -56.5 -9.5t-22.5 -34.5l-10 -51h83l-28 -140h-82zM910 125q32 0 52 36q15 27 24.5 69t9.5 69q0 56 -39 56q-25 0 -44 -22t-26 -62l-14 -74
q-7 -37 4 -54.5t33 -17.5z" />
    <glyph glyph-name="f_f_h" unicode="ffh" horiz-adv-x="1137" 
d="M537 0h-169l66 340h-130l-66 -340h-169l66 340h-59l28 140h59l14 76q15 82 63.5 118.5t140.5 36.5l72 -6l-30 -132q-14 2 -33 2q-41 0 -49 -44l-10 -51h131l14 76q15 83 76.5 119t194.5 36q48 0 104 -3.5t87 -7.5l32 -4l-52 -266h5q57 60 128 60q51 0 82 -33t31 -80
q0 -33 -8 -71l-59 -306h-169l55 283q5 23 5 36q0 35 -31 35q-53 0 -75 -114l-47 -240h-167l110 571q-44 4 -59 4q-39 0 -56.5 -9.5t-22.5 -34.5l-10 -51h83l-28 -140h-82z" />
    <glyph glyph-name="f_f_j" unicode="ffj" horiz-adv-x="872" 
d="M537 0h-169l66 340h-130l-66 -340h-169l66 340h-59l28 140h59l14 76q15 82 63.5 118.5t140.5 36.5l72 -6l-30 -132q-14 2 -33 2q-41 0 -49 -44l-10 -51h131l14 76q28 155 244 155q41 0 80.5 -4.5t58.5 -8.5l19 -4l-32 -130q-62 11 -110 11q-45 0 -68 -9t-28 -35l-10 -51
h287l-104 -533q-19 -98 -76.5 -140.5t-163.5 -42.5h-49l27 140h26q62 0 76 85l68 351h-118z" />
    <glyph glyph-name="f_f_k" unicode="ffk" horiz-adv-x="1173" 
d="M537 0h-169l66 340h-130l-66 -340h-169l66 340h-59l28 140h59l14 76q15 82 63.5 118.5t140.5 36.5l72 -6l-30 -132q-14 2 -33 2q-41 0 -49 -44l-10 -51h131l14 76q15 83 76.5 119t194.5 36q48 0 104 -3.5t87 -7.5l32 -4l-74 -383h14l129 167h193l-186 -238l105 -242h-180
l-83 198h-15l-38 -198h-167l110 571q-44 4 -59 4q-39 0 -56.5 -9.5t-22.5 -34.5l-10 -51h83l-28 -140h-82z" />
    <glyph glyph-name="f_f_y" unicode="ffy" horiz-adv-x="1090" 
d="M537 0h-169l66 340h-130l-66 -340h-169l66 340h-59l28 140h59l14 76q15 82 63.5 118.5t140.5 36.5l72 -6l-30 -132q-14 2 -33 2q-41 0 -49 -44l-10 -51h131l14 76q15 82 64 118.5t145 36.5q17 0 39.5 -2.5t35.5 -4.5l14 -3l-32 -131q-26 5 -49 5t-35.5 -9t-17.5 -35
l-10 -51h206l25 -218l6 -91h15q6 45 25 92l86 217h180l-225 -549q-36 -87 -96.5 -127t-153.5 -40h-122l27 140h91q39 0 58 10.5t31 40.5l17 45h-68l-46 340h-83z" />
    <glyph glyph-name="t_t" unicode="tt" horiz-adv-x="657" 
d="M304 340l-23 -120q-4 -19 -4 -35q0 -43 50 -52l15 -3l-37 -140h-35q-86 0 -129 32t-43 89q0 29 9 76l29 153h-60l28 140h60l22 115l175 34l-29 -149h139l22 115l175 34l-29 -149h89l-28 -140h-89l-23 -120q-4 -19 -4 -35q0 -43 50 -52l25 -5l-36 -138h-46q-86 0 -129 32
t-43 89q0 29 9 76l29 153h-139z" />
    <glyph glyph-name="t_y" unicode="ty" horiz-adv-x="829" 
d="M732 480h180l-225 -549q-36 -87 -96.5 -127t-153.5 -40h-122l27 140h91q39 0 58 10.5t31 40.5l17 45h-68l-46 340h-121l-23 -120q-4 -19 -4 -35q0 -43 50 -52l25 -5l-36 -138h-46q-86 0 -129 32t-43 89q0 29 9 76l29 153h-60l28 140h60l22 115l175 34l-29 -149h243
l25 -218l6 -91h15q6 45 25 92z" />
    <glyph glyph-name="t_t_y" unicode="tty" horiz-adv-x="1136" 
d="M304 340l-23 -120q-4 -19 -4 -35q0 -43 50 -52l15 -3l-37 -140h-35q-86 0 -129 32t-43 89q0 29 9 76l29 153h-60l28 140h60l22 115l175 34l-29 -149h139l22 115l175 34l-29 -149h243l25 -218l6 -91h15q6 45 25 92l86 217h180l-225 -549q-36 -87 -96.5 -127t-153.5 -40
h-122l27 140h91q39 0 58 10.5t31 40.5l17 45h-68l-46 340h-121l-23 -120q-4 -19 -4 -35q0 -43 50 -52l25 -5l-36 -138h-46q-86 0 -129 32t-43 89q0 29 9 76l29 153h-139z" />
    <glyph glyph-name="T_i" unicode="Ti" horiz-adv-x="690" 
d="M474 0l93 480h168l-93 -480h-168zM613 534h-159l-104 -534h-172l104 534h-160l27 142h491z" />
    <glyph glyph-name="f_t_y" unicode="fty" horiz-adv-x="1127" 
d="M1030 480h180l-225 -549q-36 -87 -96.5 -127t-153.5 -40h-122l27 140h91q39 0 58 10.5t31 40.5l17 45h-68l-46 340h-121l-23 -120q-4 -19 -4 -35q0 -43 50 -52l25 -5l-36 -138h-46q-86 0 -129 32t-43 89q0 29 9 76l29 153h-130l-66 -340h-169l66 340h-59l28 140h59l14 76
q15 82 63.5 118.5t140.5 36.5l72 -6l-30 -132q-14 2 -33 2q-41 0 -49 -44l-10 -51h131l22 115l175 34l-29 -149h243l25 -218l6 -91h15q6 45 25 92z" />
    <glyph glyph-name=".notdef" horiz-adv-x="470" 
d="M117 59h235v616h-235v-616zM59 0v733h353v-733h-353z" />
    <glyph glyph-name=".null" horiz-adv-x="0" 
 />
    <glyph glyph-name="nonmarkingreturn" horiz-adv-x="333" 
 />
    <glyph glyph-name="space" unicode=" " horiz-adv-x="235" 
 />
    <glyph glyph-name="exclam" unicode="!" horiz-adv-x="288" 
d="M350 599l-108 -343h-101l27 343q4 52 32 72.5t76 20.5q81 0 81 -53q0 -18 -7 -40zM254 80q0 -42 -26.5 -66t-68.5 -24t-68.5 24t-26.5 66q0 43 26.5 66.5t68.5 23.5q43 0 69 -23.5t26 -66.5z" />
    <glyph glyph-name="quotedbl" unicode="&#x22;" horiz-adv-x="443" 
d="M157 418l6 199q1 53 24 73.5t70 20.5q67 0 67 -46q0 -21 -13 -56l-68 -191h-86zM365 418l6 199q1 53 24 73.5t70 20.5q67 0 67 -46q0 -21 -13 -56l-68 -191h-86z" />
    <glyph glyph-name="numbersign" unicode="#" horiz-adv-x="582" 
d="M134 380l25 130h109l59 168h112l-59 -168h86l59 168h112l-59 -168h63l-25 -130h-83l-31 -89h76l-25 -130h-96l-56 -161h-112l56 161h-86l-56 -161h-112l56 161h-76l25 130h96l31 89h-89zM335 380l-31 -89h86l31 89h-86z" />
    <glyph glyph-name="dollar" unicode="$" horiz-adv-x="526" 
d="M535 204q0 -89 -60.5 -150.5t-173.5 -67.5l-15 -78h-110l16 85q-95 16 -156 58l52 131q104 -51 178 -51q43 0 65.5 19t22.5 50q0 34 -59 60l-65 30q-65 31 -96 72t-31 106q0 88 59.5 150t165.5 71l15 78h110l-16 -83q71 -13 122 -43l-64 -132q-72 36 -131 36
q-38 0 -59 -18t-21 -47q0 -38 42 -57l73 -34q136 -64 136 -185z" />
    <glyph glyph-name="percent" unicode="%" horiz-adv-x="706" 
d="M296 460q12 11 20.5 49t8.5 62q0 31 -27 31q-18 0 -28 -10q-13 -12 -21 -49t-8 -63q0 -29 28 -29q18 0 27 9zM425 587q0 -53 -17.5 -107.5t-52.5 -83.5q-36 -30 -103 -30q-50 0 -80.5 25t-30.5 73q0 52 17 107t50 83q38 33 107 33q50 0 80 -26t30 -74zM615 703h104
l-488 -723h-105zM571 84q12 11 20.5 49t8.5 62q0 31 -27 31q-18 0 -28 -10q-13 -12 -21 -49t-8 -63q0 -29 28 -29q18 0 27 9zM700 211q0 -53 -17.5 -107.5t-52.5 -83.5q-36 -30 -103 -30q-50 0 -80.5 25t-30.5 73q0 52 17 107t50 83q39 33 107 33q50 0 80 -26t30 -74z" />
    <glyph glyph-name="ampersand" unicode="&#x26;" horiz-adv-x="593" 
d="M443 0l-27 39q-69 -49 -152 -49q-85 0 -143 42t-58 121q0 124 81 187q21 16 56 29q-28 52 -28 107q0 112 82 169q61 41 167 41q63 0 114 -17l-37 -128q-36 9 -72 9q-40 0 -64.5 -19.5t-24.5 -55.5q0 -27 21 -59l36 -55l17 -35l6 1q2 30 5 45l11 56h223l-27 -141h-73
l-9 -44q-7 -37 -26 -78l108 -165h-186zM295 126q31 0 54 15l-85 127q-30 -28 -30 -82q0 -27 17.5 -43.5t43.5 -16.5z" />
    <glyph glyph-name="quotesingle" unicode="'" horiz-adv-x="235" 
d="M157 418l6 199q1 53 24 73.5t70 20.5q67 0 67 -46q0 -21 -13 -56l-68 -191h-86z" />
    <glyph glyph-name="parenleft" unicode="(" horiz-adv-x="299" 
d="M389 697q-172 -265 -172 -554q0 -129 36 -258h-114q-60 139 -60 288q0 282 197 524h113z" />
    <glyph glyph-name="parenright" unicode=")" horiz-adv-x="289" 
d="M-3 -115q180 278 180 558q0 130 -33 254h113q59 -139 59 -279q0 -286 -206 -533h-113z" />
    <glyph glyph-name="asterisk" unicode="*" horiz-adv-x="415" 
d="M374 626l-36 -74l10 -6l80 52q30 19 47 19q18 0 27.5 -19t9.5 -47q0 -30 -17.5 -43t-54.5 -13h-88l-3 -9l61 -53q29 -26 29 -41q0 -26 -37 -52q-23 -16 -42 -16q-12 0 -19.5 7t-10 14t-6.5 22l-22 88h-7l-42 -82q-8 -15 -13 -23.5t-15.5 -17.5t-22.5 -9q-23 0 -46 20
q-27 22 -27 42q0 23 46 52l78 50l-2 7l-88 1q-53 0 -53 36q0 21 14 46q20 40 44 40q15 0 44 -21l66 -50l6 6l-9 70q-4 28 -4 40q0 50 68 50q52 0 52 -33q0 -19 -17 -53z" />
    <glyph glyph-name="plus" unicode="+" horiz-adv-x="499" 
d="M81 190l19 100h155l30 155h100l-30 -155h155l-19 -100h-155l-30 -155h-100l30 155h-155z" />
    <glyph glyph-name="comma" unicode="," horiz-adv-x="266" 
d="M244 80q0 -44 -46 -117q-3 -5 -4 -7l-59 -95l-69 11l41 120v6q-53 20 -53 82q0 43 26.5 66.5t68.5 23.5q43 0 69 -23.5t26 -66.5z" />
    <glyph glyph-name="hyphen" unicode="-" horiz-adv-x="328" 
d="M77 185l21 110h245l-21 -110h-245z" />
    <glyph glyph-name="period" unicode="." horiz-adv-x="266" 
d="M244 80q0 -42 -26.5 -66t-68.5 -24t-68.5 24t-26.5 66q0 43 26.5 66.5t68.5 23.5q43 0 69 -23.5t26 -66.5z" />
    <glyph glyph-name="slash" unicode="/" horiz-adv-x="274" 
d="M276 693h112l-260 -713h-112z" />
    <glyph glyph-name="zero" unicode="0" horiz-adv-x="537" 
d="M294 136q27 0 45 22q27 33 50.5 147.5t23.5 172.5q0 32 -9.5 47t-35.5 15t-44 -22q-27 -33 -50.5 -147.5t-23.5 -172.5q0 -62 44 -62zM581 500q0 -67 -13.5 -149.5t-47.5 -170.5t-82 -130q-67 -60 -169 -60q-92 0 -139 46.5t-47 137.5q0 112 36.5 247t102.5 200t174 65
q185 0 185 -186z" />
    <glyph glyph-name="one" unicode="1" horiz-adv-x="349" 
d="M420 676l-131 -676h-168l96 497q2 9 -2 13t-13 3l-76 -11l-11 89l199 85h106z" />
    <glyph glyph-name="two" unicode="2" horiz-adv-x="471" 
d="M466 142l-27 -142h-409l24 125l235 244l11.5 11.5t13 13.5t11.5 13t12 14.5t9.5 14t8.5 15.5t5 15.5t2 16.5q0 57 -71 57q-50 0 -114 -32l-42 124q95 54 198 54q99 0 149.5 -51.5t50.5 -132.5q0 -107 -113 -222l-97 -99q-8 -8 -21.5 -18.5t-23.5 -16.5l-9 -6l3 -10
q56 12 81 12h113z" />
    <glyph glyph-name="three" unicode="3" horiz-adv-x="460" 
d="M474 236q0 -44 -15 -86t-45 -78.5t-82.5 -59t-119.5 -22.5q-91 0 -188 34l40 133q56 -21 127 -21q115 0 115 99q0 52 -72 52h-86l25 132h69q39 0 61 19t22 52q0 50 -66 50q-16 0 -33.5 -2.5t-29 -5t-25 -6t-15.5 -3.5l-22 127q97 36 188 36q88 0 134 -42t46 -106
q0 -108 -105 -164v-5q36 -16 56.5 -52.5t20.5 -80.5z" />
    <glyph glyph-name="four" unicode="4" horiz-adv-x="520" 
d="M43 119l22 111l265 441h245l-82 -420h65l-26 -132h-65l-23 -119h-168l23 119h-256zM325 251l21 109l33 122l-18 5q-38 -84 -57 -115l-74 -121h95z" />
    <glyph glyph-name="five" unicode="5" horiz-adv-x="470" 
d="M481 277q0 -77 -27 -144.5t-81 -104.5q-57 -39 -152 -39q-93 0 -177 32l35 134q72 -20 121 -20q107 0 107 96q0 57 -70 57q-27 0 -80 -12l-53 31l102 364h304l-28 -142h-153l-26 -95h13q75 0 120 -41t45 -116z" />
    <glyph glyph-name="six" unicode="6" horiz-adv-x="504" 
d="M279 136q24 0 40 16q13 13 20.5 44t7.5 57q0 42 -36 42q-25 0 -51 -15q-14 -49 -14 -99q0 -45 33 -45zM520 287q0 -69 -28 -139.5t-80 -110.5q-62 -47 -158 -47q-82 0 -128 52t-46 142q0 102 48 222.5t129 185.5q107 85 258 94l9 -125q-159 -37 -214 -127l4 -5
q30 12 69 12q62 0 99.5 -41.5t37.5 -112.5z" />
    <glyph glyph-name="seven" unicode="7" horiz-adv-x="390" 
d="M102 529l28 142h380l-19 -97l-259 -574h-187l261 529h-204z" />
    <glyph glyph-name="eight" unicode="8" horiz-adv-x="529" 
d="M573 527q0 -62 -28.5 -101t-95.5 -85l5 -4q74 -68 74 -143q0 -85 -63.5 -144.5t-190.5 -59.5q-109 0 -157 47.5t-48 120.5q0 60 32 104.5t108 95.5v1q-58 51 -58 125q0 92 65 147t172 55q88 0 136.5 -44t48.5 -115zM325 255l-21 18q-38 -32 -52.5 -51.5t-14.5 -46.5
q0 -20 13.5 -32.5t38.5 -12.5q28 0 49.5 18t21.5 46q0 31 -35 61zM334 445l18 -17q25 20 35 29t17.5 22t7.5 27q0 40 -44 40q-28 0 -44 -17.5t-16 -41.5q0 -18 26 -42z" />
    <glyph glyph-name="nine" unicode="9" horiz-adv-x="515" 
d="M363 540q-24 0 -39 -17q-13 -14 -21 -44.5t-8 -55.5q0 -42 36 -42q25 0 51 15q15 52 15 99q0 45 -34 45zM125 392q0 70 26 139t78 109q61 46 160 46q83 0 128.5 -48t45.5 -137q0 -97 -40 -222.5t-119 -194.5q-108 -94 -266 -94l-19 125q87 12 137 39.5t79 87.5l-4 5
q-32 -12 -70 -12q-61 0 -98.5 42.5t-37.5 114.5z" />
    <glyph glyph-name="colon" unicode=":" horiz-adv-x="266" 
d="M244 80q0 -42 -26.5 -66t-68.5 -24t-68.5 24t-26.5 66q0 43 26.5 66.5t68.5 23.5q43 0 69 -23.5t26 -66.5zM302 381q0 -42 -26.5 -66t-68.5 -24t-68.5 24t-26.5 66q0 43 26.5 66.5t68.5 23.5q43 0 69 -23.5t26 -66.5z" />
    <glyph glyph-name="semicolon" unicode=";" horiz-adv-x="266" 
d="M302 381q0 -42 -26.5 -66t-68.5 -24t-68.5 24t-26.5 66q0 43 26.5 66.5t68.5 23.5q43 0 69 -23.5t26 -66.5zM244 80q0 -44 -46 -117q-3 -5 -4 -7l-59 -95l-69 11l41 120v6q-53 20 -53 82q0 43 26.5 66.5t68.5 23.5q43 0 69 -23.5t26 -66.5z" />
    <glyph glyph-name="less" unicode="&#x3c;" 
d="M471 102l-22 -110l-365 212l14 72l448 210l-24 -126l-266 -124l-1 -10z" />
    <glyph glyph-name="equal" unicode="=" horiz-adv-x="499" 
d="M97 273l19 100h410l-19 -100h-410zM65 107l19 100h410l-19 -100h-410z" />
    <glyph glyph-name="greater" unicode="&#x3e;" 
d="M46 -8l24 127l266 124l1 10l-216 124l21 109l366 -210l-14 -72z" />
    <glyph glyph-name="question" unicode="?" horiz-adv-x="402" 
d="M489 547q0 -63 -27 -106.5t-90 -80.5q-2 -1 -11.5 -6.5t-12 -7t-11 -7t-11.5 -8t-9.5 -8t-9.5 -9.5t-8 -10t-8 -12t-5 -13l-7 -22h-128l7 48q8 57 27 86.5t69 58.5q23 13 33 20t18.5 18.5t8.5 24.5q0 33 -58 33q-36 0 -90 -13l-3 131q86 28 166 28q79 0 119.5 -40
t40.5 -105zM279 80q0 -42 -26.5 -66t-68.5 -24t-68.5 24t-26.5 66q0 43 26.5 66.5t68.5 23.5q43 0 69 -23.5t26 -66.5z" />
    <glyph glyph-name="at" unicode="@" horiz-adv-x="750" 
d="M667 107l10 -62q-135 -55 -283 -55q-65 0 -120.5 14t-102 43t-73.5 81t-27 122q0 106 41.5 200.5t130.5 152.5q102 66 264 66q59 0 111 -13t96 -40t70 -75t26 -112q0 -117 -66.5 -200t-175.5 -83q-47 0 -68.5 16t-26.5 52h-10q-43 -60 -114 -60q-45 0 -72.5 28.5
t-27.5 79.5q0 53 22 109t61 91q53 47 149 47q32 0 67 -5.5t54 -10.5l20 -5l-52 -220q-7 -17 -5 -28.5t23 -11.5q60 0 90 59.5t30 129.5q0 88 -53.5 127.5t-160.5 39.5q-122 0 -198 -51q-61 -41 -92.5 -118.5t-31.5 -160.5q0 -96 67 -140t175 -44q124 0 253 37zM484 324
l22 89q-20 4 -44 4q-38 0 -60 -20q-20 -18 -31.5 -51t-11.5 -56q0 -44 38 -44q30 0 55 23.5t32 54.5z" />
    <glyph glyph-name="A" unicode="A" horiz-adv-x="645" 
d="M10 0l312 676h237l76 -676h-170l-12 113h-212l-52 -113h-179zM383 429l-78 -174h132l-18 174l-3 68h-11q-13 -48 -22 -68z" />
    <glyph glyph-name="B" unicode="B" horiz-adv-x="606" 
d="M409 162q28 26 28 68q0 25 -14.5 40t-41.5 15h-98l-28 -143h97q37 0 57 20zM387 407q30 0 49.5 22t19.5 54q1 23 -12 37t-38 14h-74l-25 -127h80zM610 223q0 -108 -72 -165.5t-187 -57.5h-294l130 676h257q92 0 142.5 -41t50.5 -113q0 -59 -30 -100.5t-87 -58.5l-1 -4
q91 -40 91 -136z" />
    <glyph glyph-name="C" unicode="C" horiz-adv-x="524" 
d="M502 149l14 -127q-86 -37 -197 -37q-107 0 -169.5 54.5t-62.5 157.5q0 114 39.5 240.5t117.5 187.5q85 66 215 66q84 0 153 -24l-53 -136q-50 14 -98 14q-66 0 -108 -34q-39 -32 -63.5 -119t-24.5 -153q0 -108 109 -108q67 0 128 18z" />
    <glyph glyph-name="D" unicode="D" horiz-adv-x="622" 
d="M409 171q36 30 57 107.5t21 142.5q0 58 -26 85.5t-86 27.5h-43l-77 -392h70q50 0 84 29zM662 437q0 -101 -34 -208.5t-102 -163.5q-79 -65 -204 -65h-265l130 676h218q120 0 188.5 -60t68.5 -179z" />
    <glyph glyph-name="E" unicode="E" horiz-adv-x="492" 
d="M57 0l130 676h394l-27 -142h-222l-22 -112h146l-26 -132h-146l-29 -148h245l-27 -142h-416z" />
    <glyph glyph-name="F" unicode="F" horiz-adv-x="449" 
d="M57 0l130 676h374l-27 -142h-202l-28 -141h136l-25 -132h-136l-51 -261h-171z" />
    <glyph glyph-name="G" unicode="G" horiz-adv-x="620" 
d="M372 130q35 0 74 11l23 119h-117l26 132h289l-66 -337q-121 -71 -259 -71q-116 0 -185.5 54.5t-69.5 168.5q0 112 40.5 235t118.5 183q88 66 227 66q124 0 210 -41l-59 -133q-84 28 -151 28q-85 0 -129 -41q-36 -33 -59 -119.5t-23 -150.5q0 -52 25 -78t85 -26z" />
    <glyph glyph-name="H" unicode="H" horiz-adv-x="677" 
d="M448 0l55 285h-220l-55 -285h-171l130 676h172l-48 -249h220l48 249h172l-131 -676h-172z" />
    <glyph glyph-name="I" unicode="I" horiz-adv-x="285" 
d="M57 0l130 676h172l-131 -676h-171z" />
    <glyph glyph-name="J" unicode="J" horiz-adv-x="347" 
d="M421 676l-86 -441q-27 -140 -91 -195t-217 -55h-20l29 150q60 0 88.5 22t38.5 80l86 439h172z" />
    <glyph glyph-name="K" unicode="K" horiz-adv-x="652" 
d="M444 0l-135 285h-26l-55 -285h-171l130 676h172l-54 -278h23l217 278h204l-276 -345l158 -331h-187z" />
    <glyph glyph-name="L" unicode="L" horiz-adv-x="454" 
d="M57 0l130 676h172l-104 -534h207l-27 -142h-378z" />
    <glyph glyph-name="M" unicode="M" horiz-adv-x="816" 
d="M607 308l-126 -222h-122l-35 240l-8 76h-17q-10 -87 -15 -115l-56 -287h-171l130 676h220l52 -357h1l210 357h220l-131 -676h-172l56 287l21 108h-17q-27 -65 -40 -87z" />
    <glyph glyph-name="N" unicode="N" horiz-adv-x="695" 
d="M367 676l129 -338q4 -10 8 -27.5t6 -30.5l3 -12l12 2q7 73 12 95l60 311h172l-131 -676h-186l-127 336q-4 10 -8.5 27.5t-6.5 30.5l-2 12l-12 -1q-4 -73 -8 -95l-60 -310h-171l130 676h180z" />
    <glyph glyph-name="O" unicode="O" horiz-adv-x="670" 
d="M452 166q33 29 58 122.5t25 153.5q0 103 -92 103q-52 0 -92 -34q-37 -31 -61 -122.5t-24 -155.5q0 -52 20.5 -77t71.5 -25q54 0 94 35zM712 470q0 -107 -41.5 -233t-116.5 -184q-88 -68 -221 -68q-114 0 -179.5 52.5t-65.5 166.5q0 107 40.5 232t113.5 183q91 72 224 72
q114 0 180 -53.5t66 -167.5z" />
    <glyph glyph-name="P" unicode="P" horiz-adv-x="567" 
d="M427 375q31 26 31 105q0 25 -15.5 39.5t-42.5 14.5h-68l-35 -180h69q35 0 61 21zM347 212h-78l-41 -212h-171l130 676h245q89 0 143 -49.5t54 -139.5q0 -150 -102 -228q-62 -47 -180 -47z" />
    <glyph glyph-name="Q" unicode="Q" horiz-adv-x="670" 
d="M483 -83l-46 80q-47 -12 -104 -12q-114 0 -179.5 52.5t-65.5 166.5q0 107 40.5 232t113.5 183q91 72 224 72q114 0 180 -53.5t66 -167.5q0 -106 -41 -231t-115 -184l42 -73zM266 233q0 -52 20.5 -77t71.5 -25l1 3l-32 56l115 66l33 -59q25 46 42.5 122t17.5 123
q0 103 -92 103q-52 0 -92 -34q-37 -31 -61 -122.5t-24 -155.5z" />
    <glyph glyph-name="R" unicode="R" horiz-adv-x="583" 
d="M524 281q-18 -12 -58 -27l100 -254h-179l-89 232h-25l-45 -232h-171l130 676h240q92 0 146 -46.5t54 -138.5q0 -65 -27 -120.5t-76 -89.5zM418 384q36 28 36 98q0 24 -16 38t-43 14h-63l-33 -170h63q31 0 56 20z" />
    <glyph glyph-name="S" unicode="S" horiz-adv-x="549" 
d="M558 204q0 -94 -67 -156.5t-193 -62.5q-73 0 -137.5 20.5t-101.5 45.5l52 131q104 -51 178 -51q43 0 65.5 19t22.5 50q0 34 -59 60l-65 30q-65 31 -96 72t-31 106q0 97 70 160t193 63q54 0 108 -15.5t85 -34.5l-64 -132q-72 36 -131 36q-38 0 -59 -18t-21 -47
q0 -38 42 -57l73 -34q136 -64 136 -185z" />
    <glyph glyph-name="T" unicode="T" horiz-adv-x="528" 
d="M613 534h-159l-104 -534h-172l104 534h-160l27 142h491z" />
    <glyph glyph-name="U" unicode="U" horiz-adv-x="621" 
d="M695 676l-90 -462q-22 -112 -99.5 -170.5t-193.5 -58.5q-107 0 -163.5 52t-56.5 142q0 29 6 60l85 437h172l-82 -422q-8 -37 -8 -59q0 -27 18 -45.5t50 -18.5q84 0 105 108l85 437h172z" />
    <glyph glyph-name="V" unicode="V" horiz-adv-x="613" 
d="M183 0l-42 676h169l20 -403l-1 -97h16q0 1 14 44.5t18 52.5l174 403h183l-303 -676h-248z" />
    <glyph glyph-name="W" unicode="W" horiz-adv-x="941" 
d="M532 388q-10 -49 -33 -108l-109 -280h-224l-25 676h169l11 -351l-2 -98h15q12 41 23 69l130 333h180l18 -315v-87h13q19 65 30 90l153 359h181l-291 -676h-204l-19 278l-3 110h-13z" />
    <glyph glyph-name="X" unicode="X" horiz-adv-x="592" 
d="M10 0l222 366l-77 310h172l41 -162q3 -12 5.5 -29t2.5 -29l1 -11h8l2 5q2 5 4.5 12.5t6 16t8 18t8.5 17.5l92 162h195l-208 -347l82 -329h-174l-44 179l-8 73h-7q-1 -1 -6.5 -14.5t-13.5 -31.5t-14 -27l-106 -179h-192z" />
    <glyph glyph-name="Y" unicode="Y" horiz-adv-x="588" 
d="M709 676l-297 -473l-39 -203h-171l43 222l-104 454h170l42 -188q3 -15 4.5 -35.5t1.5 -33.5v-13h8q15 47 36 82l111 188h195z" />
    <glyph glyph-name="Z" unicode="Z" horiz-adv-x="494" 
d="M481 0h-452l264 469q9 16 20 31t17 22l6 6v6h-201l27 142h433l-270 -481q-8 -15 -17.5 -27t-14.5 -16l-5 -5v-5h220z" />
    <glyph glyph-name="bracketleft" unicode="[" horiz-adv-x="301" 
d="M290 -8l-18 -92h-227l152 791h228l-18 -92h-93l-117 -607h93z" />
    <glyph glyph-name="backslash" unicode="\" horiz-adv-x="411" 
d="M154 693h105l128 -713h-104z" />
    <glyph glyph-name="bracketright" unicode="]" horiz-adv-x="302" 
d="M-9 -100l18 92h92l117 607h-93l18 92h238l-153 -791h-237z" />
    <glyph glyph-name="asciicircum" unicode="^" horiz-adv-x="511" 
d="M414 677l148 -307h-111l-81 161h-14l-138 -161h-127l253 307h70z" />
    <glyph glyph-name="underscore" unicode="_" horiz-adv-x="492" 
d="M478 -71v-47h-500v47h500z" />
    <glyph glyph-name="grave" unicode="`" horiz-adv-x="470" 
d="M93 648q0 33 46 33h42q55 0 75 -34l69 -113h-89l-109 71q-19 13 -26.5 21.5t-7.5 21.5z" />
    <glyph glyph-name="a" unicode="a" horiz-adv-x="520" 
d="M64 141q0 84 27 161t77 123q73 65 207 65q48 0 95 -9t70 -17l23 -9l-52 -267q-5 -27 -0.5 -38.5t19.5 -20.5l17 -9l-58 -130q-59 0 -98.5 22.5t-49.5 57.5h-6q-52 -80 -139 -80q-65 0 -98.5 40.5t-33.5 110.5zM339 354q-39 0 -64 -32q-16 -21 -28.5 -64.5t-12.5 -81.5
q0 -50 39 -50q26 0 46 26t30 73l25 123q-15 6 -35 6z" />
    <glyph glyph-name="b" unicode="b" horiz-adv-x="508" 
d="M536 350q0 -85 -27.5 -166.5t-83.5 -132.5q-67 -61 -177 -61q-75 0 -125.5 38t-50.5 118q0 45 11 101l86 449h168l-44 -228l-11 -32l5 -4q55 58 128 58q57 0 89 -38t32 -102zM277 125q32 0 52 36q15 27 24.5 69t9.5 69q0 56 -39 56q-25 0 -44 -22t-26 -62l-14 -74
q-7 -37 4 -54.5t33 -17.5z" />
    <glyph glyph-name="c" unicode="c" horiz-adv-x="386" 
d="M374 141l12 -117q-53 -34 -136 -34q-88 0 -137 45t-49 131q0 70 28 153t84 126q60 45 155 45q66 0 123 -25l-44 -123q-41 12 -67 12q-43 0 -64 -24q-17 -20 -28.5 -61.5t-11.5 -78.5q0 -30 15.5 -47t42.5 -17q34 0 77 15z" />
    <glyph glyph-name="d" unicode="d" horiz-adv-x="525" 
d="M64 141q0 86 25 162.5t74 121.5q73 65 192 65l46 -4l41 210h168l-47 -241l-52 -267q-5 -27 -0.5 -38.5t19.5 -20.5l17 -9l-58 -130q-60 0 -99 22.5t-49 57.5h-6q-52 -80 -139 -80q-65 0 -98.5 40.5t-33.5 110.5zM340 354q-42 0 -67 -32q-16 -21 -28.5 -64.5t-12.5 -81.5
q0 -50 38 -50q25 0 46 26.5t31 72.5l26 126q-15 3 -33 3z" />
    <glyph glyph-name="e" unicode="e" horiz-adv-x="514" 
d="M253 299h92q21 0 30.5 10.5t9.5 23.5q0 27 -50 27q-42 0 -60 -18q-12 -12 -22 -43zM458 151l13 -118q-88 -43 -191 -43q-214 0 -216 164q0 65 25.5 145t64.5 121q68 70 205 70q93 0 140.5 -35.5t47.5 -101.5q0 -78 -54 -123.5t-165 -45.5h-97q-2 -9 -2 -19
q0 -21 17.5 -30t61.5 -9q63 0 150 25z" />
    <glyph glyph-name="f" unicode="f" horiz-adv-x="339" 
d="M238 0h-169l66 340h-59l28 140h59l14 76q15 82 64 118.5t145 36.5q17 0 39.5 -2.5t36.5 -4.5l13 -3l-32 -131q-26 5 -49 5t-35.5 -9t-17.5 -35l-10 -51h93l-28 -140h-92z" />
    <glyph glyph-name="g" unicode="g" horiz-adv-x="524" 
d="M341 354q-39 0 -64 -32q-16 -21 -28.5 -64.5t-12.5 -81.5q0 -24 10.5 -37t25.5 -13q26 0 49 29.5t32 75.5l23 117q-15 6 -35 6zM68 141q0 84 27 161t77 123q73 65 207 65q48 0 95 -9t70 -17l23 -9l-98 -497q-37 -194 -241 -194q-46 0 -87 10t-59 20l-18 11l48 122
q52 -27 104 -27q73 0 86 64l17 91h-6q-42 -65 -113 -65q-66 0 -99 39.5t-33 111.5z" />
    <glyph glyph-name="h" unicode="h" horiz-adv-x="517" 
d="M536 306l-59 -306h-169l55 283q5 23 5 36q0 35 -31 35q-53 0 -75 -114l-47 -240h-167l134 696h168l-52 -266h5q57 60 128 60q51 0 82 -33t31 -80q0 -33 -8 -71z" />
    <glyph glyph-name="i" unicode="i" horiz-adv-x="264" 
d="M48 0l92 480h168l-93 -480h-167zM345 614q0 -41 -26 -62.5t-69 -21.5q-42 0 -68.5 21.5t-26.5 62.5q-1 42 25 63t69 21t69 -21t27 -63z" />
    <glyph glyph-name="j" unicode="j" horiz-adv-x="268" 
d="M310 480l-104 -533q-19 -98 -76.5 -140.5t-163.5 -42.5h-49l27 140h26q62 0 76 85l96 491h168zM349 614q0 -41 -26 -62.5t-69 -21.5q-42 0 -68.5 21.5t-26.5 62.5q-1 42 25 63t69 21t69 -21t27 -63z" />
    <glyph glyph-name="k" unicode="k" horiz-adv-x="542" 
d="M351 0l-83 198h-15l-38 -198h-167l134 696h168l-74 -383h14l129 167h193l-186 -238l105 -242h-180z" />
    <glyph glyph-name="l" unicode="l" horiz-adv-x="293" 
d="M308 130l-37 -140h-48q-79 0 -115 27.5t-36 84.5q0 35 11 90l98 504h168l-93 -478q-6 -30 -6 -43q0 -17 8 -25.5t27 -13.5z" />
    <glyph glyph-name="m" unicode="m" horiz-adv-x="760" 
d="M424 490q40 0 68.5 -21t37.5 -59h5q63 80 142 80q51 0 80.5 -32.5t29.5 -82.5q0 -28 -8 -68l-59 -307h-168l54 279q5 27 5 40q0 35 -27 35q-48 0 -68 -104l-48 -250h-168l54 279q5 23 5 40q0 35 -27 35q-48 0 -68 -104l-48 -250h-168l93 480h122l22 -60h5q55 70 134 70z
" />
    <glyph glyph-name="n" unicode="n" horiz-adv-x="517" 
d="M536 306l-59 -306h-169l55 283q5 23 5 36q0 35 -29 35q-54 0 -76 -114l-47 -240h-168l93 480h122l22 -60h4q61 70 140 70q54 0 84.5 -33t30.5 -82q0 -29 -8 -69z" />
    <glyph glyph-name="o" unicode="o" horiz-adv-x="494" 
d="M271 126q31 0 46 22t27.5 79.5t12.5 88.5q0 38 -41 38q-32 0 -46 -22q-15 -22 -27.5 -79.5t-12.5 -89.5q0 -18 11.5 -27.5t29.5 -9.5zM521 326q2 -72 -23 -154.5t-77 -129.5q-55 -52 -168 -52q-82 0 -133.5 41.5t-54.5 122.5q-2 66 24 154.5t78 131.5q61 50 165 50
q85 0 135.5 -40t53.5 -124z" />
    <glyph glyph-name="p" unicode="p" horiz-adv-x="519" 
d="M330 145q20 24 32.5 72t12.5 83q0 55 -41 55q-24 0 -42.5 -23.5t-26.5 -67.5l-23 -120q21 -19 44 -19q28 0 44 20zM285 423h6q50 67 129 67q127 0 127 -148q0 -77 -22 -157t-66 -134q-51 -61 -134 -61q-60 0 -107 33l-48 -250h-167l136 707h126z" />
    <glyph glyph-name="q" unicode="q" horiz-adv-x="522" 
d="M339 354q-40 0 -64 -32q-16 -22 -28.5 -65.5t-12.5 -80.5q0 -50 39 -50q26 0 46 26t30 73l25 123q-15 6 -35 6zM64 141q0 84 27 161t77 123q73 65 207 65q48 0 95 -9t70 -17l23 -9l-132 -681h-168l51 265h-8q-44 -49 -112 -49q-61 0 -95.5 41t-34.5 110z" />
    <glyph glyph-name="r" unicode="r" horiz-adv-x="341" 
d="M409 490h17l-28 -150h-35q-43 0 -67.5 -25.5t-36.5 -91.5l-43 -223h-168l93 480h109l22 -60h6q41 70 131 70z" />
    <glyph glyph-name="s" unicode="s" horiz-adv-x="459" 
d="M464 168q0 -83 -55 -130.5t-156 -47.5q-120 0 -212 53l52 127q78 -44 153 -44q45 0 45 23q0 8 -5 11t-23 9l-64 21q-106 35 -106 122t61.5 132.5t157.5 45.5q93 0 169 -37l-55 -129q-62 30 -118 30q-44 0 -44 -24q0 -12 18 -18l61 -19q121 -38 121 -125z" />
    <glyph glyph-name="t" unicode="t" horiz-adv-x="350" 
d="M76 340l28 140h60l22 115l175 34l-29 -149h89l-28 -140h-89l-23 -120q-4 -19 -4 -35q0 -43 50 -52l25 -5l-36 -138h-46q-86 0 -129 32t-43 89q0 29 9 76l29 153h-60z" />
    <glyph glyph-name="u" unicode="u" horiz-adv-x="518" 
d="M561 480l-57 -294q-4 -27 0 -38t18 -18l18 -10l-58 -130q-53 0 -92.5 19t-52.5 52h-5q-51 -71 -129 -71q-59 0 -95 36.5t-36 100.5q0 41 9 85l52 268h168l-56 -287q-4 -20 -4 -33q0 -34 30 -34q53 0 76 116l46 238h168z" />
    <glyph glyph-name="v" unicode="v" horiz-adv-x="519" 
d="M418 480h184l-227 -480h-252l-20 480h165l6 -259l-2 -66h12q11 44 21 66z" />
    <glyph glyph-name="w" unicode="w" horiz-adv-x="725" 
d="M391 461h108l20 -177l4 -68h12q8 45 18 68l78 196h177l-201 -480h-175l-21 178l-2 59h-11q-7 -35 -19 -59l-89 -178h-165l-22 480h164l3 -196l-2 -68h12q11 45 23 68z" />
    <glyph glyph-name="x" unicode="x" horiz-adv-x="542" 
d="M620 480l-160 -256l63 -224h-174l-30 126l-7 44h-6q-9 -23 -22 -44l-78 -126h-191l167 258l-57 222h172l29 -115l6 -51h6q7 23 24 51l69 115h189z" />
    <glyph glyph-name="y" unicode="y" horiz-adv-x="525" 
d="M428 480h180l-225 -549q-36 -87 -96.5 -127t-153.5 -40h-122l27 140h91q39 0 58 10.5t31 40.5l17 45h-68l-64 480h168l25 -218l6 -91h15q6 45 25 92z" />
    <glyph glyph-name="z" unicode="z" horiz-adv-x="416" 
d="M94 340l27 140h369l-12 -64l-175 -233q-7 -9 -18.5 -18.5t-19.5 -14.5l-8 -5l1 -5h171l-27 -140h-383l14 73l163 220q7 9 18.5 19t19.5 16l9 6l-1 6h-148z" />
    <glyph glyph-name="braceleft" unicode="{" horiz-adv-x="330" 
d="M309 -8l-18 -92q-112 0 -155 38t-25 131l22 110q14 68 -49 68h-16l19 96h16q61 0 75 68l22 111q18 93 75 131t169 38l-18 -92q-41 -4 -60 -21t-27 -61l-21 -108q-9 -43 -35.5 -70.5t-68.5 -34.5l-4 -19q40 -6 56 -34t7 -70l-21 -107q-8 -45 4.5 -61.5t52.5 -20.5z" />
    <glyph glyph-name="bar" unicode="|" horiz-adv-x="84" 
d="M52 -40v752h110v-752h-110z" />
    <glyph glyph-name="braceright" unicode="}" horiz-adv-x="329" 
d="M0 -100l18 92q40 4 59 21t27 61l21 107q9 42 35.5 70t67.5 34l4 19q-39 7 -54.5 35t-7.5 70l21 108q8 45 -4.5 61.5t-52.5 20.5l18 92q112 0 155 -38t25 -131l-22 -111q-14 -68 49 -68h16l-19 -96h-16q-61 0 -75 -68l-22 -110q-18 -93 -75 -131t-168 -38z" />
    <glyph glyph-name="asciitilde" unicode="~" 
d="M463 316h61q-8 -81 -46.5 -116.5t-115.5 -24.5l-154 22q-32 4 -50 -5.5t-30 -34.5h-61q4 64 46.5 108t115.5 33l159 -23q32 -4 48 5.5t27 35.5z" />
    <glyph glyph-name="nbspace" unicode="&#xa0;" horiz-adv-x="235" 
 />
    <glyph glyph-name="exclamdown" unicode="&#xa1;" horiz-adv-x="288" 
d="M30 -120l108 343h101l-27 -343q-4 -52 -32 -72.5t-76 -20.5q-81 0 -81 53q0 18 7 40zM316 399q0 -42 -26.5 -66t-68.5 -24t-68.5 24t-26.5 66q0 43 26.5 66.5t68.5 23.5q43 0 69 -23.5t26 -66.5z" />
    <glyph glyph-name="cent" unicode="&#xa2;" horiz-adv-x="381" 
d="M374 141l12 -117q-36 -24 -105 -32l-13 -67h-110l14 76q-108 34 -108 165q0 70 28 153t84 126q37 28 91 39l14 71h110l-14 -69q41 -6 77 -21l-44 -123q-41 12 -67 12q-43 0 -64 -24q-17 -20 -28.5 -61.5t-11.5 -78.5q0 -30 15.5 -47t42.5 -17q34 0 77 15z" />
    <glyph glyph-name="sterling" unicode="&#xa3;" horiz-adv-x="527" 
d="M66 303l20 100h82l17 86q20 105 73 153.5t159 48.5q78 0 137 -22l-57 -134q-35 10 -63 10q-44 0 -61.5 -19t-28.5 -77l-9 -46h127l-20 -100h-127l-16 -86q-8 -39 -22 -64q45 -15 64 -15q41 0 51 40l3 11h148l-4 -22q-19 -96 -54 -136.5t-119 -40.5q-29 0 -86 14t-90 14
q-46 0 -96 -30l-61 138q53 27 74 51.5t32 79.5l9 46h-82z" />
    <glyph glyph-name="currency" unicode="&#xa4;" horiz-adv-x="543" 
d="M116 287q0 54 27 102l-60 61l70 70l59 -60q49 30 106 30q58 0 105 -30l60 60l70 -70l-60 -60q28 -47 28 -103q0 -57 -30 -106l62 -61l-70 -70l-63 62q-48 -27 -102 -27q-55 0 -103 27l-62 -62l-70 70l62 62q-29 46 -29 105zM216 287q0 -42 30 -72t72 -30t71.5 30t29.5 72
t-29.5 71.5t-71.5 29.5t-72 -29.5t-30 -71.5z" />
    <glyph glyph-name="yen" unicode="&#xa5;" horiz-adv-x="588" 
d="M93 253l19 100h103l-74 323h170l42 -188q3 -15 4.5 -35.5t1.5 -33.5v-13h8q15 47 36 82l111 188h195l-182 -290q-5 -8 -11.5 -15.5t-10.5 -10.5l-4 -4l1 -3h96l-19 -100h-136l-28 -45h155l-19 -100h-158l-20 -108h-171l21 108h-158l19 100h158l3 14l-7 31h-145z" />
    <glyph glyph-name="brokenbar" unicode="&#xa6;" horiz-adv-x="55" 
d="M131 165v-353h-110v353h110zM131 692v-354h-110v354h110z" />
    <glyph glyph-name="section" unicode="&#xa7;" horiz-adv-x="497" 
d="M520 230q0 -87 -100 -150q14 -30 14 -62q0 -99 -71 -152.5t-177 -53.5q-58 0 -118 17l43 138q42 -9 73 -9q39 0 60.5 13t21.5 37q0 19 -26 45l-93 82q-73 63 -73 138q0 88 99 150q-13 29 -13 62q0 99 71 152.5t177 53.5q58 0 118 -17l-43 -138q-42 9 -73 9
q-39 0 -60.5 -13t-21.5 -37q0 -19 26 -45l93 -82q73 -63 73 -138zM323 266l-66 58q-13 -16 -13 -35q0 -25 27 -52l66 -58q13 16 13 35q0 25 -27 52z" />
    <glyph glyph-name="dieresis" unicode="&#xa8;" horiz-adv-x="470" 
d="M215 614q0 -41 -23.5 -62.5t-61.5 -21.5t-61.5 21.5t-23.5 62.5q0 42 23.5 63t61.5 21q39 0 62 -21t23 -63zM425 614q0 -41 -23.5 -62.5t-61.5 -21.5t-61.5 21.5t-23.5 62.5q0 42 23.5 63t61.5 21q39 0 62 -21t23 -63z" />
    <glyph glyph-name="copyright" unicode="&#xa9;" horiz-adv-x="747" 
d="M680 320q0 101 -71 172t-173 71t-173 -71t-71 -173t71 -173t174 -71q101 0 172 71t71 174zM770 320q0 -139 -97.5 -237t-235.5 -98q-139 0 -237 97.5t-98 236.5t97.5 236.5t236.5 97.5t236.5 -97.5t97.5 -235.5zM533 245l15 -84q-40 -20 -101 -20q-64 0 -101 29
q-49 41 -49 149q0 100 47 145q36 32 103 32q51 0 90 -12l-15 -87q-30 6 -49 6q-33 0 -47 -14q-18 -18 -18 -70t19 -71q13 -12 46 -12q20 0 60 9z" />
    <glyph glyph-name="ordfeminine" unicode="&#xaa;" horiz-adv-x="303" 
d="M113 521q0 92 52 137q38 33 113 33q24 0 50 -4.5t40 -8.5l14 -5l-26 -133q-4 -22 10 -30l8 -4l-29 -65q-66 -5 -84 35h-3q-26 -35 -72 -35q-34 0 -53.5 22t-19.5 58zM260 623q-19 0 -32 -16q-20 -28 -20 -73q0 -25 19 -25q29 0 38 49l13 62q-8 3 -18 3z" />
    <glyph glyph-name="guillemotleft" unicode="&#xab;" horiz-adv-x="457" 
d="M199 27l-121 211l121 211h116l-121 -211l121 -211h-116zM396 27l-121 211l121 211h116l-121 -211l121 -211h-116z" />
    <glyph glyph-name="logicalnot" unicode="&#xac;" 
d="M511 290l-37 -189h-100l17 89h-310l20 100h410z" />
    <glyph glyph-name="registered" unicode="&#xae;" horiz-adv-x="451" 
d="M533 509q0 -85 -57.5 -142.5t-151.5 -57.5q-95 0 -152.5 57.5t-57.5 142.5t57.5 142t152.5 57q94 0 151.5 -57t57.5 -142zM175 509q0 -62 39.5 -102.5t109.5 -40.5t110 40.5t40 102.5t-40 103t-110 41t-109.5 -41t-39.5 -103zM243 409v204h104q26 0 42 -17t16 -47
q0 -47 -30 -60l49 -80h-63l-43 74h-17v-74h-58zM349 549q0 19 -18 19h-30v-40h30q18 0 18 21z" />
    <glyph glyph-name="macron" unicode="&#xaf;" horiz-adv-x="470" 
d="M373 640l-19 -96h-254l19 96h254z" />
    <glyph glyph-name="degree" unicode="&#xb0;" horiz-adv-x="367" 
d="M438 567q0 -60 -42.5 -102.5t-101.5 -42.5q-60 0 -102.5 42.5t-42.5 101.5q0 60 42.5 102.5t101.5 42.5q60 0 102.5 -42.5t42.5 -101.5zM362 567q0 28 -20 48t-49 20q-28 0 -48 -20t-20 -49q0 -28 20.5 -48t48.5 -20t48 20t20 49z" />
    <glyph glyph-name="plusminus" unicode="&#xb1;" 
d="M38 -34l19 100h410l-20 -100h-409zM84 207l20 100h155l30 155h100l-30 -155h155l-20 -100h-155l-22 -112h-100l22 112h-155z" />
    <glyph glyph-name="twosuperior" unicode="&#xb2;" horiz-adv-x="271" 
d="M322 435l-17 -85h-211l15 82l110 106q28 25 28 46q0 22 -29 22q-28 0 -60 -13l-10 76q56 22 99 22q52 0 77.5 -26t25.5 -69q0 -59 -55 -112l-34 -32l-23 -17l3 -6q17 6 29 6h52z" />
    <glyph glyph-name="threesuperior" unicode="&#xb3;" horiz-adv-x="253" 
d="M318 462q0 -58 -39.5 -87t-104.5 -29q-43 0 -90 14l23 79q32 -8 59 -8q52 0 52 30q0 18 -26 18h-55l16 85h43q30 0 30 23q0 19 -32 19q-26 0 -43 -5l-5 77q56 13 88 13q96 0 96 -73q0 -64 -54 -86l-1 -3q20 -7 31.5 -26t11.5 -41z" />
    <glyph glyph-name="acute" unicode="&#xb4;" horiz-adv-x="470" 
d="M441 649q0 -10 -6 -19t-13.5 -14t-24.5 -15l-116 -67h-91l88 113q27 34 82 34h42q39 0 39 -32z" />
    <glyph glyph-name="mu" unicode="&#xb5;" horiz-adv-x="524" 
d="M567 480l-57 -294q-4 -27 0 -38t18 -18l18 -10l-68 -130q-106 0 -135 71h-5q-50 -70 -126 -71l-42 -217h-167l136 707h168l-56 -287q-4 -20 -4 -33q0 -34 30 -34q53 0 76 116l46 238h168z" />
    <glyph glyph-name="paragraph" unicode="&#xb6;" horiz-adv-x="497" 
d="M156 0l71 365q-51 13 -76 49t-25 83q0 83 61 131.5t154 48.5h267l-21 -112h-56l-110 -565h-110l110 565h-45l-110 -565h-110z" />
    <glyph glyph-name="periodcentered" unicode="&#xb7;" horiz-adv-x="266" 
d="M276 248q0 -42 -26.5 -66t-68.5 -24t-68.5 24t-26.5 66q0 43 26.5 66.5t68.5 23.5q43 0 69 -23.5t26 -66.5z" />
    <glyph glyph-name="cedilla" unicode="&#xb8;" horiz-adv-x="470" 
d="M399 -110q0 -54 -36 -80t-96 -26q-25 0 -54 2.5t-46 5.5l-17 2l18 61q48 -5 74 -5q42 0 42 32q0 19 -31 19h-59l41 103h89l-15 -51h10q80 0 80 -63z" />
    <glyph glyph-name="onesuperior" unicode="&#xb9;" horiz-adv-x="211" 
d="M309 687l-65 -337h-100l47 241q1 5 -1.5 7t-7.5 1l-39 -6l-11 48l100 46h77z" />
    <glyph glyph-name="ordmasculine" unicode="&#xba;" horiz-adv-x="291" 
d="M244 509q15 0 23 11q7 11 13.5 40t6.5 44q0 19 -21 19q-16 0 -23 -11t-13.5 -40t-6.5 -45q0 -18 21 -18zM379 609q2 -92 -50 -140q-30 -28 -94 -28q-101 0 -104 82q-1 35 11 77t40 64q34 27 92 27q102 0 105 -82z" />
    <glyph glyph-name="guillemotright" unicode="&#xbb;" horiz-adv-x="457" 
d="M471 238l-121 -211h-116l121 211l-121 211h116zM274 238l-121 -211h-116l121 211l-121 211h116z" />
    <glyph glyph-name="onequarter" unicode="&#xbc;" horiz-adv-x="600" 
d="M463 693h110l-413 -713h-111zM245 676l-65 -337h-100l47 241q1 5 -1.5 7t-7.5 1l-39 -6l-11 48l100 46h77zM325 51l12 70l123 214h158l-41 -209h27l-14 -75h-27l-10 -51h-99l10 51h-139zM478 126l10 50l16 75l-17 4q-18 -54 -28 -71l-32 -58h51z" />
    <glyph glyph-name="onehalf" unicode="&#xbd;" horiz-adv-x="606" 
d="M463 693h110l-413 -713h-111zM245 676l-65 -337h-100l47 241q1 5 -1.5 7t-7.5 1l-39 -6l-11 48l100 46h77zM574 85l-17 -85h-211l15 82l110 106q28 25 28 46q0 22 -29 22q-28 0 -60 -13l-10 76q56 22 99 22q52 0 77.5 -26t25.5 -69q0 -59 -55 -112l-34 -32l-23 -17l3 -6
q17 6 29 6h52z" />
    <glyph glyph-name="threequarters" unicode="&#xbe;" horiz-adv-x="688" 
d="M549 693h110l-413 -713h-111zM321 451q0 -58 -39.5 -87t-104.5 -29q-43 0 -90 14l23 79q32 -8 59 -8q52 0 52 30q0 18 -26 18h-55l16 85h43q30 0 30 23q0 19 -32 19q-25 0 -43 -5l-5 77q56 13 88 13q96 0 96 -73q0 -64 -54 -86l-1 -3q20 -7 31.5 -26t11.5 -41zM413 51
l12 70l123 214h158l-41 -209h27l-14 -75h-27l-10 -51h-99l10 51h-139zM566 126l10 50l16 75l-17 4q-18 -54 -28 -71l-32 -58h51z" />
    <glyph glyph-name="questiondown" unicode="&#xbf;" horiz-adv-x="403" 
d="M6 -68q0 63 27 106.5t90 80.5q2 1 11.5 6.5t12 7t11 7t11.5 8t9.5 8t9.5 9.5t8 10t8 12t5 13l7 22h128l-7 -48q-8 -57 -27 -86.5t-69 -58.5q-23 -13 -33 -20t-18.5 -18.5t-8.5 -24.5q0 -33 58 -33q36 0 90 13l3 -131q-86 -28 -166 -28q-79 0 -119.5 40t-40.5 105z
M406 399q0 -42 -26.5 -66t-68.5 -24t-68.5 24t-26.5 66q0 43 26.5 66.5t68.5 23.5q43 0 69 -23.5t26 -66.5z" />
    <glyph glyph-name="Agrave" unicode="&#xc0;" horiz-adv-x="645" 
d="M10 0l312 676h237l76 -676h-170l-12 113h-212l-52 -113h-179zM383 429l-78 -174h132l-18 174l-3 68h-11q-13 -48 -22 -68zM269 847q0 33 46 33h42q55 0 75 -34l69 -113h-89l-109 71q-19 13 -26.5 21.5t-7.5 21.5z" />
    <glyph glyph-name="Aacute" unicode="&#xc1;" horiz-adv-x="645" 
d="M10 0l312 676h237l76 -676h-170l-12 113h-212l-52 -113h-179zM383 429l-78 -174h132l-18 174l-3 68h-11q-13 -48 -22 -68zM643 847q0 -10 -6 -19t-13.5 -14t-24.5 -15l-116 -67h-91l88 113q27 34 82 34h42q39 0 39 -32z" />
    <glyph glyph-name="Acircumflex" unicode="&#xc2;" horiz-adv-x="645" 
d="M10 0l312 676h237l76 -676h-170l-12 113h-212l-52 -113h-179zM383 429l-78 -174h132l-18 174l-3 68h-11q-13 -48 -22 -68zM512 886l95 -111l-42 -49l-105 46h-11l-116 -46l-35 49l139 111h75z" />
    <glyph glyph-name="Atilde" unicode="&#xc3;" horiz-adv-x="645" 
d="M10 0l312 676h237l76 -676h-170l-12 113h-212l-52 -113h-179zM383 429l-78 -174h132l-18 174l-3 68h-11q-13 -48 -22 -68zM554 872l52 -31q-4 -18 -9.5 -31.5t-17.5 -33t-33 -30.5t-50 -11q-17 0 -56.5 12.5t-53.5 12.5q-30 0 -49 -29l-52 31q4 18 9.5 31t17.5 33t33 31
t50 11q17 0 56 -12.5t53 -12.5q31 0 50 29z" />
    <glyph glyph-name="Adieresis" unicode="&#xc4;" horiz-adv-x="645" 
d="M10 0l312 676h237l76 -676h-170l-12 113h-212l-52 -113h-179zM383 429l-78 -174h132l-18 174l-3 68h-11q-13 -48 -22 -68zM424 808q0 -41 -23.5 -62.5t-61.5 -21.5t-61.5 21.5t-23.5 62.5q0 42 23.5 63t61.5 21q39 0 62 -21t23 -63zM634 808q0 -41 -23.5 -62.5
t-61.5 -21.5t-61.5 21.5t-23.5 62.5q0 42 23.5 63t61.5 21q39 0 62 -21t23 -63z" />
    <glyph glyph-name="Aring" unicode="&#xc5;" horiz-adv-x="645" 
d="M10 0l307 666q-18 28 -18 69q0 57 36.5 91t105.5 34t105.5 -34t36.5 -91q0 -43 -23 -74l75 -661h-170l-12 113h-212l-52 -113h-179zM383 429l-78 -174h132l-18 174l-3 68h-11q-13 -48 -22 -68zM496 735q0 23 -15 38.5t-40 15.5t-40 -15.5t-15 -38.5t15 -38t40 -15t40 15
t15 38z" />
    <glyph glyph-name="AE" unicode="&#xc6;" horiz-adv-x="855" 
d="M200 0h-190l373 676h561l-27 -142h-222l-22 -112h146l-26 -132h-146l-29 -148h245l-27 -142h-416l21 113h-180zM424 411l-85 -156h130l28 144l28 135l-39 8q-29 -70 -62 -131z" />
    <glyph glyph-name="Ccedilla" unicode="&#xc7;" horiz-adv-x="524" 
d="M420 -110q0 -54 -36 -80t-96 -26q-25 0 -54 2.5t-46 5.5l-17 2l18 61q48 -5 74 -5q42 0 42 32q0 19 -31 19h-59l36 91q-78 15 -121 67t-43 138q0 114 39.5 240.5t117.5 187.5q85 66 215 66q84 0 153 -24l-53 -136q-50 14 -98 14q-66 0 -108 -34q-39 -32 -63.5 -119
t-24.5 -153q0 -108 109 -108q67 0 128 18l14 -127q-78 -33 -177 -36l-9 -33h10q80 0 80 -63z" />
    <glyph glyph-name="Egrave" unicode="&#xc8;" horiz-adv-x="492" 
d="M57 0l130 676h394l-27 -142h-222l-22 -112h146l-26 -132h-146l-29 -148h245l-27 -142h-416zM235 847q0 33 46 33h42q55 0 75 -34l69 -113h-89l-109 71q-19 13 -26.5 21.5t-7.5 21.5z" />
    <glyph glyph-name="Eacute" unicode="&#xc9;" horiz-adv-x="492" 
d="M57 0l130 676h394l-27 -142h-222l-22 -112h146l-26 -132h-146l-29 -148h245l-27 -142h-416zM574 849q0 -10 -6 -19t-13.5 -14t-24.5 -15l-116 -67h-91l88 113q27 34 82 34h42q39 0 39 -32z" />
    <glyph glyph-name="Ecircumflex" unicode="&#xca;" horiz-adv-x="492" 
d="M57 0l130 676h394l-27 -142h-222l-22 -112h146l-26 -132h-146l-29 -148h245l-27 -142h-416zM456 885l95 -111l-42 -49l-105 46h-11l-116 -46l-35 49l139 111h75z" />
    <glyph glyph-name="Edieresis" unicode="&#xcb;" horiz-adv-x="492" 
d="M57 0l130 676h394l-27 -142h-222l-22 -112h146l-26 -132h-146l-29 -148h245l-27 -142h-416zM385 808q0 -41 -23.5 -62.5t-61.5 -21.5t-61.5 21.5t-23.5 62.5q0 42 23.5 63t61.5 21q39 0 62 -21t23 -63zM595 808q0 -41 -23.5 -62.5t-61.5 -21.5t-61.5 21.5t-23.5 62.5
q0 42 23.5 63t61.5 21q39 0 62 -21t23 -63z" />
    <glyph glyph-name="Igrave" unicode="&#xcc;" horiz-adv-x="285" 
d="M96 847q0 33 46 33h42q55 0 75 -34l69 -113h-89l-109 71q-19 13 -26.5 21.5t-7.5 21.5zM57 0l130 676h172l-131 -676h-171z" />
    <glyph glyph-name="Iacute" unicode="&#xcd;" horiz-adv-x="285" 
d="M473 848q0 -10 -6 -19t-13.5 -14t-24.5 -15l-116 -67h-91l88 113q27 34 82 34h42q39 0 39 -32zM57 0l130 676h172l-131 -676h-171z" />
    <glyph glyph-name="Icircumflex" unicode="&#xce;" horiz-adv-x="285" 
d="M348 883l95 -111l-42 -49l-105 46h-11l-116 -46l-35 49l139 111h75zM57 0l130 676h172l-131 -676h-171z" />
    <glyph glyph-name="Idieresis" unicode="&#xcf;" horiz-adv-x="285" 
d="M264 808q0 -41 -23.5 -62.5t-61.5 -21.5t-61.5 21.5t-23.5 62.5q0 42 23.5 63t61.5 21q39 0 62 -21t23 -63zM468 808q0 -41 -23.5 -62.5t-61.5 -21.5t-61.5 21.5t-23.5 62.5q0 42 23.5 63t61.5 21q39 0 62 -21t23 -63zM57 0l130 676h172l-131 -676h-171z" />
    <glyph glyph-name="Eth" unicode="&#xd0;" horiz-adv-x="622" 
d="M50 272l24 132h61l52 272h218q120 0 188.5 -60t68.5 -179q0 -101 -34 -208.5t-102 -163.5q-79 -65 -204 -65h-265l52 272h-59zM409 171q36 30 57 107.5t21 142.5q0 58 -26 85.5t-86 27.5h-43l-26 -130h94l-24 -132h-96l-25 -130h70q50 0 84 29z" />
    <glyph glyph-name="Ntilde" unicode="&#xd1;" horiz-adv-x="695" 
d="M367 676l129 -338q4 -10 8 -27.5t6 -30.5l3 -12l12 2q7 73 12 95l60 311h172l-131 -676h-186l-127 336q-4 10 -8.5 27.5t-6.5 30.5l-2 12l-12 -1q-4 -73 -8 -95l-60 -310h-171l130 676h180zM613 872l52 -31q-4 -18 -9.5 -31.5t-17.5 -33t-33 -30.5t-50 -11
q-17 0 -56.5 12.5t-53.5 12.5q-30 0 -49 -29l-52 31q26 106 110 106q17 0 56 -12.5t53 -12.5q31 0 50 29z" />
    <glyph glyph-name="Ograve" unicode="&#xd2;" horiz-adv-x="670" 
d="M304 846q0 33 46 33h42q55 0 75 -34l69 -113h-89l-109 71q-19 13 -26.5 21.5t-7.5 21.5zM452 166q33 29 58 122.5t25 153.5q0 103 -92 103q-52 0 -92 -34q-37 -31 -61 -122.5t-24 -155.5q0 -52 20.5 -77t71.5 -25q54 0 94 35zM712 470q0 -107 -41.5 -233t-116.5 -184
q-88 -68 -221 -68q-114 0 -179.5 52.5t-65.5 166.5q0 107 40.5 232t113.5 183q91 72 224 72q114 0 180 -53.5t66 -167.5z" />
    <glyph glyph-name="Oacute" unicode="&#xd3;" horiz-adv-x="670" 
d="M667 847q0 -10 -6 -19t-13.5 -14t-24.5 -15l-116 -67h-91l88 113q27 34 82 34h42q39 0 39 -32zM452 166q33 29 58 122.5t25 153.5q0 103 -92 103q-52 0 -92 -34q-37 -31 -61 -122.5t-24 -155.5q0 -52 20.5 -77t71.5 -25q54 0 94 35zM712 470q0 -107 -41.5 -233
t-116.5 -184q-88 -68 -221 -68q-114 0 -179.5 52.5t-65.5 166.5q0 107 40.5 232t113.5 183q91 72 224 72q114 0 180 -53.5t66 -167.5z" />
    <glyph glyph-name="Ocircumflex" unicode="&#xd4;" horiz-adv-x="670" 
d="M536 890l95 -111l-42 -49l-105 46h-11l-116 -46l-35 49l139 111h75zM452 166q33 29 58 122.5t25 153.5q0 103 -92 103q-52 0 -92 -34q-37 -31 -61 -122.5t-24 -155.5q0 -52 20.5 -77t71.5 -25q54 0 94 35zM712 470q0 -107 -41.5 -233t-116.5 -184q-88 -68 -221 -68
q-114 0 -179.5 52.5t-65.5 166.5q0 107 40.5 232t113.5 183q91 72 224 72q114 0 180 -53.5t66 -167.5z" />
    <glyph glyph-name="Otilde" unicode="&#xd5;" horiz-adv-x="670" 
d="M584 872l52 -31q-4 -18 -9.5 -31.5t-17.5 -33t-33 -30.5t-50 -11q-17 0 -56.5 12.5t-53.5 12.5q-30 0 -49 -29l-52 31q4 18 9.5 31t17.5 33t33 31t50 11q17 0 56 -12.5t53 -12.5q31 0 50 29zM452 166q33 29 58 122.5t25 153.5q0 103 -92 103q-52 0 -92 -34
q-37 -31 -61 -122.5t-24 -155.5q0 -52 20.5 -77t71.5 -25q54 0 94 35zM712 470q0 -107 -41.5 -233t-116.5 -184q-88 -68 -221 -68q-114 0 -179.5 52.5t-65.5 166.5q0 107 40.5 232t113.5 183q91 72 224 72q114 0 180 -53.5t66 -167.5z" />
    <glyph glyph-name="Odieresis" unicode="&#xd6;" horiz-adv-x="670" 
d="M455 808q0 -41 -23.5 -62.5t-61.5 -21.5t-61.5 21.5t-23.5 62.5q0 42 23.5 63t61.5 21q39 0 62 -21t23 -63zM665 808q0 -41 -23.5 -62.5t-61.5 -21.5t-61.5 21.5t-23.5 62.5q0 42 23.5 63t61.5 21q39 0 62 -21t23 -63zM452 166q33 29 58 122.5t25 153.5q0 103 -92 103
q-52 0 -92 -34q-37 -31 -61 -122.5t-24 -155.5q0 -52 20.5 -77t71.5 -25q54 0 94 35zM712 470q0 -107 -41.5 -233t-116.5 -184q-88 -68 -221 -68q-114 0 -179.5 52.5t-65.5 166.5q0 107 40.5 232t113.5 183q91 72 224 72q114 0 180 -53.5t66 -167.5z" />
    <glyph glyph-name="multiply" unicode="&#xd7;" horiz-adv-x="501" 
d="M95 135l133 111l-89 111l77 63l88 -110l131 110l64 -75l-133 -111l90 -111l-77 -63l-89 110l-131 -110z" />
    <glyph glyph-name="Oslash" unicode="&#xd8;" horiz-adv-x="670" 
d="M722 470q0 -107 -41.5 -233t-116.5 -184q-88 -68 -226 -68q-91 0 -152 32l-47 -53l-80 70l53 59q-24 45 -24 111q0 107 40.5 232t113.5 183q91 72 229 72q90 0 148 -31l50 56l79 -69l-53 -59q27 -46 27 -118zM462 166q30 26 53.5 106t28.5 146l-243 -272q22 -15 62 -15
q59 0 99 35zM351 511q-32 -27 -55 -101t-29 -143l237 264q-23 14 -56 14q-57 0 -97 -34z" />
    <glyph glyph-name="Ugrave" unicode="&#xd9;" horiz-adv-x="621" 
d="M695 676l-90 -462q-22 -112 -99.5 -170.5t-193.5 -58.5q-107 0 -163.5 52t-56.5 142q0 29 6 60l85 437h172l-82 -422q-8 -37 -8 -59q0 -27 18 -45.5t50 -18.5q84 0 105 108l85 437h172zM258 847q0 33 46 33h42q55 0 75 -34l69 -113h-89l-109 71q-19 13 -26.5 21.5
t-7.5 21.5z" />
    <glyph glyph-name="Uacute" unicode="&#xda;" horiz-adv-x="621" 
d="M695 676l-90 -462q-22 -112 -99.5 -170.5t-193.5 -58.5q-107 0 -163.5 52t-56.5 142q0 29 6 60l85 437h172l-82 -422q-8 -37 -8 -59q0 -27 18 -45.5t50 -18.5q84 0 105 108l85 437h172zM647 848q0 -10 -6 -19t-13.5 -14t-24.5 -15l-116 -67h-91l88 113q27 34 82 34h42
q39 0 39 -32z" />
    <glyph glyph-name="Ucircumflex" unicode="&#xdb;" horiz-adv-x="621" 
d="M695 676l-90 -462q-22 -112 -99.5 -170.5t-193.5 -58.5q-107 0 -163.5 52t-56.5 142q0 29 6 60l85 437h172l-82 -422q-8 -37 -8 -59q0 -27 18 -45.5t50 -18.5q84 0 105 108l85 437h172zM510 890l95 -111l-42 -49l-105 46h-11l-116 -46l-35 49l139 111h75z" />
    <glyph glyph-name="Udieresis" unicode="&#xdc;" horiz-adv-x="621" 
d="M695 676l-90 -462q-22 -112 -99.5 -170.5t-193.5 -58.5q-107 0 -163.5 52t-56.5 142q0 29 6 60l85 437h172l-82 -422q-8 -37 -8 -59q0 -27 18 -45.5t50 -18.5q84 0 105 108l85 437h172zM435 808q0 -41 -23.5 -62.5t-61.5 -21.5t-61.5 21.5t-23.5 62.5q0 42 23.5 63
t61.5 21q39 0 62 -21t23 -63zM645 808q0 -41 -23.5 -62.5t-61.5 -21.5t-61.5 21.5t-23.5 62.5q0 42 23.5 63t61.5 21q39 0 62 -21t23 -63z" />
    <glyph glyph-name="Yacute" unicode="&#xdd;" horiz-adv-x="588" 
d="M709 676l-297 -473l-39 -203h-171l43 222l-104 454h170l42 -188q3 -15 4.5 -35.5t1.5 -33.5v-13h8q15 47 36 82l111 188h195zM626 850q0 -10 -6 -19t-13.5 -14t-24.5 -15l-116 -67h-91l88 113q27 34 82 34h42q39 0 39 -32z" />
    <glyph glyph-name="Thorn" unicode="&#xde;" horiz-adv-x="567" 
d="M406 268q31 26 31 105q0 25 -15.5 39.5t-42.5 14.5h-68l-35 -180h69q35 0 61 21zM326 105h-78l-20 -105h-171l131 676h171l-21 -107h73q89 0 143 -49.5t54 -139.5q0 -150 -102 -228q-62 -47 -180 -47z" />
    <glyph glyph-name="germandbls" unicode="&#xdf;" horiz-adv-x="561" 
d="M325 306l25 129l13 3q60 15 60 85q0 22 -13.5 37t-34.5 15q-48 0 -58 -50l-102 -525h-167l98 507q21 109 82 156q64 48 172 48q82 0 140.5 -43.5t58.5 -118.5q0 -100 -82 -144q65 -42 65 -134q0 -152 -79.5 -216.5t-229.5 -64.5l28 140q109 11 109 113q0 63 -71 63h-14z
" />
    <glyph glyph-name="agrave" unicode="&#xe0;" horiz-adv-x="520" 
d="M64 141q0 84 27 161t77 123q73 65 207 65q48 0 95 -9t70 -17l23 -9l-52 -267q-5 -27 -0.5 -38.5t19.5 -20.5l17 -9l-58 -130q-59 0 -98.5 22.5t-49.5 57.5h-6q-52 -80 -139 -80q-65 0 -98.5 40.5t-33.5 110.5zM339 354q-39 0 -64 -32q-16 -21 -28.5 -64.5t-12.5 -81.5
q0 -50 39 -50q26 0 46 26t30 73l25 123q-15 6 -35 6zM204 648q0 33 46 33h42q55 0 75 -34l69 -113h-89l-109 71q-19 13 -26.5 21.5t-7.5 21.5z" />
    <glyph glyph-name="aacute" unicode="&#xe1;" horiz-adv-x="520" 
d="M64 141q0 84 27 161t77 123q73 65 207 65q48 0 95 -9t70 -17l23 -9l-52 -267q-5 -27 -0.5 -38.5t19.5 -20.5l17 -9l-58 -130q-59 0 -98.5 22.5t-49.5 57.5h-6q-52 -80 -139 -80q-65 0 -98.5 40.5t-33.5 110.5zM339 354q-39 0 -64 -32q-16 -21 -28.5 -64.5t-12.5 -81.5
q0 -50 39 -50q26 0 46 26t30 73l25 123q-15 6 -35 6zM575 649q0 -10 -6 -19t-13.5 -14t-24.5 -15l-116 -67h-91l88 113q27 34 82 34h42q39 0 39 -32z" />
    <glyph glyph-name="acircumflex" unicode="&#xe2;" horiz-adv-x="520" 
d="M64 141q0 84 27 161t77 123q73 65 207 65q48 0 95 -9t70 -17l23 -9l-52 -267q-5 -27 -0.5 -38.5t19.5 -20.5l17 -9l-58 -130q-59 0 -98.5 22.5t-49.5 57.5h-6q-52 -80 -139 -80q-65 0 -98.5 40.5t-33.5 110.5zM339 354q-39 0 -64 -32q-16 -21 -28.5 -64.5t-12.5 -81.5
q0 -50 39 -50q26 0 46 26t30 73l25 123q-15 6 -35 6zM440 687l95 -111l-42 -49l-105 46h-11l-116 -46l-35 49l139 111h75z" />
    <glyph glyph-name="atilde" unicode="&#xe3;" horiz-adv-x="520" 
d="M64 141q0 84 27 161t77 123q73 65 207 65q48 0 95 -9t70 -17l23 -9l-52 -267q-5 -27 -0.5 -38.5t19.5 -20.5l17 -9l-58 -130q-59 0 -98.5 22.5t-49.5 57.5h-6q-52 -80 -139 -80q-65 0 -98.5 40.5t-33.5 110.5zM339 354q-39 0 -64 -32q-16 -21 -28.5 -64.5t-12.5 -81.5
q0 -50 39 -50q26 0 46 26t30 73l25 123q-15 6 -35 6zM498 674l52 -31q-4 -18 -9.5 -31.5t-17.5 -33t-33 -30.5t-50 -11q-17 0 -56.5 12.5t-53.5 12.5q-30 0 -49 -29l-52 31q4 18 9.5 31t17.5 33t33 31t50 11q17 0 56 -12.5t53 -12.5q31 0 50 29z" />
    <glyph glyph-name="adieresis" unicode="&#xe4;" horiz-adv-x="520" 
d="M64 141q0 84 27 161t77 123q73 65 207 65q48 0 95 -9t70 -17l23 -9l-52 -267q-5 -27 -0.5 -38.5t19.5 -20.5l17 -9l-58 -130q-59 0 -98.5 22.5t-49.5 57.5h-6q-52 -80 -139 -80q-65 0 -98.5 40.5t-33.5 110.5zM339 354q-39 0 -64 -32q-16 -21 -28.5 -64.5t-12.5 -81.5
q0 -50 39 -50q26 0 46 26t30 73l25 123q-15 6 -35 6zM362 614q0 -41 -23.5 -62.5t-61.5 -21.5t-61.5 21.5t-23.5 62.5q0 42 23.5 63t61.5 21q39 0 62 -21t23 -63zM572 614q0 -41 -23.5 -62.5t-61.5 -21.5t-61.5 21.5t-23.5 62.5q0 42 23.5 63t61.5 21q39 0 62 -21t23 -63z
" />
    <glyph glyph-name="aring" unicode="&#xe5;" horiz-adv-x="520" 
d="M64 141q0 84 27 161t77 123q73 65 207 65q48 0 95 -9t70 -17l23 -9l-52 -267q-5 -27 -0.5 -38.5t19.5 -20.5l17 -9l-58 -130q-59 0 -98.5 22.5t-49.5 57.5h-6q-52 -80 -139 -80q-65 0 -98.5 40.5t-33.5 110.5zM339 354q-39 0 -64 -32q-16 -21 -28.5 -64.5t-12.5 -81.5
q0 -50 39 -50q26 0 46 26t30 73l25 123q-15 6 -35 6zM429 637q0 19 -12.5 32t-33.5 13t-33.5 -13t-12.5 -32t12.5 -31.5t33.5 -12.5t33.5 12.5t12.5 31.5zM501 637q0 -47 -30.5 -75t-87.5 -28t-87.5 28t-30.5 75t30.5 75.5t87.5 28.5t87.5 -28.5t30.5 -75.5z" />
    <glyph glyph-name="ae" unicode="&#xe6;" horiz-adv-x="796" 
d="M341 151l8 38q-70 1 -99 -6q-36 -8 -36 -34q0 -23 36 -23q54 0 91 25zM537 299h92q40 0 40 31q0 30 -50 30q-42 0 -60 -18q-12 -12 -22 -43zM742 151l13 -118q-88 -43 -191 -43q-126 0 -179 59h-7q-70 -59 -172 -59q-72 0 -113.5 34.5t-41.5 94.5q0 83 61.5 131.5
t167.5 48.5h90l4 21q4 21 -9.5 27.5t-47.5 6.5q-77 0 -161 -31l-19 125q114 42 214 42q90 0 135 -32h4q59 32 152 32q86 0 136.5 -36t49.5 -100q0 -78 -50.5 -124t-156.5 -46h-106q-2 -9 -2 -19q0 -21 17.5 -30t61.5 -9q63 0 150 25z" />
    <glyph glyph-name="ccedilla" unicode="&#xe7;" horiz-adv-x="386" 
d="M349 -110q0 -54 -36 -80t-96 -26q-25 0 -54 2.5t-46 5.5l-17 2l18 61q48 -5 74 -5q42 0 42 32q0 19 -31 19h-59l38 97q-118 30 -118 168q0 70 28 153t84 126q60 45 155 45q66 0 123 -25l-44 -123q-41 12 -67 12q-43 0 -64 -24q-17 -20 -28.5 -61.5t-11.5 -78.5
q0 -30 15.5 -47t42.5 -17q34 0 77 15l12 -117q-44 -28 -116 -33l-11 -38h10q80 0 80 -63z" />
    <glyph glyph-name="egrave" unicode="&#xe8;" horiz-adv-x="514" 
d="M253 299h92q21 0 30.5 10.5t9.5 23.5q0 27 -50 27q-42 0 -60 -18q-12 -12 -22 -43zM458 151l13 -118q-88 -43 -191 -43q-214 0 -216 164q0 65 25.5 145t64.5 121q68 70 205 70q93 0 140.5 -35.5t47.5 -101.5q0 -78 -54 -123.5t-165 -45.5h-97q-2 -9 -2 -19
q0 -21 17.5 -30t61.5 -9q63 0 150 25zM192 648q0 33 46 33h42q55 0 75 -34l69 -113h-89l-109 71q-19 13 -26.5 21.5t-7.5 21.5z" />
    <glyph glyph-name="eacute" unicode="&#xe9;" horiz-adv-x="514" 
d="M253 299h92q21 0 30.5 10.5t9.5 23.5q0 27 -50 27q-42 0 -60 -18q-12 -12 -22 -43zM458 151l13 -118q-88 -43 -191 -43q-214 0 -216 164q0 65 25.5 145t64.5 121q68 70 205 70q93 0 140.5 -35.5t47.5 -101.5q0 -78 -54 -123.5t-165 -45.5h-97q-2 -9 -2 -19
q0 -21 17.5 -30t61.5 -9q63 0 150 25zM567 649q0 -10 -6 -19t-13.5 -14t-24.5 -15l-116 -67h-91l88 113q27 34 82 34h42q39 0 39 -32z" />
    <glyph glyph-name="ecircumflex" unicode="&#xea;" horiz-adv-x="514" 
d="M253 299h92q21 0 30.5 10.5t9.5 23.5q0 27 -50 27q-42 0 -60 -18q-12 -12 -22 -43zM458 151l13 -118q-88 -43 -191 -43q-214 0 -216 164q0 65 25.5 145t64.5 121q68 70 205 70q93 0 140.5 -35.5t47.5 -101.5q0 -78 -54 -123.5t-165 -45.5h-97q-2 -9 -2 -19
q0 -21 17.5 -30t61.5 -9q63 0 150 25zM426 685l95 -111l-42 -49l-105 46h-11l-116 -46l-35 49l139 111h75z" />
    <glyph glyph-name="edieresis" unicode="&#xeb;" horiz-adv-x="514" 
d="M253 299h92q21 0 30.5 10.5t9.5 23.5q0 27 -50 27q-42 0 -60 -18q-12 -12 -22 -43zM458 151l13 -118q-88 -43 -191 -43q-214 0 -216 164q0 65 25.5 145t64.5 121q68 70 205 70q93 0 140.5 -35.5t47.5 -101.5q0 -78 -54 -123.5t-165 -45.5h-97q-2 -9 -2 -19
q0 -21 17.5 -30t61.5 -9q63 0 150 25zM342 614q0 -41 -23.5 -62.5t-61.5 -21.5t-61.5 21.5t-23.5 62.5q0 42 23.5 63t61.5 21q39 0 62 -21t23 -63zM552 614q0 -41 -23.5 -62.5t-61.5 -21.5t-61.5 21.5t-23.5 62.5q0 42 23.5 63t61.5 21q39 0 62 -21t23 -63z" />
    <glyph glyph-name="igrave" unicode="&#xec;" horiz-adv-x="264" 
d="M52 648q0 33 46 33h42q55 0 75 -34l69 -113h-89l-109 71q-19 13 -26.5 21.5t-7.5 21.5zM48 0l93 480h168l-93 -480h-168z" />
    <glyph glyph-name="iacute" unicode="&#xed;" horiz-adv-x="264" 
d="M419 649q0 -10 -6 -19t-13.5 -14t-24.5 -15l-116 -67h-91l88 113q27 34 82 34h42q39 0 39 -32zM48 0l93 480h168l-93 -480h-168z" />
    <glyph glyph-name="icircumflex" unicode="&#xee;" horiz-adv-x="264" 
d="M296 687l95 -111l-42 -49l-105 46h-11l-116 -46l-35 49l139 111h75zM48 0l93 480h168l-93 -480h-168z" />
    <glyph glyph-name="idieresis" unicode="&#xef;" horiz-adv-x="264" 
d="M220 614q0 -41 -23.5 -62.5t-61.5 -21.5t-61.5 21.5t-23.5 62.5q0 42 23.5 63t61.5 21q39 0 62 -21t23 -63zM420 614q0 -41 -23.5 -62.5t-61.5 -21.5t-61.5 21.5t-23.5 62.5q0 42 23.5 63t61.5 21q39 0 62 -21t23 -63zM48 0l93 480h168l-93 -480h-168z" />
    <glyph glyph-name="eth" unicode="&#xf0;" horiz-adv-x="501" 
d="M275 126q33 0 46 22q14 25 27 81.5t13 86.5q0 38 -41 38q-31 0 -44 -23q-15 -26 -28.5 -82t-13.5 -86q0 -18 11.5 -27.5t29.5 -9.5zM540 405q0 -102 -27 -204.5t-89 -158.5q-58 -52 -175 -52q-84 0 -134.5 37.5t-50.5 119.5q0 69 28 159t82 135q57 48 136 48q39 0 65 -13
l3 2q-2 30 -19 71l-95 -42l-36 85l75 33q-22 20 -52 43l52 72q70 -26 118 -62l103 46l36 -85l-71 -32q51 -77 51 -202z" />
    <glyph glyph-name="ntilde" unicode="&#xf1;" horiz-adv-x="517" 
d="M536 306l-59 -306h-169l55 283q5 23 5 36q0 35 -29 35q-54 0 -76 -114l-47 -240h-168l93 480h122l22 -60h4q61 70 140 70q54 0 84.5 -33t30.5 -82q0 -29 -8 -69zM473 674l52 -31q-4 -18 -9.5 -31.5t-17.5 -33t-33 -30.5t-50 -11q-17 0 -56.5 12.5t-53.5 12.5
q-30 0 -49 -29l-52 31q26 106 110 106q17 0 56 -12.5t53 -12.5q31 0 50 29z" />
    <glyph glyph-name="ograve" unicode="&#xf2;" horiz-adv-x="494" 
d="M271 126q31 0 46 22t27.5 79.5t12.5 88.5q0 38 -41 38q-32 0 -46 -22q-15 -22 -27.5 -79.5t-12.5 -89.5q0 -18 11.5 -27.5t29.5 -9.5zM521 326q2 -72 -23 -154.5t-77 -129.5q-55 -52 -168 -52q-82 0 -133.5 41.5t-54.5 122.5q-2 66 24 154.5t78 131.5q61 50 165 50
q85 0 135.5 -40t53.5 -124zM140 648q0 33 46 33h42q55 0 75 -34l69 -113h-89l-109 71q-19 13 -26.5 21.5t-7.5 21.5z" />
    <glyph glyph-name="oacute" unicode="&#xf3;" horiz-adv-x="494" 
d="M271 126q31 0 46 22t27.5 79.5t12.5 88.5q0 38 -41 38q-32 0 -46 -22q-15 -22 -27.5 -79.5t-12.5 -89.5q0 -18 11.5 -27.5t29.5 -9.5zM521 326q2 -72 -23 -154.5t-77 -129.5q-55 -52 -168 -52q-82 0 -133.5 41.5t-54.5 122.5q-2 66 24 154.5t78 131.5q61 50 165 50
q85 0 135.5 -40t53.5 -124zM544 649q0 -10 -6 -19t-13.5 -14t-24.5 -15l-116 -67h-91l88 113q27 34 82 34h42q39 0 39 -32z" />
    <glyph glyph-name="ocircumflex" unicode="&#xf4;" horiz-adv-x="494" 
d="M271 126q31 0 46 22t27.5 79.5t12.5 88.5q0 38 -41 38q-32 0 -46 -22q-15 -22 -27.5 -79.5t-12.5 -89.5q0 -18 11.5 -27.5t29.5 -9.5zM521 326q2 -72 -23 -154.5t-77 -129.5q-55 -52 -168 -52q-82 0 -133.5 41.5t-54.5 122.5q-2 66 24 154.5t78 131.5q61 50 165 50
q85 0 135.5 -40t53.5 -124zM402 687l95 -111l-42 -49l-105 46h-11l-116 -46l-35 49l139 111h75z" />
    <glyph glyph-name="otilde" unicode="&#xf5;" horiz-adv-x="494" 
d="M271 126q31 0 46 22t27.5 79.5t12.5 88.5q0 38 -41 38q-32 0 -46 -22q-15 -22 -27.5 -79.5t-12.5 -89.5q0 -18 11.5 -27.5t29.5 -9.5zM521 326q2 -72 -23 -154.5t-77 -129.5q-55 -52 -168 -52q-82 0 -133.5 41.5t-54.5 122.5q-2 66 24 154.5t78 131.5q61 50 165 50
q85 0 135.5 -40t53.5 -124zM459 674l52 -31q-4 -18 -9.5 -31.5t-17.5 -33t-33 -30.5t-50 -11q-17 0 -56.5 12.5t-53.5 12.5q-30 0 -49 -29l-52 31q26 106 110 106q17 0 56 -12.5t53 -12.5q31 0 50 29z" />
    <glyph glyph-name="odieresis" unicode="&#xf6;" horiz-adv-x="494" 
d="M271 126q31 0 46 22t27.5 79.5t12.5 88.5q0 38 -41 38q-32 0 -46 -22q-15 -22 -27.5 -79.5t-12.5 -89.5q0 -18 11.5 -27.5t29.5 -9.5zM521 326q2 -72 -23 -154.5t-77 -129.5q-55 -52 -168 -52q-82 0 -133.5 41.5t-54.5 122.5q-2 66 24 154.5t78 131.5q61 50 165 50
q85 0 135.5 -40t53.5 -124zM327 614q0 -41 -23.5 -62.5t-61.5 -21.5t-61.5 21.5t-23.5 62.5q0 42 23.5 63t61.5 21q39 0 62 -21t23 -63zM537 614q0 -41 -23.5 -62.5t-61.5 -21.5t-61.5 21.5t-23.5 62.5q0 42 23.5 63t61.5 21q39 0 62 -21t23 -63z" />
    <glyph glyph-name="divide" unicode="&#xf7;" horiz-adv-x="499" 
d="M81 190l19 100h410l-19 -100h-410zM339 71q0 -36 -22 -56.5t-56 -20.5t-56.5 20.5t-22.5 56.5q0 37 22.5 58t56.5 21t56 -21t22 -58zM404 407q0 -36 -22 -56.5t-56 -20.5t-56.5 20.5t-22.5 56.5q0 37 22.5 58t56.5 21t56 -21t22 -58z" />
    <glyph glyph-name="oslash" unicode="&#xf8;" horiz-adv-x="494" 
d="M213 241l-4 -27l12 -3q16 27 29 42l91 101q-13 5 -30 5q-44 0 -63 -22q-22 -26 -35 -96zM373 239l4 27l-12 3q-13 -24 -26 -39l-93 -104q10 -5 29 -5q44 0 63 22q22 26 35 96zM520 326q2 -72 -23 -154.5t-77 -129.5q-55 -52 -168 -52q-60 0 -106 23l-32 -35l-63 53l35 39
q-21 36 -22 84q-2 66 24 154.5t78 131.5q61 50 165 50q65 0 110 -24l29 32l62 -52l-33 -37q20 -36 21 -83z" />
    <glyph glyph-name="ugrave" unicode="&#xf9;" horiz-adv-x="518" 
d="M561 480l-57 -294q-4 -27 0 -38t18 -18l18 -10l-58 -130q-53 0 -92.5 19t-52.5 52h-5q-51 -71 -129 -71q-59 0 -95 36.5t-36 100.5q0 41 9 85l52 268h168l-56 -287q-4 -20 -4 -33q0 -34 30 -34q53 0 76 116l46 238h168zM169 648q0 33 46 33h42q55 0 75 -34l69 -113h-89
l-109 71q-19 13 -26.5 21.5t-7.5 21.5z" />
    <glyph glyph-name="uacute" unicode="&#xfa;" horiz-adv-x="518" 
d="M565 649q0 -10 -6 -19t-13.5 -14t-24.5 -15l-116 -67h-91l88 113q27 34 82 34h42q39 0 39 -32zM561 480l-57 -294q-4 -27 0 -38t18 -18l18 -10l-58 -130q-53 0 -92.5 19t-52.5 52h-5q-51 -71 -129 -71q-59 0 -95 36.5t-36 100.5q0 41 9 85l52 268h168l-56 -287
q-4 -20 -4 -33q0 -34 30 -34q53 0 76 116l46 238h168z" />
    <glyph glyph-name="ucircumflex" unicode="&#xfb;" horiz-adv-x="518" 
d="M561 480l-57 -294q-4 -27 0 -38t18 -18l18 -10l-58 -130q-53 0 -92.5 19t-52.5 52h-5q-51 -71 -129 -71q-59 0 -95 36.5t-36 100.5q0 41 9 85l52 268h168l-56 -287q-4 -20 -4 -33q0 -34 30 -34q53 0 76 116l46 238h168zM421 687l95 -111l-42 -49l-105 46h-11l-116 -46
l-35 49l139 111h75z" />
    <glyph glyph-name="udieresis" unicode="&#xfc;" horiz-adv-x="518" 
d="M561 480l-57 -294q-4 -27 0 -38t18 -18l18 -10l-58 -130q-53 0 -92.5 19t-52.5 52h-5q-51 -71 -129 -71q-59 0 -95 36.5t-36 100.5q0 41 9 85l52 268h168l-56 -287q-4 -20 -4 -33q0 -34 30 -34q53 0 76 116l46 238h168zM347 614q0 -41 -23.5 -62.5t-61.5 -21.5
t-61.5 21.5t-23.5 62.5q0 42 23.5 63t61.5 21q39 0 62 -21t23 -63zM557 614q0 -41 -23.5 -62.5t-61.5 -21.5t-61.5 21.5t-23.5 62.5q0 42 23.5 63t61.5 21q39 0 62 -21t23 -63z" />
    <glyph glyph-name="yacute" unicode="&#xfd;" horiz-adv-x="525" 
d="M428 480h180l-225 -549q-36 -87 -96.5 -127t-153.5 -40h-122l27 140h91q39 0 58 10.5t31 40.5l17 45h-68l-64 480h168l25 -218l6 -91h15q6 45 25 92zM554 649q0 -10 -6 -19t-13.5 -14t-24.5 -15l-116 -67h-91l88 113q27 34 82 34h42q39 0 39 -32z" />
    <glyph glyph-name="thorn" unicode="&#xfe;" horiz-adv-x="519" 
d="M330 145q20 24 32.5 72t12.5 83q0 55 -41 55q-24 0 -42.5 -23.5t-26.5 -67.5l-23 -120q21 -19 44 -19q28 0 44 20zM296 426h5q48 64 119 64q127 0 127 -148q0 -77 -22 -157t-66 -134q-51 -61 -134 -61q-60 0 -107 33l-48 -250h-167l178 923h167z" />
    <glyph glyph-name="ydieresis" unicode="&#xff;" horiz-adv-x="525" 
d="M428 480h180l-225 -549q-36 -87 -96.5 -127t-153.5 -40h-122l27 140h91q39 0 58 10.5t31 40.5l17 45h-68l-64 480h168l25 -218l6 -91h15q6 45 25 92zM340 614q0 -41 -23.5 -62.5t-61.5 -21.5t-61.5 21.5t-23.5 62.5q0 42 23.5 63t61.5 21q39 0 62 -21t23 -63zM550 614
q0 -41 -23.5 -62.5t-61.5 -21.5t-61.5 21.5t-23.5 62.5q0 42 23.5 63t61.5 21q39 0 62 -21t23 -63z" />
    <glyph glyph-name="Amacron" unicode="&#x100;" horiz-adv-x="645" 
d="M10 0l312 676h237l76 -676h-170l-12 113h-212l-52 -113h-179zM383 429l-78 -174h132l-18 174l-3 68h-11q-13 -48 -22 -68zM588 836l-19 -96h-254l19 96h254z" />
    <glyph glyph-name="amacron" unicode="&#x101;" horiz-adv-x="520" 
d="M64 141q0 84 27 161t77 123q73 65 207 65q48 0 95 -9t70 -17l23 -9l-52 -267q-5 -27 -0.5 -38.5t19.5 -20.5l17 -9l-58 -130q-59 0 -98.5 22.5t-49.5 57.5h-6q-52 -80 -139 -80q-65 0 -98.5 40.5t-33.5 110.5zM339 354q-39 0 -64 -32q-16 -21 -28.5 -64.5t-12.5 -81.5
q0 -50 39 -50q26 0 46 26t30 73l25 123q-15 6 -35 6zM521 640l-19 -96h-254l19 96h254z" />
    <glyph glyph-name="Abreve" unicode="&#x102;" horiz-adv-x="645" 
d="M10 0l312 676h237l76 -676h-170l-12 113h-212l-52 -113h-179zM383 429l-78 -174h132l-18 174l-3 68h-11q-13 -48 -22 -68zM535 877h85q-30 -147 -172 -147q-75 0 -107 40.5t-19 106.5h85q2 -24 13 -37.5t40 -13.5q52 0 75 51z" />
    <glyph glyph-name="abreve" unicode="&#x103;" horiz-adv-x="520" 
d="M64 141q0 84 27 161t77 123q73 65 207 65q48 0 95 -9t70 -17l23 -9l-52 -267q-5 -27 -0.5 -38.5t19.5 -20.5l17 -9l-58 -130q-59 0 -98.5 22.5t-49.5 57.5h-6q-52 -80 -139 -80q-65 0 -98.5 40.5t-33.5 110.5zM339 354q-39 0 -64 -32q-16 -21 -28.5 -64.5t-12.5 -81.5
q0 -50 39 -50q26 0 46 26t30 73l25 123q-15 6 -35 6zM467 681h85q-30 -147 -172 -147q-75 0 -107 40.5t-19 106.5h85q2 -24 13 -37.5t40 -13.5q52 0 75 51z" />
    <glyph glyph-name="Aogonek" unicode="&#x104;" horiz-adv-x="645" 
d="M10 0l312 676h237l76 -676q-29 -20 -56.5 -51t-27.5 -55q0 -28 40 -28l23 2l3 -73q-39 -11 -87 -11q-55 0 -85 20.5t-30 56.5q0 41 31.5 77.5t77.5 59.5v2h-59l-12 113h-212l-52 -113h-179zM383 429l-78 -174h132l-18 174l-3 68h-11q-13 -48 -22 -68z" />
    <glyph glyph-name="aogonek" unicode="&#x105;" horiz-adv-x="520" 
d="M64 141q0 84 27 161t77 123q73 65 207 65q48 0 95 -9t70 -17l23 -9l-52 -267q-5 -27 -0.5 -38.5t19.5 -20.5l17 -9l-58 -130q-67 -58 -67 -96q0 -28 40 -28l23 2l3 -73q-39 -11 -87 -11q-55 0 -85 20.5t-30 56.5q0 43 34.5 81t81.5 61v3q-49 21 -61 64h-6
q-52 -80 -139 -80q-65 0 -98.5 40.5t-33.5 110.5zM339 354q-39 0 -64 -32q-16 -21 -28.5 -64.5t-12.5 -81.5q0 -50 39 -50q26 0 46 26t30 73l25 123q-15 6 -35 6z" />
    <glyph glyph-name="Cacute" unicode="&#x106;" horiz-adv-x="524" 
d="M502 149l14 -127q-86 -37 -197 -37q-107 0 -169.5 54.5t-62.5 157.5q0 114 39.5 240.5t117.5 187.5q85 66 215 66q84 0 153 -24l-53 -136q-50 14 -98 14q-66 0 -108 -34q-39 -32 -63.5 -119t-24.5 -153q0 -108 109 -108q67 0 128 18zM660 849q0 -10 -6 -19t-13.5 -14
t-24.5 -15l-116 -67h-91l88 113q27 34 82 34h42q39 0 39 -32z" />
    <glyph glyph-name="cacute" unicode="&#x107;" horiz-adv-x="386" 
d="M374 141l12 -117q-53 -34 -136 -34q-88 0 -137 45t-49 131q0 70 28 153t84 126q60 45 155 45q66 0 123 -25l-44 -123q-41 12 -67 12q-43 0 -64 -24q-17 -20 -28.5 -61.5t-11.5 -78.5q0 -30 15.5 -47t42.5 -17q34 0 77 15zM534 649q0 -10 -6 -19t-13.5 -14t-24.5 -15
l-116 -67h-91l88 113q27 34 82 34h42q39 0 39 -32z" />
    <glyph glyph-name="Ccircumflex" unicode="&#x108;" horiz-adv-x="524" 
d="M502 149l14 -127q-86 -37 -197 -37q-107 0 -169.5 54.5t-62.5 157.5q0 114 39.5 240.5t117.5 187.5q85 66 215 66q84 0 153 -24l-53 -136q-50 14 -98 14q-66 0 -108 -34q-39 -32 -63.5 -119t-24.5 -153q0 -108 109 -108q67 0 128 18zM530 883l95 -111l-42 -49l-105 46
h-11l-116 -46l-35 49l139 111h75z" />
    <glyph glyph-name="ccircumflex" unicode="&#x109;" horiz-adv-x="386" 
d="M374 141l12 -117q-53 -34 -136 -34q-88 0 -137 45t-49 131q0 70 28 153t84 126q60 45 155 45q66 0 123 -25l-44 -123q-41 12 -67 12q-43 0 -64 -24q-17 -20 -28.5 -61.5t-11.5 -78.5q0 -30 15.5 -47t42.5 -17q34 0 77 15zM392 687l95 -111l-42 -49l-105 46h-11l-116 -46
l-35 49l139 111h75z" />
    <glyph glyph-name="Cdotaccent" unicode="&#x10a;" horiz-adv-x="524" 
d="M502 149l14 -127q-86 -37 -197 -37q-107 0 -169.5 54.5t-62.5 157.5q0 114 39.5 240.5t117.5 187.5q85 66 215 66q84 0 153 -24l-53 -136q-50 14 -98 14q-66 0 -108 -34q-39 -32 -63.5 -119t-24.5 -153q0 -108 109 -108q67 0 128 18zM558 808q0 -41 -26 -62.5t-69 -21.5
q-42 0 -68.5 21.5t-26.5 62.5q0 42 26 63t69 21t69 -21t26 -63z" />
    <glyph glyph-name="cdotaccent" unicode="&#x10b;" horiz-adv-x="386" 
d="M374 141l12 -117q-53 -34 -136 -34q-88 0 -137 45t-49 131q0 70 28 153t84 126q60 45 155 45q66 0 123 -25l-44 -123q-41 12 -67 12q-43 0 -64 -24q-17 -20 -28.5 -61.5t-11.5 -78.5q0 -30 15.5 -47t42.5 -17q34 0 77 15zM430 614q0 -41 -26 -62.5t-69 -21.5
q-42 0 -68.5 21.5t-26.5 62.5q0 42 26 63t69 21t69 -21t26 -63z" />
    <glyph glyph-name="Ccaron" unicode="&#x10c;" horiz-adv-x="524" 
d="M502 149l14 -127q-86 -37 -197 -37q-107 0 -169.5 54.5t-62.5 157.5q0 114 39.5 240.5t117.5 187.5q85 66 215 66q84 0 153 -24l-53 -136q-50 14 -98 14q-66 0 -108 -34q-39 -32 -63.5 -119t-24.5 -153q0 -108 109 -108q67 0 128 18zM418 734l-95 111l42 49l105 -46h11
l116 46l35 -49l-139 -111h-75z" />
    <glyph glyph-name="ccaron" unicode="&#x10d;" horiz-adv-x="386" 
d="M374 141l12 -117q-53 -34 -136 -34q-88 0 -137 45t-49 131q0 70 28 153t84 126q60 45 155 45q66 0 123 -25l-44 -123q-41 12 -67 12q-43 0 -64 -24q-17 -20 -28.5 -61.5t-11.5 -78.5q0 -30 15.5 -47t42.5 -17q34 0 77 15zM296 534l-95 111l42 49l105 -46h11l116 46
l35 -49l-139 -111h-75z" />
    <glyph glyph-name="Dcaron" unicode="&#x10e;" horiz-adv-x="622" 
d="M409 171q36 30 57 107.5t21 142.5q0 58 -26 85.5t-86 27.5h-43l-77 -392h70q50 0 84 29zM662 437q0 -101 -34 -208.5t-102 -163.5q-79 -65 -204 -65h-265l130 676h218q120 0 188.5 -60t68.5 -179zM356 730l-95 111l42 49l105 -46h11l116 46l35 -49l-139 -111h-75z" />
    <glyph glyph-name="dcaron" unicode="&#x10f;" horiz-adv-x="730" 
d="M64 141q0 86 25 162.5t74 121.5q73 65 192 65l46 -4l41 210h168l-47 -241l-52 -267q-5 -27 -0.5 -38.5t19.5 -20.5l17 -9l-58 -130q-60 0 -99 22.5t-49 57.5h-6q-52 -80 -139 -80q-65 0 -98.5 40.5t-33.5 110.5zM340 354q-42 0 -67 -32q-16 -21 -28.5 -64.5t-12.5 -81.5
q0 -50 38 -50q25 0 46 26.5t31 72.5l26 126q-15 3 -33 3zM648 623q0 42 25 66t65 24q41 0 66.5 -24t25.5 -66t-46 -126l-52 -93l-60 11l33 119v3q-57 18 -57 86z" />
    <glyph glyph-name="Dmacron" unicode="&#x110;" horiz-adv-x="622" 
d="M50 272l24 132h61l52 272h218q120 0 188.5 -60t68.5 -179q0 -101 -34 -208.5t-102 -163.5q-79 -65 -204 -65h-265l52 272h-59zM409 171q36 30 57 107.5t21 142.5q0 58 -26 85.5t-86 27.5h-43l-26 -130h94l-24 -132h-96l-25 -130h70q50 0 84 29z" />
    <glyph glyph-name="dmacron" unicode="&#x111;" horiz-adv-x="525" 
d="M340 354q-42 0 -67 -32q-16 -21 -28.5 -64.5t-12.5 -81.5q0 -50 38 -50q25 0 46 26.5t31 72.5l26 126q-15 3 -33 3zM297 530l19 100h113l13 66h168l-13 -66h65l-19 -100h-66l-14 -75l-52 -267q-5 -27 -0.5 -38.5t19.5 -20.5l17 -9l-68 -130q-115 1 -138 80h-6
q-52 -80 -139 -80q-65 0 -98.5 40.5t-33.5 110.5q0 86 25 162.5t74 121.5q73 65 192 65l46 -4l8 44h-112z" />
    <glyph glyph-name="Emacron" unicode="&#x112;" horiz-adv-x="492" 
d="M57 0l130 676h394l-27 -142h-222l-22 -112h146l-26 -132h-146l-29 -148h245l-27 -142h-416zM534 836l-19 -96h-254l19 96h254z" />
    <glyph glyph-name="emacron" unicode="&#x113;" horiz-adv-x="514" 
d="M253 299h92q21 0 30.5 10.5t9.5 23.5q0 27 -50 27q-42 0 -60 -18q-12 -12 -22 -43zM458 151l13 -118q-88 -43 -191 -43q-214 0 -216 164q0 65 25.5 145t64.5 121q68 70 205 70q93 0 140.5 -35.5t47.5 -101.5q0 -78 -54 -123.5t-165 -45.5h-97q-2 -9 -2 -19
q0 -21 17.5 -30t61.5 -9q63 0 150 25zM508 640l-19 -96h-254l19 96h254z" />
    <glyph glyph-name="Ebreve" unicode="&#x114;" horiz-adv-x="492" 
d="M57 0l130 676h394l-27 -142h-222l-22 -112h146l-26 -132h-146l-29 -148h245l-27 -142h-416zM488 877h85q-30 -147 -172 -147q-75 0 -107 40.5t-19 106.5h85q2 -24 13 -37.5t40 -13.5q52 0 75 51z" />
    <glyph glyph-name="ebreve" unicode="&#x115;" horiz-adv-x="514" 
d="M253 299h92q21 0 30.5 10.5t9.5 23.5q0 27 -50 27q-42 0 -60 -18q-12 -12 -22 -43zM458 151l13 -118q-88 -43 -191 -43q-214 0 -216 164q0 65 25.5 145t64.5 121q68 70 205 70q93 0 140.5 -35.5t47.5 -101.5q0 -78 -54 -123.5t-165 -45.5h-97q-2 -9 -2 -19
q0 -21 17.5 -30t61.5 -9q63 0 150 25zM453 681h85q-30 -147 -172 -147q-75 0 -107 40.5t-19 106.5h85q2 -24 13 -37.5t40 -13.5q52 0 75 51z" />
    <glyph glyph-name="Edotaccent" unicode="&#x116;" horiz-adv-x="492" 
d="M57 0l130 676h394l-27 -142h-222l-22 -112h146l-26 -132h-146l-29 -148h245l-27 -142h-416zM490 808q0 -41 -26 -62.5t-69 -21.5q-42 0 -68.5 21.5t-26.5 62.5q0 42 26 63t69 21t69 -21t26 -63z" />
    <glyph glyph-name="edotaccent" unicode="&#x117;" horiz-adv-x="514" 
d="M253 299h92q21 0 30.5 10.5t9.5 23.5q0 27 -50 27q-42 0 -60 -18q-12 -12 -22 -43zM458 151l13 -118q-88 -43 -191 -43q-214 0 -216 164q0 65 25.5 145t64.5 121q68 70 205 70q93 0 140.5 -35.5t47.5 -101.5q0 -78 -54 -123.5t-165 -45.5h-97q-2 -9 -2 -19
q0 -21 17.5 -30t61.5 -9q63 0 150 25zM465 614q0 -41 -26 -62.5t-69 -21.5q-42 0 -68.5 21.5t-26.5 62.5q0 42 26 63t69 21t69 -21t26 -63z" />
    <glyph glyph-name="Eogonek" unicode="&#x118;" horiz-adv-x="492" 
d="M57 0l130 676h394l-27 -142h-222l-22 -112h146l-26 -132h-146l-29 -148h245l-27 -142q-30 -20 -57 -51t-27 -55q0 -28 40 -28l23 2l3 -73q-39 -11 -87 -11q-55 0 -85 20.5t-30 56.5q0 41 31 76.5t77 59.5v3h-304z" />
    <glyph glyph-name="eogonek" unicode="&#x119;" horiz-adv-x="514" 
d="M367 -132l3 -73q-39 -11 -87 -11q-55 0 -85 20.5t-30 56.5q0 70 89 127v3q-191 9 -193 163q0 65 25.5 145t64.5 121q68 70 205 70q93 0 140.5 -35.5t47.5 -101.5q0 -78 -54 -123.5t-165 -45.5h-97q-2 -9 -2 -19q0 -21 17.5 -30t61.5 -9q63 0 150 25l13 -118
q-33 -17 -84 -29q-28 -20 -55.5 -53t-27.5 -57q0 -28 40 -28zM253 299h92q21 0 30.5 10.5t9.5 23.5q0 27 -50 27q-42 0 -60 -18q-12 -12 -22 -43z" />
    <glyph glyph-name="Ecaron" unicode="&#x11a;" horiz-adv-x="492" 
d="M57 0l130 676h394l-27 -142h-222l-22 -112h146l-26 -132h-146l-29 -148h245l-27 -142h-416zM348 730l-95 111l42 49l105 -46h11l116 46l35 -49l-139 -111h-75z" />
    <glyph glyph-name="ecaron" unicode="&#x11b;" horiz-adv-x="514" 
d="M253 299h92q21 0 30.5 10.5t9.5 23.5q0 27 -50 27q-42 0 -60 -18q-12 -12 -22 -43zM458 151l13 -118q-88 -43 -191 -43q-214 0 -216 164q0 65 25.5 145t64.5 121q68 70 205 70q93 0 140.5 -35.5t47.5 -101.5q0 -78 -54 -123.5t-165 -45.5h-97q-2 -9 -2 -19
q0 -21 17.5 -30t61.5 -9q63 0 150 25zM317 534l-95 111l42 49l105 -46h11l116 46l35 -49l-139 -111h-75z" />
    <glyph glyph-name="Gcircumflex" unicode="&#x11c;" horiz-adv-x="620" 
d="M372 130q35 0 74 11l23 119h-117l26 132h289l-66 -337q-121 -71 -259 -71q-116 0 -185.5 54.5t-69.5 168.5q0 112 40.5 235t118.5 183q88 66 227 66q124 0 210 -41l-59 -133q-84 28 -151 28q-85 0 -129 -41q-36 -33 -59 -119.5t-23 -150.5q0 -52 25 -78t85 -26zM537 883
l95 -111l-42 -49l-105 46h-11l-116 -46l-35 49l139 111h75z" />
    <glyph glyph-name="gcircumflex" unicode="&#x11d;" horiz-adv-x="524" 
d="M341 354q-39 0 -64 -32q-16 -21 -28.5 -64.5t-12.5 -81.5q0 -24 10.5 -37t25.5 -13q26 0 49 29.5t32 75.5l23 117q-15 6 -35 6zM68 141q0 84 27 161t77 123q73 65 207 65q48 0 95 -9t70 -17l23 -9l-98 -497q-37 -194 -241 -194q-46 0 -87 10t-59 20l-18 11l48 122
q52 -27 104 -27q73 0 86 64l17 91h-6q-42 -65 -113 -65q-66 0 -99 39.5t-33 111.5zM455 687l95 -111l-42 -49l-105 46h-11l-116 -46l-35 49l139 111h75z" />
    <glyph glyph-name="Gbreve" unicode="&#x11e;" horiz-adv-x="620" 
d="M372 130q35 0 74 11l23 119h-117l26 132h289l-66 -337q-121 -71 -259 -71q-116 0 -185.5 54.5t-69.5 168.5q0 112 40.5 235t118.5 183q88 66 227 66q124 0 210 -41l-59 -133q-84 28 -151 28q-85 0 -129 -41q-36 -33 -59 -119.5t-23 -150.5q0 -52 25 -78t85 -26zM573 877
h85q-30 -147 -172 -147q-75 0 -107 40.5t-19 106.5h85q2 -24 13 -37.5t40 -13.5q52 0 75 51z" />
    <glyph glyph-name="gbreve" unicode="&#x11f;" horiz-adv-x="524" 
d="M341 354q-39 0 -64 -32q-16 -21 -28.5 -64.5t-12.5 -81.5q0 -24 10.5 -37t25.5 -13q26 0 49 29.5t32 75.5l23 117q-15 6 -35 6zM68 141q0 84 27 161t77 123q73 65 207 65q48 0 95 -9t70 -17l23 -9l-98 -497q-37 -194 -241 -194q-46 0 -87 10t-59 20l-18 11l48 122
q52 -27 104 -27q73 0 86 64l17 91h-6q-42 -65 -113 -65q-66 0 -99 39.5t-33 111.5zM475 681h85q-30 -147 -172 -147q-75 0 -107 40.5t-19 106.5h85q2 -24 13 -37.5t40 -13.5q52 0 75 51z" />
    <glyph glyph-name="Gdotaccent" unicode="&#x120;" horiz-adv-x="620" 
d="M372 130q35 0 74 11l23 119h-117l26 132h289l-66 -337q-121 -71 -259 -71q-116 0 -185.5 54.5t-69.5 168.5q0 112 40.5 235t118.5 183q88 66 227 66q124 0 210 -41l-59 -133q-84 28 -151 28q-85 0 -129 -41q-36 -33 -59 -119.5t-23 -150.5q0 -52 25 -78t85 -26zM573 808
q0 -41 -26 -62.5t-69 -21.5q-42 0 -68.5 21.5t-26.5 62.5q0 42 26 63t69 21t69 -21t26 -63z" />
    <glyph glyph-name="gdotaccent" unicode="&#x121;" horiz-adv-x="524" 
d="M341 354q-39 0 -64 -32q-16 -21 -28.5 -64.5t-12.5 -81.5q0 -24 10.5 -37t25.5 -13q26 0 49 29.5t32 75.5l23 117q-15 6 -35 6zM68 141q0 84 27 161t77 123q73 65 207 65q48 0 95 -9t70 -17l23 -9l-98 -497q-37 -194 -241 -194q-46 0 -87 10t-59 20l-18 11l48 122
q52 -27 104 -27q73 0 86 64l17 91h-6q-42 -65 -113 -65q-66 0 -99 39.5t-33 111.5zM490 614q0 -41 -26 -62.5t-69 -21.5q-42 0 -68.5 21.5t-26.5 62.5q0 42 26 63t69 21t69 -21t26 -63z" />
    <glyph glyph-name="Gcommaaccent" unicode="&#x122;" horiz-adv-x="620" 
d="M372 130q35 0 74 11l23 119h-117l26 132h289l-66 -337q-121 -71 -259 -71q-116 0 -185.5 54.5t-69.5 168.5q0 112 40.5 235t118.5 183q88 66 227 66q124 0 210 -41l-59 -133q-84 28 -151 28q-85 0 -129 -41q-36 -33 -59 -119.5t-23 -150.5q0 -52 25 -78t85 -26zM419 -134
q0 -44 -46 -117q-3 -5 -4 -7l-59 -95l-69 11l41 120v6q-53 20 -53 82q0 43 26.5 66.5t68.5 23.5q43 0 69 -23.5t26 -66.5z" />
    <glyph glyph-name="gcommaaccent" unicode="&#x123;" horiz-adv-x="524" 
d="M341 354q-39 0 -64 -32q-16 -21 -28.5 -64.5t-12.5 -81.5q0 -24 10.5 -37t25.5 -13q26 0 49 29.5t32 75.5l23 117q-15 6 -35 6zM68 141q0 84 27 161t77 123q73 65 207 65q48 0 95 -9t70 -17l23 -9l-98 -497q-37 -194 -241 -194q-46 0 -87 10t-59 20l-18 11l48 122
q52 -27 104 -27q73 0 86 64l17 91h-6q-42 -65 -113 -65q-66 0 -99 39.5t-33 111.5zM476 632q0 -38 -22.5 -59.5t-58.5 -21.5q-37 0 -60 21.5t-23 59.5q0 37 41 114l47 84l54 -10l-30 -107v-3q52 -16 52 -78z" />
    <glyph glyph-name="Hcircumflex" unicode="&#x124;" horiz-adv-x="677" 
d="M448 0l55 285h-220l-55 -285h-171l130 676h172l-48 -249h220l48 249h172l-131 -676h-172zM536 883l95 -111l-42 -49l-105 46h-11l-116 -46l-35 49l139 111h75z" />
    <glyph glyph-name="hcircumflex" unicode="&#x125;" horiz-adv-x="517" 
d="M536 306l-59 -306h-169l55 283q5 23 5 36q0 35 -31 35q-53 0 -75 -114l-47 -240h-167l134 696h168l-52 -266h5q57 60 128 60q51 0 82 -33t31 -80q0 -33 -8 -71zM336 883l95 -111l-42 -49l-105 46h-11l-116 -46l-35 49l139 111h75z" />
    <glyph glyph-name="Imacron" unicode="&#x12a;" horiz-adv-x="285" 
d="M424 836l-19 -96h-254l19 96h254zM57 0l130 676h172l-131 -676h-171z" />
    <glyph glyph-name="imacron" unicode="&#x12b;" horiz-adv-x="264" 
d="M377 640l-19 -96h-254l19 96h254zM48 0l93 480h168l-93 -480h-168z" />
    <glyph glyph-name="Iogonek" unicode="&#x12e;" horiz-adv-x="285" 
d="M57 0l130 676h172l-131 -676q-30 -20 -57 -51t-27 -55q0 -28 40 -28l23 2l3 -73q-39 -11 -87 -11q-55 0 -85 20.5t-30 56.5q0 41 31.5 77.5t77.5 59.5v2h-60z" />
    <glyph glyph-name="iogonek" unicode="&#x12f;" horiz-adv-x="264" 
d="M48 0l92 480h168l-93 -480q-30 -21 -57 -51.5t-27 -54.5q0 -28 40 -28l23 2l3 -73q-39 -11 -87 -11q-55 0 -85 20.5t-30 56.5q0 42 31.5 77.5t78.5 59.5v2h-57zM345 614q0 -41 -26 -62.5t-69 -21.5q-42 0 -68.5 21.5t-26.5 62.5q-1 42 25 63t69 21t69 -21t27 -63z" />
    <glyph glyph-name="Idotaccent" unicode="&#x130;" horiz-adv-x="285" 
d="M379 808q0 -41 -26 -62.5t-69 -21.5q-42 0 -68.5 21.5t-26.5 62.5q0 42 26 63t69 21t69 -21t26 -63zM57 0l130 676h172l-131 -676h-171z" />
    <glyph glyph-name="dotlessi" unicode="&#x131;" horiz-adv-x="264" 
d="M48 0l93 480h168l-93 -480h-168z" />
    <glyph glyph-name="Jcircumflex" unicode="&#x134;" horiz-adv-x="347" 
d="M400 883l95 -111l-42 -49l-105 46h-11l-116 -46l-35 49l139 111h75zM421 676l-86 -441q-27 -140 -91 -195t-217 -55h-20l29 150q60 0 88.5 22t38.5 80l86 439h172z" />
    <glyph glyph-name="jcircumflex" unicode="&#x135;" horiz-adv-x="268" 
d="M310 480l-104 -533q-19 -98 -76.5 -140.5t-163.5 -42.5h-49l27 140h26q62 0 76 85l96 491h168zM301 687l95 -111l-42 -49l-105 46h-11l-116 -46l-35 49l139 111h75z" />
    <glyph glyph-name="Kcommaaccent" unicode="&#x136;" horiz-adv-x="652" 
d="M444 0l-135 285h-26l-55 -285h-171l130 676h172l-54 -278h23l217 278h204l-276 -345l158 -331h-187zM413 -134q0 -44 -46 -117q-3 -5 -4 -7l-59 -95l-69 11l41 120v6q-53 20 -53 82q0 43 26.5 66.5t68.5 23.5q43 0 69 -23.5t26 -66.5z" />
    <glyph glyph-name="kcommaaccent" unicode="&#x137;" horiz-adv-x="553" 
d="M351 0l-83 198h-15l-38 -198h-167l134 696h168l-74 -383h14l129 167h193l-186 -238l105 -242h-180zM365 -134q0 -44 -46 -117q-3 -5 -4 -7l-59 -95l-69 11l41 120v6q-53 20 -53 82q0 43 26.5 66.5t68.5 23.5q43 0 69 -23.5t26 -66.5z" />
    <glyph glyph-name="Lacute" unicode="&#x139;" horiz-adv-x="454" 
d="M57 0l130 676h172l-104 -534h207l-27 -142h-378zM466 845q0 -10 -6 -19t-13.5 -14t-24.5 -15l-116 -67h-91l88 113q27 34 82 34h42q39 0 39 -32z" />
    <glyph glyph-name="lacute" unicode="&#x13a;" horiz-adv-x="293" 
d="M452 845q0 -10 -6 -19t-13.5 -14t-24.5 -15l-116 -67h-91l88 113q27 34 82 34h42q39 0 39 -32zM308 130l-37 -140h-48q-79 0 -115 27.5t-36 84.5q0 35 11 90l98 504h168l-93 -478q-6 -30 -6 -43q0 -17 8 -25.5t27 -13.5z" />
    <glyph glyph-name="Lcommaaccent" unicode="&#x13b;" horiz-adv-x="454" 
d="M57 0l130 676h172l-104 -534h207l-27 -142h-378zM342 -134q0 -44 -46 -117q-3 -5 -4 -7l-59 -95l-69 11l41 120v6q-53 20 -53 82q0 43 26.5 66.5t68.5 23.5q43 0 69 -23.5t26 -66.5z" />
    <glyph glyph-name="lcommaaccent" unicode="&#x13c;" horiz-adv-x="293" 
d="M262 -134q0 -44 -46 -117q-3 -5 -4 -7l-59 -95l-69 11l41 120v6q-53 20 -53 82q0 43 26.5 66.5t68.5 23.5q43 0 69 -23.5t26 -66.5zM308 130l-37 -140h-48q-79 0 -115 27.5t-36 84.5q0 35 11 90l98 504h168l-93 -478q-6 -30 -6 -43q0 -17 8 -25.5t27 -13.5z" />
    <glyph glyph-name="Lcaron" unicode="&#x13d;" horiz-adv-x="470" 
d="M57 0l130 676h172l-104 -534h207l-27 -142h-378zM404 601q0 42 25 66t65 24q41 0 66.5 -24t25.5 -66t-46 -126l-52 -93l-60 11l33 119v3q-57 18 -57 86z" />
    <glyph glyph-name="lcaron" unicode="&#x13e;" horiz-adv-x="467" 
d="M385 621q0 42 25 66t65 24q41 0 66.5 -24t25.5 -66t-46 -126l-52 -93l-60 11l33 119v3q-57 18 -57 86zM308 130l-37 -140h-48q-79 0 -115 27.5t-36 84.5q0 35 11 90l98 504h168l-93 -478q-6 -30 -6 -43q0 -17 8 -25.5t27 -13.5z" />
    <glyph glyph-name="Ldot" unicode="&#x13f;" horiz-adv-x="470" 
d="M57 0l130 676h172l-104 -534h207l-27 -142h-378zM537 344q0 -42 -26.5 -66t-68.5 -24t-68.5 24t-26.5 66q0 43 26.5 66.5t68.5 23.5q43 0 69 -23.5t26 -66.5z" />
    <glyph glyph-name="ldot" unicode="&#x140;" horiz-adv-x="455" 
d="M307 130l-37 -140h-48q-79 0 -115 27.5t-36 84.5q0 35 11 90l98 504h168l-93 -478q-6 -30 -6 -43q0 -17 8 -25.5t27 -13.5zM519 359q0 -42 -26.5 -66t-68.5 -24t-68.5 24t-26.5 66q0 43 26.5 66.5t68.5 23.5q43 0 69 -23.5t26 -66.5z" />
    <glyph glyph-name="Lslash" unicode="&#x141;" horiz-adv-x="454" 
d="M57 0l38 197l9 27l-3 2q-8 -8 -21 -14l-49 -23v116l93 43l63 328h172l-41 -212l-11 -31l5 -2q7 9 25 17l84 39v-116l-133 -62l-33 -167h207l-27 -142h-378z" />
    <glyph glyph-name="lslash" unicode="&#x142;" horiz-adv-x="293" 
d="M29 305l84 39l68 352h168l-48 -247l-8 -19l2 -2q8 6 14 9l61 29v-116l-97 -46l-17 -86q-6 -30 -6 -43q0 -17 8 -25.5t27 -13.5l23 -6l-46 -140h-39q-79 0 -115 27.5t-36 84.5q0 35 11 90l2 10l6 17l-2 2q-8 -7 -16 -11l-44 -21v116z" />
    <glyph glyph-name="Nacute" unicode="&#x143;" horiz-adv-x="695" 
d="M367 676l129 -338q4 -10 8 -27.5t6 -30.5l3 -12l12 2q7 73 12 95l60 311h172l-131 -676h-186l-127 336q-4 10 -8.5 27.5t-6.5 30.5l-2 12l-12 -1q-4 -73 -8 -95l-60 -310h-171l130 676h180zM691 845q0 -10 -6 -19t-13.5 -14t-24.5 -15l-116 -67h-91l88 113q27 34 82 34
h42q39 0 39 -32z" />
    <glyph glyph-name="nacute" unicode="&#x144;" horiz-adv-x="517" 
d="M536 306l-59 -306h-169l55 283q5 23 5 36q0 35 -29 35q-54 0 -76 -114l-47 -240h-168l93 480h122l22 -60h4q61 70 140 70q54 0 84.5 -33t30.5 -82q0 -29 -8 -69zM534 649q0 -10 -6 -19t-13.5 -14t-24.5 -15l-116 -67h-91l88 113q27 34 82 34h42q39 0 39 -32z" />
    <glyph glyph-name="Ncommaaccent" unicode="&#x145;" horiz-adv-x="695" 
d="M367 676l129 -338q4 -10 8 -27.5t6 -30.5l3 -12l12 2q7 73 12 95l60 311h172l-131 -676h-186l-127 336q-4 10 -8.5 27.5t-6.5 30.5l-2 12l-12 -1q-4 -73 -8 -95l-60 -310h-171l130 676h180zM431 -134q0 -44 -46 -117q-3 -5 -4 -7l-59 -95l-69 11l41 120v6q-53 20 -53 82
q0 43 26.5 66.5t68.5 23.5q43 0 69 -23.5t26 -66.5z" />
    <glyph glyph-name="ncommaaccent" unicode="&#x146;" horiz-adv-x="517" 
d="M536 306l-59 -306h-169l55 283q5 23 5 36q0 35 -29 35q-54 0 -76 -114l-47 -240h-168l93 480h122l22 -60h4q61 70 140 70q54 0 84.5 -33t30.5 -82q0 -29 -8 -69zM356 -134q0 -44 -46 -117q-3 -5 -4 -7l-59 -95l-69 11l41 120v6q-53 20 -53 82q0 43 26.5 66.5t68.5 23.5
q43 0 69 -23.5t26 -66.5z" />
    <glyph glyph-name="Ncaron" unicode="&#x147;" horiz-adv-x="695" 
d="M367 676l129 -338q4 -10 8 -27.5t6 -30.5l3 -12l12 2q7 73 12 95l60 311h172l-131 -676h-186l-127 336q-4 10 -8.5 27.5t-6.5 30.5l-2 12l-12 -1q-4 -73 -8 -95l-60 -310h-171l130 676h180zM449 730l-95 111l42 49l105 -46h11l116 46l35 -49l-139 -111h-75z" />
    <glyph glyph-name="ncaron" unicode="&#x148;" horiz-adv-x="517" 
d="M536 306l-59 -306h-169l55 283q5 23 5 36q0 35 -29 35q-54 0 -76 -114l-47 -240h-168l93 480h122l22 -60h4q61 70 140 70q54 0 84.5 -33t30.5 -82q0 -29 -8 -69zM298 534l-95 111l42 49l105 -46h11l116 46l35 -49l-139 -111h-75z" />
    <glyph glyph-name="Omacron" unicode="&#x14c;" horiz-adv-x="670" 
d="M452 166q33 29 58 122.5t25 153.5q0 103 -92 103q-52 0 -92 -34q-37 -31 -61 -122.5t-24 -155.5q0 -52 20.5 -77t71.5 -25q54 0 94 35zM712 470q0 -107 -41.5 -233t-116.5 -184q-88 -68 -221 -68q-114 0 -179.5 52.5t-65.5 166.5q0 107 40.5 232t113.5 183q91 72 224 72
q114 0 180 -53.5t66 -167.5zM622 836l-19 -96h-254l19 96h254z" />
    <glyph glyph-name="omacron" unicode="&#x14d;" horiz-adv-x="494" 
d="M271 126q31 0 46 22t27.5 79.5t12.5 88.5q0 38 -41 38q-32 0 -46 -22q-15 -22 -27.5 -79.5t-12.5 -89.5q0 -18 11.5 -27.5t29.5 -9.5zM521 326q2 -72 -23 -154.5t-77 -129.5q-55 -52 -168 -52q-82 0 -133.5 41.5t-54.5 122.5q-2 66 24 154.5t78 131.5q61 50 165 50
q85 0 135.5 -40t53.5 -124zM486 640l-19 -96h-254l19 96h254z" />
    <glyph glyph-name="Obreve" unicode="&#x14e;" horiz-adv-x="670" 
d="M452 166q33 29 58 122.5t25 153.5q0 103 -92 103q-52 0 -92 -34q-37 -31 -61 -122.5t-24 -155.5q0 -52 20.5 -77t71.5 -25q54 0 94 35zM712 470q0 -107 -41.5 -233t-116.5 -184q-88 -68 -221 -68q-114 0 -179.5 52.5t-65.5 166.5q0 107 40.5 232t113.5 183q91 72 224 72
q114 0 180 -53.5t66 -167.5zM563 877h85q-30 -147 -172 -147q-75 0 -107 40.5t-19 106.5h85q2 -24 13 -37.5t40 -13.5q52 0 75 51z" />
    <glyph glyph-name="obreve" unicode="&#x14f;" horiz-adv-x="494" 
d="M271 126q31 0 46 22t27.5 79.5t12.5 88.5q0 38 -41 38q-32 0 -46 -22q-15 -22 -27.5 -79.5t-12.5 -89.5q0 -18 11.5 -27.5t29.5 -9.5zM521 326q2 -72 -23 -154.5t-77 -129.5q-55 -52 -168 -52q-82 0 -133.5 41.5t-54.5 122.5q-2 66 24 154.5t78 131.5q61 50 165 50
q85 0 135.5 -40t53.5 -124zM439 681h85q-30 -147 -172 -147q-75 0 -107 40.5t-19 106.5h85q2 -24 13 -37.5t40 -13.5q52 0 75 51z" />
    <glyph glyph-name="Ohungarumlaut" unicode="&#x150;" horiz-adv-x="670" 
d="M452 166q33 29 58 122.5t25 153.5q0 103 -92 103q-52 0 -92 -34q-37 -31 -61 -122.5t-24 -155.5q0 -52 20.5 -77t71.5 -25q54 0 94 35zM712 470q0 -107 -41.5 -233t-116.5 -184q-88 -68 -221 -68q-114 0 -179.5 52.5t-65.5 166.5q0 107 40.5 232t113.5 183q91 72 224 72
q114 0 180 -53.5t66 -167.5zM745 845q0 -10 -6 -19t-13.5 -14t-24.5 -15l-116 -67h-66l88 113q27 34 82 34h17q39 0 39 -32zM558 845q0 -10 -6 -19t-13.5 -14t-24.5 -15l-116 -67h-66l88 113q27 34 82 34h17q39 0 39 -32z" />
    <glyph glyph-name="ohungarumlaut" unicode="&#x151;" horiz-adv-x="494" 
d="M622 649q0 -10 -6 -19t-13.5 -14t-24.5 -15l-116 -67h-66l88 113q27 34 82 34h17q39 0 39 -32zM435 649q0 -10 -6 -19t-13.5 -14t-24.5 -15l-116 -67h-66l88 113q27 34 82 34h17q39 0 39 -32zM271 126q31 0 46 22t27.5 79.5t12.5 88.5q0 38 -41 38q-32 0 -46 -22
q-15 -22 -27.5 -79.5t-12.5 -89.5q0 -18 11.5 -27.5t29.5 -9.5zM521 326q2 -72 -23 -154.5t-77 -129.5q-55 -52 -168 -52q-82 0 -133.5 41.5t-54.5 122.5q-2 66 24 154.5t78 131.5q61 50 165 50q85 0 135.5 -40t53.5 -124z" />
    <glyph glyph-name="OE" unicode="&#x152;" horiz-adv-x="882" 
d="M452 166q33 29 58 122.5t25 153.5q0 103 -92 103q-52 0 -92 -34q-37 -31 -61 -122.5t-24 -155.5q0 -52 20.5 -77t71.5 -25q54 0 94 35zM712 470q0 -22 -3 -48h147l-26 -132h-143q-22 -82 -57 -145l4 -3h256l-27 -142h-414q-53 -15 -116 -15q-114 0 -179.5 52.5
t-65.5 166.5q0 107 40.5 232t113.5 183q91 72 224 72q60 0 109 -15h396l-27 -142h-235l-3 -3q6 -29 6 -61z" />
    <glyph glyph-name="oe" unicode="&#x153;" horiz-adv-x="783" 
d="M271 126q31 0 46 22t27.5 79.5t12.5 88.5q0 38 -41 38q-32 0 -46 -22q-15 -22 -27.5 -79.5t-12.5 -89.5q0 -18 11.5 -27.5t29.5 -9.5zM524 299h92q40 0 40 31q0 30 -50 30q-42 0 -60 -18q-12 -12 -22 -43zM729 151l13 -118q-88 -43 -191 -43q-93 0 -146 37h-5
q-60 -37 -147 -37q-82 0 -133.5 41.5t-54.5 122.5q-2 66 24 154.5t78 131.5q61 50 165 50q82 0 131 -37h4q62 37 162 37q86 0 136.5 -36t49.5 -100q0 -78 -50.5 -124t-156.5 -46h-106q-2 -9 -2 -19q0 -21 17.5 -30t61.5 -9q63 0 150 25z" />
    <glyph glyph-name="Racute" unicode="&#x154;" horiz-adv-x="583" 
d="M524 281q-18 -12 -58 -27l100 -254h-179l-89 232h-25l-45 -232h-171l130 676h240q92 0 146 -46.5t54 -138.5q0 -65 -27 -120.5t-76 -89.5zM418 384q36 28 36 98q0 24 -16 38t-43 14h-63l-33 -170h63q31 0 56 20zM576 845q0 -10 -6 -19t-13.5 -14t-24.5 -15l-116 -67h-91
l88 113q27 34 82 34h42q39 0 39 -32z" />
    <glyph glyph-name="racute" unicode="&#x155;" horiz-adv-x="341" 
d="M493 649q0 -10 -6 -19t-13.5 -14t-24.5 -15l-116 -67h-91l88 113q27 34 82 34h42q39 0 39 -32zM409 490h17l-28 -150h-35q-43 0 -67.5 -25.5t-36.5 -91.5l-43 -223h-168l93 480h109l22 -60h6q41 70 131 70z" />
    <glyph glyph-name="Rcommaaccent" unicode="&#x156;" horiz-adv-x="583" 
d="M524 281q-18 -12 -58 -27l100 -254h-179l-89 232h-25l-45 -232h-171l130 676h240q92 0 146 -46.5t54 -138.5q0 -65 -27 -120.5t-76 -89.5zM418 384q36 28 36 98q0 24 -16 38t-43 14h-63l-33 -170h63q31 0 56 20zM388 -134q0 -44 -46 -117q-3 -5 -4 -7l-59 -95l-69 11
l41 120v6q-53 20 -53 82q0 43 26.5 66.5t68.5 23.5q43 0 69 -23.5t26 -66.5z" />
    <glyph glyph-name="rcommaaccent" unicode="&#x157;" horiz-adv-x="341" 
d="M218 -134q0 -44 -46 -117q-3 -5 -4 -7l-59 -95l-69 11l41 120v6q-53 20 -53 82q0 43 26.5 66.5t68.5 23.5q43 0 69 -23.5t26 -66.5zM409 490h17l-28 -150h-35q-43 0 -67.5 -25.5t-36.5 -91.5l-43 -223h-168l93 480h109l22 -60h6q41 70 131 70z" />
    <glyph glyph-name="Rcaron" unicode="&#x158;" horiz-adv-x="583" 
d="M524 281q-18 -12 -58 -27l100 -254h-179l-89 232h-25l-45 -232h-171l130 676h240q92 0 146 -46.5t54 -138.5q0 -65 -27 -120.5t-76 -89.5zM418 384q36 28 36 98q0 24 -16 38t-43 14h-63l-33 -170h63q31 0 56 20zM337 730l-95 111l42 49l105 -46h11l116 46l35 -49
l-139 -111h-75z" />
    <glyph glyph-name="rcaron" unicode="&#x159;" horiz-adv-x="341" 
d="M252 534l-95 111l42 49l105 -46h11l116 46l35 -49l-139 -111h-75zM409 490h17l-28 -150h-35q-43 0 -67.5 -25.5t-36.5 -91.5l-43 -223h-168l93 480h109l22 -60h6q41 70 131 70z" />
    <glyph glyph-name="Sacute" unicode="&#x15a;" horiz-adv-x="549" 
d="M558 204q0 -94 -67 -156.5t-193 -62.5q-73 0 -137.5 20.5t-101.5 45.5l52 131q104 -51 178 -51q43 0 65.5 19t22.5 50q0 34 -59 60l-65 30q-65 31 -96 72t-31 106q0 97 70 160t193 63q54 0 108 -15.5t85 -34.5l-64 -132q-72 36 -131 36q-38 0 -59 -18t-21 -47
q0 -38 42 -57l73 -34q136 -64 136 -185zM592 845q0 -10 -6 -19t-13.5 -14t-24.5 -15l-116 -67h-91l88 113q27 34 82 34h42q39 0 39 -32z" />
    <glyph glyph-name="sacute" unicode="&#x15b;" horiz-adv-x="453" 
d="M464 168q0 -83 -55 -130.5t-156 -47.5q-120 0 -212 53l52 127q78 -44 153 -44q45 0 45 23q0 8 -5 11t-23 9l-64 21q-106 35 -106 122t61.5 132.5t157.5 45.5q93 0 169 -37l-55 -129q-62 30 -118 30q-44 0 -44 -24q0 -12 18 -18l61 -19q121 -38 121 -125zM518 649
q0 -10 -6 -19t-13.5 -14t-24.5 -15l-116 -67h-91l88 113q27 34 82 34h42q39 0 39 -32z" />
    <glyph glyph-name="Scircumflex" unicode="&#x15c;" horiz-adv-x="549" 
d="M558 204q0 -94 -67 -156.5t-193 -62.5q-73 0 -137.5 20.5t-101.5 45.5l52 131q104 -51 178 -51q43 0 65.5 19t22.5 50q0 34 -59 60l-65 30q-65 31 -96 72t-31 106q0 97 70 160t193 63q54 0 108 -15.5t85 -34.5l-64 -132q-72 36 -131 36q-38 0 -59 -18t-21 -47
q0 -38 42 -57l73 -34q136 -64 136 -185zM449 883l95 -111l-42 -49l-105 46h-11l-116 -46l-35 49l139 111h75z" />
    <glyph glyph-name="scircumflex" unicode="&#x15d;" horiz-adv-x="453" 
d="M464 168q0 -83 -55 -130.5t-156 -47.5q-120 0 -212 53l52 127q78 -44 153 -44q45 0 45 23q0 8 -5 11t-23 9l-64 21q-106 35 -106 122t61.5 132.5t157.5 45.5q93 0 169 -37l-55 -129q-62 30 -118 30q-44 0 -44 -24q0 -12 18 -18l61 -19q121 -38 121 -125zM374 687l95 -111
l-42 -49l-105 46h-11l-116 -46l-35 49l139 111h75z" />
    <glyph glyph-name="Scedilla" unicode="&#x15e;" horiz-adv-x="549" 
d="M406 -110q0 -54 -36 -80t-96 -26q-25 0 -54 2.5t-46 5.5l-17 2l18 61q48 -5 74 -5q42 0 42 32q0 19 -31 19h-59l35 89q-108 13 -177 61l52 131q104 -51 178 -51q43 0 65.5 19t22.5 50q0 34 -59 60l-65 30q-65 31 -96 72t-31 106q0 97 70 160t193 63q54 0 108 -15.5
t85 -34.5l-64 -132q-72 36 -131 36q-38 0 -59 -18t-21 -47q0 -38 42 -57l73 -34q136 -64 136 -185q0 -89 -60 -150t-173 -68l-9 -33h10q80 0 80 -63z" />
    <glyph glyph-name="scedilla" unicode="&#x15f;" horiz-adv-x="453" 
d="M347 -110q0 -54 -36 -80t-96 -26q-25 0 -54 2.5t-46 5.5l-17 2l18 61q48 -5 74 -5q42 0 42 32q0 19 -31 19h-59l38 95q-81 13 -139 47l52 127q78 -44 153 -44q45 0 45 23q0 8 -5 11t-23 9l-64 21q-106 35 -106 122t61.5 132.5t157.5 45.5q93 0 169 -37l-55 -129
q-62 30 -118 30q-44 0 -44 -24q0 -12 18 -18l61 -19q121 -38 121 -125q0 -80 -51 -127t-145 -51l-11 -37h10q80 0 80 -63z" />
    <glyph glyph-name="Scaron" unicode="&#x160;" horiz-adv-x="549" 
d="M558 204q0 -94 -67 -156.5t-193 -62.5q-73 0 -137.5 20.5t-101.5 45.5l52 131q104 -51 178 -51q43 0 65.5 19t22.5 50q0 34 -59 60l-65 30q-65 31 -96 72t-31 106q0 97 70 160t193 63q54 0 108 -15.5t85 -34.5l-64 -132q-72 36 -131 36q-38 0 -59 -18t-21 -47
q0 -38 42 -57l73 -34q136 -64 136 -185zM347 734l-95 111l42 49l105 -46h11l116 46l35 -49l-139 -111h-75z" />
    <glyph glyph-name="scaron" unicode="&#x161;" horiz-adv-x="453" 
d="M464 168q0 -83 -55 -130.5t-156 -47.5q-120 0 -212 53l52 127q78 -44 153 -44q45 0 45 23q0 8 -5 11t-23 9l-64 21q-106 35 -106 122t61.5 132.5t157.5 45.5q93 0 169 -37l-55 -129q-62 30 -118 30q-44 0 -44 -24q0 -12 18 -18l61 -19q121 -38 121 -125zM274 534l-95 111
l42 49l105 -46h11l116 46l35 -49l-139 -111h-75z" />
    <glyph glyph-name="Tcommaaccent" unicode="&#x162;" horiz-adv-x="528" 
d="M351 -134q0 -44 -46 -117q-3 -5 -4 -7l-59 -95l-69 11l41 120v6q-53 20 -53 82q0 43 26.5 66.5t68.5 23.5q43 0 69 -23.5t26 -66.5zM613 534h-159l-104 -534h-172l104 534h-160l27 142h491z" />
    <glyph glyph-name="Tcommaaccent" unicode="&#x21a;" horiz-adv-x="528" 
d="M351 -134q0 -44 -46 -117q-3 -5 -4 -7l-59 -95l-69 11l41 120v6q-53 20 -53 82q0 43 26.5 66.5t68.5 23.5q43 0 69 -23.5t26 -66.5zM613 534h-159l-104 -534h-172l104 534h-160l27 142h491z" />
    <glyph glyph-name="tcommaaccent" unicode="&#x163;" horiz-adv-x="350" 
d="M292 -134q0 -44 -46 -117q-3 -5 -4 -7l-59 -95l-69 11l41 120v6q-53 20 -53 82q0 43 26.5 66.5t68.5 23.5q43 0 69 -23.5t26 -66.5zM76 340l28 140h60l22 115l175 34l-29 -149h89l-28 -140h-89l-23 -120q-4 -19 -4 -35q0 -43 50 -52l25 -5l-36 -138h-46q-86 0 -129 32
t-43 89q0 29 9 76l29 153h-60z" />
    <glyph glyph-name="tcommaaccent" unicode="&#x21b;" horiz-adv-x="350" 
d="M292 -134q0 -44 -46 -117q-3 -5 -4 -7l-59 -95l-69 11l41 120v6q-53 20 -53 82q0 43 26.5 66.5t68.5 23.5q43 0 69 -23.5t26 -66.5zM76 340l28 140h60l22 115l175 34l-29 -149h89l-28 -140h-89l-23 -120q-4 -19 -4 -35q0 -43 50 -52l25 -5l-36 -138h-46q-86 0 -129 32
t-43 89q0 29 9 76l29 153h-60z" />
    <glyph glyph-name="Tcaron" unicode="&#x164;" horiz-adv-x="528" 
d="M613 534h-159l-104 -534h-172l104 534h-160l27 142h491zM354 730l-95 111l42 49l105 -46h11l116 46l35 -49l-139 -111h-75z" />
    <glyph glyph-name="tcaron" unicode="&#x165;" horiz-adv-x="350" 
d="M380 734q0 37 23 59t58 22q37 0 60 -21.5t23 -59.5q0 -37 -41 -114l-47 -83l-54 10l30 107v2q-52 16 -52 78zM76 340l28 140h60l22 115l175 34l-29 -149h89l-28 -140h-89l-23 -120q-4 -19 -4 -35q0 -43 50 -52l25 -5l-36 -138h-46q-86 0 -129 32t-43 89q0 29 9 76l29 153
h-60z" />
    <glyph glyph-name="Utilde" unicode="&#x168;" horiz-adv-x="621" 
d="M695 676l-90 -462q-22 -112 -99.5 -170.5t-193.5 -58.5q-107 0 -163.5 52t-56.5 142q0 29 6 60l85 437h172l-82 -422q-8 -37 -8 -59q0 -27 18 -45.5t50 -18.5q84 0 105 108l85 437h172zM554 870l52 -31q-4 -18 -9.5 -31.5t-17.5 -33t-33 -30.5t-50 -11q-17 0 -56.5 12.5
t-53.5 12.5q-30 0 -49 -29l-52 31q4 18 9.5 31t17.5 33t33 31t50 11q17 0 56 -12.5t53 -12.5q31 0 50 29z" />
    <glyph glyph-name="utilde" unicode="&#x169;" horiz-adv-x="518" 
d="M561 480l-57 -294q-4 -27 0 -38t18 -18l18 -10l-58 -130q-53 0 -92.5 19t-52.5 52h-5q-51 -71 -129 -71q-59 0 -95 36.5t-36 100.5q0 41 9 85l52 268h168l-56 -287q-4 -20 -4 -33q0 -34 30 -34q53 0 76 116l46 238h168zM468 674l52 -31q-4 -18 -9.5 -31.5t-17.5 -33
t-33 -30.5t-50 -11q-17 0 -56.5 12.5t-53.5 12.5q-30 0 -49 -29l-52 31q4 18 9.5 31t17.5 33t33 31t50 11q17 0 56 -12.5t53 -12.5q31 0 50 29z" />
    <glyph glyph-name="Umacron" unicode="&#x16a;" horiz-adv-x="621" 
d="M695 676l-90 -462q-22 -112 -99.5 -170.5t-193.5 -58.5q-107 0 -163.5 52t-56.5 142q0 29 6 60l85 437h172l-82 -422q-8 -37 -8 -59q0 -27 18 -45.5t50 -18.5q84 0 105 108l85 437h172zM587 836l-19 -96h-254l19 96h254z" />
    <glyph glyph-name="umacron" unicode="&#x16b;" horiz-adv-x="518" 
d="M561 480l-57 -294q-4 -27 0 -38t18 -18l18 -10l-58 -130q-53 0 -92.5 19t-52.5 52h-5q-51 -71 -129 -71q-59 0 -95 36.5t-36 100.5q0 41 9 85l52 268h168l-56 -287q-4 -20 -4 -33q0 -34 30 -34q53 0 76 116l46 238h168zM498 640l-19 -96h-254l19 96h254z" />
    <glyph glyph-name="Ubreve" unicode="&#x16c;" horiz-adv-x="621" 
d="M695 676l-90 -462q-22 -112 -99.5 -170.5t-193.5 -58.5q-107 0 -163.5 52t-56.5 142q0 29 6 60l85 437h172l-82 -422q-8 -37 -8 -59q0 -27 18 -45.5t50 -18.5q84 0 105 108l85 437h172zM532 877h85q-30 -147 -172 -147q-75 0 -107 40.5t-19 106.5h85q2 -24 13 -37.5
t40 -13.5q52 0 75 51z" />
    <glyph glyph-name="ubreve" unicode="&#x16d;" horiz-adv-x="518" 
d="M561 480l-57 -294q-4 -27 0 -38t18 -18l18 -10l-58 -130q-53 0 -92.5 19t-52.5 52h-5q-51 -71 -129 -71q-59 0 -95 36.5t-36 100.5q0 41 9 85l52 268h168l-56 -287q-4 -20 -4 -33q0 -34 30 -34q53 0 76 116l46 238h168zM448 681h85q-30 -147 -172 -147q-75 0 -107 40.5
t-19 106.5h85q2 -24 13 -37.5t40 -13.5q52 0 75 51z" />
    <glyph glyph-name="Uring" unicode="&#x16e;" horiz-adv-x="621" 
d="M695 676l-90 -462q-22 -112 -99.5 -170.5t-193.5 -58.5q-107 0 -163.5 52t-56.5 142q0 29 6 60l85 437h172l-82 -422q-8 -37 -8 -59q0 -27 18 -45.5t50 -18.5q84 0 105 108l85 437h172zM492 833q0 19 -12.5 32t-33.5 13t-33.5 -13t-12.5 -32t12.5 -31.5t33.5 -12.5
t33.5 12.5t12.5 31.5zM564 833q0 -47 -30.5 -75t-87.5 -28t-87.5 28t-30.5 75t30.5 75.5t87.5 28.5t87.5 -28.5t30.5 -75.5z" />
    <glyph glyph-name="uring" unicode="&#x16f;" horiz-adv-x="518" 
d="M561 480l-57 -294q-4 -27 0 -38t18 -18l18 -10l-58 -130q-53 0 -92.5 19t-52.5 52h-5q-51 -71 -129 -71q-59 0 -95 36.5t-36 100.5q0 41 9 85l52 268h168l-56 -287q-4 -20 -4 -33q0 -34 30 -34q53 0 76 116l46 238h168zM401 637q0 19 -12.5 32t-33.5 13t-33.5 -13
t-12.5 -32t12.5 -31.5t33.5 -12.5t33.5 12.5t12.5 31.5zM473 637q0 -47 -30.5 -75t-87.5 -28t-87.5 28t-30.5 75t30.5 75.5t87.5 28.5t87.5 -28.5t30.5 -75.5z" />
    <glyph glyph-name="Uhungarumlaut" unicode="&#x170;" horiz-adv-x="621" 
d="M695 676l-90 -462q-22 -112 -99.5 -170.5t-193.5 -58.5q-107 0 -163.5 52t-56.5 142q0 29 6 60l85 437h172l-82 -422q-8 -37 -8 -59q0 -27 18 -45.5t50 -18.5q84 0 105 108l85 437h172zM710 845q0 -10 -6 -19t-13.5 -14t-24.5 -15l-116 -67h-66l88 113q27 34 82 34h17
q39 0 39 -32zM523 845q0 -10 -6 -19t-13.5 -14t-24.5 -15l-116 -67h-66l88 113q27 34 82 34h17q39 0 39 -32z" />
    <glyph glyph-name="uhungarumlaut" unicode="&#x171;" horiz-adv-x="518" 
d="M561 480l-57 -294q-4 -27 0 -38t18 -18l18 -10l-58 -130q-53 0 -92.5 19t-52.5 52h-5q-51 -71 -129 -71q-59 0 -95 36.5t-36 100.5q0 41 9 85l52 268h168l-56 -287q-4 -20 -4 -33q0 -34 30 -34q53 0 76 116l46 238h168zM630 649q0 -10 -6 -19t-13.5 -14t-24.5 -15
l-116 -67h-66l88 113q27 34 82 34h17q39 0 39 -32zM443 649q0 -10 -6 -19t-13.5 -14t-24.5 -15l-116 -67h-66l88 113q27 34 82 34h17q39 0 39 -32z" />
    <glyph glyph-name="Uogonek" unicode="&#x172;" horiz-adv-x="621" 
d="M410 -132l3 -73q-39 -11 -87 -11q-55 0 -85 20.5t-30 56.5q0 69 82 122v3q-98 4 -149.5 55.5t-51.5 137.5q0 29 6 60l85 437h172l-82 -422q-8 -37 -8 -59q0 -27 18 -45.5t50 -18.5q84 0 105 108l85 437h172l-90 -462q-32 -162 -176 -211q-28 -20 -55 -52.5t-27 -56.5
q0 -28 40 -28z" />
    <glyph glyph-name="uogonek" unicode="&#x173;" horiz-adv-x="518" 
d="M561 480l-57 -294q-4 -27 0 -38t18 -18l18 -10l-58 -130q-67 -58 -67 -96q0 -28 40 -28l23 2l3 -73q-39 -11 -87 -11q-55 0 -85 20.5t-30 56.5q0 43 34.5 80.5t82.5 60.5v4q-46 20 -59 55h-5q-51 -71 -129 -71q-59 0 -95 36.5t-36 100.5q0 41 9 85l52 268h168l-56 -287
q-4 -20 -4 -33q0 -34 30 -34q53 0 76 116l46 238h168z" />
    <glyph glyph-name="Wcircumflex" unicode="&#x174;" horiz-adv-x="941" 
d="M532 388q-10 -49 -33 -108l-109 -280h-224l-25 676h169l11 -351l-2 -98h15q12 41 23 69l130 333h180l18 -315v-87h13q19 65 30 90l153 359h181l-291 -676h-204l-19 278l-3 110h-13zM650 883l95 -111l-42 -49l-105 46h-11l-116 -46l-35 49l139 111h75z" />
    <glyph glyph-name="wcircumflex" unicode="&#x175;" horiz-adv-x="725" 
d="M391 461h108l20 -177l4 -68h12q8 45 18 68l78 196h177l-201 -480h-175l-21 178l-2 59h-11q-7 -35 -19 -59l-89 -178h-165l-22 480h164l3 -196l-2 -68h12q11 45 23 68zM522 687l95 -111l-42 -49l-105 46h-11l-116 -46l-35 49l139 111h75z" />
    <glyph glyph-name="Ycircumflex" unicode="&#x176;" horiz-adv-x="588" 
d="M709 676l-297 -473l-39 -203h-171l43 222l-104 454h170l42 -188q3 -15 4.5 -35.5t1.5 -33.5v-13h8q15 47 36 82l111 188h195zM484 883l95 -111l-42 -49l-105 46h-11l-116 -46l-35 49l139 111h75z" />
    <glyph glyph-name="ycircumflex" unicode="&#x177;" horiz-adv-x="525" 
d="M428 480h180l-225 -549q-36 -87 -96.5 -127t-153.5 -40h-122l27 140h91q39 0 58 10.5t31 40.5l17 45h-68l-64 480h168l25 -218l6 -91h15q6 45 25 92zM417 687l95 -111l-42 -49l-105 46h-11l-116 -46l-35 49l139 111h75z" />
    <glyph glyph-name="Ydieresis" unicode="&#x178;" horiz-adv-x="588" 
d="M709 676l-297 -473l-39 -203h-171l43 222l-104 454h170l42 -188q3 -15 4.5 -35.5t1.5 -33.5v-13h8q15 47 36 82l111 188h195zM410 808q0 -41 -23.5 -62.5t-61.5 -21.5t-61.5 21.5t-23.5 62.5q0 42 23.5 63t61.5 21q39 0 62 -21t23 -63zM620 808q0 -41 -23.5 -62.5
t-61.5 -21.5t-61.5 21.5t-23.5 62.5q0 42 23.5 63t61.5 21q39 0 62 -21t23 -63z" />
    <glyph glyph-name="Zacute" unicode="&#x179;" horiz-adv-x="494" 
d="M481 0h-452l264 469q9 16 20 31t17 22l6 6v6h-201l27 142h433l-270 -481q-8 -15 -17.5 -27t-14.5 -16l-5 -5v-5h220zM572 845q0 -10 -6 -19t-13.5 -14t-24.5 -15l-116 -67h-91l88 113q27 34 82 34h42q39 0 39 -32z" />
    <glyph glyph-name="zacute" unicode="&#x17a;" horiz-adv-x="416" 
d="M94 340l27 140h369l-12 -64l-175 -233q-7 -9 -18.5 -18.5t-19.5 -14.5l-8 -5l1 -5h171l-27 -140h-383l14 73l163 220q7 9 18.5 19t19.5 16l9 6l-1 6h-148zM512 649q0 -10 -6 -19t-13.5 -14t-24.5 -15l-116 -67h-91l88 113q27 34 82 34h42q39 0 39 -32z" />
    <glyph glyph-name="Zdotaccent" unicode="&#x17b;" horiz-adv-x="494" 
d="M481 0h-452l264 469q9 16 20 31t17 22l6 6v6h-201l27 142h433l-270 -481q-8 -15 -17.5 -27t-14.5 -16l-5 -5v-5h220zM479 808q0 -41 -26 -62.5t-69 -21.5q-42 0 -68.5 21.5t-26.5 62.5q0 42 26 63t69 21t69 -21t26 -63z" />
    <glyph glyph-name="zdotaccent" unicode="&#x17c;" horiz-adv-x="416" 
d="M94 340l27 140h369l-12 -64l-175 -233q-7 -9 -18.5 -18.5t-19.5 -14.5l-8 -5l1 -5h171l-27 -140h-383l14 73l163 220q7 9 18.5 19t19.5 16l9 6l-1 6h-148zM404 614q0 -41 -26 -62.5t-69 -21.5q-42 0 -68.5 21.5t-26.5 62.5q0 42 26 63t69 21t69 -21t26 -63z" />
    <glyph glyph-name="Zcaron" unicode="&#x17d;" horiz-adv-x="494" 
d="M481 0h-452l264 469q9 16 20 31t17 22l6 6v6h-201l27 142h433l-270 -481q-8 -15 -17.5 -27t-14.5 -16l-5 -5v-5h220zM335 734l-95 111l42 49l105 -46h11l116 46l35 -49l-139 -111h-75z" />
    <glyph glyph-name="zcaron" unicode="&#x17e;" horiz-adv-x="416" 
d="M94 340l27 140h369l-12 -64l-175 -233q-7 -9 -18.5 -18.5t-19.5 -14.5l-8 -5l1 -5h171l-27 -140h-383l14 73l163 220q7 9 18.5 19t19.5 16l9 6l-1 6h-148zM276 534l-95 111l42 49l105 -46h11l116 46l35 -49l-139 -111h-75z" />
    <glyph glyph-name="florin" unicode="&#x192;" horiz-adv-x="309" 
d="M-93 -226l28 129q20 -3 43 -3q51 0 59 44l77 396h-59l28 140h59l14 76q15 82 64 118.5t145 36.5q16 0 37 -2.5t34 -4.5l14 -3l-28 -129q-20 3 -43 3q-51 0 -59 -44l-10 -51h93l-28 -140h-93l-81 -421q-16 -83 -64.5 -119t-144.5 -36q-16 0 -37 2.5t-35 5.5z" />
    <glyph glyph-name="AEacute" unicode="&#x1fc;" horiz-adv-x="855" 
d="M200 0h-190l373 676h561l-27 -142h-222l-22 -112h146l-26 -132h-146l-29 -148h245l-27 -142h-416l21 113h-180zM424 411l-85 -156h130l28 144l28 135l-39 8q-29 -70 -62 -131zM845 845q0 -10 -6 -19t-13.5 -14t-24.5 -15l-116 -67h-91l88 113q27 34 82 34h42q39 0 39 -32
z" />
    <glyph glyph-name="aeacute" unicode="&#x1fd;" horiz-adv-x="796" 
d="M341 151l8 38q-70 1 -99 -6q-36 -8 -36 -34q0 -23 36 -23q54 0 91 25zM537 299h92q40 0 40 31q0 30 -50 30q-42 0 -60 -18q-12 -12 -22 -43zM742 151l13 -118q-88 -43 -191 -43q-126 0 -179 59h-7q-70 -59 -172 -59q-72 0 -113.5 34.5t-41.5 94.5q0 83 61.5 131.5
t167.5 48.5h90l4 21q4 21 -9.5 27.5t-47.5 6.5q-77 0 -161 -31l-19 125q114 42 214 42q90 0 135 -32h4q59 32 152 32q86 0 136.5 -36t49.5 -100q0 -78 -50.5 -124t-156.5 -46h-106q-2 -9 -2 -19q0 -21 17.5 -30t61.5 -9q63 0 150 25zM706 649q0 -10 -6 -19t-13.5 -14
t-24.5 -15l-116 -67h-91l88 113q27 34 82 34h42q39 0 39 -32z" />
    <glyph glyph-name="Oslashacute" unicode="&#x1fe;" horiz-adv-x="670" 
d="M678 845q0 -10 -6 -19t-13.5 -14t-24.5 -15l-116 -67h-91l88 113q27 34 82 34h42q39 0 39 -32zM722 470q0 -107 -41.5 -233t-116.5 -184q-88 -68 -226 -68q-91 0 -152 32l-47 -53l-80 70l53 59q-24 45 -24 111q0 107 40.5 232t113.5 183q91 72 229 72q90 0 148 -31l50 56
l79 -69l-53 -59q27 -46 27 -118zM462 166q30 26 53.5 106t28.5 146l-243 -272q22 -15 62 -15q59 0 99 35zM351 511q-32 -27 -55 -101t-29 -143l237 264q-23 14 -56 14q-57 0 -97 -34z" />
    <glyph glyph-name="oslashacute" unicode="&#x1ff;" horiz-adv-x="494" 
d="M545 649q0 -10 -6 -19t-13.5 -14t-24.5 -15l-116 -67h-91l88 113q27 34 82 34h42q39 0 39 -32zM213 241l-4 -27l12 -3q16 27 29 42l91 101q-13 5 -30 5q-44 0 -63 -22q-22 -26 -35 -96zM373 239l4 27l-12 3q-13 -24 -26 -39l-93 -104q10 -5 29 -5q44 0 63 22q22 26 35 96
zM520 326q2 -72 -23 -154.5t-77 -129.5q-55 -52 -168 -52q-60 0 -106 23l-32 -35l-63 53l35 39q-21 36 -22 84q-2 66 24 154.5t78 131.5q61 50 165 50q65 0 110 -24l29 32l62 -52l-33 -37q20 -36 21 -83z" />
    <glyph glyph-name="Adblgrave" unicode="&#x200;" horiz-adv-x="645" 
d="M10 0l312 676h237l76 -676h-170l-12 113h-212l-52 -113h-179zM383 429l-78 -174h132l-18 174l-3 68h-11q-13 -48 -22 -68zM153 844q0 14 11.5 23.5t33.5 9.5h19q56 0 76 -34l69 -113h-66l-109 69q-34 21 -34 45zM340 844q0 14 11.5 23.5t33.5 9.5h19q56 0 76 -34l69 -113
h-66l-109 69q-34 21 -34 45z" />
    <glyph glyph-name="adblgrave" unicode="&#x201;" horiz-adv-x="520" 
d="M64 141q0 84 27 161t77 123q73 65 207 65q48 0 95 -9t70 -17l23 -9l-52 -267q-5 -27 -0.5 -38.5t19.5 -20.5l17 -9l-58 -130q-59 0 -98.5 22.5t-49.5 57.5h-6q-52 -80 -139 -80q-65 0 -98.5 40.5t-33.5 110.5zM339 354q-39 0 -64 -32q-16 -21 -28.5 -64.5t-12.5 -81.5
q0 -50 39 -50q26 0 46 26t30 73l25 123q-15 6 -35 6zM103 648q0 14 11.5 23.5t33.5 9.5h19q56 0 76 -34l69 -113h-66l-109 69q-34 21 -34 45zM290 648q0 14 11.5 23.5t33.5 9.5h19q56 0 76 -34l69 -113h-66l-109 69q-34 21 -34 45z" />
    <glyph glyph-name="Ainvertedbreve" unicode="&#x202;" horiz-adv-x="645" 
d="M10 0l312 676h237l76 -676h-170l-12 113h-212l-52 -113h-179zM383 429l-78 -174h132l-18 174l-3 68h-11q-13 -48 -22 -68zM376 730h-85q13 67 58.5 107t120.5 40q68 0 100 -41t21 -106h-85q-4 51 -56 51q-51 0 -74 -51z" />
    <glyph glyph-name="ainvertedbreve" unicode="&#x203;" horiz-adv-x="520" 
d="M64 141q0 84 27 161t77 123q73 65 207 65q48 0 95 -9t70 -17l23 -9l-52 -267q-5 -27 -0.5 -38.5t19.5 -20.5l17 -9l-58 -130q-59 0 -98.5 22.5t-49.5 57.5h-6q-52 -80 -139 -80q-65 0 -98.5 40.5t-33.5 110.5zM339 354q-39 0 -64 -32q-16 -21 -28.5 -64.5t-12.5 -81.5
q0 -50 39 -50q26 0 46 26t30 73l25 123q-15 6 -35 6zM311 534h-85q13 67 58.5 107t120.5 40q68 0 100 -41t21 -106h-85q-4 51 -56 51q-51 0 -74 -51z" />
    <glyph glyph-name="Edblgrave" unicode="&#x204;" horiz-adv-x="492" 
d="M57 0l130 676h394l-27 -142h-222l-22 -112h146l-26 -132h-146l-29 -148h245l-27 -142h-416zM122 844q0 14 11.5 23.5t33.5 9.5h19q56 0 76 -34l69 -113h-66l-109 69q-34 21 -34 45zM309 844q0 14 11.5 23.5t33.5 9.5h19q56 0 76 -34l69 -113h-66l-109 69q-34 21 -34 45z
" />
    <glyph glyph-name="edblgrave" unicode="&#x205;" horiz-adv-x="514" 
d="M253 299h92q21 0 30.5 10.5t9.5 23.5q0 27 -50 27q-42 0 -60 -18q-12 -12 -22 -43zM458 151l13 -118q-88 -43 -191 -43q-214 0 -216 164q0 65 25.5 145t64.5 121q68 70 205 70q93 0 140.5 -35.5t47.5 -101.5q0 -78 -54 -123.5t-165 -45.5h-97q-2 -9 -2 -19
q0 -21 17.5 -30t61.5 -9q63 0 150 25zM86 648q0 14 11.5 23.5t33.5 9.5h19q56 0 76 -34l69 -113h-66l-109 69q-34 21 -34 45zM273 648q0 14 11.5 23.5t33.5 9.5h19q56 0 76 -34l69 -113h-66l-109 69q-34 21 -34 45z" />
    <glyph glyph-name="Einvertedbreve" unicode="&#x206;" horiz-adv-x="492" 
d="M57 0l130 676h394l-27 -142h-222l-22 -112h146l-26 -132h-146l-29 -148h245l-27 -142h-416zM323 730h-85q13 67 58.5 107t120.5 40q68 0 100 -41t21 -106h-85q-4 51 -56 51q-51 0 -74 -51z" />
    <glyph glyph-name="einvertedbreve" unicode="&#x207;" horiz-adv-x="514" 
d="M253 299h92q21 0 30.5 10.5t9.5 23.5q0 27 -50 27q-42 0 -60 -18q-12 -12 -22 -43zM458 151l13 -118q-88 -43 -191 -43q-214 0 -216 164q0 65 25.5 145t64.5 121q68 70 205 70q93 0 140.5 -35.5t47.5 -101.5q0 -78 -54 -123.5t-165 -45.5h-97q-2 -9 -2 -19
q0 -21 17.5 -30t61.5 -9q63 0 150 25zM296 534h-85q13 67 58.5 107t120.5 40q68 0 100 -41t21 -106h-85q-4 51 -56 51q-51 0 -74 -51z" />
    <glyph glyph-name="Idblgrave" unicode="&#x208;" horiz-adv-x="285" 
d="M12 844q0 14 11.5 23.5t33.5 9.5h19q56 0 76 -34l69 -113h-66l-109 69q-34 21 -34 45zM199 844q0 14 11.5 23.5t33.5 9.5h19q56 0 76 -34l69 -113h-66l-109 69q-34 21 -34 45zM57 0l130 676h172l-131 -676h-171z" />
    <glyph glyph-name="idblgrave" unicode="&#x209;" horiz-adv-x="264" 
d="M-51 648q0 14 11.5 23.5t33.5 9.5h19q56 0 76 -34l69 -113h-66l-109 69q-34 21 -34 45zM136 648q0 14 11.5 23.5t33.5 9.5h19q56 0 76 -34l69 -113h-66l-109 69q-34 21 -34 45zM48 0l93 480h168l-93 -480h-168z" />
    <glyph glyph-name="Iinvertedbreve" unicode="&#x20a;" horiz-adv-x="285" 
d="M215 730h-85q13 67 58.5 107t120.5 40q68 0 100 -41t21 -106h-85q-4 51 -56 51q-51 0 -74 -51zM57 0l130 676h172l-131 -676h-171z" />
    <glyph glyph-name="iinvertedbreve" unicode="&#x20b;" horiz-adv-x="264" 
d="M169 534h-85q13 67 58.5 107t120.5 40q68 0 100 -41t21 -106h-85q-4 51 -56 51q-51 0 -74 -51zM48 0l93 480h168l-93 -480h-168z" />
    <glyph glyph-name="Odblgrave" unicode="&#x20c;" horiz-adv-x="670" 
d="M452 166q33 29 58 122.5t25 153.5q0 103 -92 103q-52 0 -92 -34q-37 -31 -61 -122.5t-24 -155.5q0 -52 20.5 -77t71.5 -25q54 0 94 35zM712 470q0 -107 -41.5 -233t-116.5 -184q-88 -68 -221 -68q-114 0 -179.5 52.5t-65.5 166.5q0 107 40.5 232t113.5 183q91 72 224 72
q114 0 180 -53.5t66 -167.5zM202 844q0 14 11.5 23.5t33.5 9.5h19q56 0 76 -34l69 -113h-66l-109 69q-34 21 -34 45zM389 844q0 14 11.5 23.5t33.5 9.5h19q56 0 76 -34l69 -113h-66l-109 69q-34 21 -34 45z" />
    <glyph glyph-name="odblgrave" unicode="&#x20d;" horiz-adv-x="494" 
d="M271 126q31 0 46 22t27.5 79.5t12.5 88.5q0 38 -41 38q-32 0 -46 -22q-15 -22 -27.5 -79.5t-12.5 -89.5q0 -18 11.5 -27.5t29.5 -9.5zM521 326q2 -72 -23 -154.5t-77 -129.5q-55 -52 -168 -52q-82 0 -133.5 41.5t-54.5 122.5q-2 66 24 154.5t78 131.5q61 50 165 50
q85 0 135.5 -40t53.5 -124zM68 648q0 14 11.5 23.5t33.5 9.5h19q56 0 76 -34l69 -113h-66l-109 69q-34 21 -34 45zM255 648q0 14 11.5 23.5t33.5 9.5h19q56 0 76 -34l69 -113h-66l-109 69q-34 21 -34 45z" />
    <glyph glyph-name="Oinvertedbreve" unicode="&#x20e;" horiz-adv-x="670" 
d="M452 166q33 29 58 122.5t25 153.5q0 103 -92 103q-52 0 -92 -34q-37 -31 -61 -122.5t-24 -155.5q0 -52 20.5 -77t71.5 -25q54 0 94 35zM712 470q0 -107 -41.5 -233t-116.5 -184q-88 -68 -221 -68q-114 0 -179.5 52.5t-65.5 166.5q0 107 40.5 232t113.5 183q91 72 224 72
q114 0 180 -53.5t66 -167.5zM413 730h-85q13 67 58.5 107t120.5 40q68 0 100 -41t21 -106h-85q-4 51 -56 51q-51 0 -74 -51z" />
    <glyph glyph-name="oinvertedbreve" unicode="&#x20f;" horiz-adv-x="494" 
d="M271 126q31 0 46 22t27.5 79.5t12.5 88.5q0 38 -41 38q-32 0 -46 -22q-15 -22 -27.5 -79.5t-12.5 -89.5q0 -18 11.5 -27.5t29.5 -9.5zM521 326q2 -72 -23 -154.5t-77 -129.5q-55 -52 -168 -52q-82 0 -133.5 41.5t-54.5 122.5q-2 66 24 154.5t78 131.5q61 50 165 50
q85 0 135.5 -40t53.5 -124zM276 534h-85q13 67 58.5 107t120.5 40q68 0 100 -41t21 -106h-85q-4 51 -56 51q-51 0 -74 -51z" />
    <glyph glyph-name="Rdblgrave" unicode="&#x210;" horiz-adv-x="583" 
d="M114 844q0 14 11.5 23.5t33.5 9.5h19q56 0 76 -34l69 -113h-66l-109 69q-34 21 -34 45zM301 844q0 14 11.5 23.5t33.5 9.5h19q56 0 76 -34l69 -113h-66l-109 69q-34 21 -34 45zM524 281q-18 -12 -58 -27l100 -254h-179l-89 232h-25l-45 -232h-171l130 676h240
q92 0 146 -46.5t54 -138.5q0 -65 -27 -120.5t-76 -89.5zM418 384q36 28 36 98q0 24 -16 38t-43 14h-63l-33 -170h63q31 0 56 20z" />
    <glyph glyph-name="rdblgrave" unicode="&#x211;" horiz-adv-x="341" 
d="M42 648q0 14 11.5 23.5t33.5 9.5h19q56 0 76 -34l69 -113h-66l-109 69q-34 21 -34 45zM229 648q0 14 11.5 23.5t33.5 9.5h19q56 0 76 -34l69 -113h-66l-109 69q-34 21 -34 45zM409 490h17l-28 -150h-35q-43 0 -67.5 -25.5t-36.5 -91.5l-43 -223h-168l93 480h109l22 -60h6
q41 70 131 70z" />
    <glyph glyph-name="Rinvertedbreve" unicode="&#x212;" horiz-adv-x="583" 
d="M524 281q-18 -12 -58 -27l100 -254h-179l-89 232h-25l-45 -232h-171l130 676h240q92 0 146 -46.5t54 -138.5q0 -65 -27 -120.5t-76 -89.5zM418 384q36 28 36 98q0 24 -16 38t-43 14h-63l-33 -170h63q31 0 56 20zM315 730h-85q13 67 58.5 107t120.5 40q68 0 100 -41
t21 -106h-85q-4 51 -56 51q-51 0 -74 -51z" />
    <glyph glyph-name="rinvertedbreve" unicode="&#x213;" horiz-adv-x="341" 
d="M225 534h-85q13 67 58.5 107t120.5 40q68 0 100 -41t21 -106h-85q-4 51 -56 51q-51 0 -74 -51zM409 490h17l-28 -150h-35q-43 0 -67.5 -25.5t-36.5 -91.5l-43 -223h-168l93 480h109l22 -60h6q41 70 131 70z" />
    <glyph glyph-name="Udblgrave" unicode="&#x214;" horiz-adv-x="621" 
d="M695 676l-90 -462q-22 -112 -99.5 -170.5t-193.5 -58.5q-107 0 -163.5 52t-56.5 142q0 29 6 60l85 437h172l-82 -422q-8 -37 -8 -59q0 -27 18 -45.5t50 -18.5q84 0 105 108l85 437h172zM169 844q0 14 11.5 23.5t33.5 9.5h19q56 0 76 -34l69 -113h-66l-109 69
q-34 21 -34 45zM356 844q0 14 11.5 23.5t33.5 9.5h19q56 0 76 -34l69 -113h-66l-109 69q-34 21 -34 45z" />
    <glyph glyph-name="udblgrave" unicode="&#x215;" horiz-adv-x="518" 
d="M101 648q0 14 11.5 23.5t33.5 9.5h19q56 0 76 -34l69 -113h-66l-109 69q-34 21 -34 45zM288 648q0 14 11.5 23.5t33.5 9.5h19q56 0 76 -34l69 -113h-66l-109 69q-34 21 -34 45zM561 480l-57 -294q-4 -27 0 -38t18 -18l18 -10l-58 -130q-53 0 -92.5 19t-52.5 52h-5
q-51 -71 -129 -71q-59 0 -95 36.5t-36 100.5q0 41 9 85l52 268h168l-56 -287q-4 -20 -4 -33q0 -34 30 -34q53 0 76 116l46 238h168z" />
    <glyph glyph-name="Uinvertedbreve" unicode="&#x216;" horiz-adv-x="621" 
d="M695 676l-90 -462q-22 -112 -99.5 -170.5t-193.5 -58.5q-107 0 -163.5 52t-56.5 142q0 29 6 60l85 437h172l-82 -422q-8 -37 -8 -59q0 -27 18 -45.5t50 -18.5q84 0 105 108l85 437h172zM380 730h-85q13 67 58.5 107t120.5 40q68 0 100 -41t21 -106h-85q-4 51 -56 51
q-51 0 -74 -51z" />
    <glyph glyph-name="uinvertedbreve" unicode="&#x217;" horiz-adv-x="518" 
d="M561 480l-57 -294q-4 -27 0 -38t18 -18l18 -10l-58 -130q-53 0 -92.5 19t-52.5 52h-5q-51 -71 -129 -71q-59 0 -95 36.5t-36 100.5q0 41 9 85l52 268h168l-56 -287q-4 -20 -4 -33q0 -34 30 -34q53 0 76 116l46 238h168zM289 534h-85q13 67 58.5 107t120.5 40
q68 0 100 -41t21 -106h-85q-4 51 -56 51q-51 0 -74 -51z" />
    <glyph glyph-name="Scommaaccent" unicode="&#x218;" horiz-adv-x="549" 
d="M558 204q0 -94 -67 -156.5t-193 -62.5q-73 0 -137.5 20.5t-101.5 45.5l52 131q104 -51 178 -51q43 0 65.5 19t22.5 50q0 34 -59 60l-65 30q-65 31 -96 72t-31 106q0 97 70 160t193 63q54 0 108 -15.5t85 -34.5l-64 -132q-72 36 -131 36q-38 0 -59 -18t-21 -47
q0 -38 42 -57l73 -34q136 -64 136 -185zM377 -134q0 -44 -46 -117q-3 -5 -4 -7l-59 -95l-69 11l41 120v6q-53 20 -53 82q0 43 26.5 66.5t68.5 23.5q43 0 69 -23.5t26 -66.5z" />
    <glyph glyph-name="scommaaccent" unicode="&#x219;" horiz-adv-x="453" 
d="M464 168q0 -83 -55 -130.5t-156 -47.5q-120 0 -212 53l52 127q78 -44 153 -44q45 0 45 23q0 8 -5 11t-23 9l-64 21q-106 35 -106 122t61.5 132.5t157.5 45.5q93 0 169 -37l-55 -129q-62 30 -118 30q-44 0 -44 -24q0 -12 18 -18l61 -19q121 -38 121 -125zM331 -134
q0 -44 -46 -117q-3 -5 -4 -7l-59 -95l-69 11l41 120v6q-53 20 -53 82q0 43 26.5 66.5t68.5 23.5q43 0 69 -23.5t26 -66.5z" />
    <glyph glyph-name="circumflex" unicode="&#x2c6;" horiz-adv-x="447" 
d="M276 687l95 -111l-42 -49l-105 46h-11l-116 -46l-35 49l139 111h75z" />
    <glyph glyph-name="caron" unicode="&#x2c7;" horiz-adv-x="447" 
d="M177 534l-95 111l42 49l105 -46h11l116 46l35 -49l-139 -111h-75z" />
    <glyph glyph-name="breve" unicode="&#x2d8;" horiz-adv-x="470" 
d="M312 681h85q-30 -147 -172 -147q-75 0 -107 40.5t-19 106.5h85q2 -24 13 -37.5t40 -13.5q52 0 75 51z" />
    <glyph glyph-name="dotaccent" unicode="&#x2d9;" horiz-adv-x="470" 
d="M330 614q0 -41 -26 -62.5t-69 -21.5q-42 0 -68.5 21.5t-26.5 62.5q0 42 26 63t69 21t69 -21t26 -63z" />
    <glyph glyph-name="ring" unicode="&#x2da;" horiz-adv-x="470" 
d="M281 637q0 19 -12.5 32t-33.5 13t-33.5 -13t-12.5 -32t12.5 -31.5t33.5 -12.5t33.5 12.5t12.5 31.5zM353 637q0 -47 -30.5 -75t-87.5 -28t-87.5 28t-30.5 75t30.5 75.5t87.5 28.5t87.5 -28.5t30.5 -75.5z" />
    <glyph glyph-name="ogonek" unicode="&#x2db;" horiz-adv-x="470" 
d="M318 -132l3 -73q-39 -11 -87 -11q-55 0 -85 20.5t-30 56.5q0 44 35.5 82t84.5 61h100q-28 -20 -56 -53t-28 -57q0 -28 40 -28z" />
    <glyph glyph-name="tilde" unicode="&#x2dc;" horiz-adv-x="470" 
d="M338 674l52 -31q-4 -18 -9.5 -31.5t-17.5 -33t-33 -30.5t-50 -11q-17 0 -56.5 12.5t-53.5 12.5q-30 0 -49 -29l-52 31q4 18 9.5 31t17.5 33t33 31t50 11q17 0 56 -12.5t53 -12.5q31 0 50 29z" />
    <glyph glyph-name="hungarumlaut" unicode="&#x2dd;" horiz-adv-x="470" 
d="M449 649q0 -10 -6 -19t-13.5 -14t-24.5 -15l-116 -67h-66l88 113q27 34 82 34h17q39 0 39 -32zM262 649q0 -10 -6 -19t-13.5 -14t-24.5 -15l-116 -67h-66l88 113q27 34 82 34h17q39 0 39 -32z" />
    <glyph glyph-name="invertedbreve" unicode="&#x311;" horiz-adv-x="470" 
d="M155 534h-85q13 67 58.5 107t120.5 40q68 0 100 -41t21 -106h-85q-4 51 -56 51q-51 0 -74 -51z" />
    <glyph glyph-name="pi" unicode="&#x3c0;" horiz-adv-x="587" 
d="M76 340l27 140h558l-27 -140h-70l-24 -122q-6 -30 -6 -43q0 -17 8 -25.5t27 -13.5l23 -6l-46 -140h-39q-79 0 -115 27.5t-36 84.5q0 35 11 90l28 148h-81l-66 -340h-168l66 340h-70z" />
    <glyph glyph-name="bahtthai" unicode="&#xe3f;" horiz-adv-x="607" 
d="M412 162q28 26 28 68q0 25 -14.5 40t-41.5 15h-98l-28 -143h97q37 0 57 20zM390 407q30 0 49.5 22t19.5 54q1 23 -12 37t-38 14h-74l-25 -127h80zM613 223q0 -108 -72 -165.5t-187 -57.5h-5l-18 -92h-110l18 92h-179l130 676h180l14 71h110l-15 -73q78 -7 119.5 -47
t41.5 -105q0 -59 -30 -100.5t-87 -58.5l-1 -4q91 -40 91 -136z" />
    <glyph glyph-name="Wgrave" unicode="&#x1e80;" horiz-adv-x="941" 
d="M532 388q-10 -49 -33 -108l-109 -280h-224l-25 676h169l11 -351l-2 -98h15q12 41 23 69l130 333h180l18 -315v-87h13q19 65 30 90l153 359h181l-291 -676h-204l-19 278l-3 110h-13zM399 844q0 33 46 33h42q55 0 75 -34l69 -113h-89l-109 71q-19 13 -26.5 21.5t-7.5 21.5z
" />
    <glyph glyph-name="wgrave" unicode="&#x1e81;" horiz-adv-x="725" 
d="M391 461h108l20 -177l4 -68h12q8 45 18 68l78 196h177l-201 -480h-175l-21 178l-2 59h-11q-7 -35 -19 -59l-89 -178h-165l-22 480h164l3 -196l-2 -68h12q11 45 23 68zM245 648q0 33 46 33h42q55 0 75 -34l69 -113h-89l-109 71q-19 13 -26.5 21.5t-7.5 21.5z" />
    <glyph glyph-name="Wacute" unicode="&#x1e82;" horiz-adv-x="941" 
d="M532 388q-10 -49 -33 -108l-109 -280h-224l-25 676h169l11 -351l-2 -98h15q12 41 23 69l130 333h180l18 -315v-87h13q19 65 30 90l153 359h181l-291 -676h-204l-19 278l-3 110h-13zM792 845q0 -10 -6 -19t-13.5 -14t-24.5 -15l-116 -67h-91l88 113q27 34 82 34h42
q39 0 39 -32z" />
    <glyph glyph-name="wacute" unicode="&#x1e83;" horiz-adv-x="725" 
d="M391 461h108l20 -177l4 -68h12q8 45 18 68l78 196h177l-201 -480h-175l-21 178l-2 59h-11q-7 -35 -19 -59l-89 -178h-165l-22 480h164l3 -196l-2 -68h12q11 45 23 68zM645 649q0 -10 -6 -19t-13.5 -14t-24.5 -15l-116 -67h-91l88 113q27 34 82 34h42q39 0 39 -32z" />
    <glyph glyph-name="Wdieresis" unicode="&#x1e84;" horiz-adv-x="941" 
d="M532 388q-10 -49 -33 -108l-109 -280h-224l-25 676h169l11 -351l-2 -98h15q12 41 23 69l130 333h180l18 -315v-87h13q19 65 30 90l153 359h181l-291 -676h-204l-19 278l-3 110h-13zM576 808q0 -41 -23.5 -62.5t-61.5 -21.5t-61.5 21.5t-23.5 62.5q0 42 23.5 63t61.5 21
q39 0 62 -21t23 -63zM786 808q0 -41 -23.5 -62.5t-61.5 -21.5t-61.5 21.5t-23.5 62.5q0 42 23.5 63t61.5 21q39 0 62 -21t23 -63z" />
    <glyph glyph-name="wdieresis" unicode="&#x1e85;" horiz-adv-x="725" 
d="M391 461h108l20 -177l4 -68h12q8 45 18 68l78 196h177l-201 -480h-175l-21 178l-2 59h-11q-7 -35 -19 -59l-89 -178h-165l-22 480h164l3 -196l-2 -68h12q11 45 23 68zM438 614q0 -41 -23.5 -62.5t-61.5 -21.5t-61.5 21.5t-23.5 62.5q0 42 23.5 63t61.5 21q39 0 62 -21
t23 -63zM648 614q0 -41 -23.5 -62.5t-61.5 -21.5t-61.5 21.5t-23.5 62.5q0 42 23.5 63t61.5 21q39 0 62 -21t23 -63z" />
    <glyph glyph-name="Ygrave" unicode="&#x1ef2;" horiz-adv-x="588" 
d="M709 676l-297 -473l-39 -203h-171l43 222l-104 454h170l42 -188q3 -15 4.5 -35.5t1.5 -33.5v-13h8q15 47 36 82l111 188h195zM225 844q0 33 46 33h42q55 0 75 -34l69 -113h-89l-109 71q-19 13 -26.5 21.5t-7.5 21.5z" />
    <glyph glyph-name="ygrave" unicode="&#x1ef3;" horiz-adv-x="525" 
d="M428 480h180l-225 -549q-36 -87 -96.5 -127t-153.5 -40h-122l27 140h91q39 0 58 10.5t31 40.5l17 45h-68l-64 480h168l25 -218l6 -91h15q6 45 25 92zM163 648q0 33 46 33h42q55 0 75 -34l69 -113h-89l-109 71q-19 13 -26.5 21.5t-7.5 21.5z" />
    <glyph glyph-name="endash" unicode="&#x2013;" horiz-adv-x="499" 
d="M81 190l19 100h410l-19 -100h-410z" />
    <glyph glyph-name="emdash" unicode="&#x2014;" horiz-adv-x="899" 
d="M81 190l19 100h810l-19 -100h-810z" />
    <glyph glyph-name="quoteleft" unicode="&#x2018;" horiz-adv-x="256" 
d="M312 495q0 -42 -25 -66t-65 -24q-41 0 -66.5 24t-25.5 66t46 126l52 93l60 -11l-33 -119v-3q57 -18 57 -86z" />
    <glyph glyph-name="quoteright" unicode="&#x2019;" horiz-adv-x="256" 
d="M156 621q0 42 25 66t65 24q41 0 66.5 -24t25.5 -66t-46 -126l-52 -93l-60 11l33 119v3q-57 18 -57 86z" />
    <glyph glyph-name="quotesinglbase" unicode="&#x201a;" horiz-adv-x="256" 
d="M53 80q0 42 25 66t65 24q41 0 66.5 -24t25.5 -66t-46 -126l-52 -93l-60 11l33 119v3q-57 18 -57 86z" />
    <glyph glyph-name="quotedblleft" unicode="&#x201c;" horiz-adv-x="478" 
d="M314 495q0 -42 -25 -66t-65 -24q-41 0 -66.5 24t-25.5 66t46 126l52 93l60 -11l-33 -119v-3q57 -18 57 -86zM536 495q0 -42 -25 -66t-65 -24q-41 0 -66.5 24t-25.5 66t46 126l52 93l60 -11l-33 -119v-3q57 -18 57 -86z" />
    <glyph glyph-name="quotedblright" unicode="&#x201d;" horiz-adv-x="478" 
d="M156 621q0 42 25 66t65 24q41 0 66.5 -24t25.5 -66t-46 -126l-52 -93l-60 11l33 119v3q-57 18 -57 86zM378 621q0 42 25 66t65 24q41 0 66.5 -24t25.5 -66t-46 -126l-52 -93l-60 11l33 119v3q-57 18 -57 86z" />
    <glyph glyph-name="quotedblbase" unicode="&#x201e;" horiz-adv-x="478" 
d="M53 80q0 42 25 66t65 24q41 0 66.5 -24t25.5 -66t-46 -126l-52 -93l-60 11l33 119v3q-57 18 -57 86zM275 80q0 42 25 66t65 24q41 0 66.5 -24t25.5 -66t-46 -126l-52 -93l-60 11l33 119v3q-57 18 -57 86z" />
    <glyph glyph-name="dagger" unicode="&#x2020;" horiz-adv-x="528" 
d="M111 364l27 140h82l69 -9l11 5l5 75l21 111h140l-21 -111l-26 -75l10 -5l72 9h83l-27 -140h-83l-60 11l-9 -4l-29 -149l-52 -192l-42 -218h-110l42 218l22 192l29 149l-7 4l-65 -11h-82z" />
    <glyph glyph-name="daggerdbl" unicode="&#x2021;" horiz-adv-x="528" 
d="M517 160l-28 -140h-82l-69 9l-11 -5l-4 -75l-22 -111h-140l22 111l25 75l-10 5l-72 -9h-82l27 140h83l60 -11l8 4l43 218l-8 4l-65 -11h-82l28 140h82l69 -9l11 5l4 75l22 111h140l-22 -111l-25 -75l10 -5l72 9h83l-28 -140h-83l-60 11l-8 -4l-43 -218l8 -4l65 11h82z
" />
    <glyph glyph-name="bullet" unicode="&#x2022;" horiz-adv-x="345" 
d="M356 282q0 -62 -37 -96t-93 -34t-92.5 33.5t-36.5 96.5t36 96t93 33q56 0 93 -33.5t37 -95.5z" />
    <glyph glyph-name="ellipsis" unicode="&#x2026;" horiz-adv-x="920" 
d="M279 80q0 -42 -26.5 -66t-68.5 -24t-68.5 24t-26.5 66q0 43 26.5 66.5t68.5 23.5q43 0 69 -23.5t26 -66.5zM571 80q0 -42 -26.5 -66t-68.5 -24t-68.5 24t-26.5 66q0 43 26.5 66.5t68.5 23.5q43 0 69 -23.5t26 -66.5zM863 80q0 -42 -26.5 -66t-68.5 -24t-68.5 24t-26.5 66
q0 43 26.5 66.5t68.5 23.5q43 0 69 -23.5t26 -66.5z" />
    <glyph glyph-name="perthousand" unicode="&#x2030;" horiz-adv-x="1026" 
d="M296 460q12 11 20.5 49t8.5 62q0 31 -27 31q-18 0 -28 -10q-13 -12 -21 -49t-8 -63q0 -29 28 -29q18 0 27 9zM425 587q0 -53 -17.5 -107.5t-52.5 -83.5q-36 -30 -103 -30q-50 0 -80.5 25t-30.5 73q0 52 17 107t50 83q38 33 107 33q50 0 80 -26t30 -74zM615 703h104
l-488 -723h-105zM571 84q12 11 20.5 49t8.5 62q0 31 -27 31q-18 0 -28 -10q-13 -12 -21 -49t-8 -63q0 -29 28 -29q18 0 27 9zM700 211q0 -53 -17.5 -107.5t-52.5 -83.5q-36 -30 -103 -30q-50 0 -80.5 25t-30.5 73q0 52 17 107t50 83q39 33 107 33q50 0 80 -26t30 -74z
M894 84q12 11 20.5 49t8.5 62q0 31 -27 31q-18 0 -28 -10q-13 -12 -21 -49t-8 -63q0 -29 28 -29q18 0 27 9zM1023 211q0 -53 -17.5 -107.5t-52.5 -83.5q-36 -30 -103 -30q-50 0 -80.5 25t-30.5 73q0 52 17 107t50 83q38 33 107 33q50 0 80 -26t30 -74z" />
    <glyph glyph-name="guilsinglleft" unicode="&#x2039;" horiz-adv-x="259" 
d="M199 27l-121 211l121 211h116l-121 -211l121 -211h-116z" />
    <glyph glyph-name="guilsinglright" unicode="&#x203a;" horiz-adv-x="259" 
d="M274 238l-121 -211h-116l121 211l-121 211h116z" />
    <glyph glyph-name="fraction" unicode="&#x2044;" horiz-adv-x="327" 
d="M381 693h110l-413 -713h-111z" />
    <glyph glyph-name="zerosuperior" unicode="&#x2070;" horiz-adv-x="317" 
d="M269 440q14 13 24 60.5t10 76.5t-27 29q-17 0 -27 -10q-14 -12 -23.5 -59t-9.5 -77q0 -29 27 -29q15 0 26 9zM401 586q0 -58 -17.5 -119t-54.5 -91q-39 -30 -103 -30q-49 0 -79.5 26t-30.5 76q0 55 18.5 116.5t52.5 93.5q34 33 106 33q108 0 108 -105z" />
    <glyph glyph-name="foursuperior" unicode="&#x2074;" horiz-adv-x="284" 
d="M87 401l12 70l123 214h158l-41 -209h27l-14 -75h-27l-10 -51h-99l10 51h-139zM240 476l10 50l16 75l-17 4q-18 -54 -28 -71l-32 -58h51z" />
    <glyph glyph-name="fivesuperior" unicode="&#x2075;" horiz-adv-x="250" 
d="M323 488q0 -34 -15 -68.5t-43 -52.5q-32 -21 -80 -21q-53 0 -90 16l25 78q36 -9 52 -9q47 0 47 33q0 22 -32 22q-14 0 -39 -5l-29 16l56 190h161l-17 -85h-83l-9 -31h13q83 0 83 -83z" />
    <glyph glyph-name="sixsuperior" unicode="&#x2076;" horiz-adv-x="303" 
d="M234 431q15 0 26 13t11 32q0 21 -23 21q-17 0 -31 -8q-5 -23 -5 -35q0 -23 22 -23zM371 490q0 -34 -14.5 -66t-41.5 -52q-37 -26 -97 -26q-46 0 -75 26t-29 77q0 62 26 116.5t77 86.5q59 39 149 39v-72q-88 -9 -122 -54l1 -3q22 7 50 7q36 0 56 -20.5t20 -58.5z" />
    <glyph glyph-name="sevensuperior" unicode="&#x2077;" horiz-adv-x="205" 
d="M114 602l17 85h197l-13 -68l-122 -265h-108l127 248h-98z" />
    <glyph glyph-name="eightsuperior" unicode="&#x2078;" horiz-adv-x="301" 
d="M108 430q0 62 70 96v3q-27 23 -27 65q0 43 33 70t96 27q53 0 78.5 -22.5t25.5 -58.5q0 -54 -60 -88v-4l2 -1q37 -31 37 -67q0 -104 -136 -104q-61 0 -90 23t-29 61zM244 475l-8 7h-1q-26 -24 -26 -45q0 -9 6.5 -15t17.5 -6q13 0 22 8.5t9 21.5t-20 29zM245 596
q0 -11 17 -26l5 -4q23 19 23 38q0 17 -20 17q-11 0 -18 -7.5t-7 -17.5z" />
    <glyph glyph-name="ninesuperior" unicode="&#x2079;" horiz-adv-x="304" 
d="M270 606q-15 0 -26 -13t-11 -32q0 -21 23 -21q17 0 31 8q6 18 6 35q0 23 -23 23zM133 547q0 34 14.5 66t41.5 52q37 26 94 26q107 0 107 -111q0 -58 -27 -112t-74 -84q-61 -40 -151 -38v72q87 8 122 54l-1 3q-22 -7 -50 -7q-36 0 -56 20.5t-20 58.5z" />
    <glyph glyph-name="parenleftsuperior" unicode="&#x207d;" horiz-adv-x="188" 
d="M318 721q-97 -152 -97 -283q0 -55 18 -123h-72q-29 68 -29 136q0 131 108 270h72z" />
    <glyph glyph-name="parenrightsuperior" unicode="&#x207e;" horiz-adv-x="187" 
d="M71 315q94 148 94 279q0 66 -16 127h72q28 -70 28 -139q0 -135 -107 -267h-71z" />
    <glyph glyph-name="zeroinferior" unicode="&#x2080;" horiz-adv-x="317" 
d="M191 40q14 13 24 60.5t10 76.5t-27 29q-17 0 -27 -10q-14 -12 -23.5 -59t-9.5 -77q0 -29 27 -29q15 0 26 9zM323 186q0 -58 -17.5 -119t-54.5 -91q-39 -30 -103 -30q-49 0 -79.5 26t-30.5 76q0 55 18.5 116.5t52.5 93.5q34 33 106 33q108 0 108 -105z" />
    <glyph glyph-name="oneinferior" unicode="&#x2081;" horiz-adv-x="211" 
d="M231 287l-65 -337h-100l47 241q1 5 -1.5 7t-7.5 1l-39 -6l-11 48l100 46h77z" />
    <glyph glyph-name="twoinferior" unicode="&#x2082;" horiz-adv-x="270" 
d="M244 35l-17 -85h-211l15 82l110 106q28 25 28 46q0 22 -29 22q-28 0 -60 -13l-10 76q56 22 99 22q52 0 77.5 -26t25.5 -69q0 -59 -55 -112l-34 -32l-23 -17l3 -6q17 6 29 6h52z" />
    <glyph glyph-name="threeinferior" unicode="&#x2083;" horiz-adv-x="253" 
d="M241 62q0 -58 -39.5 -87t-104.5 -29q-43 0 -90 14l23 79q32 -8 59 -8q52 0 52 30q0 18 -26 18h-55l16 85h43q30 0 30 23q0 19 -32 19q-25 0 -43 -5l-5 77q56 13 88 13q96 0 96 -73q0 -64 -54 -86l-1 -3q20 -7 31.5 -26t11.5 -41z" />
    <glyph glyph-name="fourinferior" unicode="&#x2084;" horiz-adv-x="285" 
d="M10 1l12 70l123 214h158l-41 -209h27l-14 -75h-27l-10 -51h-99l10 51h-139zM163 76l10 50l16 75l-17 4q-18 -54 -28 -71l-32 -58h51z" />
    <glyph glyph-name="fiveinferior" unicode="&#x2085;" horiz-adv-x="250" 
d="M245 88q0 -34 -15 -68.5t-43 -52.5q-32 -21 -80 -21q-53 0 -90 16l25 78q36 -9 52 -9q47 0 47 33q0 22 -32 22q-14 0 -39 -5l-29 16l56 190h161l-17 -85h-83l-9 -31h13q83 0 83 -83z" />
    <glyph glyph-name="sixinferior" unicode="&#x2086;" horiz-adv-x="304" 
d="M157 31q15 0 26 13t11 32q0 21 -23 21q-17 0 -31 -8q-5 -23 -5 -35q0 -23 22 -23zM294 90q0 -34 -14.5 -66t-41.5 -52q-37 -26 -97 -26q-46 0 -75 26t-29 77q0 62 26 116.5t77 86.5q59 39 149 39v-72q-88 -9 -122 -54l1 -3q22 7 50 7q36 0 56 -20.5t20 -58.5z" />
    <glyph glyph-name="seveninferior" unicode="&#x2087;" horiz-adv-x="206" 
d="M37 202l17 85h197l-13 -68l-122 -265h-108l127 248h-98z" />
    <glyph glyph-name="eightinferior" unicode="&#x2088;" horiz-adv-x="301" 
d="M30 30q0 62 70 96v3q-27 23 -27 65q0 43 33 70t96 27q53 0 78.5 -22.5t25.5 -58.5q0 -54 -60 -88v-4l2 -1q37 -31 37 -67q0 -104 -136 -104q-61 0 -90 23t-29 61zM166 75l-8 7h-1q-26 -24 -26 -45q0 -9 6.5 -15t17.5 -6q13 0 22 8.5t9 21.5t-20 29zM167 196q0 -11 17 -26
l5 -4q23 19 23 38q0 17 -20 17q-11 0 -18 -7.5t-7 -17.5z" />
    <glyph glyph-name="nineinferior" unicode="&#x2089;" horiz-adv-x="304" 
d="M192 206q-15 0 -26 -13t-11 -32q0 -21 23 -21q17 0 31 8q6 18 6 35q0 23 -23 23zM55 147q0 34 14.5 66t41.5 52q37 26 94 26q107 0 107 -111q0 -58 -27 -112t-74 -84q-61 -40 -151 -38v72q87 8 122 54l-1 3q-22 -7 -50 -7q-36 0 -56 20.5t-20 58.5z" />
    <glyph glyph-name="parenleftinferior" unicode="&#x208d;" horiz-adv-x="188" 
d="M240 321q-97 -152 -97 -283q0 -55 18 -123h-72q-29 68 -29 136q0 131 108 270h72z" />
    <glyph glyph-name="parenrightinferior" unicode="&#x208e;" horiz-adv-x="188" 
d="M-6 -85q94 148 94 279q0 66 -16 127h72q28 -70 28 -139q0 -135 -107 -267h-71z" />
    <glyph glyph-name="colonmonetary" unicode="&#x20a1;" horiz-adv-x="576" 
d="M309 -98l32 83q-21 0 -55 4l-27 -69l-84 32l24 63q-111 55 -111 195q0 98 40.5 226.5t116.5 188.5q81 63 215 66l36 92l84 -33l-26 -66q30 -5 52 -12l24 60l84 -32l-214 -554q5 2 15.5 4.5t15.5 4.5l7 -129q-41 -23 -97 -32l-48 -125zM379 131h18l157 405q-20 4 -54 8
l-158 -410q16 -3 37 -3zM266 239q0 -32 2 -44h4q4 19 7 26l121 314q-25 -7 -46 -24q-39 -32 -63.5 -119t-24.5 -153z" />
    <glyph glyph-name="cruzeiro" unicode="&#x20a2;" horiz-adv-x="567" 
d="M532 155l7 -129q-77 -41 -194 -41q-121 0 -188.5 59t-67.5 166q0 98 40.5 226.5t116.5 188.5q85 66 225 66q96 0 172 -32l-64 -130q-52 16 -112 16q-70 0 -112 -34q-39 -32 -63.5 -119t-24.5 -153q0 -78 57 -100l52 267h89l22 -60h6q41 70 111 70h17l-26 -140h-25
q-42 0 -61.5 -24.5t-32.5 -92.5l-4 -19q32 6 60 15z" />
    <glyph glyph-name="franc" unicode="&#x20a3;" horiz-adv-x="483" 
d="M485 454l-19 -100h-136l-9 -45h136l-20 -100h-136l-40 -209h-172l40 209h-69l19 100h70l9 45h-70l19 100h70l43 222h374l-27 -142h-202l-16 -80h136z" />
    <glyph glyph-name="naira" unicode="&#x20a6;" horiz-adv-x="761" 
d="M401 676l70 -191h123l37 191h172l-37 -191h79l-19 -100h-79l-20 -103h79l-20 -100h-79l-35 -182h-186l-67 182h-122l-35 -182h-171l35 182h-81l20 100h80l20 103h-81l19 100h81l37 191h180zM322 310l-6 -28h66l-10 29l-26 116l-17 -1q-3 -94 -7 -116zM563 249q4 94 8 116
l4 20h-67l18 -47q4 -10 9 -32.5t9 -39.5l3 -18z" />
    <glyph glyph-name="peseta" unicode="&#x20a7;" horiz-adv-x="613" 
d="M81 374l20 100h50l39 202h245q89 0 143 -49.5t54 -139.5v-13h53l-20 -100h-51q-32 -109 -92 -155q-62 -47 -180 -47h-78l-33 -172h-171l72 374h-51zM422 335q10 9 21 39h-140l-11 -60h69q35 0 61 21zM335 534l-12 -60h138v6q0 25 -15.5 39.5t-42.5 14.5h-68z" />
    <glyph glyph-name="rupee" unicode="&#x20a8;" horiz-adv-x="1001" 
d="M507 281q-18 -12 -58 -27l78 -254h-177l-68 232h-26l-45 -232h-171l130 676h240q92 0 146 -46.5t54 -138.5q0 -65 -27 -120.5t-76 -89.5zM401 384q36 28 36 98q0 24 -16 38t-43 14h-63l-33 -170h63q31 0 56 20zM998 168q0 -83 -55 -130.5t-156 -47.5q-120 0 -212 53
l52 127q78 -44 153 -44q45 0 45 23q0 8 -5 11t-23 9l-64 21q-106 35 -106 122t61.5 132.5t157.5 45.5q93 0 169 -37l-55 -129q-62 30 -118 30q-44 0 -44 -24q0 -12 18 -18l61 -19q121 -38 121 -125z" />
    <glyph glyph-name="won" unicode="&#x20a9;" horiz-adv-x="997" 
d="M84 385l19 100h64l-7 191h169l6 -191h114l57 144h180l8 -144h124l82 191h181l-82 -191h66l-19 -100h-90l-45 -103h115l-19 -100h-139l-78 -182h-204l-19 278q-3 38 -3 107h-14q-20 -75 -32 -105l-109 -280h-224l-7 182h-133l19 100h110l-4 103h-86zM353 227q12 41 23 69
l34 89h-72l2 -60l-2 -98h15zM717 227q19 65 30 90l29 68h-76l4 -71v-87h13z" />
    <glyph glyph-name="sheqel" unicode="&#x20aa;" horiz-adv-x="881" 
d="M654 186h-148l16 81q8 42 -5.5 59.5t-61.5 17.5h-181l-67 -344h-167l92 480h352q100 0 148.5 -26t48.5 -101q0 -29 -7 -63zM766 480h168l-56 -290q-12 -60 -34.5 -98.5t-58 -58t-75 -26.5t-96.5 -7h-352l57 294h148l-31 -158h181q44 0 66 15t31 62z" />
    <glyph glyph-name="Euro" unicode="&#x20ac;" horiz-adv-x="585" 
d="M71 354l37 100h83q39 114 113 171q85 66 225 66q99 0 170 -32l-64 -130q-49 16 -108 16q-74 0 -114 -32q-26 -20 -43 -59h216l-37 -100h-211l-8 -40h204l-36 -99h-174q0 -47 32 -65.5t95 -18.5q50 0 137 24l7 -129q-80 -41 -188 -41q-52 0 -96.5 12t-82.5 37t-60 71.5
t-23 109.5h-91l36 99h65l8 40h-92z" />
    <glyph glyph-name="litre" unicode="&#x2113;" horiz-adv-x="523" 
d="M74 126l-40 103l111 54l41 213q15 79 73 136t164 57q84 0 125.5 -39.5t41.5 -111.5q0 -109 -53 -176.5t-169 -115.5l-68 -28q-6 -47 9.5 -67.5t64.5 -20.5h40l-38 -140h-81q-87 0 -126.5 45t-39.5 113zM353 490l-17 -87l-11 -29l2 -3l13 7q77 42 77 134q0 31 -22 31
q-17 0 -26.5 -12t-15.5 -41z" />
    <glyph glyph-name="trademark" unicode="&#x2122;" horiz-adv-x="847" 
d="M415 626h-88v-264h-98v264h-88v85h274v-85zM749 516l-52 -113h-64l-53 113l-15 46h-12q4 -37 4 -52v-148h-100v349h126l78 -175h8l78 175h124v-349h-98v148l3 52h-12q-10 -35 -15 -46z" />
    <glyph glyph-name="Omega" unicode="&#x2126;" horiz-adv-x="698" 
d="M400 0l50 253q123 31 123 201q0 91 -121 91q-56 0 -93 -21t-58 -73.5t-21 -101.5q0 -39 13 -60t54 -36l-50 -253h-258l28 142h123l4 23q-85 56 -85 165q0 86 33.5 173t106.5 131q95 57 233 57q41 0 77 -5.5t71.5 -20t61 -36.5t41.5 -58t16 -83q0 -82 -26.5 -161
t-82.5 -123q-22 -17 -71 -39l-4 -23h122l-28 -142h-259z" />
    <glyph glyph-name="estimated" unicode="&#x212e;" horiz-adv-x="851" 
d="M735 347v190q0 13 -10 23q-98 98 -234 98q-138 0 -236 -101q-10 -10 -10 -24v-186q0 -5 5 -5h480q5 0 5 5zM876 322h-626q-5 0 -5 -4v-189q0 -13 9 -22q96 -102 237 -102q73 0 137.5 30.5t110.5 83.5h57q-53 -63 -133.5 -99t-172.5 -36q-160 0 -273.5 101.5t-113.5 245.5
t113.5 246t273.5 102t273 -102t113 -246v-9z" />
    <glyph glyph-name="onethird" unicode="&#x2153;" horiz-adv-x="602" 
d="M463 693h110l-413 -713h-111zM245 676l-65 -337h-100l47 241q1 5 -1.5 7t-7.5 1l-39 -6l-11 48l100 46h77zM584 112q0 -58 -39.5 -87t-104.5 -29q-43 0 -90 14l23 79q32 -8 59 -8q52 0 52 30q0 18 -26 18h-55l16 85h43q30 0 30 23q0 19 -32 19q-26 0 -43 -5l-5 77
q56 13 88 13q96 0 96 -73q0 -64 -54 -86l-1 -3q20 -7 31.5 -26t11.5 -41z" />
    <glyph glyph-name="twothirds" unicode="&#x2154;" horiz-adv-x="719" 
d="M577 693h110l-413 -713h-111zM334 424l-17 -85h-211l15 82l110 106q28 25 28 46q0 22 -29 22q-28 0 -60 -13l-10 76q56 22 99 22q52 0 77.5 -26t25.5 -69q0 -59 -55 -112l-34 -32l-23 -17l3 -6q17 6 29 6h52zM701 112q0 -58 -39.5 -87t-104.5 -29q-43 0 -90 14l23 79
q32 -8 59 -8q52 0 52 30q0 18 -26 18h-55l16 85h43q30 0 30 23q0 19 -32 19q-25 0 -43 -5l-5 77q56 13 88 13q96 0 96 -73q0 -64 -54 -86l-1 -3q20 -7 31.5 -26t11.5 -41z" />
    <glyph glyph-name="oneeighth" unicode="&#x215b;" horiz-adv-x="624" 
d="M463 693h110l-413 -713h-111zM245 676l-65 -337h-100l47 241q1 5 -1.5 7t-7.5 1l-39 -6l-11 48l100 46h77zM348 80q0 62 70 96v3q-27 23 -27 65q0 43 33 70t96 27q53 0 78.5 -22.5t25.5 -58.5q0 -54 -60 -88v-4l2 -1q37 -31 37 -67q0 -104 -136 -104q-61 0 -90 23t-29 61
zM484 125l-8 7h-1q-26 -24 -26 -45q0 -9 6.5 -15t17.5 -6q13 0 22 8.5t9 21.5t-20 29zM485 246q0 -11 17 -26l5 -4q23 19 23 38q0 17 -20 17q-11 0 -18 -7.5t-7 -17.5z" />
    <glyph glyph-name="threeeighths" unicode="&#x215c;" horiz-adv-x="710" 
d="M434 80q0 62 70 96v3q-27 23 -27 65q0 43 33 70t96 27q53 0 78.5 -22.5t25.5 -58.5q0 -54 -60 -88v-4l2 -1q37 -31 37 -67q0 -104 -136 -104q-61 0 -90 23t-29 61zM570 125l-8 7h-1q-26 -24 -26 -45q0 -9 6.5 -15t17.5 -6q13 0 22 8.5t9 21.5t-20 29zM571 246
q0 -11 17 -26l5 -4q23 19 23 38q0 17 -20 17q-11 0 -18 -7.5t-7 -17.5zM549 693h110l-413 -713h-111zM321 451q0 -58 -39.5 -87t-104.5 -29q-43 0 -90 14l23 79q32 -8 59 -8q52 0 52 30q0 18 -26 18h-55l16 85h43q30 0 30 23q0 19 -32 19q-25 0 -43 -5l-5 77q56 13 88 13
q96 0 96 -73q0 -64 -54 -86l-1 -3q20 -7 31.5 -26t11.5 -41z" />
    <glyph glyph-name="fiveeighths" unicode="&#x215d;" horiz-adv-x="715" 
d="M336 477q0 -34 -15 -68.5t-43 -52.5q-32 -21 -80 -21q-53 0 -90 16l25 78q36 -9 52 -9q47 0 47 33q0 22 -32 22q-14 0 -39 -5l-29 16l56 190h161l-17 -85h-83l-9 -31h13q83 0 83 -83zM554 693h110l-413 -713h-111zM439 80q0 62 70 96v3q-27 23 -27 65q0 43 33 70t96 27
q53 0 78.5 -22.5t25.5 -58.5q0 -54 -60 -88v-4l2 -1q37 -31 37 -67q0 -104 -136 -104q-61 0 -90 23t-29 61zM575 125l-8 7h-1q-26 -24 -26 -45q0 -9 6.5 -15t17.5 -6q13 0 22 8.5t9 21.5t-20 29zM576 246q0 -11 17 -26l5 -4q23 19 23 38q0 17 -20 17q-11 0 -18 -7.5
t-7 -17.5z" />
    <glyph glyph-name="seveneighths" unicode="&#x215e;" horiz-adv-x="591" 
d="M70 591l17 85h197l-13 -68l-122 -265h-108l127 248h-98zM430 693h110l-413 -713h-111zM315 80q0 62 70 96v3q-27 23 -27 65q0 43 33 70t96 27q53 0 78.5 -22.5t25.5 -58.5q0 -54 -60 -88v-4l2 -1q37 -31 37 -67q0 -104 -136 -104q-61 0 -90 23t-29 61zM451 125l-8 7h-1
q-26 -24 -26 -45q0 -9 6.5 -15t17.5 -6q13 0 22 8.5t9 21.5t-20 29zM452 246q0 -11 17 -26l5 -4q23 19 23 38q0 17 -20 17q-11 0 -18 -7.5t-7 -17.5z" />
    <glyph glyph-name="partialdiff" unicode="&#x2202;" horiz-adv-x="499" 
d="M275 126q33 0 46 22q14 25 27 81.5t13 86.5q0 38 -41 38q-31 0 -44 -23q-15 -26 -28.5 -82t-13.5 -86q0 -18 11.5 -27.5t29.5 -9.5zM540 405q0 -102 -27 -204.5t-89 -158.5q-58 -52 -175 -52q-84 0 -134.5 37.5t-50.5 119.5q0 69 28 160t82 136q56 47 134 47q28 0 61 -12
l2 2q-5 52 -36 91t-91 72q3 6 9 16t17.5 31.5t19.5 35.5l8 14q135 -45 188.5 -127.5t53.5 -207.5z" />
    <glyph glyph-name="Delta" unicode="&#x2206;" horiz-adv-x="613" 
d="M29 0l20 106l302 570h159l94 -570l-20 -106h-555zM349 347l-95 -193l-3 -12h178l3 11l-31 194l-3 96h-12q-31 -85 -37 -96z" />
    <glyph glyph-name="product" unicode="&#x220f;" horiz-adv-x="674" 
d="M429 0l104 534h-190l-104 -534h-172l131 676h534l-131 -676h-172z" />
    <glyph glyph-name="summation" unicode="&#x2211;" horiz-adv-x="484" 
d="M19 0l251 365l-140 311h443l-27 -142h-182l-2 -5q13 -11 21 -29l68 -150l-119 -173l-30 -30l2 -5h188l-27 -142h-446z" />
    <glyph glyph-name="minus" unicode="&#x2212;" horiz-adv-x="499" 
d="M81 190l19 100h410l-19 -100h-410z" />
    <glyph glyph-name="radical" unicode="&#x221a;" horiz-adv-x="516" 
d="M57 245l19 100h169l18 -134l4 -83h14q17 61 25 83l184 485h116l-273 -716h-149l-35 265h-92z" />
    <glyph glyph-name="infinity" unicode="&#x221e;" horiz-adv-x="653" 
d="M557 406q154 0 122 -166q-33 -167 -187 -167q-51 0 -82 16t-53 59h-4q-39 -44 -76 -59.5t-89 -15.5q-153 0 -122 166q33 167 187 167q51 0 81.5 -16.5t53.5 -59.5h4q41 45 77.5 60.5t87.5 15.5zM537 306q-27 0 -45.5 -9t-40.5 -35l-20 -23l11 -22q12 -25 28 -34.5
t42 -9.5q54 0 67 67q12 66 -42 66zM208 173q47 0 86 44l19 22l-10 22q-13 26 -28.5 35.5t-41.5 9.5q-54 0 -67 -67q-12 -66 42 -66z" />
    <glyph glyph-name="integral" unicode="&#x222b;" horiz-adv-x="252" 
d="M40 -77l101 633q14 83 52.5 119t113.5 36q16 0 36 -2t33 -4l12 -2l-24 -105q-26 3 -49 3q-46 0 -53 -49l-101 -633q-14 -83 -52 -119t-112 -36q-16 0 -35.5 2t-31.5 4l-12 2l22 105q26 -3 49 -3q44 0 51 49z" />
    <glyph glyph-name="approxequal" unicode="&#x2248;" horiz-adv-x="499" 
d="M494 208l-19 -100q-35 -22 -57 -31t-51 -9q-33 0 -97.5 40t-96.5 40q-29 0 -51 -9t-57 -31l19 100q35 22 57 31t51 9q32 0 97 -40t98 -40q44 0 107 40zM526 371l-19 -100q-35 -22 -57 -31t-51 -9q-33 0 -98 40t-97 40q-44 0 -107 -40l19 100q35 22 57 31t51 9
q32 0 97 -40t97 -40q29 0 51 9t57 31z" />
    <glyph glyph-name="notequal" unicode="&#x2260;" 
d="M426 448h116l-68 -75h53l-19 -100h-124l-60 -66h171l-19 -100h-241l-68 -75h-116l68 75h-53l19 100h123l60 66h-170l19 100h241z" />
    <glyph glyph-name="lessequal" unicode="&#x2264;" 
d="M471 100l-20 -100h-406l19 100h407zM496 224l-22 -109l-366 212l14 72l448 210l-24 -127l-265 -124l-2 -10z" />
    <glyph glyph-name="greaterequal" unicode="&#x2265;" 
d="M48 0l19 100h407l-20 -100h-406zM70 115l25 128l265 124l2 10l-217 124l21 108l366 -210l-14 -72z" />
    <glyph glyph-name="lozenge" unicode="&#x25ca;" horiz-adv-x="538" 
d="M574 341l-253 -341h-76l-149 342l261 344h65zM321 181l129 173l-65 147l-9 34h-5q-7 -20 -18 -34l-133 -174l65 -147l10 -32h4q12 19 22 33z" />
    <glyph glyph-name="zero.tb" unicode="&#xf639;" 
d="M212 136q27 0 45 22q27 33 50.5 147.5t23.5 172.5q0 32 -9.5 47t-35.5 15t-44 -22q-27 -33 -50.5 -147.5t-23.5 -172.5q0 -62 44 -62zM499 500q0 -67 -13.5 -149.5t-47.5 -170.5t-82 -130q-67 -60 -169 -60q-92 0 -139 46.5t-47 137.5q0 112 36.5 247t102.5 200t174 65
q185 0 185 -186z" />
    <glyph glyph-name="two.tb" unicode="&#xf63a;" 
d="M412 142l-27 -142h-404l24 125l235 244q21 22 32 35t23.5 36t12.5 43q0 57 -69 57q-50 0 -114 -32l-42 124q95 54 198 54q97 0 147.5 -51.5t50.5 -132.5q0 -112 -108 -222l-97 -99q-8 -8 -21.5 -18.5t-22.5 -16.5l-10 -6l3 -10q56 12 81 12h108z" />
    <glyph glyph-name="three.tb" unicode="&#xf63b;" 
d="M426 236q0 -44 -15 -86t-45 -78.5t-82.5 -59t-119.5 -22.5q-91 0 -188 34l40 133q56 -21 127 -21q115 0 115 99q0 52 -72 52h-86l25 132h69q39 0 61 19t22 52q0 50 -66 50q-16 0 -33.5 -2.5t-29 -5t-25 -6t-15.5 -3.5l-22 127q97 36 188 36q88 0 134 -42t46 -106
q0 -108 -105 -164v-5q36 -16 56.5 -52.5t20.5 -80.5z" />
    <glyph glyph-name="four.tb" unicode="&#xf63c;" 
d="M-21 119l26 133l209 419h265l-82 -420h65l-26 -132h-65l-23 -119h-168l23 119h-224zM229 251l21 109l29 115l-23 7q-29 -77 -45 -110l-59 -121h77z" />
    <glyph glyph-name="five.tb" unicode="&#xf63d;" 
d="M432 277q0 -77 -27 -144.5t-81 -104.5q-57 -39 -152 -39q-93 0 -177 32l35 134q72 -20 121 -20q107 0 107 96q0 57 -70 57q-27 0 -80 -12l-53 31l102 364h304l-28 -142h-153l-26 -95h13q75 0 120 -41t45 -116z" />
    <glyph glyph-name="six.tb" unicode="&#xf63e;" 
d="M211 136q24 0 40 16q13 13 20.5 44t7.5 57q0 42 -36 42q-25 0 -51 -15q-14 -49 -14 -99q0 -45 33 -45zM452 287q0 -69 -28 -139.5t-80 -110.5q-62 -47 -158 -47q-82 0 -128 52t-46 142q0 102 48 222.5t129 185.5q107 85 258 94l9 -125q-159 -37 -214 -127l4 -5
q30 12 69 12q62 0 99.5 -41.5t37.5 -112.5z" />
    <glyph glyph-name="seven.tb" unicode="&#xf63f;" 
d="M64 529l28 142h420l-19 -97l-239 -574h-187l251 529h-254z" />
    <glyph glyph-name="eight.tb" unicode="&#xf640;" 
d="M489 527q0 -61 -27.5 -101.5t-91.5 -84.5l5 -4q69 -64 69 -143q0 -86 -60.5 -145t-184.5 -59q-105 0 -152.5 48t-47.5 120q0 59 31 106.5t100 93.5v1q-53 50 -53 125q0 92 64 147t168 55q84 0 132 -44.5t48 -114.5zM246 255l-21 18q-58 -49 -58 -97q0 -19 12.5 -32.5
t33.5 -13.5q27 0 45 18t18 46q0 35 -30 61zM255 445l18 -17q33 26 44 41t11 37q0 40 -39 40q-26 0 -40.5 -17.5t-14.5 -41.5q0 -23 21 -42z" />
    <glyph glyph-name="nine.tb" unicode="&#xf641;" 
d="M293 540q-24 0 -39 -17q-13 -14 -21 -44.5t-8 -55.5q0 -42 36 -42q25 0 51 15q15 52 15 99q0 45 -34 45zM55 392q0 70 26 139t78 109q61 46 160 46q83 0 128.5 -48t45.5 -137q0 -97 -40 -222.5t-119 -194.5q-108 -94 -266 -94l-19 125q87 12 137 39.5t79 87.5l-4 5
q-32 -12 -70 -12q-61 0 -98.5 42.5t-37.5 114.5z" />
    <glyph glyph-name="zero.ot" unicode="&#xf643;" 
d="M281 153q23 21 36 64t13 82q0 65 -58 65q-31 0 -51 -17q-49 -42 -49 -145q0 -66 59 -66q31 0 50 17zM498 316q0 -83 -32 -160.5t-95 -120.5q-65 -45 -168 -45q-86 0 -143 49.5t-57 140.5q0 81 31.5 158.5t92.5 122.5q66 49 173 49q90 0 144 -50t54 -144z" />
    <glyph glyph-name="one.ot" unicode="&#xf644;" 
d="M405 510l-72 -368h118l-27 -142h-422l26 142h137l37 189q2 9 -2 13t-13 3l-93 -16l-17 88l212 91h116z" />
    <glyph glyph-name="two.ot" unicode="&#xf645;" 
d="M422 142l-28 -142h-394l23 122l210 142q44 29 44 61q0 39 -64 39q-42 0 -100 -22l-29 131q79 37 173 37q96 0 144.5 -46.5t48.5 -116.5q0 -111 -115 -173l-27 -15l-44 -15l3 -14q66 12 80 12h75z" />
    <glyph glyph-name="three.ot" unicode="&#xf646;" 
d="M404 66q0 -44 -15 -84t-45 -74.5t-82 -55t-120 -20.5q-91 0 -188 34l40 133q56 -21 127 -21q56 0 85.5 19.5t29.5 67.5q0 52 -72 52h-86l25 132h69q83 0 83 65q0 50 -66 50q-16 0 -33.5 -2.5t-29 -5t-25 -6t-15.5 -3.5l-22 127q97 36 188 36q88 0 134 -42t46 -106
q0 -106 -105 -158v-5q36 -16 56.5 -52.5t20.5 -80.5z" />
    <glyph glyph-name="four.ot" unicode="&#xf647;" 
d="M-20 0l23 124l217 376h260l-72 -368h65l-26 -132h-65l-30 -154h-168l30 154h-234zM240 132l21 109l24 92l-18 5q-21 -53 -38 -85l-65 -121h76z" />
    <glyph glyph-name="five.ot" unicode="&#xf648;" 
d="M436 116q0 -76 -27 -142t-81 -103q-57 -39 -152 -39q-101 0 -185 32l35 134q72 -20 129 -20q107 0 107 92q0 28 -21 42.5t-57 14.5q-27 0 -80 -12l-53 31l99 354h312l-28 -142h-161l-23 -85h21q75 0 120 -41t45 -116z" />
    <glyph glyph-name="six.ot" unicode="&#xf649;" 
d="M232 128q24 0 39 15q24 26 24 78q0 42 -36 42q-24 0 -50 -15q-10 -38 -10 -75q0 -45 33 -45zM464 255q0 -150 -99 -226q-62 -47 -158 -47q-82 0 -128 52t-46 142q0 105 43.5 211.5t133.5 170.5q107 76 254 84l9 -125q-73 -15 -126.5 -40t-86.5 -75l4 -5q28 12 67 12
q61 0 97 -41t36 -113z" />
    <glyph glyph-name="seven.ot" unicode="&#xf64a;" 
d="M53 358l28 142h431l-19 -97l-275 -561h-187l277 516h-255z" />
    <glyph glyph-name="eight.ot" unicode="&#xf64b;" 
d="M10 151q0 109 125 190q-49 51 -49 118q0 88 66 139.5t165 51.5q81 0 133.5 -40t52.5 -107q0 -107 -114 -177v-1q73 -58 73 -144q0 -79 -65.5 -135t-188.5 -56q-102 0 -150 47.5t-48 113.5zM261 241l-27 20q-56 -43 -56 -87q0 -18 12 -31t37 -13q28 0 47.5 15.5t19.5 42.5
q0 29 -33 53zM243 462q0 -23 24 -41l20 -16q55 35 55 71q0 15 -10.5 24.5t-31.5 9.5q-28 0 -42.5 -14t-14.5 -34z" />
    <glyph glyph-name="nine.ot" unicode="&#xf64c;" 
d="M267 364q-24 0 -39 -17q-11 -12 -18.5 -37t-7.5 -47q0 -42 36 -42q25 0 51 15q12 46 12 83q0 45 -34 45zM32 232q0 67 25.5 130t75.5 102q61 46 160 46q83 0 128.5 -48t45.5 -137q0 -93 -39 -212t-116 -187q-108 -94 -267 -94l-19 125q84 12 136.5 40.5t79.5 84.5l-4 5
q-32 -12 -70 -12q-61 0 -98.5 42.5t-37.5 114.5z" />
    <glyph glyph-name="zero.denominator" unicode="&#xf655;" horiz-adv-x="317" 
d="M201 90q14 13 24 60.5t10 76.5t-27 29q-17 0 -27 -10q-14 -12 -23.5 -59t-9.5 -77q0 -29 27 -29q15 0 26 9zM333 236q0 -58 -17.5 -119t-54.5 -91q-39 -30 -103 -30q-49 0 -79.5 26t-30.5 76q0 55 18.5 116.5t52.5 93.5q34 33 106 33q108 0 108 -105z" />
    <glyph glyph-name="one.denominator" unicode="&#xf656;" horiz-adv-x="211" 
d="M241 337l-65 -337h-100l47 241q1 5 -1.5 7t-7.5 1l-39 -6l-11 48l100 46h77z" />
    <glyph glyph-name="two.denominator" unicode="&#xf657;" horiz-adv-x="271" 
d="M254 85l-17 -85h-211l15 82l110 106q28 25 28 46q0 22 -29 22q-28 0 -60 -13l-10 76q56 22 99 22q52 0 77.5 -26t25.5 -69q0 -59 -55 -112l-34 -32l-23 -17l3 -6q17 6 29 6h52z" />
    <glyph glyph-name="three.denominator" unicode="&#xf658;" horiz-adv-x="253" 
d="M250 112q0 -58 -39.5 -87t-104.5 -29q-43 0 -90 14l23 79q32 -8 59 -8q52 0 52 30q0 18 -26 18h-55l16 85h43q30 0 30 23q0 19 -32 19q-26 0 -43 -5l-5 77q56 13 88 13q96 0 96 -73q0 -64 -54 -86l-1 -3q20 -7 31.5 -26t11.5 -41z" />
    <glyph glyph-name="four.denominator" unicode="&#xf659;" horiz-adv-x="284" 
d="M19 51l12 70l123 214h158l-41 -209h27l-14 -75h-27l-10 -51h-99l10 51h-139zM172 126l10 50l16 75l-17 4q-18 -54 -28 -71l-32 -58h51z" />
    <glyph glyph-name="five.denominator" unicode="&#xf65a;" horiz-adv-x="250" 
d="M255 138q0 -34 -15 -68.5t-43 -52.5q-32 -21 -80 -21q-53 0 -90 16l25 78q36 -9 52 -9q47 0 47 33q0 22 -32 22q-14 0 -39 -5l-29 16l56 190h161l-17 -85h-83l-9 -31h13q83 0 83 -83z" />
    <glyph glyph-name="six.denominator" unicode="&#xf65b;" horiz-adv-x="303" 
d="M166 81q15 0 26 13t11 32q0 21 -23 21q-17 0 -31 -8q-5 -23 -5 -35q0 -23 22 -23zM303 140q0 -34 -14.5 -66t-41.5 -52q-37 -26 -97 -26q-46 0 -75 26t-29 77q0 62 26 116.5t77 86.5q59 39 149 39v-72q-88 -9 -122 -54l1 -3q22 7 50 7q36 0 56 -20.5t20 -58.5z" />
    <glyph glyph-name="seven.denominator" unicode="&#xf65c;" horiz-adv-x="205" 
d="M46 252l17 85h197l-13 -68l-122 -265h-108l127 248h-98z" />
    <glyph glyph-name="eight.denominator" unicode="&#xf65d;" horiz-adv-x="301" 
d="M40 80q0 62 70 96v3q-27 23 -27 65q0 43 33 70t96 27q53 0 78.5 -22.5t25.5 -58.5q0 -54 -60 -88v-4l2 -1q37 -31 37 -67q0 -104 -136 -104q-61 0 -90 23t-29 61zM176 125l-8 7h-1q-26 -24 -26 -45q0 -9 6.5 -15t17.5 -6q13 0 22 8.5t9 21.5t-20 29zM177 246
q0 -11 17 -26l5 -4q23 19 23 38q0 17 -20 17q-11 0 -18 -7.5t-7 -17.5z" />
    <glyph glyph-name="nine.denominator" unicode="&#xf65e;" horiz-adv-x="304" 
d="M202 256q-15 0 -26 -13t-11 -32q0 -21 23 -21q17 0 31 8q6 18 6 35q0 23 -23 23zM65 197q0 34 14.5 66t41.5 52q37 26 94 26q107 0 107 -111q0 -58 -27 -112t-74 -84q-61 -40 -151 -38v72q87 8 122 54l-1 3q-22 -7 -50 -7q-36 0 -56 20.5t-20 58.5z" />
    <glyph glyph-name="zero.numerator" unicode="&#xf661;" horiz-adv-x="317" 
d="M267 429q14 13 24 60.5t10 76.5t-27 29q-17 0 -27 -10q-14 -12 -23.5 -59t-9.5 -77q0 -29 27 -29q15 0 26 9zM399 575q0 -58 -17.5 -119t-54.5 -91q-39 -30 -103 -30q-49 0 -79.5 26t-30.5 76q0 55 18.5 116.5t52.5 93.5q34 33 106 33q108 0 108 -105z" />
    <glyph glyph-name="one.numerator" unicode="&#xf662;" horiz-adv-x="210" 
d="M306 676l-65 -337h-100l47 241q1 5 -1.5 7t-7.5 1l-39 -6l-11 48l100 46h77z" />
    <glyph glyph-name="two.numerator" unicode="&#xf663;" horiz-adv-x="270" 
d="M319 424l-17 -85h-211l15 82l110 106q28 25 28 46q0 22 -29 22q-27 0 -60 -13l-10 76q56 22 99 22q52 0 77.5 -26t25.5 -69q0 -59 -55 -112l-34 -32l-23 -17l3 -6q17 6 29 6h52z" />
    <glyph glyph-name="three.numerator" unicode="&#xf664;" horiz-adv-x="253" 
d="M316 451q0 -58 -39.5 -87t-104.5 -29q-43 0 -90 14l23 79q32 -8 59 -8q52 0 52 30q0 18 -26 18h-55l16 85h43q30 0 30 23q0 19 -32 19q-26 0 -43 -5l-5 77q56 13 88 13q96 0 96 -73q0 -64 -54 -86l-1 -3q20 -7 31.5 -26t11.5 -41z" />
    <glyph glyph-name="four.numerator" unicode="&#xf665;" horiz-adv-x="284" 
d="M85 390l12 70l123 214h158l-41 -209h27l-14 -75h-27l-10 -51h-99l10 51h-139zM238 465l10 50l16 75l-17 4q-18 -54 -28 -71l-32 -58h51z" />
    <glyph glyph-name="five.numerator" unicode="&#xf666;" horiz-adv-x="250" 
d="M321 477q0 -34 -15 -68.5t-43 -52.5q-32 -21 -80 -21q-53 0 -90 16l25 78q36 -9 52 -9q47 0 47 33q0 22 -32 22q-14 0 -39 -5l-29 16l56 190h161l-17 -85h-83l-9 -31h13q83 0 83 -83z" />
    <glyph glyph-name="six.numerator" unicode="&#xf667;" horiz-adv-x="303" 
d="M232 420q15 0 26 13t11 32q0 21 -23 21q-17 0 -31 -8q-5 -22 -5 -35q0 -23 22 -23zM369 479q0 -34 -14.5 -66t-41.5 -52q-37 -26 -97 -26q-46 0 -75 26t-29 77q0 62 26 116.5t77 86.5q59 39 149 39v-72q-88 -9 -122 -54l1 -3q22 7 50 7q36 0 56 -20.5t20 -58.5z" />
    <glyph glyph-name="seven.numerator" unicode="&#xf668;" horiz-adv-x="205" 
d="M112 591l17 85h197l-13 -68l-122 -265h-108l127 248h-98z" />
    <glyph glyph-name="eight.numerator" unicode="&#xf669;" horiz-adv-x="301" 
d="M106 419q0 62 70 96v3q-27 23 -27 65q0 43 33 70t96 27q53 0 78.5 -22.5t25.5 -58.5q0 -54 -60 -88v-4l2 -1q37 -31 37 -67q0 -104 -136 -104q-61 0 -90 23t-29 61zM242 464l-8 7h-1q-26 -24 -26 -45q0 -9 6.5 -15t17.5 -6q13 0 22 8.5t9 21.5t-20 29zM243 585
q0 -11 17 -26l5 -4q23 19 23 38q0 17 -20 17q-11 0 -18 -7.5t-7 -17.5z" />
    <glyph glyph-name="nine.numerator" unicode="&#xf66a;" horiz-adv-x="304" 
d="M268 595q-15 0 -26 -13t-11 -32q0 -21 23 -21q17 0 31 8q6 18 6 35q0 23 -23 23zM131 536q0 34 14.5 66t41.5 52q37 26 94 26q107 0 107 -111q0 -58 -27 -112t-74 -84q-61 -40 -151 -38v72q87 8 122 54l-1 3q-22 -7 -50 -7q-36 0 -56 20.5t-20 58.5z" />
    <glyph glyph-name="Abreve.sc" unicode="&#xf66d;" horiz-adv-x="595" 
d="M417 0l-9 76h-183l-35 -76h-180l246 520h258l71 -520h-168zM338 314l-46 -98h96l-12 95l-4 63h-12q-15 -45 -22 -60zM468 709h85q-30 -147 -172 -147q-75 0 -107 40.5t-19 106.5h85q2 -24 13 -37.5t40 -13.5q52 0 75 51z" />
    <glyph glyph-name="Amacron.sc" unicode="&#xf66e;" horiz-adv-x="595" 
d="M417 0l-9 76h-183l-35 -76h-180l246 520h258l71 -520h-168zM338 314l-46 -98h96l-12 95l-4 63h-12q-15 -45 -22 -60zM536 669l-19 -96h-254l19 96h254z" />
    <glyph glyph-name="Aogonek.sc" unicode="&#xf66f;" horiz-adv-x="595" 
d="M417 0l-9 76h-183l-35 -76h-180l246 520h258l71 -520q-29 -20 -56.5 -51t-27.5 -55q0 -28 40 -28l23 2l3 -73q-39 -11 -87 -11q-55 0 -85 20.5t-30 56.5q0 41 31 76.5t77 59.5v3h-56zM338 314l-46 -98h96l-12 95l-4 63h-12q-15 -45 -22 -60z" />
    <glyph glyph-name="Cacute.sc" unicode="&#xf671;" horiz-adv-x="429" 
d="M421 138l13 -123q-65 -25 -146 -25q-217 0 -217 196q0 81 36 168t97 129q68 47 177 47q58 0 119 -17l-40 -128q-36 9 -68 9q-57 0 -87 -22q-31 -22 -45.5 -65.5t-14.5 -90.5q0 -90 91 -90q39 0 85 12zM562 678q0 -10 -6 -19t-13.5 -14t-24.5 -15l-116 -67h-91l88 113
q27 34 82 34h42q39 0 39 -32z" />
    <glyph glyph-name="Ccaron.sc" unicode="&#xf672;" horiz-adv-x="429" 
d="M421 138l13 -123q-65 -25 -146 -25q-217 0 -217 196q0 81 36 168t97 129q68 47 177 47q58 0 119 -17l-40 -128q-36 9 -68 9q-57 0 -87 -22q-31 -22 -45.5 -65.5t-14.5 -90.5q0 -90 91 -90q39 0 85 12zM325 563l-95 111l42 49l105 -46h11l116 46l35 -49l-139 -111h-75z
" />
    <glyph glyph-name="Ccircumflex.sc" unicode="&#xf673;" horiz-adv-x="429" 
d="M421 138l13 -123q-65 -25 -146 -25q-217 0 -217 196q0 81 36 168t97 129q68 47 177 47q58 0 119 -17l-40 -128q-36 9 -68 9q-57 0 -87 -22q-31 -22 -45.5 -65.5t-14.5 -90.5q0 -90 91 -90q39 0 85 12zM428 722l95 -111l-42 -49l-105 46h-11l-116 -46l-35 49l139 111h75z
" />
    <glyph glyph-name="Cdotaccent.sc" unicode="&#xf674;" horiz-adv-x="429" 
d="M421 138l13 -123q-65 -25 -146 -25q-217 0 -217 196q0 81 36 168t97 129q68 47 177 47q58 0 119 -17l-40 -128q-36 9 -68 9q-57 0 -87 -22q-31 -22 -45.5 -65.5t-14.5 -90.5q0 -90 91 -90q39 0 85 12zM471 642q0 -41 -26 -62.5t-69 -21.5q-42 0 -68.5 21.5t-26.5 62.5
q0 42 26 63t69 21t69 -21t26 -63z" />
    <glyph glyph-name="Dcaron.sc" unicode="&#xf675;" horiz-adv-x="539" 
d="M349 157q21 20 34 67.5t13 87.5q0 72 -69 72h-35l-49 -248h49q36 0 57 21zM566 323q0 -83 -25.5 -160t-81.5 -119q-57 -44 -182 -44h-227l100 520h201q105 0 160 -50.5t55 -146.5zM290 563l-95 111l42 49l105 -46h11l116 46l35 -49l-139 -111h-75z" />
    <glyph glyph-name="Dmacron.sc" unicode="&#xf676;" horiz-adv-x="539" 
d="M39 204l22 115h50l39 201h201q105 0 160 -50.5t55 -146.5q0 -83 -25.5 -160t-81.5 -119q-57 -44 -182 -44h-227l39 204h-50zM349 157q21 20 34 67.5t13 87.5q0 72 -69 72h-35l-13 -65h60l-22 -115h-61l-13 -68h49q36 0 57 21z" />
    <glyph glyph-name="Ebreve.sc" unicode="&#xf677;" horiz-adv-x="423" 
d="M50 0l100 520h344l-27 -140h-176l-12 -60h112l-22 -115h-112l-13 -65h196l-27 -140h-363zM406 709h85q-30 -147 -172 -147q-75 0 -107 40.5t-19 106.5h85q2 -24 13 -37.5t40 -13.5q52 0 75 51z" />
    <glyph glyph-name="Ecaron.sc" unicode="&#xf678;" horiz-adv-x="423" 
d="M50 0l100 520h344l-27 -140h-176l-12 -60h112l-22 -115h-112l-13 -65h196l-27 -140h-363zM288 563l-95 111l42 49l105 -46h11l116 46l35 -49l-139 -111h-75z" />
    <glyph glyph-name="Edotaccent.sc" unicode="&#xf679;" horiz-adv-x="423" 
d="M50 0l100 520h344l-27 -140h-176l-12 -60h112l-22 -115h-112l-13 -65h196l-27 -140h-363zM424 642q0 -41 -26 -62.5t-69 -21.5q-42 0 -68.5 21.5t-26.5 62.5q0 42 26 63t69 21t69 -21t26 -63z" />
    <glyph glyph-name="Emacron.sc" unicode="&#xf67a;" horiz-adv-x="423" 
d="M50 0l100 520h344l-27 -140h-176l-12 -60h112l-22 -115h-112l-13 -65h196l-27 -140h-363zM474 669l-19 -96h-254l19 96h254z" />
    <glyph glyph-name="Eogonek.sc" unicode="&#xf67c;" horiz-adv-x="423" 
d="M50 0l100 520h344l-27 -140h-176l-12 -60h112l-22 -115h-112l-13 -65h196l-27 -140q-28 -18 -56 -50t-28 -56q0 -28 40 -28l23 2l3 -73q-39 -11 -87 -11q-55 0 -85 20.5t-30 56.5q0 42 31.5 77.5t78.5 59.5v2h-253z" />
    <glyph glyph-name="Gbreve.sc" unicode="&#xf67d;" horiz-adv-x="539" 
d="M317 126q26 0 50 8l13 66h-64l19 102h232l-51 -264q-100 -48 -218 -48q-108 0 -168.5 47.5t-60.5 148.5q0 76 35.5 164t95.5 131q72 51 194 51q82 0 165 -24l-41 -127q-70 15 -113 15q-73 0 -109 -33q-25 -24 -40.5 -72t-15.5 -88q0 -77 77 -77zM476 710h85
q-30 -147 -172 -147q-75 0 -107 40.5t-19 106.5h85q2 -24 13 -37.5t40 -13.5q52 0 75 51z" />
    <glyph glyph-name="Gcircumflex.sc" unicode="&#xf67e;" horiz-adv-x="539" 
d="M317 126q26 0 50 8l13 66h-64l19 102h232l-51 -264q-100 -48 -218 -48q-108 0 -168.5 47.5t-60.5 148.5q0 76 35.5 164t95.5 131q72 51 194 51q82 0 165 -24l-41 -127q-70 15 -113 15q-73 0 -109 -33q-25 -24 -40.5 -72t-15.5 -88q0 -77 77 -77zM451 721l95 -111l-42 -49
l-105 46h-11l-116 -46l-35 49l139 111h75z" />
    <glyph glyph-name="Gcommaaccent.sc" unicode="&#xf67f;" horiz-adv-x="539" 
d="M317 126q26 0 50 8l13 66h-64l19 102h232l-51 -264q-100 -48 -218 -48q-108 0 -168.5 47.5t-60.5 148.5q0 76 35.5 164t95.5 131q72 51 194 51q82 0 165 -24l-41 -127q-70 15 -113 15q-73 0 -109 -33q-25 -24 -40.5 -72t-15.5 -88q0 -77 77 -77zM369 -134q0 -44 -46 -117
q-3 -5 -4 -7l-59 -95l-69 11l41 120v6q-53 20 -53 82q0 43 26.5 66.5t68.5 23.5q43 0 69 -23.5t26 -66.5z" />
    <glyph glyph-name="Gdotaccent.sc" unicode="&#xf680;" horiz-adv-x="539" 
d="M317 126q26 0 50 8l13 66h-64l19 102h232l-51 -264q-100 -48 -218 -48q-108 0 -168.5 47.5t-60.5 148.5q0 76 35.5 164t95.5 131q72 51 194 51q82 0 165 -24l-41 -127q-70 15 -113 15q-73 0 -109 -33q-25 -24 -40.5 -72t-15.5 -88q0 -77 77 -77zM490 642q0 -41 -26 -62.5
t-69 -21.5q-42 0 -68.5 21.5t-26.5 62.5q0 42 26 63t69 21t69 -21t26 -63z" />
    <glyph glyph-name="Hcircumflex.sc" unicode="&#xf682;" horiz-adv-x="579" 
d="M361 0l38 194h-144l-38 -194h-167l100 520h168l-36 -186h144l36 186h168l-101 -520h-168zM461 723l95 -111l-42 -49l-105 46h-11l-116 -46l-35 49l139 111h75z" />
    <glyph glyph-name="Imacron.sc" unicode="&#xf685;" horiz-adv-x="267" 
d="M387 668l-19 -96h-254l19 96h254zM50 0l100 520h168l-101 -520h-167z" />
    <glyph glyph-name="Iogonek.sc" unicode="&#xf686;" horiz-adv-x="267" 
d="M50 0l100 520h168l-101 -520q-29 -20 -56.5 -51t-27.5 -55q0 -28 40 -28l23 2l3 -73q-39 -11 -87 -11q-55 0 -85 20.5t-30 56.5q0 41 31.5 77t76.5 60v2h-55z" />
    <glyph glyph-name="Jcircumflex.sc" unicode="&#xf688;" horiz-adv-x="292" 
d="M324 718l95 -111l-42 -49l-105 46h-11l-116 -46l-35 49l139 111h75zM343 520l-66 -339q-19 -103 -71 -147t-167 -44h-31l26 136q36 0 53.5 16.5t26.5 61.5l61 316h168z" />
    <glyph glyph-name="Kcommaaccent.sc" unicode="&#xf689;" horiz-adv-x="567" 
d="M374 0l-95 219h-19l-43 -219h-167l100 520h168l-40 -207h18l152 207h192l-200 -264l113 -256h-179zM379 -134q0 -44 -46 -117q-3 -5 -4 -7l-59 -95l-69 11l41 120v6q-53 20 -53 82q0 43 26.5 66.5t68.5 23.5q43 0 69 -23.5t26 -66.5z" />
    <glyph glyph-name="Lacute.sc" unicode="&#xf68a;" horiz-adv-x="378" 
d="M50 0l100 520h168l-74 -380h151l-27 -140h-318zM422 678q0 -10 -6 -19t-13.5 -14t-24.5 -15l-116 -67h-91l88 113q27 34 82 34h42q39 0 39 -32z" />
    <glyph glyph-name="Lcaron.sc" unicode="&#xf68b;" horiz-adv-x="453" 
d="M50 0l100 520h168l-74 -380h151l-27 -140h-318zM361 454q0 37 23 59t58 22q37 0 60 -21.5t23 -59.5q0 -37 -41 -114l-47 -83l-54 10l30 107v2q-52 16 -52 78z" />
    <glyph glyph-name="Lcommaaccent.sc" unicode="&#xf68c;" horiz-adv-x="378" 
d="M50 0l100 520h168l-74 -380h151l-27 -140h-318zM301 -134q0 -44 -46 -117q-3 -5 -4 -7l-59 -95l-69 11l41 120v6q-53 20 -53 82q0 43 26.5 66.5t68.5 23.5q43 0 69 -23.5t26 -66.5z" />
    <glyph glyph-name="Ldot.sc" unicode="&#xf68d;" horiz-adv-x="409" 
d="M50 0l100 520h168l-74 -380h151l-27 -140h-318zM485 292q0 -41 -26 -62.5t-69 -21.5q-42 0 -68.5 21.5t-26.5 62.5q0 42 26 63t69 21t69 -21t26 -63z" />
    <glyph glyph-name="Nacute.sc" unicode="&#xf68e;" horiz-adv-x="631" 
d="M355 520l78 -248l15 -71h11q5 60 9 84l46 235h168l-100 -520h-212l-72 228q-4 14 -8 36t-6 37l-2 15h-12q-6 -73 -11 -98l-42 -218h-167l100 520h205zM634 678q0 -10 -6 -19t-13.5 -14t-24.5 -15l-116 -67h-91l88 113q27 34 82 34h42q39 0 39 -32z" />
    <glyph glyph-name="Ncaron.sc" unicode="&#xf68f;" horiz-adv-x="631" 
d="M355 520l78 -248l15 -71h11q5 60 9 84l46 235h168l-100 -520h-212l-72 228q-4 14 -8 36t-6 37l-2 15h-12q-6 -73 -11 -98l-42 -218h-167l100 520h205zM395 563l-95 111l42 49l105 -46h11l116 46l35 -49l-139 -111h-75z" />
    <glyph glyph-name="Ncommaaccent.sc" unicode="&#xf690;" horiz-adv-x="631" 
d="M355 520l78 -248l15 -71h11q5 60 9 84l46 235h168l-100 -520h-212l-72 228q-4 14 -8 36t-6 37l-2 15h-12q-6 -73 -11 -98l-42 -218h-167l100 520h205zM418 -134q0 -44 -46 -117q-3 -5 -4 -7l-59 -95l-69 11l41 120v6q-53 20 -53 82q0 43 26.5 66.5t68.5 23.5
q43 0 69 -23.5t26 -66.5z" />
    <glyph glyph-name="Obreve.sc" unicode="&#xf691;" horiz-adv-x="589" 
d="M389 150q23 20 40.5 71.5t17.5 90.5q0 42 -17 62t-59 20q-43 0 -69 -22q-24 -21 -42 -72.5t-18 -92.5t17.5 -61t58.5 -20q43 0 71 24zM618 334q0 -79 -37 -167.5t-97 -127.5q-75 -49 -193 -49q-221 0 -221 196q0 77 36 164t94 128q75 52 196 52q222 0 222 -196zM488 710
h85q-30 -147 -172 -147q-75 0 -107 40.5t-19 106.5h85q2 -24 13 -37.5t40 -13.5q52 0 75 51z" />
    <glyph glyph-name="Ohungarumlaut.sc" unicode="&#xf692;" horiz-adv-x="589" 
d="M389 150q23 20 40.5 71.5t17.5 90.5q0 42 -17 62t-59 20q-43 0 -69 -22q-24 -21 -42 -72.5t-18 -92.5t17.5 -61t58.5 -20q43 0 71 24zM618 334q0 -79 -37 -167.5t-97 -127.5q-75 -49 -193 -49q-221 0 -221 196q0 77 36 164t94 128q75 52 196 52q222 0 222 -196zM691 678
q0 -10 -6 -19t-13.5 -14t-24.5 -15l-116 -67h-66l88 113q27 34 82 34h17q39 0 39 -32zM504 678q0 -10 -6 -19t-13.5 -14t-24.5 -15l-116 -67h-66l88 113q27 34 82 34h17q39 0 39 -32z" />
    <glyph glyph-name="Omacron.sc" unicode="&#xf693;" horiz-adv-x="589" 
d="M389 150q23 20 40.5 71.5t17.5 90.5q0 42 -17 62t-59 20q-43 0 -69 -22q-24 -21 -42 -72.5t-18 -92.5t17.5 -61t58.5 -20q43 0 71 24zM618 334q0 -79 -37 -167.5t-97 -127.5q-75 -49 -193 -49q-221 0 -221 196q0 77 36 164t94 128q75 52 196 52q222 0 222 -196zM538 669
l-19 -96h-254l19 96h254z" />
    <glyph glyph-name="Oslashacute.sc" unicode="&#xf694;" horiz-adv-x="589" 
d="M606 678q0 -10 -6 -19t-13.5 -14t-24.5 -15l-116 -67h-91l88 113q27 34 82 34h42q39 0 39 -32zM54 29l44 44q-28 45 -28 113q0 77 36 164t94 128q75 52 201 52q82 0 134 -26l46 46l61 -58l-44 -43q30 -47 30 -115q0 -79 -37 -167.5t-97 -127.5q-75 -49 -198 -49
q-82 0 -134 26l-46 -46zM399 150q19 17 35 58t21 80l4 19l-2 1l-177 -175q17 -7 43 -7q48 0 76 24zM302 372q-39 -33 -57 -128l-6 -27l3 -2l174 172q-15 7 -40 7q-48 0 -74 -22z" />
    <glyph glyph-name="Racute.sc" unicode="&#xf695;" horiz-adv-x="524" 
d="M332 0l-61 157h-24l-30 -157h-167l100 520h241q79 0 122.5 -38.5t43.5 -107.5q0 -140 -119 -195l71 -179h-177zM270 272h53q28 0 44.5 20.5t16.5 50.5q0 41 -39 41h-53zM528 678q0 -10 -6 -19t-13.5 -14t-24.5 -15l-116 -67h-91l88 113q27 34 82 34h42q39 0 39 -32z" />
    <glyph glyph-name="Rcaron.sc" unicode="&#xf696;" horiz-adv-x="524" 
d="M332 0l-61 157h-24l-30 -157h-167l100 520h241q79 0 122.5 -38.5t43.5 -107.5q0 -140 -119 -195l71 -179h-177zM270 272h53q28 0 44.5 20.5t16.5 50.5q0 41 -39 41h-53zM297 563l-95 111l42 49l105 -46h11l116 46l35 -49l-139 -111h-75z" />
    <glyph glyph-name="Rcommaaccent.sc" unicode="&#xf697;" horiz-adv-x="524" 
d="M332 0l-61 157h-24l-30 -157h-167l100 520h241q79 0 122.5 -38.5t43.5 -107.5q0 -140 -119 -195l71 -179h-177zM270 272h53q28 0 44.5 20.5t16.5 50.5q0 41 -39 41h-53zM368 -134q0 -44 -46 -117q-3 -5 -4 -7l-59 -95l-69 11l41 120v6q-53 20 -53 82q0 43 26.5 66.5
t68.5 23.5q43 0 69 -23.5t26 -66.5z" />
    <glyph glyph-name="Sacute.sc" unicode="&#xf698;" horiz-adv-x="457" 
d="M466 169q0 -81 -56.5 -130t-159.5 -49q-114 0 -207 39l42 129q85 -32 147 -32q65 0 65 34q0 11 -6 16.5t-27 15.5l-52 21q-113 46 -113 137q0 83 60.5 131.5t164.5 48.5q86 0 168 -37l-54 -124q-57 25 -109 25q-61 0 -61 -36q0 -16 23 -27l59 -23q116 -44 116 -139z
M509 679q0 -10 -6 -19t-13.5 -14t-24.5 -15l-116 -67h-91l88 113q27 34 82 34h42q39 0 39 -32z" />
    <glyph glyph-name="Scedilla.sc" unicode="&#xf699;" horiz-adv-x="457" 
d="M350 -110q0 -54 -36 -80t-96 -26q-25 0 -54 2.5t-46 5.5l-17 2l18 61q48 -5 74 -5q42 0 42 32q0 19 -31 19h-59l37 93q-77 9 -139 35l42 129q85 -32 147 -32q65 0 65 34q0 11 -6 16.5t-27 15.5l-52 21q-113 46 -113 137q0 83 60.5 131.5t164.5 48.5q86 0 168 -37
l-54 -124q-57 25 -109 25q-61 0 -61 -36q0 -16 23 -27l59 -23q116 -44 116 -139q0 -77 -51 -125t-144 -53l-11 -38h10q80 0 80 -63z" />
    <glyph glyph-name="Scircumflex.sc" unicode="&#xf69a;" horiz-adv-x="457" 
d="M466 169q0 -81 -56.5 -130t-159.5 -49q-114 0 -207 39l42 129q85 -32 147 -32q65 0 65 34q0 11 -6 16.5t-27 15.5l-52 21q-113 46 -113 137q0 83 60.5 131.5t164.5 48.5q86 0 168 -37l-54 -124q-57 25 -109 25q-61 0 -61 -36q0 -16 23 -27l59 -23q116 -44 116 -139z
M380 723l95 -111l-42 -49l-105 46h-11l-116 -46l-35 49l139 111h75z" />
    <glyph glyph-name="Scommaaccent.sc" unicode="&#xf69b;" horiz-adv-x="457" 
d="M466 169q0 -81 -56.5 -130t-159.5 -49q-114 0 -207 39l42 129q85 -32 147 -32q65 0 65 34q0 11 -6 16.5t-27 15.5l-52 21q-113 46 -113 137q0 83 60.5 131.5t164.5 48.5q86 0 168 -37l-54 -124q-57 25 -109 25q-61 0 -61 -36q0 -16 23 -27l59 -23q116 -44 116 -139z
M343 -134q0 -44 -46 -117q-3 -5 -4 -7l-59 -95l-69 11l41 120v6q-53 20 -53 82q0 43 26.5 66.5t68.5 23.5q43 0 69 -23.5t26 -66.5z" />
    <glyph glyph-name="Tcaron.sc" unicode="&#xf69d;" horiz-adv-x="417" 
d="M481 380h-115l-74 -380h-168l74 380h-115l27 140h398zM266 563l-95 111l42 49l105 -46h11l116 46l35 -49l-139 -111h-75z" />
    <glyph glyph-name="Tcommaaccent.sc" unicode="&#xf69e;" horiz-adv-x="417" 
d="M481 380h-115l-74 -380h-168l74 380h-115l27 140h398zM293 -134q0 -44 -46 -117q-3 -5 -4 -7l-59 -95l-69 11l41 120v6q-53 20 -53 82q0 43 26.5 66.5t68.5 23.5q43 0 69 -23.5t26 -66.5z" />
    <glyph glyph-name="Ubreve.sc" unicode="&#xf69f;" horiz-adv-x="554" 
d="M605 520l-65 -335q-18 -92 -83.5 -143.5t-179.5 -51.5q-97 0 -147 42t-50 110q0 38 14 109l52 269h168l-62 -317q-8 -40 6.5 -58.5t43.5 -18.5q58 0 73 77l62 317h168zM474 710h85q-30 -147 -172 -147q-75 0 -107 40.5t-19 106.5h85q2 -24 13 -37.5t40 -13.5q52 0 75 51z
" />
    <glyph glyph-name="Uhungarumlaut.sc" unicode="&#xf6a0;" horiz-adv-x="554" 
d="M605 520l-65 -335q-18 -92 -83.5 -143.5t-179.5 -51.5q-97 0 -147 42t-50 110q0 38 14 109l52 269h168l-62 -317q-8 -40 6.5 -58.5t43.5 -18.5q58 0 73 77l62 317h168zM651 678q0 -10 -6 -19t-13.5 -14t-24.5 -15l-116 -67h-66l88 113q27 34 82 34h17q39 0 39 -32z
M464 678q0 -10 -6 -19t-13.5 -14t-24.5 -15l-116 -67h-66l88 113q27 34 82 34h17q39 0 39 -32z" />
    <glyph glyph-name="Umacron.sc" unicode="&#xf6a1;" horiz-adv-x="554" 
d="M605 520l-65 -335q-18 -92 -83.5 -143.5t-179.5 -51.5q-97 0 -147 42t-50 110q0 38 14 109l52 269h168l-62 -317q-8 -40 6.5 -58.5t43.5 -18.5q58 0 73 77l62 317h168zM527 669l-19 -96h-254l19 96h254z" />
    <glyph glyph-name="Uogonek.sc" unicode="&#xf6a2;" horiz-adv-x="554" 
d="M359 -132l3 -73q-39 -11 -87 -11q-55 0 -85 20.5t-30 56.5q0 37 26 70.5t66 57.5v2q-85 6 -128.5 47t-43.5 104q0 38 14 109l52 269h168l-62 -317q-8 -40 6.5 -58.5t43.5 -18.5q58 0 73 77l62 317h168l-65 -335q-29 -143 -162 -182q-28 -20 -55 -52.5t-27 -56.5
q0 -28 40 -28z" />
    <glyph glyph-name="Uring.sc" unicode="&#xf6a3;" horiz-adv-x="554" 
d="M605 520l-65 -335q-18 -92 -83.5 -143.5t-179.5 -51.5q-97 0 -147 42t-50 110q0 38 14 109l52 269h168l-62 -317q-8 -40 6.5 -58.5t43.5 -18.5q58 0 73 77l62 317h168zM432 666q0 19 -12.5 32t-33.5 13t-33.5 -13t-12.5 -32t12.5 -31.5t33.5 -12.5t33.5 12.5t12.5 31.5z
M504 666q0 -47 -30.5 -75t-87.5 -28t-87.5 28t-30.5 75t30.5 75.5t87.5 28.5t87.5 -28.5t30.5 -75.5z" />
    <glyph glyph-name="Utilde.sc" unicode="&#xf6a4;" horiz-adv-x="554" 
d="M605 520l-65 -335q-18 -92 -83.5 -143.5t-179.5 -51.5q-97 0 -147 42t-50 110q0 38 14 109l52 269h168l-62 -317q-8 -40 6.5 -58.5t43.5 -18.5q58 0 73 77l62 317h168zM500 703l52 -31q-4 -18 -9.5 -31.5t-17.5 -33t-33 -30.5t-50 -11q-17 0 -56.5 12.5t-53.5 12.5
q-30 0 -49 -29l-52 31q4 18 9.5 31t17.5 33t33 31t50 11q17 0 56 -12.5t53 -12.5q31 0 50 29z" />
    <glyph glyph-name="Wacute.sc" unicode="&#xf6a5;" horiz-adv-x="851" 
d="M490 288h-10q-12 -51 -21 -73l-90 -215h-244l-14 520h165l8 -282l-3 -64h12q8 36 16 58l107 252h200l17 -252l-1 -58h11q11 45 17 64l108 282h174l-196 -520h-243l-14 215zM719 678q0 -10 -6 -19t-13.5 -14t-24.5 -15l-116 -67h-91l88 113q27 34 82 34h42q39 0 39 -32z
" />
    <glyph glyph-name="Wcircumflex.sc" unicode="&#xf6a6;" horiz-adv-x="851" 
d="M490 288h-10q-12 -51 -21 -73l-90 -215h-244l-14 520h165l8 -282l-3 -64h12q8 36 16 58l107 252h200l17 -252l-1 -58h11q11 45 17 64l108 282h174l-196 -520h-243l-14 215zM588 721l95 -111l-42 -49l-105 46h-11l-116 -46l-35 49l139 111h75z" />
    <glyph glyph-name="Wdieresis.sc" unicode="&#xf6a7;" horiz-adv-x="851" 
d="M490 288h-10q-12 -51 -21 -73l-90 -215h-244l-14 520h165l8 -282l-3 -64h12q8 36 16 58l107 252h200l17 -252l-1 -58h11q11 45 17 64l108 282h174l-196 -520h-243l-14 215zM514 642q0 -41 -23.5 -62.5t-61.5 -21.5t-61.5 21.5t-23.5 62.5q0 42 23.5 63t61.5 21
q39 0 62 -21t23 -63zM724 642q0 -41 -23.5 -62.5t-61.5 -21.5t-61.5 21.5t-23.5 62.5q0 42 23.5 63t61.5 21q39 0 62 -21t23 -63z" />
    <glyph glyph-name="Wgrave.sc" unicode="&#xf6a8;" horiz-adv-x="851" 
d="M490 288h-10q-12 -51 -21 -73l-90 -215h-244l-14 520h165l8 -282l-3 -64h12q8 36 16 58l107 252h200l17 -252l-1 -58h11q11 45 17 64l108 282h174l-196 -520h-243l-14 215zM347 677q0 33 46 33h42q55 0 75 -34l69 -113h-89l-109 71q-19 13 -26.5 21.5t-7.5 21.5z" />
    <glyph glyph-name="Ycircumflex.sc" unicode="&#xf6a9;" horiz-adv-x="536" 
d="M627 520l-247 -364l-30 -156h-168l32 169l-103 351h166l34 -120l9 -65h8q19 49 29 65l77 120h193zM426 722l95 -111l-42 -49l-105 46h-11l-116 -46l-35 49l139 111h75z" />
    <glyph glyph-name="Ygrave.sc" unicode="&#xf6aa;" horiz-adv-x="536" 
d="M627 520l-247 -364l-30 -156h-168l32 169l-103 351h166l34 -120l9 -65h8q19 49 29 65l77 120h193zM176 677q0 33 46 33h42q55 0 75 -34l69 -113h-89l-109 71q-19 13 -26.5 21.5t-7.5 21.5z" />
    <glyph glyph-name="Zacute.sc" unicode="&#xf6ab;" horiz-adv-x="426" 
d="M407 0h-397l204 332q8 12 17 22.5t15 15.5l5 4l-1 6h-154l27 140h393l-209 -334q-6 -10 -15 -20t-14 -15l-6 -5l2 -6h160zM521 677q0 -10 -6 -19t-13.5 -14t-24.5 -15l-116 -67h-91l88 113q27 34 82 34h42q39 0 39 -32z" />
    <glyph glyph-name="Zdotaccent.sc" unicode="&#xf6ac;" horiz-adv-x="426" 
d="M407 0h-397l204 332q8 12 17 22.5t15 15.5l5 4l-1 6h-154l27 140h393l-209 -334q-6 -10 -15 -20t-14 -15l-6 -5l2 -6h160zM424 642q0 -41 -26 -62.5t-69 -21.5q-42 0 -68.5 21.5t-26.5 62.5q0 42 26 63t69 21t69 -21t26 -63z" />
    <glyph glyph-name="Idotaccent.sc" unicode="&#xf6ad;" horiz-adv-x="267" 
d="M342 642q0 -41 -26 -62.5t-69 -21.5q-42 0 -68.5 21.5t-26.5 62.5q0 42 26 63t69 21t69 -21t26 -63zM50 0l100 520h168l-101 -520h-167z" />
    <glyph glyph-name="Germandbls.sc" unicode="&#xf6be;" horiz-adv-x="929" 
d="M928 169q0 -81 -56.5 -130t-159.5 -49q-114 0 -207 39l42 129q85 -32 147 -32q65 0 65 34q0 11 -6 16.5t-27 15.5l-52 21q-113 46 -113 137q0 83 60.5 131.5t164.5 48.5q86 0 168 -37l-54 -124q-57 25 -109 25q-61 0 -61 -36q0 -16 23 -27l59 -23q116 -44 116 -139z
M466 169q0 -81 -56.5 -130t-159.5 -49q-114 0 -207 39l42 129q85 -32 147 -32q65 0 65 34q0 11 -6 16.5t-27 15.5l-52 21q-113 46 -113 137q0 83 60.5 131.5t164.5 48.5q86 0 168 -37l-54 -124q-57 25 -109 25q-61 0 -61 -36q0 -16 23 -27l59 -23q116 -44 116 -139z" />
    <glyph glyph-name="commaaccent" unicode="&#xf6c3;" horiz-adv-x="470" 
d="M324 -134q0 -44 -46 -117q-3 -5 -4 -7l-59 -95l-69 11l41 120v6q-53 20 -53 82q0 43 26.5 66.5t68.5 23.5q43 0 69 -23.5t26 -66.5z" />
    <glyph glyph-name="dblgrave" unicode="&#xf6d6;" horiz-adv-x="470" 
d="M27 648q0 14 11.5 23.5t33.5 9.5h19q56 0 76 -34l69 -113h-66l-109 69q-34 21 -34 45zM214 648q0 14 11.5 23.5t33.5 9.5h19q56 0 76 -34l69 -113h-66l-109 69q-34 21 -34 45z" />
    <glyph glyph-name="one.tb" unicode="&#xf6dc;" 
d="M428 676l-104 -534h118l-27 -142h-422l26 142h137l69 355q2 9 -2 13t-13 3l-93 -16l-17 88l212 91h116z" />
    <glyph glyph-name="rupiah" unicode="&#xf6dd;" horiz-adv-x="1054" 
d="M507 281q-18 -12 -58 -27l78 -254h-177l-68 232h-26l-45 -232h-171l130 676h240q92 0 146 -46.5t54 -138.5q0 -65 -27 -120.5t-76 -89.5zM401 384q36 28 36 98q0 24 -16 38t-43 14h-63l-33 -170h63q31 0 56 20zM857 145q20 24 32.5 72t12.5 83q0 55 -41 55
q-24 0 -42.5 -23.5t-26.5 -67.5l-23 -120q21 -19 44 -19q28 0 44 20zM812 423h6q50 67 129 67q127 0 127 -148q0 -77 -22 -157t-66 -134q-51 -61 -134 -61q-60 0 -107 33l-48 -250h-167l136 707h126z" />
    <glyph glyph-name="Lslash.sc" unicode="&#xf6f9;" horiz-adv-x="378" 
d="M260 227l-17 -87h151l-27 -140h-318l21 107l11 37l-3 2q-8 -8 -21 -14l-36 -17v116l80 37l48 252h168l-28 -144l-10 -25l5 -2q7 9 25 17l65 31v-116z" />
    <glyph glyph-name="OE.sc" unicode="&#xf6fa;" horiz-adv-x="741" 
d="M389 150q23 20 40.5 71.5t17.5 90.5q0 42 -17 62t-59 20q-43 0 -69 -22q-24 -21 -42 -72.5t-18 -92.5t17.5 -61t58.5 -20q43 0 71 24zM618 334q0 -3 -0.5 -7.5t-0.5 -6.5h102l-22 -115h-102q-11 -36 -25 -63l2 -2h186l-27 -140h-339q-44 -10 -101 -10q-221 0 -221 196
q0 77 36 164t94 128q75 52 196 52q46 0 89 -10h327l-27 -140h-168l-2 -2q3 -21 3 -44z" />
    <glyph glyph-name="Scaron.sc" unicode="&#xf6fd;" horiz-adv-x="457" 
d="M466 169q0 -81 -56.5 -130t-159.5 -49q-114 0 -207 39l42 129q85 -32 147 -32q65 0 65 34q0 11 -6 16.5t-27 15.5l-52 21q-113 46 -113 137q0 83 60.5 131.5t164.5 48.5q86 0 168 -37l-54 -124q-57 25 -109 25q-61 0 -61 -36q0 -16 23 -27l59 -23q116 -44 116 -139z
M275 563l-95 111l42 49l105 -46h11l116 46l35 -49l-139 -111h-75z" />
    <glyph glyph-name="Zcaron.sc" unicode="&#xf6ff;" horiz-adv-x="426" 
d="M407 0h-397l204 332q8 12 17 22.5t15 15.5l5 4l-1 6h-154l27 140h393l-209 -334q-6 -10 -15 -20t-14 -15l-6 -5l2 -6h160zM289 563l-95 111l42 49l105 -46h11l116 46l35 -49l-139 -111h-75z" />
    <glyph glyph-name="exclam.sc" unicode="&#xf721;" horiz-adv-x="271" 
d="M300 427l-64 -181h-107l6 203q3 83 100 83q78 0 78 -50q0 -19 -13 -55zM246 80q0 -42 -26.5 -66t-68.5 -24t-68.5 24t-26.5 66q0 43 26.5 66.5t68.5 23.5q43 0 69 -23.5t26 -66.5z" />
    <glyph glyph-name="ampersand.sc" unicode="&#xf726;" horiz-adv-x="570" 
d="M380 0l-20 26q-56 -36 -131 -36q-71 0 -123 32t-52 103q0 57 34 97.5t90 57.5l1 3q-31 48 -31 89q0 88 73 129q51 29 141 29q48 0 106 -13l-33 -128q-40 5 -60 5q-61 0 -61 -33q0 -9 17 -32l17 -23l14 -26h3q1 11 3 21l9 46h211l-29 -150h-77l-9 -49q-1 -2 -1 -5t-1 -4
l103 -139h-194zM258 122q16 0 29 4l-48 65q-21 -11 -21 -36q0 -14 10 -23.5t30 -9.5z" />
    <glyph glyph-name="zerooldstyle" unicode="&#xf730;" horiz-adv-x="535" 
d="M346 153q23 21 36 64t13 82q0 65 -58 65q-31 0 -51 -17q-49 -42 -49 -145q0 -66 59 -66q31 0 50 17zM563 316q0 -83 -32 -160.5t-95 -120.5q-65 -45 -168 -45q-86 0 -143 49.5t-57 140.5q0 81 31.5 158.5t92.5 122.5q66 49 173 49q90 0 144 -50t54 -144z" />
    <glyph glyph-name="oneoldstyle" unicode="&#xf731;" horiz-adv-x="359" 
d="M299 0h-168l64 331q2 9 -2 13t-13 3l-76 -11l-11 89l199 85h106z" />
    <glyph glyph-name="twooldstyle" unicode="&#xf732;" horiz-adv-x="455" 
d="M454 142l-28 -142h-394l23 122l210 142q44 29 44 61q0 39 -64 39q-42 0 -100 -22l-29 131q79 37 173 37q96 0 144.5 -46.5t48.5 -116.5q0 -111 -115 -173l-27 -15l-44 -15l3 -14q66 12 80 12h75z" />
    <glyph glyph-name="threeoldstyle" unicode="&#xf733;" horiz-adv-x="474" 
d="M444 66q0 -44 -15 -84t-45 -74.5t-82 -55t-120 -20.5q-91 0 -188 34l40 133q56 -21 127 -21q56 0 85.5 19.5t29.5 67.5q0 52 -72 52h-86l25 132h69q83 0 83 65q0 50 -66 50q-16 0 -33.5 -2.5t-29 -5t-25 -6t-15.5 -3.5l-22 127q97 36 188 36q88 0 134 -42t46 -106
q0 -106 -105 -158v-5q36 -16 56.5 -52.5t20.5 -80.5z" />
    <glyph glyph-name="fouroldstyle" unicode="&#xf734;" horiz-adv-x="530" 
d="M20 0l22 111l255 389h245l-72 -368h65l-26 -132h-65l-30 -154h-168l30 154h-256zM302 132l21 109l23 92l-18 5q-21 -54 -40 -85l-74 -121h88z" />
    <glyph glyph-name="fiveoldstyle" unicode="&#xf735;" horiz-adv-x="461" 
d="M450 116q0 -76 -27 -142t-81 -103q-57 -39 -152 -39q-93 0 -177 32l35 134q72 -20 121 -20q107 0 107 92q0 57 -70 57q-27 0 -80 -12l-53 31l99 354h304l-28 -142h-153l-23 -85h13q75 0 120 -41t45 -116z" />
    <glyph glyph-name="sixoldstyle" unicode="&#xf736;" horiz-adv-x="491" 
d="M268 136q24 0 39 15q24 26 24 78q0 42 -36 42q-24 0 -50 -15q-10 -38 -10 -75q0 -45 33 -45zM504 263q0 -147 -103 -226q-62 -47 -158 -47q-82 0 -128 52t-46 142q0 105 43.5 211.5t133.5 170.5q107 76 254 84l9 -125q-73 -15 -126.5 -40t-86.5 -75l4 -5q28 12 67 12
q62 0 99.5 -41.5t37.5 -112.5z" />
    <glyph glyph-name="sevenoldstyle" unicode="&#xf737;" horiz-adv-x="386" 
d="M65 358l28 142h380l-19 -97l-253 -561h-187l255 516h-204z" />
    <glyph glyph-name="eightoldstyle" unicode="&#xf738;" horiz-adv-x="512" 
d="M58 151q0 106 130 190q-49 51 -49 118q0 87 66.5 139t165.5 52q81 0 134.5 -40t53.5 -107q0 -105 -117 -177v-1q73 -58 73 -144q0 -79 -66 -135t-189 -56q-102 0 -152 48t-50 113zM314 241l-27 20q-61 -47 -61 -87q0 -18 14 -31t39 -13q29 0 48.5 15.5t19.5 42.5t-33 53z
M296 462q0 -23 24 -41l20 -16q58 37 58 71q0 14 -11.5 24t-32.5 10q-28 0 -43 -14t-15 -34z" />
    <glyph glyph-name="nineoldstyle" unicode="&#xf739;" horiz-adv-x="492" 
d="M318 364q-24 0 -39 -17q-11 -12 -18.5 -37t-7.5 -47q0 -42 36 -42q25 0 51 15q12 46 12 83q0 45 -34 45zM83 232q0 67 25.5 130t75.5 102q61 46 160 46q83 0 128.5 -48t45.5 -137q0 -93 -39 -212t-116 -187q-108 -94 -267 -94l-19 125q84 12 136.5 40.5t79.5 84.5l-4 5
q-32 -12 -70 -12q-61 0 -98.5 42.5t-37.5 114.5z" />
    <glyph glyph-name="question.sc" unicode="&#xf73f;" horiz-adv-x="394" 
d="M453 410q0 -67 -26 -97t-87 -44q-38 -9 -50.5 -15t-17.5 -21l-2 -7h-128l1 24q1 42 16.5 61.5t63.5 32.5q3 1 8 2q43 11 46 23l1 4q0 21 -56 21q-36 0 -87 -9l-2 124q82 21 160 21q83 0 121.5 -29t38.5 -91zM275 80q0 -42 -26.5 -66t-68.5 -24t-68.5 24t-26.5 66
q0 43 26.5 66.5t68.5 23.5q43 0 69 -23.5t26 -66.5z" />
    <glyph glyph-name="A.sc" unicode="&#xf761;" horiz-adv-x="595" 
d="M417 0l-9 76h-183l-35 -76h-180l246 520h258l71 -520h-168zM338 314l-46 -98h96l-12 95l-4 63h-12q-15 -45 -22 -60z" />
    <glyph glyph-name="B.sc" unicode="&#xf762;" horiz-adv-x="538" 
d="M243 136h80q50 0 50 45q0 31 -39 31h-76zM278 312h62q20 0 31.5 11.5t11.5 30.5q0 30 -36 30h-55zM539 178q0 -89 -61.5 -133.5t-161.5 -44.5h-266l100 520h248q80 0 118 -34.5t37 -85.5q-1 -82 -80 -114l-1 -4q33 -14 50 -42t17 -62z" />
    <glyph glyph-name="C.sc" unicode="&#xf763;" horiz-adv-x="429" 
d="M421 138l13 -123q-65 -25 -146 -25q-217 0 -217 196q0 81 36 168t97 129q68 47 177 47q58 0 119 -17l-40 -128q-36 9 -68 9q-57 0 -87 -22q-31 -22 -45.5 -65.5t-14.5 -90.5q0 -90 91 -90q39 0 85 12z" />
    <glyph glyph-name="D.sc" unicode="&#xf764;" horiz-adv-x="539" 
d="M349 157q21 20 34 67.5t13 87.5q0 72 -69 72h-35l-49 -248h49q36 0 57 21zM566 323q0 -83 -25.5 -160t-81.5 -119q-57 -44 -182 -44h-227l100 520h201q105 0 160 -50.5t55 -146.5z" />
    <glyph glyph-name="E.sc" unicode="&#xf765;" horiz-adv-x="423" 
d="M50 0l100 520h344l-27 -140h-176l-12 -60h112l-22 -115h-112l-13 -65h196l-27 -140h-363z" />
    <glyph glyph-name="F.sc" unicode="&#xf766;" horiz-adv-x="373" 
d="M50 0l100 520h314l-27 -140h-146l-16 -80h112l-22 -115h-112l-36 -185h-167z" />
    <glyph glyph-name="G.sc" unicode="&#xf767;" horiz-adv-x="539" 
d="M317 126q26 0 50 8l13 66h-64l19 102h232l-51 -264q-100 -48 -218 -48q-108 0 -168.5 47.5t-60.5 148.5q0 76 35.5 164t95.5 131q72 51 194 51q82 0 165 -24l-41 -127q-70 15 -113 15q-73 0 -109 -33q-25 -24 -40.5 -72t-15.5 -88q0 -77 77 -77z" />
    <glyph glyph-name="H.sc" unicode="&#xf768;" horiz-adv-x="579" 
d="M361 0l38 194h-144l-38 -194h-167l100 520h168l-36 -186h144l36 186h168l-101 -520h-168z" />
    <glyph glyph-name="I.sc" unicode="&#xf769;" horiz-adv-x="267" 
d="M50 0l100 520h168l-101 -520h-167z" />
    <glyph glyph-name="J.sc" unicode="&#xf76a;" horiz-adv-x="292" 
d="M343 520l-66 -339q-19 -103 -71 -147t-167 -44h-31l26 136q36 0 53.5 16.5t26.5 61.5l61 316h168z" />
    <glyph glyph-name="K.sc" unicode="&#xf76b;" horiz-adv-x="567" 
d="M374 0l-95 219h-19l-43 -219h-167l100 520h168l-40 -207h18l152 207h192l-200 -264l113 -256h-179z" />
    <glyph glyph-name="L.sc" unicode="&#xf76c;" horiz-adv-x="378" 
d="M50 0l100 520h168l-74 -380h151l-27 -140h-318z" />
    <glyph glyph-name="M.sc" unicode="&#xf76d;" horiz-adv-x="729" 
d="M520 227l-105 -175h-80l-41 176l-10 72l-14 -2q-6 -56 -10 -77l-43 -221h-167l100 520h208l49 -225h6l126 225h241l-101 -520h-168l43 221l17 77l-15 2q-16 -40 -36 -73z" />
    <glyph glyph-name="N.sc" unicode="&#xf76e;" horiz-adv-x="631" 
d="M355 520l78 -248l15 -71h11q5 60 9 84l46 235h168l-100 -520h-212l-72 228q-4 14 -8 36t-6 37l-2 15h-12q-6 -73 -11 -98l-42 -218h-167l100 520h205z" />
    <glyph glyph-name="O.sc" unicode="&#xf76f;" horiz-adv-x="589" 
d="M389 150q23 20 40.5 71.5t17.5 90.5q0 42 -17 62t-59 20q-43 0 -69 -22q-24 -21 -42 -72.5t-18 -92.5t17.5 -61t58.5 -20q43 0 71 24zM618 334q0 -79 -37 -167.5t-97 -127.5q-75 -49 -193 -49q-221 0 -221 196q0 77 36 164t94 128q75 52 196 52q222 0 222 -196z" />
    <glyph glyph-name="P.sc" unicode="&#xf770;" horiz-adv-x="506" 
d="M270 272h43q30 0 45.5 21t15.5 53q0 38 -41 38h-41zM313 157h-66l-30 -157h-167l100 520h234q80 0 121.5 -41.5t41.5 -110.5q0 -100 -61.5 -155.5t-172.5 -55.5z" />
    <glyph glyph-name="Q.sc" unicode="&#xf771;" horiz-adv-x="589" 
d="M618 334q0 -67 -28.5 -145.5t-75.5 -125.5l41 -58l-96 -68l-48 68q-49 -15 -120 -15q-221 0 -221 196q0 77 36 164t94 128q75 52 196 52q222 0 222 -196zM291 179l94 67l34 -49q28 59 28 115q0 42 -17 62t-59 20q-43 0 -69 -22q-24 -21 -42 -72.5t-18 -92.5t17.5 -61
t58.5 -20l11 -1l1 3q-10 9 -12 12z" />
    <glyph glyph-name="R.sc" unicode="&#xf772;" horiz-adv-x="524" 
d="M332 0l-61 157h-24l-30 -157h-167l100 520h241q79 0 122.5 -38.5t43.5 -107.5q0 -140 -119 -195l71 -179h-177zM270 272h53q28 0 44.5 20.5t16.5 50.5q0 41 -39 41h-53z" />
    <glyph glyph-name="S.sc" unicode="&#xf773;" horiz-adv-x="467" 
d="M466 169q0 -81 -56.5 -130t-159.5 -49q-114 0 -207 39l42 129q85 -32 147 -32q65 0 65 34q0 11 -6 16.5t-27 15.5l-52 21q-113 46 -113 137q0 83 60.5 131.5t164.5 48.5q86 0 168 -37l-54 -124q-57 25 -109 25q-61 0 -61 -36q0 -16 23 -27l59 -23q116 -44 116 -139z" />
    <glyph glyph-name="T.sc" unicode="&#xf774;" horiz-adv-x="417" 
d="M481 380h-115l-74 -380h-168l74 380h-115l27 140h398z" />
    <glyph glyph-name="U.sc" unicode="&#xf775;" horiz-adv-x="554" 
d="M605 520l-65 -335q-18 -92 -83.5 -143.5t-179.5 -51.5q-97 0 -147 42t-50 110q0 38 14 109l52 269h168l-62 -317q-8 -40 6.5 -58.5t43.5 -18.5q58 0 73 77l62 317h168z" />
    <glyph glyph-name="V.sc" unicode="&#xf776;" horiz-adv-x="544" 
d="M331 235l124 285h180l-227 -520h-266l-31 520h166l16 -288l-1 -82h14q10 49 25 85z" />
    <glyph glyph-name="W.sc" unicode="&#xf777;" horiz-adv-x="851" 
d="M490 288h-10q-12 -51 -21 -73l-90 -215h-244l-14 520h165l8 -282l-3 -64h12q8 36 16 58l107 252h200l17 -252l-1 -58h11q11 45 17 64l108 282h174l-196 -520h-243l-14 215z" />
    <glyph glyph-name="X.sc" unicode="&#xf778;" horiz-adv-x="546" 
d="M10 0l173 278l-81 242h175l40 -126l9 -55h8q12 37 25 56l75 125h194l-168 -268l86 -252h-175l-47 137l-8 48h-7l-3 -9q-4 -8 -9 -19.5t-9 -18.5l-83 -138h-195z" />
    <glyph glyph-name="Y.sc" unicode="&#xf779;" horiz-adv-x="536" 
d="M627 520l-247 -364l-30 -156h-168l32 169l-103 351h166l34 -120l9 -65h8q19 49 29 65l77 120h193z" />
    <glyph glyph-name="Z.sc" unicode="&#xf77a;" horiz-adv-x="426" 
d="M407 0h-397l204 332q8 12 17 22.5t15 15.5l5 4l-1 6h-154l27 140h393l-209 -334q-6 -10 -15 -20t-14 -15l-6 -5l2 -6h160z" />
    <glyph glyph-name="exclamdown.sc" unicode="&#xf7a1;" horiz-adv-x="270" 
d="M41 -61l64 181h107l-6 -203q-3 -83 -100 -83q-78 0 -78 50q0 19 13 55zM285 286q0 -42 -26.5 -66t-68.5 -24t-68.5 24t-26.5 66q0 43 26.5 66.5t68.5 23.5q43 0 69 -23.5t26 -66.5z" />
    <glyph glyph-name="questiondown.sc" unicode="&#xf7bf;" horiz-adv-x="359" 
d="M11 -44q0 115 113 141q38 9 50.5 15t17.5 21l2 7h128l-1 -24q-1 -42 -16.5 -61.5t-63.5 -32.5q-47 -12 -53 -21q-2 -4 -2 -8q0 -21 56 -21q36 0 87 9l2 -124q-82 -21 -160 -21q-80 0 -120 32.5t-40 87.5zM379 286q0 -42 -26.5 -66t-68.5 -24t-68.5 24t-26.5 66
q0 43 26.5 66.5t68.5 23.5q43 0 69 -23.5t26 -66.5z" />
    <glyph glyph-name="Agrave.sc" unicode="&#xf7e0;" horiz-adv-x="595" 
d="M417 0l-9 76h-183l-35 -76h-180l246 520h258l71 -520h-168zM338 314l-46 -98h96l-12 95l-4 63h-12q-15 -45 -22 -60zM197 676q0 33 46 33h42q55 0 75 -34l69 -113h-89l-109 71q-19 13 -26.5 21.5t-7.5 21.5z" />
    <glyph glyph-name="Aacute.sc" unicode="&#xf7e1;" horiz-adv-x="595" 
d="M417 0l-9 76h-183l-35 -76h-180l246 520h258l71 -520h-168zM338 314l-46 -98h96l-12 95l-4 63h-12q-15 -45 -22 -60zM584 678q0 -10 -6 -19t-13.5 -14t-24.5 -15l-116 -67h-91l88 113q27 34 82 34h42q39 0 39 -32z" />
    <glyph glyph-name="Acircumflex.sc" unicode="&#xf7e2;" horiz-adv-x="595" 
d="M417 0l-9 76h-183l-35 -76h-180l246 520h258l71 -520h-168zM338 314l-46 -98h96l-12 95l-4 63h-12q-15 -45 -22 -60zM451 722l95 -111l-42 -49l-105 46h-11l-116 -46l-35 49l139 111h75z" />
    <glyph glyph-name="Atilde.sc" unicode="&#xf7e3;" horiz-adv-x="595" 
d="M417 0l-9 76h-183l-35 -76h-180l246 520h258l71 -520h-168zM338 314l-46 -98h96l-12 95l-4 63h-12q-15 -45 -22 -60zM495 703l52 -31q-4 -18 -9.5 -31.5t-17.5 -33t-33 -30.5t-50 -11q-17 0 -56.5 12.5t-53.5 12.5q-30 0 -49 -29l-52 31q26 106 110 106q17 0 56 -12.5
t53 -12.5q31 0 50 29z" />
    <glyph glyph-name="Adieresis.sc" unicode="&#xf7e4;" horiz-adv-x="595" 
d="M417 0l-9 76h-183l-35 -76h-180l246 520h258l71 -520h-168zM338 314l-46 -98h96l-12 95l-4 63h-12q-15 -45 -22 -60zM370 642q0 -41 -23.5 -62.5t-61.5 -21.5t-61.5 21.5t-23.5 62.5q0 42 23.5 63t61.5 21q39 0 62 -21t23 -63zM580 642q0 -41 -23.5 -62.5t-61.5 -21.5
t-61.5 21.5t-23.5 62.5q0 42 23.5 63t61.5 21q39 0 62 -21t23 -63z" />
    <glyph glyph-name="Aring.sc" unicode="&#xf7e5;" horiz-adv-x="595" 
d="M417 0l-9 76h-183l-35 -76h-180l246 520h258l71 -520h-168zM338 314l-46 -98h96l-12 95l-4 63h-12q-15 -45 -22 -60zM429 666q0 19 -12.5 32t-33.5 13t-33.5 -13t-12.5 -32t12.5 -31.5t33.5 -12.5t33.5 12.5t12.5 31.5zM501 666q0 -47 -30.5 -75t-87.5 -28t-87.5 28
t-30.5 75t30.5 75.5t87.5 28.5t87.5 -28.5t30.5 -75.5z" />
    <glyph glyph-name="AE.sc" unicode="&#xf7e6;" horiz-adv-x="758" 
d="M399 76h-154l-44 -76h-191l305 520h514l-27 -140h-176l-12 -60h112l-22 -115h-112l-13 -65h196l-27 -140h-364zM388 320l-61 -104h99l18 91l18 82l-32 7q-25 -48 -42 -76z" />
    <glyph glyph-name="Ccedilla.sc" unicode="&#xf7e7;" horiz-adv-x="429" 
d="M377 -110q0 -54 -36 -80t-96 -26q-25 0 -54 2.5t-46 5.5l-17 2l18 61q48 -5 74 -5q42 0 42 32q0 19 -31 19h-59l38 97q-139 30 -139 188q0 81 36 168t97 129q68 47 177 47q58 0 119 -17l-40 -128q-36 9 -68 9q-57 0 -87 -22q-31 -22 -45.5 -65.5t-14.5 -90.5
q0 -90 91 -90q39 0 85 12l13 -123q-62 -23 -136 -25l-11 -37h10q80 0 80 -63z" />
    <glyph glyph-name="Egrave.sc" unicode="&#xf7e8;" horiz-adv-x="423" 
d="M50 0l100 520h344l-27 -140h-176l-12 -60h112l-22 -115h-112l-13 -65h196l-27 -140h-363zM155 677q0 33 46 33h42q55 0 75 -34l69 -113h-89l-109 71q-19 13 -26.5 21.5t-7.5 21.5z" />
    <glyph glyph-name="Eacute.sc" unicode="&#xf7e9;" horiz-adv-x="423" 
d="M50 0l100 520h344l-27 -140h-176l-12 -60h112l-22 -115h-112l-13 -65h196l-27 -140h-363zM518 678q0 -10 -6 -19t-13.5 -14t-24.5 -15l-116 -67h-91l88 113q27 34 82 34h42q39 0 39 -32z" />
    <glyph glyph-name="Ecircumflex.sc" unicode="&#xf7ea;" horiz-adv-x="423" 
d="M50 0l100 520h344l-27 -140h-176l-12 -60h112l-22 -115h-112l-13 -65h196l-27 -140h-363zM391 722l95 -111l-42 -49l-105 46h-11l-116 -46l-35 49l139 111h75z" />
    <glyph glyph-name="Edieresis.sc" unicode="&#xf7eb;" horiz-adv-x="423" 
d="M50 0l100 520h344l-27 -140h-176l-12 -60h112l-22 -115h-112l-13 -65h196l-27 -140h-363zM317 642q0 -41 -23.5 -62.5t-61.5 -21.5t-61.5 21.5t-23.5 62.5q0 42 23.5 63t61.5 21q39 0 62 -21t23 -63zM527 642q0 -41 -23.5 -62.5t-61.5 -21.5t-61.5 21.5t-23.5 62.5
q0 42 23.5 63t61.5 21q39 0 62 -21t23 -63z" />
    <glyph glyph-name="Igrave.sc" unicode="&#xf7ec;" horiz-adv-x="267" 
d="M61 677q0 33 46 33h42q55 0 75 -34l69 -113h-89l-109 71q-19 13 -26.5 21.5t-7.5 21.5zM50 0l100 520h168l-101 -520h-167z" />
    <glyph glyph-name="Iacute.sc" unicode="&#xf7ed;" horiz-adv-x="267" 
d="M427 678q0 -10 -6 -19t-13.5 -14t-24.5 -15l-116 -67h-91l88 113q27 34 82 34h42q39 0 39 -32zM50 0l100 520h168l-101 -520h-167z" />
    <glyph glyph-name="Icircumflex.sc" unicode="&#xf7ee;" horiz-adv-x="267" 
d="M303 723l95 -111l-42 -49l-105 46h-11l-116 -46l-35 49l139 111h75zM50 0l100 520h168l-101 -520h-167z" />
    <glyph glyph-name="Idieresis.sc" unicode="&#xf7ef;" horiz-adv-x="267" 
d="M222 642q0 -41 -23.5 -62.5t-61.5 -21.5t-61.5 21.5t-23.5 62.5q0 42 23.5 63t61.5 21q39 0 62 -21t23 -63zM426 642q0 -41 -23.5 -62.5t-61.5 -21.5t-61.5 21.5t-23.5 62.5q0 42 23.5 63t61.5 21q39 0 62 -21t23 -63zM50 0l100 520h168l-101 -520h-167z" />
    <glyph glyph-name="Eth.sc" unicode="&#xf7f0;" horiz-adv-x="539" 
d="M39 204l22 115h50l39 201h201q105 0 160 -50.5t55 -146.5q0 -83 -25.5 -160t-81.5 -119q-57 -44 -182 -44h-227l39 204h-50zM349 157q21 20 34 67.5t13 87.5q0 72 -69 72h-35l-13 -65h60l-22 -115h-61l-13 -68h49q36 0 57 21z" />
    <glyph glyph-name="Ntilde.sc" unicode="&#xf7f1;" horiz-adv-x="631" 
d="M355 520l78 -248l15 -71h11q5 60 9 84l46 235h168l-100 -520h-212l-72 228q-4 14 -8 36t-6 37l-2 15h-12q-6 -73 -11 -98l-42 -218h-167l100 520h205zM558 705l52 -31q-4 -18 -9.5 -31.5t-17.5 -33t-33 -30.5t-50 -11q-17 0 -56.5 12.5t-53.5 12.5q-30 0 -49 -29l-52 31
q4 18 9.5 31t17.5 33t33 31t50 11q17 0 56 -12.5t53 -12.5q31 0 50 29z" />
    <glyph glyph-name="Ograve.sc" unicode="&#xf7f2;" horiz-adv-x="589" 
d="M389 150q23 20 40.5 71.5t17.5 90.5q0 42 -17 62t-59 20q-43 0 -69 -22q-24 -21 -42 -72.5t-18 -92.5t17.5 -61t58.5 -20q43 0 71 24zM618 334q0 -79 -37 -167.5t-97 -127.5q-75 -49 -193 -49q-221 0 -221 196q0 77 36 164t94 128q75 52 196 52q222 0 222 -196zM224 677
q0 33 46 33h42q55 0 75 -34l69 -113h-89l-109 71q-19 13 -26.5 21.5t-7.5 21.5z" />
    <glyph glyph-name="Oacute.sc" unicode="&#xf7f3;" horiz-adv-x="589" 
d="M389 150q23 20 40.5 71.5t17.5 90.5q0 42 -17 62t-59 20q-43 0 -69 -22q-24 -21 -42 -72.5t-18 -92.5t17.5 -61t58.5 -20q43 0 71 24zM618 334q0 -79 -37 -167.5t-97 -127.5q-75 -49 -193 -49q-221 0 -221 196q0 77 36 164t94 128q75 52 196 52q222 0 222 -196zM605 678
q0 -10 -6 -19t-13.5 -14t-24.5 -15l-116 -67h-91l88 113q27 34 82 34h42q39 0 39 -32z" />
    <glyph glyph-name="Ocircumflex.sc" unicode="&#xf7f4;" horiz-adv-x="589" 
d="M389 150q23 20 40.5 71.5t17.5 90.5q0 42 -17 62t-59 20q-43 0 -69 -22q-24 -21 -42 -72.5t-18 -92.5t17.5 -61t58.5 -20q43 0 71 24zM618 334q0 -79 -37 -167.5t-97 -127.5q-75 -49 -193 -49q-221 0 -221 196q0 77 36 164t94 128q75 52 196 52q222 0 222 -196zM471 722
l95 -111l-42 -49l-105 46h-11l-116 -46l-35 49l139 111h75z" />
    <glyph glyph-name="Otilde.sc" unicode="&#xf7f5;" horiz-adv-x="589" 
d="M389 150q23 20 40.5 71.5t17.5 90.5q0 42 -17 62t-59 20q-43 0 -69 -22q-24 -21 -42 -72.5t-18 -92.5t17.5 -61t58.5 -20q43 0 71 24zM618 334q0 -79 -37 -167.5t-97 -127.5q-75 -49 -193 -49q-221 0 -221 196q0 77 36 164t94 128q75 52 196 52q222 0 222 -196zM522 703
l52 -31q-4 -18 -9.5 -31.5t-17.5 -33t-33 -30.5t-50 -11q-17 0 -56.5 12.5t-53.5 12.5q-30 0 -49 -29l-52 31q4 18 9.5 31t17.5 33t33 31t50 11q17 0 56 -12.5t53 -12.5q31 0 50 29z" />
    <glyph glyph-name="Odieresis.sc" unicode="&#xf7f6;" horiz-adv-x="589" 
d="M389 150q23 20 40.5 71.5t17.5 90.5q0 42 -17 62t-59 20q-43 0 -69 -22q-24 -21 -42 -72.5t-18 -92.5t17.5 -61t58.5 -20q43 0 71 24zM618 334q0 -79 -37 -167.5t-97 -127.5q-75 -49 -193 -49q-221 0 -221 196q0 77 36 164t94 128q75 52 196 52q222 0 222 -196zM392 642
q0 -41 -23.5 -62.5t-61.5 -21.5t-61.5 21.5t-23.5 62.5q0 42 23.5 63t61.5 21q39 0 62 -21t23 -63zM602 642q0 -41 -23.5 -62.5t-61.5 -21.5t-61.5 21.5t-23.5 62.5q0 42 23.5 63t61.5 21q39 0 62 -21t23 -63z" />
    <glyph glyph-name="AEacute.sc" unicode="&#xf7f7;" horiz-adv-x="758" 
d="M399 76h-154l-44 -76h-191l305 520h514l-27 -140h-176l-12 -60h112l-22 -115h-112l-13 -65h196l-27 -140h-364zM388 320l-61 -104h99l18 91l18 82l-32 7q-25 -48 -42 -76zM770 678q0 -10 -6 -19t-13.5 -14t-24.5 -15l-116 -67h-91l88 113q27 34 82 34h42q39 0 39 -32z
" />
    <glyph glyph-name="Oslash.sc" unicode="&#xf7f8;" horiz-adv-x="589" 
d="M54 29l44 44q-28 45 -28 113q0 77 36 164t94 128q75 52 201 52q82 0 134 -26l46 46l61 -58l-44 -43q30 -47 30 -115q0 -79 -37 -167.5t-97 -127.5q-75 -49 -198 -49q-82 0 -134 26l-46 -46zM399 150q19 17 35 58t21 80l4 19l-2 1l-177 -175q17 -7 43 -7q48 0 76 24z
M302 372q-39 -33 -57 -128l-6 -27l3 -2l174 172q-15 7 -40 7q-48 0 -74 -22z" />
    <glyph glyph-name="Ugrave.sc" unicode="&#xf7f9;" horiz-adv-x="554" 
d="M605 520l-65 -335q-18 -92 -83.5 -143.5t-179.5 -51.5q-97 0 -147 42t-50 110q0 38 14 109l52 269h168l-62 -317q-8 -40 6.5 -58.5t43.5 -18.5q58 0 73 77l62 317h168zM198 677q0 33 46 33h42q55 0 75 -34l69 -113h-89l-109 71q-19 13 -26.5 21.5t-7.5 21.5z" />
    <glyph glyph-name="Uacute.sc" unicode="&#xf7fa;" horiz-adv-x="554" 
d="M605 520l-65 -335q-18 -92 -83.5 -143.5t-179.5 -51.5q-97 0 -147 42t-50 110q0 38 14 109l52 269h168l-62 -317q-8 -40 6.5 -58.5t43.5 -18.5q58 0 73 77l62 317h168zM584 678q0 -10 -6 -19t-13.5 -14t-24.5 -15l-116 -67h-91l88 113q27 34 82 34h42q39 0 39 -32z" />
    <glyph glyph-name="Ucircumflex.sc" unicode="&#xf7fb;" horiz-adv-x="554" 
d="M605 520l-65 -335q-18 -92 -83.5 -143.5t-179.5 -51.5q-97 0 -147 42t-50 110q0 38 14 109l52 269h168l-62 -317q-8 -40 6.5 -58.5t43.5 -18.5q58 0 73 77l62 317h168zM444 722l95 -111l-42 -49l-105 46h-11l-116 -46l-35 49l139 111h75z" />
    <glyph glyph-name="Udieresis.sc" unicode="&#xf7fc;" horiz-adv-x="554" 
d="M605 520l-65 -335q-18 -92 -83.5 -143.5t-179.5 -51.5q-97 0 -147 42t-50 110q0 38 14 109l52 269h168l-62 -317q-8 -40 6.5 -58.5t43.5 -18.5q58 0 73 77l62 317h168zM371 642q0 -41 -23.5 -62.5t-61.5 -21.5t-61.5 21.5t-23.5 62.5q0 42 23.5 63t61.5 21q39 0 62 -21
t23 -63zM581 642q0 -41 -23.5 -62.5t-61.5 -21.5t-61.5 21.5t-23.5 62.5q0 42 23.5 63t61.5 21q39 0 62 -21t23 -63z" />
    <glyph glyph-name="Yacute.sc" unicode="&#xf7fd;" horiz-adv-x="536" 
d="M627 520l-247 -364l-30 -156h-168l32 169l-103 351h166l34 -120l9 -65h8q19 49 29 65l77 120h193zM569 678q0 -10 -6 -19t-13.5 -14t-24.5 -15l-116 -67h-91l88 113q27 34 82 34h42q39 0 39 -32z" />
    <glyph glyph-name="Thorn.sc" unicode="&#xf7fe;" horiz-adv-x="506" 
d="M255 195h43q30 0 45.5 21t15.5 53q0 38 -41 38h-41zM298 80h-66l-15 -80h-167l100 520h168l-15 -77h66q80 0 121.5 -41.5t41.5 -110.5q0 -100 -61.5 -155.5t-172.5 -55.5z" />
    <glyph glyph-name="Ydieresis.sc" unicode="&#xf7ff;" horiz-adv-x="536" 
d="M627 520l-247 -364l-30 -156h-168l32 169l-103 351h166l34 -120l9 -65h8q19 49 29 65l77 120h193zM348 642q0 -41 -23.5 -62.5t-61.5 -21.5t-61.5 21.5t-23.5 62.5q0 42 23.5 63t61.5 21q39 0 62 -21t23 -63zM558 642q0 -41 -23.5 -62.5t-61.5 -21.5t-61.5 21.5
t-23.5 62.5q0 42 23.5 63t61.5 21q39 0 62 -21t23 -63z" />
    <glyph glyph-name="s_t" unicode="&#xfb06;" horiz-adv-x="774" 
d="M464 168q0 -83 -55 -130.5t-156 -47.5q-120 0 -212 53l52 127q78 -44 153 -44q45 0 45 23q0 8 -5 11t-23 9l-64 21q-106 35 -106 122t61.5 132.5t157.5 45.5h12l1 1q-9 21 -9 47q0 74 66 123.5t182 49.5q97 0 151.5 -37.5t54.5 -101.5q0 -21 -4 -40l-10 -52h89l-28 -140
h-89l-23 -120q-4 -19 -4 -35q0 -43 50 -52l25 -5l-36 -138h-46q-86 0 -129 32t-43 89q0 29 9 76l29 153h-55l28 140h55l6 32q10 67 -63 67q-36 0 -57.5 -18.5t-21.5 -51.5q0 -29 23 -57l-55 -129q-64 31 -113 31q-43 0 -43 -24q0 -12 18 -18l61 -19q121 -38 121 -125z" />
    <glyph glyph-name="c_t" unicode="&#xfb1e;" horiz-adv-x="740" 
d="M374 141l12 -117q-53 -34 -136 -34q-88 0 -137 45t-49 131q0 70 28 153t84 126q45 33 111 42l2 3q-7 15 -7 38q0 79 62.5 131t186.5 52q102 0 153.5 -37t51.5 -102q0 -21 -4 -40l-10 -52h89l-28 -140h-89l-23 -120q-4 -19 -4 -35q0 -43 50 -52l25 -5l-36 -138h-46
q-86 0 -129 32t-43 89q0 29 9 76l29 153h-60l28 140h60l6 32q5 28 -10 47.5t-53 19.5q-34 0 -56.5 -15t-22.5 -47q0 -29 26 -48l-44 -124q-31 9 -57 9q-43 0 -64 -24q-17 -20 -28.5 -61.5t-11.5 -78.5q0 -30 15.5 -47t42.5 -17q34 0 77 15z" />
    <glyph glyph-name="Adblgrave.sc" unicode="&#xfff0;" horiz-adv-x="595" 
d="M417 0l-9 76h-183l-35 -76h-180l246 520h258l71 -520h-168zM338 314l-46 -98h96l-12 95l-4 63h-12q-15 -45 -22 -60zM109 677q0 14 11.5 23.5t33.5 9.5h19q56 0 76 -34l69 -113h-66l-109 69q-34 21 -34 45zM296 677q0 14 11.5 23.5t33.5 9.5h19q56 0 76 -34l69 -113h-66
l-109 69q-34 21 -34 45z" />
    <glyph glyph-name="Ainvertedbreve.sc" unicode="&#xfff1;" horiz-adv-x="595" 
d="M417 0l-9 76h-183l-35 -76h-180l246 520h258l71 -520h-168zM338 314l-46 -98h96l-12 95l-4 63h-12q-15 -45 -22 -60zM323 563h-85q13 67 58.5 107t120.5 40q68 0 100 -41t21 -106h-85q-4 51 -56 51q-51 0 -74 -51z" />
    <glyph glyph-name="Edblgrave.sc" unicode="&#xfff2;" horiz-adv-x="423" 
d="M50 0l100 520h344l-27 -140h-176l-12 -60h112l-22 -115h-112l-13 -65h196l-27 -140h-363zM60 677q0 14 11.5 23.5t33.5 9.5h19q56 0 76 -34l69 -113h-66l-109 69q-34 21 -34 45zM247 677q0 14 11.5 23.5t33.5 9.5h19q56 0 76 -34l69 -113h-66l-109 69q-34 21 -34 45z" />
    <glyph glyph-name="Einvertedbreve.sc" unicode="&#xfff3;" horiz-adv-x="423" 
d="M50 0l100 520h344l-27 -140h-176l-12 -60h112l-22 -115h-112l-13 -65h196l-27 -140h-363zM268 563h-85q13 67 58.5 107t120.5 40q68 0 100 -41t21 -106h-85q-4 51 -56 51q-51 0 -74 -51z" />
    <glyph glyph-name="Idblgrave.sc" unicode="&#xfff4;" horiz-adv-x="267" 
d="M-42 677q0 14 11.5 23.5t33.5 9.5h19q56 0 76 -34l69 -113h-66l-109 69q-34 21 -34 45zM145 677q0 14 11.5 23.5t33.5 9.5h19q56 0 76 -34l69 -113h-66l-109 69q-34 21 -34 45zM50 0l100 520h168l-101 -520h-167z" />
    <glyph glyph-name="Iinvertedbreve.sc" unicode="&#xfff5;" horiz-adv-x="267" 
d="M170 563h-85q13 67 58.5 107t120.5 40q68 0 100 -41t21 -106h-85q-4 51 -56 51q-51 0 -74 -51zM50 0l100 520h168l-101 -520h-167z" />
    <glyph glyph-name="Odblgrave.sc" unicode="&#xfff6;" horiz-adv-x="589" 
d="M389 150q23 20 40.5 71.5t17.5 90.5q0 42 -17 62t-59 20q-43 0 -69 -22q-24 -21 -42 -72.5t-18 -92.5t17.5 -61t58.5 -20q43 0 71 24zM618 334q0 -79 -37 -167.5t-97 -127.5q-75 -49 -193 -49q-221 0 -221 196q0 77 36 164t94 128q75 52 196 52q222 0 222 -196zM137 677
q0 14 11.5 23.5t33.5 9.5h19q56 0 76 -34l69 -113h-66l-109 69q-34 21 -34 45zM324 677q0 14 11.5 23.5t33.5 9.5h19q56 0 76 -34l69 -113h-66l-109 69q-34 21 -34 45z" />
    <glyph glyph-name="Oinvertedbreve.sc" unicode="&#xfff7;" horiz-adv-x="589" 
d="M389 150q23 20 40.5 71.5t17.5 90.5q0 42 -17 62t-59 20q-43 0 -69 -22q-24 -21 -42 -72.5t-18 -92.5t17.5 -61t58.5 -20q43 0 71 24zM618 334q0 -79 -37 -167.5t-97 -127.5q-75 -49 -193 -49q-221 0 -221 196q0 77 36 164t94 128q75 52 196 52q222 0 222 -196zM339 563
h-85q13 67 58.5 107t120.5 40q68 0 100 -41t21 -106h-85q-4 51 -56 51q-51 0 -74 -51z" />
    <glyph glyph-name="Rdblgrave.sc" unicode="&#xfff8;" horiz-adv-x="524" 
d="M332 0l-61 157h-24l-30 -157h-167l100 520h241q79 0 122.5 -38.5t43.5 -107.5q0 -140 -119 -195l71 -179h-177zM270 272h53q28 0 44.5 20.5t16.5 50.5q0 41 -39 41h-53zM67 677q0 14 11.5 23.5t33.5 9.5h19q56 0 76 -34l69 -113h-66l-109 69q-34 21 -34 45zM254 677
q0 14 11.5 23.5t33.5 9.5h19q56 0 76 -34l69 -113h-66l-109 69q-34 21 -34 45z" />
    <glyph glyph-name="Rinvertedbreve.sc" unicode="&#xfff9;" horiz-adv-x="524" 
d="M332 0l-61 157h-24l-30 -157h-167l100 520h241q79 0 122.5 -38.5t43.5 -107.5q0 -140 -119 -195l71 -179h-177zM270 272h53q28 0 44.5 20.5t16.5 50.5q0 41 -39 41h-53zM263 563h-85q13 67 58.5 107t120.5 40q68 0 100 -41t21 -106h-85q-4 51 -56 51q-51 0 -74 -51z" />
    <glyph glyph-name="Udblgrave.sc" unicode="&#xfffa;" horiz-adv-x="554" 
d="M605 520l-65 -335q-18 -92 -83.5 -143.5t-179.5 -51.5q-97 0 -147 42t-50 110q0 38 14 109l52 269h168l-62 -317q-8 -40 6.5 -58.5t43.5 -18.5q58 0 73 77l62 317h168zM112 677q0 14 11.5 23.5t33.5 9.5h19q56 0 76 -34l69 -113h-66l-109 69q-34 21 -34 45zM299 677
q0 14 11.5 23.5t33.5 9.5h19q56 0 76 -34l69 -113h-66l-109 69q-34 21 -34 45z" />
    <glyph glyph-name="Uinvertedbreve.sc" unicode="&#xfffb;" horiz-adv-x="554" 
d="M605 520l-65 -335q-18 -92 -83.5 -143.5t-179.5 -51.5q-97 0 -147 42t-50 110q0 38 14 109l52 269h168l-62 -317q-8 -40 6.5 -58.5t43.5 -18.5q58 0 73 77l62 317h168zM313 563h-85q13 67 58.5 107t120.5 40q68 0 100 -41t21 -106h-85q-4 51 -56 51q-51 0 -74 -51z" />
    </font>
</defs>
</svg>
