<?xml version="1.0" standalone="no"?>
<!DOCTYPE svg PUBLIC "-//W3C//DTD SVG 1.1//EN" "http://www.w3.org/Graphics/SVG/1.1/DTD/svg11.dtd" >
<svg xmlns="http://www.w3.org/2000/svg" xmlns:xlink="http://www.w3.org/1999/xlink" version="1.1">
<metadata>
Created by FontForge 20170731 at Tue Dec 10 16:57:08 2013
 By Aleksey,,,
Copyright (c) 2013 by Nikola &#38; Zoran Kostic. All rights reserved.
</metadata>
<defs>
<font id="Argumentum-Regular" horiz-adv-x="500" >
  <font-face 
    font-family="Argumentum"
    font-weight="400"
    font-stretch="normal"
    units-per-em="1000"
    panose-1="2 11 0 0 0 0 0 0 0 0"
    ascent="751"
    descent="-249"
    x-height="480"
    cap-height="676"
    bbox="-118 -293 998 937"
    underline-thickness="50"
    underline-position="-200"
    unicode-range="U+0020-FFFB"
  />
<missing-glyph horiz-adv-x="470" 
d="M117 59h235v616h-235v-616zM59 0v733h353v-733h-353z" />
    <glyph glyph-name="f_f" unicode="ff" horiz-adv-x="544" 
d="M545 705l-12 -79q-29 3 -47 3q-35 0 -46.5 -15.5t-11.5 -54.5v-79h103v-74h-103v-406h-92v406h-168v-406h-92v406h-66v74h66v85q0 77 36.5 111.5t113.5 34.5l59 -6l-12 -79q-29 3 -47 3q-35 0 -46.5 -15.5t-11.5 -54.5v-79h168v85q0 77 36.5 111.5t113.5 34.5z" />
    <glyph glyph-name="fi" unicode="fi" horiz-adv-x="488" 
d="M424 480v-480h-92v406h-164v-406h-92v406h-66v74h66v76q0 82 40 118.5t129 36.5q30 0 65 -6t56 -12l20 -6l-17 -76q-66 18 -120 18q-49 0 -65 -16.5t-16 -58.5v-74h256z" />
    <glyph glyph-name="fl" unicode="fl" horiz-adv-x="517" 
d="M481 -10q-75 2 -111 35.5t-36 112.5v485q-57 6 -88 6q-48 0 -63 -17t-15 -58v-74h103v-74h-103v-406h-92v406h-66v74h66v78q0 85 40.5 119t136.5 34q35 0 78.5 -3.5t68.5 -7.5l26 -4v-533q0 -45 10.5 -60.5t45.5 -25.5l18 -5z" />
    <glyph glyph-name="f_f_i" unicode="ffi" horiz-adv-x="748" 
d="M684 480v-480h-92v406h-164v-406h-92v406h-168v-406h-92v406h-66v74h66v85q0 77 36.5 111.5t113.5 34.5l59 -6l-12 -79q-29 3 -47 3q-35 0 -46.5 -15.5t-11.5 -54.5v-79h168v76q0 82 40 118.5t129 36.5q30 0 65 -6t56 -12l20 -6l-17 -76q-66 18 -120 18q-49 0 -65 -16.5
t-16 -58.5v-74h256z" />
    <glyph glyph-name="f_f_l" unicode="ffl" horiz-adv-x="777" 
d="M741 -10q-75 2 -111 35.5t-36 112.5v485q-57 6 -88 6q-48 0 -63 -17t-15 -58v-74h103v-74h-103v-406h-92v406h-168v-406h-92v406h-66v74h66v85q0 77 36.5 111.5t113.5 34.5l59 -6l-12 -79q-29 3 -47 3q-35 0 -46.5 -15.5t-11.5 -54.5v-79h168v78q0 85 40.5 119t136.5 34
q45 0 173 -15v-533q0 -45 10.5 -60.5t45.5 -25.5l18 -5z" />
    <glyph glyph-name="f_t" unicode="ft" horiz-adv-x="553" 
d="M517 65h15l-17 -75q-98 0 -139 33.5t-41 124.5v258h-167v-406h-92v406h-66v74h66v85q0 77 36.5 111.5t113.5 34.5l59 -6l-12 -79q-29 3 -47 3q-35 0 -46.5 -15.5t-11.5 -54.5v-79h167v124l92 23v-147h101v-74h-101v-253q0 -51 20.5 -69.5t69.5 -18.5z" />
    <glyph glyph-name="f_f_t" unicode="fft" horiz-adv-x="813" 
d="M775 65h17l-17 -75q-94 1 -137 35t-43 123v258h-167v-406h-92v406h-168v-406h-92v406h-66v74h66v85q0 77 36.5 111.5t113.5 34.5l59 -6l-12 -79q-29 3 -47 3q-35 0 -46.5 -15.5t-11.5 -54.5v-79h168v85q0 77 36.5 111.5t113.5 34.5l59 -6l-12 -79q-29 3 -47 3
q-35 0 -46.5 -15.5t-11.5 -54.5v-79h167v124l92 23v-147h101v-74h-101v-253q0 -51 20.5 -69.5t67.5 -18.5z" />
    <glyph glyph-name="f_b" unicode="fb" horiz-adv-x="786" 
d="M645 240q0 101 -25 134q-25 32 -77 32q-49 0 -83 -35t-34 -84v-98q0 -49 33.5 -82t81.5 -33q50 0 77 32q27 33 27 134zM738 240q0 -132 -43 -189q-45 -61 -133 -61q-85 0 -136 65h-4l-31 -55h-57v623q-57 6 -88 6q-48 0 -63 -17t-15 -58v-74h103v-74h-103v-406h-92v406
h-66v74h66v78q0 85 40.5 119t136.5 34q40 0 83.5 -4t66.5 -7l23 -4v-247l-5 -31l5 -2q47 74 144 74q69 0 115 -46q53 -53 53 -204z" />
    <glyph glyph-name="f_h" unicode="fh" horiz-adv-x="778" 
d="M722 325v-325h-92v316q0 90 -82 90q-56 0 -89 -37.5t-33 -98.5v-270h-92v623q-57 6 -88 6q-48 0 -63 -17t-15 -58v-74h103v-74h-103v-406h-92v406h-66v74h66v78q0 85 40.5 119t136.5 34q45 0 173 -15v-213l-4 -62l6 -1q58 70 147 70q70 0 108.5 -44t38.5 -121z" />
    <glyph glyph-name="f_j" unicode="fj" horiz-adv-x="488" 
d="M424 480v-558q0 -80 -42 -119t-131 -39h-22v84h20q48 0 65.5 21.5t17.5 63.5v473h-164v-406h-92v406h-66v74h66v76q0 82 40 118.5t129 36.5q30 0 65 -6t56 -12l20 -6l-17 -76q-66 18 -120 18q-49 0 -65 -16.5t-16 -58.5v-74h256z" />
    <glyph glyph-name="f_k" unicode="fk" horiz-adv-x="733" 
d="M716 0h-111l-139 204h-40v-204h-92v623q-57 6 -88 6q-48 0 -63 -17t-15 -58v-74h103v-74h-103v-406h-92v406h-66v74h66v78q0 85 40.5 119t136.5 34q35 0 78.5 -3.5t68.5 -7.5l26 -4v-423h39l134 207h107l-156 -238z" />
    <glyph glyph-name="f_y" unicode="fy" horiz-adv-x="726" 
d="M613 480h96l-171 -526q-35 -108 -76 -149t-126 -41h-57v84h62q42 0 60 16t37 75l9 27q-135 328 -181 440h-98v-406h-92v406h-66v74h66v85q0 77 36.5 111.5t113.5 34.5l59 -6l-12 -79q-29 3 -47 3q-35 0 -46.5 -15.5t-11.5 -54.5v-79h167l135 -334l16 -55h9q4 27 13 55z
" />
    <glyph glyph-name="f_f_b" unicode="ffb" horiz-adv-x="1046" 
d="M905 240q0 101 -25 134q-25 32 -77 32q-49 0 -83 -35t-34 -84v-98q0 -49 33.5 -82t81.5 -33q50 0 77 32q27 33 27 134zM998 240q0 -132 -43 -189q-45 -61 -133 -61q-85 0 -136 65h-4l-31 -55h-57v623q-57 6 -88 6q-48 0 -63 -17t-15 -58v-74h103v-74h-103v-406h-92v406
h-168v-406h-92v406h-66v74h66v85q0 77 36.5 111.5t113.5 34.5l59 -6l-12 -79q-29 3 -47 3q-35 0 -46.5 -15.5t-11.5 -54.5v-79h168v78q0 85 40.5 119t136.5 34q40 0 83.5 -4t66.5 -7l23 -4v-247l-5 -31l5 -2q47 74 144 74q69 0 115 -46q53 -53 53 -204z" />
    <glyph glyph-name="f_f_h" unicode="ffh" horiz-adv-x="1038" 
d="M982 325v-325h-92v316q0 90 -82 90q-56 0 -89 -37.5t-33 -98.5v-270h-92v623q-57 6 -88 6q-48 0 -63 -17t-15 -58v-74h103v-74h-103v-406h-92v406h-168v-406h-92v406h-66v74h66v85q0 77 36.5 111.5t113.5 34.5l59 -6l-12 -79q-29 3 -47 3q-35 0 -46.5 -15.5t-11.5 -54.5
v-79h168v78q0 85 40.5 119t136.5 34q45 0 173 -15v-213l-4 -62l6 -1q58 70 147 70q70 0 108.5 -44t38.5 -121z" />
    <glyph glyph-name="f_f_j" unicode="ffj" horiz-adv-x="748" 
d="M684 480v-558q0 -80 -42 -119t-131 -39h-22v84h20q48 0 65.5 21.5t17.5 63.5v473h-164v-406h-92v406h-168v-406h-92v406h-66v74h66v85q0 77 36.5 111.5t113.5 34.5l59 -6l-12 -79q-29 3 -47 3q-35 0 -46.5 -15.5t-11.5 -54.5v-79h168v76q0 82 40 118.5t129 36.5
q30 0 65 -6t56 -12l20 -6l-17 -76q-66 18 -120 18q-49 0 -65 -16.5t-16 -58.5v-74h256z" />
    <glyph glyph-name="f_f_k" unicode="ffk" horiz-adv-x="993" 
d="M976 0h-111l-139 204h-40v-204h-92v623q-57 6 -88 6q-48 0 -63 -17t-15 -58v-74h103v-74h-103v-406h-92v406h-168v-406h-92v406h-66v74h66v85q0 77 36.5 111.5t113.5 34.5l59 -6l-12 -79q-29 3 -47 3q-35 0 -46.5 -15.5t-11.5 -54.5v-79h168v78q0 85 40.5 119t136.5 34
q48 0 173 -15v-423h39l134 207h107l-156 -238z" />
    <glyph glyph-name="f_f_y" unicode="ffy" horiz-adv-x="986" 
d="M873 480h96l-171 -526q-35 -108 -76 -149t-126 -41h-57v84h62q42 0 60 16t37 75l9 27q-18 43 -181 440h-98v-406h-92v406h-168v-406h-92v406h-66v74h66v85q0 77 36.5 111.5t113.5 34.5l59 -6l-12 -79q-29 3 -47 3q-35 0 -46.5 -15.5t-11.5 -54.5v-79h168v85
q0 77 36.5 111.5t113.5 34.5l59 -6l-12 -79q-29 3 -47 3q-35 0 -46.5 -15.5t-11.5 -54.5v-79h167l135 -334l16 -55h9q4 27 13 55z" />
    <glyph glyph-name="t_t" unicode="tt" horiz-adv-x="555" 
d="M519 65h15l-17 -75q-98 0 -139 33.5t-41 124.5v258h-168v-253q0 -51 20.5 -69.5t69.5 -18.5h15l-17 -75q-98 0 -139 33.5t-41 124.5v258h-67v74h67v124l92 23v-147h168v124l92 23v-147h101v-74h-101v-253q0 -51 20.5 -69.5t69.5 -18.5z" />
    <glyph glyph-name="t_y" unicode="ty" horiz-adv-x="754" 
d="M641 480h96l-171 -526q-35 -108 -76 -149t-126 -41h-57v84h62q42 0 60 16t37 75l9 27l-181 440h-125v-253q0 -51 20.5 -69.5t69.5 -18.5h15l-17 -75q-98 0 -139 33.5t-41 124.5v258h-67v74h67v124l92 23v-147h194l135 -334l16 -55h9q4 27 13 55z" />
    <glyph glyph-name="t_t_y" unicode="tty" horiz-adv-x="1014" 
d="M901 480h96l-171 -526q-35 -108 -76 -149t-126 -41h-57v84h62q42 0 60 16t37 75l9 27l-181 440h-125v-253q0 -51 20.5 -69.5t69.5 -18.5h15l-17 -75q-98 0 -139 33.5t-41 124.5v258h-168v-253q0 -51 20.5 -69.5t69.5 -18.5h15l-17 -75q-98 0 -139 33.5t-41 124.5v258h-67
v74h67v124l92 23v-147h168v124l92 23v-147h194l135 -334l16 -55h9q4 27 13 55z" />
    <glyph glyph-name="T_i" unicode="Ti" horiz-adv-x="667" 
d="M603 480v-480h-92v480h92zM551 676v-76h-218v-600h-95v600h-218v76h531z" />
    <glyph glyph-name="f_t_y" unicode="fty" horiz-adv-x="1012" 
d="M899 480h96l-171 -526q-35 -108 -76 -149t-126 -41h-57v84h62q42 0 60 16t37 75l9 27l-181 440h-125v-253q0 -51 20.5 -69.5t69.5 -18.5h15l-17 -75q-98 0 -139 33.5t-41 124.5v258h-167v-406h-92v406h-66v74h66v85q0 77 36.5 111.5t113.5 34.5l59 -6l-12 -79
q-29 3 -47 3q-35 0 -46.5 -15.5t-11.5 -54.5v-79h167v124l92 23v-147h194l135 -334l16 -55h9q4 27 13 55z" />
    <glyph glyph-name=".notdef" horiz-adv-x="470" 
d="M117 59h235v616h-235v-616zM59 0v733h353v-733h-353z" />
    <glyph glyph-name=".null" horiz-adv-x="0" 
 />
    <glyph glyph-name="nonmarkingreturn" horiz-adv-x="333" 
 />
    <glyph glyph-name="space" unicode=" " horiz-adv-x="235" 
 />
    <glyph glyph-name="exclam" unicode="!" horiz-adv-x="253" 
d="M182 637l-30 -428h-52l-29 428q-2 31 12 43t43 12q30 0 44 -12t12 -43zM66 50q0 28 17 44t43 16t43 -16t17 -44t-17 -44t-43 -16t-43 16t-17 44z" />
    <glyph glyph-name="quotedbl" unicode="&#x22;" horiz-adv-x="350" 
d="M149 667l-32 -210h-44l-32 210q-3 21 11.5 32.5t42.5 11.5q27 0 42 -11.5t12 -32.5zM309 667l-32 -210h-44l-32 210q-3 21 11.5 32.5t42.5 11.5q27 0 42 -11.5t12 -32.5z" />
    <glyph glyph-name="numbersign" unicode="#" horiz-adv-x="530" 
d="M319 277l9 60t10 61h-119l-18 -121h118zM495 472v-74h-87l-18 -121h84v-74h-95l-30 -203h-70q4 32 14 100t15 103h-117l-34 -203h-68l30 203h-84v74h96l18 121h-91v74h101q4 28 14.5 97.5t16.5 108.5h71q-9 -57 -31 -206h117q13 83 31 206h71q-6 -39 -16.5 -108.5
t-14.5 -97.5h77z" />
    <glyph glyph-name="dollar" unicode="$" horiz-adv-x="556" 
d="M310 767v-83q85 -9 145 -44l-36 -76q-53 26 -109 34v-212l22 -5q89 -20 136.5 -65.5t47.5 -128.5q0 -86 -52 -139t-154 -61v-79h-70v79q-113 8 -181 52l32 77q80 -40 149 -45v238l-34 8q-81 19 -123.5 59t-42.5 122q0 75 51.5 127t148.5 59v83h70zM420 187q0 42 -21.5 66
t-67.5 35l-21 5v-221q53 6 81.5 35.5t28.5 79.5zM136 503q0 -42 19.5 -63.5t56.5 -30.5l28 -7v197q-104 -9 -104 -96z" />
    <glyph glyph-name="percent" unicode="%" horiz-adv-x="698" 
d="M307 526q0 -91 -35 -128q-30 -32 -89 -32q-24 0 -49 9t-39 23q-35 35 -35 128q0 89 31 125q32 36 92 36q63 0 93 -36q31 -36 31 -125zM239 526q0 62 -16 83q-12 14 -40 14q-25 0 -39 -14q-16 -18 -16 -83q0 -64 16 -82q14 -14 39 -14q27 0 41 14q15 18 15 82zM484 700h76
l-342 -713h-76zM638 150q0 -91 -35 -128q-30 -32 -89 -32q-24 0 -49 9t-39 23q-35 35 -35 128q0 89 31 125q32 36 92 36q63 0 93 -36q31 -36 31 -125zM570 150q0 62 -16 83q-12 14 -40 14q-25 0 -39 -14q-16 -18 -16 -83q0 -64 16 -82q14 -14 39 -14q27 0 41 14q15 18 15 82
z" />
    <glyph glyph-name="ampersand" unicode="&#x26;" horiz-adv-x="564" 
d="M377 86v242h-114q-65 0 -93 -31.5t-28 -94.5q0 -62 32.5 -95t115.5 -33q18 0 39.5 3t34.5 6zM544 404v-76h-75v-302q-91 -36 -186 -36q-125 0 -179 55t-54 155q0 67 24.5 110t81.5 64v3q-62 39 -62 136q0 83 49 128t142 45q68 0 120 -22l-18 -75q-46 13 -91 13
q-110 0 -110 -96q0 -47 24.5 -74.5t66.5 -27.5h267z" />
    <glyph glyph-name="quotesingle" unicode="'" horiz-adv-x="190" 
d="M149 667l-32 -210h-44l-32 210q-3 21 11.5 32.5t42.5 11.5q27 0 42 -11.5t12 -32.5z" />
    <glyph glyph-name="parenleft" unicode="(" horiz-adv-x="296" 
d="M137 267q0 -198 91 -382h-76q-107 186 -107 382q0 230 136 430h76q-120 -212 -120 -430z" />
    <glyph glyph-name="parenright" unicode=")" horiz-adv-x="296" 
d="M159 267q0 218 -120 430h76q136 -200 136 -430q0 -196 -107 -382h-76q91 184 91 382z" />
    <glyph glyph-name="asterisk" unicode="*" horiz-adv-x="418" 
d="M58 600l122 -61l7 5l-20 135q-2 16 9 24.5t33 8.5q21 0 32.5 -8.5t9.5 -24.5l-20 -135l6 -5l122 61q14 7 26 -1t18 -28q15 -45 -17 -50l-135 -24l-2 -7l95 -97q23 -25 -14 -51q-39 -29 -53 1l-65 121h-7l-63 -121q-16 -29 -53 -2q-38 28 -15 51l95 98l-2 7l-135 23
q-32 6 -18 50q15 44 44 30z" />
    <glyph glyph-name="plus" unicode="+" 
d="M455 277v-74h-168v-168h-74v168h-168v74h168v168h74v-168h168z" />
    <glyph glyph-name="comma" unicode="," horiz-adv-x="212" 
d="M47 50q0 28 17 44t43 16t43 -16t17 -44q0 -31 -29 -107l-32 -82l-40 7l20 123v2q-39 12 -39 57z" />
    <glyph glyph-name="hyphen" unicode="-" horiz-adv-x="329" 
d="M287 282v-84h-245v84h245z" />
    <glyph glyph-name="period" unicode="." horiz-adv-x="212" 
d="M46 50q0 28 17 44t43 16t43 -16t17 -44t-17 -44t-43 -16t-43 16t-17 44z" />
    <glyph glyph-name="slash" unicode="/" horiz-adv-x="296" 
d="M200 693h76l-180 -713h-76z" />
    <glyph glyph-name="zero" unicode="0" horiz-adv-x="542" 
d="M395 337q0 179 -36 226q-29 39 -88 39t-88 -39q-36 -49 -36 -226q0 -178 38 -226q30 -37 86 -37q57 0 87 37q37 47 37 226zM487 337q0 -216 -61 -285q-54 -62 -155 -62q-99 0 -154 62q-62 70 -62 285q0 208 58 282q52 67 158 67t159 -67q57 -73 57 -282z" />
    <glyph glyph-name="one" unicode="1" horiz-adv-x="287" 
d="M212 676v-676h-92v555q0 19 -22 13l-69 -15l-12 50l143 73h52z" />
    <glyph glyph-name="two" unicode="2" horiz-adv-x="481" 
d="M438 84v-84h-415v76l219 243q50 56 74 96t24 83q0 46 -29 75t-84 29q-59 0 -142 -39l-32 72q89 51 179 51q94 0 147 -54t53 -139q0 -59 -29 -111t-86 -116l-129 -143l-44 -39l3 -6q22 6 50 6h241z" />
    <glyph glyph-name="three" unicode="3" horiz-adv-x="473" 
d="M427 203q0 -106 -59 -159.5t-159 -53.5q-42 0 -87.5 12t-69.5 24l-24 12l28 72l9 -4q9 -4 23 -9t31 -10.5t39 -9t42 -3.5q135 0 135 130q0 117 -134 117h-77v76h67q113 0 113 110q0 46 -26.5 70.5t-77.5 24.5q-20 0 -41 -3.5t-33 -7.5t-26 -9.5t-15 -5.5l-27 70
q69 40 152 40q88 0 137 -45t49 -128q0 -100 -81 -141v-3q112 -36 112 -166z" />
    <glyph glyph-name="four" unicode="4" horiz-adv-x="485" 
d="M287 528l-8 1q-32 -72 -51 -105l-111 -197h167v182zM465 227v-76h-89v-151h-92v151h-264v58l262 462h94v-444h89z" />
    <glyph glyph-name="five" unicode="5" horiz-adv-x="476" 
d="M428 211q0 -66 -16.5 -111.5t-47.5 -68.5t-65 -32t-79 -9q-41 0 -80 7.5t-58 14.5l-18 8l21 78q67 -24 123 -24q59 0 88 22q40 31 40 112q0 73 -36 103q-28 24 -91 24q-62 0 -110 -16l-34 24l29 328h281v-84h-198l-15 -174q37 6 68 6q86 0 133 -35q65 -49 65 -173z" />
    <glyph glyph-name="six" unicode="6" horiz-adv-x="519" 
d="M377 214q0 73 -27 103q-25 27 -82 27q-69 0 -124 -25q-2 -24 -2 -43q0 -134 33 -171q28 -31 86 -31q63 0 89 31q27 30 27 109zM469 216q0 -113 -52 -170q-51 -56 -157 -56q-105 0 -157 70q-53 72 -53 219q0 171 87 275.5t244 131.5l17 -75q-67 -22 -109.5 -44t-79.5 -63
q-33 -37 -53 -102l3 -2q60 28 130 28q77 0 121 -39q59 -50 59 -173z" />
    <glyph glyph-name="seven" unicode="7" horiz-adv-x="385" 
d="M365 671v-60l-220 -611h-99l221 587h-247v84h345z" />
    <glyph glyph-name="eight" unicode="8" horiz-adv-x="512" 
d="M342 354l15 -9q58 -35 81.5 -76.5t23.5 -101.5q0 -177 -206 -177t-206 177q0 57 24 98t77 81l17 13l-22 14q-79 51 -79 149q0 80 49.5 122t139.5 42t139.5 -42t49.5 -122q0 -31 -7.5 -56t-24.5 -46t-30.5 -33t-40.5 -33zM142 171q0 -97 114 -97t114 97q0 38 -13.5 62
t-48.5 45l-68 40l-42 -33q-32 -25 -44 -50t-12 -64zM214 427l59 -34q48 39 61 57q19 28 19 70q0 82 -97 82t-97 -82q0 -34 13 -55t42 -38z" />
    <glyph glyph-name="nine" unicode="9" horiz-adv-x="519" 
d="M142 465q0 -74 26 -103q29 -30 93 -30q57 0 114 26q2 24 2 42q0 137 -30 171q-28 31 -88 31t-88 -31q-29 -31 -29 -106zM50 465q0 108 55 165q54 56 154 56q111 0 163 -70q47 -64 47 -219q0 -179 -83 -277.5t-248 -129.5l-17 75q62 17 106.5 39.5t81.5 61.5q43 44 59 108
l-3 2q-60 -28 -127 -28q-38 0 -73.5 12t-55.5 29q-59 50 -59 176z" />
    <glyph glyph-name="colon" unicode=":" horiz-adv-x="213" 
d="M46 50q0 28 17 44t43 16t43 -16t17 -44t-17 -44t-43 -16t-43 16t-17 44zM46 396q0 28 17 44t43 16t43 -16t17 -44t-17 -44t-43 -16t-43 16t-17 44z" />
    <glyph glyph-name="semicolon" unicode=";" horiz-adv-x="217" 
d="M46 396q0 28 17 44t43 16t43 -16t17 -44t-17 -44t-43 -16t-43 16t-17 44zM46 50q0 28 17 44t43 16t43 -16t17 -44q0 -31 -29 -107l-32 -82l-40 7l20 123v2q-39 12 -39 57z" />
    <glyph glyph-name="less" unicode="&#x3c;" 
d="M452 76v-84l-407 215v66l407 213v-84l-306 -161v-4z" />
    <glyph glyph-name="equal" unicode="=" 
d="M455 348v-74h-410v74h410zM455 206v-74h-410v74h410z" />
    <glyph glyph-name="greater" unicode="&#x3e;" 
d="M48 -8v84l306 161v4l-306 161v84l407 -213v-66z" />
    <glyph glyph-name="question" unicode="?" horiz-adv-x="372" 
d="M332 538q0 -55 -21.5 -91.5t-64.5 -65.5q-3 -2 -12 -8.5t-12.5 -9t-10.5 -8t-9.5 -8.5t-7 -9t-6.5 -11.5t-3.5 -13t-2.5 -15.5l-7 -95h-66l-6 102q-3 50 15 77t61 58q61 44 61 93q0 35 -22 55t-60 20q-46 0 -92 -22l-26 72q63 34 136 34q67 0 111.5 -39t44.5 -115zM82 50
q0 28 17 44t43 16t43 -16t17 -44t-17 -44t-43 -16t-43 16t-17 44z" />
    <glyph glyph-name="at" unicode="@" horiz-adv-x="784" 
d="M648 94l14 -42q-110 -62 -262 -62q-150 0 -232 61q-53 39 -83 99t-30 177q0 187 111 275q87 67 232 67q148 0 233 -67q98 -77 98 -229q0 -115 -53 -171t-131 -56q-97 0 -105 75h-10q-45 -66 -116 -66q-44 0 -70.5 26.5t-26.5 77.5q0 55 22.5 115.5t62.5 95.5
q45 39 132 39q29 0 61 -5t49 -10l18 -5l-57 -237q-11 -48 46 -48q44 0 77 38.5t33 129.5q0 120 -72 179q-68 54 -192 54q-120 0 -188 -54q-86 -69 -86 -224q0 -164 86 -226q32 -24 85 -38t108 -14q127 0 246 45zM452 314l32 129q-28 6 -60 6q-51 0 -79 -25q-26 -25 -42 -71
t-16 -85q0 -25 14 -39t39 -14q37 0 70 30.5t42 68.5z" />
    <glyph glyph-name="A" unicode="A" horiz-adv-x="606" 
d="M203 261h200l-79 216l-16 65h-10q-5 -31 -17 -65zM353 676l243 -676h-99l-67 185h-254l-67 -185h-99l243 676h100z" />
    <glyph glyph-name="B" unicode="B" horiz-adv-x="572" 
d="M426 197q0 116 -108 116h-147v-228h145q51 0 80.5 28.5t29.5 83.5zM395 494q0 97 -99 97h-125v-202h126q44 0 71 26t27 79zM522 194q0 -97 -56.5 -145.5t-156.5 -48.5h-233v676h223q87 0 139.5 -43t52.5 -128q0 -53 -22.5 -89.5t-58.5 -49.5v-4q51 -15 81.5 -58.5
t30.5 -109.5z" />
    <glyph glyph-name="C" unicode="C" horiz-adv-x="530" 
d="M486 102l22 -73q-74 -44 -182 -44q-122 0 -187 60q-40 38 -62 103t-22 190q0 117 21 181t60 102q73 70 193 70q83 0 157 -32l-24 -76q-71 23 -127 23q-85 0 -131 -47q-53 -55 -53 -221q0 -173 57 -228q40 -40 125 -40q78 0 153 32z" />
    <glyph glyph-name="D" unicode="D" horiz-adv-x="632" 
d="M481 323q0 165 -47 218q-44 50 -141 50h-122v-506h163q64 0 102 38q45 43 45 200zM577 322q0 -110 -17.5 -165t-50.5 -92q-57 -65 -169 -65h-264v676h222q138 0 206 -73q36 -39 54.5 -99t18.5 -182z" />
    <glyph glyph-name="E" unicode="E" horiz-adv-x="488" 
d="M482 76v-76h-406v676h383v-76h-288v-205h186v-76h-186v-243h311z" />
    <glyph glyph-name="F" unicode="F" horiz-adv-x="445" 
d="M439 676v-76h-268v-213h192v-76h-192v-311h-95v676h363z" />
    <glyph glyph-name="G" unicode="G" horiz-adv-x="638" 
d="M582 363v-299q-46 -39 -108.5 -59t-123.5 -20q-134 0 -207 63q-43 37 -65 100t-22 188q0 207 81 284q74 71 207 71q121 0 206 -50l-26 -76q-86 41 -174 41q-102 0 -151 -56q-46 -54 -46 -214q0 -154 49 -210q48 -56 148 -56q83 0 137 36v181h-157v76h252z" />
    <glyph glyph-name="H" unicode="H" horiz-adv-x="689" 
d="M613 676v-676h-95v318h-347v-318h-95v676h95v-282h347v282h95z" />
    <glyph glyph-name="I" unicode="I" horiz-adv-x="247" 
d="M171 676v-676h-95v676h95z" />
    <glyph glyph-name="J" unicode="J" horiz-adv-x="315" 
d="M249 676v-441q0 -134 -61 -192t-198 -58v85q85 0 124.5 35t39.5 123v448h95z" />
    <glyph glyph-name="K" unicode="K" horiz-adv-x="546" 
d="M171 676v-307h48l204 307h110l-230 -341l238 -335h-114l-209 294h-47v-294h-95v676h95z" />
    <glyph glyph-name="L" unicode="L" horiz-adv-x="467" 
d="M461 76v-76h-385v676h95v-600h290z" />
    <glyph glyph-name="M" unicode="M" horiz-adv-x="814" 
d="M622 454l-181 -368h-68l-181 368l-17 40l-7 -1q3 -37 3 -54v-439h-95v676h101l227 -467h6q34 68 109.5 225.5t117.5 241.5h101v-676h-95v439l3 54l-7 1q-9 -23 -17 -40z" />
    <glyph glyph-name="N" unicode="N" horiz-adv-x="695" 
d="M619 676v-676h-98l-318 469l-32 58l-7 -2q7 -54 7 -76v-449h-95v676h98l318 -469l29 -55l7 2q-4 47 -4 69v453h95z" />
    <glyph glyph-name="O" unicode="O" horiz-adv-x="678" 
d="M527 337q0 174 -56 225q-50 44 -132 44t-132 -44q-56 -51 -56 -225q0 -171 54 -221q49 -46 134 -46q86 0 135 46q53 51 53 221zM623 337q0 -212 -83 -286q-72 -66 -201 -66t-201 66q-83 76 -83 286q0 206 80 284q71 70 204 70q134 0 205 -70q79 -75 79 -284z" />
    <glyph glyph-name="P" unicode="P" horiz-adv-x="523" 
d="M387 470q0 62 -23.5 91.5t-76.5 29.5h-116v-246h116q53 0 76.5 31t23.5 94zM483 470q0 -201 -191 -201h-121v-269h-95v676h212q94 0 144.5 -53t50.5 -153z" />
    <glyph glyph-name="Q" unicode="Q" horiz-adv-x="678" 
d="M623 337q0 -212 -83 -286q-6 -6 -16 -14l50 -81l-64 -39l-53 85q-54 -17 -118 -17q-129 0 -201 66q-83 76 -83 286q0 206 80 284q71 70 204 70q134 0 205 -70q79 -75 79 -284zM527 337q0 174 -56 225q-50 44 -132 44t-132 -44q-56 -51 -56 -225q0 -171 54 -221
q49 -46 134 -46q40 0 70 10l-53 87l64 39l55 -89q52 52 52 220z" />
    <glyph glyph-name="R" unicode="R" horiz-adv-x="556" 
d="M430 317q-30 -26 -79 -35l199 -282h-114l-190 274h-75v-274h-95v676h212q94 0 145 -52.5t51 -152.5q0 -107 -54 -154zM388 471q0 120 -101 120h-116v-241h116q101 0 101 121z" />
    <glyph glyph-name="S" unicode="S" horiz-adv-x="544" 
d="M500 193q0 -91 -57.5 -149.5t-173.5 -58.5q-123 0 -225 75l42 73q89 -63 181 -63q66 0 101.5 32t35.5 84q0 47 -26.5 75.5t-82.5 42.5l-92 24q-74 20 -114.5 60.5t-40.5 114.5q0 80 56.5 134t163.5 54q110 0 191 -59l-43 -74q-76 48 -150 48q-55 0 -88.5 -25.5
t-33.5 -69.5q0 -72 79 -94l99 -26q91 -24 134.5 -70t43.5 -128z" />
    <glyph glyph-name="T" unicode="T" horiz-adv-x="551" 
d="M541 676v-76h-218v-600h-95v600h-218v76h531z" />
    <glyph glyph-name="U" unicode="U" horiz-adv-x="633" 
d="M567 676v-470q0 -110 -67.5 -165.5t-183.5 -55.5q-115 0 -182.5 55.5t-67.5 165.5v470h96v-463q0 -143 154 -143q155 0 155 143v463h96z" />
    <glyph glyph-name="V" unicode="V" horiz-adv-x="604" 
d="M498 676h98l-243 -676h-102l-243 676h98l169 -469l23 -86h8q14 61 23 86z" />
    <glyph glyph-name="W" unicode="W" horiz-adv-x="916" 
d="M655 120q9 51 19 87l136 469h98l-197 -676h-108l-125 388l-16 74h-8q-8 -49 -16 -74l-125 -388h-108l-197 676h98l136 -469l21 -87h8q11 56 20 87l134 414h67l133 -414l21 -87h9z" />
    <glyph glyph-name="X" unicode="X" horiz-adv-x="528" 
d="M333 348l187 -348h-106l-132 246l-15 36h-6q-5 -18 -15 -36l-132 -246h-106l187 348l-176 328h106l121 -228l14 -36h8q5 18 14 36l121 228h106z" />
    <glyph glyph-name="Y" unicode="Y" horiz-adv-x="598" 
d="M303 366q9 26 23 50l155 260h109l-243 -409v-267h-96v267l-243 409h109l155 -260q6 -10 12 -22.5t8 -19.5l3 -8h8z" />
    <glyph glyph-name="Z" unicode="Z" horiz-adv-x="518" 
d="M496 76v-76h-474l305 557q6 12 12.5 21.5t10.5 13.5l3 3l-1 5h-296v76h439l-307 -561l-25 -35l1 -4h332z" />
    <glyph glyph-name="bracketleft" unicode="[" horiz-adv-x="271" 
d="M253 -43v-57h-177v791h177v-57h-93v-677h93z" />
    <glyph glyph-name="backslash" unicode="\" horiz-adv-x="294" 
d="M94 693l181 -713h-76l-180 713h75z" />
    <glyph glyph-name="bracketright" unicode="]" horiz-adv-x="270" 
d="M18 -100v58h92v675h-92v58h176v-791h-176z" />
    <glyph glyph-name="asciicircum" unicode="^" 
d="M283 677l197 -307h-85l-139 211h-11l-140 -211h-85l199 307h64z" />
    <glyph glyph-name="underscore" unicode="_" horiz-adv-x="477" 
d="M477 -71v-47h-477v47h477z" />
    <glyph glyph-name="grave" unicode="`" horiz-adv-x="470" 
d="M119 641q0 14 10.5 23t28.5 9q35 0 57 -27l87 -112h-47l-116 74q-20 13 -20 33z" />
    <glyph glyph-name="a" unicode="a" horiz-adv-x="512" 
d="M354 133v96q-75 -5 -137 -16q-81 -16 -81 -76q0 -30 19 -46.5t52 -16.5q38 0 79.5 16.5t67.5 42.5zM478 83l16 -5l-26 -88q-82 4 -108 68h-6q-28 -31 -71.5 -49.5t-90.5 -18.5q-67 0 -107.5 37t-40.5 106q0 133 159 159q24 4 151 16v19q0 44 -21 61.5t-76 17.5
q-69 0 -163 -38l-25 76q101 46 191 46q186 0 186 -160v-200q0 -24 7 -32.5t25 -14.5z" />
    <glyph glyph-name="b" unicode="b" horiz-adv-x="516" 
d="M375 240q0 101 -25 134q-25 32 -77 32q-49 0 -83 -35t-34 -84v-98q0 -49 33.5 -82t81.5 -33q50 0 77 32q27 33 27 134zM468 240q0 -132 -43 -189q-45 -61 -133 -61q-85 0 -136 65h-4l-31 -55h-57v696h92v-247l-5 -31l5 -2q47 74 144 74q69 0 115 -46q53 -53 53 -204z" />
    <glyph glyph-name="c" unicode="c" horiz-adv-x="421" 
d="M361 94l24 -70q-22 -14 -61 -24t-75 -10q-100 0 -150 50q-51 51 -51 200t54 201q51 49 144 49q76 0 131 -30l-25 -72q-48 18 -98 18q-58 0 -83 -26q-29 -31 -29 -129q0 -115 26 -147q23 -30 89 -30q44 0 104 20z" />
    <glyph glyph-name="d" unicode="d" horiz-adv-x="518" 
d="M361 192v91q0 51 -33.5 87t-82.5 36q-53 0 -79 -36q-25 -37 -25 -130q0 -94 25 -130q26 -36 79 -36q48 0 82 34.5t34 83.5zM453 696v-563q0 -22 6.5 -32.5t25.5 -17.5l15 -5l-26 -88q-78 6 -109 68h-4q-54 -68 -139 -68q-96 0 -140 79q-34 61 -34 171q0 148 57 205
q45 45 120 45q42 0 79.5 -19.5t54.5 -52.5l6 2q-4 21 -4 38v238h92z" />
    <glyph glyph-name="e" unicode="e" horiz-adv-x="491" 
d="M140 298h217v16q0 53 -23 72.5t-81 19.5t-85.5 -23t-27.5 -85zM418 114l27 -67q-31 -22 -81 -39.5t-102 -17.5q-111 0 -162 54q-52 54 -52 196q0 83 13 127t39 71q50 52 153 52q97 0 146.5 -46t49.5 -134l-2 -86h-307v-8q0 -88 32 -117q28 -25 93 -25q67 0 153 40z" />
    <glyph glyph-name="f" unicode="f" horiz-adv-x="284" 
d="M285 705l-12 -79q-29 3 -47 3q-35 0 -46.5 -15.5t-11.5 -54.5v-79h103v-74h-103v-406h-92v406h-66v74h66v85q0 77 36.5 111.5t113.5 34.5z" />
    <glyph glyph-name="g" unicode="g" horiz-adv-x="513" 
d="M356 322q0 94 -102 94t-102 -94q0 -92 102 -92t102 92zM309 -2h-105q-26 -6 -45 -27t-19 -52q0 -38 24 -59.5t69 -21.5h64q93 0 93 86q0 34 -21.5 54t-59.5 20zM64 103q0 54 51 94q-55 44 -55 126q0 80 52 123.5t142 43.5q24 0 48.5 -2.5t37.5 -5.5l13 -2h132v-75h-29
q-29 0 -55 10l-4 -6q51 -44 51 -100q0 -68 -45 -110.5t-143 -42.5q-45 0 -80 11q-26 -12 -26 -45q0 -48 63 -48h104q72 0 116.5 -41t44.5 -111q0 -73 -46 -115.5t-132 -42.5h-79q-87 0 -132 36.5t-45 95.5q0 37 19.5 68.5t53.5 45.5v2q-57 31 -57 91z" />
    <glyph glyph-name="h" unicode="h" horiz-adv-x="508" 
d="M452 325v-325h-92v316q0 90 -82 90q-56 0 -89 -37.5t-33 -98.5v-270h-92v696h92v-213l-4 -62l6 -1q58 70 147 70q70 0 108.5 -44t38.5 -121z" />
    <glyph glyph-name="i" unicode="i" horiz-adv-x="220" 
d="M156 480v-480h-92v480h92zM50 626q0 28 17 44t43 16t43 -16t17 -44t-17 -44t-43 -16t-43 16t-17 44z" />
    <glyph glyph-name="j" unicode="j" horiz-adv-x="221" 
d="M156 480v-558q0 -80 -42 -119t-131 -39h-22v84h20q48 0 65.5 21.5t17.5 63.5v547h92zM50 626q0 28 17 44t43 16t43 -16t17 -44t-17 -44t-43 -16t-43 16t-17 44z" />
    <glyph glyph-name="k" unicode="k" horiz-adv-x="463" 
d="M446 0h-111l-139 204h-40v-204h-92v696h92v-423h39l134 207h107l-156 -238z" />
    <glyph glyph-name="l" unicode="l" horiz-adv-x="247" 
d="M211 -10q-75 2 -111 35.5t-36 112.5v558h92v-533q0 -45 10.5 -60.5t45.5 -25.5l18 -5z" />
    <glyph glyph-name="m" unicode="m" horiz-adv-x="771" 
d="M297 490q92 0 124 -86h5q56 86 151 86q68 0 103 -44t35 -121v-325h-92v316q0 43 -18.5 66.5t-51.5 23.5q-52 0 -85 -37.5t-33 -97.5v-271h-92v316q0 42 -19 66t-51 24q-51 0 -84 -37.5t-33 -95.5v-273h-92v480h57l33 -60h3q56 70 140 70z" />
    <glyph glyph-name="n" unicode="n" horiz-adv-x="508" 
d="M452 326v-326h-92v316q0 90 -84 90q-54 0 -87 -37t-33 -99v-270h-92v480h57l33 -60h4q58 70 147 70q70 0 108.5 -44t38.5 -120z" />
    <glyph glyph-name="o" unicode="o" horiz-adv-x="495" 
d="M447 240q0 -70 -9.5 -116.5t-42.5 -79.5q-56 -54 -148 -54q-93 0 -147 54q-32 32 -42 78t-10 118t10.5 119.5t44.5 79.5q53 51 144 51q92 0 146 -51q33 -32 43.5 -78.5t10.5 -120.5zM355 240q0 109 -30 139q-27 27 -78 27q-50 0 -77 -27q-14 -14 -21 -40.5t-8 -45.5
t-1 -53q0 -109 30 -139q27 -27 77 -27q48 0 77 27q20 20 25.5 50.5t5.5 88.5z" />
    <glyph glyph-name="p" unicode="p" horiz-adv-x="515" 
d="M375 240q0 106 -32 141q-24 25 -71 25q-48 0 -82 -34t-34 -83v-90q0 -51 33 -88t84 -37q43 0 66 22q36 32 36 144zM467 240q0 -146 -59 -205q-45 -45 -117 -45q-89 0 -135 61l-5 -3q5 -15 5 -35v-239h-92v706h58l31 -57h6q57 67 142 67q70 0 113 -44q53 -55 53 -206z" />
    <glyph glyph-name="q" unicode="q" horiz-adv-x="514" 
d="M358 216v177q-44 13 -97 13q-58 0 -88 -30q-33 -33 -33 -136q0 -102 31 -138q25 -28 68 -28q51 0 85 43t34 99zM450 469v-695h-92v248l6 45l-5 2q-53 -79 -145 -79q-68 0 -112 44q-27 28 -40.5 74t-13.5 132q0 84 13.5 124t40.5 68q56 58 167 58q40 0 85.5 -5t70.5 -11z
" />
    <glyph glyph-name="r" unicode="r" horiz-adv-x="319" 
d="M280 490h22l-11 -84h-15q-62 0 -91 -37.5t-29 -114.5v-254h-92v480h55l33 -60h6q45 70 122 70z" />
    <glyph glyph-name="s" unicode="s" horiz-adv-x="475" 
d="M430 143q-1 -63 -44 -108t-140 -45q-51 0 -105.5 18t-95.5 48l38 71q34 -22 78.5 -37.5t80.5 -15.5q51 0 73.5 19.5t22.5 48.5q0 48 -64 57l-105 15q-120 17 -120 126q0 69 51.5 109.5t133.5 40.5q86 0 163 -40l-29 -74q-69 30 -134 30q-38 0 -60 -11.5t-27.5 -23.5
t-5.5 -25q0 -42 55 -50l98 -15q136 -21 136 -138z" />
    <glyph glyph-name="t" unicode="t" horiz-adv-x="295" 
d="M259 65h15l-17 -75q-98 0 -139 33.5t-41 124.5v258h-67v74h67v124l92 23v-147h101v-74h-101v-253q0 -51 20.5 -69.5t69.5 -18.5z" />
    <glyph glyph-name="u" unicode="u" horiz-adv-x="510" 
d="M444 480v-343q0 -26 6.5 -37t25.5 -17l16 -5l-26 -88q-82 5 -108 71h-6q-56 -71 -144 -71q-73 0 -112.5 43t-39.5 125v322h92v-310q0 -96 78 -96q59 0 92.5 42t33.5 111v253h92z" />
    <glyph glyph-name="v" unicode="v" horiz-adv-x="454" 
d="M343 480h94l-145 -480h-130l-145 480h93l95 -308l17 -73h10q11 53 17 73z" />
    <glyph glyph-name="w" unicode="w" horiz-adv-x="690" 
d="M580 480h93l-134 -480h-87l-93 246l-11 48h-7q-5 -31 -12 -48l-92 -246h-87l-133 480h93l81 -294l11 -53h8q6 34 14 53l98 261h45l98 -261l14 -53h8q5 31 12 53z" />
    <glyph glyph-name="x" unicode="x" horiz-adv-x="443" 
d="M290 245l137 -245h-101l-73 131l-28 63h-8q-12 -36 -27 -63l-73 -131h-101l136 245l-129 235h100l73 -132l21 -51h8q8 27 21 51l73 132h101z" />
    <glyph glyph-name="y" unicode="y" horiz-adv-x="507" 
d="M394 480h96l-171 -526q-35 -108 -76 -149t-126 -41h-57v84h62q42 0 60 16t37 75l9 27l-211 514h99l135 -334l16 -55h9q4 27 13 55z" />
    <glyph glyph-name="z" unicode="z" horiz-adv-x="453" 
d="M411 74v-74h-369v36l209 329q6 10 14 19.5t13 13.5l4 4v4h-220v74h349v-30l-214 -339q-4 -7 -11 -15t-12 -12l-4 -5l1 -5h240z" />
    <glyph glyph-name="braceleft" unicode="{" horiz-adv-x="274" 
d="M254 -42v-58q-80 0 -118 34.5t-38 111.5v155q0 28 -16 44.5t-45 16.5h-17v66h17q29 0 45 16.5t16 43.5v156q0 78 38 112.5t118 34.5v-58q-39 -1 -56 -22.5t-17 -67.5v-148q0 -81 -75 -95v-11q75 -13 75 -95v-146q0 -46 17 -67.5t56 -22.5z" />
    <glyph glyph-name="bar" unicode="|" horiz-adv-x="226" 
d="M151 712v-752h-76v752h76z" />
    <glyph glyph-name="braceright" unicode="}" horiz-adv-x="274" 
d="M20 -100v58q39 1 56 22.5t17 67.5v146q0 82 75 95v11q-75 14 -75 95v148q0 46 -17 67.5t-56 22.5v58q80 0 118 -34.5t38 -112.5v-156q0 -27 16 -43.5t46 -16.5h16v-66h-16q-30 0 -46 -16.5t-16 -44.5v-155q0 -77 -38 -111.5t-118 -34.5z" />
    <glyph glyph-name="asciitilde" unicode="~" 
d="M402 303h46q2 -71 -25 -97.5t-95 -17.5l-158 22q-62 8 -72 -40h-46q-2 63 27 93.5t93 21.5l163 -23q33 -4 47.5 5.5t19.5 35.5z" />
    <glyph glyph-name="nbspace" unicode="&#xa0;" horiz-adv-x="235" 
 />
    <glyph glyph-name="exclamdown" unicode="&#xa1;" horiz-adv-x="253" 
d="M71 -158l30 428h52l29 -428q2 -31 -12 -43t-43 -12q-30 0 -44 12t-12 43zM67 429q0 28 17 44t43 16t43 -16t17 -44t-17 -44t-43 -16t-43 16t-17 44z" />
    <glyph glyph-name="cent" unicode="&#xa2;" horiz-adv-x="407" 
d="M199 -75v68q-70 9 -108 47q-51 51 -51 200t54 201q37 37 105 46v68h70v-67q56 -4 100 -28l-25 -72q-48 18 -98 18q-58 0 -83 -26q-29 -31 -29 -129q0 -115 26 -147q23 -30 89 -30q44 0 104 20l24 -70q-38 -25 -108 -32v-67h-70z" />
    <glyph glyph-name="sterling" unicode="&#xa3;" horiz-adv-x="539" 
d="M32 317v66h99v106q0 105 40 153.5t136 48.5q69 0 131 -29l-21 -73q-63 18 -101 18q-51 0 -72 -27t-21 -94v-103h154v-66h-154v-100q0 -75 -36 -111l1 -3q32 -2 87 -15.5t81 -13.5q31 0 41 14t10 45h92v-18q0 -61 -27 -93t-100 -32q-35 0 -104.5 17t-103.5 17
q-43 0 -100 -36q-7 12 -22 35.5t-22 35.5q56 35 83.5 70.5t27.5 96.5v91h-99z" />
    <glyph glyph-name="currency" unicode="&#xa4;" horiz-adv-x="492" 
d="M52 287q0 57 32 107l-64 65l52 52l63 -64q49 35 111 35q58 0 110 -35l64 64l52 -52l-65 -65q34 -49 34 -107q0 -62 -35 -111l66 -65l-52 -52l-67 66q-50 -32 -107 -32q-58 0 -108 32l-66 -66l-52 52l66 66q-34 48 -34 110zM127 287q0 -50 34.5 -84.5t84.5 -34.5t85 34.5
t35 84.5q0 49 -35 84.5t-85 35.5t-84.5 -35t-34.5 -85z" />
    <glyph glyph-name="yen" unicode="&#xa5;" horiz-adv-x="638" 
d="M204 380l-176 296h109l155 -260q6 -10 12 -22.5t8 -19.5l3 -8h8q9 26 23 50l155 260h109l-176 -296q-6 -11 -13.5 -20.5t-12.5 -13.5l-4 -5l2 -3h118v-66h-154l-3 -5v-67h157v-66h-157v-134h-96v134h-157v66h157v67l-3 5h-154v66h118l2 3q-16 15 -30 39z" />
    <glyph glyph-name="brokenbar" unicode="&#xa6;" horiz-adv-x="226" 
d="M151 165v-353h-76v353h76zM151 692v-354h-76v354h76z" />
    <glyph glyph-name="section" unicode="&#xa7;" horiz-adv-x="504" 
d="M123 -176l18 80q37 -8 78 -8q92 0 92 64q0 5 -1 10t-2 9.5t-4.5 10t-5 8.5t-6.5 9t-7 8.5t-8 9t-7.5 8l-8.5 8.5l-8 8l-112 107q-72 70 -70 139q2 71 78 136q-48 55 -48 111q2 70 47.5 109.5t129.5 39.5q60 0 103 -13l-18 -79q-37 8 -78 8q-92 0 -92 -61q0 -16 10.5 -34
t19.5 -28t28 -29l112 -107q72 -70 70 -140q-2 -75 -79 -135q49 -58 49 -113q0 -69 -46.5 -108.5t-130.5 -39.5q-55 0 -103 12zM301 286l-98 95q-39 -40 -40 -82q-1 -43 40 -82l98 -95q39 42 40 83q1 40 -40 81z" />
    <glyph glyph-name="dieresis" unicode="&#xa8;" horiz-adv-x="470" 
d="M80 626q0 28 17 44t43 16t43 -16t17 -44t-17 -44t-43 -16t-43 16t-17 44zM270 626q0 28 17 44t43 16t43 -16t17 -44t-17 -44t-43 -16t-43 16t-17 44z" />
    <glyph glyph-name="copyright" unicode="&#xa9;" horiz-adv-x="764" 
d="M650 320q0 111 -78 189t-190 78q-111 0 -189.5 -78t-78.5 -190q0 -111 78.5 -189.5t190.5 -78.5q111 0 189 78.5t78 190.5zM716 320q0 -139 -97.5 -237t-235.5 -98q-139 0 -237 97.5t-98 236.5t97.5 236.5t236.5 97.5t236.5 -97.5t97.5 -235.5zM476 223l18 -55
q-44 -27 -103 -27q-71 0 -107 36q-40 38 -40 142q0 101 41 142q36 35 105 35q53 0 97 -22l-16 -57q-40 14 -71 14q-42 0 -60 -18q-21 -19 -21 -94q0 -74 21 -95q17 -17 60 -17q34 0 76 16z" />
    <glyph glyph-name="ordfeminine" unicode="&#xaa;" horiz-adv-x="304" 
d="M190 515v40q-48 -5 -69 -10q-33 -7 -33 -31q0 -10 8.5 -17.5t23.5 -7.5q42 0 70 26zM261 497l11 -3l-14 -51q-49 3 -64 29q-36 -31 -84 -31q-36 0 -57 18t-21 54q0 33 17.5 51.5t53.5 26.5q13 3 34.5 5.5t36.5 3.5l16 1v5q0 19 -10 27t-35 8q-37 0 -86 -20l-15 44
q58 26 103 26q99 0 99 -83v-89q0 -18 15 -22z" />
    <glyph glyph-name="guillemotleft" unicode="&#xab;" horiz-adv-x="483" 
d="M171 27l-128 211l128 211h86l-128 -211l128 -211h-86zM354 27l-129 211l129 211h86l-129 -211l129 -211h-86z" />
    <glyph glyph-name="logicalnot" unicode="&#xac;" 
d="M455 277v-169h-74v95h-336v74h410z" />
    <glyph glyph-name="registered" unicode="&#xae;" horiz-adv-x="461" 
d="M161 409v204h81q26 0 41.5 -15t15.5 -45q0 -53 -37 -61l57 -83h-46l-54 81h-18v-81h-40zM258 553q0 28 -28 28h-29v-59h28q29 0 29 31zM31 508q0 84 58 142t141 58t141.5 -58t58.5 -142t-58.5 -141.5t-141.5 -57.5t-141 57.5t-58 141.5zM75 508q0 -66 45 -110.5
t110 -44.5t110.5 44.5t45.5 110.5t-45.5 111t-110.5 45t-110 -45t-45 -111z" />
    <glyph glyph-name="macron" unicode="&#xaf;" horiz-adv-x="470" 
d="M358 626v-73h-246v73h246z" />
    <glyph glyph-name="degree" unicode="&#xb0;" horiz-adv-x="373" 
d="M277 567q0 37 -26.5 63.5t-64.5 26.5q-37 0 -63.5 -26.5t-26.5 -64.5q0 -37 27 -63.5t64 -26.5t63.5 26.5t26.5 64.5zM331 567q0 -60 -42.5 -102.5t-101.5 -42.5q-60 0 -102.5 42.5t-42.5 101.5q0 60 42.5 102.5t101.5 42.5q60 0 102.5 -42.5t42.5 -101.5z" />
    <glyph glyph-name="plusminus" unicode="&#xb1;" 
d="M455 66v-74h-410v74h410zM455 281v-74h-168v-112h-74v112h-168v74h168v168h74v-168h168z" />
    <glyph glyph-name="twosuperior" unicode="&#xb2;" horiz-adv-x="293" 
d="M254 414v-64h-218v63l106 115q36 40 36 65q0 16 -11 26t-32 10q-35 0 -76 -18l-16 55q48 25 94 25q53 0 81 -27t28 -71q0 -49 -57 -111l-47 -51l-23 -16l4 -7q16 6 26 6h105z" />
    <glyph glyph-name="threesuperior" unicode="&#xb3;" horiz-adv-x="271" 
d="M184 535v-4q55 -20 55 -78q0 -52 -32 -79.5t-85 -27.5q-38 0 -101 21q1 4 8 24.5t10 31.5q2 -1 12 -4t28.5 -6t33.5 -3q58 0 58 45q0 42 -59 42h-48v58h45q45 0 45 36t-41 36q-29 0 -63 -10l-17 55q44 19 88 19q49 0 75 -23t26 -64q0 -45 -38 -69z" />
    <glyph glyph-name="acute" unicode="&#xb4;" horiz-adv-x="470" 
d="M417 641q0 -20 -20 -33l-116 -74h-47l87 112q22 27 57 27q18 0 28.5 -9t10.5 -23z" />
    <glyph glyph-name="mu" unicode="&#xb5;" horiz-adv-x="526" 
d="M452 480v-343q0 -26 6.5 -37t25.5 -17l16 -5l-26 -88q-82 5 -108 71h-6q-56 -71 -142 -71q-36 0 -66 11l-1 -1q5 -22 5 -53v-174h-92v707h92v-310q0 -96 78 -96q59 0 92.5 42t33.5 111v253h92z" />
    <glyph glyph-name="paragraph" unicode="&#xb6;" horiz-adv-x="472" 
d="M452 677v-58h-63v-619h-62v619h-74v-619h-62v360q-75 7 -118 50t-43 109q0 71 49 114.5t132 43.5h241z" />
    <glyph glyph-name="periodcentered" unicode="&#xb7;" horiz-adv-x="253" 
d="M66 248q0 28 17 44t43 16t43 -16t17 -44t-17 -44t-43 -16t-43 16t-17 44z" />
    <glyph glyph-name="cedilla" unicode="&#xb8;" horiz-adv-x="470" 
d="M395 -130q0 -44 -26.5 -65t-87.5 -21q-21 0 -45 3t-38 7l-13 3l6 45q53 -8 79 -8q51 0 51 36q0 18 -11.5 26.5t-40.5 8.5h-54l21 99h58l-11 -56h15q97 0 97 -78z" />
    <glyph glyph-name="onesuperior" unicode="&#xb9;" horiz-adv-x="202" 
d="M148 687v-337h-68v261q0 12 -12 9l-32 -9l-10 37l76 39h46z" />
    <glyph glyph-name="ordmasculine" unicode="&#xba;" horiz-adv-x="273" 
d="M185 566q0 39 -9.5 57t-38.5 18q-28 0 -38.5 -17t-10.5 -58q0 -42 10.5 -58.5t38.5 -16.5q27 0 37.5 16.5t10.5 58.5zM241 566q0 -70 -28 -98q-27 -27 -76 -27q-50 0 -77 27q-28 28 -28 98q0 69 30 99q28 26 75 26q49 0 75 -26q29 -28 29 -99z" />
    <glyph glyph-name="guillemotright" unicode="&#xbb;" horiz-adv-x="483" 
d="M440 238l-128 -211h-86l128 211l-128 211h86zM257 238l-128 -211h-86l128 211l-128 211h86z" />
    <glyph glyph-name="onequarter" unicode="&#xbc;" horiz-adv-x="572" 
d="M148 676v-337h-68v261q0 12 -12 9l-32 -9l-10 37l76 39h46zM383 693h74l-319 -713h-75zM450 249l-13 2q-14 -40 -22 -55l-44 -75h74v69zM554 121v-54h-41v-67h-68v67h-143v43l131 227h80v-216h41z" />
    <glyph glyph-name="onehalf" unicode="&#xbd;" horiz-adv-x="596" 
d="M148 676v-337h-68v261q0 12 -12 9l-32 -9l-10 37l76 39h46zM383 693h74l-319 -713h-75zM557 64v-64h-218v63l106 115q36 40 36 65q0 16 -11 26t-32 10q-35 0 -76 -18l-16 55q48 25 94 25q53 0 81 -27t28 -71q0 -49 -57 -111l-47 -51l-23 -16l4 -7q16 6 26 6h105z" />
    <glyph glyph-name="threequarters" unicode="&#xbe;" horiz-adv-x="632" 
d="M184 524v-4q54 -19 54 -78q0 -52 -31.5 -79.5t-84.5 -27.5q-38 0 -101 21q2 6 8.5 25t9.5 30q2 -1 12 -4t28.5 -6t33.5 -3q58 0 58 46q0 42 -61 42h-46v58h45q45 0 45 36t-41 36q-29 0 -63 -10l-17 55q44 19 88 19q49 0 75 -23t26 -64q0 -45 -38 -69zM444 693h74
l-319 -713h-75zM510 249l-13 2q-14 -40 -22 -55l-44 -75h74v69zM614 121v-54h-41v-67h-68v67h-143v43l131 227h80v-216h41z" />
    <glyph glyph-name="questiondown" unicode="&#xbf;" horiz-adv-x="372" 
d="M40 -59q0 55 21.5 91.5t64.5 65.5q3 2 12 8.5t12.5 9t10.5 8t9.5 8.5t7 9t6.5 11.5t3.5 13t2.5 15.5l7 95h66l6 -102q3 -50 -15 -77t-61 -58q-61 -44 -61 -93q0 -35 22 -55t60 -20q46 0 92 22l26 -72q-63 -34 -136 -34q-67 0 -111.5 39t-44.5 115zM170 429q0 28 17 44
t43 16t43 -16t17 -44t-17 -44t-43 -16t-43 16t-17 44z" />
    <glyph glyph-name="Agrave" unicode="&#xc0;" horiz-adv-x="606" 
d="M203 261h200l-79 216l-16 65h-10q-5 -31 -17 -65zM353 676l243 -676h-99l-67 185h-254l-67 -185h-99l243 676h100zM163 840q0 14 10.5 23t28.5 9q35 0 57 -27l87 -112h-47l-116 74q-20 13 -20 33z" />
    <glyph glyph-name="Aacute" unicode="&#xc1;" horiz-adv-x="606" 
d="M203 261h200l-79 216l-16 65h-10q-5 -31 -17 -65zM353 676l243 -676h-99l-67 185h-254l-67 -185h-99l243 676h100zM441 839q0 -20 -20 -33l-116 -74h-47l87 112q22 27 57 27q18 0 28.5 -9t10.5 -23z" />
    <glyph glyph-name="Acircumflex" unicode="&#xc2;" horiz-adv-x="606" 
d="M203 261h200l-79 216l-16 65h-10q-5 -31 -17 -65zM353 676l243 -676h-99l-67 185h-254l-67 -185h-99l243 676h100zM317 871l123 -104l-22 -36l-112 60h-8l-110 -60l-24 36l123 104h30z" />
    <glyph glyph-name="Atilde" unicode="&#xc3;" horiz-adv-x="606" 
d="M203 261h200l-79 216l-16 65h-10q-5 -31 -17 -65zM353 676l243 -676h-99l-67 185h-254l-67 -185h-99l243 676h100zM418 854l38 -7q-11 -91 -85 -91q-16 0 -66 12.5t-67 12.5q-30 0 -44 -29l-37 8q12 90 85 90q16 0 65.5 -12.5t66.5 -12.5q31 0 44 29z" />
    <glyph glyph-name="Adieresis" unicode="&#xc4;" horiz-adv-x="606" 
d="M203 261h200l-79 216l-16 65h-10q-5 -31 -17 -65zM353 676l243 -676h-99l-67 185h-254l-67 -185h-99l243 676h100zM149 822q0 28 17 44t43 16t43 -16t17 -44t-17 -44t-43 -16t-43 16t-17 44zM339 822q0 28 17 44t43 16t43 -16t17 -44t-17 -44t-43 -16t-43 16t-17 44z" />
    <glyph glyph-name="Aring" unicode="&#xc5;" horiz-adv-x="606" 
d="M421 746q0 -67 -58 -98l233 -648h-99l-67 185h-254l-67 -185h-99l233 648q-58 31 -58 98q0 49 33.5 81.5t84.5 32.5t84.5 -32.5t33.5 -81.5zM203 261h200l-79 216l-16 65h-10q-5 -31 -17 -65zM361 746q0 24 -17 41.5t-41 17.5t-41 -17.5t-17 -41.5q0 -25 16.5 -41.5
t41.5 -16.5t41.5 16.5t16.5 41.5z" />
    <glyph glyph-name="AE" unicode="&#xc6;" horiz-adv-x="860" 
d="M448 185h-232l-100 -185h-106l368 676h453v-76h-288v-205h186v-76h-186v-243h311v-76h-406v185zM371 469l-113 -208h190v211l3 122l-20 3q-22 -58 -60 -128z" />
    <glyph glyph-name="Ccedilla" unicode="&#xc7;" horiz-adv-x="530" 
d="M486 102l22 -73q-74 -44 -182 -44l-7 -37h15q97 0 97 -78q0 -44 -26.5 -65t-87.5 -21q-21 0 -45 3t-38 7l-13 3l6 45q53 -8 79 -8q51 0 51 36q0 18 -11.5 26.5t-40.5 8.5h-54l18 84q-84 13 -130 56q-40 38 -62 103t-22 190q0 117 21 181t60 102q73 70 193 70
q83 0 157 -32l-24 -76q-71 23 -127 23q-85 0 -131 -47q-53 -55 -53 -221q0 -173 57 -228q40 -40 125 -40q78 0 153 32z" />
    <glyph glyph-name="Egrave" unicode="&#xc8;" horiz-adv-x="488" 
d="M482 76v-76h-406v676h383v-76h-288v-205h186v-76h-186v-243h311zM123 840q0 14 10.5 23t28.5 9q35 0 57 -27l87 -112h-47l-116 74q-20 13 -20 33z" />
    <glyph glyph-name="Eacute" unicode="&#xc9;" horiz-adv-x="488" 
d="M482 76v-76h-406v676h383v-76h-288v-205h186v-76h-186v-243h311zM422 841q0 -20 -20 -33l-116 -74h-47l87 112q22 27 57 27q18 0 28.5 -9t10.5 -23z" />
    <glyph glyph-name="Ecircumflex" unicode="&#xca;" horiz-adv-x="488" 
d="M482 76v-76h-406v676h383v-76h-288v-205h186v-76h-186v-243h311zM285 870l123 -104l-22 -36l-112 60h-8l-110 -60l-24 36l123 104h30z" />
    <glyph glyph-name="Edieresis" unicode="&#xcb;" horiz-adv-x="488" 
d="M482 76v-76h-406v676h383v-76h-288v-205h186v-76h-186v-243h311zM118 822q0 28 17 44t43 16t43 -16t17 -44t-17 -44t-43 -16t-43 16t-17 44zM308 822q0 28 17 44t43 16t43 -16t17 -44t-17 -44t-43 -16t-43 16t-17 44z" />
    <glyph glyph-name="Igrave" unicode="&#xcc;" horiz-adv-x="247" 
d="M171 676v-676h-95v676h95zM-10 840q0 14 10.5 23t28.5 9q35 0 57 -27l87 -112h-47l-116 74q-20 13 -20 33z" />
    <glyph glyph-name="Iacute" unicode="&#xcd;" horiz-adv-x="247" 
d="M171 676v-676h-95v676h95zM265 840q0 -20 -20 -33l-116 -74h-47l87 112q22 27 57 27q18 0 28.5 -9t10.5 -23z" />
    <glyph glyph-name="Icircumflex" unicode="&#xce;" horiz-adv-x="247" 
d="M171 676v-676h-95v676h95zM139 868l123 -104l-22 -36l-112 60h-8l-110 -60l-24 36l123 104h30z" />
    <glyph glyph-name="Idieresis" unicode="&#xcf;" horiz-adv-x="247" 
d="M-32 822q0 28 17 44t43 16t43 -16t17 -44t-17 -44t-43 -16t-43 16t-17 44zM158 822q0 28 17 44t43 16t43 -16t17 -44t-17 -44t-43 -16t-43 16t-17 44zM171 676v-676h-95v676h95z" />
    <glyph glyph-name="Eth" unicode="&#xd0;" horiz-adv-x="632" 
d="M480 323q0 94 -11.5 141t-35.5 74q-44 50 -137 50h-125v-213h148v-74h-148v-213h163q62 0 100 38q22 22 34 64.5t12 132.5zM577 322q0 -110 -17.5 -166t-50.5 -91q-63 -65 -169 -65h-264v301h-68v74h68v301h222q138 0 206 -73q36 -39 54.5 -99.5t18.5 -181.5z" />
    <glyph glyph-name="Ntilde" unicode="&#xd1;" horiz-adv-x="695" 
d="M619 676v-676h-98l-318 469l-32 58l-7 -2q7 -54 7 -76v-449h-95v676h98l318 -469l29 -55l7 2q-4 47 -4 69v453h95zM481 854l38 -7q-11 -91 -85 -91q-16 0 -66 12.5t-67 12.5q-30 0 -44 -29l-37 8q12 90 85 90q16 0 65.5 -12.5t66.5 -12.5q31 0 44 29z" />
    <glyph glyph-name="Ograve" unicode="&#xd2;" horiz-adv-x="678" 
d="M527 337q0 174 -56 225q-50 44 -132 44t-132 -44q-56 -51 -56 -225q0 -171 54 -221q49 -46 134 -46q86 0 135 46q53 51 53 221zM623 337q0 -212 -83 -286q-72 -66 -201 -66t-201 66q-83 76 -83 286q0 206 80 284q71 70 204 70q134 0 205 -70q79 -75 79 -284zM189 839
q0 14 10.5 23t28.5 9q35 0 57 -27l87 -112h-47l-116 74q-20 13 -20 33z" />
    <glyph glyph-name="Oacute" unicode="&#xd3;" horiz-adv-x="678" 
d="M527 337q0 174 -56 225q-50 44 -132 44t-132 -44q-56 -51 -56 -225q0 -171 54 -221q49 -46 134 -46q86 0 135 46q53 51 53 221zM623 337q0 -212 -83 -286q-72 -66 -201 -66t-201 66q-83 76 -83 286q0 206 80 284q71 70 204 70q134 0 205 -70q79 -75 79 -284zM485 839
q0 -20 -20 -33l-116 -74h-47l87 112q22 27 57 27q18 0 28.5 -9t10.5 -23z" />
    <glyph glyph-name="Ocircumflex" unicode="&#xd4;" horiz-adv-x="678" 
d="M527 337q0 174 -56 225q-50 44 -132 44t-132 -44q-56 -51 -56 -225q0 -171 54 -221q49 -46 134 -46q86 0 135 46q53 51 53 221zM623 337q0 -212 -83 -286q-72 -66 -201 -66t-201 66q-83 76 -83 286q0 206 80 284q71 70 204 70q134 0 205 -70q79 -75 79 -284zM353 875
l123 -104l-22 -36l-112 60h-8l-110 -60l-24 36l123 104h30z" />
    <glyph glyph-name="Otilde" unicode="&#xd5;" horiz-adv-x="678" 
d="M527 337q0 174 -56 225q-50 44 -132 44t-132 -44q-56 -51 -56 -225q0 -171 54 -221q49 -46 134 -46q86 0 135 46q53 51 53 221zM623 337q0 -212 -83 -286q-72 -66 -201 -66t-201 66q-83 76 -83 286q0 206 80 284q71 70 204 70q134 0 205 -70q79 -75 79 -284zM454 854
l38 -7q-11 -91 -85 -91q-16 0 -66 12.5t-67 12.5q-30 0 -44 -29l-37 8q12 90 85 90q16 0 65.5 -12.5t66.5 -12.5q31 0 44 29z" />
    <glyph glyph-name="Odieresis" unicode="&#xd6;" horiz-adv-x="678" 
d="M527 337q0 174 -56 225q-50 44 -132 44t-132 -44q-56 -51 -56 -225q0 -171 54 -221q49 -46 134 -46q86 0 135 46q53 51 53 221zM623 337q0 -212 -83 -286q-72 -66 -201 -66t-201 66q-83 76 -83 286q0 206 80 284q71 70 204 70q134 0 205 -70q79 -75 79 -284zM184 822
q0 28 17 44t43 16t43 -16t17 -44t-17 -44t-43 -16t-43 16t-17 44zM374 822q0 28 17 44t43 16t43 -16t17 -44t-17 -44t-43 -16t-43 16t-17 44z" />
    <glyph glyph-name="multiply" unicode="&#xd7;" 
d="M369 410l51 -51l-119 -119l119 -120l-51 -51q-18 17 -37.5 37t-44 44.5l-37.5 37.5l-120 -119l-51 51l119 120l-37.5 37.5t-44.5 44t-37 37.5l51 51l120 -119l37.5 37.5t44 44.5t37.5 37z" />
    <glyph glyph-name="Oslash" unicode="&#xd8;" horiz-adv-x="678" 
d="M623 337q0 -210 -83 -284q-74 -68 -201 -68q-108 0 -180 52l-43 -61l-55 38l49 70q-54 77 -54 253q0 205 79 282q74 72 204 72q99 0 167 -44l40 58l54 -38l-43 -62q66 -76 66 -268zM526 337q0 122 -28 183l-287 -409q49 -41 128 -41q86 0 135 46q52 50 52 221zM153 337
q0 -110 19 -164l282 401q-46 32 -115 32q-84 0 -132 -45q-54 -47 -54 -224z" />
    <glyph glyph-name="Ugrave" unicode="&#xd9;" horiz-adv-x="633" 
d="M567 676v-470q0 -110 -67.5 -165.5t-183.5 -55.5q-115 0 -182.5 55.5t-67.5 165.5v470h96v-463q0 -143 154 -143q155 0 155 143v463h96zM173 840q0 14 10.5 23t28.5 9q35 0 57 -27l87 -112h-47l-116 74q-20 13 -20 33z" />
    <glyph glyph-name="Uacute" unicode="&#xda;" horiz-adv-x="633" 
d="M567 676v-470q0 -110 -67.5 -165.5t-183.5 -55.5q-115 0 -182.5 55.5t-67.5 165.5v470h96v-463q0 -143 154 -143q155 0 155 143v463h96zM477 840q0 -20 -20 -33l-116 -74h-47l87 112q22 27 57 27q18 0 28.5 -9t10.5 -23z" />
    <glyph glyph-name="Ucircumflex" unicode="&#xdb;" horiz-adv-x="633" 
d="M567 676v-470q0 -110 -67.5 -165.5t-183.5 -55.5q-115 0 -182.5 55.5t-67.5 165.5v470h96v-463q0 -143 154 -143q155 0 155 143v463h96zM336 875l123 -104l-22 -36l-112 60h-8l-110 -60l-24 36l123 104h30z" />
    <glyph glyph-name="Udieresis" unicode="&#xdc;" horiz-adv-x="633" 
d="M567 676v-470q0 -110 -67.5 -165.5t-183.5 -55.5q-115 0 -182.5 55.5t-67.5 165.5v470h96v-463q0 -143 154 -143q155 0 155 143v463h96zM161 822q0 28 17 44t43 16t43 -16t17 -44t-17 -44t-43 -16t-43 16t-17 44zM351 822q0 28 17 44t43 16t43 -16t17 -44t-17 -44
t-43 -16t-43 16t-17 44z" />
    <glyph glyph-name="Yacute" unicode="&#xdd;" horiz-adv-x="598" 
d="M303 366q9 26 23 50l155 260h109l-243 -409v-267h-96v267l-243 409h109l155 -260q6 -10 12 -22.5t8 -19.5l3 -8h8zM463 842q0 -20 -20 -33l-116 -74h-47l87 112q22 27 57 27q18 0 28.5 -9t10.5 -23z" />
    <glyph glyph-name="Thorn" unicode="&#xde;" horiz-adv-x="523" 
d="M387 341q0 62 -23.5 91.5t-76.5 29.5h-116v-246h116q53 0 76.5 31t23.5 94zM483 341q0 -201 -191 -201h-121v-140h-95v676h95v-129h117q94 0 144.5 -53t50.5 -153z" />
    <glyph glyph-name="germandbls" unicode="&#xdf;" horiz-adv-x="534" 
d="M224 342v74h43q86 0 86 104q0 50 -23.5 78.5t-69.5 28.5q-104 0 -104 -123q0 -84 -0.5 -252t-0.5 -252h-91v495q0 106 51.5 161t142.5 55q89 0 138 -48.5t49 -137.5q0 -100 -61 -138q102 -38 102 -180q0 -111 -50.5 -163.5t-167.5 -53.5v74q73 7 99.5 39t26.5 102
q0 137 -126 137h-44z" />
    <glyph glyph-name="agrave" unicode="&#xe0;" horiz-adv-x="512" 
d="M354 133v96q-75 -5 -137 -16q-81 -16 -81 -76q0 -30 19 -46.5t52 -16.5q38 0 79.5 16.5t67.5 42.5zM478 83l16 -5l-26 -88q-82 4 -108 68h-6q-28 -31 -71.5 -49.5t-90.5 -18.5q-67 0 -107.5 37t-40.5 106q0 133 159 159q24 4 151 16v19q0 44 -21 61.5t-76 17.5
q-69 0 -163 -38l-25 76q101 46 191 46q186 0 186 -160v-200q0 -24 7 -32.5t25 -14.5zM128 641q0 14 10.5 23t28.5 9q35 0 57 -27l87 -112h-47l-116 74q-20 13 -20 33z" />
    <glyph glyph-name="aacute" unicode="&#xe1;" horiz-adv-x="512" 
d="M354 133v96q-75 -5 -137 -16q-81 -16 -81 -76q0 -30 19 -46.5t52 -16.5q38 0 79.5 16.5t67.5 42.5zM478 83l16 -5l-26 -88q-82 4 -108 68h-6q-28 -31 -71.5 -49.5t-90.5 -18.5q-67 0 -107.5 37t-40.5 106q0 133 159 159q24 4 151 16v19q0 44 -21 61.5t-76 17.5
q-69 0 -163 -38l-25 76q101 46 191 46q186 0 186 -160v-200q0 -24 7 -32.5t25 -14.5zM405 641q0 -20 -20 -33l-116 -74h-47l87 112q22 27 57 27q18 0 28.5 -9t10.5 -23z" />
    <glyph glyph-name="acircumflex" unicode="&#xe2;" horiz-adv-x="512" 
d="M354 133v96q-75 -5 -137 -16q-81 -16 -81 -76q0 -30 19 -46.5t52 -16.5q38 0 79.5 16.5t67.5 42.5zM478 83l16 -5l-26 -88q-82 4 -108 68h-6q-28 -31 -71.5 -49.5t-90.5 -18.5q-67 0 -107.5 37t-40.5 106q0 133 159 159q24 4 151 16v19q0 44 -21 61.5t-76 17.5
q-69 0 -163 -38l-25 76q101 46 191 46q186 0 186 -160v-200q0 -24 7 -32.5t25 -14.5zM271 672l123 -104l-22 -36l-112 60h-8l-110 -60l-24 36l123 104h30z" />
    <glyph glyph-name="atilde" unicode="&#xe3;" horiz-adv-x="512" 
d="M354 133v96q-75 -5 -137 -16q-81 -16 -81 -76q0 -30 19 -46.5t52 -16.5q38 0 79.5 16.5t67.5 42.5zM478 83l16 -5l-26 -88q-82 4 -108 68h-6q-28 -31 -71.5 -49.5t-90.5 -18.5q-67 0 -107.5 37t-40.5 106q0 133 159 159q24 4 151 16v19q0 44 -21 61.5t-76 17.5
q-69 0 -163 -38l-25 76q101 46 191 46q186 0 186 -160v-200q0 -24 7 -32.5t25 -14.5zM368 656l38 -7q-11 -91 -85 -91q-16 0 -66 12.5t-67 12.5q-30 0 -44 -29l-37 8q12 90 85 90q16 0 65.5 -12.5t66.5 -12.5q31 0 44 29z" />
    <glyph glyph-name="adieresis" unicode="&#xe4;" horiz-adv-x="512" 
d="M354 133v96q-75 -5 -137 -16q-81 -16 -81 -76q0 -30 19 -46.5t52 -16.5q38 0 79.5 16.5t67.5 42.5zM478 83l16 -5l-26 -88q-82 4 -108 68h-6q-28 -31 -71.5 -49.5t-90.5 -18.5q-67 0 -107.5 37t-40.5 106q0 133 159 159q24 4 151 16v19q0 44 -21 61.5t-76 17.5
q-69 0 -163 -38l-25 76q101 46 191 46q186 0 186 -160v-200q0 -24 7 -32.5t25 -14.5zM106 626q0 28 17 44t43 16t43 -16t17 -44t-17 -44t-43 -16t-43 16t-17 44zM296 626q0 28 17 44t43 16t43 -16t17 -44t-17 -44t-43 -16t-43 16t-17 44z" />
    <glyph glyph-name="aring" unicode="&#xe5;" horiz-adv-x="512" 
d="M354 133v96q-75 -5 -137 -16q-81 -16 -81 -76q0 -30 19 -46.5t52 -16.5q38 0 79.5 16.5t67.5 42.5zM478 83l16 -5l-26 -88q-82 4 -108 68h-6q-28 -31 -71.5 -49.5t-90.5 -18.5q-67 0 -107.5 37t-40.5 106q0 133 159 159q24 4 151 16v19q0 44 -21 61.5t-76 17.5
q-69 0 -163 -38l-25 76q101 46 191 46q186 0 186 -160v-200q0 -24 7 -32.5t25 -14.5zM309 637q0 22 -15.5 38t-37.5 16t-37.5 -16t-15.5 -38q0 -23 15.5 -38t37.5 -15t37.5 15t15.5 38zM363 637q0 -44 -30.5 -73.5t-76.5 -29.5t-76.5 29.5t-30.5 73.5t30.5 74t76.5 30
t76.5 -30t30.5 -74z" />
    <glyph glyph-name="ae" unicode="&#xe6;" horiz-adv-x="796" 
d="M207 74q38 0 80 17t74 48q-7 40 -7 85q-93 0 -137 -7q-81 -12 -81 -77q0 -31 19 -48.5t52 -17.5zM446 298h213v16q0 53 -22 72.5t-80 19.5q-57 0 -84 -22.5t-27 -85.5zM721 113l26 -66q-87 -57 -181 -57q-108 0 -160 54q-17 17 -23 31h-6q-74 -85 -185 -85
q-67 0 -107.5 37t-40.5 106q0 61 39 105.5t120 53.5q53 6 151 6v29q0 44 -21 61.5t-76 17.5q-69 0 -163 -38l-25 76q101 46 191 46q102 0 147 -50h4q52 50 146 50q194 0 194 -180l-2 -86h-303v-8q0 -88 28 -115t95 -27q68 0 152 39z" />
    <glyph glyph-name="ccedilla" unicode="&#xe7;" horiz-adv-x="421" 
d="M361 94l24 -70q-22 -14 -61 -24t-75 -10h-2l-8 -42h15q97 0 97 -78q0 -44 -26.5 -65t-87.5 -21q-21 0 -45 3t-38 7l-13 3l6 45q53 -8 79 -8q51 0 51 36q0 18 -11.5 26.5t-40.5 8.5h-54l19 90q-59 11 -91 45q-51 51 -51 200t54 201q51 49 144 49q76 0 131 -30l-25 -72
q-48 18 -98 18q-58 0 -83 -26q-29 -31 -29 -129q0 -115 26 -147q23 -30 89 -30q44 0 104 20z" />
    <glyph glyph-name="egrave" unicode="&#xe8;" horiz-adv-x="491" 
d="M140 298h217v16q0 53 -23 72.5t-81 19.5t-85.5 -23t-27.5 -85zM418 114l27 -67q-31 -22 -81 -39.5t-102 -17.5q-111 0 -162 54q-52 54 -52 196q0 83 13 127t39 71q50 52 153 52q97 0 146.5 -46t49.5 -134l-2 -86h-307v-8q0 -88 32 -117q28 -25 93 -25q67 0 153 40z
M115 641q0 14 10.5 23t28.5 9q35 0 57 -27l87 -112h-47l-116 74q-20 13 -20 33z" />
    <glyph glyph-name="eacute" unicode="&#xe9;" horiz-adv-x="491" 
d="M140 298h217v16q0 53 -23 72.5t-81 19.5t-85.5 -23t-27.5 -85zM418 114l27 -67q-31 -22 -81 -39.5t-102 -17.5q-111 0 -162 54q-52 54 -52 196q0 83 13 127t39 71q50 52 153 52q97 0 146.5 -46t49.5 -134l-2 -86h-307v-8q0 -88 32 -117q28 -25 93 -25q67 0 153 40z
M411 641q0 -20 -20 -33l-116 -74h-47l87 112q22 27 57 27q18 0 28.5 -9t10.5 -23z" />
    <glyph glyph-name="ecircumflex" unicode="&#xea;" horiz-adv-x="491" 
d="M140 298h217v16q0 53 -23 72.5t-81 19.5t-85.5 -23t-27.5 -85zM418 114l27 -67q-31 -22 -81 -39.5t-102 -17.5q-111 0 -162 54q-52 54 -52 196q0 83 13 127t39 71q50 52 153 52q97 0 146.5 -46t49.5 -134l-2 -86h-307v-8q0 -88 32 -117q28 -25 93 -25q67 0 153 40z
M270 670l123 -104l-22 -36l-112 60h-8l-110 -60l-24 36l123 104h30z" />
    <glyph glyph-name="edieresis" unicode="&#xeb;" horiz-adv-x="491" 
d="M140 298h217v16q0 53 -23 72.5t-81 19.5t-85.5 -23t-27.5 -85zM418 114l27 -67q-31 -22 -81 -39.5t-102 -17.5q-111 0 -162 54q-52 54 -52 196q0 83 13 127t39 71q50 52 153 52q97 0 146.5 -46t49.5 -134l-2 -86h-307v-8q0 -88 32 -117q28 -25 93 -25q67 0 153 40z
M96 626q0 28 17 44t43 16t43 -16t17 -44t-17 -44t-43 -16t-43 16t-17 44zM286 626q0 28 17 44t43 16t43 -16t17 -44t-17 -44t-43 -16t-43 16t-17 44z" />
    <glyph glyph-name="igrave" unicode="&#xec;" horiz-adv-x="220" 
d="M-31 641q0 14 10.5 23t28.5 9q35 0 57 -27l87 -112h-47l-116 74q-20 13 -20 33zM156 480v-480h-92v480h92z" />
    <glyph glyph-name="iacute" unicode="&#xed;" horiz-adv-x="220" 
d="M259 641q0 -20 -20 -33l-116 -74h-47l87 112q22 27 57 27q18 0 28.5 -9t10.5 -23zM156 480v-480h-92v480h92z" />
    <glyph glyph-name="icircumflex" unicode="&#xee;" horiz-adv-x="220" 
d="M125 672l123 -104l-22 -36l-112 60h-8l-110 -60l-24 36l123 104h30zM156 480v-480h-92v480h92z" />
    <glyph glyph-name="idieresis" unicode="&#xef;" horiz-adv-x="220" 
d="M-37 626q0 28 17 44t43 16t43 -16t17 -44t-17 -44t-43 -16t-43 16t-17 44zM137 626q0 28 17 44t43 16t43 -16t17 -44t-17 -44t-43 -16t-43 16t-17 44zM156 480v-480h-92v480h92z" />
    <glyph glyph-name="eth" unicode="&#xf0;" horiz-adv-x="495" 
d="M355 240q0 109 -30 139q-27 27 -78 27q-50 0 -77 -27q-14 -14 -21 -40.5t-8 -45.5t-1 -53q0 -109 30 -139q27 -27 77 -27q48 0 77 27q20 20 25.5 50.5t5.5 88.5zM127 523l-34 59l81 43q-37 17 -88 33l22 65q90 -21 150 -54l99 52l34 -59l-70 -37q126 -108 126 -338v-47
q0 -70 -9.5 -116.5t-42.5 -79.5q-56 -54 -148 -54q-93 0 -147 54q-32 32 -42 78t-10 118q0 71 10.5 120.5t45.5 81.5q49 48 129 48q49 0 93 -30l4 3q-21 70 -88 121z" />
    <glyph glyph-name="ntilde" unicode="&#xf1;" horiz-adv-x="508" 
d="M452 326v-326h-92v316q0 90 -84 90q-54 0 -87 -37t-33 -99v-270h-92v480h57l33 -60h4q58 70 147 70q70 0 108.5 -44t38.5 -120zM376 656l38 -7q-11 -91 -85 -91q-16 0 -66 12.5t-67 12.5q-30 0 -44 -29l-37 8q12 90 85 90q16 0 65.5 -12.5t66.5 -12.5q31 0 44 29z" />
    <glyph glyph-name="ograve" unicode="&#xf2;" horiz-adv-x="495" 
d="M447 240q0 -70 -9.5 -116.5t-42.5 -79.5q-56 -54 -148 -54q-93 0 -147 54q-32 32 -42 78t-10 118t10.5 119.5t44.5 79.5q53 51 144 51q92 0 146 -51q33 -32 43.5 -78.5t10.5 -120.5zM355 240q0 109 -30 139q-27 27 -78 27q-50 0 -77 -27q-14 -14 -21 -40.5t-8 -45.5
t-1 -53q0 -109 30 -139q27 -27 77 -27q48 0 77 27q20 20 25.5 50.5t5.5 88.5zM117 641q0 14 10.5 23t28.5 9q35 0 57 -27l87 -112h-47l-116 74q-20 13 -20 33z" />
    <glyph glyph-name="oacute" unicode="&#xf3;" horiz-adv-x="495" 
d="M447 240q0 -70 -9.5 -116.5t-42.5 -79.5q-56 -54 -148 -54q-93 0 -147 54q-32 32 -42 78t-10 118t10.5 119.5t44.5 79.5q53 51 144 51q92 0 146 -51q33 -32 43.5 -78.5t10.5 -120.5zM355 240q0 109 -30 139q-27 27 -78 27q-50 0 -77 -27q-14 -14 -21 -40.5t-8 -45.5
t-1 -53q0 -109 30 -139q27 -27 77 -27q48 0 77 27q20 20 25.5 50.5t5.5 88.5zM401 641q0 -20 -20 -33l-116 -74h-47l87 112q22 27 57 27q18 0 28.5 -9t10.5 -23z" />
    <glyph glyph-name="ocircumflex" unicode="&#xf4;" horiz-adv-x="495" 
d="M447 240q0 -70 -9.5 -116.5t-42.5 -79.5q-56 -54 -148 -54q-93 0 -147 54q-32 32 -42 78t-10 118t10.5 119.5t44.5 79.5q53 51 144 51q92 0 146 -51q33 -32 43.5 -78.5t10.5 -120.5zM355 240q0 109 -30 139q-27 27 -78 27q-50 0 -77 -27q-14 -14 -21 -40.5t-8 -45.5
t-1 -53q0 -109 30 -139q27 -27 77 -27q48 0 77 27q20 20 25.5 50.5t5.5 88.5zM261 672l123 -104l-22 -36l-112 60h-8l-110 -60l-24 36l123 104h30z" />
    <glyph glyph-name="otilde" unicode="&#xf5;" horiz-adv-x="495" 
d="M447 240q0 -70 -9.5 -116.5t-42.5 -79.5q-56 -54 -148 -54q-93 0 -147 54q-32 32 -42 78t-10 118t10.5 119.5t44.5 79.5q53 51 144 51q92 0 146 -51q33 -32 43.5 -78.5t10.5 -120.5zM355 240q0 109 -30 139q-27 27 -78 27q-50 0 -77 -27q-14 -14 -21 -40.5t-8 -45.5
t-1 -53q0 -109 30 -139q27 -27 77 -27q48 0 77 27q20 20 25.5 50.5t5.5 88.5zM358 656l38 -7q-11 -91 -85 -91q-16 0 -66 12.5t-67 12.5q-30 0 -44 -29l-37 8q12 90 85 90q16 0 65.5 -12.5t66.5 -12.5q31 0 44 29z" />
    <glyph glyph-name="odieresis" unicode="&#xf6;" horiz-adv-x="495" 
d="M447 240q0 -70 -9.5 -116.5t-42.5 -79.5q-56 -54 -148 -54q-93 0 -147 54q-32 32 -42 78t-10 118t10.5 119.5t44.5 79.5q53 51 144 51q92 0 146 -51q33 -32 43.5 -78.5t10.5 -120.5zM355 240q0 109 -30 139q-27 27 -78 27q-50 0 -77 -27q-14 -14 -21 -40.5t-8 -45.5
t-1 -53q0 -109 30 -139q27 -27 77 -27q48 0 77 27q20 20 25.5 50.5t5.5 88.5zM91 626q0 28 17 44t43 16t43 -16t17 -44t-17 -44t-43 -16t-43 16t-17 44zM281 626q0 28 17 44t43 16t43 -16t17 -44t-17 -44t-43 -16t-43 16t-17 44z" />
    <glyph glyph-name="divide" unicode="&#xf7;" 
d="M455 277v-74h-410v74h410zM190 87q0 28 17 44t43 16t43 -16t17 -44t-17 -44t-43 -16t-43 16t-17 44zM190 390q0 28 17 44t43 16t43 -16t17 -44t-17 -44t-43 -16t-43 16t-17 44z" />
    <glyph glyph-name="oslash" unicode="&#xf8;" horiz-adv-x="495" 
d="M60 15l28 42q-24 32 -32 75t-8 108q0 72 10.5 119.5t44.5 79.5q53 51 144 51q65 0 112 -27l24 36l51 -33l-28 -42q41 -52 41 -184q0 -70 -9.5 -116.5t-42.5 -79.5q-56 -54 -148 -54q-64 0 -113 27l-23 -35zM355 240q0 66 -4 103l-3 1q-6 -14 -11 -22l-154 -232
q22 -16 64 -16q48 0 77 27q20 20 25.5 50.5t5.5 88.5zM140 240q0 -75 3 -99l4 -1q4 12 11 22l152 228q-24 16 -63 16q-50 0 -77 -27q-14 -14 -21 -40.5t-8 -45.5t-1 -53z" />
    <glyph glyph-name="ugrave" unicode="&#xf9;" horiz-adv-x="510" 
d="M444 480v-343q0 -26 6.5 -37t25.5 -17l16 -5l-26 -88q-82 5 -108 71h-6q-56 -71 -144 -71q-73 0 -112.5 43t-39.5 125v322h92v-310q0 -96 78 -96q59 0 92.5 42t33.5 111v253h92zM106 641q0 14 10.5 23t28.5 9q35 0 57 -27l87 -112h-47l-116 74q-20 13 -20 33z" />
    <glyph glyph-name="uacute" unicode="&#xfa;" horiz-adv-x="510" 
d="M444 480v-343q0 -26 6.5 -37t25.5 -17l16 -5l-26 -88q-82 5 -108 71h-6q-56 -71 -144 -71q-73 0 -112.5 43t-39.5 125v322h92v-310q0 -96 78 -96q59 0 92.5 42t33.5 111v253h92zM400 641q0 -20 -20 -33l-116 -74h-47l87 112q22 27 57 27q18 0 28.5 -9t10.5 -23z" />
    <glyph glyph-name="ucircumflex" unicode="&#xfb;" horiz-adv-x="510" 
d="M444 480v-343q0 -26 6.5 -37t25.5 -17l16 -5l-26 -88q-82 5 -108 71h-6q-56 -71 -144 -71q-73 0 -112.5 43t-39.5 125v322h92v-310q0 -96 78 -96q59 0 92.5 42t33.5 111v253h92zM266 672l123 -104l-22 -36l-112 60h-8l-110 -60l-24 36l123 104h30z" />
    <glyph glyph-name="udieresis" unicode="&#xfc;" horiz-adv-x="510" 
d="M444 480v-343q0 -26 6.5 -37t25.5 -17l16 -5l-26 -88q-82 5 -108 71h-6q-56 -71 -144 -71q-73 0 -112.5 43t-39.5 125v322h92v-310q0 -96 78 -96q59 0 92.5 42t33.5 111v253h92zM98 626q0 28 17 44t43 16t43 -16t17 -44t-17 -44t-43 -16t-43 16t-17 44zM288 626
q0 28 17 44t43 16t43 -16t17 -44t-17 -44t-43 -16t-43 16t-17 44z" />
    <glyph glyph-name="yacute" unicode="&#xfd;" horiz-adv-x="507" 
d="M394 480h96l-171 -526q-35 -108 -76 -149t-126 -41h-57v84h62q42 0 60 16t37 75l9 27l-211 514h99l135 -334l16 -55h9q4 27 13 55zM418 641q0 -20 -20 -33l-116 -74h-47l87 112q22 27 57 27q18 0 28.5 -9t10.5 -23z" />
    <glyph glyph-name="thorn" unicode="&#xfe;" horiz-adv-x="515" 
d="M375 240q0 106 -32 141q-24 25 -71 25q-48 0 -82 -34t-34 -83v-90q0 -51 33 -88t84 -37q43 0 66 22q36 32 36 144zM467 240q0 -146 -59 -205q-45 -45 -117 -45q-89 0 -135 61l-5 -3q5 -15 5 -35v-240h-92v923h92v-273h5q54 67 140 67q70 0 113 -44q53 -55 53 -206z" />
    <glyph glyph-name="ydieresis" unicode="&#xff;" horiz-adv-x="507" 
d="M394 480h96l-171 -526q-35 -108 -76 -149t-126 -41h-57v84h62q42 0 60 16t37 75l9 27l-211 514h99l135 -334l16 -55h9q4 27 13 55zM101 626q0 28 17 44t43 16t43 -16t17 -44t-17 -44t-43 -16t-43 16t-17 44zM291 626q0 28 17 44t43 16t43 -16t17 -44t-17 -44t-43 -16
t-43 16t-17 44z" />
    <glyph glyph-name="Amacron" unicode="&#x100;" horiz-adv-x="606" 
d="M203 261h200l-79 216l-16 65h-10q-5 -31 -17 -65zM353 676l243 -676h-99l-67 185h-254l-67 -185h-99l243 676h100zM426 822v-73h-246v73h246z" />
    <glyph glyph-name="amacron" unicode="&#x101;" horiz-adv-x="512" 
d="M354 133v96q-75 -5 -137 -16q-81 -16 -81 -76q0 -30 19 -46.5t52 -16.5q38 0 79.5 16.5t67.5 42.5zM478 83l16 -5l-26 -88q-82 4 -108 68h-6q-28 -31 -71.5 -49.5t-90.5 -18.5q-67 0 -107.5 37t-40.5 106q0 133 159 159q24 4 151 16v19q0 44 -21 61.5t-76 17.5
q-69 0 -163 -38l-25 76q101 46 191 46q186 0 186 -160v-200q0 -24 7 -32.5t25 -14.5zM378 626v-73h-246v73h246z" />
    <glyph glyph-name="Abreve" unicode="&#x102;" horiz-adv-x="606" 
d="M203 261h200l-79 216l-16 65h-10q-5 -31 -17 -65zM353 676l243 -676h-99l-67 185h-254l-67 -185h-99l243 676h100zM387 869h47q0 -62 -34.5 -100.5t-96.5 -38.5t-96.5 38.5t-34.5 100.5h47q2 -27 23.5 -48.5t60.5 -21.5t60.5 21.5t23.5 48.5z" />
    <glyph glyph-name="abreve" unicode="&#x103;" horiz-adv-x="512" 
d="M354 133v96q-75 -5 -137 -16q-81 -16 -81 -76q0 -30 19 -46.5t52 -16.5q38 0 79.5 16.5t67.5 42.5zM478 83l16 -5l-26 -88q-82 4 -108 68h-6q-28 -31 -71.5 -49.5t-90.5 -18.5q-67 0 -107.5 37t-40.5 106q0 133 159 159q24 4 151 16v19q0 44 -21 61.5t-76 17.5
q-69 0 -163 -38l-25 76q101 46 191 46q186 0 186 -160v-200q0 -24 7 -32.5t25 -14.5zM339 673h47q0 -62 -34.5 -100.5t-96.5 -38.5t-96.5 38.5t-34.5 100.5h47q2 -27 23.5 -48.5t60.5 -21.5t60.5 21.5t23.5 48.5z" />
    <glyph glyph-name="Aogonek" unicode="&#x104;" horiz-adv-x="606" 
d="M353 676l243 -676q-30 -24 -53.5 -56.5t-23.5 -60.5q0 -47 55 -47l47 5l7 -46q-34 -11 -75 -11q-54 0 -85 21.5t-31 60.5q0 65 65 119l-72 200h-254l-67 -185h-99l243 676h100zM203 261h200l-79 216l-16 65h-10q-5 -31 -17 -65z" />
    <glyph glyph-name="aogonek" unicode="&#x105;" horiz-adv-x="512" 
d="M354 133v96q-75 -5 -137 -16q-81 -16 -81 -76q0 -30 19 -46.5t52 -16.5q38 0 79.5 16.5t67.5 42.5zM478 83l16 -5l-26 -88q-65 -61 -65 -107q0 -47 55 -47l47 5l7 -46q-34 -11 -75 -11q-54 0 -85 21.5t-31 60.5q0 45 28.5 80.5t59.5 53.5v3q-34 18 -49 55h-6
q-28 -31 -71.5 -49.5t-90.5 -18.5q-67 0 -107.5 37t-40.5 106q0 133 159 159q24 4 151 16v19q0 44 -21 61.5t-76 17.5q-69 0 -163 -38l-25 76q101 46 191 46q186 0 186 -160v-200q0 -24 7 -32.5t25 -14.5z" />
    <glyph glyph-name="Cacute" unicode="&#x106;" horiz-adv-x="530" 
d="M486 102l22 -73q-74 -44 -182 -44q-122 0 -187 60q-40 38 -62 103t-22 190q0 117 21 181t60 102q73 70 193 70q83 0 157 -32l-24 -76q-71 23 -127 23q-85 0 -131 -47q-53 -55 -53 -221q0 -173 57 -228q40 -40 125 -40q78 0 153 32zM465 841q0 -20 -20 -33l-116 -74h-47
l87 112q22 27 57 27q18 0 28.5 -9t10.5 -23z" />
    <glyph glyph-name="cacute" unicode="&#x107;" horiz-adv-x="421" 
d="M361 94l24 -70q-22 -14 -61 -24t-75 -10q-100 0 -150 50q-51 51 -51 200t54 201q51 49 144 49q76 0 131 -30l-25 -72q-48 18 -98 18q-58 0 -83 -26q-29 -31 -29 -129q0 -115 26 -147q23 -30 89 -30q44 0 104 20zM391 641q0 -20 -20 -33l-116 -74h-47l87 112q22 27 57 27
q18 0 28.5 -9t10.5 -23z" />
    <glyph glyph-name="Ccircumflex" unicode="&#x108;" horiz-adv-x="530" 
d="M486 102l22 -73q-74 -44 -182 -44q-122 0 -187 60q-40 38 -62 103t-22 190q0 117 21 181t60 102q73 70 193 70q83 0 157 -32l-24 -76q-71 23 -127 23q-85 0 -131 -47q-53 -55 -53 -221q0 -173 57 -228q40 -40 125 -40q78 0 153 32zM335 868l123 -104l-22 -36l-112 60h-8
l-110 -60l-24 36l123 104h30z" />
    <glyph glyph-name="ccircumflex" unicode="&#x109;" horiz-adv-x="421" 
d="M361 94l24 -70q-22 -14 -61 -24t-75 -10q-100 0 -150 50q-51 51 -51 200t54 201q51 49 144 49q76 0 131 -30l-25 -72q-48 18 -98 18q-58 0 -83 -26q-29 -31 -29 -129q0 -115 26 -147q23 -30 89 -30q44 0 104 20zM258 672l123 -104l-22 -36l-112 60h-8l-110 -60l-24 36
l123 104h30z" />
    <glyph glyph-name="Cdotaccent" unicode="&#x10a;" horiz-adv-x="530" 
d="M486 102l22 -73q-74 -44 -182 -44q-122 0 -187 60q-40 38 -62 103t-22 190q0 117 21 181t60 102q73 70 193 70q83 0 157 -32l-24 -76q-71 23 -127 23q-85 0 -131 -47q-53 -55 -53 -221q0 -173 57 -228q40 -40 125 -40q78 0 153 32zM265 822q0 28 17 44t43 16t43 -16
t17 -44t-17 -44t-43 -16t-43 16t-17 44z" />
    <glyph glyph-name="cdotaccent" unicode="&#x10b;" horiz-adv-x="421" 
d="M361 94l24 -70q-22 -14 -61 -24t-75 -10q-100 0 -150 50q-51 51 -51 200t54 201q51 49 144 49q76 0 131 -30l-25 -72q-48 18 -98 18q-58 0 -83 -26q-29 -31 -29 -129q0 -115 26 -147q23 -30 89 -30q44 0 104 20zM184 626q0 28 17 44t43 16t43 -16t17 -44t-17 -44t-43 -16
t-43 16t-17 44z" />
    <glyph glyph-name="Ccaron" unicode="&#x10c;" horiz-adv-x="530" 
d="M486 102l22 -73q-74 -44 -182 -44q-122 0 -187 60q-40 38 -62 103t-22 190q0 117 21 181t60 102q73 70 193 70q83 0 157 -32l-24 -76q-71 23 -127 23q-85 0 -131 -47q-53 -55 -53 -221q0 -173 57 -228q40 -40 125 -40q78 0 153 32zM305 734l-123 104l23 36l111 -60h8
l111 60l23 -36l-123 -104h-30z" />
    <glyph glyph-name="ccaron" unicode="&#x10d;" horiz-adv-x="421" 
d="M361 94l24 -70q-22 -14 -61 -24t-75 -10q-100 0 -150 50q-51 51 -51 200t54 201q51 49 144 49q76 0 131 -30l-25 -72q-48 18 -98 18q-58 0 -83 -26q-29 -31 -29 -129q0 -115 26 -147q23 -30 89 -30q44 0 104 20zM224 534l-123 104l23 36l111 -60h8l111 60l23 -36
l-123 -104h-30z" />
    <glyph glyph-name="Dcaron" unicode="&#x10e;" horiz-adv-x="632" 
d="M481 323q0 165 -47 218q-44 50 -141 50h-122v-506h163q64 0 102 38q45 43 45 200zM577 322q0 -110 -17.5 -165t-50.5 -92q-57 -65 -169 -65h-264v676h222q138 0 206 -73q36 -39 54.5 -99t18.5 -182zM267 730l-123 104l23 36l111 -60h8l111 60l23 -36l-123 -104h-30z" />
    <glyph glyph-name="dcaron" unicode="&#x10f;" horiz-adv-x="653" 
d="M361 192v91q0 51 -33.5 87t-82.5 36q-53 0 -79 -36q-25 -37 -25 -130q0 -94 25 -130q26 -36 79 -36q48 0 82 34.5t34 83.5zM453 696v-563q0 -22 6.5 -32.5t25.5 -17.5l15 -5l-26 -88q-78 6 -109 68h-4q-54 -68 -139 -68q-96 0 -140 79q-34 61 -34 171q0 148 57 205
q45 45 120 45q42 0 79.5 -19.5t54.5 -52.5l6 2q-4 21 -4 38v238h92zM520 653q0 28 17 44t43 16t43 -16t17 -44q0 -29 -22 -101l-26 -88l-34 6l16 123q-24 2 -39 17.5t-15 42.5z" />
    <glyph glyph-name="Dmacron" unicode="&#x110;" horiz-adv-x="632" 
d="M480 323q0 94 -11.5 141t-35.5 74q-44 50 -137 50h-125v-213h148v-74h-148v-213h163q62 0 100 38q22 22 34 64.5t12 132.5zM577 322q0 -110 -17.5 -166t-50.5 -91q-63 -65 -169 -65h-264v301h-68v74h68v301h222q138 0 206 -73q36 -39 54.5 -99.5t18.5 -181.5z" />
    <glyph glyph-name="dmacron" unicode="&#x111;" horiz-adv-x="518" 
d="M361 192v91q0 51 -33.5 87t-82.5 36q-53 0 -79 -36q-25 -37 -25 -130q0 -96 28 -131t76 -35t82 34.5t34 83.5zM453 696v-86h61v-65h-61v-412q0 -22 6.5 -32.5t25.5 -17.5l15 -5l-26 -88q-78 6 -109 68h-4q-54 -68 -139 -68q-75 0 -124.5 56.5t-49.5 193.5q0 148 57 205
q45 45 120 45q42 0 79.5 -19.5t54.5 -52.5l6 2q-4 21 -4 38v87h-144v65h144v86h92z" />
    <glyph glyph-name="Emacron" unicode="&#x112;" horiz-adv-x="488" 
d="M482 76v-76h-406v676h383v-76h-288v-205h186v-76h-186v-243h311zM400 822v-73h-246v73h246z" />
    <glyph glyph-name="emacron" unicode="&#x113;" horiz-adv-x="491" 
d="M140 298h217v16q0 53 -23 72.5t-81 19.5t-85.5 -23t-27.5 -85zM418 114l27 -67q-31 -22 -81 -39.5t-102 -17.5q-111 0 -162 54q-52 54 -52 196q0 83 13 127t39 71q50 52 153 52q97 0 146.5 -46t49.5 -134l-2 -86h-307v-8q0 -88 32 -117q28 -25 93 -25q67 0 153 40z
M370 626v-73h-246v73h246z" />
    <glyph glyph-name="Ebreve" unicode="&#x114;" horiz-adv-x="488" 
d="M482 76v-76h-406v676h383v-76h-288v-205h186v-76h-186v-243h311zM359 869h47q0 -62 -34.5 -100.5t-96.5 -38.5t-96.5 38.5t-34.5 100.5h47q2 -27 23.5 -48.5t60.5 -21.5t60.5 21.5t23.5 48.5z" />
    <glyph glyph-name="ebreve" unicode="&#x115;" horiz-adv-x="491" 
d="M140 298h217v16q0 53 -23 72.5t-81 19.5t-85.5 -23t-27.5 -85zM418 114l27 -67q-31 -22 -81 -39.5t-102 -17.5q-111 0 -162 54q-52 54 -52 196q0 83 13 127t39 71q50 52 153 52q97 0 146.5 -46t49.5 -134l-2 -86h-307v-8q0 -88 32 -117q28 -25 93 -25q67 0 153 40z
M331 673h47q0 -62 -34.5 -100.5t-96.5 -38.5t-96.5 38.5t-34.5 100.5h47q2 -27 23.5 -48.5t60.5 -21.5t60.5 21.5t23.5 48.5z" />
    <glyph glyph-name="Edotaccent" unicode="&#x116;" horiz-adv-x="488" 
d="M482 76v-76h-406v676h383v-76h-288v-205h186v-76h-186v-243h311zM217 822q0 28 17 44t43 16t43 -16t17 -44t-17 -44t-43 -16t-43 16t-17 44z" />
    <glyph glyph-name="edotaccent" unicode="&#x117;" horiz-adv-x="491" 
d="M140 298h217v16q0 53 -23 72.5t-81 19.5t-85.5 -23t-27.5 -85zM418 114l27 -67q-31 -22 -81 -39.5t-102 -17.5q-111 0 -162 54q-52 54 -52 196q0 83 13 127t39 71q50 52 153 52q97 0 146.5 -46t49.5 -134l-2 -86h-307v-8q0 -88 32 -117q28 -25 93 -25q67 0 153 40z
M196 626q0 28 17 44t43 16t43 -16t17 -44t-17 -44t-43 -16t-43 16t-17 44z" />
    <glyph glyph-name="Eogonek" unicode="&#x118;" horiz-adv-x="488" 
d="M482 76v-76q-30 -24 -53.5 -56.5t-23.5 -60.5q0 -47 55 -47l47 5l7 -46q-34 -11 -75 -11q-54 0 -85 21.5t-31 60.5q0 76 88 131v3h-335v676h383v-76h-288v-205h186v-76h-186v-243h311z" />
    <glyph glyph-name="eogonek" unicode="&#x119;" horiz-adv-x="491" 
d="M140 298h217v16q0 53 -23 72.5t-81 19.5t-85.5 -23t-27.5 -85zM418 114l27 -67q-39 -28 -92 -43q-29 -24 -53 -58.5t-24 -62.5q0 -47 55 -47l47 5l7 -46q-34 -11 -75 -11q-54 0 -85 21.5t-31 60.5q0 69 68 121v3q-111 0 -162 54q-52 54 -52 196q0 83 13 127t39 71
q50 52 153 52q97 0 146.5 -46t49.5 -134l-2 -86h-307v-8q0 -88 32 -117q28 -25 93 -25q67 0 153 40z" />
    <glyph glyph-name="Ecaron" unicode="&#x11a;" horiz-adv-x="488" 
d="M482 76v-76h-406v676h383v-76h-288v-205h186v-76h-186v-243h311zM258 730l-123 104l23 36l111 -60h8l111 60l23 -36l-123 -104h-30z" />
    <glyph glyph-name="ecaron" unicode="&#x11b;" horiz-adv-x="491" 
d="M140 298h217v16q0 53 -23 72.5t-81 19.5t-85.5 -23t-27.5 -85zM418 114l27 -67q-31 -22 -81 -39.5t-102 -17.5q-111 0 -162 54q-52 54 -52 196q0 83 13 127t39 71q50 52 153 52q97 0 146.5 -46t49.5 -134l-2 -86h-307v-8q0 -88 32 -117q28 -25 93 -25q67 0 153 40z
M231 534l-123 104l23 36l111 -60h8l111 60l23 -36l-123 -104h-30z" />
    <glyph glyph-name="Gcircumflex" unicode="&#x11c;" horiz-adv-x="638" 
d="M582 363v-299q-46 -39 -108.5 -59t-123.5 -20q-134 0 -207 63q-43 37 -65 100t-22 188q0 207 81 284q74 71 207 71q121 0 206 -50l-26 -76q-86 41 -174 41q-102 0 -151 -56q-46 -54 -46 -214q0 -154 49 -210q48 -56 148 -56q83 0 137 36v181h-157v76h252zM361 868
l123 -104l-22 -36l-112 60h-8l-110 -60l-24 36l123 104h30z" />
    <glyph glyph-name="gcircumflex" unicode="&#x11d;" horiz-adv-x="513" 
d="M356 322q0 94 -102 94t-102 -94q0 -92 102 -92t102 92zM309 -2h-105q-26 -6 -45 -27t-19 -52q0 -38 24 -59.5t69 -21.5h64q93 0 93 86q0 34 -21.5 54t-59.5 20zM64 103q0 54 51 94q-55 44 -55 126q0 80 52 123.5t142 43.5q24 0 48.5 -2.5t37.5 -5.5l13 -2h132v-75h-29
q-29 0 -55 10l-4 -6q51 -44 51 -100q0 -68 -45 -110.5t-143 -42.5q-45 0 -80 11q-26 -12 -26 -45q0 -48 63 -48h104q72 0 116.5 -41t44.5 -111q0 -73 -46 -115.5t-132 -42.5h-79q-87 0 -132 36.5t-45 95.5q0 37 19.5 68.5t53.5 45.5v2q-57 31 -57 91zM279 672l123 -104
l-22 -36l-112 60h-8l-110 -60l-24 36l123 104h30z" />
    <glyph glyph-name="Gbreve" unicode="&#x11e;" horiz-adv-x="638" 
d="M582 363v-299q-46 -39 -108.5 -59t-123.5 -20q-134 0 -207 63q-43 37 -65 100t-22 188q0 207 81 284q74 71 207 71q121 0 206 -50l-26 -76q-86 41 -174 41q-102 0 -151 -56q-46 -54 -46 -214q0 -154 49 -210q48 -56 148 -56q83 0 137 36v181h-157v76h252zM413 869h47
q0 -62 -34.5 -100.5t-96.5 -38.5t-96.5 38.5t-34.5 100.5h47q2 -27 23.5 -48.5t60.5 -21.5t60.5 21.5t23.5 48.5z" />
    <glyph glyph-name="gbreve" unicode="&#x11f;" horiz-adv-x="513" 
d="M356 322q0 94 -102 94t-102 -94q0 -92 102 -92t102 92zM309 -2h-105q-26 -6 -45 -27t-19 -52q0 -38 24 -59.5t69 -21.5h64q93 0 93 86q0 34 -21.5 54t-59.5 20zM64 103q0 54 51 94q-55 44 -55 126q0 80 52 123.5t142 43.5q24 0 48.5 -2.5t37.5 -5.5l13 -2h132v-75h-29
q-29 0 -55 10l-4 -6q51 -44 51 -100q0 -68 -45 -110.5t-143 -42.5q-45 0 -80 11q-26 -12 -26 -45q0 -48 63 -48h104q72 0 116.5 -41t44.5 -111q0 -73 -46 -115.5t-132 -42.5h-79q-87 0 -132 36.5t-45 95.5q0 37 19.5 68.5t53.5 45.5v2q-57 31 -57 91zM348 673h47
q0 -62 -34.5 -100.5t-96.5 -38.5t-96.5 38.5t-34.5 100.5h47q2 -27 23.5 -48.5t60.5 -21.5t60.5 21.5t23.5 48.5z" />
    <glyph glyph-name="Gdotaccent" unicode="&#x120;" horiz-adv-x="638" 
d="M582 363v-299q-46 -39 -108.5 -59t-123.5 -20q-134 0 -207 63q-43 37 -65 100t-22 188q0 207 81 284q74 71 207 71q121 0 206 -50l-26 -76q-86 41 -174 41q-102 0 -151 -56q-46 -54 -46 -214q0 -154 49 -210q48 -56 148 -56q83 0 137 36v181h-157v76h252zM279 822
q0 28 17 44t43 16t43 -16t17 -44t-17 -44t-43 -16t-43 16t-17 44z" />
    <glyph glyph-name="gdotaccent" unicode="&#x121;" horiz-adv-x="513" 
d="M356 322q0 94 -102 94t-102 -94q0 -92 102 -92t102 92zM309 -2h-105q-26 -6 -45 -27t-19 -52q0 -38 24 -59.5t69 -21.5h64q93 0 93 86q0 34 -21.5 54t-59.5 20zM64 103q0 54 51 94q-55 44 -55 126q0 80 52 123.5t142 43.5q24 0 48.5 -2.5t37.5 -5.5l13 -2h132v-75h-29
q-29 0 -55 10l-4 -6q51 -44 51 -100q0 -68 -45 -110.5t-143 -42.5q-45 0 -80 11q-26 -12 -26 -45q0 -48 63 -48h104q72 0 116.5 -41t44.5 -111q0 -73 -46 -115.5t-132 -42.5h-79q-87 0 -132 36.5t-45 95.5q0 37 19.5 68.5t53.5 45.5v2q-57 31 -57 91zM204 626q0 28 17 44
t43 16t43 -16t17 -44t-17 -44t-43 -16t-43 16t-17 44z" />
    <glyph glyph-name="Gcommaaccent" unicode="&#x122;" horiz-adv-x="638" 
d="M582 363v-299q-46 -39 -108.5 -59t-123.5 -20q-134 0 -207 63q-43 37 -65 100t-22 188q0 207 81 284q74 71 207 71q121 0 206 -50l-26 -76q-86 41 -174 41q-102 0 -151 -56q-46 -54 -46 -214q0 -154 49 -210q48 -56 148 -56q83 0 137 36v181h-157v76h252zM283 -104
q0 28 17 44t43 16t43 -16t17 -44q0 -31 -29 -107l-32 -82l-40 7l20 123v2q-39 12 -39 57z" />
    <glyph glyph-name="gcommaaccent" unicode="&#x123;" horiz-adv-x="513" 
d="M356 322q0 94 -102 94t-102 -94q0 -92 102 -92t102 92zM309 -2h-105q-26 -6 -45 -27t-19 -52q0 -38 24 -59.5t69 -21.5h64q93 0 93 86q0 34 -21.5 54t-59.5 20zM64 103q0 54 51 94q-55 44 -55 126q0 80 52 123.5t142 43.5q24 0 48.5 -2.5t37.5 -5.5l13 -2h132v-75h-29
q-29 0 -55 10l-4 -6q51 -44 51 -100q0 -68 -45 -110.5t-143 -42.5q-45 0 -80 11q-26 -12 -26 -45q0 -48 63 -48h104q72 0 116.5 -41t44.5 -111q0 -73 -46 -115.5t-132 -42.5h-79q-87 0 -132 36.5t-45 95.5q0 37 19.5 68.5t53.5 45.5v2q-57 31 -57 91zM323 599q0 -28 -17 -44
t-43 -16t-43 16t-17 44q0 29 22 101l26 88l34 -6l-16 -123q24 -2 39 -17.5t15 -42.5z" />
    <glyph glyph-name="Hcircumflex" unicode="&#x124;" horiz-adv-x="689" 
d="M613 676v-676h-95v318h-347v-318h-95v676h95v-282h347v282h95zM359 868l123 -104l-22 -36l-112 60h-8l-110 -60l-24 36l123 104h30z" />
    <glyph glyph-name="hcircumflex" unicode="&#x125;" horiz-adv-x="508" 
d="M452 325v-325h-92v316q0 90 -82 90q-56 0 -89 -37.5t-33 -98.5v-270h-92v696h92v-213l-4 -62l6 -1q58 70 147 70q70 0 108.5 -44t38.5 -121zM128 868l123 -104l-22 -36l-112 60h-8l-110 -60l-24 36l123 104h30z" />
    <glyph glyph-name="Imacron" unicode="&#x12a;" horiz-adv-x="247" 
d="M171 676v-676h-95v676h95zM247 822v-73h-246v73h246z" />
    <glyph glyph-name="imacron" unicode="&#x12b;" horiz-adv-x="220" 
d="M233 626v-73h-246v73h246zM156 480v-480h-92v480h92z" />
    <glyph glyph-name="Iogonek" unicode="&#x12e;" horiz-adv-x="247" 
d="M171 676v-676q-30 -23 -53.5 -56t-23.5 -61q0 -47 55 -47l47 5l7 -46q-34 -11 -75 -11q-54 0 -85 21.5t-31 60.5q0 66 64 117v693h95z" />
    <glyph glyph-name="iogonek" unicode="&#x12f;" horiz-adv-x="220" 
d="M156 480v-480q-30 -24 -53.5 -56.5t-23.5 -60.5q0 -47 55 -47l47 5l7 -46q-34 -11 -75 -11q-54 0 -85 21.5t-31 60.5q0 66 67 120v494h92zM50 626q0 28 17 44t43 16t43 -16t17 -44t-17 -44t-43 -16t-43 16t-17 44z" />
    <glyph glyph-name="Idotaccent" unicode="&#x130;" horiz-adv-x="247" 
d="M171 676v-676h-95v676h95zM64 822q0 28 17 44t43 16t43 -16t17 -44t-17 -44t-43 -16t-43 16t-17 44z" />
    <glyph glyph-name="dotlessi" unicode="&#x131;" horiz-adv-x="220" 
d="M156 480v-480h-92v480h92z" />
    <glyph glyph-name="Jcircumflex" unicode="&#x134;" horiz-adv-x="315" 
d="M249 676v-441q0 -134 -61 -192t-198 -58v85q85 0 124.5 35t39.5 123v448h95zM218 868l123 -104l-22 -36l-112 60h-8l-110 -60l-24 36l123 104h30z" />
    <glyph glyph-name="jcircumflex" unicode="&#x135;" horiz-adv-x="221" 
d="M156 480v-558q0 -159 -173 -159h-22v86h16q51 0 68.5 21.5t17.5 62.5v547h93zM124 672l123 -104l-22 -36l-112 60h-8l-110 -60l-24 36l123 104h30z" />
    <glyph glyph-name="Kcommaaccent" unicode="&#x136;" horiz-adv-x="546" 
d="M171 676v-307h48l204 307h110l-230 -341l238 -335h-114l-209 294h-47v-294h-95v676h95zM234 -104q0 28 17 44t43 16t43 -16t17 -44q0 -31 -29 -107l-32 -82l-40 7l20 123v2q-39 12 -39 57z" />
    <glyph glyph-name="kcommaaccent" unicode="&#x137;" horiz-adv-x="463" 
d="M446 0h-111l-139 204h-40v-204h-92v696h92v-423h39l134 207h107l-156 -238zM178 -104q0 28 17 44t43 16t43 -16t17 -44q0 -31 -29 -107l-32 -82l-40 7l20 123v2q-39 12 -39 57z" />
    <glyph glyph-name="Lacute" unicode="&#x139;" horiz-adv-x="467" 
d="M461 76v-76h-385v676h95v-600h290zM277 837q0 -20 -20 -33l-116 -74h-47l87 112q22 27 57 27q18 0 28.5 -9t10.5 -23z" />
    <glyph glyph-name="lacute" unicode="&#x13a;" horiz-adv-x="247" 
d="M211 -10q-75 2 -111 35.5t-36 112.5v558h92v-533q0 -45 10.5 -60.5t45.5 -25.5l18 -5zM257 837q0 -20 -20 -33l-116 -74h-47l87 112q22 27 57 27q18 0 28.5 -9t10.5 -23z" />
    <glyph glyph-name="Lcommaaccent" unicode="&#x13b;" horiz-adv-x="467" 
d="M461 76v-76h-385v676h95v-600h290zM214 -104q0 28 17 44t43 16t43 -16t17 -44q0 -31 -29 -107l-32 -82l-40 7l20 123v2q-39 12 -39 57z" />
    <glyph glyph-name="lcommaaccent" unicode="&#x13c;" horiz-adv-x="247" 
d="M211 -10q-75 2 -111 35.5t-36 112.5v558h92v-533q0 -45 10.5 -60.5t45.5 -25.5l18 -5zM81 -104q0 28 17 44t43 16t43 -16t17 -44q0 -31 -29 -107l-32 -82l-40 7l20 123v2q-39 12 -39 57z" />
    <glyph glyph-name="Lcaron" unicode="&#x13d;" horiz-adv-x="467" 
d="M461 76v-76h-385v676h95v-600h290zM243 631q0 28 17 44t43 16t43 -16t17 -44q0 -29 -22 -101l-26 -88l-34 6l16 123q-24 2 -39 17.5t-15 42.5z" />
    <glyph glyph-name="lcaron" unicode="&#x13e;" horiz-adv-x="357" 
d="M211 -10q-75 2 -111 35.5t-36 112.5v558h92v-533q0 -45 10.5 -60.5t45.5 -25.5l18 -5zM223 651q0 28 17 44t43 16t43 -16t17 -44q0 -29 -22 -101l-26 -88l-34 6l16 123q-24 2 -39 17.5t-15 42.5z" />
    <glyph glyph-name="Ldot" unicode="&#x13f;" horiz-adv-x="467" 
d="M461 76v-76h-385v676h95v-600h290zM244 344q0 28 17 44t43 16t43 -16t17 -44t-17 -44t-43 -16t-43 16t-17 44z" />
    <glyph glyph-name="ldot" unicode="&#x140;" horiz-adv-x="354" 
d="M211 -10q-75 2 -111 35.5t-36 112.5v558h92v-533q0 -45 10.5 -60.5t45.5 -25.5l18 -5zM219 359q0 28 17 44t43 16t43 -16t17 -44t-17 -44t-43 -16t-43 16t-17 44z" />
    <glyph glyph-name="Lslash" unicode="&#x141;" horiz-adv-x="467" 
d="M-1 214v81l77 43v338h95v-262l-2 -25l3 -2q6 7 20 15l93 52v-81l-114 -64v-233h290v-76h-385v234l2 26l-2 1q-8 -8 -18 -14z" />
    <glyph glyph-name="lslash" unicode="&#x142;" horiz-adv-x="247" 
d="M64 343v353h92v-282l-3 -23l2 -1q8 9 18 14l49 28v-75l-66 -37v-157q0 -45 10.5 -60.5t45.5 -25.5l18 -5l-19 -82q-75 2 -111 35.5t-36 112.5v102l3 31l-2 1q-10 -10 -18 -14l-49 -27v75z" />
    <glyph glyph-name="Nacute" unicode="&#x143;" horiz-adv-x="695" 
d="M619 676v-676h-98l-318 469l-32 58l-7 -2q7 -54 7 -76v-449h-95v676h98l318 -469l29 -55l7 2q-4 47 -4 69v453h95zM503 837q0 -20 -20 -33l-116 -74h-47l87 112q22 27 57 27q18 0 28.5 -9t10.5 -23z" />
    <glyph glyph-name="nacute" unicode="&#x144;" horiz-adv-x="508" 
d="M452 326v-326h-92v316q0 90 -84 90q-54 0 -87 -37t-33 -99v-270h-92v480h57l33 -60h4q58 70 147 70q70 0 108.5 -44t38.5 -120zM390 641q0 -20 -20 -33l-116 -74h-47l87 112q22 27 57 27q18 0 28.5 -9t10.5 -23z" />
    <glyph glyph-name="Ncommaaccent" unicode="&#x145;" horiz-adv-x="695" 
d="M619 676v-676h-98l-318 469l-32 58l-7 -2q7 -54 7 -76v-449h-95v676h98l318 -469l29 -55l7 2q-4 47 -4 69v453h95zM281 -104q0 28 17 44t43 16t43 -16t17 -44q0 -31 -29 -107l-32 -82l-40 7l20 123v2q-39 12 -39 57z" />
    <glyph glyph-name="ncommaaccent" unicode="&#x146;" horiz-adv-x="508" 
d="M452 326v-326h-92v316q0 90 -84 90q-54 0 -87 -37t-33 -99v-270h-92v480h57l33 -60h4q58 70 147 70q70 0 108.5 -44t38.5 -120zM198 -104q0 28 17 44t43 16t43 -16t17 -44q0 -31 -29 -107l-32 -82l-40 7l20 123v2q-39 12 -39 57z" />
    <glyph glyph-name="Ncaron" unicode="&#x147;" horiz-adv-x="695" 
d="M619 676v-676h-98l-318 469l-32 58l-7 -2q7 -54 7 -76v-449h-95v676h98l318 -469l29 -55l7 2q-4 47 -4 69v453h95zM338 730l-123 104l23 36l111 -60h8l111 60l23 -36l-123 -104h-30z" />
    <glyph glyph-name="ncaron" unicode="&#x148;" horiz-adv-x="508" 
d="M452 326v-326h-92v316q0 90 -84 90q-54 0 -87 -37t-33 -99v-270h-92v480h57l33 -60h4q58 70 147 70q70 0 108.5 -44t38.5 -120zM236 534l-123 104l23 36l111 -60h8l111 60l23 -36l-123 -104h-30z" />
    <glyph glyph-name="Omacron" unicode="&#x14c;" horiz-adv-x="678" 
d="M527 337q0 174 -56 225q-50 44 -132 44t-132 -44q-56 -51 -56 -225q0 -171 54 -221q49 -46 134 -46q86 0 135 46q53 51 53 221zM623 337q0 -212 -83 -286q-72 -66 -201 -66t-201 66q-83 76 -83 286q0 206 80 284q71 70 204 70q134 0 205 -70q79 -75 79 -284zM462 822v-73
h-246v73h246z" />
    <glyph glyph-name="omacron" unicode="&#x14d;" horiz-adv-x="495" 
d="M447 240q0 -70 -9.5 -116.5t-42.5 -79.5q-56 -54 -148 -54q-93 0 -147 54q-32 32 -42 78t-10 118t10.5 119.5t44.5 79.5q53 51 144 51q92 0 146 -51q33 -32 43.5 -78.5t10.5 -120.5zM355 240q0 109 -30 139q-27 27 -78 27q-50 0 -77 -27q-14 -14 -21 -40.5t-8 -45.5
t-1 -53q0 -109 30 -139q27 -27 77 -27q48 0 77 27q20 20 25.5 50.5t5.5 88.5zM370 626v-73h-246v73h246z" />
    <glyph glyph-name="Obreve" unicode="&#x14e;" horiz-adv-x="678" 
d="M527 337q0 174 -56 225q-50 44 -132 44t-132 -44q-56 -51 -56 -225q0 -171 54 -221q49 -46 134 -46q86 0 135 46q53 51 53 221zM623 337q0 -212 -83 -286q-72 -66 -201 -66t-201 66q-83 76 -83 286q0 206 80 284q71 70 204 70q134 0 205 -70q79 -75 79 -284zM423 869h47
q0 -62 -34.5 -100.5t-96.5 -38.5t-96.5 38.5t-34.5 100.5h47q2 -27 23.5 -48.5t60.5 -21.5t60.5 21.5t23.5 48.5z" />
    <glyph glyph-name="obreve" unicode="&#x14f;" horiz-adv-x="495" 
d="M447 240q0 -70 -9.5 -116.5t-42.5 -79.5q-56 -54 -148 -54q-93 0 -147 54q-32 32 -42 78t-10 118t10.5 119.5t44.5 79.5q53 51 144 51q92 0 146 -51q33 -32 43.5 -78.5t10.5 -120.5zM355 240q0 109 -30 139q-27 27 -78 27q-50 0 -77 -27q-14 -14 -21 -40.5t-8 -45.5
t-1 -53q0 -109 30 -139q27 -27 77 -27q48 0 77 27q20 20 25.5 50.5t5.5 88.5zM331 673h47q0 -62 -34.5 -100.5t-96.5 -38.5t-96.5 38.5t-34.5 100.5h47q2 -27 23.5 -48.5t60.5 -21.5t60.5 21.5t23.5 48.5z" />
    <glyph glyph-name="Ohungarumlaut" unicode="&#x150;" horiz-adv-x="678" 
d="M527 337q0 174 -56 225q-50 44 -132 44t-132 -44q-56 -51 -56 -225q0 -171 54 -221q49 -46 134 -46q86 0 135 46q53 51 53 221zM623 337q0 -212 -83 -286q-72 -66 -201 -66t-201 66q-83 76 -83 286q0 206 80 284q71 70 204 70q134 0 205 -70q79 -75 79 -284zM424 837
q0 -23 -35 -45l-100 -62h-40l79 105q26 34 59 34q17 0 27 -9t10 -23zM572 837q0 -23 -35 -45l-100 -62h-40l79 105q26 34 59 34q17 0 27 -9t10 -23z" />
    <glyph glyph-name="ohungarumlaut" unicode="&#x151;" horiz-adv-x="495" 
d="M447 240q0 -70 -9.5 -116.5t-42.5 -79.5q-56 -54 -148 -54q-93 0 -147 54q-32 32 -42 78t-10 118t10.5 119.5t44.5 79.5q53 51 144 51q92 0 146 -51q33 -32 43.5 -78.5t10.5 -120.5zM355 240q0 109 -30 139q-27 27 -78 27q-50 0 -77 -27q-14 -14 -21 -40.5t-8 -45.5
t-1 -53q0 -109 30 -139q27 -27 77 -27q48 0 77 27q20 20 25.5 50.5t5.5 88.5zM312 641q0 -23 -35 -45l-100 -62h-40l79 105q26 34 59 34q17 0 27 -9t10 -23zM460 641q0 -23 -35 -45l-100 -62h-40l79 105q25 34 59 34q17 0 27 -9t10 -23z" />
    <glyph glyph-name="OE" unicode="&#x152;" horiz-adv-x="916" 
d="M525 337q0 176 -55 224q-48 45 -132 45q-82 0 -132 -45q-54 -47 -54 -224q0 -172 52 -221q49 -46 134 -46q86 0 135 46q52 50 52 221zM910 77v-77h-465q-48 -15 -107 -15q-126 0 -200 68q-83 73 -83 284q0 207 79 282q75 72 204 72q57 0 105 -15h444v-77h-324l-2 -6
q53 -61 58 -199h166v-75h-165q-1 -169 -59 -237l3 -5h346z" />
    <glyph glyph-name="oe" unicode="&#x153;" horiz-adv-x="798" 
d="M355 240q0 109 -30 139q-27 27 -78 27q-50 0 -77 -27q-14 -14 -21 -40.5t-8 -45.5t-1 -53q0 -109 30 -139q27 -27 77 -27q48 0 77 27q20 20 25.5 50.5t5.5 88.5zM447 298h217v16q0 53 -23 72.5t-81 19.5t-85.5 -23t-27.5 -85zM402 52h-2q-4 -5 -7 -8q-56 -54 -146 -54
q-93 0 -147 54q-32 32 -42 78t-10 118t10.5 119.5t44.5 79.5q53 51 144 51q86 0 142 -50l10 -10h3q5 6 9 10q50 50 149 50q97 0 146.5 -46t49.5 -134l-2 -86h-307v-8q0 -87 28.5 -114.5t96.5 -27.5q70 0 154 39l26 -66q-87 -57 -183 -57q-109 0 -160 54z" />
    <glyph glyph-name="Racute" unicode="&#x154;" horiz-adv-x="556" 
d="M430 317q-30 -26 -79 -35l199 -282h-114l-190 274h-75v-274h-95v676h212q94 0 145 -52.5t51 -152.5q0 -107 -54 -154zM388 471q0 120 -101 120h-116v-241h116q101 0 101 121zM382 837q0 -20 -20 -33l-116 -74h-47l87 112q22 27 57 27q18 0 28.5 -9t10.5 -23z" />
    <glyph glyph-name="racute" unicode="&#x155;" horiz-adv-x="319" 
d="M280 490h22l-11 -84h-15q-62 0 -91 -37.5t-29 -114.5v-254h-92v480h55l33 -60h6q45 70 122 70zM325 641q0 -20 -20 -33l-116 -74h-47l87 112q22 27 57 27q18 0 28.5 -9t10.5 -23z" />
    <glyph glyph-name="Rcommaaccent" unicode="&#x156;" horiz-adv-x="556" 
d="M430 317q-30 -26 -79 -35l199 -282h-114l-190 274h-75v-274h-95v676h212q94 0 145 -52.5t51 -152.5q0 -107 -54 -154zM388 471q0 120 -101 120h-116v-241h116q101 0 101 121zM224 -104q0 28 17 44t43 16t43 -16t17 -44q0 -31 -29 -107l-32 -82l-40 7l20 123v2
q-39 12 -39 57z" />
    <glyph glyph-name="rcommaaccent" unicode="&#x157;" horiz-adv-x="319" 
d="M280 490h22l-11 -84h-15q-62 0 -91 -37.5t-29 -114.5v-254h-92v480h55l33 -60h6q45 70 122 70zM49 -104q0 28 17 44t43 16t43 -16t17 -44q0 -31 -29 -107l-32 -82l-40 7l20 123v2q-39 12 -39 57z" />
    <glyph glyph-name="Rcaron" unicode="&#x158;" horiz-adv-x="556" 
d="M430 317q-30 -26 -79 -35l199 -282h-114l-190 274h-75v-274h-95v676h212q94 0 145 -52.5t51 -152.5q0 -107 -54 -154zM388 471q0 120 -101 120h-116v-241h116q101 0 101 121zM237 730l-123 104l23 36l111 -60h8l111 60l23 -36l-123 -104h-30z" />
    <glyph glyph-name="rcaron" unicode="&#x159;" horiz-adv-x="319" 
d="M280 490h22l-11 -84h-15q-62 0 -91 -37.5t-29 -114.5v-254h-92v480h55l33 -60h6q45 70 122 70zM156 534l-123 104l23 36l111 -60h8l111 60l23 -36l-123 -104h-30z" />
    <glyph glyph-name="Sacute" unicode="&#x15a;" horiz-adv-x="544" 
d="M500 193q0 -91 -57.5 -149.5t-173.5 -58.5q-123 0 -225 75l42 73q89 -63 181 -63q66 0 101.5 32t35.5 84q0 47 -26.5 75.5t-82.5 42.5l-92 24q-74 20 -114.5 60.5t-40.5 114.5q0 80 56.5 134t163.5 54q110 0 191 -59l-43 -74q-76 48 -150 48q-55 0 -88.5 -25.5
t-33.5 -69.5q0 -72 79 -94l99 -26q91 -24 134.5 -70t43.5 -128zM414 837q0 -20 -20 -33l-116 -74h-47l87 112q22 27 57 27q18 0 28.5 -9t10.5 -23z" />
    <glyph glyph-name="sacute" unicode="&#x15b;" horiz-adv-x="475" 
d="M430 143q-1 -63 -44 -108t-140 -45q-51 0 -105.5 18t-95.5 48l38 71q34 -22 78.5 -37.5t80.5 -15.5q51 0 73.5 19.5t22.5 48.5q0 48 -64 57l-105 15q-120 17 -120 126q0 69 51.5 109.5t133.5 40.5q86 0 163 -40l-29 -74q-69 30 -134 30q-38 0 -60 -11.5t-27.5 -23.5
t-5.5 -25q0 -42 55 -50l98 -15q136 -21 136 -138zM383 641q0 -20 -20 -33l-116 -74h-47l87 112q22 27 57 27q18 0 28.5 -9t10.5 -23z" />
    <glyph glyph-name="Scircumflex" unicode="&#x15c;" horiz-adv-x="544" 
d="M500 193q0 -91 -57.5 -149.5t-173.5 -58.5q-123 0 -225 75l42 73q89 -63 181 -63q66 0 101.5 32t35.5 84q0 47 -26.5 75.5t-82.5 42.5l-92 24q-74 20 -114.5 60.5t-40.5 114.5q0 80 56.5 134t163.5 54q110 0 191 -59l-43 -74q-76 48 -150 48q-55 0 -88.5 -25.5
t-33.5 -69.5q0 -72 79 -94l99 -26q91 -24 134.5 -70t43.5 -128zM283 868l123 -104l-22 -36l-112 60h-8l-110 -60l-24 36l123 104h30z" />
    <glyph glyph-name="scircumflex" unicode="&#x15d;" horiz-adv-x="475" 
d="M430 143q-1 -63 -44 -108t-140 -45q-51 0 -105.5 18t-95.5 48l38 71q34 -22 78.5 -37.5t80.5 -15.5q51 0 73.5 19.5t22.5 48.5q0 48 -64 57l-105 15q-120 17 -120 126q0 69 51.5 109.5t133.5 40.5q86 0 163 -40l-29 -74q-69 30 -134 30q-38 0 -60 -11.5t-27.5 -23.5
t-5.5 -25q0 -42 55 -50l98 -15q136 -21 136 -138zM245 672l123 -104l-22 -36l-112 60h-8l-110 -60l-24 36l123 104h30z" />
    <glyph glyph-name="Scedilla" unicode="&#x15e;" horiz-adv-x="544" 
d="M500 193q0 -87 -52.5 -144.5t-159.5 -62.5l-7 -38h15q97 0 97 -78q0 -44 -26.5 -65t-87.5 -21q-21 0 -45 3t-38 7l-13 3l6 45q53 -8 79 -8q51 0 51 36q0 18 -11.5 26.5t-40.5 8.5h-54l17 82q-104 11 -186 73l42 73q89 -63 181 -63q66 0 101.5 32t35.5 84q0 47 -26.5 75.5
t-82.5 42.5l-92 24q-74 20 -114.5 60.5t-40.5 114.5q0 80 56.5 134t163.5 54q110 0 191 -59l-43 -74q-76 48 -150 48q-55 0 -88.5 -25.5t-33.5 -69.5q0 -72 79 -94l99 -26q91 -24 134.5 -70t43.5 -128z" />
    <glyph glyph-name="scedilla" unicode="&#x15f;" horiz-adv-x="475" 
d="M430 143q-1 -38 -15 -69.5t-54 -56.5t-102 -27l-8 -42h15q97 0 97 -78q0 -44 -26.5 -65t-87.5 -21q-21 0 -45 3t-38 7l-13 3l6 45q53 -8 79 -8q51 0 51 36q0 18 -11.5 26.5t-40.5 8.5h-54l19 89q-90 13 -157 62l38 71q34 -22 78.5 -37.5t80.5 -15.5q51 0 73.5 19.5
t22.5 48.5q0 48 -64 57l-105 15q-120 17 -120 126q0 69 51.5 109.5t133.5 40.5q86 0 163 -40l-29 -74q-69 30 -134 30q-38 0 -60 -11.5t-27.5 -23.5t-5.5 -25q0 -42 55 -50l98 -15q136 -21 136 -138z" />
    <glyph glyph-name="Scaron" unicode="&#x160;" horiz-adv-x="544" 
d="M500 193q0 -91 -57.5 -149.5t-173.5 -58.5q-123 0 -225 75l42 73q89 -63 181 -63q66 0 101.5 32t35.5 84q0 47 -26.5 75.5t-82.5 42.5l-92 24q-74 20 -114.5 60.5t-40.5 114.5q0 80 56.5 134t163.5 54q110 0 191 -59l-43 -74q-76 48 -150 48q-55 0 -88.5 -25.5
t-33.5 -69.5q0 -72 79 -94l99 -26q91 -24 134.5 -70t43.5 -128zM239 734l-123 104l23 36l111 -60h8l111 60l23 -36l-123 -104h-30z" />
    <glyph glyph-name="scaron" unicode="&#x161;" horiz-adv-x="475" 
d="M430 143q-1 -63 -44 -108t-140 -45q-51 0 -105.5 18t-95.5 48l38 71q34 -22 78.5 -37.5t80.5 -15.5q51 0 73.5 19.5t22.5 48.5q0 48 -64 57l-105 15q-120 17 -120 126q0 69 51.5 109.5t133.5 40.5q86 0 163 -40l-29 -74q-69 30 -134 30q-38 0 -60 -11.5t-27.5 -23.5
t-5.5 -25q0 -42 55 -50l98 -15q136 -21 136 -138zM214 534l-123 104l23 36l111 -60h8l111 60l23 -36l-123 -104h-30z" />
    <glyph glyph-name="Tcommaaccent" unicode="&#x162;" horiz-adv-x="551" 
d="M541 676v-76h-218v-600h-95v600h-218v76h531zM213 -104q0 28 17 44t43 16t43 -16t17 -44q0 -31 -29 -107l-32 -82l-40 7l20 123v2q-39 12 -39 57z" />
    <glyph glyph-name="Tcommaaccent" unicode="&#x21a;" horiz-adv-x="551" 
d="M541 676v-76h-218v-600h-95v600h-218v76h531zM213 -104q0 28 17 44t43 16t43 -16t17 -44q0 -31 -29 -107l-32 -82l-40 7l20 123v2q-39 12 -39 57z" />
    <glyph glyph-name="tcommaaccent" unicode="&#x163;" horiz-adv-x="295" 
d="M259 65h15l-17 -75q-98 0 -139 33.5t-41 124.5v258h-67v74h67v124l92 23v-147h101v-74h-101v-253q0 -51 20.5 -69.5t69.5 -18.5zM102 -104q0 28 17 44t43 16t43 -16t17 -44q0 -31 -29 -107l-32 -82l-40 7l20 123v2q-39 12 -39 57z" />
    <glyph glyph-name="tcommaaccent" unicode="&#x21b;" horiz-adv-x="295" 
d="M259 65h15l-17 -75q-98 0 -139 33.5t-41 124.5v258h-67v74h67v124l92 23v-147h101v-74h-101v-253q0 -51 20.5 -69.5t69.5 -18.5zM102 -104q0 28 17 44t43 16t43 -16t17 -44q0 -31 -29 -107l-32 -82l-40 7l20 123v2q-39 12 -39 57z" />
    <glyph glyph-name="Tcaron" unicode="&#x164;" horiz-adv-x="551" 
d="M541 676v-76h-218v-600h-95v600h-218v76h531zM260 730l-123 104l23 36l111 -60h8l111 60l23 -36l-123 -104h-30z" />
    <glyph glyph-name="tcaron" unicode="&#x165;" horiz-adv-x="295" 
d="M259 65h15l-17 -75q-98 0 -139 33.5t-41 124.5v258h-67v74h67v124l92 23v-147h101v-74h-101v-253q0 -51 20.5 -69.5t69.5 -18.5zM194 725q0 28 17 44t43 16t43 -16t17 -44q0 -29 -22 -101l-26 -88l-34 6l16 123q-24 2 -39 17.5t-15 42.5z" />
    <glyph glyph-name="Utilde" unicode="&#x168;" horiz-adv-x="633" 
d="M567 676v-470q0 -110 -67.5 -165.5t-183.5 -55.5q-115 0 -182.5 55.5t-67.5 165.5v470h96v-463q0 -143 154 -143q155 0 155 143v463h96zM436 852l38 -7q-11 -91 -85 -91q-16 0 -66 12.5t-67 12.5q-30 0 -44 -29l-37 8q12 90 85 90q16 0 65.5 -12.5t66.5 -12.5q31 0 44 29
z" />
    <glyph glyph-name="utilde" unicode="&#x169;" horiz-adv-x="510" 
d="M444 480v-343q0 -26 6.5 -37t25.5 -17l16 -5l-26 -88q-82 5 -108 71h-6q-56 -71 -144 -71q-73 0 -112.5 43t-39.5 125v322h92v-310q0 -96 78 -96q59 0 92.5 42t33.5 111v253h92zM373 656l38 -7q-11 -91 -85 -91q-16 0 -66 12.5t-67 12.5q-30 0 -44 -29l-37 8q12 90 85 90
q16 0 65.5 -12.5t66.5 -12.5q31 0 44 29z" />
    <glyph glyph-name="Umacron" unicode="&#x16a;" horiz-adv-x="633" 
d="M567 676v-470q0 -110 -67.5 -165.5t-183.5 -55.5q-115 0 -182.5 55.5t-67.5 165.5v470h96v-463q0 -143 154 -143q155 0 155 143v463h96zM439 822v-73h-246v73h246z" />
    <glyph glyph-name="umacron" unicode="&#x16b;" horiz-adv-x="510" 
d="M444 480v-343q0 -26 6.5 -37t25.5 -17l16 -5l-26 -88q-82 5 -108 71h-6q-56 -71 -144 -71q-73 0 -112.5 43t-39.5 125v322h92v-310q0 -96 78 -96q59 0 92.5 42t33.5 111v253h92zM375 626v-73h-246v73h246z" />
    <glyph glyph-name="Ubreve" unicode="&#x16c;" horiz-adv-x="633" 
d="M567 676v-470q0 -110 -67.5 -165.5t-183.5 -55.5q-115 0 -182.5 55.5t-67.5 165.5v470h96v-463q0 -143 154 -143q155 0 155 143v463h96zM400 869h47q0 -62 -34.5 -100.5t-96.5 -38.5t-96.5 38.5t-34.5 100.5h47q2 -27 23.5 -48.5t60.5 -21.5t60.5 21.5t23.5 48.5z" />
    <glyph glyph-name="ubreve" unicode="&#x16d;" horiz-adv-x="510" 
d="M444 480v-343q0 -26 6.5 -37t25.5 -17l16 -5l-26 -88q-82 5 -108 71h-6q-56 -71 -144 -71q-73 0 -112.5 43t-39.5 125v322h92v-310q0 -96 78 -96q59 0 92.5 42t33.5 111v253h92zM336 673h47q0 -62 -34.5 -100.5t-96.5 -38.5t-96.5 38.5t-34.5 100.5h47q2 -27 23.5 -48.5
t60.5 -21.5t60.5 21.5t23.5 48.5z" />
    <glyph glyph-name="Uring" unicode="&#x16e;" horiz-adv-x="633" 
d="M567 676v-470q0 -110 -67.5 -165.5t-183.5 -55.5q-115 0 -182.5 55.5t-67.5 165.5v470h96v-463q0 -143 154 -143q155 0 155 143v463h96zM369 833q0 22 -15.5 38t-37.5 16t-37.5 -16t-15.5 -38q0 -23 15.5 -38t37.5 -15t37.5 15t15.5 38zM423 833q0 -44 -30.5 -73.5
t-76.5 -29.5t-76.5 29.5t-30.5 73.5t30.5 74t76.5 30t76.5 -30t30.5 -74z" />
    <glyph glyph-name="uring" unicode="&#x16f;" horiz-adv-x="510" 
d="M444 480v-343q0 -26 6.5 -37t25.5 -17l16 -5l-26 -88q-82 5 -108 71h-6q-56 -71 -144 -71q-73 0 -112.5 43t-39.5 125v322h92v-310q0 -96 78 -96q59 0 92.5 42t33.5 111v253h92zM306 637q0 22 -15.5 38t-37.5 16t-37.5 -16t-15.5 -38q0 -23 15 -38t38 -15t38 15t15 38z
M360 637q0 -44 -30.5 -73.5t-76.5 -29.5t-76.5 29.5t-30.5 73.5t30.5 74t76.5 30t76.5 -30t30.5 -74z" />
    <glyph glyph-name="Uhungarumlaut" unicode="&#x170;" horiz-adv-x="633" 
d="M567 676v-470q0 -110 -67.5 -165.5t-183.5 -55.5q-115 0 -182.5 55.5t-67.5 165.5v470h96v-463q0 -143 154 -143q155 0 155 143v463h96zM394 837q0 -23 -35 -45l-100 -62h-40l79 105q26 34 59 34q17 0 27 -9t10 -23zM542 837q0 -23 -35 -45l-100 -62h-40l79 105
q26 34 59 34q17 0 27 -9t10 -23z" />
    <glyph glyph-name="uhungarumlaut" unicode="&#x171;" horiz-adv-x="510" 
d="M444 480v-343q0 -26 6.5 -37t25.5 -17l16 -5l-26 -88q-82 5 -108 71h-6q-56 -71 -144 -71q-73 0 -112.5 43t-39.5 125v322h92v-310q0 -96 78 -96q59 0 92.5 42t33.5 111v253h92zM321 641q0 -23 -35 -45l-100 -62h-40l79 105q25 34 59 34q17 0 27 -9t10 -23zM469 641
q0 -23 -35 -45l-100 -62h-40l79 105q25 34 59 34q17 0 27 -9t10 -23z" />
    <glyph glyph-name="Uogonek" unicode="&#x172;" horiz-adv-x="633" 
d="M453 -159l7 -46q-34 -11 -75 -11q-54 0 -85 21.5t-31 60.5q0 65 64 118v2q-12 -1 -17 -1q-115 0 -182.5 55.5t-67.5 165.5v470h96v-463q0 -143 154 -143q155 0 155 143v463h96v-470q0 -162 -145 -206q-28 -24 -49.5 -57t-21.5 -60q0 -47 55 -47z" />
    <glyph glyph-name="uogonek" unicode="&#x173;" horiz-adv-x="510" 
d="M444 480v-343q0 -26 6.5 -37t25.5 -17l16 -5l-26 -88q-65 -61 -65 -107q0 -47 55 -47l47 5l7 -46q-34 -11 -75 -11q-54 0 -85 21.5t-31 60.5q0 46 28 80.5t61 54.5v3q-36 18 -50 57h-6q-56 -71 -144 -71q-73 0 -112.5 43t-39.5 125v322h92v-310q0 -96 78 -96
q59 0 92.5 42t33.5 111v253h92z" />
    <glyph glyph-name="Wcircumflex" unicode="&#x174;" horiz-adv-x="916" 
d="M655 120q9 51 19 87l136 469h98l-197 -676h-108l-125 388l-16 74h-8q-8 -49 -16 -74l-125 -388h-108l-197 676h98l136 -469l21 -87h8q11 56 20 87l134 414h67l133 -414l21 -87h9zM472 868l123 -104l-22 -36l-112 60h-8l-110 -60l-24 36l123 104h30z" />
    <glyph glyph-name="wcircumflex" unicode="&#x175;" horiz-adv-x="690" 
d="M580 480h93l-134 -480h-87l-93 246l-11 48h-7q-5 -31 -12 -48l-92 -246h-87l-133 480h93l81 -294l11 -53h8q6 34 14 53l98 261h45l98 -261l14 -53h8q5 31 12 53zM358 672l123 -104l-22 -36l-112 60h-8l-110 -60l-24 36l123 104h30z" />
    <glyph glyph-name="Ycircumflex" unicode="&#x176;" horiz-adv-x="598" 
d="M303 366q9 26 23 50l155 260h109l-243 -409v-267h-96v267l-243 409h109l155 -260q6 -10 12 -22.5t8 -19.5l3 -8h8zM314 868l123 -104l-22 -36l-112 60h-8l-110 -60l-24 36l123 104h30z" />
    <glyph glyph-name="ycircumflex" unicode="&#x177;" horiz-adv-x="507" 
d="M394 480h96l-171 -526q-35 -108 -76 -149t-126 -41h-57v84h62q42 0 60 16t37 75l9 27l-211 514h99l135 -334l16 -55h9q4 27 13 55zM273 672l123 -104l-22 -36l-112 60h-8l-110 -60l-24 36l123 104h30z" />
    <glyph glyph-name="Ydieresis" unicode="&#x178;" horiz-adv-x="598" 
d="M303 366q9 26 23 50l155 260h109l-243 -409v-267h-96v267l-243 409h109l155 -260q6 -10 12 -22.5t8 -19.5l3 -8h8zM144 822q0 28 17 44t43 16t43 -16t17 -44t-17 -44t-43 -16t-43 16t-17 44zM334 822q0 28 17 44t43 16t43 -16t17 -44t-17 -44t-43 -16t-43 16t-17 44z" />
    <glyph glyph-name="Zacute" unicode="&#x179;" horiz-adv-x="518" 
d="M496 76v-76h-474l305 557q6 12 12.5 21.5t10.5 13.5l3 3l-1 5h-296v76h439l-307 -561l-25 -35l1 -4h332zM421 837q0 -20 -20 -33l-116 -74h-47l87 112q22 27 57 27q18 0 28.5 -9t10.5 -23z" />
    <glyph glyph-name="zacute" unicode="&#x17a;" horiz-adv-x="453" 
d="M411 74v-74h-369v36l209 329q6 10 14 19.5t13 13.5l4 4v4h-220v74h349v-30l-214 -339q-4 -7 -11 -15t-12 -12l-4 -5l1 -5h240zM388 641q0 -20 -20 -33l-116 -74h-47l87 112q22 27 57 27q18 0 28.5 -9t10.5 -23z" />
    <glyph glyph-name="Zdotaccent" unicode="&#x17b;" horiz-adv-x="518" 
d="M496 76v-76h-474l305 557q6 12 12.5 21.5t10.5 13.5l3 3l-1 5h-296v76h439l-307 -561l-25 -35l1 -4h332zM214 822q0 28 17 44t43 16t43 -16t17 -44t-17 -44t-43 -16t-43 16t-17 44z" />
    <glyph glyph-name="zdotaccent" unicode="&#x17c;" horiz-adv-x="453" 
d="M411 74v-74h-369v36l209 329q6 10 14 19.5t13 13.5l4 4v4h-220v74h349v-30l-214 -339q-4 -7 -11 -15t-12 -12l-4 -5l1 -5h240zM186 626q0 28 17 44t43 16t43 -16t17 -44t-17 -44t-43 -16t-43 16t-17 44z" />
    <glyph glyph-name="Zcaron" unicode="&#x17d;" horiz-adv-x="518" 
d="M496 76v-76h-474l305 557q6 12 12.5 21.5t10.5 13.5l3 3l-1 5h-296v76h439l-307 -561l-25 -35l1 -4h332zM256 734l-123 104l23 36l111 -60h8l111 60l23 -36l-123 -104h-30z" />
    <glyph glyph-name="zcaron" unicode="&#x17e;" horiz-adv-x="453" 
d="M223 534l-123 104l23 36l111 -60h8l111 60l23 -36l-123 -104h-30zM411 74v-74h-369v36l209 329q6 10 14 19.5t13 13.5l4 4v4h-220v74h349v-30l-214 -339q-4 -7 -11 -15t-12 -12l-4 -5l1 -5h240z" />
    <glyph glyph-name="florin" unicode="&#x192;" horiz-adv-x="393" 
d="M-110 -231l17 79q16 -2 37 -2q36 0 54.5 14t25.5 51l96 494h-66l15 75h66l17 86q15 80 55 112.5t115 32.5l56 -6l-17 -78q-16 2 -37 2q-36 0 -54 -14t-25 -51l-16 -84h101l-15 -75h-102l-96 -497q-15 -79 -55.5 -111.5t-115.5 -32.5z" />
    <glyph glyph-name="AEacute" unicode="&#x1fc;" horiz-adv-x="860" 
d="M448 185h-232l-100 -185h-106l368 676h453v-76h-288v-205h186v-76h-186v-243h311v-76h-406v185zM371 469l-113 -208h190v211l3 122l-20 3q-22 -58 -60 -128zM756 837q0 -20 -20 -33l-116 -74h-47l87 112q22 27 57 27q18 0 28.5 -9t10.5 -23z" />
    <glyph glyph-name="aeacute" unicode="&#x1fd;" horiz-adv-x="796" 
d="M207 74q38 0 80 17t74 48q-7 40 -7 85q-93 0 -137 -7q-81 -12 -81 -77q0 -31 19 -48.5t52 -17.5zM446 298h213v16q0 53 -22 72.5t-80 19.5q-57 0 -84 -22.5t-27 -85.5zM721 113l26 -66q-87 -57 -181 -57q-108 0 -160 54q-17 17 -23 31h-6q-74 -85 -185 -85
q-67 0 -107.5 37t-40.5 106q0 61 39 105.5t120 53.5q53 6 151 6v29q0 44 -21 61.5t-76 17.5q-69 0 -163 -38l-25 76q101 46 191 46q102 0 147 -50h4q52 50 146 50q194 0 194 -180l-2 -86h-303v-8q0 -88 28 -115t95 -27q68 0 152 39zM574 641q0 -20 -20 -33l-116 -74h-47
l87 112q22 27 57 27q18 0 28.5 -9t10.5 -23z" />
    <glyph glyph-name="Oslashacute" unicode="&#x1fe;" horiz-adv-x="678" 
d="M506 837q0 -20 -20 -33l-116 -74h-47l87 112q22 27 57 27q18 0 28.5 -9t10.5 -23zM623 337q0 -210 -83 -284q-74 -68 -201 -68q-108 0 -180 52l-43 -61l-55 38l49 70q-54 77 -54 253q0 205 79 282q74 72 204 72q99 0 167 -44l40 58l54 -38l-43 -62q66 -76 66 -268z
M526 337q0 122 -28 183l-287 -409q49 -41 128 -41q86 0 135 46q52 50 52 221zM153 337q0 -110 19 -164l282 401q-46 32 -115 32q-84 0 -132 -45q-54 -47 -54 -224z" />
    <glyph glyph-name="oslashacute" unicode="&#x1ff;" horiz-adv-x="495" 
d="M394 641q0 -20 -20 -33l-116 -74h-47l87 112q22 27 57 27q18 0 28.5 -9t10.5 -23zM60 15l28 42q-24 32 -32 75t-8 108q0 72 10.5 119.5t44.5 79.5q53 51 144 51q65 0 112 -27l24 36l51 -33l-28 -42q41 -52 41 -184q0 -70 -9.5 -116.5t-42.5 -79.5q-56 -54 -148 -54
q-64 0 -113 27l-23 -35zM355 240q0 66 -4 103l-3 1q-6 -14 -11 -22l-154 -232q22 -16 64 -16q48 0 77 27q20 20 25.5 50.5t5.5 88.5zM140 240q0 -75 3 -99l4 -1q4 12 11 22l152 228q-24 16 -63 16q-50 0 -77 -27q-14 -14 -21 -40.5t-8 -45.5t-1 -53z" />
    <glyph glyph-name="Adblgrave" unicode="&#x200;" horiz-adv-x="606" 
d="M203 261h200l-79 216l-16 65h-10q-5 -31 -17 -65zM353 676l243 -676h-99l-67 185h-254l-67 -185h-99l243 676h100zM235 837q0 14 10 23t27 9q34 0 59 -34l79 -105h-40l-100 62q-35 22 -35 45zM87 837q0 14 10 23t27 9q34 0 59 -34l79 -105h-40l-100 62q-35 22 -35 45z
" />
    <glyph glyph-name="adblgrave" unicode="&#x201;" horiz-adv-x="512" 
d="M354 133v96q-75 -5 -137 -16q-81 -16 -81 -76q0 -30 19 -46.5t52 -16.5q38 0 79.5 16.5t67.5 42.5zM478 83l16 -5l-26 -88q-82 4 -108 68h-6q-28 -31 -71.5 -49.5t-90.5 -18.5q-67 0 -107.5 37t-40.5 106q0 133 159 159q24 4 151 16v19q0 44 -21 61.5t-76 17.5
q-69 0 -163 -38l-25 76q101 46 191 46q186 0 186 -160v-200q0 -24 7 -32.5t25 -14.5zM213 641q0 14 10 23t27 9q34 0 59 -34l79 -105h-40l-100 62q-35 22 -35 45zM65 641q0 14 10 23t27 9q34 0 59 -34l79 -105h-40l-100 62q-35 22 -35 45z" />
    <glyph glyph-name="Ainvertedbreve" unicode="&#x202;" horiz-adv-x="606" 
d="M203 261h200l-79 216l-16 65h-10q-5 -31 -17 -65zM353 676l243 -676h-99l-67 185h-254l-67 -185h-99l243 676h100zM219 730h-47q0 62 34.5 100.5t96.5 38.5t96.5 -38.5t34.5 -100.5h-47q-2 27 -23.5 48.5t-60.5 21.5t-60.5 -21.5t-23.5 -48.5z" />
    <glyph glyph-name="ainvertedbreve" unicode="&#x203;" horiz-adv-x="512" 
d="M354 133v96q-75 -5 -137 -16q-81 -16 -81 -76q0 -30 19 -46.5t52 -16.5q38 0 79.5 16.5t67.5 42.5zM478 83l16 -5l-26 -88q-82 4 -108 68h-6q-28 -31 -71.5 -49.5t-90.5 -18.5q-67 0 -107.5 37t-40.5 106q0 133 159 159q24 4 151 16v19q0 44 -21 61.5t-76 17.5
q-69 0 -163 -38l-25 76q101 46 191 46q186 0 186 -160v-200q0 -24 7 -32.5t25 -14.5zM171 534h-47q0 62 34.5 100.5t96.5 38.5t96.5 -38.5t34.5 -100.5h-47q-2 27 -23.5 48.5t-60.5 21.5t-60.5 -21.5t-23.5 -48.5z" />
    <glyph glyph-name="Edblgrave" unicode="&#x204;" horiz-adv-x="488" 
d="M482 76v-76h-406v676h383v-76h-288v-205h186v-76h-186v-243h311zM207 837q0 14 10 23t27 9q34 0 59 -34l79 -105h-40l-100 62q-35 22 -35 45zM59 837q0 14 10 23t27 9q34 0 59 -34l79 -105h-40l-100 62q-35 22 -35 45z" />
    <glyph glyph-name="edblgrave" unicode="&#x205;" horiz-adv-x="491" 
d="M140 298h217v16q0 53 -23 72.5t-81 19.5t-85.5 -23t-27.5 -85zM418 114l27 -67q-31 -22 -81 -39.5t-102 -17.5q-111 0 -162 54q-52 54 -52 196q0 83 13 127t39 71q50 52 153 52q97 0 146.5 -46t49.5 -134l-2 -86h-307v-8q0 -88 32 -117q28 -25 93 -25q67 0 153 40z
M202 641q0 14 10 23t27 9q33 0 59 -34l79 -105h-40l-100 62q-35 22 -35 45zM54 641q0 14 10 23t27 9q33 0 59 -34l79 -105h-40l-100 62q-35 22 -35 45z" />
    <glyph glyph-name="Einvertedbreve" unicode="&#x206;" horiz-adv-x="488" 
d="M482 76v-76h-406v676h383v-76h-288v-205h186v-76h-186v-243h311zM190 730h-47q0 62 34.5 100.5t96.5 38.5t96.5 -38.5t34.5 -100.5h-47q-2 27 -23.5 48.5t-60.5 21.5t-60.5 -21.5t-23.5 -48.5z" />
    <glyph glyph-name="einvertedbreve" unicode="&#x207;" horiz-adv-x="491" 
d="M140 298h217v16q0 53 -23 72.5t-81 19.5t-85.5 -23t-27.5 -85zM418 114l27 -67q-31 -22 -81 -39.5t-102 -17.5q-111 0 -162 54q-52 54 -52 196q0 83 13 127t39 71q50 52 153 52q97 0 146.5 -46t49.5 -134l-2 -86h-307v-8q0 -88 32 -117q28 -25 93 -25q67 0 153 40z
M172 534h-47q0 62 34.5 100.5t96.5 38.5t96.5 -38.5t34.5 -100.5h-47q-2 27 -23.5 48.5t-60.5 21.5t-60.5 -21.5t-23.5 -48.5z" />
    <glyph glyph-name="Idblgrave" unicode="&#x208;" horiz-adv-x="247" 
d="M171 676v-676h-95v676h95zM44 837q0 14 10 23t27 9q33 0 59 -34l79 -105h-40l-100 62q-35 22 -35 45zM-104 837q0 14 10 23t27 9q33 0 59 -34l79 -105h-40l-100 62q-35 22 -35 45z" />
    <glyph glyph-name="idblgrave" unicode="&#x209;" horiz-adv-x="220" 
d="M39 641q0 14 10 23t27 9q34 0 59 -34l79 -105h-40l-100 62q-35 22 -35 45zM-109 641q0 14 10 23t27 9q34 0 59 -34l79 -105h-40l-100 62q-35 22 -35 45zM156 480v-480h-92v480h92z" />
    <glyph glyph-name="Iinvertedbreve" unicode="&#x20a;" horiz-adv-x="247" 
d="M171 676v-676h-95v676h95zM40 730h-47q0 62 34.5 100.5t96.5 38.5t96.5 -38.5t34.5 -100.5h-47q-2 27 -23.5 48.5t-60.5 21.5t-60.5 -21.5t-23.5 -48.5z" />
    <glyph glyph-name="iinvertedbreve" unicode="&#x20b;" horiz-adv-x="220" 
d="M26 534h-47q0 62 34.5 100.5t96.5 38.5t96.5 -38.5t34.5 -100.5h-47q-2 27 -23.5 48.5t-60.5 21.5t-60.5 -21.5t-23.5 -48.5zM156 480v-480h-92v480h92z" />
    <glyph glyph-name="Odblgrave" unicode="&#x20c;" horiz-adv-x="678" 
d="M527 337q0 174 -56 225q-50 44 -132 44t-132 -44q-56 -51 -56 -225q0 -171 54 -221q49 -46 134 -46q86 0 135 46q53 51 53 221zM623 337q0 -212 -83 -286q-72 -66 -201 -66t-201 66q-83 76 -83 286q0 206 80 284q71 70 204 70q134 0 205 -70q79 -75 79 -284zM254 837
q0 14 10 23t27 9q33 0 59 -34l79 -105h-40l-100 62q-35 22 -35 45zM106 837q0 14 10 23t27 9q33 0 59 -34l79 -105h-40l-100 62q-35 22 -35 45z" />
    <glyph glyph-name="odblgrave" unicode="&#x20d;" horiz-adv-x="495" 
d="M447 240q0 -70 -9.5 -116.5t-42.5 -79.5q-56 -54 -148 -54q-93 0 -147 54q-32 32 -42 78t-10 118t10.5 119.5t44.5 79.5q53 51 144 51q92 0 146 -51q33 -32 43.5 -78.5t10.5 -120.5zM355 240q0 109 -30 139q-27 27 -78 27q-50 0 -77 -27q-14 -14 -21 -40.5t-8 -45.5
t-1 -53q0 -109 30 -139q27 -27 77 -27q48 0 77 27q20 20 25.5 50.5t5.5 88.5zM183 641q0 14 10 23t27 9q34 0 59 -34l79 -105h-40l-100 62q-35 22 -35 45zM35 641q0 14 10 23t27 9q34 0 59 -34l79 -105h-40l-100 62q-35 22 -35 45z" />
    <glyph glyph-name="Oinvertedbreve" unicode="&#x20e;" horiz-adv-x="678" 
d="M527 337q0 174 -56 225q-50 44 -132 44t-132 -44q-56 -51 -56 -225q0 -171 54 -221q49 -46 134 -46q86 0 135 46q53 51 53 221zM623 337q0 -212 -83 -286q-72 -66 -201 -66t-201 66q-83 76 -83 286q0 206 80 284q71 70 204 70q134 0 205 -70q79 -75 79 -284zM255 730h-47
q0 62 34.5 100.5t96.5 38.5t96.5 -38.5t34.5 -100.5h-47q-2 27 -23.5 48.5t-60.5 21.5t-60.5 -21.5t-23.5 -48.5z" />
    <glyph glyph-name="oinvertedbreve" unicode="&#x20f;" horiz-adv-x="495" 
d="M447 240q0 -70 -9.5 -116.5t-42.5 -79.5q-56 -54 -148 -54q-93 0 -147 54q-32 32 -42 78t-10 118t10.5 119.5t44.5 79.5q53 51 144 51q92 0 146 -51q33 -32 43.5 -78.5t10.5 -120.5zM355 240q0 109 -30 139q-27 27 -78 27q-50 0 -77 -27q-14 -14 -21 -40.5t-8 -45.5
t-1 -53q0 -109 30 -139q27 -27 77 -27q48 0 77 27q20 20 25.5 50.5t5.5 88.5zM163 534h-47q0 62 34.5 100.5t96.5 38.5t96.5 -38.5t34.5 -100.5h-47q-2 27 -23.5 48.5t-60.5 21.5t-60.5 -21.5t-23.5 -48.5z" />
    <glyph glyph-name="Rdblgrave" unicode="&#x210;" horiz-adv-x="556" 
d="M430 317q-30 -26 -79 -35l199 -282h-114l-190 274h-75v-274h-95v676h212q94 0 145 -52.5t51 -152.5q0 -107 -54 -154zM388 471q0 120 -101 120h-116v-241h116q101 0 101 121zM181 837q0 14 10 23t27 9q34 0 59 -34l79 -105h-40l-100 62q-35 22 -35 45zM33 837q0 14 10 23
t27 9q34 0 59 -34l79 -105h-40l-100 62q-35 22 -35 45z" />
    <glyph glyph-name="rdblgrave" unicode="&#x211;" horiz-adv-x="319" 
d="M280 490h22l-11 -84h-15q-62 0 -91 -37.5t-29 -114.5v-254h-92v480h55l33 -60h6q45 70 122 70zM108 641q0 14 10 23t27 9q33 0 59 -34l79 -105h-40l-100 62q-35 22 -35 45zM-40 641q0 14 10 23t27 9q33 0 59 -34l79 -105h-40l-100 62q-35 22 -35 45z" />
    <glyph glyph-name="Rinvertedbreve" unicode="&#x212;" horiz-adv-x="556" 
d="M430 317q-30 -26 -79 -35l199 -282h-114l-190 274h-75v-274h-95v676h212q94 0 145 -52.5t51 -152.5q0 -107 -54 -154zM388 471q0 120 -101 120h-116v-241h116q101 0 101 121zM152 730h-47q0 62 34.5 100.5t96.5 38.5t96.5 -38.5t34.5 -100.5h-47q-2 27 -23.5 48.5
t-60.5 21.5t-60.5 -21.5t-23.5 -48.5z" />
    <glyph glyph-name="rinvertedbreve" unicode="&#x213;" horiz-adv-x="319" 
d="M280 490h22l-11 -84h-15q-62 0 -91 -37.5t-29 -114.5v-254h-92v480h55l33 -60h6q45 70 122 70zM93 534h-47q0 62 34.5 100.5t96.5 38.5t96.5 -38.5t34.5 -100.5h-47q-2 27 -23.5 48.5t-60.5 21.5t-60.5 -21.5t-23.5 -48.5z" />
    <glyph glyph-name="Udblgrave" unicode="&#x214;" horiz-adv-x="633" 
d="M567 676v-470q0 -110 -67.5 -165.5t-183.5 -55.5q-115 0 -182.5 55.5t-67.5 165.5v470h96v-463q0 -143 154 -143q155 0 155 143v463h96zM264 837q0 14 10 23t27 9q33 0 59 -34l79 -105h-40l-100 62q-35 22 -35 45zM116 837q0 14 10 23t27 9q33 0 59 -34l79 -105h-40
l-100 62q-35 22 -35 45z" />
    <glyph glyph-name="udblgrave" unicode="&#x215;" horiz-adv-x="510" 
d="M446 480v-343q0 -26 6.5 -37t25.5 -17l16 -5l-26 -88q-82 5 -108 71h-6q-56 -71 -144 -71q-73 0 -112.5 43t-39.5 125v322h92v-310q0 -96 78 -96q59 0 92.5 42t33.5 111v253h92zM189 641q0 14 10 23t27 9q34 0 59 -34l79 -105h-40l-100 62q-35 22 -35 45zM41 641
q0 14 10 23t27 9q34 0 59 -34l79 -105h-40l-100 62q-35 22 -35 45z" />
    <glyph glyph-name="Uinvertedbreve" unicode="&#x216;" horiz-adv-x="633" 
d="M567 676v-470q0 -110 -67.5 -165.5t-183.5 -55.5q-115 0 -182.5 55.5t-67.5 165.5v470h96v-463q0 -143 154 -143q155 0 155 143v463h96zM232 730h-47q0 62 34.5 100.5t96.5 38.5t96.5 -38.5t34.5 -100.5h-47q-2 27 -23.5 48.5t-60.5 21.5t-60.5 -21.5t-23.5 -48.5z" />
    <glyph glyph-name="uinvertedbreve" unicode="&#x217;" horiz-adv-x="510" 
d="M444 480v-343q0 -26 6.5 -37t25.5 -17l16 -5l-26 -88q-82 5 -108 71h-6q-56 -71 -144 -71q-73 0 -112.5 43t-39.5 125v322h92v-310q0 -96 78 -96q59 0 92.5 42t33.5 111v253h92zM166 534h-47q0 62 34.5 100.5t96.5 38.5t96.5 -38.5t34.5 -100.5h-47q-2 27 -23.5 48.5
t-60.5 21.5t-60.5 -21.5t-23.5 -48.5z" />
    <glyph glyph-name="Scommaaccent" unicode="&#x218;" horiz-adv-x="544" 
d="M500 193q0 -91 -57.5 -149.5t-173.5 -58.5q-123 0 -225 75l42 73q89 -63 181 -63q66 0 101.5 32t35.5 84q0 47 -26.5 75.5t-82.5 42.5l-92 24q-74 20 -114.5 60.5t-40.5 114.5q0 80 56.5 134t163.5 54q110 0 191 -59l-43 -74q-76 48 -150 48q-55 0 -88.5 -25.5
t-33.5 -69.5q0 -72 79 -94l99 -26q91 -24 134.5 -70t43.5 -128zM217 -104q0 28 17 44t43 16t43 -16t17 -44q0 -31 -29 -107l-32 -82l-40 7l20 123v2q-39 12 -39 57z" />
    <glyph glyph-name="scommaaccent" unicode="&#x219;" horiz-adv-x="475" 
d="M430 143q-1 -63 -44 -108t-140 -45q-51 0 -105.5 18t-95.5 48l38 71q34 -22 78.5 -37.5t80.5 -15.5q51 0 73.5 19.5t22.5 48.5q0 48 -64 57l-105 15q-120 17 -120 126q0 69 51.5 109.5t133.5 40.5q86 0 163 -40l-29 -74q-69 30 -134 30q-38 0 -60 -11.5t-27.5 -23.5
t-5.5 -25q0 -42 55 -50l98 -15q136 -21 136 -138zM190 -104q0 28 17 44t43 16t43 -16t17 -44q0 -31 -29 -107l-32 -82l-40 7l20 123v2q-39 12 -39 57z" />
    <glyph glyph-name="circumflex" unicode="&#x2c6;" horiz-adv-x="447" 
d="M238 672l123 -104l-22 -36l-112 60h-8l-110 -60l-24 36l123 104h30z" />
    <glyph glyph-name="caron" unicode="&#x2c7;" horiz-adv-x="447" 
d="M208 534l-123 104l23 36l111 -60h8l111 60l23 -36l-123 -104h-30z" />
    <glyph glyph-name="breve" unicode="&#x2d8;" horiz-adv-x="470" 
d="M319 673h47q0 -62 -34.5 -100.5t-96.5 -38.5t-96.5 38.5t-34.5 100.5h47q2 -27 23.5 -48.5t60.5 -21.5t60.5 21.5t23.5 48.5z" />
    <glyph glyph-name="dotaccent" unicode="&#x2d9;" horiz-adv-x="470" 
d="M175 626q0 28 17 44t43 16t43 -16t17 -44t-17 -44t-43 -16t-43 16t-17 44z" />
    <glyph glyph-name="ring" unicode="&#x2da;" horiz-adv-x="470" 
d="M288 637q0 22 -15.5 38t-37.5 16t-37.5 -16t-15.5 -38q0 -23 15 -38t38 -15t38 15t15 38zM342 637q0 -44 -30.5 -73.5t-76.5 -29.5t-76.5 29.5t-30.5 73.5t30.5 74t76.5 30t76.5 -30t30.5 -74z" />
    <glyph glyph-name="ogonek" unicode="&#x2db;" horiz-adv-x="470" 
d="M324 -159l7 -46q-34 -11 -75 -11q-54 0 -85 21.5t-31 60.5q0 34 19.5 65.5t38 46.5t36.5 26h65q-29 -24 -53 -58.5t-24 -62.5q0 -47 55 -47z" />
    <glyph glyph-name="tilde" unicode="&#x2dc;" horiz-adv-x="470" 
d="M346 656l38 -7q-11 -91 -85 -91q-16 0 -66 12.5t-67 12.5q-30 0 -44 -29l-37 8q12 90 85 90q16 0 65.5 -12.5t66.5 -12.5q31 0 44 29z" />
    <glyph glyph-name="hungarumlaut" unicode="&#x2dd;" horiz-adv-x="470" 
d="M252 641q0 -23 -35 -45l-100 -62h-40l79 105q26 34 59 34q17 0 27 -9t10 -23zM400 641q0 -23 -35 -45l-100 -62h-40l79 105q26 34 59 34q17 0 27 -9t10 -23z" />
    <glyph glyph-name="invertedbreve" unicode="&#x311;" horiz-adv-x="470" 
d="M151 534h-47q0 62 34.5 100.5t96.5 38.5t96.5 -38.5t34.5 -100.5h-47q-2 27 -23.5 48.5t-60.5 21.5t-60.5 -21.5t-23.5 -48.5z" />
    <glyph glyph-name="Omega" unicode="&#x3a9;" horiz-adv-x="690" 
d="M65 0v76h141v56q-31 13 -54 28.5t-46.5 43.5t-36 73.5t-12.5 106.5q0 164 81 238q75 69 207 69q130 0 207 -69q81 -74 81 -238q0 -61 -12.5 -106t-36 -73t-46.5 -43.5t-54 -28.5v-57h141v-76h-229v179q70 19 105.5 62t35.5 141q0 134 -58 182q-51 42 -134 42
q-85 0 -135 -42q-57 -48 -57 -182q0 -97 36.5 -141.5t104.5 -61.5v-179h-229z" />
    <glyph glyph-name="Omega" unicode="&#x2126;" horiz-adv-x="690" 
d="M65 0v76h141v56q-31 13 -54 28.5t-46.5 43.5t-36 73.5t-12.5 106.5q0 164 81 238q75 69 207 69q130 0 207 -69q81 -74 81 -238q0 -61 -12.5 -106t-36 -73t-46.5 -43.5t-54 -28.5v-57h141v-76h-229v179q70 19 105.5 62t35.5 141q0 134 -58 182q-51 42 -134 42
q-85 0 -135 -42q-57 -48 -57 -182q0 -97 36.5 -141.5t104.5 -61.5v-179h-229z" />
    <glyph glyph-name="pi" unicode="&#x3c0;" horiz-adv-x="560" 
d="M496 -10q-75 2 -111 35.5t-36 112.5v266h-161v-404h-92v404h-86v76h517v-76h-86v-241q0 -45 10.5 -60.5t45.5 -25.5l18 -5z" />
    <glyph glyph-name="bahtthai" unicode="&#xe3f;" horiz-adv-x="624" 
d="M271 -92v92h-175v676h175v71h70v-71q83 -3 131.5 -46t48.5 -125q0 -53 -22.5 -89.5t-58.5 -49.5v-4q51 -15 81.5 -58.5t30.5 -109.5q0 -97 -55.5 -145.5t-155.5 -48.5v-92h-70zM456 197q0 116 -108 116h-7v-228h5q51 0 80.5 28.5t29.5 83.5zM191 313v-228h80v228h-80z
M191 591v-202h80v202h-80zM425 492q0 93 -84 98v-201q84 7 84 103z" />
    <glyph glyph-name="Wgrave" unicode="&#x1e80;" horiz-adv-x="916" 
d="M655 120q9 51 19 87l136 469h98l-197 -676h-108l-125 388l-16 74h-8q-8 -49 -16 -74l-125 -388h-108l-197 676h98l136 -469l21 -87h8q11 56 20 87l134 414h67l133 -414l21 -87h9zM301 837q0 14 10.5 23t28.5 9q35 0 57 -27l87 -112h-47l-116 74q-20 13 -20 33z" />
    <glyph glyph-name="wgrave" unicode="&#x1e81;" horiz-adv-x="690" 
d="M580 480h93l-134 -480h-87l-93 246l-11 48h-7q-5 -31 -12 -48l-92 -246h-87l-133 480h93l81 -294l11 -53h8q6 34 14 53l98 261h45l98 -261l14 -53h8q5 31 12 53zM197 641q0 14 10.5 23t28.5 9q35 0 57 -27l87 -112h-47l-116 74q-20 13 -20 33z" />
    <glyph glyph-name="Wacute" unicode="&#x1e82;" horiz-adv-x="916" 
d="M655 120q9 51 19 87l136 469h98l-197 -676h-108l-125 388l-16 74h-8q-8 -49 -16 -74l-125 -388h-108l-197 676h98l136 -469l21 -87h8q11 56 20 87l134 414h67l133 -414l21 -87h9zM615 837q0 -20 -20 -33l-116 -74h-47l87 112q22 27 57 27q18 0 28.5 -9t10.5 -23z" />
    <glyph glyph-name="wacute" unicode="&#x1e83;" horiz-adv-x="690" 
d="M580 480h93l-134 -480h-87l-93 246l-11 48h-7q-5 -31 -12 -48l-92 -246h-87l-133 480h93l81 -294l11 -53h8q6 34 14 53l98 261h45l98 -261l14 -53h8q5 31 12 53zM493 641q0 -20 -20 -33l-116 -74h-47l87 112q22 27 57 27q18 0 28.5 -9t10.5 -23z" />
    <glyph glyph-name="Wdieresis" unicode="&#x1e84;" horiz-adv-x="916" 
d="M655 120q9 51 19 87l136 469h98l-197 -676h-108l-125 388l-16 74h-8q-8 -49 -16 -74l-125 -388h-108l-197 676h98l136 -469l21 -87h8q11 56 20 87l134 414h67l133 -414l21 -87h9zM302 822q0 28 17 44t43 16t43 -16t17 -44t-17 -44t-43 -16t-43 16t-17 44zM492 822
q0 28 17 44t43 16t43 -16t17 -44t-17 -44t-43 -16t-43 16t-17 44z" />
    <glyph glyph-name="wdieresis" unicode="&#x1e85;" horiz-adv-x="690" 
d="M580 480h93l-134 -480h-87l-93 246l-11 48h-7q-5 -31 -12 -48l-92 -246h-87l-133 480h93l81 -294l11 -53h8q6 34 14 53l98 261h45l98 -261l14 -53h8q5 31 12 53zM188 626q0 28 17 44t43 16t43 -16t17 -44t-17 -44t-43 -16t-43 16t-17 44zM378 626q0 28 17 44t43 16
t43 -16t17 -44t-17 -44t-43 -16t-43 16t-17 44z" />
    <glyph glyph-name="Ygrave" unicode="&#x1ef2;" horiz-adv-x="598" 
d="M303 366q9 26 23 50l155 260h109l-243 -409v-267h-96v267l-243 409h109l155 -260q6 -10 12 -22.5t8 -19.5l3 -8h8zM154 837q0 14 10.5 23t28.5 9q35 0 57 -27l87 -112h-47l-116 74q-20 13 -20 33z" />
    <glyph glyph-name="ygrave" unicode="&#x1ef3;" horiz-adv-x="507" 
d="M394 480h96l-171 -526q-35 -108 -76 -149t-126 -41h-57v84h62q42 0 60 16t37 75l9 27l-211 514h99l135 -334l16 -55h9q4 27 13 55zM111 641q0 14 10.5 23t28.5 9q35 0 57 -27l87 -112h-47l-116 74q-20 13 -20 33z" />
    <glyph glyph-name="endash" unicode="&#x2013;" 
d="M455 277v-74h-410v74h410z" />
    <glyph glyph-name="emdash" unicode="&#x2014;" horiz-adv-x="900" 
d="M855 277v-74h-810v74h810z" />
    <glyph glyph-name="quoteleft" unicode="&#x2018;" horiz-adv-x="209" 
d="M164 527q0 -28 -17 -44t-43 -16t-43 16t-17 44q0 29 22 101l26 88l34 -6l-16 -123q24 -2 39 -17.5t15 -42.5z" />
    <glyph glyph-name="quoteright" unicode="&#x2019;" horiz-adv-x="209" 
d="M44 651q0 28 17 44t43 16t43 -16t17 -44q0 -29 -22 -101l-26 -88l-34 6l16 123q-24 2 -39 17.5t-15 42.5z" />
    <glyph glyph-name="quotesinglbase" unicode="&#x201a;" horiz-adv-x="209" 
d="M45 50q0 28 17 44t43 16t43 -16t17 -44q0 -29 -22 -101l-26 -88l-34 6l16 123q-24 2 -39 17.5t-15 42.5z" />
    <glyph glyph-name="quotedblleft" unicode="&#x201c;" horiz-adv-x="382" 
d="M164 527q0 -28 -17 -44t-43 -16t-43 16t-17 44q0 29 22 101l26 88l34 -6l-16 -123q24 -2 39 -17.5t15 -42.5zM337 527q0 -28 -17 -44t-43 -16t-43 16t-17 44q0 29 22 101l26 88l34 -6l-16 -123q24 -2 39 -17.5t15 -42.5z" />
    <glyph glyph-name="quotedblright" unicode="&#x201d;" horiz-adv-x="381" 
d="M44 651q0 28 17 44t43 16t43 -16t17 -44q0 -29 -22 -101l-26 -88l-34 6l16 123q-24 2 -39 17.5t-15 42.5zM216 651q0 28 17 44t43 16t43 -16t17 -44q0 -29 -22 -101l-26 -88l-34 6l16 123q-24 2 -39 17.5t-15 42.5z" />
    <glyph glyph-name="quotedblbase" unicode="&#x201e;" horiz-adv-x="381" 
d="M45 50q0 28 17 44t43 16t43 -16t17 -44q0 -29 -22 -101l-26 -88l-34 6l16 123q-24 2 -39 17.5t-15 42.5zM217 50q0 28 17 44t43 16t43 -16t17 -44q0 -29 -22 -101l-26 -88l-34 6l16 123q-24 2 -39 17.5t-15 42.5z" />
    <glyph glyph-name="dagger" unicode="&#x2020;" horiz-adv-x="528" 
d="M60 410v95h59l106 -18l10 5l-19 127v67h95v-67l-18 -127l11 -5l104 18h60v-95h-60l-96 18l-6 -4v-172l-14 -222v-218h-56v218l-14 222v172l-7 4l-96 -18h-59z" />
    <glyph glyph-name="daggerdbl" unicode="&#x2021;" horiz-adv-x="528" 
d="M468 114v-94h-59l-106 16l-10 -5l18 -126v-67h-95v67l19 126l-11 5l-104 -16h-60v94h60l94 -18l8 4v324l-8 4l-95 -18h-59v94h59l106 -17l10 5l-19 127v67h95v-67l-18 -127l11 -5l104 17h60v-94h-60l-94 18l-8 -4v-324l8 -4l95 18h59z" />
    <glyph glyph-name="bullet" unicode="&#x2022;" horiz-adv-x="335" 
d="M276 282q0 -47 -32 -78t-77 -31t-76.5 30.5t-31.5 78.5q0 47 31 77.5t77 30.5q45 0 77 -31t32 -77z" />
    <glyph glyph-name="ellipsis" unicode="&#x2026;" horiz-adv-x="849" 
d="M81 50q0 28 17 44t43 16t43 -16t17 -44t-17 -44t-43 -16t-43 16t-17 44zM364 50q0 28 17 44t43 16t43 -16t17 -44t-17 -44t-43 -16t-43 16t-17 44zM647 50q0 28 17 44t43 16t43 -16t17 -44t-17 -44t-43 -16t-43 16t-17 44z" />
    <glyph glyph-name="perthousand" unicode="&#x2030;" horiz-adv-x="1000" 
d="M307 526q0 -91 -35 -128q-30 -32 -89 -32q-24 0 -49 9t-39 23q-35 35 -35 128q0 89 31 125q32 36 92 36q63 0 93 -36q31 -36 31 -125zM239 526q0 62 -16 83q-12 14 -40 14q-25 0 -39 -14q-16 -18 -16 -83q0 -64 16 -82q14 -14 39 -14q27 0 41 14q15 18 15 82zM484 700h76
l-342 -713h-76zM638 150q0 -91 -35 -128q-30 -32 -89 -32q-24 0 -49 9t-39 23q-35 35 -35 128q0 89 31 125q32 36 92 36q63 0 93 -36q31 -36 31 -125zM570 150q0 62 -16 83q-12 14 -40 14q-25 0 -39 -14q-16 -18 -16 -83q0 -64 16 -82q14 -14 39 -14q27 0 41 14q15 18 15 82
zM940 150q0 -91 -35 -128q-30 -32 -89 -32q-24 0 -49 9t-39 23q-35 35 -35 128q0 89 31 125q32 36 92 36q63 0 93 -36q31 -36 31 -125zM872 150q0 62 -16 83q-12 14 -40 14q-25 0 -39 -14q-16 -18 -16 -83q0 -64 16 -82q14 -14 39 -14q27 0 41 14q15 18 15 82z" />
    <glyph glyph-name="guilsinglleft" unicode="&#x2039;" horiz-adv-x="300" 
d="M171 27l-128 211l128 211h86l-128 -211l128 -211h-86z" />
    <glyph glyph-name="guilsinglright" unicode="&#x203a;" horiz-adv-x="300" 
d="M257 238l-128 -211h-86l128 211l-128 211h86z" />
    <glyph glyph-name="fraction" unicode="&#x2044;" horiz-adv-x="334" 
d="M290 693h74l-319 -713h-75z" />
    <glyph glyph-name="zerosuperior" unicode="&#x2070;" horiz-adv-x="318" 
d="M214 518q0 60 -11.5 85.5t-43.5 25.5q-30 0 -42.5 -25.5t-12.5 -85.5q0 -62 13.5 -86t41.5 -24q30 0 42.5 24t12.5 86zM282 518q0 -86 -26.5 -129t-96.5 -43q-67 0 -95 42t-28 130q0 85 28 129t95 44t95 -42.5t28 -130.5z" />
    <glyph glyph-name="foursuperior" unicode="&#x2074;" horiz-adv-x="290" 
d="M168 599l-13 2q-14 -40 -22 -55l-44 -75h74v69zM272 471v-54h-41v-67h-68v67h-143v43l131 227h80v-216h41z" />
    <glyph glyph-name="fivesuperior" unicode="&#x2075;" horiz-adv-x="268" 
d="M240 459q0 -63 -36 -92q-28 -21 -78 -21q-49 0 -89 17l14 58q36 -11 65 -11q30 0 43 10t13 37q0 25 -13.5 35t-42.5 10q-25 0 -55 -7l-25 18l19 174h158v-64h-100l-6 -59q14 2 25 2q50 0 74 -18q34 -27 34 -89z" />
    <glyph glyph-name="sixsuperior" unicode="&#x2076;" horiz-adv-x="307" 
d="M203 456q0 25 -11 36.5t-36 11.5q-26 0 -52 -11v-13q0 -37 9.5 -53.5t40.5 -16.5q25 0 36.5 10.5t12.5 35.5zM271 457q0 -111 -118 -111q-60 0 -88.5 33.5t-28.5 103.5q0 87 48.5 140t138.5 68l13 -54q-97 -26 -121 -84q27 9 52 9q104 0 104 -105z" />
    <glyph glyph-name="sevensuperior" unicode="&#x2077;" horiz-adv-x="219" 
d="M204 687v-61l-113 -276h-75l116 266v7h-122v64h194z" />
    <glyph glyph-name="eightsuperior" unicode="&#x2078;" horiz-adv-x="296" 
d="M260 438q0 -39 -26 -65.5t-86 -26.5q-59 0 -85.5 26.5t-26.5 65.5q0 54 59 86v4q-51 29 -51 78q0 37 26 61t78 24t78 -24t26 -61q0 -48 -50 -78v-4q58 -30 58 -86zM192 443q0 28 -27 43l-18 10l-17 -10q-26 -15 -26 -43q0 -17 11 -28t33 -11q44 0 44 39zM110 602
q0 -25 24 -39l17 -10l12 8q23 15 23 41q0 31 -38 31q-18 0 -28 -9t-10 -22z" />
    <glyph glyph-name="ninesuperior" unicode="&#x2079;" horiz-adv-x="307" 
d="M104 581q0 -25 11 -36.5t36 -11.5q26 0 52 11v13q0 37 -9.5 53.5t-40.5 16.5q-25 0 -36.5 -10.5t-12.5 -35.5zM36 580q0 111 118 111q60 0 88.5 -33.5t28.5 -103.5q0 -97 -46.5 -146t-140.5 -62l-13 54q51 11 82 29.5t42 54.5q-27 -9 -55 -9q-104 0 -104 105z" />
    <glyph glyph-name="parenleftsuperior" unicode="&#x207d;" horiz-adv-x="185" 
d="M50 501q0 119 65 216h55q-52 -109 -52 -216q0 -104 35 -190h-57q-46 81 -46 190z" />
    <glyph glyph-name="parenrightsuperior" unicode="&#x207e;" horiz-adv-x="186" 
d="M136 501q0 -109 -47 -190h-57q36 88 36 190q0 110 -53 216h55q66 -97 66 -216z" />
    <glyph glyph-name="zeroinferior" unicode="&#x2080;" horiz-adv-x="318" 
d="M214 118q0 60 -11.5 85.5t-43.5 25.5q-30 0 -42.5 -25.5t-12.5 -85.5q0 -62 13.5 -86t41.5 -24q30 0 42.5 24t12.5 86zM282 118q0 -86 -26.5 -129t-96.5 -43q-67 0 -95 42t-28 130q0 85 28 129t95 44t95 -42.5t28 -130.5z" />
    <glyph glyph-name="oneinferior" unicode="&#x2081;" horiz-adv-x="202" 
d="M148 287v-337h-68v261q0 12 -12 9l-32 -9l-10 37l76 39h46z" />
    <glyph glyph-name="twoinferior" unicode="&#x2082;" horiz-adv-x="293" 
d="M254 14v-64h-218v63l106 115q36 40 36 65q0 16 -11 26t-32 10q-35 0 -76 -18l-16 55q48 25 94 25q53 0 81 -27t28 -71q0 -49 -57 -111l-47 -51l-23 -16l4 -7q16 6 26 6h105z" />
    <glyph glyph-name="threeinferior" unicode="&#x2083;" horiz-adv-x="271" 
d="M184 135v-4q55 -20 55 -78q0 -52 -32 -79.5t-85 -27.5q-38 0 -101 21q1 4 8 24.5t10 31.5q2 -1 12 -4t28.5 -6t33.5 -3q58 0 58 45q0 42 -59 42h-48v58h45q45 0 45 36t-41 36q-29 0 -63 -10l-17 55q44 19 88 19q49 0 75 -23t26 -64q0 -45 -38 -69z" />
    <glyph glyph-name="fourinferior" unicode="&#x2084;" horiz-adv-x="290" 
d="M168 199l-13 2q-14 -40 -22 -55l-44 -75h74v69zM272 71v-54h-41v-67h-68v67h-143v43l131 227h80v-216h41z" />
    <glyph glyph-name="fiveinferior" unicode="&#x2085;" horiz-adv-x="268" 
d="M240 59q0 -63 -36 -92q-28 -21 -78 -21q-49 0 -89 17l14 58q36 -11 65 -11q30 0 43 10t13 37q0 25 -13.5 35t-42.5 10q-25 0 -55 -7l-25 18l19 174h158v-64h-100l-6 -59q14 2 25 2q50 0 74 -18q34 -27 34 -89z" />
    <glyph glyph-name="sixinferior" unicode="&#x2086;" horiz-adv-x="307" 
d="M203 56q0 25 -11 36.5t-36 11.5q-26 0 -52 -11v-13q0 -37 9.5 -53.5t40.5 -16.5q25 0 36.5 10.5t12.5 35.5zM271 57q0 -111 -118 -111q-60 0 -88.5 33.5t-28.5 103.5q0 87 48.5 140t138.5 68l13 -54q-97 -26 -121 -84q27 9 52 9q104 0 104 -105z" />
    <glyph glyph-name="seveninferior" unicode="&#x2087;" horiz-adv-x="219" 
d="M204 287v-61l-113 -276h-75l116 266v7h-122v64h194z" />
    <glyph glyph-name="eightinferior" unicode="&#x2088;" horiz-adv-x="296" 
d="M260 38q0 -39 -26 -65.5t-86 -26.5q-59 0 -85.5 26.5t-26.5 65.5q0 54 59 86v4q-51 29 -51 78q0 37 26 61t78 24t78 -24t26 -61q0 -48 -50 -78v-4q58 -30 58 -86zM192 43q0 28 -27 43l-18 10l-17 -10q-26 -15 -26 -43q0 -17 11 -28t33 -11q44 0 44 39zM110 202
q0 -25 24 -39l17 -10l12 8q23 15 23 41q0 31 -38 31q-18 0 -28 -9t-10 -22z" />
    <glyph glyph-name="nineinferior" unicode="&#x2089;" horiz-adv-x="307" 
d="M104 181q0 -25 11 -36.5t36 -11.5q26 0 52 11v13q0 37 -9.5 53.5t-40.5 16.5q-25 0 -36.5 -10.5t-12.5 -35.5zM36 180q0 111 118 111q60 0 88.5 -33.5t28.5 -103.5q0 -97 -46.5 -146t-140.5 -62l-13 54q51 11 82 29.5t42 54.5q-27 -9 -55 -9q-104 0 -104 105z" />
    <glyph glyph-name="parenleftinferior" unicode="&#x208d;" horiz-adv-x="185" 
d="M50 105q0 119 65 216h55q-52 -109 -52 -216q0 -103 35 -190h-57q-46 81 -46 190z" />
    <glyph glyph-name="parenrightinferior" unicode="&#x208e;" horiz-adv-x="186" 
d="M136 105q0 -109 -47 -190h-57q36 90 36 190q0 110 -53 216h55q66 -97 66 -216z" />
    <glyph glyph-name="colonmonetary" unicode="&#x20a1;" horiz-adv-x="611" 
d="M106 -48l40 110q-70 70 -70 282q0 197 81 276q73 71 203 71h13l36 100l55 -22l-31 -85q39 -9 74 -23l30 84l55 -22l-237 -654h19q72 0 160 43l24 -77q-78 -50 -190 -50q-15 0 -43 2l-37 -104l-55 22l33 92q-37 9 -71 28l-34 -95zM230 115q24 -22 66 -35l182 503
q-35 14 -74 20l-176 -487h1zM173 342q0 -113 11 -168l5 -1q5 23 12 43l141 389q-80 -5 -119 -48q-50 -54 -50 -215z" />
    <glyph glyph-name="cruzeiro" unicode="&#x20a2;" horiz-adv-x="601" 
d="M518 401h22l-11 -84h-15q-61 0 -85.5 -36.5t-24.5 -115.5v-93q55 6 132 39l23 -74q-87 -52 -201 -52q-56 0 -109.5 16.5t-84.5 45.5q-41 39 -64 103t-23 188q0 116 21.5 180t60.5 102q35 34 90 52.5t111 18.5q101 0 187 -48l-28 -76q-80 39 -156 39q-89 0 -136 -48
q-54 -56 -54 -220q0 -168 60 -226q23 -25 79 -37v316h55l33 -60h6q25 39 49 54.5t63 15.5z" />
    <glyph glyph-name="franc" unicode="&#x20a3;" horiz-adv-x="503" 
d="M40 388v66h70v222h363v-77h-268v-145h192v-66h-192v-76h192v-66h-192v-246h-95v246h-70v66h70v76h-70z" />
    <glyph glyph-name="naira" unicode="&#x20a6;" horiz-adv-x="767" 
d="M38 379v66h74v231h98l156 -231h194v231h95v-231h74v-66h-74v-91h74v-66h-74v-222h-98l-151 222h-199v-222h-95v222h-74v66h74v91h-74zM207 379v-91h154l-61 91h-93zM411 379l62 -91h87v91h-149zM198 527q9 -60 9 -82h48l-3 5l-43 80zM565 152q-5 47 -5 70h-42l2 -3
q6 -8 14.5 -25.5t13.5 -30.5l6 -13z" />
    <glyph glyph-name="peseta" unicode="&#x20a7;" horiz-adv-x="574" 
d="M33 431v66h64v179h212q85 0 135 -47t58 -132h52v-66h-52q-15 -172 -189 -172h-121v-259h-95v431h-64zM308 335q86 0 98 96h-214v-96h116zM192 591v-94h214q-10 94 -98 94h-116z" />
    <glyph glyph-name="rupee" unicode="&#x20a8;" horiz-adv-x="969" 
d="M450 317q-30 -26 -79 -35l143 -282h-109l-134 274h-80v-274h-95v676h212q94 0 145 -52.5t51 -152.5q0 -107 -54 -154zM408 471q0 120 -101 120h-116v-241h116q101 0 101 121zM923 143q-1 -63 -44 -108t-140 -45q-101 0 -189 58l39 72q79 -46 146 -46q51 0 73.5 19.5
t22.5 48.5q0 48 -64 57l-105 15q-120 17 -120 126q0 69 51.5 109.5t133.5 40.5q86 0 163 -40l-29 -74q-69 30 -134 30q-38 0 -60 -11.5t-27.5 -23.5t-5.5 -25q0 -42 55 -50l98 -15q136 -21 136 -138z" />
    <glyph glyph-name="won" unicode="&#x20a9;" horiz-adv-x="958" 
d="M22 222v66h120l-27 91h-93v66h74l-67 231h98l67 -231h195l57 176h67l56 -176h195l67 231h98l-68 -231h75v-66h-94l-26 -91h120v-66h-140l-64 -222h-108l-72 222h-147l-71 -222h-108l-65 222h-139zM213 379l26 -91h99l30 91h-155zM590 379l30 -91h98l27 91h-155zM459 388
l-32 -100h104l-32 100l-16 74h-8q-8 -49 -16 -74zM676 120q9 51 19 87l4 15h-58l5 -15l21 -87h9zM292 120q11 56 20 87l5 15h-59l5 -15l21 -87h8z" />
    <glyph glyph-name="sheqel" unicode="&#x20aa;" horiz-adv-x="714" 
d="M490 160h-92v116q0 70 -25 95t-95 25h-134v-396h-92v480h209q61 0 100 -7t70.5 -28t45 -60.5t13.5 -102.5v-122zM570 480h92v-283q0 -63 -13 -102.5t-44 -60t-69.5 -27.5t-100.5 -7h-211v320h92v-236h136q70 0 94 24.5t24 93.5v278z" />
    <glyph glyph-name="Euro" unicode="&#x20ac;" horiz-adv-x="625" 
d="M20 370q9 22 25 66h63q12 122 76 184q73 71 203 71q98 0 187 -49l-30 -76q-76 40 -151 40q-83 0 -129.5 -37t-58.5 -133h290l-25 -66h-270v-28q0 -31 1 -45h240l-25 -67h-209q11 -81 50 -115q52 -46 144 -46q72 0 160 43l24 -77q-78 -50 -190 -50q-133 0 -206 63
q-66 56 -81 182h-87q10 28 25 67h57v73h-83z" />
    <glyph glyph-name="litre" unicode="&#x2113;" horiz-adv-x="388" 
d="M17 167l-27 57q44 31 84 60v216q0 33 1.5 55.5t9.5 50t22 44t40.5 28t64.5 11.5q71 0 106.5 -40.5t35.5 -132.5q0 -34 -8 -65.5t-23.5 -56t-30 -43.5t-37 -36t-35 -26t-32.5 -20.5t-22 -12.5v-99q0 -53 21.5 -73t76.5 -20h15l-18 -74q-104 1 -145.5 37.5t-41.5 141.5v32z
M166 531v-136l-4 -49l3 -2q9 9 19 17q38 30 58 65t20 89q0 90 -50 90q-28 0 -37 -17t-9 -57z" />
    <glyph glyph-name="trademark" unicode="&#x2122;" horiz-adv-x="766" 
d="M303 711v-56h-102v-293h-64v293h-102v56h268zM731 711v-349h-64v199l2 60l-8 1q-7 -24 -22 -59l-67 -158h-53l-69 158l-22 59l-8 -1q3 -51 3 -60v-199h-64v349h86l81 -190l16 -44h7q5 20 15 44l81 190h86z" />
    <glyph glyph-name="estimated" unicode="&#x212e;" horiz-adv-x="863" 
d="M677 347v190q0 13 -10 23q-98 98 -234 98q-138 0 -236 -101q-10 -10 -10 -24v-186q0 -5 5 -5h480q5 0 5 5zM818 322h-626q-5 0 -5 -4v-189q0 -13 9 -22q96 -102 237 -102q73 0 137.5 30.5t110.5 83.5h57q-53 -63 -133.5 -99t-172.5 -36q-160 0 -273.5 101.5t-113.5 245.5
t113.5 246t273.5 102t273 -102t113 -246v-9z" />
    <glyph glyph-name="onethird" unicode="&#x2153;" horiz-adv-x="599" 
d="M148 676v-337h-68v261q0 12 -12 9l-32 -9l-10 37l76 39h46zM383 693h74l-319 -713h-75zM512 185v-4q55 -20 55 -78q0 -52 -32 -79.5t-85 -27.5q-38 0 -101 21q1 4 8 24.5t10 31.5q2 -1 12 -4t28.5 -6t33.5 -3q58 0 58 45q0 42 -59 42h-48v58h45q45 0 45 36t-41 36
q-29 0 -63 -10l-17 55q44 19 88 19q49 0 75 -23t26 -64q0 -45 -38 -69z" />
    <glyph glyph-name="twothirds" unicode="&#x2154;" horiz-adv-x="684" 
d="M254 402v-63h-218v63l105 114q37 40 37 66q0 36 -44 36q-34 0 -75 -18l-16 54q45 26 94 26q53 0 81 -27t28 -71q0 -48 -58 -111l-47 -52q-4 -4 -9.5 -8t-8.5 -6l-3 -2l3 -5q16 4 25 4h106zM474 693h74l-319 -713h-75zM597 185v-4q55 -20 55 -78q0 -52 -32 -79.5
t-85 -27.5q-38 0 -101 21q1 4 8 24.5t10 31.5q2 -1 12 -4t28.5 -6t33.5 -3q58 0 58 45q0 42 -59 42h-48v58h45q45 0 45 36t-41 36q-29 0 -63 -10l-17 55q44 19 88 19q49 0 75 -23t26 -64q0 -45 -38 -69z" />
    <glyph glyph-name="oneeighth" unicode="&#x215b;" horiz-adv-x="608" 
d="M148 676v-337h-68v261q0 12 -12 9l-32 -9l-10 37l76 39h46zM383 693h74l-319 -713h-75zM572 88q0 -39 -26 -65.5t-86 -26.5q-59 0 -85.5 26.5t-26.5 65.5q0 54 59 86v4q-51 29 -51 78q0 37 26 61t78 24t78 -24t26 -61q0 -48 -50 -78v-4q58 -30 58 -86zM504 93
q0 28 -27 43l-18 10l-17 -10q-26 -15 -26 -43q0 -17 11 -28t33 -11q44 0 44 39zM422 252q0 -25 24 -39l17 -10l12 8q23 15 23 41q0 31 -38 31q-18 0 -28 -9t-10 -22z" />
    <glyph glyph-name="threeeighths" unicode="&#x215c;" horiz-adv-x="668" 
d="M184 524v-4q54 -19 54 -78q0 -52 -31.5 -79.5t-84.5 -27.5q-38 0 -101 21q2 6 8.5 25t9.5 30q2 -1 12 -4t28.5 -6t33.5 -3q58 0 58 46q0 42 -61 42h-46v58h45q45 0 45 36t-41 36q-29 0 -63 -10l-17 55q44 19 88 19q49 0 75 -23t26 -64q0 -45 -38 -69zM443 693h74
l-319 -713h-75zM632 88q0 -39 -26 -65.5t-86 -26.5q-59 0 -85.5 26.5t-26.5 65.5q0 54 59 86v4q-51 29 -51 78q0 37 26 61t78 24t78 -24t26 -61q0 -48 -50 -78v-4q58 -30 58 -86zM564 93q0 28 -27 43l-18 10l-17 -10q-26 -15 -26 -43q0 -17 11 -28t33 -11q44 0 44 39z
M482 252q0 -25 24 -39l17 -10l12 8q23 15 23 41q0 31 -38 31q-18 0 -28 -9t-10 -22z" />
    <glyph glyph-name="fiveeighths" unicode="&#x215d;" horiz-adv-x="668" 
d="M240 448q0 -113 -115 -113q-48 0 -88 17l13 54q35 -10 65 -10t43 11.5t13 39.5q0 25 -13.5 35.5t-41.5 10.5t-56 -8l-24 16l19 175h157v-64h-99q-1 -10 -3.5 -29.5t-3.5 -29.5q14 1 24 1q22 0 37.5 -3t34 -12.5t28.5 -32.5t10 -58zM448 693h74l-319 -713h-75zM632 88
q0 -39 -26 -65.5t-86 -26.5q-59 0 -85.5 26.5t-26.5 65.5q0 54 59 86v4q-51 29 -51 78q0 37 26 61t78 24t78 -24t26 -61q0 -48 -50 -78v-4q58 -30 58 -86zM564 93q0 28 -27 43l-18 10l-17 -10q-26 -15 -26 -43q0 -17 11 -28t33 -11q44 0 44 39zM482 252q0 -25 24 -39l17 -10
l12 8q23 15 23 41q0 31 -38 31q-18 0 -28 -9t-10 -22z" />
    <glyph glyph-name="seveneighths" unicode="&#x215e;" horiz-adv-x="571" 
d="M201 676v-56l-112 -281h-73l116 266v7h-122v64h191zM349 693h74l-319 -713h-75zM535 88q0 -39 -26 -65.5t-86 -26.5q-59 0 -85.5 26.5t-26.5 65.5q0 54 59 86v4q-51 29 -51 78q0 37 26 61t78 24t78 -24t26 -61q0 -48 -50 -78v-4q58 -30 58 -86zM467 93q0 28 -27 43
l-18 10l-17 -10q-26 -15 -26 -43q0 -17 11 -28t33 -11q44 0 44 39zM385 252q0 -25 24 -39l17 -10l12 8q23 15 23 41q0 31 -38 31q-18 0 -28 -9t-10 -22z" />
    <glyph glyph-name="partialdiff" unicode="&#x2202;" horiz-adv-x="495" 
d="M355 240q0 109 -30 139q-27 27 -78 27q-50 0 -77 -27q-14 -14 -21 -40.5t-8 -45.5t-1 -53q0 -109 30 -139q27 -27 77 -27q48 0 77 27q20 20 25.5 50.5t5.5 88.5zM447 287v-47q0 -70 -9.5 -116.5t-42.5 -79.5q-56 -54 -148 -54q-93 0 -147 54q-32 32 -42 78t-10 118
q0 71 10.5 120.5t45.5 81.5q49 48 129 48q49 0 93 -30l4 3q-36 126 -244 195l22 65q80 -18 139 -48.5t105.5 -80.5t70.5 -127t24 -180z" />
    <glyph glyph-name="Delta" unicode="&#x2206;" horiz-adv-x="594" 
d="M26 0v68l227 608h88l227 -608v-68h-542zM274 469l-141 -379v-14h328v13l-141 380l-19 73h-8q-9 -46 -19 -73z" />
    <glyph glyph-name="product" unicode="&#x220f;" horiz-adv-x="660" 
d="M171 0h-95v676h508v-676h-95v600h-318v-600z" />
    <glyph glyph-name="summation" unicode="&#x2211;" horiz-adv-x="460" 
d="M12 0l225 356l-225 320h413v-76h-250l-2 -5q18 -14 30 -31l144 -205l-155 -247q-5 -9 -12 -16.5t-12 -11.5l-4 -3l2 -5h282v-76h-436z" />
    <glyph glyph-name="minus" unicode="&#x2212;" 
d="M455 277v-74h-410v74h410z" />
    <glyph glyph-name="radical" unicode="&#x221a;" horiz-adv-x="484" 
d="M35 245v65h136l47 -153l12 -60h15q6 37 12 60l139 539h78l-186 -716h-92l-84 265h-77z" />
    <glyph glyph-name="infinity" unicode="&#x221e;" horiz-adv-x="648" 
d="M476 321q-30 0 -48.5 -10.5t-38.5 -40.5l-20 -30l19 -31q32 -52 88 -52q67 0 67 83q0 43 -19.5 62t-47.5 19zM172 157q53 0 88 52l20 31l-21 30q-20 29 -38.5 40t-48.5 11q-28 0 -47.5 -19t-19.5 -63q0 -82 67 -82zM476 393q142 0 142 -153q0 -155 -142 -155
q-47 0 -77 15.5t-58 57.5l-14 21h-6l-14 -21q-48 -73 -135 -73q-142 0 -142 154t142 154q47 0 77 -15t57 -57l15 -23h5l15 23q28 43 57.5 57.5t77.5 14.5z" />
    <glyph glyph-name="integral" unicode="&#x222b;" horiz-adv-x="243" 
d="M-35 -231l12 73q27 -2 48 -2q34 0 45 13.5t11 52.5v660q0 80 32.5 112.5t107.5 32.5l57 -5l-12 -73q-27 2 -48 2q-35 0 -48 -14t-13 -52v-660q0 -80 -31 -112.5t-105 -32.5z" />
    <glyph glyph-name="approxequal" unicode="&#x2248;" 
d="M455 208v-74q-21 -15 -32.5 -22t-29.5 -12.5t-38 -5.5q-33 0 -105.5 40t-104.5 40q-20 0 -38 -5.5t-29.5 -12.5t-32.5 -22v74q21 15 32.5 22t29.5 12.5t38 5.5q32 0 104.5 -40t105.5 -40q20 0 38 5.5t29.5 12.5t32.5 22zM455 345v-74q-21 -15 -32.5 -22t-29.5 -12.5
t-38 -5.5q-33 0 -105.5 40t-104.5 40q-20 0 -38 -5.5t-29.5 -12.5t-32.5 -22v74q21 15 32.5 22t29.5 12.5t38 5.5q32 0 104.5 -40t105.5 -40q20 0 38 5.5t29.5 12.5t32.5 22z" />
    <glyph glyph-name="notequal" unicode="&#x2260;" 
d="M455 206v-74h-249l-66 -79h-95l66 79h-66v74h129l57 68h-186v74h249l66 78h95l-66 -78h66v-74h-129l-57 -68h186z" />
    <glyph glyph-name="lessequal" unicode="&#x2264;" 
d="M454 74v-74h-409v74h409zM454 190v-79l-409 204v66l409 202v-79l-308 -154v-6z" />
    <glyph glyph-name="greaterequal" unicode="&#x2265;" 
d="M455 74v-74h-409v74h409zM46 111v79q15 8 154.5 77t153.5 77v6q-154 74 -308 154v79l409 -202v-66z" />
    <glyph glyph-name="lozenge" unicode="&#x25ca;" horiz-adv-x="529" 
d="M491 342l-205 -342h-44l-204 343l204 343h44zM277 133l126 210l-126 210l-10 25h-6q-6 -18 -10 -25l-126 -210l126 -210l10 -25h6q4 15 10 25z" />
    <glyph glyph-name="zero.tb" unicode="&#xf639;" 
d="M374 337q0 179 -36 226q-29 39 -88 39t-88 -39q-36 -49 -36 -226q0 -178 38 -226q30 -37 86 -37q57 0 87 37q37 47 37 226zM466 337q0 -216 -61 -285q-54 -62 -155 -62q-99 0 -154 62q-62 70 -62 285q0 208 58 282q52 67 158 67t159 -67q57 -73 57 -282z" />
    <glyph glyph-name="two.tb" unicode="&#xf63a;" 
d="M458 84v-84h-415v76l219 243q50 56 74 96t24 83q0 46 -29 75t-84 29q-59 0 -142 -39l-32 72q89 51 179 51q94 0 147 -54t53 -139q0 -59 -29 -111t-86 -116l-129 -143l-44 -39l3 -6q22 6 50 6h241z" />
    <glyph glyph-name="three.tb" unicode="&#xf63b;" 
d="M449 203q0 -106 -59 -159.5t-159 -53.5q-42 0 -87.5 12t-69.5 24l-24 12l28 72l9 -4q9 -4 23 -9t31 -10.5t39 -9t42 -3.5q135 0 135 130q0 117 -134 117h-77v76h67q113 0 113 110q0 46 -26.5 70.5t-77.5 24.5q-20 0 -41 -3.5t-33 -7.5t-26 -9.5t-15 -5.5l-27 70
q69 40 152 40q88 0 137 -45t49 -128q0 -100 -81 -141v-3q112 -36 112 -166z" />
    <glyph glyph-name="four.tb" unicode="&#xf63c;" 
d="M295 528l-8 1q-32 -72 -51 -105l-111 -197h167v182zM470 227v-76h-86v-151h-92v151h-264v58l262 462h94v-444h86z" />
    <glyph glyph-name="five.tb" unicode="&#xf63d;" 
d="M432 211q0 -66 -16.5 -111.5t-47.5 -68.5t-65 -32t-79 -9q-41 0 -80 7.5t-58 14.5l-18 8l21 78q67 -24 123 -24q59 0 88 22q40 31 40 112q0 73 -36 103q-28 24 -91 24q-62 0 -110 -16l-34 24l29 328h281v-84h-198l-15 -174q37 6 68 6q86 0 133 -35q65 -49 65 -173z" />
    <glyph glyph-name="six.tb" unicode="&#xf63e;" 
d="M367 214q0 73 -27 103q-25 27 -82 27q-69 0 -124 -25q-2 -24 -2 -43q0 -134 33 -171q28 -31 86 -31q63 0 89 31q27 30 27 109zM459 216q0 -113 -52 -170q-51 -56 -157 -56q-105 0 -157 70q-53 72 -53 219q0 171 87 275.5t244 131.5l17 -75q-67 -22 -109.5 -44t-79.5 -63
q-33 -37 -53 -102l3 -2q60 28 130 28q77 0 121 -39q59 -50 59 -173z" />
    <glyph glyph-name="seven.tb" unicode="&#xf63f;" 
d="M444 671v-60l-228 -611h-99l229 587h-290v84h388z" />
    <glyph glyph-name="eight.tb" unicode="&#xf640;" 
d="M336 354l15 -9q58 -35 81.5 -76.5t23.5 -101.5q0 -177 -206 -177t-206 177q0 57 24 98t77 81l17 13l-22 14q-79 51 -79 149q0 80 49.5 122t139.5 42t139.5 -42t49.5 -122q0 -31 -7.5 -56t-24.5 -46t-30.5 -33t-40.5 -33zM136 171q0 -97 114 -97t114 97q0 38 -13.5 62
t-48.5 45l-68 40l-42 -33q-32 -25 -44 -50t-12 -64zM208 427l59 -34q48 39 61 57q19 28 19 70q0 82 -97 82t-97 -82q0 -34 13 -55t42 -38z" />
    <glyph glyph-name="nine.tb" unicode="&#xf641;" 
d="M132 465q0 -74 26 -103q28 -30 93 -30q57 0 114 26q2 24 2 42q0 137 -30 171q-28 31 -88 31t-88 -31q-29 -31 -29 -106zM40 465q0 108 55 165q54 56 154 56q111 0 163 -70q47 -64 47 -219q0 -179 -83 -277.5t-248 -129.5l-17 75q62 17 106.5 39.5t81.5 61.5q43 44 59 108
l-3 2q-60 -28 -127 -28q-38 0 -73.5 12t-55.5 29q-59 50 -59 176z" />
    <glyph glyph-name="zero.ot" unicode="&#xf643;" 
d="M374 249q0 92 -35 138q-30 39 -89 39q-58 0 -88 -39q-36 -45 -36 -138q0 -91 38 -138q31 -37 86 -37q57 0 86 37q38 46 38 138zM466 249q0 -130 -65 -199q-57 -60 -151 -60t-151 60q-65 67 -65 199q0 123 61 196q26 32 68.5 48.5t86.5 16.5q99 0 155 -65q61 -71 61 -196z
" />
    <glyph glyph-name="one.ot" unicode="&#xf644;" 
d="M62 0v84h160v299q0 19 -22 13l-101 -29l-13 56l176 87h52v-426h142v-84h-394z" />
    <glyph glyph-name="two.ot" unicode="&#xf645;" 
d="M450 84v-84h-400v76l180 122q37 25 49 34t34.5 29t30.5 37.5t8 39.5q0 40 -29.5 64t-85.5 24q-55 0 -137 -36l-33 71q86 49 175 49q93 0 147.5 -47.5t54.5 -123.5q0 -61 -34 -104.5t-105 -88.5l-55 -34l-50 -23l4 -14q48 9 68 9h178z" />
    <glyph glyph-name="three.ot" unicode="&#xf646;" 
d="M450 40q0 -101 -60 -154.5t-161 -53.5q-22 0 -43.5 2.5t-38.5 7t-32 10t-27 11t-20 9.5t-14 8l-5 3l29 70q74 -37 142 -37q64 0 101 32t37 95q0 59 -34.5 85t-105.5 26h-72v76h67q113 0 113 104q0 44 -26.5 68t-77.5 24q-16 0 -32 -2t-30 -6t-23 -6.5t-19.5 -7
t-11.5 -4.5l-26 70q21 13 63.5 26.5t88.5 13.5q87 0 136.5 -44.5t49.5 -121.5q0 -98 -81 -139v-3q113 -37 113 -162z" />
    <glyph glyph-name="four.ot" unicode="&#xf647;" 
d="M296 369l-10 2q-12 -31 -20 -45l-139 -228h166v219zM471 98v-76h-86v-176h-92v176h-265v58l255 420h102v-402h86z" />
    <glyph glyph-name="five.ot" unicode="&#xf648;" 
d="M432 55q0 -66 -16.5 -111.5t-47 -69t-65 -33t-79.5 -9.5q-41 0 -80 7.5t-58 14.5l-18 8l21 78q67 -24 123 -24q59 0 88 22q40 31 40 112q0 73 -36 103q-28 24 -91 24q-62 0 -110 -16l-34 24l28 315h281v-84h-198l-14 -161q37 6 68 6q86 0 133 -35q65 -49 65 -171z" />
    <glyph glyph-name="six.ot" unicode="&#xf649;" 
d="M459 202q0 -103 -56 -159q-53 -53 -153 -53q-102 0 -155.5 62.5t-53.5 210.5q0 196 111 292q82 71 218 95l18 -73q-37 -11 -64.5 -21t-59 -27t-53.5 -37.5t-40.5 -51t-28.5 -68.5l4 -2q58 33 126 33q85 0 130 -39q57 -50 57 -162zM369 203q0 62 -26 91t-85 29
q-55 0 -123 -28q-2 -22 -2 -35q0 -124 33 -157q29 -30 87 -30q62 0 89 30q27 27 27 100z" />
    <glyph glyph-name="seven.ot" unicode="&#xf64a;" 
d="M444 499v-60l-228 -597h-99l229 573h-290v84h388z" />
    <glyph glyph-name="eight.ot" unicode="&#xf64b;" 
d="M336 336l15 -8q56 -32 80.5 -72t24.5 -94q0 -172 -206 -172t-206 172q0 54 23.5 90t77.5 75l17 12l-22 13q-79 49 -79 140q0 76 50 117t139 41t139 -41t50 -117q0 -28 -7.5 -51t-24.5 -42.5t-30.5 -31t-40.5 -31.5zM136 165q0 -91 114 -91t114 91q0 34 -14 56t-48 41
l-68 38l-42 -31q-31 -24 -43.5 -46.5t-12.5 -57.5zM208 405l59 -33q31 23 43.5 34.5t24.5 34t12 49.5q0 76 -97 76t-97 -76q0 -54 55 -85z" />
    <glyph glyph-name="nine.ot" unicode="&#xf64c;" 
d="M41 292q0 103 57 163q55 55 152 55q102 0 155.5 -64.5t53.5 -215.5q0 -205 -111 -302q-80 -72 -218 -96l-18 75q48 14 81.5 28t69 38t59.5 60t36 85l-4 2q-60 -36 -126 -36q-83 0 -130 42q-57 51 -57 166zM131 291q0 -64 26 -93q25 -30 85 -30q59 0 123 29q2 22 2 36
q0 127 -33 161q-30 32 -87 32t-87 -33q-29 -31 -29 -102z" />
    <glyph glyph-name="zero.denominator" unicode="&#xf655;" horiz-adv-x="318" 
d="M214 168q0 60 -11.5 85.5t-43.5 25.5q-30 0 -42.5 -25.5t-12.5 -85.5q0 -62 13.5 -86t41.5 -24q30 0 42.5 24t12.5 86zM282 168q0 -86 -26.5 -129t-96.5 -43q-67 0 -95 42t-28 130q0 85 28 129t95 44t95 -42.5t28 -130.5z" />
    <glyph glyph-name="one.denominator" unicode="&#xf656;" horiz-adv-x="202" 
d="M148 337v-337h-68v261q0 12 -12 9l-32 -9l-10 37l76 39h46z" />
    <glyph glyph-name="two.denominator" unicode="&#xf657;" horiz-adv-x="293" 
d="M254 64v-64h-218v63l106 115q36 40 36 65q0 16 -11 26t-32 10q-35 0 -76 -18l-16 55q48 25 94 25q53 0 81 -27t28 -71q0 -49 -57 -111l-47 -51l-23 -16l4 -7q16 6 26 6h105z" />
    <glyph glyph-name="three.denominator" unicode="&#xf658;" horiz-adv-x="271" 
d="M184 185v-4q55 -20 55 -78q0 -52 -32 -79.5t-85 -27.5q-38 0 -101 21q1 4 8 24.5t10 31.5q2 -1 12 -4t28.5 -6t33.5 -3q58 0 58 45q0 42 -59 42h-48v58h45q45 0 45 36t-41 36q-29 0 -63 -10l-17 55q44 19 88 19q49 0 75 -23t26 -64q0 -45 -38 -69z" />
    <glyph glyph-name="four.denominator" unicode="&#xf659;" horiz-adv-x="290" 
d="M168 249l-13 2q-14 -40 -22 -55l-44 -75h74v69zM272 121v-54h-41v-67h-68v67h-143v43l131 227h80v-216h41z" />
    <glyph glyph-name="five.denominator" unicode="&#xf65a;" horiz-adv-x="268" 
d="M240 109q0 -63 -36 -92q-28 -21 -78 -21q-49 0 -89 17l14 58q36 -11 65 -11q30 0 43 10t13 37q0 25 -13.5 35t-42.5 10q-25 0 -55 -7l-25 18l19 174h158v-64h-100l-6 -59q14 2 25 2q50 0 74 -18q34 -27 34 -89z" />
    <glyph glyph-name="six.denominator" unicode="&#xf65b;" horiz-adv-x="307" 
d="M203 106q0 25 -11 36.5t-36 11.5q-26 0 -52 -11v-13q0 -37 9.5 -53.5t40.5 -16.5q25 0 36.5 10.5t12.5 35.5zM271 107q0 -111 -118 -111q-60 0 -88.5 33.5t-28.5 103.5q0 87 48.5 140t138.5 68l13 -54q-97 -26 -121 -84q27 9 52 9q104 0 104 -105z" />
    <glyph glyph-name="seven.denominator" unicode="&#xf65c;" horiz-adv-x="219" 
d="M204 337v-61l-113 -276h-75l116 266v7h-122v64h194z" />
    <glyph glyph-name="eight.denominator" unicode="&#xf65d;" horiz-adv-x="296" 
d="M260 88q0 -39 -26 -65.5t-86 -26.5q-59 0 -85.5 26.5t-26.5 65.5q0 54 59 86v4q-51 29 -51 78q0 37 26 61t78 24t78 -24t26 -61q0 -48 -50 -78v-4q58 -30 58 -86zM192 93q0 28 -27 43l-18 10l-17 -10q-26 -15 -26 -43q0 -17 11 -28t33 -11q44 0 44 39zM110 252
q0 -25 24 -39l17 -10l12 8q23 15 23 41q0 31 -38 31q-18 0 -28 -9t-10 -22z" />
    <glyph glyph-name="nine.denominator" unicode="&#xf65e;" horiz-adv-x="307" 
d="M104 231q0 -25 11 -36.5t36 -11.5q26 0 52 11v13q0 37 -9.5 53.5t-40.5 16.5q-25 0 -36.5 -10.5t-12.5 -35.5zM36 230q0 111 118 111q60 0 88.5 -33.5t28.5 -103.5q0 -97 -46.5 -146t-140.5 -62l-13 54q51 11 82 29.5t42 54.5q-27 -9 -55 -9q-104 0 -104 105z" />
    <glyph glyph-name="zero.numerator" unicode="&#xf661;" horiz-adv-x="318" 
d="M214 507q0 60 -11.5 85.5t-43.5 25.5q-30 0 -42.5 -25.5t-12.5 -85.5q0 -62 13.5 -86t41.5 -24q30 0 42.5 24t12.5 86zM282 507q0 -86 -26.5 -129t-96.5 -43q-67 0 -95 42t-28 130q0 85 28 129t95 44t95 -42.5t28 -130.5z" />
    <glyph glyph-name="one.numerator" unicode="&#xf662;" horiz-adv-x="202" 
d="M148 676v-337h-68v261q0 12 -12 9l-32 -9l-10 37l76 39h46z" />
    <glyph glyph-name="two.numerator" unicode="&#xf663;" horiz-adv-x="293" 
d="M254 403v-64h-218v63l106 115q36 41 36 65q0 16 -11 26t-32 10q-35 0 -76 -18l-16 55q48 25 94 25q53 0 81 -27t28 -71q0 -49 -57 -111l-47 -51l-23 -16l4 -7q16 6 26 6h105z" />
    <glyph glyph-name="three.numerator" unicode="&#xf664;" horiz-adv-x="271" 
d="M184 524v-4q55 -20 55 -78q0 -52 -32 -79.5t-85 -27.5q-38 0 -101 21q1 4 8 24.5t10 31.5q2 -1 12 -4t28.5 -6t33.5 -3q58 0 58 45q0 42 -59 42h-48v58h45q45 0 45 36t-41 36q-29 0 -63 -10l-17 55q44 19 88 19q49 0 75 -23t26 -64q0 -45 -38 -69z" />
    <glyph glyph-name="four.numerator" unicode="&#xf665;" horiz-adv-x="290" 
d="M168 588l-13 2q-14 -40 -22 -55l-44 -75h74v69zM272 460v-54h-41v-67h-68v67h-143v43l131 227h80v-216h41z" />
    <glyph glyph-name="five.numerator" unicode="&#xf666;" horiz-adv-x="268" 
d="M240 448q0 -63 -36 -92q-28 -21 -78 -21q-49 0 -89 17l14 58q36 -11 65 -11q30 0 43 10t13 37q0 25 -13.5 35t-42.5 10q-25 0 -55 -7l-25 18l19 174h158v-64h-100l-6 -59q14 2 25 2q50 0 74 -18q34 -27 34 -89z" />
    <glyph glyph-name="six.numerator" unicode="&#xf667;" horiz-adv-x="307" 
d="M203 445q0 25 -11 36.5t-36 11.5q-26 0 -52 -11v-13q0 -37 9.5 -53.5t40.5 -16.5q25 0 36.5 10.5t12.5 35.5zM271 446q0 -111 -118 -111q-60 0 -88.5 33.5t-28.5 103.5q0 87 48.5 140t138.5 68l13 -54q-97 -26 -121 -84q27 9 52 9q104 0 104 -105z" />
    <glyph glyph-name="seven.numerator" unicode="&#xf668;" horiz-adv-x="219" 
d="M204 676v-61l-113 -276h-75l116 266v7h-122v64h194z" />
    <glyph glyph-name="eight.numerator" unicode="&#xf669;" horiz-adv-x="296" 
d="M260 427q0 -39 -26 -65.5t-86 -26.5q-59 0 -85.5 26.5t-26.5 65.5q0 54 59 86v4q-51 29 -51 78q0 37 26 61t78 24t78 -24t26 -61q0 -48 -50 -78v-4q58 -30 58 -86zM192 432q0 28 -27 43l-18 10l-17 -10q-26 -15 -26 -43q0 -17 11 -28t33 -11q44 0 44 39zM110 591
q0 -25 24 -39l17 -10l12 8q23 15 23 41q0 31 -38 31q-18 0 -28 -9t-10 -22z" />
    <glyph glyph-name="nine.numerator" unicode="&#xf66a;" horiz-adv-x="307" 
d="M104 570q0 -25 11 -36.5t36 -11.5q26 0 52 11v13q0 37 -9.5 53.5t-40.5 16.5q-25 0 -36.5 -10.5t-12.5 -35.5zM36 569q0 111 118 111q60 0 88.5 -33.5t28.5 -103.5q0 -97 -46.5 -146t-140.5 -62l-13 54q51 11 82 29.5t42 54.5q-27 -9 -55 -9q-104 0 -104 105z" />
    <glyph glyph-name="Abreve.sc" unicode="&#xf66d;" horiz-adv-x="512" 
d="M406 0l-45 121h-210l-45 -121h-96l194 520h104l194 -520h-96zM234 346l-56 -151h156l-56 151l-17 71h-10q0 -1 -2 -10.5t-4.5 -20t-5.5 -22.5t-5 -18zM341 704h47q0 -62 -34.5 -100.5t-96.5 -38.5t-96.5 38.5t-34.5 100.5h47q2 -27 23.5 -48.5t60.5 -21.5t60.5 21.5
t23.5 48.5z" />
    <glyph glyph-name="Amacron.sc" unicode="&#xf66e;" horiz-adv-x="512" 
d="M406 0l-45 121h-210l-45 -121h-96l194 520h104l194 -520h-96zM234 346l-56 -151h156l-56 151l-17 71h-10q0 -1 -2 -10.5t-4.5 -20t-5.5 -22.5t-5 -18zM380 657v-73h-246v73h246z" />
    <glyph glyph-name="Aogonek.sc" unicode="&#xf66f;" horiz-adv-x="512" 
d="M234 346l-56 -151h156l-56 151l-17 71h-10q0 -1 -2 -10.5t-4.5 -20t-5.5 -22.5t-5 -18zM517 -159l7 -46q-34 -11 -75 -11q-54 0 -85 21.5t-31 60.5q0 61 77 123l-49 132h-210l-45 -121h-96l194 520h104l194 -520q-31 -23 -59 -56t-28 -61q0 -47 55 -47z" />
    <glyph glyph-name="Cacute.sc" unicode="&#xf671;" horiz-adv-x="435" 
d="M410 673q0 -20 -20 -33l-116 -74h-47l87 112q22 27 57 27q18 0 28.5 -9t10.5 -23zM398 95l22 -74q-66 -31 -139 -31q-96 0 -149 40q-82 61 -82 230q0 163 79 224q60 46 152 46q60 0 121 -21l-23 -78q-58 15 -90 15q-63 0 -101 -30q-45 -37 -45 -156q0 -122 49 -160
q35 -26 97 -26q42 0 109 21z" />
    <glyph glyph-name="Ccaron.sc" unicode="&#xf672;" horiz-adv-x="435" 
d="M255 563l-123 104l23 36l111 -60h8l111 60l23 -36l-123 -104h-30zM398 95l22 -74q-66 -31 -139 -31q-96 0 -149 40q-82 61 -82 230q0 163 79 224q60 46 152 46q60 0 121 -21l-23 -78q-58 15 -90 15q-63 0 -101 -30q-45 -37 -45 -156q0 -122 49 -160q35 -26 97 -26
q42 0 109 21z" />
    <glyph glyph-name="Ccircumflex.sc" unicode="&#xf673;" horiz-adv-x="435" 
d="M287 703l123 -104l-22 -36l-112 60h-8l-110 -60l-24 36l123 104h30zM398 95l22 -74q-66 -31 -139 -31q-96 0 -149 40q-82 61 -82 230q0 163 79 224q60 46 152 46q60 0 121 -21l-23 -78q-58 15 -90 15q-63 0 -101 -30q-45 -37 -45 -156q0 -122 49 -160q35 -26 97 -26
q42 0 109 21z" />
    <glyph glyph-name="Cdotaccent.sc" unicode="&#xf674;" horiz-adv-x="435" 
d="M218 656q0 28 17 44t43 16t43 -16t17 -44t-17 -44t-43 -16t-43 16t-17 44zM398 95l22 -74q-66 -31 -139 -31q-96 0 -149 40q-82 61 -82 230q0 163 79 224q60 46 152 46q60 0 121 -21l-23 -78q-58 15 -90 15q-63 0 -101 -30q-45 -37 -45 -156q0 -122 49 -160
q35 -26 97 -26q42 0 109 21z" />
    <glyph glyph-name="Dcaron.sc" unicode="&#xf675;" horiz-adv-x="543" 
d="M401 252q0 109 -40 148q-38 36 -115 36h-88v-352h126q51 0 80 29q37 37 37 139zM493 251q0 -146 -58 -201q-53 -50 -144 -50h-225v520h185q114 0 174 -55q68 -62 68 -214zM230 565l-123 104l23 36l111 -60h8l111 60l23 -36l-123 -104h-30z" />
    <glyph glyph-name="Dmacron.sc" unicode="&#xf676;" horiz-adv-x="543" 
d="M0 226v74h66v220h185q114 0 174 -55q68 -62 68 -214q0 -146 -58 -201q-53 -50 -144 -50h-225v226h-66zM401 252q0 109 -40 148q-38 36 -115 36h-88v-136h103v-74h-103v-142h126q51 0 80 29q37 37 37 139z" />
    <glyph glyph-name="Ebreve.sc" unicode="&#xf677;" horiz-adv-x="430" 
d="M420 74v-74h-354v520h331v-74h-239v-134h151v-74h-151v-164h262zM321 701h47q0 -62 -34.5 -100.5t-96.5 -38.5t-96.5 38.5t-34.5 100.5h47q2 -27 23.5 -48.5t60.5 -21.5t60.5 21.5t23.5 48.5z" />
    <glyph glyph-name="Ecaron.sc" unicode="&#xf678;" horiz-adv-x="430" 
d="M420 74v-74h-354v520h331v-74h-239v-134h151v-74h-151v-164h262zM222 566l-123 104l23 36l111 -60h8l111 60l23 -36l-123 -104h-30z" />
    <glyph glyph-name="Edotaccent.sc" unicode="&#xf679;" horiz-adv-x="430" 
d="M420 74v-74h-354v520h331v-74h-239v-134h151v-74h-151v-164h262zM186 656q0 28 17 44t43 16t43 -16t17 -44t-17 -44t-43 -16t-43 16t-17 44z" />
    <glyph glyph-name="Emacron.sc" unicode="&#xf67a;" horiz-adv-x="430" 
d="M420 74v-74h-354v520h331v-74h-239v-134h151v-74h-151v-164h262zM359 657v-73h-246v73h246z" />
    <glyph glyph-name="Eogonek.sc" unicode="&#xf67c;" horiz-adv-x="430" 
d="M420 74v-74q-30 -24 -53.5 -56.5t-23.5 -60.5q0 -47 55 -47l47 5l7 -46q-34 -11 -75 -11q-54 0 -85 21.5t-31 60.5q0 76 89 131v3h-284v520h331v-74h-239v-134h151v-74h-151v-164h262z" />
    <glyph glyph-name="Gbreve.sc" unicode="&#xf67d;" horiz-adv-x="545" 
d="M495 287v-238q-94 -59 -195 -59q-104 0 -166 42q-84 57 -84 226q0 151 80 219q62 53 166 53q85 0 170 -36l-26 -79q-78 31 -143 31q-68 0 -108 -38q-46 -46 -46 -150q0 -109 44 -150q39 -34 113 -34q53 0 103 21v118h-102v74h194zM368 704h47q0 -62 -34.5 -100.5
t-96.5 -38.5t-96.5 38.5t-34.5 100.5h47q2 -27 23.5 -48.5t60.5 -21.5t60.5 21.5t23.5 48.5z" />
    <glyph glyph-name="Gcircumflex.sc" unicode="&#xf67e;" horiz-adv-x="545" 
d="M495 287v-238q-94 -59 -195 -59q-104 0 -166 42q-84 57 -84 226q0 151 80 219q62 53 166 53q85 0 170 -36l-26 -79q-78 31 -143 31q-68 0 -108 -38q-46 -46 -46 -150q0 -109 44 -150q39 -34 113 -34q53 0 103 21v118h-102v74h194zM299 706l123 -104l-22 -36l-112 60h-8
l-110 -60l-24 36l123 104h30z" />
    <glyph glyph-name="Gcommaaccent.sc" unicode="&#xf67f;" horiz-adv-x="545" 
d="M495 287v-238q-94 -59 -195 -59q-104 0 -166 42q-84 57 -84 226q0 151 80 219q62 53 166 53q85 0 170 -36l-26 -79q-78 31 -143 31q-68 0 -108 -38q-46 -46 -46 -150q0 -109 44 -150q39 -34 113 -34q53 0 103 21v118h-102v74h194zM243 -104q0 28 17 44t43 16t43 -16
t17 -44q0 -31 -29 -107l-32 -82l-40 7l20 123v2q-39 12 -39 57z" />
    <glyph glyph-name="Gdotaccent.sc" unicode="&#xf680;" horiz-adv-x="545" 
d="M495 287v-238q-94 -59 -195 -59q-104 0 -166 42q-84 57 -84 226q0 151 80 219q62 53 166 53q85 0 170 -36l-26 -79q-78 31 -143 31q-68 0 -108 -38q-46 -46 -46 -150q0 -109 44 -150q39 -34 113 -34q53 0 103 21v118h-102v74h194zM226 656q0 28 17 44t43 16t43 -16
t17 -44t-17 -44t-43 -16t-43 16t-17 44z" />
    <glyph glyph-name="Hcircumflex.sc" unicode="&#xf682;" horiz-adv-x="591" 
d="M525 520v-520h-92v236h-275v-236h-92v520h92v-210h275v210h92zM310 707l123 -104l-22 -36l-112 60h-8l-110 -60l-24 36l123 104h30z" />
    <glyph glyph-name="Imacron.sc" unicode="&#xf685;" horiz-adv-x="224" 
d="M158 520v-520h-92v520h92zM235 657v-73h-246v73h246z" />
    <glyph glyph-name="Iogonek.sc" unicode="&#xf686;" horiz-adv-x="224" 
d="M158 520v-520q-30 -24 -53.5 -56.5t-23.5 -60.5q0 -47 55 -47l47 5l7 -46q-34 -11 -75 -11q-54 0 -85 21.5t-31 60.5q0 66 67 120v534h92z" />
    <glyph glyph-name="Jcircumflex.sc" unicode="&#xf688;" horiz-adv-x="263" 
d="M201 520v-339q0 -109 -41.5 -150t-169.5 -41v84q77 0 98 23t21 96v327h92zM170 707l123 -104l-22 -36l-112 60h-8l-110 -60l-24 36l123 104h30z" />
    <glyph glyph-name="Kcommaaccent.sc" unicode="&#xf689;" horiz-adv-x="488" 
d="M361 520h108l-181 -264l190 -256h-114l-162 220h-44v-220h-92v520h92v-230h46zM205 -104q0 28 17 44t43 16t43 -16t17 -44q0 -31 -29 -107l-32 -82l-40 7l20 123v2q-39 12 -39 57z" />
    <glyph glyph-name="Lacute.sc" unicode="&#xf68a;" horiz-adv-x="379" 
d="M369 74v-74h-303v520h92v-446h211zM283 672q0 -20 -20 -33l-116 -74h-47l87 112q22 27 57 27q18 0 28.5 -9t10.5 -23z" />
    <glyph glyph-name="Lcaron.sc" unicode="&#xf68b;" horiz-adv-x="379" 
d="M369 74v-74h-303v520h92v-446h211zM219 473q0 28 17 44t43 16t43 -16t17 -44q0 -29 -22 -101l-26 -88l-34 6l16 123q-24 2 -39 17.5t-15 42.5z" />
    <glyph glyph-name="Lcommaaccent.sc" unicode="&#xf68c;" horiz-adv-x="379" 
d="M369 74v-74h-303v520h92v-446h211zM167 -104q0 28 17 44t43 16t43 -16t17 -44q0 -31 -29 -107l-32 -82l-40 7l20 123v2q-39 12 -39 57z" />
    <glyph glyph-name="Ldot.sc" unicode="&#xf68d;" horiz-adv-x="379" 
d="M369 74v-74h-303v520h92v-446h211zM207 289q0 28 17 44t43 16t43 -16t17 -44t-17 -44t-43 -16t-43 16t-17 44z" />
    <glyph glyph-name="Nacute.sc" unicode="&#xf68e;" horiz-adv-x="607" 
d="M541 520v-520h-124l-232 365q-6 10 -12 23.5t-9 22.5l-3 9l-10 -3q7 -44 7 -72v-345h-92v520h124l233 -367q6 -9 11.5 -21.5t7.5 -20.5l2 -8l9 2q-4 39 -4 68v347h92zM481 670q0 -20 -20 -33l-116 -74h-47l87 112q22 27 57 27q18 0 28.5 -9t10.5 -23z" />
    <glyph glyph-name="Ncaron.sc" unicode="&#xf68f;" horiz-adv-x="607" 
d="M541 520v-520h-124l-232 365q-6 10 -12 23.5t-9 22.5l-3 9l-10 -3q7 -44 7 -72v-345h-92v520h124l233 -367q6 -9 11.5 -21.5t7.5 -20.5l2 -8l9 2q-4 39 -4 68v347h92zM289 564l-123 104l23 36l111 -60h8l111 60l23 -36l-123 -104h-30z" />
    <glyph glyph-name="Ncommaaccent.sc" unicode="&#xf690;" horiz-adv-x="607" 
d="M541 520v-520h-124l-232 365q-6 10 -12 23.5t-9 22.5l-3 9l-10 -3q7 -44 7 -72v-345h-92v520h124l233 -367q6 -9 11.5 -21.5t7.5 -20.5l2 -8l9 2q-4 39 -4 68v347h92zM226 -104q0 28 17 44t43 16t43 -16t17 -44q0 -31 -29 -107l-32 -82l-40 7l20 123v2q-39 12 -39 57z
" />
    <glyph glyph-name="Obreve.sc" unicode="&#xf691;" horiz-adv-x="580" 
d="M437 259q0 119 -54 160q-36 27 -93 27t-93 -27q-54 -40 -54 -160q0 -118 52 -157q37 -28 95 -28q59 0 96 28q51 40 51 157zM530 259q0 -163 -80 -223q-61 -46 -160 -46t-160 46q-80 60 -80 223q0 162 78 222q66 49 162 49q97 0 163 -49q77 -58 77 -222zM374 705h47
q0 -62 -34.5 -100.5t-96.5 -38.5t-96.5 38.5t-34.5 100.5h47q2 -27 23.5 -48.5t60.5 -21.5t60.5 21.5t23.5 48.5z" />
    <glyph glyph-name="Ohungarumlaut.sc" unicode="&#xf692;" horiz-adv-x="580" 
d="M437 259q0 119 -54 160q-36 27 -93 27t-93 -27q-54 -40 -54 -160q0 -118 52 -157q37 -28 95 -28q59 0 96 28q51 40 51 157zM530 259q0 -163 -80 -223q-61 -46 -160 -46t-160 46q-80 60 -80 223q0 162 78 222q66 49 162 49q97 0 163 -49q77 -58 77 -222zM378 667
q0 -23 -35 -45l-100 -62h-40l79 105q26 34 59 34q17 0 27 -9t10 -23zM526 667q0 -23 -35 -45l-100 -62h-40l79 105q25 34 59 34q17 0 27 -9t10 -23z" />
    <glyph glyph-name="Omacron.sc" unicode="&#xf693;" horiz-adv-x="580" 
d="M437 259q0 119 -54 160q-36 27 -93 27t-93 -27q-54 -40 -54 -160q0 -118 52 -157q37 -28 95 -28q59 0 96 28q51 40 51 157zM530 259q0 -163 -80 -223q-61 -46 -160 -46t-160 46q-80 60 -80 223q0 162 78 222q66 49 162 49q97 0 163 -49q77 -58 77 -222zM411 657v-73h-246
v73h246z" />
    <glyph glyph-name="Oslashacute.sc" unicode="&#xf694;" horiz-adv-x="580" 
d="M43 23l48 57q-41 66 -41 179q0 162 78 222q66 49 162 49q84 0 149 -40l42 50l52 -43l-46 -54q43 -68 43 -184q0 -163 -80 -223q-61 -46 -160 -46q-92 0 -152 40l-42 -50zM437 259q0 63 -16 105l-224 -264q39 -26 93 -26q59 0 96 28q51 40 51 157zM143 259q0 -63 14 -102
l223 264q-36 25 -90 25q-57 0 -93 -27q-54 -40 -54 -160zM482 672q0 -20 -20 -33l-116 -74h-47l87 112q22 27 57 27q18 0 28.5 -9t10.5 -23z" />
    <glyph glyph-name="Racute.sc" unicode="&#xf695;" horiz-adv-x="480" 
d="M339 357q0 41 -23 60t-76 19h-82v-159h82q53 0 76 17.5t23 62.5zM361 0l-152 203h-51v-203h-92v520h175q190 0 190 -162q0 -126 -114 -150v-3l153 -205h-109zM390 673q0 -20 -20 -33l-116 -74h-47l87 112q22 27 57 27q18 0 28.5 -9t10.5 -23z" />
    <glyph glyph-name="Rcaron.sc" unicode="&#xf696;" horiz-adv-x="480" 
d="M339 357q0 41 -23 60t-76 19h-82v-159h82q53 0 76 17.5t23 62.5zM361 0l-152 203h-51v-203h-92v520h175q190 0 190 -162q0 -126 -114 -150v-3l153 -205h-109zM223 565l-123 104l23 36l111 -60h8l111 60l23 -36l-123 -104h-30z" />
    <glyph glyph-name="Rcommaaccent.sc" unicode="&#xf697;" horiz-adv-x="480" 
d="M339 357q0 41 -23 60t-76 19h-82v-159h82q53 0 76 17.5t23 62.5zM361 0l-152 203h-51v-203h-92v520h175q190 0 190 -162q0 -126 -114 -150v-3l153 -205h-109zM205 -104q0 28 17 44t43 16t43 -16t17 -44q0 -31 -29 -107l-32 -82l-40 7l20 123v2q-39 12 -39 57z" />
    <glyph glyph-name="Sacute.sc" unicode="&#xf698;" horiz-adv-x="490" 
d="M445 153q0 -75 -48 -119t-153 -44q-106 0 -199 57l39 76q81 -49 159 -49q55 0 82 21t27 55q0 57 -79 73l-87 17q-139 28 -139 141q0 63 47 106t145 43q93 0 168 -44l-39 -75q-66 35 -129 35q-46 0 -72.5 -17.5t-26.5 -46.5q0 -48 64 -60l91 -18q80 -16 115 -52.5
t35 -98.5zM381 672q0 -20 -20 -33l-116 -74h-47l87 112q22 27 57 27q18 0 28.5 -9t10.5 -23z" />
    <glyph glyph-name="Scedilla.sc" unicode="&#xf699;" horiz-adv-x="490" 
d="M365 -130q0 -44 -26.5 -65t-87.5 -21q-21 0 -45 3t-38 7l-13 3l6 45q53 -8 79 -8q51 0 51 36q0 18 -11.5 26.5t-40.5 8.5h-54l18 88q-88 11 -158 54l39 76q81 -49 159 -49q55 0 82 21t27 55q0 57 -79 73l-87 17q-139 28 -139 141q0 63 47 106t145 43q93 0 168 -44
l-39 -75q-66 35 -129 35q-46 0 -72.5 -17.5t-26.5 -46.5q0 -48 64 -60l91 -18q80 -16 115 -52.5t35 -98.5q0 -71 -44 -114.5t-140 -47.5l-8 -43h15q97 0 97 -78z" />
    <glyph glyph-name="Scircumflex.sc" unicode="&#xf69a;" horiz-adv-x="490" 
d="M445 153q0 -75 -48 -119t-153 -44q-106 0 -199 57l39 76q81 -49 159 -49q55 0 82 21t27 55q0 57 -79 73l-87 17q-139 28 -139 141q0 63 47 106t145 43q93 0 168 -44l-39 -75q-66 35 -129 35q-46 0 -72.5 -17.5t-26.5 -46.5q0 -48 64 -60l91 -18q80 -16 115 -52.5
t35 -98.5zM250 703l123 -104l-22 -36l-112 60h-8l-110 -60l-24 36l123 104h30z" />
    <glyph glyph-name="Scommaaccent.sc" unicode="&#xf69b;" horiz-adv-x="490" 
d="M445 153q0 -75 -48 -119t-153 -44q-106 0 -199 57l39 76q81 -49 159 -49q55 0 82 21t27 55q0 57 -79 73l-87 17q-139 28 -139 141q0 63 47 106t145 43q93 0 168 -44l-39 -75q-66 35 -129 35q-46 0 -72.5 -17.5t-26.5 -46.5q0 -48 64 -60l91 -18q80 -16 115 -52.5
t35 -98.5zM190 -104q0 28 17 44t43 16t43 -16t17 -44q0 -31 -29 -107l-32 -82l-40 7l20 123v2q-39 12 -39 57z" />
    <glyph glyph-name="Tcaron.sc" unicode="&#xf69d;" horiz-adv-x="416" 
d="M406 520v-74h-152v-446h-92v446h-152v74h396zM196 566l-123 104l23 36l111 -60h8l111 60l23 -36l-123 -104h-30z" />
    <glyph glyph-name="Tcommaaccent.sc" unicode="&#xf69e;" horiz-adv-x="416" 
d="M406 520v-74h-152v-446h-92v446h-152v74h396zM150 -104q0 28 17 44t43 16t43 -16t17 -44q0 -31 -29 -107l-32 -82l-40 7l20 123v2q-39 12 -39 57z" />
    <glyph glyph-name="Ubreve.sc" unicode="&#xf69f;" horiz-adv-x="555" 
d="M495 520v-340q0 -89 -56 -139.5t-162 -50.5q-105 0 -161 50.5t-56 139.5v340h92v-330q0 -116 125 -116q126 0 126 116v330h92zM371 704h47q0 -62 -34.5 -100.5t-96.5 -38.5t-96.5 38.5t-34.5 100.5h47q2 -27 23.5 -48.5t60.5 -21.5t60.5 21.5t23.5 48.5z" />
    <glyph glyph-name="Uhungarumlaut.sc" unicode="&#xf6a0;" horiz-adv-x="555" 
d="M492 520v-340q0 -89 -56 -139.5t-162 -50.5q-105 0 -161 50.5t-56 139.5v340h92v-330q0 -116 125 -116q126 0 126 116v330h92zM349 672q0 -23 -35 -45l-100 -62h-40l79 105q25 34 59 34q17 0 27 -9t10 -23zM497 672q0 -23 -35 -45l-100 -62h-40l79 105q25 34 59 34
q17 0 27 -9t10 -23z" />
    <glyph glyph-name="Umacron.sc" unicode="&#xf6a1;" horiz-adv-x="555" 
d="M495 520v-340q0 -89 -56 -139.5t-162 -50.5q-105 0 -161 50.5t-56 139.5v340h92v-330q0 -116 125 -116q126 0 126 116v330h92zM410 657v-73h-246v73h246z" />
    <glyph glyph-name="Uogonek.sc" unicode="&#xf6a2;" horiz-adv-x="555" 
d="M394 -159l7 -46q-34 -11 -75 -11q-54 0 -85 21.5t-31 60.5q0 67 69 122v2h-2q-105 0 -161 50.5t-56 139.5v340h92v-330q0 -116 125 -116q126 0 126 116v330h92v-340q0 -141 -129 -179q-28 -23 -51 -56.5t-23 -61.5q0 -47 55 -47z" />
    <glyph glyph-name="Uring.sc" unicode="&#xf6a3;" horiz-adv-x="555" 
d="M495 520v-340q0 -89 -56 -139.5t-162 -50.5q-105 0 -161 50.5t-56 139.5v340h92v-330q0 -116 125 -116q126 0 126 116v330h92zM340 666q0 22 -15.5 38t-37.5 16t-37.5 -16t-15.5 -38t15 -37.5t38 -15.5t38 15.5t15 37.5zM394 666q0 -44 -30.5 -73.5t-76.5 -29.5
t-76.5 29.5t-30.5 73.5t30.5 74t76.5 30t76.5 -30t30.5 -74z" />
    <glyph glyph-name="Utilde.sc" unicode="&#xf6a4;" horiz-adv-x="555" 
d="M495 520v-340q0 -89 -56 -139.5t-162 -50.5q-105 0 -161 50.5t-56 139.5v340h92v-330q0 -116 125 -116q126 0 126 116v330h92zM399 683l38 -7q-11 -91 -85 -91q-16 0 -66 12.5t-67 12.5q-30 0 -44 -29l-37 8q12 90 85 90q16 0 65.5 -12.5t66.5 -12.5q31 0 44 29z" />
    <glyph glyph-name="Wacute.sc" unicode="&#xf6a5;" horiz-adv-x="780" 
d="M563 92q3 48 10 71l102 357h95l-151 -520h-115l-99 301l-11 55h-8q-5 -37 -11 -55l-98 -301h-116l-151 520h95l102 -357l12 -71h10q7 48 15 71l104 315h84l104 -315l16 -71h11zM548 672q0 -20 -20 -33l-116 -74h-47l87 112q22 27 57 27q18 0 28.5 -9t10.5 -23z" />
    <glyph glyph-name="Wcircumflex.sc" unicode="&#xf6a6;" horiz-adv-x="780" 
d="M563 92q3 48 10 71l102 357h95l-151 -520h-115l-99 301l-11 55h-8q-5 -37 -11 -55l-98 -301h-116l-151 520h95l102 -357l12 -71h10q7 48 15 71l104 315h84l104 -315l16 -71h11zM405 705l123 -104l-22 -36l-112 60h-8l-110 -60l-24 36l123 104h30z" />
    <glyph glyph-name="Wdieresis.sc" unicode="&#xf6a7;" horiz-adv-x="780" 
d="M563 92q3 48 10 71l102 357h95l-151 -520h-115l-99 301l-11 55h-8q-5 -37 -11 -55l-98 -301h-116l-151 520h95l102 -357l12 -71h10q7 48 15 71l104 315h84l104 -315l16 -71h11zM235 656q0 28 17 44t43 16t43 -16t17 -44t-17 -44t-43 -16t-43 16t-17 44zM425 656
q0 28 17 44t43 16t43 -16t17 -44t-17 -44t-43 -16t-43 16t-17 44z" />
    <glyph glyph-name="Wgrave.sc" unicode="&#xf6a8;" horiz-adv-x="780" 
d="M563 92q3 48 10 71l102 357h95l-151 -520h-115l-99 301l-11 55h-8q-5 -37 -11 -55l-98 -301h-116l-151 520h95l102 -357l12 -71h10q7 48 15 71l104 315h84l104 -315l16 -71h11zM240 672q0 14 10.5 23t28.5 9q35 0 57 -27l87 -112h-47l-116 74q-20 13 -20 33z" />
    <glyph glyph-name="Ycircumflex.sc" unicode="&#xf6a9;" horiz-adv-x="488" 
d="M248 272q4 27 15 47l113 201h102l-188 -331v-189h-92v189l-188 331h102l112 -200q5 -9 9 -21t5 -19l2 -8h8zM259 705l123 -104l-22 -36l-112 60h-8l-110 -60l-24 36l123 104h30z" />
    <glyph glyph-name="Ygrave.sc" unicode="&#xf6aa;" horiz-adv-x="488" 
d="M248 272q4 27 15 47l113 201h102l-188 -331v-189h-92v189l-188 331h102l112 -200q5 -9 9 -21t5 -19l2 -8h8zM95 672q0 14 10.5 23t28.5 9q35 0 57 -27l87 -112h-47l-116 74q-20 13 -20 33z" />
    <glyph glyph-name="Zacute.sc" unicode="&#xf6ab;" horiz-adv-x="453" 
d="M431 74v-74h-409l238 402q6 10 14.5 20t13.5 15l6 5l-1 4h-239v74h375l-243 -409l-28 -34l1 -3h272zM408 672q0 -20 -20 -33l-116 -74h-47l87 112q22 27 57 27q18 0 28.5 -9t10.5 -23z" />
    <glyph glyph-name="Zdotaccent.sc" unicode="&#xf6ac;" horiz-adv-x="453" 
d="M431 74v-74h-409l238 402q6 10 14.5 20t13.5 15l6 5l-1 4h-239v74h375l-243 -409l-28 -34l1 -3h272zM186 656q0 28 17 44t43 16t43 -16t17 -44t-17 -44t-43 -16t-43 16t-17 44z" />
    <glyph glyph-name="Idotaccent.sc" unicode="&#xf6ad;" horiz-adv-x="224" 
d="M158 520v-520h-92v520h92zM52 656q0 28 17 44t43 16t43 -16t17 -44t-17 -44t-43 -16t-43 16t-17 44z" />
    <glyph glyph-name="Germandbls.sc" unicode="&#xf6be;" horiz-adv-x="958" 
d="M445 153q0 -75 -48 -119t-153 -44q-106 0 -199 57l39 76q81 -49 159 -49q55 0 82 21t27 55q0 57 -79 73l-87 17q-139 28 -139 141q0 63 47 106t145 43q93 0 168 -44l-39 -75q-66 35 -129 35q-46 0 -72.5 -17.5t-26.5 -46.5q0 -48 64 -60l91 -18q80 -16 115 -52.5
t35 -98.5zM913 153q0 -75 -48 -119t-153 -44q-106 0 -199 57l39 76q81 -49 159 -49q55 0 82 21t27 55q0 57 -79 73l-87 17q-139 28 -139 141q0 63 47 106t145 43q93 0 168 -44l-39 -75q-66 35 -129 35q-46 0 -72.5 -17.5t-26.5 -46.5q0 -48 64 -60l91 -18q80 -16 115 -52.5
t35 -98.5z" />
    <glyph glyph-name="commaaccent" unicode="&#xf6c3;" horiz-adv-x="470" 
d="M171 -104q0 28 17 44t43 16t43 -16t17 -44q0 -31 -29 -107l-32 -82l-40 7l20 123v2q-39 12 -39 57z" />
    <glyph glyph-name="dblgrave" unicode="&#xf6d6;" horiz-adv-x="470" 
d="M197 641q0 14 10 23t27 9q34 0 59 -34l79 -105h-40l-100 62q-35 22 -35 45zM49 641q0 14 10 23t27 9q33 0 59 -34l79 -105h-40l-100 62q-35 22 -35 45z" />
    <glyph glyph-name="one.tb" unicode="&#xf6dc;" 
d="M62 0v84h160v465q0 19 -22 13l-101 -29l-13 56l176 87h52v-592h142v-84h-394z" />
    <glyph glyph-name="rupiah" unicode="&#xf6dd;" horiz-adv-x="1025" 
d="M450 317q-30 -26 -79 -35l143 -282h-109l-134 274h-80v-274h-95v676h212q94 0 145 -52.5t51 -152.5q0 -107 -54 -154zM408 471q0 120 -101 120h-116v-241h116q101 0 101 121zM883 240q0 106 -32 141q-24 25 -71 25q-48 0 -82 -34t-34 -83v-90q0 -51 33 -88t84 -37
q43 0 66 22q36 32 36 144zM975 240q0 -146 -59 -205q-45 -45 -117 -45q-89 0 -135 61l-5 -3q5 -15 5 -35v-240h-92v707h58l31 -57h6q57 67 142 67q70 0 113 -44q53 -55 53 -206z" />
    <glyph glyph-name="Lslash.sc" unicode="&#xf6f9;" horiz-adv-x="379" 
d="M66 272v248h92v-174l-2 -25l3 -2q6 7 20 15l93 52v-81l-114 -64v-167h211v-74h-303v168l2 26l-2 1q-8 -8 -18 -14l-59 -33v81z" />
    <glyph glyph-name="OE.sc" unicode="&#xf6fa;" horiz-adv-x="799" 
d="M789 74v-74h-415q-42 -10 -84 -10q-99 0 -160 46q-80 60 -80 223q0 162 78 222q66 49 162 49q37 0 79 -10h397v-74h-272l-4 -8q30 -52 37 -126h151v-74h-149q-3 -95 -40 -158l5 -6h295zM437 259q0 119 -54 160q-36 27 -93 27t-93 -27q-54 -40 -54 -160q0 -118 52 -157
q37 -28 95 -28q59 0 96 28q51 40 51 157z" />
    <glyph glyph-name="Scaron.sc" unicode="&#xf6fd;" horiz-adv-x="490" 
d="M445 153q0 -75 -48 -119t-153 -44q-106 0 -199 57l39 76q81 -49 159 -49q55 0 82 21t27 55q0 57 -79 73l-87 17q-139 28 -139 141q0 63 47 106t145 43q93 0 168 -44l-39 -75q-66 35 -129 35q-46 0 -72.5 -17.5t-26.5 -46.5q0 -48 64 -60l91 -18q80 -16 115 -52.5
t35 -98.5zM220 565l-123 104l23 36l111 -60h8l111 60l23 -36l-123 -104h-30z" />
    <glyph glyph-name="Zcaron.sc" unicode="&#xf6ff;" horiz-adv-x="453" 
d="M431 74v-74h-409l238 402q6 10 14.5 20t13.5 15l6 5l-1 4h-239v74h375l-243 -409l-28 -34l1 -3h272zM228 564l-123 104l23 36l111 -60h8l111 60l23 -36l-123 -104h-30z" />
    <glyph glyph-name="exclam.sc" unicode="&#xf721;" horiz-adv-x="245" 
d="M178 477l-30 -268h-52l-29 268q-2 31 12 43t43 12q30 0 45 -12t11 -43zM62 50q0 28 17 44t43 16t43 -16t17 -44t-17 -44t-43 -16t-43 16t-17 44z" />
    <glyph glyph-name="ampersand.sc" unicode="&#xf726;" horiz-adv-x="514" 
d="M333 83v162h-87q-104 0 -104 -81q0 -43 27 -66.5t103 -23.5q17 0 32.5 2t21.5 4zM494 319v-74h-69v-227q-68 -28 -160 -28q-120 0 -167.5 42.5t-47.5 121.5q0 53 22.5 85.5t77.5 47.5v3q-58 29 -58 104q0 134 166 134q59 0 113 -17l-18 -77q-43 10 -92 10
q-45 0 -61 -14.5t-16 -47.5q0 -32 18 -47.5t62 -15.5h230z" />
    <glyph glyph-name="zerooldstyle" unicode="&#xf730;" horiz-adv-x="538" 
d="M393 249q0 92 -35 138q-30 39 -89 39q-58 0 -88 -39q-36 -45 -36 -138q0 -91 38 -138q31 -37 86 -37q57 0 86 37q38 46 38 138zM485 249q0 -130 -65 -199q-57 -60 -151 -60t-151 60q-65 67 -65 199q0 123 61 196q26 32 68.5 48.5t86.5 16.5q99 0 155 -65q61 -71 61 -196z
" />
    <glyph glyph-name="oneoldstyle" unicode="&#xf731;" horiz-adv-x="287" 
d="M212 510v-510h-92v389q0 18 -22 13l-69 -15l-12 50l143 73h52z" />
    <glyph glyph-name="twooldstyle" unicode="&#xf732;" horiz-adv-x="468" 
d="M423 84v-84h-400v76l180 122q37 25 49 34t34.5 29t30.5 37.5t8 39.5q0 40 -29.5 64t-85.5 24q-55 0 -137 -36l-33 71q86 49 175 49q93 0 147.5 -47.5t54.5 -123.5q0 -61 -34 -104.5t-105 -88.5l-55 -34l-50 -23l4 -14q48 9 68 9h178z" />
    <glyph glyph-name="threeoldstyle" unicode="&#xf733;" horiz-adv-x="461" 
d="M413 40q0 -101 -60 -154.5t-161 -53.5q-22 0 -43.5 2.5t-38.5 7t-32 10t-27 11t-20 9.5t-13 8l-6 3l29 70q74 -37 142 -37q64 0 101 32t37 95q0 59 -34.5 85t-105.5 26h-72v76h67q113 0 113 104q0 44 -26.5 68t-77.5 24q-16 0 -32 -2t-30 -6t-23 -6.5t-19.5 -7
t-11.5 -4.5l-26 70q21 13 63.5 26.5t88.5 13.5q87 0 136.5 -44.5t49.5 -121.5q0 -98 -81 -139v-3q113 -37 113 -162z" />
    <glyph glyph-name="fouroldstyle" unicode="&#xf734;" horiz-adv-x="486" 
d="M288 369l-10 2q-12 -31 -20 -45l-139 -228h166v219zM466 98v-76h-89v-176h-92v176h-265v58l255 420h102v-402h89z" />
    <glyph glyph-name="fiveoldstyle" unicode="&#xf735;" horiz-adv-x="466" 
d="M428 55q0 -66 -16.5 -111.5t-47 -69t-65 -33t-79.5 -9.5q-41 0 -80 7.5t-58 14.5l-18 8l21 78q67 -24 123 -24q59 0 88 22q40 31 40 112q0 73 -36 103q-28 24 -91 24q-62 0 -110 -16l-34 24l28 315h281v-84h-198l-14 -161q37 6 68 6q86 0 133 -35q65 -49 65 -171z" />
    <glyph glyph-name="sixoldstyle" unicode="&#xf736;" horiz-adv-x="510" 
d="M464 202q0 -103 -56 -159q-53 -53 -153 -53q-102 0 -155.5 62.5t-53.5 210.5q0 196 111 292q82 71 218 95l18 -73q-37 -11 -64.5 -21t-59 -27t-53.5 -37.5t-40.5 -51t-28.5 -68.5l4 -2q58 33 126 33q85 0 130 -39q57 -50 57 -162zM374 203q0 62 -26 91t-85 29
q-55 0 -123 -28q-2 -22 -2 -35q0 -124 33 -157q29 -30 87 -30q62 0 89 30q27 27 27 100z" />
    <glyph glyph-name="sevenoldstyle" unicode="&#xf737;" horiz-adv-x="385" 
d="M365 500v-60l-220 -598h-99l226 574h-252v84h345z" />
    <glyph glyph-name="eightoldstyle" unicode="&#xf738;" horiz-adv-x="504" 
d="M338 336l15 -8q56 -32 80.5 -72t24.5 -94q0 -172 -206 -172t-206 172q0 54 23.5 90t77.5 75l17 12l-22 13q-79 49 -79 140q0 76 50 117t139 41t139 -41t50 -117q0 -28 -7.5 -51t-24.5 -42.5t-30.5 -31t-40.5 -31.5zM138 165q0 -91 114 -91t114 91q0 34 -14 56t-48 41
l-68 38l-42 -31q-31 -24 -43.5 -46.5t-12.5 -57.5zM210 405l59 -33q31 23 43.5 34.5t24.5 34t12 49.5q0 76 -97 76t-97 -76q0 -54 55 -85z" />
    <glyph glyph-name="nineoldstyle" unicode="&#xf739;" horiz-adv-x="510" 
d="M46 292q0 103 57 163q55 55 152 55q102 0 155.5 -64.5t53.5 -215.5q0 -205 -111 -302q-80 -72 -218 -96l-18 75q48 14 81.5 28t69 38t59.5 60t36 85l-4 2q-60 -36 -126 -36q-83 0 -130 42q-57 51 -57 166zM136 291q0 -64 26 -93q25 -30 85 -30q59 0 123 29q2 22 2 36
q0 127 -33 161q-30 32 -87 32t-87 -33q-29 -31 -29 -102z" />
    <glyph glyph-name="question.sc" unicode="&#xf73f;" horiz-adv-x="360" 
d="M322 405q0 -46 -20 -72.5t-66 -49.5q-40 -20 -51 -30t-12 -26l-2 -18h-65l-6 46q-3 20 1 34t17 25t23 16.5t34 17.5q29 14 42 26t13 30q0 44 -66 44q-59 0 -100 -17l-25 75q61 26 131 26q72 0 112 -32.5t40 -94.5zM77 50q0 28 17 44t43 16t43 -16t17 -44t-17 -44t-43 -16
t-43 16t-17 44z" />
    <glyph glyph-name="A.sc" unicode="&#xf761;" horiz-adv-x="512" 
d="M406 0l-45 121h-210l-45 -121h-96l194 520h104l194 -520h-96zM234 346l-56 -151h156l-56 151l-17 71h-10q0 -1 -2 -10.5t-4.5 -20t-5.5 -22.5t-5 -18z" />
    <glyph glyph-name="B.sc" unicode="&#xf762;" horiz-adv-x="502" 
d="M365 157q0 38 -19 56.5t-67 18.5h-121v-148h121q47 0 66.5 17.5t19.5 55.5zM335 371q0 65 -76 65h-101v-130h104q73 0 73 65zM457 147q0 -76 -45 -111.5t-140 -35.5h-206v520h196q165 0 165 -136q0 -86 -58 -103v-3q88 -21 88 -131z" />
    <glyph glyph-name="C.sc" unicode="&#xf763;" horiz-adv-x="435" 
d="M398 95l22 -74q-66 -31 -139 -31q-96 0 -149 40q-82 61 -82 230q0 163 79 224q60 46 152 46q60 0 121 -21l-23 -78q-58 15 -90 15q-63 0 -101 -30q-45 -37 -45 -156q0 -122 49 -160q35 -26 97 -26q42 0 109 21z" />
    <glyph glyph-name="D.sc" unicode="&#xf764;" horiz-adv-x="543" 
d="M401 252q0 109 -40 148q-38 36 -115 36h-88v-352h126q51 0 80 29q37 37 37 139zM493 251q0 -146 -58 -201q-53 -50 -144 -50h-225v520h185q114 0 174 -55q68 -62 68 -214z" />
    <glyph glyph-name="E.sc" unicode="&#xf765;" horiz-adv-x="430" 
d="M420 74v-74h-354v520h331v-74h-239v-134h151v-74h-151v-164h262z" />
    <glyph glyph-name="F.sc" unicode="&#xf766;" horiz-adv-x="377" 
d="M367 520v-74h-209v-140h156v-74h-156v-232h-92v520h301z" />
    <glyph glyph-name="G.sc" unicode="&#xf767;" horiz-adv-x="545" 
d="M495 287v-238q-94 -59 -195 -59q-104 0 -166 42q-84 57 -84 226q0 151 80 219q62 53 166 53q85 0 170 -36l-26 -79q-78 31 -143 31q-68 0 -108 -38q-46 -46 -46 -150q0 -109 44 -150q39 -34 113 -34q53 0 103 21v118h-102v74h194z" />
    <glyph glyph-name="H.sc" unicode="&#xf768;" horiz-adv-x="591" 
d="M525 520v-520h-92v236h-275v-236h-92v520h92v-210h275v210h92z" />
    <glyph glyph-name="I.sc" unicode="&#xf769;" horiz-adv-x="224" 
d="M158 520v-520h-92v520h92z" />
    <glyph glyph-name="J.sc" unicode="&#xf76a;" horiz-adv-x="263" 
d="M201 520v-339q0 -109 -41.5 -150t-169.5 -41v84q77 0 98 23t21 96v327h92z" />
    <glyph glyph-name="K.sc" unicode="&#xf76b;" horiz-adv-x="488" 
d="M361 520h108l-181 -264l190 -256h-114l-162 220h-44v-220h-92v520h92v-230h46z" />
    <glyph glyph-name="L.sc" unicode="&#xf76c;" horiz-adv-x="379" 
d="M369 74v-74h-303v520h92v-446h211z" />
    <glyph glyph-name="M.sc" unicode="&#xf76d;" horiz-adv-x="694" 
d="M515 336l-137 -262h-63l-136 262l-17 41l-9 -3q5 -40 5 -53v-321h-92v520h108l168 -323h8l170 323h108v-520h-92v321l5 53l-10 3q-9 -27 -16 -41z" />
    <glyph glyph-name="N.sc" unicode="&#xf76e;" horiz-adv-x="607" 
d="M541 520v-520h-124l-232 365q-6 10 -12 23.5t-9 22.5l-3 9l-10 -3q7 -44 7 -72v-345h-92v520h124l233 -367q6 -9 11.5 -21.5t7.5 -20.5l2 -8l9 2q-4 39 -4 68v347h92z" />
    <glyph glyph-name="O.sc" unicode="&#xf76f;" horiz-adv-x="580" 
d="M437 259q0 119 -54 160q-36 27 -93 27t-93 -27q-54 -40 -54 -160q0 -118 52 -157q37 -28 95 -28q59 0 96 28q51 40 51 157zM530 259q0 -163 -80 -223q-61 -46 -160 -46t-160 46q-80 60 -80 223q0 162 78 222q66 49 162 49q97 0 163 -49q77 -58 77 -222z" />
    <glyph glyph-name="P.sc" unicode="&#xf770;" horiz-adv-x="469" 
d="M429 353q0 -160 -172 -160h-99v-193h-92v520h175q92 0 140 -43t48 -124zM337 352q0 42 -22.5 63t-74.5 21h-82v-169h86q50 0 71.5 21t21.5 64z" />
    <glyph glyph-name="Q.sc" unicode="&#xf771;" horiz-adv-x="580" 
d="M448 -66l-53 72q-48 -16 -105 -16q-99 0 -160 46q-80 60 -80 223q0 162 78 222q66 49 162 49q97 0 163 -49q77 -58 77 -222q0 -157 -75 -219l48 -66zM437 259q0 119 -54 160q-36 27 -93 27t-93 -27q-54 -40 -54 -160q0 -118 52 -157q37 -28 95 -28q30 0 51 7l-33 46
l56 39l36 -50q37 44 37 143z" />
    <glyph glyph-name="R.sc" unicode="&#xf772;" horiz-adv-x="480" 
d="M339 357q0 41 -23 60t-76 19h-82v-159h82q53 0 76 17.5t23 62.5zM361 0l-152 203h-51v-203h-92v520h175q190 0 190 -162q0 -126 -114 -150v-3l153 -205h-109z" />
    <glyph glyph-name="S.sc" unicode="&#xf773;" horiz-adv-x="490" 
d="M445 153q0 -75 -48 -119t-153 -44q-106 0 -199 57l39 76q81 -49 159 -49q55 0 82 21t27 55q0 57 -79 73l-87 17q-139 28 -139 141q0 63 47 106t145 43q93 0 168 -44l-39 -75q-66 35 -129 35q-46 0 -72.5 -17.5t-26.5 -46.5q0 -48 64 -60l91 -18q80 -16 115 -52.5
t35 -98.5z" />
    <glyph glyph-name="T.sc" unicode="&#xf774;" horiz-adv-x="416" 
d="M406 520v-74h-152v-446h-92v446h-152v74h396z" />
    <glyph glyph-name="U.sc" unicode="&#xf775;" horiz-adv-x="555" 
d="M495 520v-340q0 -89 -56 -139.5t-162 -50.5q-105 0 -161 50.5t-56 139.5v340h92v-330q0 -116 125 -116q126 0 126 116v330h92z" />
    <glyph glyph-name="V.sc" unicode="&#xf776;" horiz-adv-x="482" 
d="M258 162l119 358h95l-174 -520h-113l-175 520h95l120 -358l12 -64h9q6 46 12 64z" />
    <glyph glyph-name="W.sc" unicode="&#xf777;" horiz-adv-x="780" 
d="M563 92q3 48 10 71l102 357h95l-151 -520h-115l-99 301l-11 55h-8q-5 -37 -11 -55l-98 -301h-116l-151 520h95l102 -357l12 -71h10q7 48 15 71l104 315h84l104 -315l16 -71h11z" />
    <glyph glyph-name="X.sc" unicode="&#xf778;" horiz-adv-x="470" 
d="M305 268l155 -268h-103l-105 183q-4 7 -7.5 16.5t-4.5 14.5l-2 6h-6q-4 -21 -14 -37l-105 -183h-103l155 268l-146 252h103l96 -169l14 -36h6q5 21 14 36l96 169h103z" />
    <glyph glyph-name="Y.sc" unicode="&#xf779;" horiz-adv-x="488" 
d="M248 272q4 27 15 47l113 201h102l-188 -331v-189h-92v189l-188 331h102l112 -200q5 -9 9 -21t5 -19l2 -8h8z" />
    <glyph glyph-name="Z.sc" unicode="&#xf77a;" horiz-adv-x="453" 
d="M431 74v-74h-409l238 402q6 10 14.5 20t13.5 15l6 5l-1 4h-239v74h375l-243 -409l-28 -34l1 -3h272z" />
    <glyph glyph-name="exclamdown.sc" unicode="&#xf7a1;" horiz-adv-x="245" 
d="M67 -110l30 268h52l29 -268q2 -31 -12 -43t-43 -12q-30 0 -45 12t-11 43zM63 317q0 28 17 44t43 16t43 -16t17 -44t-17 -44t-43 -16t-43 16t-17 44z" />
    <glyph glyph-name="questiondown.sc" unicode="&#xf7bf;" horiz-adv-x="360" 
d="M38 -38q0 46 20 72.5t66 49.5q40 20 51 30t12 26l2 18h65l6 -46q3 -20 -1 -34t-17 -25t-23 -16.5t-34 -17.5q-29 -14 -42 -26t-13 -30q0 -44 66 -44q59 0 100 17l25 -75q-61 -26 -131 -26q-72 0 -112 32.5t-40 94.5zM163 317q0 28 17 44t43 16t43 -16t17 -44t-17 -44
t-43 -16t-43 16t-17 44z" />
    <glyph glyph-name="Agrave.sc" unicode="&#xf7e0;" horiz-adv-x="512" 
d="M406 0l-45 121h-210l-45 -121h-96l194 520h104l194 -520h-96zM234 346l-56 -151h156l-56 151l-17 71h-10q0 -1 -2 -10.5t-4.5 -20t-5.5 -22.5t-5 -18zM116 672q0 14 10.5 23t28.5 9q35 0 57 -27l87 -112h-47l-116 74q-20 13 -20 33z" />
    <glyph glyph-name="Aacute.sc" unicode="&#xf7e1;" horiz-adv-x="512" 
d="M406 0l-45 121h-210l-45 -121h-96l194 520h104l194 -520h-96zM234 346l-56 -151h156l-56 151l-17 71h-10q0 -1 -2 -10.5t-4.5 -20t-5.5 -22.5t-5 -18zM424 672q0 -20 -20 -33l-116 -74h-47l87 112q22 27 57 27q18 0 28.5 -9t10.5 -23z" />
    <glyph glyph-name="Acircumflex.sc" unicode="&#xf7e2;" horiz-adv-x="512" 
d="M406 0l-45 121h-210l-45 -121h-96l194 520h104l194 -520h-96zM234 346l-56 -151h156l-56 151l-17 71h-10q0 -1 -2 -10.5t-4.5 -20t-5.5 -22.5t-5 -18zM271 703l123 -104l-22 -36l-112 60h-8l-110 -60l-24 36l123 104h30z" />
    <glyph glyph-name="Atilde.sc" unicode="&#xf7e3;" horiz-adv-x="512" 
d="M406 0l-45 121h-210l-45 -121h-96l194 520h104l194 -520h-96zM234 346l-56 -151h156l-56 151l-17 71h-10q0 -1 -2 -10.5t-4.5 -20t-5.5 -22.5t-5 -18zM369 685l38 -7q-11 -91 -85 -91q-16 0 -66 12.5t-67 12.5q-30 0 -44 -29l-37 8q12 90 85 90q16 0 65.5 -12.5
t66.5 -12.5q31 0 44 29z" />
    <glyph glyph-name="Adieresis.sc" unicode="&#xf7e4;" horiz-adv-x="512" 
d="M406 0l-45 121h-210l-45 -121h-96l194 520h104l194 -520h-96zM234 346l-56 -151h156l-56 151l-17 71h-10q0 -1 -2 -10.5t-4.5 -20t-5.5 -22.5t-5 -18zM101 656q0 28 17 44t43 16t43 -16t17 -44t-17 -44t-43 -16t-43 16t-17 44zM291 656q0 28 17 44t43 16t43 -16t17 -44
t-17 -44t-43 -16t-43 16t-17 44z" />
    <glyph glyph-name="Aring.sc" unicode="&#xf7e5;" horiz-adv-x="512" 
d="M406 0l-45 121h-210l-45 -121h-96l194 520h104l194 -520h-96zM234 346l-56 -151h156l-56 151l-17 71h-10q0 -1 -2 -10.5t-4.5 -20t-5.5 -22.5t-5 -18zM309 668q0 22 -15.5 38t-37.5 16t-37.5 -16t-15.5 -38t15.5 -37.5t37.5 -15.5t37.5 15.5t15.5 37.5zM363 668
q0 -44 -30.5 -73.5t-76.5 -29.5t-76.5 29.5t-30.5 73.5t30.5 74t76.5 30t76.5 -30t30.5 -74z" />
    <glyph glyph-name="AE.sc" unicode="&#xf7e6;" horiz-adv-x="702" 
d="M338 121h-172l-58 -121h-98l252 520h407v-74h-239v-134h151v-74h-151v-164h262v-74h-354v121zM279 356l-78 -161h137v157l2 91l-20 3q-32 -71 -41 -90z" />
    <glyph glyph-name="Ccedilla.sc" unicode="&#xf7e7;" horiz-adv-x="435" 
d="M398 95l22 -74q-65 -30 -131 -31l-8 -42h15q97 0 97 -78q0 -44 -26.5 -65t-87.5 -21q-21 0 -45 3t-38 7l-13 3l6 45q53 -8 79 -8q51 0 51 36q0 18 -11.5 26.5t-40.5 8.5h-54l18 88q-64 10 -99 37q-82 61 -82 230q0 163 79 224q60 46 152 46q60 0 121 -21l-23 -78
q-58 15 -90 15q-63 0 -101 -30q-45 -37 -45 -156q0 -122 49 -160q35 -26 97 -26q42 0 109 21z" />
    <glyph glyph-name="Egrave.sc" unicode="&#xf7e8;" horiz-adv-x="430" 
d="M420 74v-74h-354v520h331v-74h-239v-134h151v-74h-151v-164h262zM108 672q0 14 10.5 23t28.5 9q35 0 57 -27l87 -112h-47l-116 74q-20 13 -20 33z" />
    <glyph glyph-name="Eacute.sc" unicode="&#xf7e9;" horiz-adv-x="430" 
d="M420 74v-74h-354v520h331v-74h-239v-134h151v-74h-151v-164h262zM380 672q0 -20 -20 -33l-116 -74h-47l87 112q22 27 57 27q18 0 28.5 -9t10.5 -23z" />
    <glyph glyph-name="Ecircumflex.sc" unicode="&#xf7ea;" horiz-adv-x="430" 
d="M420 74v-74h-354v520h331v-74h-239v-134h151v-74h-151v-164h262zM253 705l123 -104l-22 -36l-112 60h-8l-110 -60l-24 36l123 104h30z" />
    <glyph glyph-name="Edieresis.sc" unicode="&#xf7eb;" horiz-adv-x="430" 
d="M420 74v-74h-354v520h331v-74h-239v-134h151v-74h-151v-164h262zM82 656q0 28 17 44t43 16t43 -16t17 -44t-17 -44t-43 -16t-43 16t-17 44zM272 656q0 28 17 44t43 16t43 -16t17 -44t-17 -44t-43 -16t-43 16t-17 44z" />
    <glyph glyph-name="Igrave.sc" unicode="&#xf7ec;" horiz-adv-x="224" 
d="M158 520v-520h-92v520h92zM-25 672q0 14 10.5 23t28.5 9q35 0 57 -27l87 -112h-47l-116 74q-20 13 -20 33z" />
    <glyph glyph-name="Iacute.sc" unicode="&#xf7ed;" horiz-adv-x="224" 
d="M158 520v-520h-92v520h92zM252 672q0 -20 -20 -33l-116 -74h-47l87 112q22 27 57 27q18 0 28.5 -9t10.5 -23z" />
    <glyph glyph-name="Icircumflex.sc" unicode="&#xf7ee;" horiz-adv-x="224" 
d="M158 520v-520h-92v520h92zM127 707l123 -104l-22 -36l-112 60h-8l-110 -60l-24 36l123 104h30z" />
    <glyph glyph-name="Idieresis.sc" unicode="&#xf7ef;" horiz-adv-x="224" 
d="M158 520v-520h-92v520h92zM-43 656q0 28 17 44t43 16t43 -16t17 -44t-17 -44t-43 -16t-43 16t-17 44zM147 656q0 28 17 44t43 16t43 -16t17 -44t-17 -44t-43 -16t-43 16t-17 44z" />
    <glyph glyph-name="Eth.sc" unicode="&#xf7f0;" horiz-adv-x="543" 
d="M0 226v74h66v220h185q114 0 174 -55q68 -62 68 -214q0 -146 -58 -201q-53 -50 -144 -50h-225v226h-66zM401 252q0 109 -40 148q-38 36 -115 36h-88v-136h103v-74h-103v-142h126q51 0 80 29q37 37 37 139z" />
    <glyph glyph-name="Ntilde.sc" unicode="&#xf7f1;" horiz-adv-x="607" 
d="M541 520v-520h-124l-232 365q-6 10 -12 23.5t-9 22.5l-3 9l-10 -3q7 -44 7 -72v-345h-92v520h124l233 -367q6 -9 11.5 -21.5t7.5 -20.5l2 -8l9 2q-4 39 -4 68v347h92zM437 683l38 -7q-11 -91 -85 -91q-16 0 -66 12.5t-67 12.5q-30 0 -44 -29l-37 8q12 90 85 90
q16 0 65.5 -12.5t66.5 -12.5q31 0 44 29z" />
    <glyph glyph-name="Ograve.sc" unicode="&#xf7f2;" horiz-adv-x="580" 
d="M437 259q0 119 -54 160q-36 27 -93 27t-93 -27q-54 -40 -54 -160q0 -118 52 -157q37 -28 95 -28q59 0 96 28q51 40 51 157zM530 259q0 -163 -80 -223q-61 -46 -160 -46t-160 46q-80 60 -80 223q0 162 78 222q66 49 162 49q97 0 163 -49q77 -58 77 -222zM147 672
q0 14 10.5 23t28.5 9q35 0 57 -27l87 -112h-47l-116 74q-20 13 -20 33z" />
    <glyph glyph-name="Oacute.sc" unicode="&#xf7f3;" horiz-adv-x="580" 
d="M437 259q0 119 -54 160q-36 27 -93 27t-93 -27q-54 -40 -54 -160q0 -118 52 -157q37 -28 95 -28q59 0 96 28q51 40 51 157zM530 259q0 -163 -80 -223q-61 -46 -160 -46t-160 46q-80 60 -80 223q0 162 78 222q66 49 162 49q97 0 163 -49q77 -58 77 -222zM455 672
q0 -20 -20 -33l-116 -74h-47l87 112q22 27 57 27q18 0 28.5 -9t10.5 -23z" />
    <glyph glyph-name="Ocircumflex.sc" unicode="&#xf7f4;" horiz-adv-x="580" 
d="M437 259q0 119 -54 160q-36 27 -93 27t-93 -27q-54 -40 -54 -160q0 -118 52 -157q37 -28 95 -28q59 0 96 28q51 40 51 157zM530 259q0 -163 -80 -223q-61 -46 -160 -46t-160 46q-80 60 -80 223q0 162 78 222q66 49 162 49q97 0 163 -49q77 -58 77 -222zM307 707l123 -104
l-22 -36l-112 60h-8l-110 -60l-24 36l123 104h30z" />
    <glyph glyph-name="Otilde.sc" unicode="&#xf7f5;" horiz-adv-x="580" 
d="M437 259q0 119 -54 160q-36 27 -93 27t-93 -27q-54 -40 -54 -160q0 -118 52 -157q37 -28 95 -28q59 0 96 28q51 40 51 157zM530 259q0 -163 -80 -223q-61 -46 -160 -46t-160 46q-80 60 -80 223q0 162 78 222q66 49 162 49q97 0 163 -49q77 -58 77 -222zM404 683l38 -7
q-11 -91 -85 -91q-16 0 -66 12.5t-67 12.5q-30 0 -44 -29l-37 8q12 90 85 90q16 0 65.5 -12.5t66.5 -12.5q31 0 44 29z" />
    <glyph glyph-name="Odieresis.sc" unicode="&#xf7f6;" horiz-adv-x="580" 
d="M437 259q0 119 -54 160q-36 27 -93 27t-93 -27q-54 -40 -54 -160q0 -118 52 -157q37 -28 95 -28q59 0 96 28q51 40 51 157zM530 259q0 -163 -80 -223q-61 -46 -160 -46t-160 46q-80 60 -80 223q0 162 78 222q66 49 162 49q97 0 163 -49q77 -58 77 -222zM135 656
q0 28 17 44t43 16t43 -16t17 -44t-17 -44t-43 -16t-43 16t-17 44zM325 656q0 28 17 44t43 16t43 -16t17 -44t-17 -44t-43 -16t-43 16t-17 44z" />
    <glyph glyph-name="AEacute.sc" unicode="&#xf7f7;" horiz-adv-x="702" 
d="M338 121h-172l-58 -121h-98l252 520h407v-74h-239v-134h151v-74h-151v-164h262v-74h-354v121zM279 356l-78 -161h137v157l2 91l-20 3q-32 -71 -41 -90zM616 672q0 -20 -20 -33l-116 -74h-47l87 112q22 27 57 27q18 0 28.5 -9t10.5 -23z" />
    <glyph glyph-name="Oslash.sc" unicode="&#xf7f8;" horiz-adv-x="580" 
d="M43 23l48 57q-41 66 -41 179q0 162 78 222q66 49 162 49q84 0 149 -40l42 50l52 -43l-46 -54q43 -68 43 -184q0 -163 -80 -223q-61 -46 -160 -46q-92 0 -152 40l-42 -50zM437 259q0 63 -16 105l-224 -264q39 -26 93 -26q59 0 96 28q51 40 51 157zM143 259q0 -63 14 -102
l223 264q-36 25 -90 25q-57 0 -93 -27q-54 -40 -54 -160z" />
    <glyph glyph-name="Ugrave.sc" unicode="&#xf7f9;" horiz-adv-x="555" 
d="M495 520v-340q0 -89 -56 -139.5t-162 -50.5q-105 0 -161 50.5t-56 139.5v340h92v-330q0 -116 125 -116q126 0 126 116v330h92zM141 672q0 14 10.5 23t28.5 9q35 0 57 -27l87 -112h-47l-116 74q-20 13 -20 33z" />
    <glyph glyph-name="Uacute.sc" unicode="&#xf7fa;" horiz-adv-x="555" 
d="M495 520v-340q0 -89 -56 -139.5t-162 -50.5q-105 0 -161 50.5t-56 139.5v340h92v-330q0 -116 125 -116q126 0 126 116v330h92zM439 672q0 -20 -20 -33l-116 -74h-47l87 112q22 27 57 27q18 0 28.5 -9t10.5 -23z" />
    <glyph glyph-name="Ucircumflex.sc" unicode="&#xf7fb;" horiz-adv-x="555" 
d="M495 520v-340q0 -89 -56 -139.5t-162 -50.5q-105 0 -161 50.5t-56 139.5v340h92v-330q0 -116 125 -116q126 0 126 116v330h92zM292 703l123 -104l-22 -36l-112 60h-8l-110 -60l-24 36l123 104h30z" />
    <glyph glyph-name="Udieresis.sc" unicode="&#xf7fc;" horiz-adv-x="555" 
d="M495 520v-340q0 -89 -56 -139.5t-162 -50.5q-105 0 -161 50.5t-56 139.5v340h92v-330q0 -116 125 -116q126 0 126 116v330h92zM122 656q0 28 17 44t43 16t43 -16t17 -44t-17 -44t-43 -16t-43 16t-17 44zM312 656q0 28 17 44t43 16t43 -16t17 -44t-17 -44t-43 -16t-43 16
t-17 44z" />
    <glyph glyph-name="Yacute.sc" unicode="&#xf7fd;" horiz-adv-x="488" 
d="M248 272q4 27 15 47l113 201h102l-188 -331v-189h-92v189l-188 331h102l112 -200q5 -9 9 -21t5 -19l2 -8h8zM410 672q0 -20 -20 -33l-116 -74h-47l87 112q22 27 57 27q18 0 28.5 -9t10.5 -23z" />
    <glyph glyph-name="Thorn.sc" unicode="&#xf7fe;" horiz-adv-x="469" 
d="M337 253q0 42 -22.5 63t-74.5 21h-82v-169h86q50 0 71.5 21t21.5 64zM429 254q0 -160 -172 -160h-99v-94h-92v520h92v-99h83q92 0 140 -43t48 -124z" />
    <glyph glyph-name="Ydieresis.sc" unicode="&#xf7ff;" horiz-adv-x="488" 
d="M248 272q4 27 15 47l113 201h102l-188 -331v-189h-92v189l-188 331h102l112 -200q5 -9 9 -21t5 -19l2 -8h8zM89 656q0 28 17 44t43 16t43 -16t17 -44t-17 -44t-43 -16t-43 16t-17 44zM279 656q0 28 17 44t43 16t43 -16t17 -44t-17 -44t-43 -16t-43 16t-17 44z" />
    <glyph glyph-name="s_t" unicode="&#xfb06;" horiz-adv-x="743" 
d="M275 487l2 5q-21 27 -21 72q0 66 51.5 106.5t134.5 40.5q175 0 175 -164v-67h101v-74h-101v-253q0 -51 20.5 -69.5t69.5 -18.5h15l-17 -75q-98 0 -139 33.5t-41 124.5v258h-67v74h67v62q0 47 -18.5 71t-70.5 24q-104 0 -104 -83q0 -57 65 -104l-29 -74q-69 30 -134 30
q-38 0 -60 -11.5t-27.5 -23.5t-5.5 -25q0 -42 55 -50l98 -15q136 -21 136 -138q-1 -63 -44 -108t-140 -45q-51 0 -105.5 18t-95.5 48l38 71q34 -22 78.5 -37.5t80.5 -15.5q51 0 73.5 19.5t22.5 48.5q0 48 -64 57l-105 15q-120 17 -120 126q0 69 51.5 109.5t133.5 40.5
q20 0 41 -3z" />
    <glyph glyph-name="c_t" unicode="&#xfb1e;" horiz-adv-x="715" 
d="M361 94l24 -70q-22 -14 -61 -24t-75 -10q-100 0 -150 50q-51 51 -51 200t54 201q51 49 144 49h2l1 3q-21 27 -21 69q0 66 51.5 107.5t134.5 41.5q175 0 175 -164v-67h101v-74h-101v-253q0 -51 20.5 -69.5t69.5 -18.5h15l-17 -75q-98 0 -139 33.5t-41 124.5v258h-67v74h67
v62q0 46 -19 70.5t-70 24.5q-50 0 -77 -21t-27 -61q0 -56 73 -95l-25 -72q-48 18 -98 18q-58 0 -83 -26q-29 -31 -29 -129q0 -115 26 -147q23 -30 89 -30q44 0 104 20z" />
    <glyph glyph-name="Adblgrave.sc" unicode="&#xfff0;" horiz-adv-x="512" 
d="M406 0l-45 121h-210l-45 -121h-96l194 520h104l194 -520h-96zM234 346l-56 -151h156l-56 151l-17 71h-10q0 -1 -2 -10.5t-4.5 -20t-5.5 -22.5t-5 -18zM189 672q0 14 10 23t27 9q34 0 59 -34l79 -105h-40l-100 62q-35 22 -35 45zM41 672q0 14 10 23t27 9q34 0 59 -34
l79 -105h-40l-100 62q-35 22 -35 45z" />
    <glyph glyph-name="Ainvertedbreve.sc" unicode="&#xfff1;" horiz-adv-x="512" 
d="M406 0l-45 121h-210l-45 -121h-96l194 520h104l194 -520h-96zM234 346l-56 -151h156l-56 151l-17 71h-10q0 -1 -2 -10.5t-4.5 -20t-5.5 -22.5t-5 -18zM172 565h-47q0 62 34.5 100.5t96.5 38.5t96.5 -38.5t34.5 -100.5h-47q-2 27 -23.5 48.5t-60.5 21.5t-60.5 -21.5
t-23.5 -48.5z" />
    <glyph glyph-name="Edblgrave.sc" unicode="&#xfff2;" horiz-adv-x="430" 
d="M420 74v-74h-354v520h331v-74h-239v-134h151v-74h-151v-164h262zM162 672q0 14 10 23t27 9q33 0 59 -34l79 -105h-40l-100 62q-35 22 -35 45zM14 672q0 14 10 23t27 9q33 0 59 -34l79 -105h-40l-100 62q-35 22 -35 45z" />
    <glyph glyph-name="Einvertedbreve.sc" unicode="&#xfff3;" horiz-adv-x="430" 
d="M420 74v-74h-354v520h331v-74h-239v-134h151v-74h-151v-164h262zM149 562h-47q0 62 34.5 100.5t96.5 38.5t96.5 -38.5t34.5 -100.5h-47q-2 27 -23.5 48.5t-60.5 21.5t-60.5 -21.5t-23.5 -48.5z" />
    <glyph glyph-name="Idblgrave.sc" unicode="&#xfff4;" horiz-adv-x="224" 
d="M158 520v-520h-92v520h92zM30 672q0 14 10 23t27 9q33 0 59 -34l79 -105h-40l-100 62q-35 22 -35 45zM-118 672q0 14 10 23t27 9q33 0 59 -34l79 -105h-40l-100 62q-35 22 -35 45z" />
    <glyph glyph-name="Iinvertedbreve.sc" unicode="&#xfff5;" horiz-adv-x="224" 
d="M158 520v-520h-92v520h92zM28 565h-47q0 62 34.5 100.5t96.5 38.5t96.5 -38.5t34.5 -100.5h-47q-2 27 -23.5 48.5t-60.5 21.5t-60.5 -21.5t-23.5 -48.5z" />
    <glyph glyph-name="Odblgrave.sc" unicode="&#xfff6;" horiz-adv-x="580" 
d="M437 259q0 119 -54 160q-36 27 -93 27t-93 -27q-54 -40 -54 -160q0 -118 52 -157q37 -28 95 -28q59 0 96 28q51 40 51 157zM530 259q0 -163 -80 -223q-61 -46 -160 -46t-160 46q-80 60 -80 223q0 162 78 222q66 49 162 49q97 0 163 -49q77 -58 77 -222zM229 672
q0 14 10 23t27 9q34 0 59 -34l79 -105h-40l-100 62q-35 22 -35 45zM81 672q0 14 10 23t27 9q34 0 59 -34l79 -105h-40l-100 62q-35 22 -35 45z" />
    <glyph glyph-name="Oinvertedbreve.sc" unicode="&#xfff7;" horiz-adv-x="580" 
d="M437 259q0 119 -54 160q-36 27 -93 27t-93 -27q-54 -40 -54 -160q0 -118 52 -157q37 -28 95 -28q59 0 96 28q51 40 51 157zM530 259q0 -163 -80 -223q-61 -46 -160 -46t-160 46q-80 60 -80 223q0 162 78 222q66 49 162 49q97 0 163 -49q77 -58 77 -222zM206 565h-47
q0 62 34.5 100.5t96.5 38.5t96.5 -38.5t34.5 -100.5h-47q-2 27 -23.5 48.5t-60.5 21.5t-60.5 -21.5t-23.5 -48.5z" />
    <glyph glyph-name="Rdblgrave.sc" unicode="&#xfff8;" horiz-adv-x="480" 
d="M157 672q0 14 10 23t27 9q34 0 59 -34l79 -105h-40l-100 62q-35 22 -35 45zM9 672q0 14 10 23t27 9q34 0 59 -34l79 -105h-40l-100 62q-35 22 -35 45zM339 357q0 41 -23 60t-76 19h-82v-159h82q53 0 76 17.5t23 62.5zM361 0l-152 203h-51v-203h-92v520h175
q190 0 190 -162q0 -126 -114 -150v-3l153 -205h-109z" />
    <glyph glyph-name="Rinvertedbreve.sc" unicode="&#xfff9;" horiz-adv-x="480" 
d="M339 357q0 41 -23 60t-76 19h-82v-159h82q53 0 76 17.5t23 62.5zM361 0l-152 203h-51v-203h-92v520h175q190 0 190 -162q0 -126 -114 -150v-3l153 -205h-109zM156 566h-47q0 62 34.5 100.5t96.5 38.5t96.5 -38.5t34.5 -100.5h-47q-2 27 -23.5 48.5t-60.5 21.5
t-60.5 -21.5t-23.5 -48.5z" />
    <glyph glyph-name="Udblgrave.sc" unicode="&#xfffa;" horiz-adv-x="555" 
d="M495 520v-340q0 -89 -56 -139.5t-162 -50.5q-105 0 -161 50.5t-56 139.5v340h92v-330q0 -116 125 -116q126 0 126 116v330h92zM216 672q0 14 10 23t27 9q33 0 59 -34l79 -105h-40l-100 62q-35 22 -35 45zM68 672q0 14 10 23t27 9q33 0 59 -34l79 -105h-40l-100 62
q-35 22 -35 45z" />
    <glyph glyph-name="Uinvertedbreve.sc" unicode="&#xfffb;" horiz-adv-x="555" 
d="M495 520v-340q0 -89 -56 -139.5t-162 -50.5q-105 0 -161 50.5t-56 139.5v340h92v-330q0 -116 125 -116q126 0 126 116v330h92zM203 565h-47q0 62 34.5 100.5t96.5 38.5t96.5 -38.5t34.5 -100.5h-47q-2 27 -23.5 48.5t-60.5 21.5t-60.5 -21.5t-23.5 -48.5z" />
    </font>
</defs>
</svg>
