<?xml version="1.0" standalone="no"?>
<!DOCTYPE svg PUBLIC "-//W3C//DTD SVG 1.1//EN" "http://www.w3.org/Graphics/SVG/1.1/DTD/svg11.dtd" >
<svg xmlns="http://www.w3.org/2000/svg" xmlns:xlink="http://www.w3.org/1999/xlink" version="1.1">
<metadata>
Created by FontForge 20170731 at Wed Dec 10 15:24:23 2008
 By Aleksey,,,
Copyright (c) 2008 by TypeTogether. All rights reserved.
</metadata>
<defs>
<font id="Bree-ExtraBold" horiz-adv-x="535" >
  <font-face 
    font-family="Bree EB"
    font-weight="800"
    font-stretch="normal"
    units-per-em="1000"
    panose-1="2 0 5 6 0 0 0 2 0 4"
    ascent="720"
    descent="-280"
    x-height="517"
    cap-height="665"
    bbox="-113 -294 1000 948"
    underline-thickness="50"
    underline-position="-200"
    unicode-range="U+000D-FB04"
  />
<missing-glyph horiz-adv-x="500" 
 />
    <glyph glyph-name="ff" unicode="ff" horiz-adv-x="656" 
d="M246 360v-570h-201v745q0 35 3 61t15 55.5t32 48.5t57.5 32t88.5 13q69 0 146 -35q48 35 136 35q38 0 87 -13.5t86 -33.5l-44 -127q-53 28 -89 28q-17 0 -26.5 -8.5t-9.5 -32.5v-41h130v-157h-130v-570h-202v570h-79zM246 558v-41h79v18q0 18 2 54q-29 10 -46 10
q-35 0 -35 -41z" />
    <glyph glyph-name="fi" unicode="fi" horiz-adv-x="556" 
d="M246 360v-570h-201v745q0 34 3.5 60.5t15.5 56t33 49t58.5 32t88.5 12.5q54 0 111.5 -16.5t94.5 -36.5l-43 -127q-24 14 -59.5 24t-53.5 10q-48 0 -48 -41v-41h274v-517h-203v360h-71z" />
    <glyph glyph-name="fl" unicode="fl" horiz-adv-x="646" 
d="M246 360v-570h-201v745q0 210 212 210q137 0 268 -46v-506q0 -51 34 -51q23 0 56 15l43 -132q-56 -41 -155 -41q-49 0 -83.5 12.5t-53 30.5t-28.5 47.5t-12.5 54t-2.5 60.5v171h-77zM246 558v-41h77v74q-24 8 -42 8q-35 0 -35 -41z" />
    <glyph glyph-name="ffi" unicode="ffi" horiz-adv-x="834" 
d="M524 360v-570h-201v570h-77v-570h-201v745q0 35 3 61t15 55.5t32 48.5t57.5 32t88.5 13q71 0 146 -36q47 36 135 36q54 0 111.5 -16.5t94.5 -36.5l-43 -127q-24 14 -59.5 24t-53.5 10q-48 0 -48 -41v-41h274v-517h-203v360h-71zM246 558v-41h77v18q0 9 0.5 27t0.5 27
q-26 10 -43 10q-35 0 -35 -41z" />
    <glyph glyph-name="ffl" unicode="ffl" horiz-adv-x="927" 
d="M527 360v-570h-202v570h-79v-570h-201v745q0 35 3 61t15 55.5t32 48.5t57.5 32t88.5 13q71 0 146 -36q57 36 150 36q118 0 268 -46v-506q0 -51 35 -51q20 0 55 16l43 -133q-56 -41 -155 -41q-49 0 -83.5 12.5t-53 30t-28.5 47t-12.5 54t-2.5 60.5v172h-76zM325 517v18
q0 36 2 54q-29 10 -46 10q-21 0 -28 -12.5t-7 -51.5v-18h79zM527 558v-41h76v74q-24 8 -42 8q-34 0 -34 -41z" />
    <glyph glyph-name="tt" unicode="tt" horiz-adv-x="677" 
d="M332 695h203v-178h119v-156h-119v-160q0 -66 55 -66q21 0 46 14l42 -128q-59 -37 -149 -37q-95 0 -142 36q-65 -36 -152 -36q-52 0 -89 12.5t-57 31t-30.5 48.5t-13 54.5t-2.5 60.5v504h203v-178h86v178zM298 135q20 0 35 7q-1 16 -1 49v170h-86v-164q0 -36 12.5 -49
t39.5 -13z" />
    <glyph glyph-name=".notdef" horiz-adv-x="500" 
 />
    <glyph glyph-name=".null" horiz-adv-x="0" 
 />
    <glyph glyph-name=".null" horiz-adv-x="0" 
 />
    <glyph glyph-name="nonmarkingreturn" horiz-adv-x="333" 
 />
    <glyph glyph-name="CR" unicode="&#xd;" horiz-adv-x="220" 
 />
    <glyph glyph-name="space" unicode=" " horiz-adv-x="190" 
 />
    <glyph glyph-name="exclam" unicode="!" horiz-adv-x="269" 
d="M50 529v97q0 31 21 50t64 19t64.5 -20t21.5 -51v-95l-27 -330h-116zM38 72q0 35 26 61t68 26q45 0 70 -24.5t25 -63.5q0 -36 -25 -62t-68 -26q-46 0 -71 25.5t-25 63.5z" />
    <glyph glyph-name="quotedbl" unicode="&#x22;" horiz-adv-x="347" 
d="M37 665h125l-11 -241h-104zM184 665h126l-11 -241h-105z" />
    <glyph glyph-name="numbersign" unicode="#" horiz-adv-x="525" 
d="M275 0l12 149h-83l-13 -149h-96l13 149h-79v88h86l12 129h-79v89h86l14 150h96l-14 -150h84l14 150h95l-14 -150h84v-89h-91l-11 -129h83v-88h-91l-13 -149h-95zM223 366l-12 -129h84l11 129h-83z" />
    <glyph glyph-name="dollar" unicode="$" 
d="M13 67l63 155q37 -24 92.5 -44t88.5 -20q45 0 45 32q0 20 -14.5 29t-55.5 22q-7 2 -10 3q-33 10 -51 16.5t-47 23t-44 35t-27.5 51t-12.5 72.5q0 75 41.5 125t113.5 69v111h162v-112q97 -23 161 -90l-100 -122q-83 62 -138 62q-17 0 -29.5 -8.5t-12.5 -23.5
q0 -20 19 -31.5t64 -26.5q29 -10 44 -16t40.5 -18t39.5 -25.5t29.5 -33t22 -45.5t6.5 -58q0 -72 -39 -121t-107 -70v-116h-162v108q-53 8 -103 27t-79 40z" />
    <glyph glyph-name="percent" unicode="%" horiz-adv-x="832" 
d="M635 346q75 0 118.5 -45t43.5 -135q0 -184 -168 -184q-160 0 -160 182q0 93 45.5 137.5t120.5 44.5zM630 70q17 0 25.5 19.5t8.5 74.5q0 54 -7.5 73t-23.5 19q-17 0 -24.5 -19.5t-7.5 -77.5q0 -50 7 -69.5t22 -19.5zM201 657q75 0 118.5 -45t43.5 -135q0 -184 -168 -184
q-160 0 -160 182q0 93 45.5 137.5t120.5 44.5zM196 381q17 0 25.5 19.5t8.5 74.5q0 54 -7.5 73t-23.5 19q-17 0 -24.5 -19.5t-7.5 -77.5q0 -50 7 -69.5t22 -19.5zM330 -19l-120 52l292 625l122 -50z" />
    <glyph glyph-name="ampersand" unicode="&#x26;" horiz-adv-x="832" 
d="M621 634l170 -49q-57 -191 -201 -281h195v-141h-98q-94 -180 -321 -180q-161 0 -240 82.5t-79 210.5q0 123 69.5 207.5t202.5 84.5q77 0 121.5 -36t44.5 -97q0 -32 -12 -57q94 64 148 256zM379 136q53 0 98 33.5t51 97.5q-60 -30 -123.5 -40t-157.5 -8q25 -83 132 -83z
M297 427q-25 0 -41.5 -26t-17.5 -73q40 3 64 22t24 47q0 30 -29 30z" />
    <glyph glyph-name="quotesingle" unicode="'" horiz-adv-x="199" 
d="M37 665h125l-11 -241h-104z" />
    <glyph glyph-name="parenleft" unicode="(" horiz-adv-x="342" 
d="M34 256q0 125 39.5 255.5t109.5 242.5l156 -67q-104 -208 -104 -416q0 -108 26 -203.5t81 -203.5l-154 -78q-154 229 -154 470z" />
    <glyph glyph-name="parenright" unicode=")" horiz-adv-x="342" 
d="M308 256q0 -241 -154 -470l-154 78q55 108 81 203.5t26 203.5q0 208 -104 416l156 67q70 -112 109.5 -242.5t39.5 -255.5z" />
    <glyph glyph-name="asterisk" unicode="*" horiz-adv-x="444" 
d="M250 555l-3 8q17 34 41.5 57.5t46.5 30.5q67 21 84 -33q19 -60 -48 -79q-52 -19 -121 16zM235 530l7 5q76 -11 111 -56q41 -58 -6 -91q-50 -36 -90 21q-33 45 -22 121zM204 535l7 -5q13 -77 -19 -123q-43 -56 -89 -22q-49 36 -7 92q31 45 108 58zM199 563l-3 -8
q-69 -36 -122 -20q-67 23 -49 78q19 58 86 35q21 -7 45.5 -29t42.5 -56zM228 581h-9q-56 56 -56 110q0 71 59 71q60 0 60 -71q0 -56 -54 -110z" />
    <glyph glyph-name="plus" unicode="+" 
d="M186 387v137h163v-137h121v-161h-121v-133h-163v133h-121v161h121z" />
    <glyph glyph-name="comma" unicode="," horiz-adv-x="254" 
d="M238 76l-126 -271l-106 35q21 195 39 244q17 55 72 55q32 0 67 -21t54 -42z" />
    <glyph glyph-name="hyphen" unicode="-" horiz-adv-x="322" 
d="M30 207v146h262v-146h-262z" />
    <glyph glyph-name="period" unicode="." horiz-adv-x="241" 
d="M28 70q0 38 24 62.5t67 24.5q46 0 70 -23t24 -63q0 -39 -23.5 -64t-67.5 -25q-46 0 -70 24.5t-24 63.5z" />
    <glyph glyph-name="slash" unicode="/" horiz-adv-x="485" 
d="M191 -126l-170 61l282 842l172 -59z" />
    <glyph glyph-name="zero" unicode="0" 
d="M271 657q119 0 183.5 -81t64.5 -248q0 -176 -65 -256.5t-189 -80.5q-127 0 -188 82t-61 253q0 168 68.5 249.5t186.5 81.5zM267 150q52 0 52 176q0 168 -50 168q-26 0 -38.5 -39.5t-12.5 -139.5q0 -165 49 -165z" />
    <glyph glyph-name="one" unicode="1" horiz-adv-x="518" 
d="M81 151h102v272l-85 -42l-74 133l211 130h164l-13 -143v-350h99v-151h-404v151z" />
    <glyph glyph-name="two" unicode="2" horiz-adv-x="526" 
d="M120 406l-109 134q119 117 257 117q107 0 163 -54.5t56 -144.5q0 -101 -88 -195l-94 -101h197v-162h-483v118l200 222q29 31 41 51t12 43q0 40 -36 40q-43 0 -116 -68z" />
    <glyph glyph-name="three" unicode="3" horiz-adv-x="517" 
d="M110 432l-93 128q21 18 52 37t92.5 39.5t123.5 20.5q88 0 140.5 -44.5t52.5 -114.5q0 -86 -77 -140q85 -83 85 -167t-61 -142t-181 -58q-122 0 -225 55l53 159q35 -19 84 -31.5t76 -12.5q51 0 51 27q0 16 -25 66q-57 -16 -109 -24l-45 140q80 15 124.5 33.5t44.5 47.5
q0 32 -35 32q-38 0 -128 -51z" />
    <glyph glyph-name="four" unicode="4" horiz-adv-x="571" 
d="M353 426h115v-140h77v-158h-78v-128h-202v131h-231v126l188 410l160 -79l-138 -302h45z" />
    <glyph glyph-name="five" unicode="5" horiz-adv-x="534" 
d="M75 278l44 366h363v-165h-202l-9 -80q96 -11 155.5 -59t59.5 -138q0 -84 -64 -147.5t-185 -63.5q-115 0 -223 53l56 158q92 -46 153 -46q53 0 53 48q0 74 -201 74z" />
    <glyph glyph-name="six" unicode="6" horiz-adv-x="534" 
d="M393 678l39 -149q-163 -21 -192 -128q36 19 91 19q83 0 127 -51t44 -145q0 -111 -59 -172t-175 -61q-120 0 -178 75.5t-58 214.5q0 53 9 102t34 101.5t64 92t104 67.5t150 34zM307 214q0 71 -35 71q-24 0 -44 -10q1 -73 9.5 -102.5t30.5 -29.5q39 0 39 71z" />
    <glyph glyph-name="seven" unicode="7" horiz-adv-x="509" 
d="M19 479v165h475v-130q-41 -32 -73.5 -72t-52 -73t-33.5 -78t-20 -68.5t-9 -66t-3 -48v-35.5v-73h-213v81q0 48 3.5 84.5t16 92.5t43.5 112.5t80 108.5h-214z" />
    <glyph glyph-name="eight" unicode="8" horiz-adv-x="541" 
d="M26 171q0 89 92 166q-75 58 -75 137q0 82 62 132.5t171 50.5q108 0 159 -45t51 -116q0 -70 -71 -143q100 -75 100 -169q0 -84 -64 -138.5t-190 -54.5q-68 0 -116.5 16t-73 43.5t-35 57t-10.5 63.5zM302 175q0 16 -8.5 30.5t-19 24.5t-29.5 26q-32 -41 -32 -75
q0 -20 11.5 -34.5t33.5 -14.5q21 0 32.5 12t11.5 31zM270 527q-13 0 -25 -9.5t-12 -28.5q0 -29 44 -63q33 33 33 63q0 38 -40 38z" />
    <glyph glyph-name="nine" unicode="9" 
d="M138 -14l-40 149q84 11 131.5 34.5t63.5 80.5q-42 -21 -94 -21q-83 0 -126.5 50.5t-43.5 144.5q0 110 61.5 171.5t177.5 61.5q231 0 231 -289q0 -54 -8 -101.5t-32 -99t-62.5 -88.5t-105 -63t-153.5 -30zM224 434q0 -71 35 -71q24 0 44 10q-1 72 -9.5 102t-30.5 30
q-39 0 -39 -71z" />
    <glyph glyph-name="colon" unicode=":" horiz-adv-x="241" 
d="M28 70q0 38 24 62.5t67 24.5q46 0 70 -23t24 -63q0 -39 -23.5 -64t-67.5 -25q-46 0 -70 24.5t-24 63.5zM28 430q0 38 24 62.5t67 24.5q46 0 70 -23t24 -63q0 -39 -23.5 -64t-67.5 -25q-46 0 -70 24.5t-24 63.5z" />
    <glyph glyph-name="semicolon" unicode=";" horiz-adv-x="254" 
d="M238 76l-126 -271l-106 35q21 195 39 244q17 55 72 55q32 0 67 -21t54 -42zM51 430q0 38 24 62.5t67 24.5q46 0 70 -23t24 -63q0 -39 -23.5 -64t-67.5 -25q-46 0 -70 24.5t-24 63.5z" />
    <glyph glyph-name="less" unicode="&#x3c;" 
d="M435 569l68 -147l-219 -100l220 -112l-69 -150l-382 201v112z" />
    <glyph glyph-name="equal" unicode="=" 
d="M470 491v-160h-405v160h405zM470 264v-160h-405v160h405z" />
    <glyph glyph-name="greater" unicode="&#x3e;" 
d="M38 422l68 147l382 -196v-112l-382 -201l-69 150l220 112z" />
    <glyph glyph-name="question" unicode="?" horiz-adv-x="416" 
d="M195 512q0 41 -49 41q-16 0 -60 -11l-20 -6l-25 133q61 26 144 26q49 0 87 -13t58 -31t33 -42t16.5 -42t3.5 -35q0 -70 -35 -112.5t-109 -88.5q-21 -14 -29 -30.5t-8 -48.5v-60h-144q-10 80 -10 114q0 32 6.5 54.5t24.5 39.5t28 23.5t38 22.5q27 15 38.5 29t11.5 37z
M38 72q0 35 26 61t68 26q45 0 70 -24.5t25 -63.5q0 -36 -25 -62t-68 -26q-46 0 -71 25.5t-25 63.5z" />
    <glyph glyph-name="at" unicode="@" horiz-adv-x="948" 
d="M757 272q0 123 -65 188.5t-196 65.5q-149 0 -224 -84.5t-75 -219.5q0 -130 64.5 -216t184.5 -86q70 0 128 23l35 -109q-72 -29 -166 -29q-98 0 -174.5 35.5t-121 95.5t-67 131.5t-22.5 150.5q0 197 126 313t312 116q171 0 282.5 -93.5t111.5 -269.5q0 -133 -67 -208.5
t-174 -75.5h-99l-9 47l-5 1q-31 -47 -94 -47q-149 0 -149 196q0 105 56 168.5t161 63.5q74 0 160 -34v-287q37 0 62 41.5t25 122.5zM513 163v156q-8 2 -13 2q-27 0 -39.5 -31.5t-12.5 -78.5q0 -97 39 -97q26 0 26 49z" />
    <glyph glyph-name="A" unicode="A" horiz-adv-x="662" 
d="M199 0h-202l212 665h229l227 -665h-220l-35 118h-175zM319 470l-51 -202h109l-52 202h-6z" />
    <glyph glyph-name="B" unicode="B" horiz-adv-x="602" 
d="M46 665h275q231 0 231 -174q0 -74 -63 -133q96 -50 96 -150q0 -101 -73 -154.5t-209 -53.5h-257v665zM254 266v-110h43q67 0 67 58q0 52 -63 52h-47zM254 515v-105h30q28 0 42.5 15.5t14.5 38.5q0 51 -51 51h-36z" />
    <glyph glyph-name="C" unicode="C" horiz-adv-x="595" 
d="M354 157q60 0 128 63l104 -134q-58 -52 -115 -75t-129 -23q-146 0 -230.5 87.5t-84.5 249.5q0 95 27 166t73.5 110t100 57.5t114.5 18.5q172 0 256 -148l-145 -104q-57 80 -116 80q-44 0 -70.5 -42.5t-26.5 -125.5q0 -180 114 -180z" />
    <glyph glyph-name="D" unicode="D" horiz-adv-x="648" 
d="M46 0v665h245q158 0 244 -77t86 -234q0 -93 -26.5 -163.5t-73 -111t-103.5 -60t-124 -19.5h-248zM254 504v-344h42q56 0 86.5 44.5t30.5 133.5q0 166 -127 166h-32z" />
    <glyph glyph-name="E" unicode="E" horiz-adv-x="541" 
d="M46 0v665h459v-182h-251v-54h215v-180h-215v-67h258v-182h-466z" />
    <glyph glyph-name="F" unicode="F" horiz-adv-x="554" 
d="M46 665h482v-182h-274v-64h227v-182h-227v-237h-208v665z" />
    <glyph glyph-name="G" unicode="G" horiz-adv-x="639" 
d="M601 338v-279q-43 -32 -112 -51.5t-146 -19.5q-148 0 -232 87t-84 256q0 93 27.5 162.5t74.5 108t100 57t112 18.5q181 0 263 -142l-150 -107q-56 76 -115 76q-46 0 -72.5 -40.5t-26.5 -121.5q0 -188 110 -188q29 0 61 8v176h190z" />
    <glyph glyph-name="H" unicode="H" horiz-adv-x="667" 
d="M411 665h210v-665h-210v237h-157v-237h-208v665h208v-246h157v246z" />
    <glyph glyph-name="I" unicode="I" horiz-adv-x="310" 
d="M259 0h-208v665h208v-665z" />
    <glyph glyph-name="J" unicode="J" horiz-adv-x="453" 
d="M-2 34l54 154q50 -26 91 -26q61 0 61 69v434h208v-449q0 -62 -9 -92q-17 -62 -76 -99t-136 -37q-108 0 -193 46z" />
    <glyph glyph-name="K" unicode="K" horiz-adv-x="608" 
d="M610 665l-187 -289l197 -376h-236l-99 211l-32 -48v-163h-207v665h207v-210h3l128 210h226z" />
    <glyph glyph-name="L" unicode="L" horiz-adv-x="526" 
d="M46 0v665h208v-482h253v-183h-461z" />
    <glyph glyph-name="M" unicode="M" horiz-adv-x="781" 
d="M394 337l115 328h208l34 -665h-197l-15 267h-5l-72 -205h-142l-74 199h-4l-16 -261h-196l38 665h210l111 -328h5z" />
    <glyph glyph-name="N" unicode="N" horiz-adv-x="661" 
d="M409 665h206v-665h-177l-183 297h-4v-297h-205v665h184l176 -290h3v290z" />
    <glyph glyph-name="O" unicode="O" horiz-adv-x="668" 
d="M641 331q0 -166 -84 -254.5t-227 -88.5q-145 0 -224 87.5t-79 255.5q0 92 28 161.5t75.5 108t101.5 57.5t113 19q62 0 113.5 -19t93.5 -58.5t65.5 -108t23.5 -160.5zM240 340q0 -182 97 -182q92 0 92 170q0 31 -4 58.5t-13.5 56t-30 45.5t-49.5 17q-48 0 -70 -47
t-22 -118z" />
    <glyph glyph-name="P" unicode="P" horiz-adv-x="575" 
d="M254 211v-211h-208v665h255q124 0 193.5 -56t69.5 -160q0 -115 -77.5 -176.5t-205.5 -61.5h-27zM254 372h16q41 0 60.5 14t19.5 52q0 65 -57 65h-39v-131z" />
    <glyph glyph-name="Q" unicode="Q" horiz-adv-x="678" 
d="M338 377l-31 -103q-25 -4 -55 -4q-94 0 -153.5 48t-59.5 131q0 105 77 166.5t194 61.5q135 0 222.5 -79t87.5 -239q0 -132 -65 -247q60 -57 118.5 -94.5t123.5 -46.5l-39 -154q-79 10 -167.5 61.5t-143.5 116.5q-90 -72 -199 -72q-106 0 -155.5 46.5t-49.5 115.5
q0 68 51 114t147 46q82 0 145 -36q22 64 22 136q0 68 -26 115.5t-77 47.5q-31 0 -49.5 -16.5t-18.5 -45.5q0 -35 26.5 -50t74.5 -19zM326 97q-11 8 -35 16.5t-40 8.5q-17 0 -26.5 -9.5t-9.5 -22.5q0 -32 39 -32q18 0 39.5 11.5t32.5 27.5z" />
    <glyph glyph-name="R" unicode="R" horiz-adv-x="616" 
d="M254 245v-245h-208v665h248q129 0 199 -44t70 -148q0 -54 -28.5 -99t-71.5 -65q25 -14 46 -60l110 -249h-224l-87 218q-12 27 -45 27h-9zM254 389h40q27 0 42 16t15 45t-14 41.5t-45 12.5h-38v-115z" />
    <glyph glyph-name="S" unicode="S" horiz-adv-x="549" 
d="M0 60l68 170q39 -24 98 -43.5t94 -19.5q42 0 42 33q0 18 -18 28.5t-63 23.5q-38 11 -66 23.5t-60 36t-49 60.5t-17 86q0 104 71 161.5t182 57.5q73 0 140.5 -27t115.5 -76l-107 -136q-93 65 -147 65q-38 0 -38 -29q0 -19 21 -31t69 -27q33 -11 55 -20t50 -26.5
t44.5 -37.5t28.5 -52t12 -71q0 -105 -74 -163t-192 -58q-70 0 -145 22.5t-115 49.5z" />
    <glyph glyph-name="T" unicode="T" horiz-adv-x="581" 
d="M14 665h553v-182h-176v-483h-208v483h-169v182z" />
    <glyph glyph-name="U" unicode="U" horiz-adv-x="629" 
d="M41 665h207v-427q0 -77 69 -77q29 0 46.5 18.5t17.5 53.5v432h207v-453q0 -103 -76 -163.5t-199 -60.5q-137 0 -204.5 57.5t-67.5 179.5v440z" />
    <glyph glyph-name="V" unicode="V" horiz-adv-x="642" 
d="M426 0h-214l-214 665h208l115 -426h4l119 426h200z" />
    <glyph glyph-name="W" unicode="W" horiz-adv-x="823" 
d="M487 0l-62 306h-6l-66 -306h-216l-137 665h208l59 -370h3l57 322h197l48 -304h5l39 352h207l-125 -665h-211z" />
    <glyph glyph-name="X" unicode="X" horiz-adv-x="680" 
d="M451 665h231l-216 -317l225 -348h-238l-109 180l-113 -180h-243l234 347l-208 318h238l97 -164z" />
    <glyph glyph-name="Y" unicode="Y" horiz-adv-x="625" 
d="M419 665h216l-224 -408v-257h-208v256l-213 409h227l93 -217h4z" />
    <glyph glyph-name="Z" unicode="Z" horiz-adv-x="539" 
d="M515 552l-253 -394h263v-158h-507v122l246 386h-242v157h493v-113z" />
    <glyph glyph-name="bracketleft" unicode="[" horiz-adv-x="306" 
d="M44 -189v926h258v-123h-76v-680h76v-123h-258z" />
    <glyph glyph-name="backslash" unicode="\" horiz-adv-x="485" 
d="M20 715l169 61l284 -844l-171 -59z" />
    <glyph glyph-name="bracketright" unicode="]" horiz-adv-x="306" 
d="M262 737v-926h-258v123h76v680h-76v123h258z" />
    <glyph glyph-name="asciicircum" unicode="^" horiz-adv-x="590" 
d="M552 291l-162 -24l-91 209l-90 -208l-161 23l192 403h121z" />
    <glyph glyph-name="underscore" unicode="_" horiz-adv-x="500" 
d="M0 -176v102h500v-102h-500z" />
    <glyph glyph-name="grave" unicode="`" horiz-adv-x="500" 
d="M235 825l131 -215l-55 -46q-23 13 -67 45.5t-75 62.5q-37 37 -37 64q0 34 32 56.5t71 32.5z" />
    <glyph glyph-name="a" unicode="a" horiz-adv-x="546" 
d="M503 490v-374l13 -116h-169l-9 42l-6 1q-40 -60 -116 -60q-196 0 -196 253q0 135 72 216t207 81q95 0 204 -43zM304 162v228q-12 4 -25 4q-31 0 -45.5 -40.5t-14.5 -100.5q0 -126 50 -126q15 0 25 10.5t10 24.5z" />
    <glyph glyph-name="b" unicode="b" horiz-adv-x="540" 
d="M41 24v671h202v-178q43 16 87 16q92 0 143.5 -63t51.5 -191q0 -145 -68.5 -220t-198.5 -75q-57 0 -119 12t-98 28zM243 364v-239q12 -3 26 -3q16 0 27 8t16.5 18t8.5 30.5t3.5 35t0.5 40.5q0 69 -11.5 103.5t-43.5 34.5q-27 0 -27 -28z" />
    <glyph glyph-name="c" unicode="c" horiz-adv-x="478" 
d="M304 140q40 0 98 38l69 -136q-79 -59 -198 -59q-117 0 -185 68.5t-68 198.5q0 138 75.5 210.5t182.5 72.5q138 0 205 -110l-121 -104q-13 18 -21.5 28t-23 19t-29.5 9q-66 0 -66 -116q0 -58 21.5 -88.5t60.5 -30.5z" />
    <glyph glyph-name="d" unicode="d" horiz-adv-x="547" 
d="M278 533q8 0 17 -0.5t10 -0.5v163h199v-579l13 -116h-167l-11 43h-6q-10 -23 -40.5 -41.5t-71.5 -18.5q-201 0 -201 246q0 136 67.5 220t190.5 84zM305 162v229q-27 4 -45 -7.5t-26 -36.5t-11 -48.5t-3 -54.5q0 -117 48 -117q15 0 26 11t11 24z" />
    <glyph glyph-name="e" unicode="e" horiz-adv-x="484" 
d="M287 533q86 0 136 -42t50 -127q0 -159 -247 -183q13 -49 79 -49q59 0 122 41l51 -132l-37 -21q-79 -36 -167 -36q-131 0 -192.5 68.5t-61.5 189.5q0 56 17 107t49 92.5t84 66.5t117 25zM301 366q0 27 -26 27q-23 0 -40 -23.5t-19 -69.5q39 4 62 23.5t23 42.5z" />
    <glyph glyph-name="f" unicode="f" horiz-adv-x="376" 
d="M246 360v-570h-201v745q0 35 3 61t15 56t32.5 49t58 31.5t89.5 12.5q38 0 87 -13.5t85 -33.5l-43 -127q-53 28 -89 28q-18 0 -27.5 -8.5t-9.5 -32.5v-41h130v-157h-130z" />
    <glyph glyph-name="g" unicode="g" horiz-adv-x="537" 
d="M251 -265q-92 0 -140.5 38.5t-48.5 104.5q0 102 99 179q-62 11 -104.5 67.5t-42.5 142.5q0 127 75 196.5t199 69.5q123 0 213 -38v-399q0 -76 -3 -108q-8 -121 -70 -187t-177 -66zM300 202v189q-32 5 -52 -14.5t-26 -46.5t-6 -63q0 -34 2.5 -56t13.5 -40t31 -18
q16 0 26.5 12t10.5 37zM235 -84q0 -39 33 -39q21 0 28.5 15.5t7.5 54.5v92q-26 -20 -47.5 -52.5t-21.5 -70.5z" />
    <glyph glyph-name="h" unicode="h" 
d="M238 0h-202v695h202v-186q42 24 97 24q164 0 164 -183v-350h-202v328q0 51 -24 51q-35 0 -35 -50v-329z" />
    <glyph glyph-name="i" unicode="i" horiz-adv-x="283" 
d="M248 0h-203v517h203v-517zM43 665q0 40 28 68t74 28t75 -28t29 -68q0 -41 -28.5 -68t-74.5 -27q-47 0 -75 27t-28 68z" />
    <glyph glyph-name="j" unicode="j" horiz-adv-x="282" 
d="M45 4v513h201v-533q0 -36 -2.5 -60t-12.5 -54.5t-28.5 -49t-53.5 -31.5t-84 -13q-95 0 -169 42l50 137q33 -15 56 -15q43 0 43 64zM46 665q0 40 28 68t75 28q45 0 74 -28t29 -68q0 -41 -28.5 -68t-74.5 -27q-47 0 -75 27t-28 68z" />
    <glyph glyph-name="k" unicode="k" horiz-adv-x="552" 
d="M332 0l-83 223h-5v-223h-203v695h203v-271h6q56 109 164 109q53 0 89.5 -31.5t36.5 -94.5q0 -95 -97 -155l122 -252h-233zM340 362q0 13 -8 20.5t-20 7.5q-24 0 -42.5 -27t-21.5 -64q35 2 63.5 21t28.5 42z" />
    <glyph glyph-name="l" unicode="l" horiz-adv-x="365" 
d="M41 695h202v-502q0 -52 35 -52q16 0 56 16l42 -132q-56 -41 -154 -41q-61 0 -99.5 17.5t-55 51.5t-21.5 65t-5 77v500z" />
    <glyph glyph-name="m" unicode="m" horiz-adv-x="791" 
d="M245 0h-201v404l-13 113h166l11 -47q25 31 54.5 47t77.5 16q88 0 128 -55q50 55 130 55q157 0 157 -178v-355h-202v324q0 21 -1 30.5t-6 17t-16 7.5q-19 0 -24.5 -13t-5.5 -43v-323h-202v324q0 30 -4 42.5t-19 12.5q-19 0 -24.5 -12.5t-5.5 -42.5v-324z" />
    <glyph glyph-name="n" unicode="n" horiz-adv-x="544" 
d="M245 0h-200v404l-14 113h166l11 -47q48 63 140 63q75 0 117.5 -43.5t42.5 -134.5v-355h-202v324q0 30 -4.5 42.5t-19.5 12.5q-37 0 -37 -55v-324z" />
    <glyph glyph-name="o" unicode="o" horiz-adv-x="534" 
d="M269 129q23 0 32.5 28.5t9.5 98.5q0 73 -9.5 103.5t-33.5 30.5q-41 0 -41 -116q0 -72 8 -108.5t34 -36.5zM20 252q0 75 23.5 132t62 88t81.5 46t88 15q30 0 57.5 -4t63.5 -20t61.5 -43t43.5 -77.5t18 -118.5q0 -134 -73 -210t-185 -76q-114 0 -177.5 67.5t-63.5 200.5z
" />
    <glyph glyph-name="p" unicode="p" horiz-adv-x="553" 
d="M247 -10v-200h-202v702q114 41 239 41q122 0 185.5 -69t63.5 -203q0 -133 -61.5 -205t-170.5 -72q-26 0 -54 6zM247 382v-254q16 -6 28 -6q19 0 30.5 9.5t16.5 31.5t6 40t1 51q0 71 -9 102t-41 31q-19 0 -32 -5z" />
    <glyph glyph-name="q" unicode="q" horiz-adv-x="547" 
d="M505 491v-701h-202v212h-3q-26 -18 -74 -18q-96 0 -151 65.5t-55 194.5q0 126 73 207.5t198 81.5q106 0 214 -42zM304 162v229q-28 4 -45.5 -4t-26 -30t-11 -47.5t-2.5 -65.5q0 -117 48 -117q18 0 27.5 10.5t9.5 24.5z" />
    <glyph glyph-name="r" unicode="r" horiz-adv-x="406" 
d="M248 310v-310h-202v409l-15 108h161l16 -69q36 85 114 85q50 0 83 -19l-25 -169q-40 18 -73 18q-59 0 -59 -53z" />
    <glyph glyph-name="s" unicode="s" horiz-adv-x="448" 
d="M2 42l49 141q34 -20 80.5 -37t75.5 -17q26 0 26 20q0 9 -8 16t-15.5 10t-26.5 10q-40 13 -58.5 21t-47.5 27t-42 47.5t-13 67.5q0 84 62 134.5t151 50.5q127 0 213 -78l-88 -114q-72 50 -112 50q-29 0 -29 -23q0 -13 13 -22t42 -19q38 -14 58 -23t48 -28.5t41 -47.5
t13 -66q0 -86 -58.5 -132t-158.5 -46q-66 0 -124.5 18t-90.5 40z" />
    <glyph glyph-name="t" unicode="t" horiz-adv-x="388" 
d="M43 695h203v-178h119v-156h-119v-160q0 -66 55 -66q21 0 46 14l42 -128q-59 -37 -154 -37q-52 0 -89 12.5t-57 31t-30.5 48.5t-13 54.5t-2.5 60.5v504z" />
    <glyph glyph-name="u" unicode="u" horiz-adv-x="548" 
d="M303 517h202v-411l12 -106h-169l-7 41h-6q-43 -54 -120 -54q-174 0 -174 186v344h202v-322q0 -30 5 -43t22 -13q15 0 24 13.5t9 34.5v330z" />
    <glyph glyph-name="v" unicode="v" horiz-adv-x="530" 
d="M276 517h198q34 -117 34 -237q0 -293 -264 -293q-104 0 -153.5 46t-49.5 139v345h203v-328q0 -28 5 -38t18 -10q43 0 43 137q0 105 -34 239z" />
    <glyph glyph-name="w" unicode="w" horiz-adv-x="774" 
d="M521 517h199q32 -115 32 -237q0 -142 -59.5 -217.5t-172.5 -75.5q-85 0 -138 58q-59 -58 -151 -58t-141 47t-49 139v344h202v-343q0 -34 22 -34q26 0 26 41v336h200v-340q0 -14 0.5 -20.5t5 -11.5t14.5 -5q42 0 42 137q0 106 -32 240z" />
    <glyph glyph-name="x" unicode="x" horiz-adv-x="527" 
d="M331 517h207l-163 -254l170 -263h-222l-61 113l-59 -113h-221l173 261l-158 256h214l58 -108z" />
    <glyph glyph-name="y" unicode="y" horiz-adv-x="542" 
d="M506 148q0 -112 -1 -140q-6 -134 -70.5 -204t-186.5 -70q-88 0 -135 38t-47 105q0 97 94 169q-63 14 -91 52.5t-28 105.5v313h202v-309q0 -28 5 -40t23 -12q12 0 22 13.5t10 35.5v312h203v-369zM239 -84q0 -39 33 -39q20 0 28 14.5t8 47.5v100q-26 -20 -47.5 -52.5
t-21.5 -70.5z" />
    <glyph glyph-name="z" unicode="z" horiz-adv-x="451" 
d="M175 -76q0 -42 38 -42q24 0 38 24t14 61q0 46 -22 67q-68 -52 -68 -110zM445 517v-105l-193 -187l49 -20q75 -30 112.5 -87.5t37.5 -132.5q0 -109 -72 -179.5t-182 -70.5q-98 0 -148 44t-50 122q0 130 140 208q-32 19 -84 36v97l132 121h-173v154h431z" />
    <glyph glyph-name="braceleft" unicode="{" horiz-adv-x="358" 
d="M196 281q38 -12 55 -37.5t17 -76.5q0 -28 -7 -86.5t-7 -78.5q0 -37 9 -55t39 -18q14 0 38 4l12 -119q-43 -10 -103 -10q-69 0 -111.5 28.5t-55.5 75.5q-5 23 -5 41q0 55 11 159q7 60 -8 86t-59 25v124q43 -1 59 26.5t11 84.5q-8 112 -8 142q0 16 6 40q14 48 56.5 75.5
t109.5 27.5q60 0 103 -10l-13 -117q-24 4 -37 4q-30 0 -39 -18t-9 -55q0 -20 5 -66.5t5 -74.5q0 -87 -74 -121z" />
    <glyph glyph-name="bar" unicode="|" horiz-adv-x="373" 
d="M103 -88v835h168v-835h-168z" />
    <glyph glyph-name="braceright" unicode="}" horiz-adv-x="358" 
d="M162 281q-74 34 -74 121q0 28 5 74.5t5 66.5q0 37 -9 55t-39 18q-13 0 -37 -4l-13 117q43 10 103 10q67 0 109.5 -27.5t56.5 -75.5q6 -24 6 -40q0 -30 -8 -142q-5 -57 11 -84.5t59 -26.5v-124q-44 1 -59 -25t-8 -86q11 -104 11 -159q0 -18 -5 -41q-13 -47 -56 -75.5
t-111 -28.5q-60 0 -103 10l12 119q24 -4 38 -4q30 0 39 18t9 55q0 20 -7 78.5t-7 86.5q0 51 17 76.5t55 37.5z" />
    <glyph glyph-name="asciitilde" unicode="~" horiz-adv-x="643" 
d="M447 212q-57 0 -131.5 34.5t-97.5 34.5q-27 0 -51.5 -18t-57.5 -54l-113 98q25 32 39.5 48.5t40.5 40.5t55 35t62 11q44 0 120 -37t113 -37q52 0 107 73l114 -98q-74 -131 -200 -131z" />
    <glyph glyph-name="uni00A0" unicode="&#xa0;" horiz-adv-x="223" 
 />
    <glyph glyph-name="exclamdown" unicode="&#xa1;" horiz-adv-x="268" 
d="M227 -15v-97q0 -31 -21 -50t-64 -19t-64.5 20t-21.5 51v95l27 330h116zM239 442q0 -35 -26 -61t-68 -26q-45 0 -70 24.5t-25 63.5q0 36 25 62t68 26q46 0 71 -25.5t25 -63.5z" />
    <glyph glyph-name="cent" unicode="&#xa2;" 
d="M219 -60v123q-76 20 -123 81t-47 165q0 109 47.5 173.5t122.5 85.5v117h162v-116q79 -27 126 -101l-120 -101q-41 58 -76 58q-68 0 -68 -108q0 -110 68 -110q37 0 76 58l120 -101q-52 -80 -126 -101v-123h-162z" />
    <glyph glyph-name="sterling" unicode="&#xa3;" horiz-adv-x="597" 
d="M42 117v133h77l38 185q24 117 80.5 169.5t156.5 52.5q73 0 126 -29.5t84 -65.5l-99 -114q-54 54 -94 54q-27 0 -40 -16.5t-22 -61.5l-36 -174h123v-132h-148l-6 -24q-18 -78 -79 -129l2 -3q54 20 94 20q32 0 87.5 -9.5t81.5 -9.5q40 0 71 15l-20 -162q-35 -7 -64 -7
q-47 0 -151.5 19t-157.5 19q-81 0 -157 -39v154q36 12 58.5 34.5t33.5 67.5l14 53h-53z" />
    <glyph glyph-name="yen" unicode="&#xa5;" horiz-adv-x="593" 
d="M184 110h-121v114h121v53h-121v114h59l-117 253h206l82 -218h5l91 218h199l-129 -253h58v-114h-125v-53h125v-114h-125v-110h-208v110z" />
    <glyph glyph-name="brokenbar" unicode="&#xa6;" horiz-adv-x="373" 
d="M103 -88v370h167v-370h-167zM103 399v348h167v-348h-167z" />
    <glyph glyph-name="section" unicode="&#xa7;" horiz-adv-x="568" 
d="M528 99l-131 -40q34 -48 34 -116q0 -25 -9.5 -52t-29.5 -53t-58 -43t-88 -17q-90 0 -135 20l24 134q45 -14 79 -14q41 0 41 31q0 32 -60 85q-27 25 -41.5 39t-39.5 45.5t-38.5 61t-24.5 75t-11 96.5l124 37q-37 48 -37 122q0 24 8.5 50t27.5 53.5t58.5 45.5t93.5 18
q69 0 126 -19l-24 -129q-42 12 -69 12q-20 0 -32.5 -11t-12.5 -29q0 -20 15 -38t46 -46q34 -31 52.5 -50.5t47 -59.5t44.5 -92t20 -116zM367 95q-38 130 -165 249q17 -58 47 -108.5t53.5 -76t64.5 -64.5z" />
    <glyph glyph-name="dieresis" unicode="&#xa8;" horiz-adv-x="500" 
d="M273 672q0 34 24 57t63 23t63 -23t24 -57t-24 -57t-63 -23q-40 0 -63.5 22.5t-23.5 57.5zM50 672q0 34 24 57t63 23t63 -23t24 -57t-24 -57t-63 -23q-40 0 -63.5 22.5t-23.5 57.5z" />
    <glyph glyph-name="copyright" unicode="&#xa9;" horiz-adv-x="815" 
d="M567 453l-79 -60q-34 43 -72 43q-77 0 -77 -107q0 -109 77 -109q20 0 37.5 6.5t26.5 13t27 22.5l61 -76q-64 -66 -157 -66q-52 0 -91 19t-60 51t-30.5 66t-9.5 70q0 101 52.5 156.5t138.5 55.5q52 0 93.5 -24t62.5 -61zM765 332q0 -155 -101.5 -253.5t-260.5 -98.5
q-162 0 -257.5 96.5t-95.5 249.5q0 152 99 251t254 99q158 0 260 -98t102 -246zM673 326q0 118 -76 194t-193 76q-118 0 -189.5 -75t-71.5 -195q0 -118 73 -192t188 -74q119 0 194 73t75 193z" />
    <glyph glyph-name="ordfeminine" unicode="&#xaa;" horiz-adv-x="439" 
d="M387 585v-245l8 -73h-120l-5 37h-5q-31 -48 -86 -48q-73 0 -104 46t-31 118q0 87 52.5 139.5t145.5 52.5q68 0 145 -27zM245 377v136q-6 2 -18 2q-41 0 -41 -86q0 -38 7 -57.5t28 -19.5q24 0 24 25z" />
    <glyph glyph-name="guillemotleft" unicode="&#xab;" horiz-adv-x="619" 
d="M333 410l-102 -149l95 -156l-71 -66q-51 35 -116 94t-86 98q-9 17 -9 37q0 31 36 65q91 85 179 149zM590 410l-102 -149l95 -156l-71 -66q-51 35 -116 94t-86 98q-9 17 -9 37q0 31 36 65q91 85 179 149z" />
    <glyph glyph-name="logicalnot" unicode="&#xac;" 
d="M329 117v155h-277v157h429v-312h-152z" />
    <glyph glyph-name="uni00AD" unicode="&#xad;" horiz-adv-x="322" 
d="M28 207v146h267v-146h-267z" />
    <glyph glyph-name="registered" unicode="&#xae;" horiz-adv-x="463" 
d="M287 459l36 -81h-55l-31 70q-6 14 -16 14h-9v-84h-50v211h76q70 0 70 -57q0 -42 -34 -58q8 -4 13 -15zM212 500h6q36 0 36 28q0 14 -9 18.5t-27 4.5h-6v-51zM433 483q0 -86 -57 -141.5t-147 -55.5q-91 0 -145 54.5t-54 140.5q0 85 56 140.5t143 55.5q89 0 146.5 -55.5
t57.5 -138.5zM376 481q0 63 -42 104t-105 41q-64 0 -103 -40.5t-39 -104.5t40 -105t102 -41q64 0 105.5 40.5t41.5 105.5z" />
    <glyph glyph-name="macron" unicode="&#xaf;" horiz-adv-x="500" 
d="M80 606v130h340v-130h-340z" />
    <glyph glyph-name="degree" unicode="&#xb0;" horiz-adv-x="298" 
d="M21 601q0 56 36.5 93.5t91.5 37.5q58 0 93 -36.5t35 -88.5q0 -60 -37 -99t-94 -39q-58 0 -91.5 37.5t-33.5 94.5zM104 601q0 -24 12 -39.5t33 -15.5t33 16t12 39t-11.5 37.5t-33.5 14.5q-45 0 -45 -52z" />
    <glyph glyph-name="plusminus" unicode="&#xb1;" 
d="M186 394v138h164v-138h120v-161h-120v-74h120v-159h-405v159h121v74h-121v161h121z" />
    <glyph glyph-name="twosuperior" unicode="&#xb2;" horiz-adv-x="377" 
d="M98 582l-72 82q78 73 167 73q70 0 107 -30.5t37 -83.5q0 -63 -65 -128l-44 -45h117v-109h-301v80l120 131q26 29 26 48q0 23 -21 23q-25 0 -71 -41z" />
    <glyph glyph-name="threesuperior" unicode="&#xb3;" horiz-adv-x="377" 
d="M92 598l-58 77q23 20 69.5 41t102.5 21q59 0 93.5 -27.5t34.5 -71.5q0 -52 -48 -83q53 -39 53 -93t-40 -90t-118 -36q-69 0 -143 35l34 93q50 -28 98 -28q33 0 33 21q0 11 -15 39q-17 -6 -74 -14l-25 79q62 13 82 21q26 10 26 30q0 19 -22 19q-27 0 -83 -33z" />
    <glyph glyph-name="acute" unicode="&#xb4;" horiz-adv-x="500" 
d="M134 610l130 215q39 -10 71 -32.5t32 -56.5q0 -27 -37 -64q-31 -30 -75 -62.5t-67 -45.5z" />
    <glyph glyph-name="mu" unicode="&#xb5;" horiz-adv-x="575" 
d="M522 517v-370q0 -31 24 -31q9 0 21 3l14 -108q-49 -24 -107 -24q-71 0 -98 63q-9 -32 -30.5 -49.5t-49.5 -17.5q-37 0 -67 33v-232h-176v733h186v-325q0 -70 47 -70q20 0 34 23t14 63v309h188z" />
    <glyph glyph-name="paragraph" unicode="&#xb6;" horiz-adv-x="593" 
d="M354 85v441h-66v-318q-113 -1 -187.5 53t-74.5 171t72 175t192 58h257v-564q0 -57 -5 -94.5t-22 -75.5t-49 -62.5t-86 -45t-133 -33.5l-40 168q85 14 113.5 41t28.5 86z" />
    <glyph glyph-name="periodcentered" unicode="&#xb7;" horiz-adv-x="319" 
d="M67 307q0 38 24 62.5t67 24.5q46 0 70 -23t24 -63q0 -39 -23.5 -63.5t-67.5 -24.5q-46 0 -70 24t-24 63z" />
    <glyph glyph-name="cedilla" unicode="&#xb8;" horiz-adv-x="500" 
d="M212 3h77l-15 -55q46 -5 74.5 -29.5t28.5 -61.5q0 -34 -14 -58t-37.5 -35t-45.5 -15t-46 -4q-60 0 -106 18l22 78q36 -13 68 -13q49 0 49 26q0 33 -92 33z" />
    <glyph glyph-name="onesuperior" unicode="&#xb9;" horiz-adv-x="377" 
d="M66 445h69v148l-66 -25l-41 83l138 80h111l-8 -87v-199h62v-104h-265v104z" />
    <glyph glyph-name="ordmasculine" unicode="&#xba;" horiz-adv-x="419" 
d="M209 355q17 0 23.5 16t6.5 61q0 46 -6.5 64t-23.5 18q-30 0 -30 -70q0 -31 1.5 -47.5t8.5 -29t20 -12.5zM33 430q0 48 17 85t45 57t57.5 29.5t60.5 9.5q20 0 38.5 -2.5t44.5 -12.5t44.5 -27t32 -50t13.5 -78q0 -87 -53 -136t-129 -49q-78 0 -124.5 43.5t-46.5 130.5z" />
    <glyph glyph-name="guillemotright" unicode="&#xbb;" horiz-adv-x="619" 
d="M131 261l-102 149l74 72q88 -64 179 -149q36 -34 36 -65q0 -20 -9 -37q-21 -39 -86 -98t-116 -94l-71 66zM388 261l-102 149l74 72q88 -64 179 -149q36 -34 36 -65q0 -20 -9 -37q-21 -39 -86 -98t-116 -94l-71 66z" />
    <glyph glyph-name="onequarter" unicode="&#xbc;" horiz-adv-x="875" 
d="M47 365h69v148l-66 -25l-41 83l138 80h111l-8 -87v-199h62v-104h-265v104zM365 -19l-120 52l292 625l122 -50zM743 263h76v-94h47v-93h-48v-76h-132v78h-152v68l121 260l108 -51l-95 -186h36z" />
    <glyph glyph-name="onehalf" unicode="&#xbd;" horiz-adv-x="875" 
d="M52 365h69v148l-66 -25l-41 83l138 80h111l-8 -87v-199h62v-104h-265v104zM354 -19l-120 52l292 625l122 -50zM614 241l-72 82q78 73 167 73q70 0 107 -30.5t37 -83.5q0 -63 -65 -128l-44 -45h117v-109h-301v80l120 131q26 29 26 48q0 23 -21 23q-25 0 -71 -41z" />
    <glyph glyph-name="threequarters" unicode="&#xbe;" horiz-adv-x="875" 
d="M70 518l-58 77q23 20 69.5 41t102.5 21q59 0 93.5 -27.5t34.5 -71.5q0 -52 -48 -83q53 -39 53 -93t-40 -90t-118 -36q-69 0 -143 35l34 93q50 -28 98 -28q33 0 33 21q0 11 -15 39q-17 -6 -74 -14l-25 79q62 13 82 21q26 10 26 30q0 19 -22 19q-27 0 -83 -33zM357 -19
l-120 52l292 625l122 -50zM740 263h76v-94h47v-93h-48v-76h-132v78h-152v68l121 260l108 -51l-95 -186h36z" />
    <glyph glyph-name="questiondown" unicode="&#xbf;" horiz-adv-x="402" 
d="M211 2q0 23 11.5 37t38.5 29q28 16 38 22.5t28 23.5t24.5 39.5t6.5 54.5q0 34 -10 114h-144v-60q0 -32 -8 -48.5t-29 -30.5q-74 -46 -109 -88.5t-35 -112.5q0 -17 3.5 -35t16.5 -42t33 -42t58 -31t87 -13q83 0 144 26l-25 133l-20 -6q-44 -11 -60 -11q-49 0 -49 41z
M368 442q0 -35 -26 -61t-68 -26q-45 0 -70 24.5t-25 63.5q0 36 25 62t68 26q46 0 71 -25.5t25 -63.5z" />
    <glyph glyph-name="Agrave" unicode="&#xc0;" horiz-adv-x="662" 
d="M199 0h-202l212 665h229l227 -665h-220l-35 118h-175zM319 470l-51 -202h109l-52 202h-6zM265 925l182 -174l-42 -57q-93 31 -163 70q-31 17 -42.5 32.5t-11.5 36.5q0 24 22 48.5t55 43.5z" />
    <glyph glyph-name="Aacute" unicode="&#xc1;" horiz-adv-x="662" 
d="M199 0h-202l212 665h229l227 -665h-220l-35 118h-175zM319 470l-51 -202h109l-52 202h-6zM214 752l182 175q33 -19 55 -44t22 -49q0 -21 -11.5 -36.5t-42.5 -32.5q-75 -42 -163 -70z" />
    <glyph glyph-name="Acircumflex" unicode="&#xc2;" horiz-adv-x="662" 
d="M199 0h-202l212 665h229l227 -665h-220l-35 118h-175zM319 470l-51 -202h109l-52 202h-6zM326 777l-115 -85l-59 55q50 60 99 110q43 44 75 44t74 -42q60 -60 102 -111l-58 -56z" />
    <glyph glyph-name="Atilde" unicode="&#xc3;" horiz-adv-x="662" 
d="M199 0h-202l212 665h229l227 -665h-220l-35 118h-175zM319 470l-51 -202h109l-52 202h-6zM183 721l-14 106q43 32 90 32q29 0 75 -13.5t70 -13.5q31 0 67 19l11 -112q-34 -20 -72 -20q-24 0 -75.5 12t-71.5 12q-40 0 -80 -22z" />
    <glyph glyph-name="Adieresis" unicode="&#xc4;" horiz-adv-x="662" 
d="M199 0h-202l212 665h229l227 -665h-220l-35 118h-175zM319 470l-51 -202h109l-52 202h-6zM356 785q0 34 24 57.5t63 23.5t63 -23.5t24 -57.5t-24 -57t-63 -23q-40 0 -63.5 22.5t-23.5 57.5zM124 785q0 34 24 57.5t63 23.5t63 -23.5t24 -57.5t-24 -57t-63 -23
q-40 0 -63.5 22.5t-23.5 57.5z" />
    <glyph glyph-name="Aring" unicode="&#xc5;" horiz-adv-x="662" 
d="M206 705q0 50 34.5 83.5t85.5 33.5q56 0 88 -32t32 -80q0 -25 -9 -46l228 -664h-220l-35 118h-175l-36 -118h-202l214 668q-5 14 -5 37zM319 470l-51 -202h109l-52 202h-6zM291 705q0 -38 35 -38t35 38q0 40 -35 40t-35 -40z" />
    <glyph glyph-name="AE" unicode="&#xc6;" horiz-adv-x="848" 
d="M443 0l-40 140h-163l-42 -140h-200l212 665h601v-182h-279l18 -54h226v-180h-191l22 -67h211v-182h-375zM322 462l-47 -172h96l-44 172h-5z" />
    <glyph glyph-name="Ccedilla" unicode="&#xc7;" horiz-adv-x="594" 
d="M354 157q60 0 128 63l104 -134q-105 -94 -231 -98l-11 -40q46 -5 74.5 -29.5t28.5 -61.5q0 -34 -14 -58t-37.5 -35t-45.5 -15t-46 -4q-60 0 -106 18l22 78q36 -13 68 -13q49 0 49 26q0 33 -92 33l33 106q-118 18 -184.5 103.5t-66.5 228.5q0 95 27 166t73.5 110t100 57.5
t114.5 18.5q172 0 256 -148l-145 -104q-57 80 -116 80q-44 0 -70.5 -42.5t-26.5 -125.5q0 -180 114 -180z" />
    <glyph glyph-name="Egrave" unicode="&#xc8;" horiz-adv-x="541" 
d="M46 0v665h459v-182h-251v-54h215v-180h-215v-67h258v-182h-466zM200 925l182 -174l-42 -57q-93 31 -163 70q-31 17 -42.5 32.5t-11.5 36.5q0 24 22 48.5t55 43.5z" />
    <glyph glyph-name="Eacute" unicode="&#xc9;" horiz-adv-x="541" 
d="M46 0v665h459v-182h-251v-54h215v-180h-215v-67h258v-182h-466zM160 752l182 175q33 -19 55 -44t22 -49q0 -21 -11.5 -36.5t-42.5 -32.5q-75 -42 -163 -70z" />
    <glyph glyph-name="Ecircumflex" unicode="&#xca;" horiz-adv-x="541" 
d="M46 0v665h459v-182h-251v-54h215v-180h-215v-67h258v-182h-466zM270 777l-115 -85l-59 55q50 60 99 110q43 44 75 44t74 -42q60 -60 102 -111l-58 -56z" />
    <glyph glyph-name="Edieresis" unicode="&#xcb;" horiz-adv-x="541" 
d="M46 0v665h459v-182h-251v-54h215v-180h-215v-67h258v-182h-466zM302 785q0 34 24 57.5t63 23.5t63 -23.5t24 -57.5t-24 -57t-63 -23q-40 0 -63.5 22.5t-23.5 57.5zM70 785q0 34 24 57.5t63 23.5t63 -23.5t24 -57.5t-24 -57t-63 -23q-40 0 -63.5 22.5t-23.5 57.5z" />
    <glyph glyph-name="Igrave" unicode="&#xcc;" horiz-adv-x="310" 
d="M259 0h-208v665h208v-665zM97 925l182 -174l-42 -57q-93 31 -163 70q-31 17 -42.5 32.5t-11.5 36.5q0 24 22 48.5t55 43.5z" />
    <glyph glyph-name="Iacute" unicode="&#xcd;" horiz-adv-x="310" 
d="M259 0h-208v665h208v-665zM39 752l182 175q33 -19 55 -44t22 -49q0 -21 -11.5 -36.5t-42.5 -32.5q-75 -42 -163 -70z" />
    <glyph glyph-name="Icircumflex" unicode="&#xce;" horiz-adv-x="310" 
d="M259 0h-208v665h208v-665zM149 777l-115 -85l-59 55q50 60 99 110q43 44 75 44t74 -42q60 -60 102 -111l-58 -56z" />
    <glyph glyph-name="Idieresis" unicode="&#xcf;" horiz-adv-x="310" 
d="M259 0h-208v665h208v-665zM179 785q0 34 24 57.5t63 23.5t63 -23.5t24 -57.5t-24 -57t-63 -23q-40 0 -63.5 22.5t-23.5 57.5zM-53 785q0 34 24 57.5t63 23.5t63 -23.5t24 -57.5t-24 -57t-63 -23q-40 0 -63.5 22.5t-23.5 57.5z" />
    <glyph glyph-name="Eth" unicode="&#xd0;" horiz-adv-x="664" 
d="M10 272v123h60v270h240q156 0 241.5 -77t85.5 -234q0 -93 -26.5 -163.5t-72.5 -111t-102 -60t-122 -19.5h-244v272h-60zM264 515v-120h98v-123h-98v-123h52q61 0 94.5 48t33.5 141q0 177 -139 177h-41z" />
    <glyph glyph-name="Ntilde" unicode="&#xd1;" horiz-adv-x="661" 
d="M409 665h206v-665h-177l-183 297h-4v-297h-205v665h184l176 -290h3v290zM186 721l-14 106q43 32 90 32q29 0 75 -13.5t70 -13.5q31 0 67 19l11 -112q-34 -20 -72 -20q-24 0 -75.5 12t-71.5 12q-40 0 -80 -22z" />
    <glyph glyph-name="Ograve" unicode="&#xd2;" horiz-adv-x="668" 
d="M641 331q0 -166 -84 -254.5t-227 -88.5q-145 0 -224 87.5t-79 255.5q0 92 28 161.5t75.5 108t101.5 57.5t113 19q62 0 113.5 -19t93.5 -58.5t65.5 -108t23.5 -160.5zM240 340q0 -182 97 -182q92 0 92 170q0 31 -4 58.5t-13.5 56t-30 45.5t-49.5 17q-48 0 -70 -47
t-22 -118zM289 925l182 -174l-42 -57q-93 31 -163 70q-31 17 -42.5 32.5t-11.5 36.5q0 24 22 48.5t55 43.5z" />
    <glyph glyph-name="Oacute" unicode="&#xd3;" horiz-adv-x="668" 
d="M641 331q0 -166 -84 -254.5t-227 -88.5q-145 0 -224 87.5t-79 255.5q0 92 28 161.5t75.5 108t101.5 57.5t113 19q62 0 113.5 -19t93.5 -58.5t65.5 -108t23.5 -160.5zM240 340q0 -182 97 -182q92 0 92 170q0 31 -4 58.5t-13.5 56t-30 45.5t-49.5 17q-48 0 -70 -47
t-22 -118zM212 752l182 175q33 -19 55 -44t22 -49q0 -21 -11.5 -36.5t-42.5 -32.5q-75 -42 -163 -70z" />
    <glyph glyph-name="Ocircumflex" unicode="&#xd4;" horiz-adv-x="668" 
d="M641 331q0 -166 -84 -254.5t-227 -88.5q-145 0 -224 87.5t-79 255.5q0 92 28 161.5t75.5 108t101.5 57.5t113 19q62 0 113.5 -19t93.5 -58.5t65.5 -108t23.5 -160.5zM240 340q0 -182 97 -182q92 0 92 170q0 31 -4 58.5t-13.5 56t-30 45.5t-49.5 17q-48 0 -70 -47
t-22 -118zM331 777l-115 -85l-59 55q50 60 99 110q43 44 75 44t74 -42q60 -60 102 -111l-58 -56z" />
    <glyph glyph-name="Otilde" unicode="&#xd5;" horiz-adv-x="668" 
d="M641 331q0 -166 -84 -254.5t-227 -88.5q-145 0 -224 87.5t-79 255.5q0 92 28 161.5t75.5 108t101.5 57.5t113 19q62 0 113.5 -19t93.5 -58.5t65.5 -108t23.5 -160.5zM240 340q0 -182 97 -182q92 0 92 170q0 31 -4 58.5t-13.5 56t-30 45.5t-49.5 17q-48 0 -70 -47
t-22 -118zM188 721l-14 106q43 32 90 32q29 0 75 -13.5t70 -13.5q31 0 67 19l11 -112q-34 -20 -72 -20q-24 0 -75.5 12t-71.5 12q-40 0 -80 -22z" />
    <glyph glyph-name="Odieresis" unicode="&#xd6;" horiz-adv-x="668" 
d="M641 331q0 -166 -84 -254.5t-227 -88.5q-145 0 -224 87.5t-79 255.5q0 92 28 161.5t75.5 108t101.5 57.5t113 19q62 0 113.5 -19t93.5 -58.5t65.5 -108t23.5 -160.5zM240 340q0 -182 97 -182q92 0 92 170q0 31 -4 58.5t-13.5 56t-30 45.5t-49.5 17q-48 0 -70 -47
t-22 -118zM366 785q0 34 24 57.5t63 23.5t63 -23.5t24 -57.5t-24 -57t-63 -23q-40 0 -63.5 22.5t-23.5 57.5zM134 785q0 34 24 57.5t63 23.5t63 -23.5t24 -57.5t-24 -57t-63 -23q-40 0 -63.5 22.5t-23.5 57.5z" />
    <glyph glyph-name="multiply" unicode="&#xd7;" 
d="M154 306l-96 97l115 115l97 -96l92 93l113 -114l-92 -93l94 -94l-115 -116l-95 94l-95 -95l-113 114z" />
    <glyph glyph-name="Oslash" unicode="&#xd8;" horiz-adv-x="667" 
d="M266 -123l-158 57l37 106q-118 85 -118 291q0 92 28 161.5t75.5 108t101.5 57.5t113 19h17l34 96l160 -55l-33 -94q118 -85 118 -293q0 -166 -84 -254.5t-227 -88.5q-17 0 -25 1zM240 340q0 -182 97 -182q92 0 92 170q0 31 -4 58.5t-13.5 56t-30 45.5t-49.5 17
q-48 0 -70 -47t-22 -118z" />
    <glyph glyph-name="Ugrave" unicode="&#xd9;" horiz-adv-x="629" 
d="M41 665h207v-427q0 -77 69 -77q29 0 46.5 18.5t17.5 53.5v432h207v-453q0 -103 -76 -163.5t-199 -60.5q-137 0 -204.5 57.5t-67.5 179.5v440zM270 925l182 -174l-42 -57q-92 31 -163 70q-31 17 -42.5 32.5t-11.5 36.5q0 24 22 48.5t55 43.5z" />
    <glyph glyph-name="Uacute" unicode="&#xda;" horiz-adv-x="629" 
d="M41 665h207v-427q0 -77 69 -77q29 0 46.5 18.5t17.5 53.5v432h207v-453q0 -103 -76 -163.5t-199 -60.5q-137 0 -204.5 57.5t-67.5 179.5v440zM193 752l182 175q33 -19 55 -44t22 -49q0 -21 -11.5 -36.5t-42.5 -32.5q-75 -42 -163 -70z" />
    <glyph glyph-name="Ucircumflex" unicode="&#xdb;" horiz-adv-x="629" 
d="M41 665h207v-427q0 -77 69 -77q29 0 46.5 18.5t17.5 53.5v432h207v-453q0 -103 -76 -163.5t-199 -60.5q-137 0 -204.5 57.5t-67.5 179.5v440zM312 777l-115 -85l-59 55q50 60 99 110q43 44 75 44t74 -42q60 -60 102 -111l-58 -56z" />
    <glyph glyph-name="Udieresis" unicode="&#xdc;" horiz-adv-x="629" 
d="M41 665h207v-427q0 -77 69 -77q29 0 46.5 18.5t17.5 53.5v432h207v-453q0 -103 -76 -163.5t-199 -60.5q-137 0 -204.5 57.5t-67.5 179.5v440zM342 785q0 34 24 57.5t63 23.5t63 -23.5t24 -57.5t-24 -57t-63 -23q-40 0 -63.5 22.5t-23.5 57.5zM110 785q0 34 24 57.5
t63 23.5t63 -23.5t24 -57.5t-24 -57t-63 -23q-40 0 -63.5 22.5t-23.5 57.5z" />
    <glyph glyph-name="Yacute" unicode="&#xdd;" horiz-adv-x="625" 
d="M419 665h216l-224 -408v-257h-208v256l-213 409h227l93 -217h4zM186 752l182 175q33 -19 55 -44t22 -49q0 -21 -11.5 -36.5t-42.5 -32.5q-75 -42 -163 -70z" />
    <glyph glyph-name="Thorn" unicode="&#xde;" horiz-adv-x="575" 
d="M255 114v-114h-209v665h209v-97h47q123 0 192.5 -56t69.5 -160q0 -115 -77.5 -176.5t-205.5 -61.5h-26zM255 275h15q41 0 60.5 14t19.5 52q0 65 -57 65h-38v-131z" />
    <glyph glyph-name="germandbls" unicode="&#xdf;" horiz-adv-x="632" 
d="M407 -16q-57 0 -129 17l38 146q49 -18 78 -18q30 0 30 23q0 17 -22.5 32t-49 27t-49 43t-22.5 77q0 38 18 73t39.5 57t39.5 47.5t18 45.5t-12.5 30.5t-26 12.5t-34.5 2q-77 0 -77 -69v-740h-201v737q0 218 279 218q127 0 194 -45t67 -121q0 -38 -18.5 -72.5t-40.5 -55
t-40.5 -44.5t-18.5 -43q0 -15 11.5 -28t29 -22.5t38 -23.5t38 -29t29 -41t11.5 -59q0 -83 -58.5 -130t-158.5 -47z" />
    <glyph glyph-name="agrave" unicode="&#xe0;" horiz-adv-x="546" 
d="M503 490v-374l13 -116h-169l-9 42l-6 1q-40 -60 -116 -60q-196 0 -196 253q0 135 72 216t207 81q95 0 204 -43zM304 162v228q-12 4 -25 4q-31 0 -45.5 -40.5t-14.5 -100.5q0 -126 50 -126q15 0 25 10.5t10 24.5zM260 825l131 -215l-55 -46q-23 13 -67 45.5t-75 62.5
q-37 37 -37 64q0 34 32 56.5t71 32.5z" />
    <glyph glyph-name="aacute" unicode="&#xe1;" horiz-adv-x="546" 
d="M503 490v-374l13 -116h-169l-9 42l-6 1q-40 -60 -116 -60q-196 0 -196 253q0 135 72 216t207 81q95 0 204 -43zM304 162v228q-12 4 -25 4q-31 0 -45.5 -40.5t-14.5 -100.5q0 -126 50 -126q15 0 25 10.5t10 24.5zM192 610l130 215q39 -10 71 -32.5t32 -56.5q0 -27 -37 -64
q-31 -30 -75 -62.5t-67 -45.5z" />
    <glyph glyph-name="acircumflex" unicode="&#xe2;" horiz-adv-x="546" 
d="M503 490v-374l13 -116h-169l-9 42l-6 1q-40 -60 -116 -60q-196 0 -196 253q0 135 72 216t207 81q95 0 204 -43zM304 162v228q-12 4 -25 4q-31 0 -45.5 -40.5t-14.5 -100.5q0 -126 50 -126q15 0 25 10.5t10 24.5zM162 563l-62 50q54 82 115 151q25 27 38 35.5t36 8.5
q24 0 36.5 -8t37.5 -36q54 -61 118 -150l-62 -51l-130 107z" />
    <glyph glyph-name="atilde" unicode="&#xe3;" horiz-adv-x="546" 
d="M503 490v-374l13 -116h-169l-9 42l-6 1q-40 -60 -116 -60q-196 0 -196 253q0 135 72 216t207 81q95 0 204 -43zM304 162v228q-12 4 -25 4q-31 0 -45.5 -40.5t-14.5 -100.5q0 -126 50 -126q15 0 25 10.5t10 24.5zM154 610l-13 106q44 33 90 33q29 0 75 -14t70 -14
q32 0 67 20l10 -113q-34 -20 -72 -20q-24 0 -75.5 12t-71.5 12q-40 0 -80 -22z" />
    <glyph glyph-name="adieresis" unicode="&#xe4;" horiz-adv-x="546" 
d="M503 490v-374l13 -116h-169l-9 42l-6 1q-40 -60 -116 -60q-196 0 -196 253q0 135 72 216t207 81q95 0 204 -43zM304 162v228q-12 4 -25 4q-31 0 -45.5 -40.5t-14.5 -100.5q0 -126 50 -126q15 0 25 10.5t10 24.5zM320 672q0 34 24 57t63 23t63 -23t24 -57t-24 -57t-63 -23
q-40 0 -63.5 22.5t-23.5 57.5zM97 672q0 34 24 57t63 23t63 -23t24 -57t-24 -57t-63 -23q-40 0 -63.5 22.5t-23.5 57.5z" />
    <glyph glyph-name="aring" unicode="&#xe5;" horiz-adv-x="546" 
d="M503 490v-374l13 -116h-169l-9 42l-6 1q-40 -60 -116 -60q-196 0 -196 253q0 135 72 216t207 81q95 0 204 -43zM304 162v228q-12 4 -25 4q-31 0 -45.5 -40.5t-14.5 -100.5q0 -126 50 -126q15 0 25 10.5t10 24.5zM184 679q0 46 31 75.5t78 29.5q51 0 80 -28.5t29 -71.5
q0 -48 -31 -78.5t-80 -30.5q-50 0 -78.5 29.5t-28.5 74.5zM261 679q0 -35 32 -35t32 35t-32 35t-32 -35z" />
    <glyph glyph-name="ae" unicode="&#xe6;" horiz-adv-x="753" 
d="M557 533q86 0 136 -42t50 -127q0 -159 -247 -183q3 -22 24.5 -35.5t54.5 -13.5q59 0 122 41l50 -132q-74 -49 -175 -56q-14 -1 -27 -1q-125 0 -188 63q-64 -64 -148 -64q-189 0 -189 252q0 135 72.5 216.5t207.5 81.5q67 0 138 -25q53 25 119 25zM280 394
q-32 0 -46.5 -41t-14.5 -102q0 -124 50 -124q25 0 31 21q-10 41 -10 94q0 80 32 145q-28 7 -42 7zM571 366q0 27 -26 27q-23 0 -40.5 -23.5t-18.5 -69.5q38 4 61.5 23.5t23.5 42.5z" />
    <glyph glyph-name="ccedilla" unicode="&#xe7;" horiz-adv-x="465" 
d="M300 140q40 0 98 38l69 -136q-73 -55 -182 -59l-9 -35q46 -5 74.5 -29.5t28.5 -61.5q0 -34 -14 -58t-37.5 -35t-45.5 -15t-46 -4q-60 0 -106 18l22 78q36 -13 68 -13q49 0 49 26q0 33 -92 33l32 101q-91 16 -142 83t-51 179q0 138 75.5 210.5t182.5 72.5q138 0 205 -110
l-121 -104q-13 18 -21.5 28t-23 19t-29.5 9q-66 0 -66 -116q0 -58 21.5 -88.5t60.5 -30.5z" />
    <glyph glyph-name="egrave" unicode="&#xe8;" horiz-adv-x="484" 
d="M287 533q86 0 136 -42t50 -127q0 -159 -247 -183q13 -49 79 -49q59 0 122 41l51 -132l-37 -21q-79 -36 -167 -36q-131 0 -192.5 68.5t-61.5 189.5q0 56 17 107t49 92.5t84 66.5t117 25zM301 366q0 27 -26 27q-23 0 -40 -23.5t-19 -69.5q39 4 62 23.5t23 42.5zM227 825
l131 -215l-55 -46q-23 13 -67 45.5t-75 62.5q-37 37 -37 64q0 34 32 56.5t71 32.5z" />
    <glyph glyph-name="eacute" unicode="&#xe9;" horiz-adv-x="484" 
d="M287 533q86 0 136 -42t50 -127q0 -159 -247 -183q13 -49 79 -49q59 0 122 41l51 -132l-37 -21q-79 -36 -167 -36q-131 0 -192.5 68.5t-61.5 189.5q0 56 17 107t49 92.5t84 66.5t117 25zM301 366q0 27 -26 27q-23 0 -40 -23.5t-19 -69.5q39 4 62 23.5t23 42.5zM166 610
l130 215q39 -10 71 -32.5t32 -56.5q0 -27 -37 -64q-31 -30 -75 -62.5t-67 -45.5z" />
    <glyph glyph-name="ecircumflex" unicode="&#xea;" horiz-adv-x="484" 
d="M287 533q86 0 136 -42t50 -127q0 -159 -247 -183q13 -49 79 -49q59 0 122 41l51 -132l-37 -21q-79 -36 -167 -36q-131 0 -192.5 68.5t-61.5 189.5q0 56 17 107t49 92.5t84 66.5t117 25zM301 366q0 27 -26 27q-23 0 -40 -23.5t-19 -69.5q39 4 62 23.5t23 42.5zM144 563
l-62 50q54 82 115 151q25 27 38 35.5t36 8.5q24 0 36.5 -8t37.5 -36q54 -61 118 -150l-62 -51l-130 107z" />
    <glyph glyph-name="edieresis" unicode="&#xeb;" horiz-adv-x="484" 
d="M287 533q86 0 136 -42t50 -127q0 -159 -247 -183q13 -49 79 -49q59 0 122 41l51 -132l-37 -21q-79 -36 -167 -36q-131 0 -192.5 68.5t-61.5 189.5q0 56 17 107t49 92.5t84 66.5t117 25zM301 366q0 27 -26 27q-23 0 -40 -23.5t-19 -69.5q39 4 62 23.5t23 42.5zM293 672
q0 34 24 57t63 23t63 -23t24 -57t-24 -57t-63 -23q-40 0 -63.5 22.5t-23.5 57.5zM70 672q0 34 24 57t63 23t63 -23t24 -57t-24 -57t-63 -23q-40 0 -63.5 22.5t-23.5 57.5z" />
    <glyph glyph-name="igrave" unicode="&#xec;" horiz-adv-x="283" 
d="M248 0h-203v517h203v-517zM127 825l131 -215l-55 -46q-23 13 -67 45.5t-75 62.5q-37 37 -37 64q0 34 32 56.5t71 32.5z" />
    <glyph glyph-name="iacute" unicode="&#xed;" horiz-adv-x="283" 
d="M248 0h-203v517h203v-517zM26 610l130 215q39 -10 71 -32.5t32 -56.5q0 -27 -37 -64q-31 -30 -75 -62.5t-67 -45.5z" />
    <glyph glyph-name="icircumflex" unicode="&#xee;" horiz-adv-x="283" 
d="M248 0h-203v517h203v-517zM13 563l-62 50q54 82 115 151q25 27 38 35.5t36 8.5q24 0 36.5 -8t37.5 -36q54 -61 118 -150l-62 -51l-130 107z" />
    <glyph glyph-name="idieresis" unicode="&#xef;" horiz-adv-x="283" 
d="M248 0h-203v517h203v-517zM165 672q0 34 24 57t63 23t63 -23t24 -57t-24 -57t-63 -23q-40 0 -63.5 22.5t-23.5 57.5zM-58 672q0 34 24 57t63 23t63 -23t24 -57t-24 -57t-63 -23q-40 0 -63.5 22.5t-23.5 57.5z" />
    <glyph glyph-name="eth" unicode="&#xf0;" horiz-adv-x="524" 
d="M323 661l92 66l77 -110l-66 -45q78 -111 78 -281q0 -145 -60 -226.5t-183 -81.5q-117 0 -179 58t-62 171q0 106 53.5 169t139.5 63q61 0 101 -26l6 3q-29 128 -229 157l44 142q109 -11 188 -59zM214 210q0 -85 47 -85q50 0 50 123v49q-24 10 -44 10q-53 0 -53 -97z" />
    <glyph glyph-name="ntilde" unicode="&#xf1;" horiz-adv-x="544" 
d="M245 0h-200v404l-14 113h166l11 -47q48 63 140 63q75 0 117.5 -43.5t42.5 -134.5v-355h-202v324q0 30 -4.5 42.5t-19.5 12.5q-37 0 -37 -55v-324zM134 610l-13 106q44 33 90 33q29 0 75 -14t70 -14q32 0 67 20l10 -113q-34 -20 -72 -20q-24 0 -75.5 12t-71.5 12
q-40 0 -80 -22z" />
    <glyph glyph-name="ograve" unicode="&#xf2;" horiz-adv-x="534" 
d="M269 129q23 0 32.5 28.5t9.5 98.5q0 73 -9.5 103.5t-33.5 30.5q-41 0 -41 -116q0 -72 8 -108.5t34 -36.5zM20 252q0 75 23.5 132t62 88t81.5 46t88 15q30 0 57.5 -4t63.5 -20t61.5 -43t43.5 -77.5t18 -118.5q0 -134 -73 -210t-185 -76q-114 0 -177.5 67.5t-63.5 200.5z
M251 825l131 -215l-55 -46q-23 13 -67 45.5t-75 62.5q-37 37 -37 64q0 34 32 56.5t71 32.5z" />
    <glyph glyph-name="oacute" unicode="&#xf3;" horiz-adv-x="534" 
d="M269 129q23 0 32.5 28.5t9.5 98.5q0 73 -9.5 103.5t-33.5 30.5q-41 0 -41 -116q0 -72 8 -108.5t34 -36.5zM20 252q0 75 23.5 132t62 88t81.5 46t88 15q30 0 57.5 -4t63.5 -20t61.5 -43t43.5 -77.5t18 -118.5q0 -134 -73 -210t-185 -76q-114 0 -177.5 67.5t-63.5 200.5z
M182 610l130 215q39 -10 71 -32.5t32 -56.5q0 -27 -37 -64q-31 -30 -75 -62.5t-67 -45.5z" />
    <glyph glyph-name="ocircumflex" unicode="&#xf4;" horiz-adv-x="534" 
d="M269 129q23 0 32.5 28.5t9.5 98.5q0 73 -9.5 103.5t-33.5 30.5q-41 0 -41 -116q0 -72 8 -108.5t34 -36.5zM20 252q0 75 23.5 132t62 88t81.5 46t88 15q30 0 57.5 -4t63.5 -20t61.5 -43t43.5 -77.5t18 -118.5q0 -134 -73 -210t-185 -76q-114 0 -177.5 67.5t-63.5 200.5z
M152 563l-62 50q54 82 115 151q25 27 38 35.5t36 8.5q24 0 36.5 -8t37.5 -36q54 -61 118 -150l-62 -51l-130 107z" />
    <glyph glyph-name="otilde" unicode="&#xf5;" horiz-adv-x="534" 
d="M269 129q23 0 32.5 28.5t9.5 98.5q0 73 -9.5 103.5t-33.5 30.5q-41 0 -41 -116q0 -72 8 -108.5t34 -36.5zM20 252q0 75 23.5 132t62 88t81.5 46t88 15q30 0 57.5 -4t63.5 -20t61.5 -43t43.5 -77.5t18 -118.5q0 -134 -73 -210t-185 -76q-114 0 -177.5 67.5t-63.5 200.5z
M131 610l-13 106q44 33 90 33q29 0 75 -14t70 -14q32 0 67 20l10 -113q-34 -20 -72 -20q-24 0 -75.5 12t-71.5 12q-40 0 -80 -22z" />
    <glyph glyph-name="odieresis" unicode="&#xf6;" horiz-adv-x="534" 
d="M269 129q23 0 32.5 28.5t9.5 98.5q0 73 -9.5 103.5t-33.5 30.5q-41 0 -41 -116q0 -72 8 -108.5t34 -36.5zM20 252q0 75 23.5 132t62 88t81.5 46t88 15q30 0 57.5 -4t63.5 -20t61.5 -43t43.5 -77.5t18 -118.5q0 -134 -73 -210t-185 -76q-114 0 -177.5 67.5t-63.5 200.5z
M296 672q0 34 24 57t63 23t63 -23t24 -57t-24 -57t-63 -23q-40 0 -63.5 22.5t-23.5 57.5zM73 672q0 34 24 57t63 23t63 -23t24 -57t-24 -57t-63 -23q-40 0 -63.5 22.5t-23.5 57.5z" />
    <glyph glyph-name="divide" unicode="&#xf7;" 
d="M186 106q0 36 21.5 62t60.5 26t61 -24t22 -63q0 -37 -23 -62.5t-61 -25.5q-39 0 -60 24t-21 63zM186 515q0 35 21.5 61t60.5 26t61 -24t22 -62t-23 -63.5t-61 -25.5q-39 0 -60 24.5t-21 63.5zM470 386v-160h-405v160h405z" />
    <glyph glyph-name="oslash" unicode="&#xf8;" horiz-adv-x="534" 
d="M212 -122l-158 57l40 105q-74 69 -74 212q0 74 23 130.5t60.5 88t79.5 46.5t87 16l39 102l160 -55l-36 -93q86 -66 86 -217q0 -134 -73 -210t-185 -76h-8zM269 129q23 0 32.5 28.5t9.5 98.5q0 73 -9.5 103.5t-33.5 30.5q-41 0 -41 -116q0 -72 8 -108.5t34 -36.5z" />
    <glyph glyph-name="ugrave" unicode="&#xf9;" horiz-adv-x="548" 
d="M303 517h202v-411l12 -106h-169l-7 41h-6q-43 -54 -120 -54q-174 0 -174 186v344h202v-322q0 -30 5 -43t22 -13q15 0 24 13.5t9 34.5v330zM263 825l131 -215l-55 -46q-23 13 -67 45.5t-75 62.5q-37 37 -37 64q0 34 32 56.5t71 32.5z" />
    <glyph glyph-name="uacute" unicode="&#xfa;" horiz-adv-x="548" 
d="M303 517h202v-411l12 -106h-169l-7 41h-6q-43 -54 -120 -54q-174 0 -174 186v344h202v-322q0 -30 5 -43t22 -13q15 0 24 13.5t9 34.5v330zM162 610l130 215q39 -10 71 -32.5t32 -56.5q0 -27 -37 -64q-31 -30 -75 -62.5t-67 -45.5z" />
    <glyph glyph-name="ucircumflex" unicode="&#xfb;" horiz-adv-x="548" 
d="M303 517h202v-411l12 -106h-169l-7 41h-6q-43 -54 -120 -54q-174 0 -174 186v344h202v-322q0 -30 5 -43t22 -13q15 0 24 13.5t9 34.5v330zM149 563l-62 50q54 82 115 151q25 27 38 35.5t36 8.5q24 0 36.5 -8t37.5 -36q54 -61 118 -150l-62 -51l-130 107z" />
    <glyph glyph-name="udieresis" unicode="&#xfc;" horiz-adv-x="548" 
d="M303 517h202v-411l12 -106h-169l-7 41h-6q-43 -54 -120 -54q-174 0 -174 186v344h202v-322q0 -30 5 -43t22 -13q15 0 24 13.5t9 34.5v330zM301 672q0 34 24 57t63 23t63 -23t24 -57t-24 -57t-63 -23q-40 0 -63.5 22.5t-23.5 57.5zM78 672q0 34 24 57t63 23t63 -23t24 -57
t-24 -57t-63 -23q-40 0 -63.5 22.5t-23.5 57.5z" />
    <glyph glyph-name="yacute" unicode="&#xfd;" horiz-adv-x="541" 
d="M506 148q0 -112 -1 -140q-6 -134 -70.5 -204t-186.5 -70q-88 0 -135 38t-47 105q0 97 94 169q-63 14 -91 52.5t-28 105.5v313h202v-309q0 -28 5 -40t23 -12q12 0 22 13.5t10 35.5v312h203v-369zM239 -84q0 -39 33 -39q20 0 28 14.5t8 47.5v100q-26 -20 -47.5 -52.5
t-21.5 -70.5zM174 610l130 215q39 -10 71 -32.5t32 -56.5q0 -27 -37 -64q-31 -30 -75 -62.5t-67 -45.5z" />
    <glyph glyph-name="thorn" unicode="&#xfe;" 
d="M238 -12v-198h-202v905h202v-174q47 12 85 12q96 0 148.5 -71t52.5 -201q0 -133 -62 -205t-171 -72q-34 0 -53 4zM321 255q0 65 -13 97.5t-48 32.5q-12 0 -22 -2v-248q16 -6 28 -6q55 0 55 126z" />
    <glyph glyph-name="ydieresis" unicode="&#xff;" horiz-adv-x="541" 
d="M506 148q0 -112 -1 -140q-6 -134 -70.5 -204t-186.5 -70q-88 0 -135 38t-47 105q0 97 94 169q-63 14 -91 52.5t-28 105.5v313h202v-309q0 -28 5 -40t23 -12q12 0 22 13.5t10 35.5v312h203v-369zM239 -84q0 -39 33 -39q20 0 28 14.5t8 47.5v100q-26 -20 -47.5 -52.5
t-21.5 -70.5zM298 672q0 34 24 57t63 23t63 -23t24 -57t-24 -57t-63 -23q-40 0 -63.5 22.5t-23.5 57.5zM75 672q0 34 24 57t63 23t63 -23t24 -57t-24 -57t-63 -23q-40 0 -63.5 22.5t-23.5 57.5z" />
    <glyph glyph-name="Amacron" unicode="&#x100;" horiz-adv-x="662" 
d="M199 0h-202l212 665h229l227 -665h-220l-35 118h-175zM319 470l-51 -202h109l-52 202h-6zM158 719v131h340v-131h-340z" />
    <glyph glyph-name="amacron" unicode="&#x101;" horiz-adv-x="546" 
d="M503 490v-374l13 -116h-169l-9 42l-6 1q-40 -60 -116 -60q-196 0 -196 253q0 135 72 216t207 81q95 0 204 -43zM304 162v228q-12 4 -25 4q-31 0 -45.5 -40.5t-14.5 -100.5q0 -126 50 -126q15 0 25 10.5t10 24.5zM127 606v130h340v-130h-340z" />
    <glyph glyph-name="Abreve" unicode="&#x102;" horiz-adv-x="662" 
d="M199 0h-202l212 665h229l227 -665h-220l-35 118h-175zM319 470l-51 -202h109l-52 202h-6zM417 910l103 -48q-58 -143 -194 -143q-82 0 -129.5 44t-63.5 96l106 51q17 -38 37 -57.5t54 -19.5q32 0 49.5 17.5t37.5 59.5z" />
    <glyph glyph-name="abreve" unicode="&#x103;" horiz-adv-x="546" 
d="M503 490v-374l13 -116h-169l-9 42l-6 1q-40 -60 -116 -60q-196 0 -196 253q0 135 72 216t207 81q95 0 204 -43zM304 162v228q-12 4 -25 4q-31 0 -45.5 -40.5t-14.5 -100.5q0 -126 50 -126q15 0 25 10.5t10 24.5zM385 774l99 -28q-47 -162 -191 -162q-84 0 -129 47.5
t-62 114.5l103 28q18 -42 37.5 -59t54.5 -17q31 0 50.5 17.5t37.5 58.5z" />
    <glyph glyph-name="Aogonek" unicode="&#x104;" horiz-adv-x="662" 
d="M199 0h-202l212 665h229l227 -665q-51 -20 -79.5 -52.5t-28.5 -59.5q0 -31 33 -31q24 0 47 11l33 -96q-41 -24 -109 -24q-66 0 -99 30t-33 76q0 76 79 146h-63l-35 118h-175zM319 470l-51 -202h109l-52 202h-6z" />
    <glyph glyph-name="aogonek" unicode="&#x105;" horiz-adv-x="546" 
d="M503 490v-374l13 -116q-32 -21 -55 -54t-23 -58q0 -31 33 -31q24 0 47 11l33 -96q-41 -24 -109 -24q-66 0 -99 30t-33 76q0 76 79 146h-42l-9 42l-6 1q-40 -60 -116 -60q-196 0 -196 253q0 135 72 216t207 81q95 0 204 -43zM304 162v228q-12 4 -25 4q-31 0 -45.5 -40.5
t-14.5 -100.5q0 -126 50 -126q15 0 25 10.5t10 24.5z" />
    <glyph glyph-name="Cacute" unicode="&#x106;" horiz-adv-x="595" 
d="M354 157q60 0 128 63l104 -134q-58 -52 -115 -75t-129 -23q-146 0 -230.5 87.5t-84.5 249.5q0 95 27 166t73.5 110t100 57.5t114.5 18.5q172 0 256 -148l-145 -104q-57 80 -116 80q-44 0 -70.5 -42.5t-26.5 -125.5q0 -180 114 -180zM223 752l182 175q33 -19 55 -44
t22 -49q0 -21 -11.5 -36.5t-42.5 -32.5q-75 -42 -163 -70z" />
    <glyph glyph-name="cacute" unicode="&#x107;" horiz-adv-x="478" 
d="M304 140q40 0 98 38l69 -136q-79 -59 -198 -59q-117 0 -185 68.5t-68 198.5q0 138 75.5 210.5t182.5 72.5q138 0 205 -110l-121 -104q-13 18 -21.5 28t-23 19t-29.5 9q-66 0 -66 -116q0 -58 21.5 -88.5t60.5 -30.5zM176 610l130 215q39 -10 71 -32.5t32 -56.5
q0 -27 -37 -64q-31 -30 -75 -62.5t-67 -45.5z" />
    <glyph glyph-name="Ccircumflex" unicode="&#x108;" horiz-adv-x="595" 
d="M354 157q60 0 128 63l104 -134q-58 -52 -115 -75t-129 -23q-146 0 -230.5 87.5t-84.5 249.5q0 95 27 166t73.5 110t100 57.5t114.5 18.5q172 0 256 -148l-145 -104q-57 80 -116 80q-44 0 -70.5 -42.5t-26.5 -125.5q0 -180 114 -180zM349 777l-115 -85l-59 55
q50 60 99 110q43 44 75 44t74 -42q60 -60 102 -111l-58 -56z" />
    <glyph glyph-name="ccircumflex" unicode="&#x109;" horiz-adv-x="478" 
d="M304 140q40 0 98 38l69 -136q-79 -59 -198 -59q-117 0 -185 68.5t-68 198.5q0 138 75.5 210.5t182.5 72.5q138 0 205 -110l-121 -104q-13 18 -21.5 28t-23 19t-29.5 9q-66 0 -66 -116q0 -58 21.5 -88.5t60.5 -30.5zM145 563l-62 50q54 82 115 151q25 27 38 35.5t36 8.5
q24 0 36.5 -8t37.5 -36q54 -61 118 -150l-62 -51l-130 107z" />
    <glyph glyph-name="Cdotaccent" unicode="&#x10a;" horiz-adv-x="595" 
d="M354 157q60 0 128 63l104 -134q-58 -52 -115 -75t-129 -23q-146 0 -230.5 87.5t-84.5 249.5q0 95 27 166t73.5 110t100 57.5t114.5 18.5q172 0 256 -148l-145 -104q-57 80 -116 80q-44 0 -70.5 -42.5t-26.5 -125.5q0 -180 114 -180zM237 808q0 40 28 68t74 28t75 -28
t29 -68q0 -41 -28.5 -68t-74.5 -27q-47 0 -75 27t-28 68z" />
    <glyph glyph-name="cdotaccent" unicode="&#x10b;" horiz-adv-x="478" 
d="M304 140q40 0 98 38l69 -136q-79 -59 -198 -59q-117 0 -185 68.5t-68 198.5q0 138 75.5 210.5t182.5 72.5q138 0 205 -110l-121 -104q-13 18 -21.5 28t-23 19t-29.5 9q-66 0 -66 -116q0 -58 21.5 -88.5t60.5 -30.5zM172 665q0 40 28 68t74 28t75 -28t29 -68
q0 -41 -28.5 -68t-74.5 -27q-47 0 -75 27t-28 68z" />
    <glyph glyph-name="Ccaron" unicode="&#x10c;" horiz-adv-x="595" 
d="M354 157q60 0 128 63l104 -134q-58 -52 -115 -75t-129 -23q-146 0 -230.5 87.5t-84.5 249.5q0 95 27 166t73.5 110t100 57.5t114.5 18.5q172 0 256 -148l-145 -104q-57 80 -116 80q-44 0 -70.5 -42.5t-26.5 -125.5q0 -180 114 -180zM223 901l115 -85l118 85l58 -56
q-42 -51 -102 -111q-42 -42 -74 -42t-75 44q-49 50 -99 110z" />
    <glyph glyph-name="ccaron" unicode="&#x10d;" horiz-adv-x="478" 
d="M304 140q40 0 98 38l69 -136q-79 -59 -198 -59q-117 0 -185 68.5t-68 198.5q0 138 75.5 210.5t182.5 72.5q138 0 205 -110l-121 -104q-13 18 -21.5 28t-23 19t-29.5 9q-66 0 -66 -116q0 -58 21.5 -88.5t60.5 -30.5zM401 808l63 -50q-54 -82 -115 -151q-25 -27 -38 -35.5
t-36 -8.5q-25 0 -38 8t-37 36q-61 70 -118 150l63 51l130 -107z" />
    <glyph glyph-name="Dcaron" unicode="&#x10e;" horiz-adv-x="648" 
d="M46 0v665h245q158 0 244 -77t86 -234q0 -93 -26.5 -163.5t-73 -111t-103.5 -60t-124 -19.5h-248zM254 504v-344h42q56 0 86.5 44.5t30.5 133.5q0 166 -127 166h-32zM163 901l115 -85l118 85l58 -56q-42 -51 -102 -111q-42 -42 -74 -42t-75 44q-49 50 -99 110z" />
    <glyph glyph-name="dcaron" unicode="&#x10f;" horiz-adv-x="656" 
d="M278 533q8 0 17 -0.5t10 -0.5v163h199v-579l13 -116h-167l-11 43h-6q-10 -23 -40.5 -41.5t-71.5 -18.5q-201 0 -201 246q0 136 67.5 220t190.5 84zM305 162v229q-27 4 -45 -7.5t-26 -36.5t-11 -48.5t-3 -54.5q0 -117 48 -117q15 0 26 11t11 24zM548 687v-233l71 -15
q20 39 43.5 102.5t23.5 97.5q0 56 -73 56q-27 0 -65 -8z" />
    <glyph glyph-name="Dcroat" unicode="&#x110;" horiz-adv-x="664" 
d="M10 272v123h60v270h240q156 0 241.5 -77t85.5 -234q0 -93 -26.5 -163.5t-72.5 -111t-102 -60t-122 -19.5h-244v272h-60zM264 515v-120h98v-123h-98v-123h52q61 0 94.5 48t33.5 141q0 177 -139 177h-41z" />
    <glyph glyph-name="dcroat" unicode="&#x111;" horiz-adv-x="550" 
d="M278 503q8 0 17 -0.5t10 -0.5v33h-115v120h115v40h199v-40h46v-120h-46v-419l13 -116h-167l-11 43h-6q-10 -23 -41.5 -41.5t-76.5 -18.5q-47 0 -83 16t-57 40t-34 57t-17 63t-4 63q0 133 66.5 207t191.5 74zM305 162v199q-51 8 -68 -25.5t-17 -97.5q0 -111 48 -111
q15 0 26 11t11 24z" />
    <glyph glyph-name="Emacron" unicode="&#x112;" horiz-adv-x="541" 
d="M46 0v665h459v-182h-251v-54h215v-180h-215v-67h258v-182h-466zM98 719v131h340v-131h-340z" />
    <glyph glyph-name="emacron" unicode="&#x113;" horiz-adv-x="484" 
d="M287 533q86 0 136 -42t50 -127q0 -159 -247 -183q13 -49 79 -49q59 0 122 41l51 -132l-37 -21q-79 -36 -167 -36q-131 0 -192.5 68.5t-61.5 189.5q0 56 17 107t49 92.5t84 66.5t117 25zM301 366q0 27 -26 27q-23 0 -40 -23.5t-19 -69.5q39 4 62 23.5t23 42.5zM105 606
v130h340v-130h-340z" />
    <glyph glyph-name="Ebreve" unicode="&#x114;" horiz-adv-x="541" 
d="M46 0v665h459v-182h-251v-54h215v-180h-215v-67h258v-182h-466zM366 910l103 -48q-58 -143 -194 -143q-82 0 -129.5 44t-63.5 96l106 51q17 -38 37 -57.5t54 -19.5q32 0 49.5 17.5t37.5 59.5z" />
    <glyph glyph-name="ebreve" unicode="&#x115;" horiz-adv-x="484" 
d="M287 533q86 0 136 -42t50 -127q0 -159 -247 -183q13 -49 79 -49q59 0 122 41l51 -132l-37 -21q-79 -36 -167 -36q-131 0 -192.5 68.5t-61.5 189.5q0 56 17 107t49 92.5t84 66.5t117 25zM301 366q0 27 -26 27q-23 0 -40 -23.5t-19 -69.5q39 4 62 23.5t23 42.5zM368 774
l99 -28q-47 -162 -191 -162q-84 0 -129 47.5t-62 114.5l103 28q18 -42 37.5 -59t54.5 -17q31 0 50.5 17.5t37.5 58.5z" />
    <glyph glyph-name="Edotaccent" unicode="&#x116;" horiz-adv-x="541" 
d="M46 0v665h459v-182h-251v-54h215v-180h-215v-67h258v-182h-466zM175 808q0 40 28 68t74 28t75 -28t29 -68q0 -41 -28.5 -68t-74.5 -27q-47 0 -75 27t-28 68z" />
    <glyph glyph-name="edotaccent" unicode="&#x117;" horiz-adv-x="484" 
d="M287 533q86 0 136 -42t50 -127q0 -159 -247 -183q13 -49 79 -49q59 0 122 41l51 -132l-37 -21q-79 -36 -167 -36q-131 0 -192.5 68.5t-61.5 189.5q0 56 17 107t49 92.5t84 66.5t117 25zM301 366q0 27 -26 27q-23 0 -40 -23.5t-19 -69.5q39 4 62 23.5t23 42.5zM175 665
q0 40 28 68t74 28t75 -28t29 -68q0 -41 -28.5 -68t-74.5 -27q-47 0 -75 27t-28 68z" />
    <glyph glyph-name="Eogonek" unicode="&#x118;" horiz-adv-x="541" 
d="M46 0v665h459v-182h-251v-54h215v-180h-215v-67h258v-182q-59 -20 -89 -50.5t-30 -61.5t33 -31q24 0 47 11l33 -96q-41 -24 -109 -24q-66 0 -99 30t-33 76q0 84 92 146h-311z" />
    <glyph glyph-name="eogonek" unicode="&#x119;" horiz-adv-x="484" 
d="M394 -5q-30 -16 -53 -46.5t-23 -57.5q0 -34 33 -34q24 0 47 11l33 -96q-41 -24 -109 -24q-66 0 -99 30t-33 76q0 66 63 131q-120 6 -176.5 74t-56.5 183q0 56 17 107t49 92.5t84 66.5t117 25q86 0 136 -42t50 -127q0 -159 -247 -183q13 -49 79 -49q59 0 122 41l51 -132
q1 0 -21 -12t-63 -34zM301 366q0 27 -26 27q-23 0 -40 -23.5t-19 -69.5q39 4 62 23.5t23 42.5z" />
    <glyph glyph-name="Ecaron" unicode="&#x11a;" horiz-adv-x="541" 
d="M46 0v665h459v-182h-251v-54h215v-180h-215v-67h258v-182h-466zM151 901l115 -85l118 85l58 -56q-42 -51 -102 -111q-42 -42 -74 -42t-75 44q-49 50 -99 110z" />
    <glyph glyph-name="ecaron" unicode="&#x11b;" horiz-adv-x="484" 
d="M287 533q86 0 136 -42t50 -127q0 -159 -247 -183q13 -49 79 -49q59 0 122 41l51 -132l-37 -21q-79 -36 -167 -36q-131 0 -192.5 68.5t-61.5 189.5q0 56 17 107t49 92.5t84 66.5t117 25zM301 366q0 27 -26 27q-23 0 -40 -23.5t-19 -69.5q39 4 62 23.5t23 42.5zM410 808
l63 -50q-54 -82 -115 -151q-25 -27 -38 -35.5t-36 -8.5q-25 0 -38 8t-37 36q-61 70 -118 150l63 51l130 -107z" />
    <glyph glyph-name="Gcircumflex" unicode="&#x11c;" horiz-adv-x="639" 
d="M601 338v-279q-43 -32 -112 -51.5t-146 -19.5q-148 0 -232 87t-84 256q0 93 27.5 162.5t74.5 108t100 57t112 18.5q181 0 263 -142l-150 -107q-56 76 -115 76q-46 0 -72.5 -40.5t-26.5 -121.5q0 -188 110 -188q29 0 61 8v176h190zM346 777l-115 -85l-59 55q50 60 99 110
q43 44 75 44t74 -42q60 -60 102 -111l-58 -56z" />
    <glyph glyph-name="gcircumflex" unicode="&#x11d;" horiz-adv-x="537" 
d="M251 -265q-92 0 -140.5 38.5t-48.5 104.5q0 102 99 179q-62 11 -104.5 67.5t-42.5 142.5q0 127 75 196.5t199 69.5q123 0 213 -38v-399q0 -76 -3 -108q-8 -121 -70 -187t-177 -66zM300 202v189q-32 5 -52 -14.5t-26 -46.5t-6 -63q0 -34 2.5 -56t13.5 -40t31 -18
q16 0 26.5 12t10.5 37zM235 -84q0 -39 33 -39q21 0 28.5 15.5t7.5 54.5v92q-26 -20 -47.5 -52.5t-21.5 -70.5zM152 563l-62 50q54 82 115 151q25 27 38 35.5t36 8.5q24 0 36.5 -8t37.5 -36q54 -61 118 -150l-62 -51l-130 107z" />
    <glyph glyph-name="Gbreve" unicode="&#x11e;" horiz-adv-x="639" 
d="M601 338v-279q-43 -32 -112 -51.5t-146 -19.5q-148 0 -232 87t-84 256q0 93 27.5 162.5t74.5 108t100 57t112 18.5q181 0 263 -142l-150 -107q-56 76 -115 76q-46 0 -72.5 -40.5t-26.5 -121.5q0 -188 110 -188q29 0 61 8v176h190zM429 910l103 -48q-58 -143 -194 -143
q-82 0 -129.5 44t-63.5 96l106 51q17 -38 37 -57.5t54 -19.5q32 0 49.5 17.5t37.5 59.5z" />
    <glyph glyph-name="gbreve" unicode="&#x11f;" horiz-adv-x="537" 
d="M251 -265q-92 0 -140.5 38.5t-48.5 104.5q0 102 99 179q-62 11 -104.5 67.5t-42.5 142.5q0 127 75 196.5t199 69.5q123 0 213 -38v-399q0 -76 -3 -108q-8 -121 -70 -187t-177 -66zM300 202v189q-32 5 -52 -14.5t-26 -46.5t-6 -63q0 -34 2.5 -56t13.5 -40t31 -18
q16 0 26.5 12t10.5 37zM235 -84q0 -39 33 -39q21 0 28.5 15.5t7.5 54.5v92q-26 -20 -47.5 -52.5t-21.5 -70.5zM377 774l99 -28q-47 -162 -191 -162q-84 0 -129 47.5t-62 114.5l103 28q18 -42 37.5 -59t54.5 -17q31 0 50.5 17.5t37.5 58.5z" />
    <glyph glyph-name="Gdotaccent" unicode="&#x120;" horiz-adv-x="639" 
d="M601 338v-279q-43 -32 -112 -51.5t-146 -19.5q-148 0 -232 87t-84 256q0 93 27.5 162.5t74.5 108t100 57t112 18.5q181 0 263 -142l-150 -107q-56 76 -115 76q-46 0 -72.5 -40.5t-26.5 -121.5q0 -188 110 -188q29 0 61 8v176h190zM239 808q0 40 28 68t74 28t75 -28
t29 -68q0 -41 -28.5 -68t-74.5 -27q-47 0 -75 27t-28 68z" />
    <glyph glyph-name="gdotaccent" unicode="&#x121;" horiz-adv-x="537" 
d="M251 -265q-92 0 -140.5 38.5t-48.5 104.5q0 102 99 179q-62 11 -104.5 67.5t-42.5 142.5q0 127 75 196.5t199 69.5q123 0 213 -38v-399q0 -76 -3 -108q-8 -121 -70 -187t-177 -66zM300 202v189q-32 5 -52 -14.5t-26 -46.5t-6 -63q0 -34 2.5 -56t13.5 -40t31 -18
q16 0 26.5 12t10.5 37zM235 -84q0 -39 33 -39q21 0 28.5 15.5t7.5 54.5v92q-26 -20 -47.5 -52.5t-21.5 -70.5zM188 665q0 40 28 68t74 28t75 -28t29 -68q0 -41 -28.5 -68t-74.5 -27q-47 0 -75 27t-28 68z" />
    <glyph glyph-name="Gcommaaccent" unicode="&#x122;" horiz-adv-x="639" 
d="M601 338v-279q-43 -32 -112 -51.5t-146 -19.5q-148 0 -232 87t-84 256q0 93 27.5 162.5t74.5 108t100 57t112 18.5q181 0 263 -142l-150 -107q-56 76 -115 76q-46 0 -72.5 -40.5t-26.5 -121.5q0 -188 110 -188q29 0 61 8v176h190zM265 -43l-62 -219l67 -32q58 64 95 127
q22 37 22 62q0 20 -11.5 33t-33.5 18.5t-37.5 7.5t-39.5 3z" />
    <glyph glyph-name="gcommaaccent" unicode="&#x123;" horiz-adv-x="537" 
d="M251 -265q-92 0 -140.5 38.5t-48.5 104.5q0 102 99 179q-62 11 -104.5 67.5t-42.5 142.5q0 127 75 196.5t199 69.5q123 0 213 -38v-399q0 -76 -3 -108q-8 -121 -70 -187t-177 -66zM300 202v189q-32 5 -52 -14.5t-26 -46.5t-6 -63q0 -34 2.5 -56t13.5 -40t31 -18
q16 0 26.5 12t10.5 37zM235 -84q0 -39 33 -39q21 0 28.5 15.5t7.5 54.5v92q-26 -20 -47.5 -52.5t-21.5 -70.5zM387 782l-61 -221q-24 2 -39.5 4t-38 8.5t-34 19.5t-11.5 33q0 25 22 62q43 70 95 127z" />
    <glyph glyph-name="Hcircumflex" unicode="&#x124;" horiz-adv-x="667" 
d="M411 665h210v-665h-210v237h-157v-237h-208v665h208v-246h157v246zM331 777l-115 -85l-59 55q50 60 99 110q43 44 75 44t74 -42q60 -60 102 -111l-58 -56z" />
    <glyph glyph-name="hcircumflex" unicode="&#x125;" 
d="M238 0h-202v695h202v-186q42 24 97 24q164 0 164 -183v-350h-202v328q0 51 -24 51q-35 0 -35 -50v-329zM215 806l-115 -85l-59 55q50 60 99 110q43 44 75 44t74 -42q60 -60 102 -111l-58 -56z" />
    <glyph glyph-name="Hbar" unicode="&#x126;" horiz-adv-x="679" 
d="M417 665h210v-65h47v-120h-47v-480h-210v237h-156v-237h-209v480h-47v120h47v65h209v-65h156v65zM261 419h156v61h-156v-61z" />
    <glyph glyph-name="hbar" unicode="&#x127;" 
d="M-6 527v120h42v48h202v-48h122v-120h-122v-60q42 24 98 24q163 0 163 -184v-307h-202v285q0 51 -24 51q-35 0 -35 -50v-286h-202v527h-42z" />
    <glyph glyph-name="Itilde" unicode="&#x128;" horiz-adv-x="310" 
d="M259 0h-208v665h208v-665zM6 721l-14 106q43 32 90 32q29 0 75 -13.5t70 -13.5q31 0 67 19l11 -112q-34 -20 -72 -20q-24 0 -75.5 12t-71.5 12q-40 0 -80 -22z" />
    <glyph glyph-name="itilde" unicode="&#x129;" horiz-adv-x="283" 
d="M248 0h-203v517h203v-517zM-3 610l-13 106q44 33 90 33q29 0 75 -14t70 -14q32 0 67 20l10 -113q-34 -20 -72 -20q-24 0 -75.5 12t-71.5 12q-40 0 -80 -22z" />
    <glyph glyph-name="Imacron" unicode="&#x12a;" horiz-adv-x="310" 
d="M259 0h-208v665h208v-665zM-19 719v131h340v-131h-340z" />
    <glyph glyph-name="imacron" unicode="&#x12b;" horiz-adv-x="283" 
d="M248 0h-203v517h203v-517zM-28 606v130h340v-130h-340z" />
    <glyph glyph-name="Ibreve" unicode="&#x12c;" horiz-adv-x="310" 
d="M259 0h-208v665h208v-665zM240 910l103 -48q-58 -143 -194 -143q-82 0 -129.5 44t-63.5 96l106 51q17 -38 37 -57.5t54 -19.5q32 0 49.5 17.5t37.5 59.5z" />
    <glyph glyph-name="ibreve" unicode="&#x12d;" horiz-adv-x="283" 
d="M248 0h-203v517h203v-517zM232 774l99 -28q-47 -162 -191 -162q-84 0 -129 47.5t-62 114.5l103 28q18 -42 37.5 -59t54.5 -17q31 0 50.5 17.5t37.5 58.5z" />
    <glyph glyph-name="Iogonek" unicode="&#x12e;" horiz-adv-x="310" 
d="M259 0q-35 -21 -59.5 -54t-24.5 -58q0 -31 33 -31q24 0 47 11l33 -96q-41 -24 -109 -24q-66 0 -99 30t-33 76q0 76 79 146h-75v665h208v-665z" />
    <glyph glyph-name="iogonek" unicode="&#x12f;" horiz-adv-x="283" 
d="M248 0q-32 -21 -55 -54t-23 -58q0 -31 33 -31q24 0 47 11l33 -96q-41 -24 -109 -24q-66 0 -99 30t-33 76q0 76 79 146h-76v517h203v-517zM43 665q0 40 28 68t74 28t75 -28t29 -68q0 -41 -28.5 -68t-74.5 -27q-47 0 -75 27t-28 68z" />
    <glyph glyph-name="Idotaccent" unicode="&#x130;" horiz-adv-x="310" 
d="M259 0h-208v665h208v-665zM48 808q0 40 28 68t74 28t75 -28t29 -68q0 -41 -28.5 -68t-74.5 -27q-47 0 -75 27t-28 68z" />
    <glyph glyph-name="dotlessi" unicode="&#x131;" horiz-adv-x="283" 
d="M248 0h-203v517h203v-517z" />
    <glyph glyph-name="IJ" unicode="&#x132;" horiz-adv-x="752" 
d="M259 0h-208v665h208v-665zM301 34l54 154q50 -26 91 -26q61 0 61 69v434h208v-449q0 -62 -9 -92q-17 -62 -76 -99t-136 -37q-108 0 -193 46z" />
    <glyph glyph-name="ij" unicode="&#x133;" horiz-adv-x="534" 
d="M248 0h-203v517h203v-517zM43 665q0 40 28 68t74 28t75 -28t29 -68q0 -41 -28.5 -68t-74.5 -27q-47 0 -75 27t-28 68zM303 4v513h201v-533q0 -36 -2.5 -60t-12.5 -54.5t-28.5 -49t-53.5 -31.5t-84 -13q-95 0 -169 42l50 137q33 -15 56 -15q43 0 43 64zM304 665
q0 40 28 68t75 28q45 0 74 -28t29 -68q0 -41 -28.5 -68t-74.5 -27q-47 0 -75 27t-28 68z" />
    <glyph glyph-name="Jcircumflex" unicode="&#x134;" horiz-adv-x="453" 
d="M-2 34l54 154q50 -26 91 -26q61 0 61 69v434h208v-449q0 -62 -9 -92q-17 -62 -76 -99t-136 -37q-108 0 -193 46zM306 777l-115 -85l-59 55q50 60 99 110q43 44 75 44t74 -42q60 -60 102 -111l-58 -56z" />
    <glyph glyph-name="jcircumflex" unicode="&#x135;" horiz-adv-x="282" 
d="M45 4v513h201v-533q0 -36 -2.5 -60t-12.5 -54.5t-28.5 -49t-53.5 -31.5t-84 -13q-95 0 -169 42l50 137q33 -15 56 -15q43 0 43 64zM19 563l-62 50q54 82 115 151q25 27 38 35.5t36 8.5q24 0 36.5 -8t37.5 -36q54 -61 118 -150l-62 -51l-130 107z" />
    <glyph glyph-name="Kcommaaccent" unicode="&#x136;" horiz-adv-x="608" 
d="M610 665l-187 -289l197 -376h-236l-99 211l-32 -48v-163h-207v665h207v-210h3l128 210h226zM244 -43l-62 -219l67 -32q58 64 95 127q22 37 22 62q0 20 -11.5 33t-33.5 18.5t-37.5 7.5t-39.5 3z" />
    <glyph glyph-name="kcommaaccent" unicode="&#x137;" horiz-adv-x="552" 
d="M332 0l-83 223h-5v-223h-203v695h203v-271h6q56 109 164 109q53 0 89.5 -31.5t36.5 -94.5q0 -95 -97 -155l122 -252h-233zM340 362q0 13 -8 20.5t-20 7.5q-24 0 -42.5 -27t-21.5 -64q35 2 63.5 21t28.5 42zM225 -43l-62 -219l67 -32q58 64 95 127q22 37 22 62
q0 20 -11.5 33t-33.5 18.5t-37.5 7.5t-39.5 3z" />
    <glyph glyph-name="kgreenlandic" unicode="&#x138;" horiz-adv-x="538" 
d="M331 0l-96 215h-6v-215h-189v517h189v-115h5q56 113 165 113q53 0 89 -31.5t36 -92.5q0 -52 -30 -92.5t-71 -64.5l125 -234h-217zM337 349q0 32 -31 32q-27 0 -48.5 -31.5t-25.5 -73.5q41 3 73 24.5t32 48.5z" />
    <glyph glyph-name="Lacute" unicode="&#x139;" horiz-adv-x="526" 
d="M46 0v665h208v-482h253v-183h-461zM12 750l182 175q33 -19 55 -44t22 -49q0 -21 -11.5 -36.5t-42.5 -32.5q-75 -42 -163 -70z" />
    <glyph glyph-name="lacute" unicode="&#x13a;" horiz-adv-x="365" 
d="M41 695h202v-502q0 -52 35 -52q16 0 56 16l42 -132q-56 -41 -154 -41q-61 0 -99.5 17.5t-55 51.5t-21.5 65t-5 77v500zM2 773l182 175q33 -19 55 -44t22 -49q0 -21 -11.5 -36.5t-42.5 -32.5q-75 -42 -163 -70z" />
    <glyph glyph-name="Lcommaaccent" unicode="&#x13b;" horiz-adv-x="526" 
d="M46 0v665h208v-482h253v-183h-461zM204 -43l-62 -219l67 -32q58 64 95 127q22 37 22 62q0 20 -11.5 33t-33.5 18.5t-37.5 7.5t-39.5 3z" />
    <glyph glyph-name="lcommaaccent" unicode="&#x13c;" horiz-adv-x="365" 
d="M41 695h202v-502q0 -52 35 -52q16 0 56 16l42 -132q-56 -41 -154 -41q-61 0 -99.5 17.5t-55 51.5t-21.5 65t-5 77v500zM124 -43l-62 -219l67 -32q58 64 95 127q22 37 22 62q0 20 -11.5 33t-33.5 18.5t-37.5 7.5t-39.5 3z" />
    <glyph glyph-name="Lcaron" unicode="&#x13d;" horiz-adv-x="526" 
d="M46 0v665h208v-482h253v-183h-461zM343 657v-233l71 -15q20 39 43.5 102.5t23.5 97.5q0 56 -73 56q-27 0 -65 -8z" />
    <glyph glyph-name="lcaron" unicode="&#x13e;" horiz-adv-x="404" 
d="M41 695h202v-502q0 -52 35 -52q16 0 56 16l42 -132q-56 -41 -154 -41q-61 0 -99.5 17.5t-55 51.5t-21.5 65t-5 77v500zM296 687v-233l71 -15q20 39 43.5 102.5t23.5 97.5q0 56 -73 56q-27 0 -65 -8z" />
    <glyph glyph-name="Ldot" unicode="&#x13f;" horiz-adv-x="526" 
d="M46 0v665h208v-482h253v-183h-461zM308 372q0 40 28 68t74 28t75 -28t29 -68q0 -41 -28.5 -68t-74.5 -27q-47 0 -75 27t-28 68z" />
    <glyph glyph-name="ldot" unicode="&#x140;" horiz-adv-x="471" 
d="M41 695h202v-502q0 -52 35 -52q16 0 56 16l42 -132q-56 -41 -154 -41q-61 0 -99.5 17.5t-55 51.5t-21.5 65t-5 77v500zM278 370q0 40 28 68t74 28t75 -28t29 -68q0 -41 -28.5 -68t-74.5 -27q-47 0 -75 27t-28 68z" />
    <glyph glyph-name="Lslash" unicode="&#x141;" horiz-adv-x="522" 
d="M2 226l-52 121l96 44v274h208v-199l110 50l52 -121l-162 -74v-138h253v-183h-461v246z" />
    <glyph glyph-name="lslash" unicode="&#x142;" horiz-adv-x="442" 
d="M107 695h202v-222l70 38l57 -111l-127 -67v-140q0 -52 35 -52q16 0 56 16l42 -132q-56 -41 -154 -41q-61 0 -99.5 17.5t-55 51.5t-21.5 65t-5 77v62l-50 -26l-57 111l107 56v297z" />
    <glyph glyph-name="Nacute" unicode="&#x143;" horiz-adv-x="661" 
d="M409 665h206v-665h-177l-183 297h-4v-297h-205v665h184l176 -290h3v290zM210 752l182 175q33 -19 55 -44t22 -49q0 -21 -11.5 -36.5t-42.5 -32.5q-75 -42 -163 -70z" />
    <glyph glyph-name="nacute" unicode="&#x144;" horiz-adv-x="544" 
d="M245 0h-200v404l-14 113h166l11 -47q48 63 140 63q75 0 117.5 -43.5t42.5 -134.5v-355h-202v324q0 30 -4.5 42.5t-19.5 12.5q-37 0 -37 -55v-324zM174 610l130 215q39 -10 71 -32.5t32 -56.5q0 -27 -37 -64q-31 -30 -75 -62.5t-67 -45.5z" />
    <glyph glyph-name="Ncommaaccent" unicode="&#x145;" horiz-adv-x="661" 
d="M409 665h206v-665h-177l-183 297h-4v-297h-205v665h184l176 -290h3v290zM295 -43l-62 -219l67 -32q58 64 95 127q22 37 22 62q0 20 -11.5 33t-33.5 18.5t-37.5 7.5t-39.5 3z" />
    <glyph glyph-name="ncommaaccent" unicode="&#x146;" horiz-adv-x="544" 
d="M245 0h-200v404l-14 113h166l11 -47q48 63 140 63q75 0 117.5 -43.5t42.5 -134.5v-355h-202v324q0 30 -4.5 42.5t-19.5 12.5q-37 0 -37 -55v-324zM229 -43l-62 -219l67 -32q58 64 95 127q22 37 22 62q0 20 -11.5 33t-33.5 18.5t-37.5 7.5t-39.5 3z" />
    <glyph glyph-name="Ncaron" unicode="&#x147;" horiz-adv-x="661" 
d="M409 665h206v-665h-177l-183 297h-4v-297h-205v665h184l176 -290h3v290zM214 901l115 -85l118 85l58 -56q-42 -51 -102 -111q-42 -42 -74 -42t-75 44q-49 50 -99 110z" />
    <glyph glyph-name="ncaron" unicode="&#x148;" horiz-adv-x="544" 
d="M245 0h-200v404l-14 113h166l11 -47q48 63 140 63q75 0 117.5 -43.5t42.5 -134.5v-355h-202v324q0 30 -4.5 42.5t-19.5 12.5q-37 0 -37 -55v-324zM405 808l63 -50q-54 -82 -115 -151q-25 -27 -38 -35.5t-36 -8.5q-25 0 -38 8t-37 36q-61 70 -118 150l63 51l130 -107z" />
    <glyph glyph-name="napostrophe" unicode="&#x149;" horiz-adv-x="571" 
d="M272 0h-200v404l-14 113h166l11 -47q48 63 140 63q75 0 117.5 -43.5t42.5 -134.5v-355h-202v324q0 30 -4.5 42.5t-19.5 12.5q-37 0 -37 -55v-324zM-30 515l33 232q28 4 43 4q72 0 72 -55q0 -62 -88 -200z" />
    <glyph glyph-name="Eng" unicode="&#x14a;" horiz-adv-x="662" 
d="M409 665h207v-680q0 -36 -2 -60t-12 -55t-28 -49.5t-53 -32t-84 -13.5q-91 0 -164 39l49 137q28 -12 52 -12q40 0 40 64v37l-158 257h-4v-297h-206v665h185l175 -290h3v290z" />
    <glyph glyph-name="eng" unicode="&#x14b;" horiz-adv-x="545" 
d="M246 0h-200v404l-14 113h166l11 -47q49 64 139 64q76 0 118.5 -44t42.5 -135v-370q0 -36 -2.5 -60.5t-13 -55t-29 -49t-53.5 -31.5t-84 -13q-92 0 -168 42l50 137q32 -15 55 -15q43 0 43 65v319q0 30 -4 42.5t-19 12.5q-38 0 -38 -55v-324z" />
    <glyph glyph-name="Omacron" unicode="&#x14c;" horiz-adv-x="668" 
d="M641 331q0 -166 -84 -254.5t-227 -88.5q-145 0 -224 87.5t-79 255.5q0 92 28 161.5t75.5 108t101.5 57.5t113 19q62 0 113.5 -19t93.5 -58.5t65.5 -108t23.5 -160.5zM240 340q0 -182 97 -182q92 0 92 170q0 31 -4 58.5t-13.5 56t-30 45.5t-49.5 17q-48 0 -70 -47
t-22 -118zM172 719v131h340v-131h-340z" />
    <glyph glyph-name="omacron" unicode="&#x14d;" horiz-adv-x="534" 
d="M269 129q23 0 32.5 28.5t9.5 98.5q0 73 -9.5 103.5t-33.5 30.5q-41 0 -41 -116q0 -72 8 -108.5t34 -36.5zM20 252q0 75 23.5 132t62 88t81.5 46t88 15q30 0 57.5 -4t63.5 -20t61.5 -43t43.5 -77.5t18 -118.5q0 -134 -73 -210t-185 -76q-114 0 -177.5 67.5t-63.5 200.5z
M109 606v130h340v-130h-340z" />
    <glyph glyph-name="Obreve" unicode="&#x14e;" horiz-adv-x="668" 
d="M641 331q0 -166 -84 -254.5t-227 -88.5q-145 0 -224 87.5t-79 255.5q0 92 28 161.5t75.5 108t101.5 57.5t113 19q62 0 113.5 -19t93.5 -58.5t65.5 -108t23.5 -160.5zM240 340q0 -182 97 -182q92 0 92 170q0 31 -4 58.5t-13.5 56t-30 45.5t-49.5 17q-48 0 -70 -47
t-22 -118zM422 910l103 -48q-58 -143 -194 -143q-82 0 -129.5 44t-63.5 96l106 51q17 -38 37 -57.5t54 -19.5q32 0 49.5 17.5t37.5 59.5z" />
    <glyph glyph-name="obreve" unicode="&#x14f;" horiz-adv-x="534" 
d="M269 129q23 0 32.5 28.5t9.5 98.5q0 73 -9.5 103.5t-33.5 30.5q-41 0 -41 -116q0 -72 8 -108.5t34 -36.5zM20 252q0 75 23.5 132t62 88t81.5 46t88 15q30 0 57.5 -4t63.5 -20t61.5 -43t43.5 -77.5t18 -118.5q0 -134 -73 -210t-185 -76q-114 0 -177.5 67.5t-63.5 200.5z
M368 774l99 -28q-47 -162 -191 -162q-84 0 -129 47.5t-62 114.5l103 28q18 -42 37.5 -59t54.5 -17q31 0 50.5 17.5t37.5 58.5z" />
    <glyph glyph-name="Ohungarumlaut" unicode="&#x150;" horiz-adv-x="668" 
d="M641 331q0 -166 -84 -254.5t-227 -88.5q-145 0 -224 87.5t-79 255.5q0 92 28 161.5t75.5 108t101.5 57.5t113 19q62 0 113.5 -19t93.5 -58.5t65.5 -108t23.5 -160.5zM240 340q0 -182 97 -182q92 0 92 170q0 31 -4 58.5t-13.5 56t-30 45.5t-49.5 17q-48 0 -70 -47
t-22 -118zM135 754l185 175q74 -53 74 -93q0 -21 -12 -36.5t-43 -33.5q-85 -48 -162 -70zM386 754l185 173q74 -48 74 -91q0 -21 -11.5 -37t-42.5 -33q-37 -21 -87 -42t-76 -28z" />
    <glyph glyph-name="ohungarumlaut" unicode="&#x151;" horiz-adv-x="534" 
d="M269 129q23 0 32.5 28.5t9.5 98.5q0 73 -9.5 103.5t-33.5 30.5q-41 0 -41 -116q0 -72 8 -108.5t34 -36.5zM20 252q0 75 23.5 132t62 88t81.5 46t88 15q30 0 57.5 -4t63.5 -20t61.5 -43t43.5 -77.5t18 -118.5q0 -134 -73 -210t-185 -76q-114 0 -177.5 67.5t-63.5 200.5z
M85 610l130 215q104 -31 104 -89q0 -27 -38 -64q-30 -30 -74 -62.5t-67 -45.5zM299 610l132 215q38 -10 70 -32.5t32 -56.5q0 -27 -38 -64q-30 -30 -74 -62.5t-67 -45.5z" />
    <glyph glyph-name="OE" unicode="&#x152;" horiz-adv-x="917" 
d="M343 676q53 0 105 -11h432v-182h-250v-54h214v-180h-214v-67h257v-182h-436q-69 -16 -127 -16q-143 0 -220 89t-77 258q0 74 19 134t49.5 98.5t72.5 64.5t85.5 37t89.5 11zM240 340q0 -186 107 -186q47 0 74 17v313q-35 20 -78 20q-103 0 -103 -164z" />
    <glyph glyph-name="oe" unicode="&#x153;" horiz-adv-x="770" 
d="M574 533q85 0 135 -42t50 -127q0 -159 -247 -183q3 -22 25 -35.5t54 -13.5q60 0 123 41l50 -132l-37 -21q-79 -36 -167 -36q-96 0 -162 57q-59 -57 -149 -57q-107 0 -168 67.5t-61 200.5q0 76 22.5 133t59.5 88t77 45.5t82 14.5q103 0 155 -66q72 66 158 66zM269 129
q23 0 32.5 28.5t9.5 98.5q0 73 -9.5 103.5t-33.5 30.5q-41 0 -41 -116q0 -72 8 -108.5t34 -36.5zM587 366q0 27 -25 27q-23 0 -40.5 -23.5t-19.5 -69.5q39 4 62 23.5t23 42.5z" />
    <glyph glyph-name="Racute" unicode="&#x154;" horiz-adv-x="616" 
d="M254 245v-245h-208v665h248q129 0 199 -44t70 -148q0 -54 -28.5 -99t-71.5 -65q25 -14 46 -60l110 -249h-224l-87 218q-12 27 -45 27h-9zM254 389h40q27 0 42 16t15 45t-14 41.5t-45 12.5h-38v-115zM185 752l182 175q33 -19 55 -44t22 -49q0 -21 -11.5 -36.5t-42.5 -32.5
q-75 -42 -163 -70z" />
    <glyph glyph-name="racute" unicode="&#x155;" horiz-adv-x="406" 
d="M248 310v-310h-202v409l-15 108h161l16 -69q36 85 114 85q50 0 83 -19l-25 -169q-40 18 -73 18q-59 0 -59 -53zM130 610l130 215q39 -10 71 -32.5t32 -56.5q0 -27 -37 -64q-31 -30 -75 -62.5t-67 -45.5z" />
    <glyph glyph-name="Rcommaaccent" unicode="&#x156;" horiz-adv-x="616" 
d="M254 245v-245h-208v665h248q129 0 199 -44t70 -148q0 -54 -28.5 -99t-71.5 -65q25 -14 46 -60l110 -249h-224l-87 218q-12 27 -45 27h-9zM254 389h40q27 0 42 16t15 45t-14 41.5t-45 12.5h-38v-115zM249 -43l-62 -219l67 -32q58 64 95 127q22 37 22 62q0 20 -11.5 33
t-33.5 18.5t-37.5 7.5t-39.5 3z" />
    <glyph glyph-name="rcommaaccent" unicode="&#x157;" horiz-adv-x="406" 
d="M248 310v-310h-202v409l-15 108h161l16 -69q36 85 114 85q50 0 83 -19l-25 -169q-40 18 -73 18q-59 0 -59 -53zM101 -43l-62 -219l67 -32q58 64 95 127q22 37 22 62q0 20 -11.5 33t-33.5 18.5t-37.5 7.5t-39.5 3z" />
    <glyph glyph-name="Rcaron" unicode="&#x158;" horiz-adv-x="616" 
d="M254 245v-245h-208v665h248q129 0 199 -44t70 -148q0 -54 -28.5 -99t-71.5 -65q25 -14 46 -60l110 -249h-224l-87 218q-12 27 -45 27h-9zM254 389h40q27 0 42 16t15 45t-14 41.5t-45 12.5h-38v-115zM155 901l115 -85l118 85l58 -56q-42 -51 -102 -111q-42 -42 -74 -42
t-75 44q-49 50 -99 110z" />
    <glyph glyph-name="rcaron" unicode="&#x159;" horiz-adv-x="406" 
d="M248 310v-310h-202v409l-15 108h161l16 -69q36 85 114 85q50 0 83 -19l-25 -169q-40 18 -73 18q-59 0 -59 -53zM339 808l63 -50q-54 -82 -115 -151q-25 -27 -38 -35.5t-36 -8.5q-25 0 -38 8t-37 36q-61 70 -118 150l63 51l130 -107z" />
    <glyph glyph-name="Sacute" unicode="&#x15a;" horiz-adv-x="547" 
d="M0 60l68 170q39 -24 98 -43.5t94 -19.5q42 0 42 33q0 18 -18 28.5t-63 23.5q-38 11 -66 23.5t-60 36t-49 60.5t-17 86q0 104 71 161.5t182 57.5q73 0 140.5 -27t115.5 -76l-107 -136q-93 65 -147 65q-38 0 -38 -29q0 -19 21 -31t69 -27q33 -11 55 -20t50 -26.5
t44.5 -37.5t28.5 -52t12 -71q0 -105 -74 -163t-192 -58q-70 0 -145 22.5t-115 49.5zM160 752l182 175q33 -19 55 -44t22 -49q0 -21 -11.5 -36.5t-42.5 -32.5q-75 -42 -163 -70z" />
    <glyph glyph-name="sacute" unicode="&#x15b;" horiz-adv-x="443" 
d="M2 42l49 141q34 -20 80.5 -37t75.5 -17q26 0 26 20q0 9 -8 16t-15.5 10t-26.5 10q-40 13 -58.5 21t-47.5 27t-42 47.5t-13 67.5q0 84 62 134.5t151 50.5q127 0 213 -78l-88 -114q-72 50 -112 50q-29 0 -29 -23q0 -13 13 -22t42 -19q38 -14 58 -23t48 -28.5t41 -47.5
t13 -66q0 -86 -58.5 -132t-158.5 -46q-66 0 -124.5 18t-90.5 40zM135 610l130 215q39 -10 71 -32.5t32 -56.5q0 -27 -37 -64q-31 -30 -75 -62.5t-67 -45.5z" />
    <glyph glyph-name="Scircumflex" unicode="&#x15c;" horiz-adv-x="547" 
d="M0 60l68 170q39 -24 98 -43.5t94 -19.5q42 0 42 33q0 18 -18 28.5t-63 23.5q-38 11 -66 23.5t-60 36t-49 60.5t-17 86q0 104 71 161.5t182 57.5q73 0 140.5 -27t115.5 -76l-107 -136q-93 65 -147 65q-38 0 -38 -29q0 -19 21 -31t69 -27q33 -11 55 -20t50 -26.5
t44.5 -37.5t28.5 -52t12 -71q0 -105 -74 -163t-192 -58q-70 0 -145 22.5t-115 49.5zM284 777l-115 -85l-59 55q50 60 99 110q43 44 75 44t74 -42q60 -60 102 -111l-58 -56z" />
    <glyph glyph-name="scircumflex" unicode="&#x15d;" horiz-adv-x="443" 
d="M2 42l49 141q34 -20 80.5 -37t75.5 -17q26 0 26 20q0 9 -8 16t-15.5 10t-26.5 10q-40 13 -58.5 21t-47.5 27t-42 47.5t-13 67.5q0 84 62 134.5t151 50.5q127 0 213 -78l-88 -114q-72 50 -112 50q-29 0 -29 -23q0 -13 13 -22t42 -19q38 -14 58 -23t48 -28.5t41 -47.5
t13 -66q0 -86 -58.5 -132t-158.5 -46q-66 0 -124.5 18t-90.5 40zM104 563l-62 50q54 82 115 151q25 27 38 35.5t36 8.5q24 0 36.5 -8t37.5 -36q54 -61 118 -150l-62 -51l-130 107z" />
    <glyph glyph-name="Scedilla" unicode="&#x15e;" horiz-adv-x="547" 
d="M0 60l68 170q39 -24 98 -43.5t94 -19.5q42 0 42 33q0 18 -18 28.5t-63 23.5q-38 11 -66 23.5t-60 36t-49 60.5t-17 86q0 104 71 161.5t182 57.5q73 0 140.5 -27t115.5 -76l-107 -136q-93 65 -147 65q-38 0 -38 -29q0 -19 21 -31t69 -27q33 -11 55 -20t50 -26.5
t44.5 -37.5t28.5 -52t12 -71q0 -94 -59.5 -150t-158.5 -68l-11 -43q46 -5 74.5 -29.5t28.5 -61.5q0 -34 -14 -58t-37.5 -35t-45.5 -15t-46 -4q-60 0 -106 18l22 78q36 -13 68 -13q49 0 49 26q0 33 -92 33l32 102q-65 5 -130 26t-100 45z" />
    <glyph glyph-name="scedilla" unicode="&#x15f;" horiz-adv-x="443" 
d="M2 42l49 141q34 -20 80.5 -37t75.5 -17q26 0 26 20q0 9 -8 16t-15.5 10t-26.5 10q-40 13 -58.5 21t-47.5 27t-42 47.5t-13 67.5q0 84 62 134.5t151 50.5q127 0 213 -78l-88 -114q-72 50 -112 50q-29 0 -29 -23q0 -13 13 -22t42 -19q38 -14 58 -23t48 -28.5t41 -47.5
t13 -66q0 -76 -46.5 -121t-129.5 -54l-10 -39q46 -5 74.5 -29.5t28.5 -61.5q0 -34 -14 -58t-37.5 -35t-45.5 -15t-46 -4q-60 0 -106 18l22 78q36 -13 68 -13q49 0 49 26q0 33 -92 33l31 99q-112 10 -178 56z" />
    <glyph glyph-name="Scaron" unicode="&#x160;" horiz-adv-x="547" 
d="M0 60l68 170q39 -24 98 -43.5t94 -19.5q42 0 42 33q0 18 -18 28.5t-63 23.5q-38 11 -66 23.5t-60 36t-49 60.5t-17 86q0 104 71 161.5t182 57.5q73 0 140.5 -27t115.5 -76l-107 -136q-93 65 -147 65q-38 0 -38 -29q0 -19 21 -31t69 -27q33 -11 55 -20t50 -26.5
t44.5 -37.5t28.5 -52t12 -71q0 -105 -74 -163t-192 -58q-70 0 -145 22.5t-115 49.5zM164 901l115 -85l118 85l58 -56q-42 -51 -102 -111q-42 -42 -74 -42t-75 44q-49 50 -99 110z" />
    <glyph glyph-name="scaron" unicode="&#x161;" horiz-adv-x="443" 
d="M2 42l49 141q34 -20 80.5 -37t75.5 -17q26 0 26 20q0 9 -8 16t-15.5 10t-26.5 10q-40 13 -58.5 21t-47.5 27t-42 47.5t-13 67.5q0 84 62 134.5t151 50.5q127 0 213 -78l-88 -114q-72 50 -112 50q-29 0 -29 -23q0 -13 13 -22t42 -19q38 -14 58 -23t48 -28.5t41 -47.5
t13 -66q0 -86 -58.5 -132t-158.5 -46q-66 0 -124.5 18t-90.5 40zM360 808l63 -50q-54 -82 -115 -151q-25 -27 -38 -35.5t-36 -8.5q-25 0 -38 8t-37 36q-61 70 -118 150l63 51l130 -107z" />
    <glyph glyph-name="uni0162" unicode="&#x162;" horiz-adv-x="503" 
d="M14 665h553v-182h-176v-483h-70l-14 -52q46 -5 74.5 -29.5t28.5 -61.5q0 -34 -14 -58t-37.5 -35t-45.5 -15t-46 -4q-60 0 -106 18l22 78q36 -13 68 -13q49 0 49 26q0 33 -92 33l36 113h-61v483h-169v182z" />
    <glyph glyph-name="uni0163" unicode="&#x163;" horiz-adv-x="321" 
d="M43 695h203v-178h119v-156h-119v-160q0 -66 55 -66q21 0 46 14l42 -128q-59 -37 -154 -37h-2l-10 -36q46 -5 74.5 -29.5t28.5 -61.5q0 -34 -14 -58t-37.5 -35t-45.5 -15t-46 -4q-60 0 -106 18l22 78q36 -13 68 -13q49 0 49 26q0 33 -92 33l33 106q-38 10 -62.5 29.5
t-35 49.5t-13.5 55.5t-3 63.5v504z" />
    <glyph glyph-name="Tcaron" unicode="&#x164;" horiz-adv-x="581" 
d="M14 665h553v-182h-176v-483h-208v483h-169v182zM170 901l115 -85l118 85l58 -56q-42 -51 -102 -111q-42 -42 -74 -42t-75 44q-49 50 -99 110z" />
    <glyph glyph-name="tcaron" unicode="&#x165;" horiz-adv-x="388" 
d="M43 695h203v-178h119v-156h-119v-160q0 -66 55 -66q21 0 46 14l42 -128q-59 -37 -154 -37q-52 0 -89 12.5t-57 31t-30.5 48.5t-13 54.5t-2.5 60.5v504zM294 574v233q38 8 65 8q73 0 73 -56q0 -34 -23.5 -97.5t-43.5 -102.5z" />
    <glyph glyph-name="Tbar" unicode="&#x166;" horiz-adv-x="580" 
d="M14 665h552v-182h-176v-153h83v-121h-83v-209h-208v209h-81v121h81v153h-168v182z" />
    <glyph glyph-name="tbar" unicode="&#x167;" horiz-adv-x="388" 
d="M43 695h203v-178h119v-156h-119v-41h119v-123h-119q1 -62 55 -62q21 0 46 14l42 -128q-59 -37 -154 -37q-52 0 -89 12.5t-57 31t-30.5 48.5t-13 54.5t-2.5 60.5v504z" />
    <glyph glyph-name="Utilde" unicode="&#x168;" horiz-adv-x="629" 
d="M41 665h207v-427q0 -77 69 -77q29 0 46.5 18.5t17.5 53.5v432h207v-453q0 -103 -76 -163.5t-199 -60.5q-137 0 -204.5 57.5t-67.5 179.5v440zM169 721l-14 106q43 32 90 32q29 0 75 -13.5t70 -13.5q31 0 67 19l11 -112q-34 -20 -72 -20q-24 0 -75.5 12t-71.5 12
q-40 0 -80 -22z" />
    <glyph glyph-name="utilde" unicode="&#x169;" horiz-adv-x="548" 
d="M303 517h202v-411l12 -106h-169l-7 41h-6q-43 -54 -120 -54q-174 0 -174 186v344h202v-322q0 -30 5 -43t22 -13q15 0 24 13.5t9 34.5v330zM133 610l-13 106q44 33 90 33q29 0 75 -14t70 -14q32 0 67 20l10 -113q-34 -20 -72 -20q-24 0 -75.5 12t-71.5 12q-40 0 -80 -22z
" />
    <glyph glyph-name="Umacron" unicode="&#x16a;" horiz-adv-x="629" 
d="M41 665h207v-427q0 -77 69 -77q29 0 46.5 18.5t17.5 53.5v432h207v-453q0 -103 -76 -163.5t-199 -60.5q-137 0 -204.5 57.5t-67.5 179.5v440zM144 719v131h340v-131h-340z" />
    <glyph glyph-name="umacron" unicode="&#x16b;" horiz-adv-x="548" 
d="M303 517h202v-411l12 -106h-169l-7 41h-6q-43 -54 -120 -54q-174 0 -174 186v344h202v-322q0 -30 5 -43t22 -13q15 0 24 13.5t9 34.5v330zM108 606v130h340v-130h-340z" />
    <glyph glyph-name="Ubreve" unicode="&#x16c;" horiz-adv-x="629" 
d="M41 665h207v-427q0 -77 69 -77q29 0 46.5 18.5t17.5 53.5v432h207v-453q0 -103 -76 -163.5t-199 -60.5q-137 0 -204.5 57.5t-67.5 179.5v440zM403 910l103 -48q-58 -143 -194 -143q-82 0 -129.5 44t-63.5 96l106 51q17 -38 37 -57.5t54 -19.5q32 0 49.5 17.5t37.5 59.5z
" />
    <glyph glyph-name="ubreve" unicode="&#x16d;" horiz-adv-x="548" 
d="M303 517h202v-411l12 -106h-169l-7 41h-6q-43 -54 -120 -54q-174 0 -174 186v344h202v-322q0 -30 5 -43t22 -13q15 0 24 13.5t9 34.5v330zM368 774l99 -28q-47 -162 -191 -162q-84 0 -129 47.5t-62 114.5l103 28q18 -42 37.5 -59t54.5 -17q31 0 50.5 17.5t37.5 58.5z" />
    <glyph glyph-name="Uring" unicode="&#x16e;" horiz-adv-x="629" 
d="M41 665h207v-427q0 -77 69 -77q29 0 46.5 18.5t17.5 53.5v432h207v-453q0 -103 -76 -163.5t-199 -60.5q-137 0 -204.5 57.5t-67.5 179.5v440zM205 806q0 50 34.5 83.5t85.5 33.5q56 0 88 -32t32 -80q0 -52 -34 -85.5t-88 -33.5q-55 0 -86.5 32t-31.5 82zM290 806
q0 -38 35 -38t35 38q0 40 -35 40t-35 -40z" />
    <glyph glyph-name="uring" unicode="&#x16f;" horiz-adv-x="548" 
d="M303 517h202v-411l12 -106h-169l-7 41h-6q-43 -54 -120 -54q-174 0 -174 186v344h202v-322q0 -30 5 -43t22 -13q15 0 24 13.5t9 34.5v330zM169 679q0 46 31 75.5t78 29.5q51 0 80 -28.5t29 -71.5q0 -48 -31 -78.5t-80 -30.5q-50 0 -78.5 29.5t-28.5 74.5zM246 679
q0 -35 32 -35t32 35t-32 35t-32 -35z" />
    <glyph glyph-name="Uhungarumlaut" unicode="&#x170;" horiz-adv-x="629" 
d="M41 665h207v-427q0 -77 69 -77q29 0 46.5 18.5t17.5 53.5v432h207v-453q0 -103 -76 -163.5t-199 -60.5q-137 0 -204.5 57.5t-67.5 179.5v440zM88 754l185 175q74 -53 74 -93q0 -21 -12 -36.5t-43 -33.5q-85 -48 -162 -70zM339 754l185 173q74 -48 74 -91q0 -21 -11.5 -37
t-42.5 -33q-37 -21 -87 -42t-76 -28z" />
    <glyph glyph-name="uhungarumlaut" unicode="&#x171;" horiz-adv-x="548" 
d="M303 517h202v-411l12 -106h-169l-7 41h-6q-43 -54 -120 -54q-174 0 -174 186v344h202v-322q0 -30 5 -43t22 -13q15 0 24 13.5t9 34.5v330zM91 610l130 215q104 -31 104 -89q0 -27 -38 -64q-30 -30 -74 -62.5t-67 -45.5zM305 610l132 215q38 -10 70 -32.5t32 -56.5
q0 -27 -38 -64q-30 -30 -74 -62.5t-67 -45.5z" />
    <glyph glyph-name="Uogonek" unicode="&#x172;" horiz-adv-x="629" 
d="M41 665h207v-427q0 -77 69 -77q29 0 46.5 18.5t17.5 53.5v432h207v-453q0 -75 -41 -125.5t-118 -90.5q-30 -16 -55.5 -49.5t-25.5 -58.5q0 -31 33 -31q24 0 47 11l33 -96q-41 -24 -109 -24q-66 0 -99 30t-33 76q0 68 67 135q-123 5 -184.5 62.5t-61.5 173.5v440z" />
    <glyph glyph-name="uogonek" unicode="&#x173;" horiz-adv-x="548" 
d="M303 517h202v-411l12 -106q-33 -21 -57 -54t-24 -58q0 -31 33 -31q24 0 47 11l33 -96q-41 -24 -109 -24q-66 0 -99 30t-33 76q0 76 79 146h-39l-7 41h-6q-43 -54 -120 -54q-174 0 -174 186v344h202v-322q0 -30 5 -43t22 -13q15 0 24 13.5t9 34.5v330z" />
    <glyph glyph-name="Wcircumflex" unicode="&#x174;" horiz-adv-x="823" 
d="M487 0l-62 306h-6l-66 -306h-216l-137 665h208l59 -370h3l57 322h197l48 -304h5l39 352h207l-125 -665h-211zM409 777l-115 -85l-59 55q50 60 99 110q43 44 75 44t74 -42q60 -60 102 -111l-58 -56z" />
    <glyph glyph-name="wcircumflex" unicode="&#x175;" horiz-adv-x="774" 
d="M521 517h199q32 -115 32 -237q0 -142 -59.5 -217.5t-172.5 -75.5q-85 0 -138 58q-59 -58 -151 -58t-141 47t-49 139v344h202v-343q0 -34 22 -34q26 0 26 41v336h200v-340q0 -14 0.5 -20.5t5 -11.5t14.5 -5q42 0 42 137q0 106 -32 240zM259 563l-62 50q54 82 115 151
q25 27 38 35.5t36 8.5q24 0 36.5 -8t37.5 -36q54 -61 118 -150l-62 -51l-130 107z" />
    <glyph glyph-name="Ycircumflex" unicode="&#x176;" horiz-adv-x="625" 
d="M419 665h216l-224 -408v-257h-208v256l-213 409h227l93 -217h4zM305 777l-115 -85l-59 55q50 60 99 110q43 44 75 44t74 -42q60 -60 102 -111l-58 -56z" />
    <glyph glyph-name="ycircumflex" unicode="&#x177;" horiz-adv-x="541" 
d="M506 148q0 -112 -1 -140q-6 -134 -70.5 -204t-186.5 -70q-88 0 -135 38t-47 105q0 97 94 169q-63 14 -91 52.5t-28 105.5v313h202v-309q0 -28 5 -40t23 -12q12 0 22 13.5t10 35.5v312h203v-369zM239 -84q0 -39 33 -39q20 0 28 14.5t8 47.5v100q-26 -20 -47.5 -52.5
t-21.5 -70.5zM146 563l-62 50q54 82 115 151q25 27 38 35.5t36 8.5q24 0 36.5 -8t37.5 -36q54 -61 118 -150l-62 -51l-130 107z" />
    <glyph glyph-name="Ydieresis" unicode="&#x178;" horiz-adv-x="625" 
d="M419 665h216l-224 -408v-257h-208v256l-213 409h227l93 -217h4zM335 785q0 34 24 57.5t63 23.5t63 -23.5t24 -57.5t-24 -57t-63 -23q-40 0 -63.5 22.5t-23.5 57.5zM103 785q0 34 24 57.5t63 23.5t63 -23.5t24 -57.5t-24 -57t-63 -23q-40 0 -63.5 22.5t-23.5 57.5z" />
    <glyph glyph-name="Zacute" unicode="&#x179;" horiz-adv-x="539" 
d="M515 552l-253 -394h263v-158h-507v122l246 386h-242v157h493v-113zM155 752l182 175q33 -19 55 -44t22 -49q0 -21 -11.5 -36.5t-42.5 -32.5q-75 -42 -163 -70z" />
    <glyph glyph-name="zacute" unicode="&#x17a;" horiz-adv-x="451" 
d="M175 -76q0 -42 38 -42q24 0 38 24t14 61q0 46 -22 67q-68 -52 -68 -110zM445 517v-105l-193 -187l49 -20q75 -30 112.5 -87.5t37.5 -132.5q0 -109 -72 -179.5t-182 -70.5q-98 0 -148 44t-50 122q0 130 140 208q-32 19 -84 36v97l132 121h-173v154h431zM134 610l130 215
q39 -10 71 -32.5t32 -56.5q0 -27 -37 -64q-31 -30 -75 -62.5t-67 -45.5z" />
    <glyph glyph-name="Zdotaccent" unicode="&#x17b;" horiz-adv-x="539" 
d="M515 552l-253 -394h263v-158h-507v122l246 386h-242v157h493v-113zM163 808q0 40 28 68t74 28t75 -28t29 -68q0 -41 -28.5 -68t-74.5 -27q-47 0 -75 27t-28 68z" />
    <glyph glyph-name="zdotaccent" unicode="&#x17c;" horiz-adv-x="451" 
d="M175 -76q0 -42 38 -42q24 0 38 24t14 61q0 46 -22 67q-68 -52 -68 -110zM445 517v-105l-193 -187l49 -20q75 -30 112.5 -87.5t37.5 -132.5q0 -109 -72 -179.5t-182 -70.5q-98 0 -148 44t-50 122q0 130 140 208q-32 19 -84 36v97l132 121h-173v154h431zM115 665
q0 40 28 68t74 28t75 -28t29 -68q0 -41 -28.5 -68t-74.5 -27q-47 0 -75 27t-28 68z" />
    <glyph glyph-name="Zcaron" unicode="&#x17d;" horiz-adv-x="539" 
d="M515 552l-253 -394h263v-158h-507v122l246 386h-242v157h493v-113zM149 901l115 -85l118 85l58 -56q-42 -51 -102 -111q-42 -42 -74 -42t-75 44q-49 50 -99 110z" />
    <glyph glyph-name="zcaron" unicode="&#x17e;" horiz-adv-x="451" 
d="M175 -76q0 -42 38 -42q24 0 38 24t14 61q0 46 -22 67q-68 -52 -68 -110zM445 517v-105l-193 -187l49 -20q75 -30 112.5 -87.5t37.5 -132.5q0 -109 -72 -179.5t-182 -70.5q-98 0 -148 44t-50 122q0 130 140 208q-32 19 -84 36v97l132 121h-173v154h431zM345 808l63 -50
q-54 -82 -115 -151q-25 -27 -38 -35.5t-36 -8.5q-25 0 -38 8t-37 36q-61 70 -118 150l63 51l130 -107z" />
    <glyph glyph-name="longs" unicode="&#x17f;" horiz-adv-x="377" 
d="M247 558v-768h-201v745q0 35 3 61t15 56t32.5 49t58 31.5t89.5 12.5q38 0 87 -13.5t85 -33.5l-43 -127q-53 28 -89 28q-18 0 -27.5 -8.5t-9.5 -32.5z" />
    <glyph glyph-name="florin" unicode="&#x192;" horiz-adv-x="616" 
d="M59 231l24 158h123l10 61q8 44 19.5 76t35 64.5t65 49.5t99.5 17q105 0 180 -48l-63 -122q-34 20 -74 20q-50 0 -59 -47l-13 -71h131l-27 -158h-130l-41 -238q-7 -41 -19.5 -72t-37.5 -63.5t-70.5 -50t-108.5 -17.5q-39 0 -85.5 13.5t-77.5 33.5l61 125q35 -22 78 -22
q47 0 55 46l44 245h-119z" />
    <glyph glyph-name="Scommaaccent" unicode="&#x218;" horiz-adv-x="547" 
d="M0 60l68 170q39 -24 98 -43.5t94 -19.5q42 0 42 33q0 18 -18 28.5t-63 23.5q-38 11 -66 23.5t-60 36t-49 60.5t-17 86q0 104 71 161.5t182 57.5q73 0 140.5 -27t115.5 -76l-107 -136q-93 65 -147 65q-38 0 -38 -29q0 -19 21 -31t69 -27q33 -11 55 -20t50 -26.5
t44.5 -37.5t28.5 -52t12 -71q0 -105 -74 -163t-192 -58q-70 0 -145 22.5t-115 49.5zM216 -43l-62 -219l67 -32q58 64 95 127q22 37 22 62q0 20 -11.5 33t-33.5 18.5t-37.5 7.5t-39.5 3z" />
    <glyph glyph-name="scommaaccent" unicode="&#x219;" horiz-adv-x="443" 
d="M2 42l49 141q34 -20 80.5 -37t75.5 -17q26 0 26 20q0 9 -8 16t-15.5 10t-26.5 10q-40 13 -58.5 21t-47.5 27t-42 47.5t-13 67.5q0 84 62 134.5t151 50.5q127 0 213 -78l-88 -114q-72 50 -112 50q-29 0 -29 -23q0 -13 13 -22t42 -19q38 -14 58 -23t48 -28.5t41 -47.5
t13 -66q0 -86 -58.5 -132t-158.5 -46q-66 0 -124.5 18t-90.5 40zM167 -43l-62 -219l67 -32q58 64 95 127q22 37 22 62q0 20 -11.5 33t-33.5 18.5t-37.5 7.5t-39.5 3z" />
    <glyph glyph-name="uni021A" unicode="&#x21a;" horiz-adv-x="503" 
d="M14 665h553v-182h-176v-483h-208v483h-169v182zM229 -43l-62 -219l67 -32q58 64 95 127q22 37 22 62q0 20 -11.5 33t-33.5 18.5t-37.5 7.5t-39.5 3z" />
    <glyph glyph-name="uni021B" unicode="&#x21b;" horiz-adv-x="321" 
d="M43 695h203v-178h119v-156h-119v-160q0 -66 55 -66q21 0 46 14l42 -128q-59 -37 -154 -37q-52 0 -89 12.5t-57 31t-30.5 48.5t-13 54.5t-2.5 60.5v504zM153 -43l-62 -219l67 -32q58 64 95 127q22 37 22 62q0 20 -11.5 33t-33.5 18.5t-37.5 7.5t-39.5 3z" />
    <glyph glyph-name="dotlessj" unicode="&#x237;" horiz-adv-x="282" 
d="M45 4v513h201v-533q0 -36 -2.5 -60t-12.5 -54.5t-28.5 -49t-53.5 -31.5t-84 -13q-95 0 -169 42l50 137q33 -15 56 -15q43 0 43 64z" />
    <glyph glyph-name="apostrophe" unicode="&#x2bc;" horiz-adv-x="252" 
d="M68 475l33 232q28 4 43 4q72 0 72 -55q0 -62 -88 -200z" />
    <glyph glyph-name="circumflex" unicode="&#x2c6;" horiz-adv-x="500" 
d="M121 563l-62 50q54 82 115 151q25 27 38 35.5t36 8.5q24 0 36.5 -8t37.5 -36q54 -61 118 -150l-62 -51l-130 107z" />
    <glyph glyph-name="caron" unicode="&#x2c7;" horiz-adv-x="500" 
d="M377 808l63 -50q-54 -82 -115 -151q-25 -27 -38 -35.5t-36 -8.5q-25 0 -38 8t-37 36q-61 70 -118 150l63 51l130 -107z" />
    <glyph glyph-name="uni02C9" unicode="&#x2c9;" horiz-adv-x="500" 
d="M80 606v130h340v-130h-340z" />
    <glyph glyph-name="breve" unicode="&#x2d8;" horiz-adv-x="500" 
d="M340 774l99 -28q-47 -162 -191 -162q-84 0 -129 47.5t-62 114.5l103 28q18 -42 37.5 -59t54.5 -17q31 0 50.5 17.5t37.5 58.5z" />
    <glyph glyph-name="dotaccent" unicode="&#x2d9;" horiz-adv-x="500" 
d="M147 665q0 40 28 68t74 28t75 -28t29 -68q0 -41 -28.5 -68t-74.5 -27q-47 0 -75 27t-28 68z" />
    <glyph glyph-name="ring" unicode="&#x2da;" horiz-adv-x="500" 
d="M141 679q0 46 31 75.5t78 29.5q51 0 80 -28.5t29 -71.5q0 -48 -31 -78.5t-80 -30.5q-50 0 -78.5 29.5t-28.5 74.5zM218 679q0 -35 32 -35t32 35t-32 35t-32 -35z" />
    <glyph glyph-name="ogonek" unicode="&#x2db;" horiz-adv-x="500" 
d="M211 2l118 -1q-28 -22 -50 -55.5t-22 -57.5q0 -31 33 -31q24 0 47 11l33 -96q-41 -24 -109 -24q-66 0 -99 30t-33 76q0 76 82 148z" />
    <glyph glyph-name="tilde" unicode="&#x2dc;" horiz-adv-x="500" 
d="M105 610l-13 106q44 33 90 33q29 0 75 -14t70 -14q32 0 67 20l10 -113q-34 -20 -72 -20q-24 0 -75.5 12t-71.5 12q-40 0 -80 -22z" />
    <glyph glyph-name="hungarumlaut" unicode="&#x2dd;" horiz-adv-x="500" 
d="M23 610l130 215q104 -31 104 -89q0 -27 -38 -64q-30 -30 -74 -62.5t-67 -45.5zM237 610l132 215q38 -10 70 -32.5t32 -56.5q0 -27 -38 -64q-30 -30 -74 -62.5t-67 -45.5z" />
    <glyph glyph-name="uni0394" unicode="&#x394;" horiz-adv-x="678" 
d="M678 0h-678l240 657h200zM430 152l-89 288h-6l-87 -288h182z" />
    <glyph glyph-name="uni03A9" unicode="&#x3a9;" horiz-adv-x="758" 
d="M258 331q0 -131 89 -194v-137h-317v181h106q-89 78 -89 182q0 136 94 215.5t238 79.5q160 0 248 -71t88 -207q0 -56 -28 -110t-67 -89h108v-181h-300v137q77 71 77 188q0 74 -32 118t-90 44q-54 0 -89.5 -35.5t-35.5 -120.5z" />
    <glyph glyph-name="uni03BC" unicode="&#x3bc;" horiz-adv-x="575" 
d="M522 517v-370q0 -31 24 -31q9 0 21 3l14 -108q-49 -24 -107 -24q-71 0 -98 63q-9 -32 -30.5 -49.5t-49.5 -17.5q-37 0 -67 33v-232h-176v733h186v-325q0 -70 47 -70q20 0 34 23t14 63v309h188z" />
    <glyph glyph-name="pi" unicode="&#x3c0;" horiz-adv-x="643" 
d="M614 361h-69v-196q0 -23 5.5 -32t19.5 -9q9 0 31 5l22 -112q-53 -28 -128 -28q-136 0 -136 137v235h-64v-361h-186v361h-69v156h574v-156z" />
    <glyph glyph-name="Wgrave" unicode="&#x1e80;" horiz-adv-x="823" 
d="M487 0l-62 306h-6l-66 -306h-216l-137 665h208l59 -370h3l57 322h197l48 -304h5l39 352h207l-125 -665h-211zM367 925l182 -174l-42 -57q-93 31 -163 70q-31 17 -42.5 32.5t-11.5 36.5q0 24 22 48.5t55 43.5z" />
    <glyph glyph-name="wgrave" unicode="&#x1e81;" horiz-adv-x="774" 
d="M521 517h199q32 -115 32 -237q0 -142 -59.5 -217.5t-172.5 -75.5q-85 0 -138 58q-59 -58 -151 -58t-141 47t-49 139v344h202v-343q0 -34 22 -34q26 0 26 41v336h200v-340q0 -14 0.5 -20.5t5 -11.5t14.5 -5q42 0 42 137q0 106 -32 240zM373 825l131 -215l-55 -46
q-23 13 -67 45.5t-75 62.5q-37 37 -37 64q0 34 32 56.5t71 32.5z" />
    <glyph glyph-name="Wacute" unicode="&#x1e82;" horiz-adv-x="823" 
d="M487 0l-62 306h-6l-66 -306h-216l-137 665h208l59 -370h3l57 322h197l48 -304h5l39 352h207l-125 -665h-211zM290 752l182 175q33 -19 55 -44t22 -49q0 -21 -11.5 -36.5t-42.5 -32.5q-75 -42 -163 -70z" />
    <glyph glyph-name="wacute" unicode="&#x1e83;" horiz-adv-x="774" 
d="M521 517h199q32 -115 32 -237q0 -142 -59.5 -217.5t-172.5 -75.5q-85 0 -138 58q-59 -58 -151 -58t-141 47t-49 139v344h202v-343q0 -34 22 -34q26 0 26 41v336h200v-340q0 -14 0.5 -20.5t5 -11.5t14.5 -5q42 0 42 137q0 106 -32 240zM272 610l130 215q39 -10 71 -32.5
t32 -56.5q0 -27 -37 -64q-31 -30 -75 -62.5t-67 -45.5z" />
    <glyph glyph-name="Wdieresis" unicode="&#x1e84;" horiz-adv-x="823" 
d="M487 0l-62 306h-6l-66 -306h-216l-137 665h208l59 -370h3l57 322h197l48 -304h5l39 352h207l-125 -665h-211zM439 785q0 34 24 57.5t63 23.5t63 -23.5t24 -57.5t-24 -57t-63 -23q-40 0 -63.5 22.5t-23.5 57.5zM207 785q0 34 24 57.5t63 23.5t63 -23.5t24 -57.5t-24 -57
t-63 -23q-40 0 -63.5 22.5t-23.5 57.5z" />
    <glyph glyph-name="wdieresis" unicode="&#x1e85;" horiz-adv-x="774" 
d="M521 517h199q32 -115 32 -237q0 -142 -59.5 -217.5t-172.5 -75.5q-85 0 -138 58q-59 -58 -151 -58t-141 47t-49 139v344h202v-343q0 -34 22 -34q26 0 26 41v336h200v-340q0 -14 0.5 -20.5t5 -11.5t14.5 -5q42 0 42 137q0 106 -32 240zM411 672q0 34 24 57t63 23t63 -23
t24 -57t-24 -57t-63 -23q-40 0 -63.5 22.5t-23.5 57.5zM188 672q0 34 24 57t63 23t63 -23t24 -57t-24 -57t-63 -23q-40 0 -63.5 22.5t-23.5 57.5z" />
    <glyph glyph-name="Ygrave" unicode="&#x1ef2;" horiz-adv-x="625" 
d="M419 665h216l-224 -408v-257h-208v256l-213 409h227l93 -217h4zM263 925l182 -174l-42 -57q-92 31 -163 70q-31 17 -42.5 32.5t-11.5 36.5q0 24 22 48.5t55 43.5z" />
    <glyph glyph-name="ygrave" unicode="&#x1ef3;" horiz-adv-x="541" 
d="M506 148q0 -112 -1 -140q-6 -134 -70.5 -204t-186.5 -70q-88 0 -135 38t-47 105q0 97 94 169q-63 14 -91 52.5t-28 105.5v313h202v-309q0 -28 5 -40t23 -12q12 0 22 13.5t10 35.5v312h203v-369zM239 -84q0 -39 33 -39q20 0 28 14.5t8 47.5v100q-26 -20 -47.5 -52.5
t-21.5 -70.5zM260 825l131 -215l-55 -46q-23 13 -67 45.5t-75 62.5q-37 37 -37 64q0 34 32 56.5t71 32.5z" />
    <glyph glyph-name="endash" unicode="&#x2013;" horiz-adv-x="500" 
d="M0 207v124h500v-124h-500z" />
    <glyph glyph-name="emdash" unicode="&#x2014;" horiz-adv-x="1000" 
d="M0 207v124h1000v-124h-1000z" />
    <glyph glyph-name="quoteleft" unicode="&#x2018;" horiz-adv-x="265" 
d="M197 446q-30 -5 -59 -5q-42 0 -72.5 16.5t-30.5 55.5q0 47 36 114t77 117l100 -37z" />
    <glyph glyph-name="quoteright" unicode="&#x2019;" horiz-adv-x="267" 
d="M74 728q24 6 68 6q100 2 100 -70q0 -44 -36.5 -116.5t-68.5 -116.5l-102 32z" />
    <glyph glyph-name="quotesinglbase" unicode="&#x201a;" horiz-adv-x="239" 
d="M228 71l-114 -248l-103 33q16 159 35 224q12 50 67 50q31 0 63.5 -19.5t51.5 -39.5z" />
    <glyph glyph-name="quotedblleft" unicode="&#x201c;" horiz-adv-x="480" 
d="M197 446q-30 -5 -59 -5q-42 0 -72.5 16.5t-30.5 55.5q0 47 36 114t77 117l100 -37zM412 446q-30 -5 -59 -5q-42 0 -72.5 16.5t-30.5 55.5q0 47 36 114t77 117l100 -37z" />
    <glyph glyph-name="quotedblright" unicode="&#x201d;" horiz-adv-x="482" 
d="M74 728q24 6 68 6q100 2 100 -70q0 -44 -36.5 -116.5t-68.5 -116.5l-102 32zM289 728q24 6 68 6q100 2 100 -70q0 -44 -36.5 -116.5t-68.5 -116.5l-102 32z" />
    <glyph glyph-name="quotedblbase" unicode="&#x201e;" horiz-adv-x="454" 
d="M228 71l-114 -248l-103 33q16 159 35 224q12 50 67 50q31 0 63.5 -19.5t51.5 -39.5zM443 71l-114 -248l-103 33q16 159 35 224q12 50 67 50q31 0 63.5 -19.5t51.5 -39.5z" />
    <glyph glyph-name="dagger" unicode="&#x2020;" horiz-adv-x="495" 
d="M252 449h-9q-64 -64 -64 -119v-333q0 -44 18 -92t45 -78h10q29 32 46 79.5t17 90.5v333q0 56 -63 119zM253 478h-10q-64 63 -64 122q0 79 66 79q70 0 70 -79q0 -59 -62 -122zM262 457v10q62 62 123 62q79 0 79 -70q0 -66 -79 -66q-59 0 -123 64zM232 467v-10
q-63 -64 -122 -64q-79 0 -79 66q0 70 79 70q25 0 58.5 -16t63.5 -46z" />
    <glyph glyph-name="daggerdbl" unicode="&#x2021;" horiz-adv-x="495" 
d="M253 10h-10q-64 -63 -64 -122q0 -79 66 -79q70 0 70 79q0 59 -62 122zM262 31v-10q62 -62 123 -62q79 0 79 70q0 66 -79 66q-59 0 -123 -64zM232 21v10q-63 64 -122 64q-79 0 -79 -66q0 -70 79 -70q25 0 58.5 16t63.5 46zM252 449h-9q-64 -64 -64 -119v-167
q0 -57 63 -120h10q63 60 63 120v167q0 56 -63 119zM253 478h-10q-64 63 -64 122q0 79 66 79q70 0 70 -79q0 -59 -62 -122zM262 457v10q62 62 123 62q79 0 79 -70q0 -66 -79 -66q-59 0 -123 64zM232 467v-10q-63 -64 -122 -64q-79 0 -79 66q0 70 79 70q25 0 58.5 -16
t63.5 -46z" />
    <glyph glyph-name="bullet" unicode="&#x2022;" horiz-adv-x="500" 
d="M112 317q0 65 39 106t99 41t99 -41t39 -106t-39 -105.5t-99 -40.5t-99 40t-39 106z" />
    <glyph glyph-name="ellipsis" unicode="&#x2026;" horiz-adv-x="852" 
d="M336 70q0 38 24 62.5t67 24.5q46 0 70 -23t24 -63q0 -39 -23.5 -64t-67.5 -25q-46 0 -70 24.5t-24 63.5zM617 70q0 38 24 62.5t67 24.5q46 0 70 -23t24 -63q0 -39 -23.5 -64t-67.5 -25q-46 0 -70 24.5t-24 63.5zM50 70q0 38 24 62.5t67 24.5q46 0 70 -23t24 -63
q0 -39 -23.5 -64t-67.5 -25q-46 0 -70 24.5t-24 63.5z" />
    <glyph glyph-name="perthousand" unicode="&#x2030;" horiz-adv-x="983" 
d="M810 288q63 0 103 -37.5t40 -113.5q0 -80 -40.5 -117.5t-107.5 -37.5q-141 0 -141 154q0 76 41.5 114t104.5 38zM806 62q15 0 22 15t7 59q0 42 -6.5 56.5t-20.5 14.5t-20 -15.5t-6 -60.5q0 -69 24 -69zM501 288q63 0 103 -37.5t40 -113.5q0 -80 -40 -117.5t-107 -37.5
q-142 0 -142 154q0 76 41.5 114t104.5 38zM497 62q15 0 22 15t7 59q0 42 -6.5 56.5t-20.5 14.5t-20 -15.5t-6 -60.5q0 -69 24 -69zM176 657q63 0 102.5 -38t39.5 -114q0 -79 -40 -116.5t-107 -37.5q-141 0 -141 154q0 77 41 114.5t105 37.5zM172 430q15 0 22 15t7 59
q0 42 -6.5 56.5t-20.5 14.5q-15 0 -21 -15.5t-6 -60.5q0 -69 25 -69zM149 81l-83 101l441 367l85 -101z" />
    <glyph glyph-name="guilsinglleft" unicode="&#x2039;" horiz-adv-x="362" 
d="M333 410l-102 -149l95 -156l-71 -66q-51 35 -116 94t-86 98q-9 17 -9 37q0 31 36 65q91 85 179 149z" />
    <glyph glyph-name="guilsinglright" unicode="&#x203a;" horiz-adv-x="362" 
d="M131 261l-102 149l74 72q88 -64 179 -149q36 -34 36 -65q0 -20 -9 -37q-21 -39 -86 -98t-116 -94l-71 66z" />
    <glyph glyph-name="fraction" unicode="&#x2044;" horiz-adv-x="190" 
d="M7 -19l-120 52l292 625l122 -50z" />
    <glyph glyph-name="zerosuperior" unicode="&#x2070;" horiz-adv-x="377" 
d="M191 737q75 0 122 -47.5t47 -150.5q0 -100 -47 -151.5t-127 -51.5q-79 0 -124.5 49t-45.5 151q0 99 48.5 150t126.5 51zM188 438q42 0 42 100q0 98 -42 98q-43 0 -43 -103q0 -95 43 -95z" />
    <glyph glyph-name="foursuperior" unicode="&#x2074;" horiz-adv-x="377" 
d="M232 604h76v-94h47v-93h-48v-76h-132v78h-152v68l121 260l108 -51l-95 -186h36z" />
    <glyph glyph-name="fivesuperior" unicode="&#x2075;" horiz-adv-x="377" 
d="M73 516l28 215h217v-98h-131l-5 -37q77 -5 118 -34t41 -91q0 -57 -38.5 -96t-124.5 -39q-40 0 -80.5 12.5t-52.5 22.5l35 94q47 -27 91 -27q38 0 38 30q0 27 -34.5 37t-101.5 11z" />
    <glyph glyph-name="sixsuperior" unicode="&#x2076;" horiz-adv-x="377" 
d="M259 751l26 -93q-58 -8 -87.5 -24.5t-42.5 -54.5q35 23 81 23q50 0 82 -32t32 -91q0 -64 -41.5 -103.5t-117.5 -39.5q-75 0 -116.5 46t-41.5 131q0 93 53 160.5t173 77.5zM231 470q0 45 -37 45q-17 0 -37 -12q-2 -71 42 -71q32 0 32 38z" />
    <glyph glyph-name="sevensuperior" unicode="&#x2077;" horiz-adv-x="377" 
d="M57 633v98h296v-79q-119 -99 -119 -290v-21h-128v26q0 165 89 266h-138z" />
    <glyph glyph-name="eightsuperior" unicode="&#x2078;" horiz-adv-x="377" 
d="M42 442q0 74 72 106q-59 25 -59 86q0 41 35.5 72t102.5 31q74 0 104.5 -28.5t30.5 -66.5q0 -32 -13.5 -51t-37.5 -36q66 -40 66 -103q0 -47 -36.5 -81.5t-115.5 -34.5t-114 30.5t-35 75.5zM223 450q0 24 -32 39q-29 -18 -29 -41q0 -29 29 -29q16 0 24 9t8 22zM191 662
q-25 0 -25 -25q0 -8 8 -19.5t21 -17.5q21 13 21 38q0 24 -25 24z" />
    <glyph glyph-name="ninesuperior" unicode="&#x2079;" horiz-adv-x="377" 
d="M112 319l-26 96q119 17 134 80q-36 -24 -85 -24q-50 0 -81.5 32t-31.5 91q0 64 41 103.5t117 39.5q75 0 117 -46.5t42 -130.5q0 -214 -227 -241zM140 604q0 -47 37 -47q14 0 38 11q0 73 -42 73q-15 0 -24 -9.5t-9 -27.5z" />
    <glyph glyph-name="zeroinferior" unicode="&#x2080;" horiz-adv-x="377" 
d="M191 316q75 0 122 -47.5t47 -150.5q0 -100 -47 -151.5t-127 -51.5q-79 0 -124.5 49t-45.5 151q0 99 48.5 150t126.5 51zM188 17q42 0 42 100q0 98 -42 98q-43 0 -43 -103q0 -95 43 -95z" />
    <glyph glyph-name="oneinferior" unicode="&#x2081;" horiz-adv-x="377" 
d="M66 24h69v148l-66 -25l-41 83l138 80h111l-8 -87v-199h62v-104h-265v104z" />
    <glyph glyph-name="twoinferior" unicode="&#x2082;" horiz-adv-x="377" 
d="M98 161l-72 82q78 73 167 73q70 0 107 -30.5t37 -83.5q0 -63 -65 -128l-44 -45h117v-109h-301v80l120 131q26 29 26 48q0 23 -21 23q-25 0 -71 -41z" />
    <glyph glyph-name="threeinferior" unicode="&#x2083;" horiz-adv-x="377" 
d="M92 177l-58 77q23 20 69.5 41t102.5 21q59 0 93.5 -27.5t34.5 -71.5q0 -51 -48 -83q53 -39 53 -93t-40 -90t-118 -36q-69 0 -143 35l34 93q50 -28 98 -28q33 0 33 21q0 11 -15 39q-17 -6 -74 -14l-25 79q62 13 82 21q26 10 26 30q0 19 -22 19q-27 0 -83 -33z" />
    <glyph glyph-name="fourinferior" unicode="&#x2084;" horiz-adv-x="377" 
d="M232 183h76v-94h47v-93h-48v-76h-132v78h-152v68l121 260l108 -51l-95 -186h36z" />
    <glyph glyph-name="fiveinferior" unicode="&#x2085;" horiz-adv-x="377" 
d="M73 95l28 215h217v-98h-131l-5 -37q77 -5 118 -34t41 -91q0 -57 -38.5 -96t-124.5 -39q-40 0 -80.5 12.5t-52.5 22.5l35 94q47 -27 91 -27q38 0 38 30q0 27 -34.5 37t-101.5 11z" />
    <glyph glyph-name="sixinferior" unicode="&#x2086;" horiz-adv-x="377" 
d="M259 330l26 -93q-58 -8 -87.5 -24.5t-42.5 -54.5q35 23 81 23q50 0 82 -32t32 -91q0 -64 -41.5 -103.5t-117.5 -39.5q-75 0 -116.5 46t-41.5 131q0 93 53 160.5t173 77.5zM231 49q0 45 -37 45q-17 0 -37 -12q-2 -71 42 -71q32 0 32 38z" />
    <glyph glyph-name="seveninferior" unicode="&#x2087;" horiz-adv-x="377" 
d="M57 212v98h296v-79q-119 -99 -119 -290v-21h-128v26q0 165 89 266h-138z" />
    <glyph glyph-name="eightinferior" unicode="&#x2088;" horiz-adv-x="377" 
d="M42 21q0 74 72 106q-59 25 -59 86q0 41 35.5 72t102.5 31q74 0 104.5 -28.5t30.5 -66.5q0 -32 -13.5 -51t-37.5 -36q66 -40 66 -103q0 -47 -36.5 -81.5t-115.5 -34.5t-114 30.5t-35 75.5zM223 29q0 24 -32 39q-29 -18 -29 -41q0 -29 29 -29q16 0 24 9t8 22zM191 241
q-25 0 -25 -25q0 -8 8 -19.5t21 -17.5q21 13 21 38q0 24 -25 24z" />
    <glyph glyph-name="nineinferior" unicode="&#x2089;" horiz-adv-x="377" 
d="M112 -102l-26 96q119 17 134 80q-36 -24 -85 -24q-50 0 -81.5 32t-31.5 91q0 64 41 103.5t117 39.5q75 0 117 -46.5t42 -130.5q0 -214 -227 -241zM140 183q0 -47 37 -47q14 0 38 11q0 73 -42 73q-15 0 -24 -9.5t-9 -27.5z" />
    <glyph glyph-name="Euro" unicode="&#x20ac;" 
d="M25 250v147h88q-39 37 -39 87q0 80 59 126.5t169 46.5q57 0 118.5 -25t108.5 -77l-99 -111q-38 30 -63 42.5t-58 12.5q-59 0 -59 -50q0 -52 75 -52h122v-147h-119q-80 0 -80 -57q0 -54 73 -54q64 0 141 52l72 -130q-106 -78 -242 -78q-115 0 -169 44.5t-54 121.5
q0 57 40 101h-84z" />
    <glyph glyph-name="trademark" unicode="&#x2122;" horiz-adv-x="710" 
d="M21 665h286v-100h-86v-236h-118v236h-82v100zM559 665h117l16 -336h-105l-4 141h-4l-30 -109h-82l-33 109l-3 1l-5 -142h-104l18 336h118l49 -171h3z" />
    <glyph glyph-name="Omega" unicode="&#x2126;" horiz-adv-x="758" 
d="M258 331q0 -131 89 -194v-137h-317v181h106q-89 78 -89 182q0 136 94 215.5t238 79.5q160 0 248 -71t88 -207q0 -56 -28 -110t-67 -89h108v-181h-300v137q77 71 77 188q0 74 -32 118t-90 44q-54 0 -89.5 -35.5t-35.5 -120.5z" />
    <glyph glyph-name="onethird" unicode="&#x2153;" horiz-adv-x="875" 
d="M55 365h69v148l-66 -25l-41 83l138 80h111l-8 -87v-199h62v-104h-265v104zM355 -19l-120 52l292 625l122 -50zM611 257l-58 77q23 20 69.5 41t102.5 21q59 0 93.5 -27.5t34.5 -71.5q0 -51 -48 -83q53 -39 53 -93t-40 -90t-118 -36q-69 0 -143 35l34 93q50 -28 98 -28
q33 0 33 21q0 11 -15 39q-17 -6 -74 -14l-25 79q62 13 82 21q26 10 26 30q0 19 -22 19q-27 0 -83 -33z" />
    <glyph glyph-name="twothirds" unicode="&#x2154;" horiz-adv-x="875" 
d="M72 502l-72 82q78 73 167 73q70 0 107 -30.5t37 -83.5q0 -63 -65 -128l-44 -45h117v-109h-301v80l120 131q26 29 26 48q0 23 -21 23q-25 0 -71 -41zM361 -19l-120 52l292 625l122 -50zM612 257l-58 77q23 20 69.5 41t102.5 21q59 0 93.5 -27.5t34.5 -71.5q0 -51 -48 -83
q53 -39 53 -93t-40 -90t-118 -36q-69 0 -143 35l34 93q50 -28 98 -28q33 0 33 21q0 11 -15 39q-17 -6 -74 -14l-25 79q62 13 82 21q26 10 26 30q0 19 -22 19q-27 0 -83 -33z" />
    <glyph glyph-name="oneeighth" unicode="&#x215b;" horiz-adv-x="875" 
d="M50 365h69v148l-66 -25l-41 83l138 80h111l-8 -87v-199h62v-104h-265v104zM359 -19l-120 52l292 625l122 -50zM556 101q0 74 72 106q-59 25 -59 86q0 41 35.5 72t102.5 31q74 0 104.5 -28.5t30.5 -66.5q0 -32 -13.5 -51t-37.5 -36q66 -40 66 -103q0 -47 -36.5 -81.5
t-115.5 -34.5t-114 30.5t-35 75.5zM737 109q0 24 -32 39q-29 -18 -29 -41q0 -29 29 -29q16 0 24 9t8 22zM705 321q-25 0 -25 -25q0 -8 8 -19.5t21 -17.5q21 13 21 38q0 24 -25 24z" />
    <glyph glyph-name="threeeighths" unicode="&#x215c;" horiz-adv-x="875" 
d="M73 518l-58 77q23 20 69.5 41t102.5 21q59 0 93.5 -27.5t34.5 -71.5q0 -52 -48 -83q53 -39 53 -93t-40 -90t-118 -36q-69 0 -143 35l34 93q50 -28 98 -28q33 0 33 21q0 11 -15 39q-17 -6 -74 -14l-25 79q62 13 82 21q26 10 26 30q0 19 -22 19q-27 0 -83 -33zM347 -19
l-120 52l292 625l122 -50zM553 101q0 74 72 106q-59 25 -59 86q0 41 35.5 72t102.5 31q74 0 104.5 -28.5t30.5 -66.5q0 -32 -13.5 -51t-37.5 -36q66 -40 66 -103q0 -47 -36.5 -81.5t-115.5 -34.5t-114 30.5t-35 75.5zM734 109q0 24 -32 39q-29 -18 -29 -41q0 -29 29 -29
q16 0 24 9t8 22zM702 321q-25 0 -25 -25q0 -8 8 -19.5t21 -17.5q21 13 21 38q0 24 -25 24z" />
    <glyph glyph-name="fiveeighths" unicode="&#x215d;" horiz-adv-x="875" 
d="M56 436l28 215h217v-98h-131l-5 -37q77 -5 118 -34t41 -91q0 -57 -38.5 -96t-124.5 -39q-40 0 -80.5 12.5t-52.5 22.5l35 94q47 -27 91 -27q38 0 38 30q0 27 -34.5 37t-101.5 11zM346 -19l-120 52l292 625l122 -50zM538 101q0 74 72 106q-59 25 -59 86q0 41 35.5 72
t102.5 31q74 0 104.5 -28.5t30.5 -66.5q0 -32 -13.5 -51t-37.5 -36q66 -40 66 -103q0 -47 -36.5 -81.5t-115.5 -34.5t-114 30.5t-35 75.5zM719 109q0 24 -32 39q-29 -18 -29 -41q0 -29 29 -29q16 0 24 9t8 22zM687 321q-25 0 -25 -25q0 -8 8 -19.5t21 -17.5q21 13 21 38
q0 24 -25 24z" />
    <glyph glyph-name="seveneighths" unicode="&#x215e;" horiz-adv-x="875" 
d="M44 553v98h296v-79q-119 -99 -119 -290v-21h-128v26q0 165 89 266h-138zM313 -19l-120 52l292 625l122 -50zM523 101q0 74 72 106q-59 25 -59 86q0 41 35.5 72t102.5 31q74 0 104.5 -28.5t30.5 -66.5q0 -32 -13.5 -51t-37.5 -36q66 -40 66 -103q0 -47 -36.5 -81.5
t-115.5 -34.5t-114 30.5t-35 75.5zM704 109q0 24 -32 39q-29 -18 -29 -41q0 -29 29 -29q16 0 24 9t8 22zM672 321q-25 0 -25 -25q0 -8 8 -19.5t21 -17.5q21 13 21 38q0 24 -25 24z" />
    <glyph glyph-name="partialdiff" unicode="&#x2202;" horiz-adv-x="567" 
d="M109 533l39 139q200 -34 284 -134t84 -266q0 -129 -56.5 -209t-183.5 -80q-120 0 -177.5 62.5t-57.5 163.5q0 98 56 159t144 61q38 0 90 -21l2 4q-20 41 -88 75t-136 46zM277 122q51 0 51 121q0 23 -1 36q-25 14 -46 14q-49 0 -49 -87q0 -84 45 -84z" />
    <glyph glyph-name="Delta" unicode="&#x2206;" horiz-adv-x="678" 
d="M678 0h-678l240 657h200zM430 152l-89 288h-6l-87 -288h182z" />
    <glyph glyph-name="product" unicode="&#x220f;" horiz-adv-x="697" 
d="M647 -132h-210v607h-177v-607h-210v789h597v-789z" />
    <glyph glyph-name="summation" unicode="&#x2211;" horiz-adv-x="567" 
d="M561 -132h-554v149l226 246l-218 245v149h527v-182h-244l173 -214l-182 -211h272v-182z" />
    <glyph glyph-name="minus" unicode="&#x2212;" 
d="M470 386v-160h-405v160h405z" />
    <glyph glyph-name="uni2215" unicode="&#x2215;" horiz-adv-x="476" 
d="M186 -124l-169 61l285 842l171 -59z" />
    <glyph glyph-name="uni2219" unicode="&#x2219;" horiz-adv-x="315" 
d="M64 362q0 38 24 62.5t67 24.5q46 0 70 -23t24 -63q0 -39 -23.5 -63.5t-67.5 -24.5q-46 0 -70 24t-24 63z" />
    <glyph glyph-name="radical" unicode="&#x221a;" horiz-adv-x="693" 
d="M738 731l-263 -745h-180l-118 339l-86 -42l-55 135l251 121l97 -294l160 486h194z" />
    <glyph glyph-name="infinity" unicode="&#x221e;" horiz-adv-x="764" 
d="M734 357q0 -77 -46 -126t-120 -49q-100 0 -184 86q-86 -88 -175 -88q-86 0 -132.5 46.5t-46.5 118.5q0 69 48.5 120.5t128.5 51.5q57 0 97 -22.5t81 -73.5q50 52 91.5 74.5t97.5 22.5q78 0 119 -47.5t41 -113.5zM576 349q0 32 -29 32q-21 0 -48 -33q23 -32 48 -32
q14 0 21.5 9.5t7.5 23.5zM267 347q-22 33 -46 33q-16 0 -25 -9t-9 -23q0 -32 33 -32q26 0 47 31z" />
    <glyph glyph-name="integral" unicode="&#x222b;" horiz-adv-x="390" 
d="M396 661l-18 -107q-50 12 -65 12q-21 0 -28 -15t-5 -54l26 -442q2 -34 2 -53q0 -79 -44.5 -118t-114.5 -39q-74 0 -146 25l18 107q50 -12 65 -12q20 0 27.5 15t5.5 52l-26 444q-2 34 -2 53q0 79 44.5 118t114.5 39q74 0 146 -25z" />
    <glyph glyph-name="approxequal" unicode="&#x2248;" horiz-adv-x="722" 
d="M487 74q-44 0 -89 17.5t-81 35t-58 17.5q-27 0 -51.5 -18t-56.5 -54l-113 98q23 31 38.5 49t41 41t54 34t61.5 11q45 0 120.5 -37.5t112.5 -37.5q52 0 105 73l115 -96q-72 -133 -199 -133zM487 355q-43 0 -88 17.5t-81.5 35.5t-58.5 18q-27 0 -51 -18t-56 -54l-114 97
q25 33 39.5 49.5t40.5 40.5t54.5 35t61.5 11q44 0 120 -37.5t113 -37.5q53 0 105 72l114 -96q-71 -133 -199 -133z" />
    <glyph glyph-name="notequal" unicode="&#x2260;" 
d="M470 264v-160h-182l-14 -56h-158l14 56h-65v160h109l19 67h-128v160h172l18 63h150l-16 -63h81v-160h-123l-17 -67h140z" />
    <glyph glyph-name="lessequal" unicode="&#x2264;" 
d="M471 160v-160h-408v160h408zM487 514l-194 -91l196 -97l-68 -149l-355 179v123l354 182z" />
    <glyph glyph-name="greaterequal" unicode="&#x2265;" 
d="M63 0v160h408v-160h-408zM241 423l-194 91l67 147l354 -182v-123l-355 -179l-68 149z" />
    <glyph glyph-name="lozenge" unicode="&#x25ca;" horiz-adv-x="583" 
d="M554 329l-185 -329h-149l-185 327l186 330h147zM360 330l-66 131l-64 -134l67 -134z" />
    <glyph glyph-name="onefifth" unicode="&#xf500;" horiz-adv-x="875" 
d="M54 365h69v148l-66 -25l-41 83l138 80h111l-8 -87v-199h62v-104h-265v104zM369 -19l-120 52l292 625l122 -50zM577 175l28 215h217v-98h-131l-5 -37q77 -5 118 -34t41 -91q0 -57 -38.5 -96t-124.5 -39q-40 0 -80.5 12.5t-52.5 22.5l35 94q47 -27 91 -27q38 0 38 30
q0 27 -34.5 37t-101.5 11z" />
    <glyph glyph-name="twofifths" unicode="&#xf501;" horiz-adv-x="875" 
d="M87 502l-72 82q78 73 167 73q70 0 107 -30.5t37 -83.5q0 -63 -65 -128l-44 -45h117v-109h-301v80l120 131q26 29 26 48q0 23 -21 23q-25 0 -71 -41zM382 -19l-120 52l292 625l122 -50zM585 175l28 215h217v-98h-131l-5 -37q77 -5 118 -34t41 -91q0 -57 -38.5 -96
t-124.5 -39q-40 0 -80.5 12.5t-52.5 22.5l35 94q47 -27 91 -27q38 0 38 30q0 27 -34.5 37t-101.5 11z" />
    <glyph glyph-name="threefifths" unicode="&#xf502;" horiz-adv-x="875" 
d="M81 518l-58 77q23 20 69.5 41t102.5 21q59 0 93.5 -27.5t34.5 -71.5q0 -52 -48 -83q53 -39 53 -93t-40 -90t-118 -36q-69 0 -143 35l34 93q50 -28 98 -28q33 0 33 21q0 11 -15 39q-17 -6 -74 -14l-25 79q62 13 82 21q26 10 26 30q0 19 -22 19q-27 0 -83 -33zM363 -19
l-120 52l292 625l122 -50zM583 175l28 215h217v-98h-131l-5 -37q77 -5 118 -34t41 -91q0 -57 -38.5 -96t-124.5 -39q-40 0 -80.5 12.5t-52.5 22.5l35 94q47 -27 91 -27q38 0 38 30q0 27 -34.5 37t-101.5 11z" />
    <glyph glyph-name="fourfifths" unicode="&#xf503;" horiz-adv-x="875" 
d="M222 524h76v-94h47v-93h-48v-76h-132v78h-152v68l121 260l108 -51l-95 -186h36zM374 -19l-120 52l292 625l122 -50zM593 175l28 215h217v-98h-131l-5 -37q77 -5 118 -34t41 -91q0 -57 -38.5 -96t-124.5 -39q-40 0 -80.5 12.5t-52.5 22.5l35 94q47 -27 91 -27q38 0 38 30
q0 27 -34.5 37t-101.5 11z" />
    <glyph glyph-name="onesixth" unicode="&#xf504;" horiz-adv-x="875" 
d="M49 365h69v148l-66 -25l-41 83l138 80h111l-8 -87v-199h62v-104h-265v104zM354 -19l-120 52l292 625l122 -50zM772 410l26 -93q-58 -8 -87.5 -24.5t-42.5 -54.5q35 23 81 23q50 0 82 -32t32 -91q0 -64 -41.5 -103.5t-117.5 -39.5q-75 0 -116.5 46t-41.5 131
q0 93 53 160.5t173 77.5zM744 129q0 45 -37 45q-17 0 -37 -12q-2 -71 42 -71q32 0 32 38z" />
    <glyph glyph-name="fivesixths" unicode="&#xf505;" horiz-adv-x="875" 
d="M358 -19l-120 52l292 625l122 -50zM772 410l26 -93q-58 -8 -87.5 -24.5t-42.5 -54.5q35 23 81 23q50 0 82 -32t32 -91q0 -64 -41.5 -103.5t-117.5 -39.5q-75 0 -116.5 46t-41.5 131q0 93 53 160.5t173 77.5zM744 129q0 45 -37 45q-17 0 -37 -12q-2 -71 42 -71q32 0 32 38
zM56 436l28 215h217v-98h-131l-5 -37q77 -5 118 -34t41 -91q0 -57 -38.5 -96t-124.5 -39q-40 0 -80.5 12.5t-52.5 22.5l35 94q47 -27 91 -27q38 0 38 30q0 27 -34.5 37t-101.5 11z" />
    <glyph glyph-name="oneseventh" unicode="&#xf506;" horiz-adv-x="875" 
d="M48 365h69v148l-66 -25l-41 83l138 80h111l-8 -87v-199h62v-104h-265v104zM348 -19l-120 52l292 625l122 -50zM574 292v98h296v-79q-119 -99 -119 -290v-21h-128v26q0 165 89 266h-138z" />
    <glyph glyph-name="twosevenths" unicode="&#xf507;" horiz-adv-x="875" 
d="M81 502l-72 82q78 73 167 73q70 0 107 -30.5t37 -83.5q0 -63 -65 -128l-44 -45h117v-109h-301v80l120 131q26 29 26 48q0 23 -21 23q-25 0 -71 -41zM356 -19l-120 52l292 625l122 -50zM576 292v98h296v-79q-119 -99 -119 -290v-21h-128v26q0 165 89 266h-138z" />
    <glyph glyph-name="threesevenths" unicode="&#xf508;" horiz-adv-x="875" 
d="M81 518l-58 77q23 20 69.5 41t102.5 21q59 0 93.5 -27.5t34.5 -71.5q0 -52 -48 -83q53 -39 53 -93t-40 -90t-118 -36q-69 0 -143 35l34 93q50 -28 98 -28q33 0 33 21q0 11 -15 39q-17 -6 -74 -14l-25 79q62 13 82 21q26 10 26 30q0 19 -22 19q-27 0 -83 -33zM347 -19
l-120 52l292 625l122 -50zM571 292v98h296v-79q-119 -99 -119 -290v-21h-128v26q0 165 89 266h-138z" />
    <glyph glyph-name="foursevenths" unicode="&#xf509;" horiz-adv-x="875" 
d="M216 524h76v-94h47v-93h-48v-76h-132v78h-152v68l121 260l108 -51l-95 -186h36zM359 -19l-120 52l292 625l122 -50zM575 292v98h296v-79q-119 -99 -119 -290v-21h-128v26q0 165 89 266h-138z" />
    <glyph glyph-name="fivesevenths" unicode="&#xf50a;" horiz-adv-x="875" 
d="M54 436l28 215h217v-98h-131l-5 -37q77 -5 118 -34t41 -91q0 -57 -38.5 -96t-124.5 -39q-40 0 -80.5 12.5t-52.5 22.5l35 94q47 -27 91 -27q38 0 38 30q0 27 -34.5 37t-101.5 11zM344 -19l-120 52l292 625l122 -50zM568 292v98h296v-79q-119 -99 -119 -290v-21h-128v26
q0 165 89 266h-138z" />
    <glyph glyph-name="sixsevenths" unicode="&#xf50b;" horiz-adv-x="875" 
d="M247 671l26 -93q-58 -8 -87.5 -24.5t-42.5 -54.5q35 23 81 23q50 0 82 -32t32 -91q0 -64 -41.5 -103.5t-117.5 -39.5q-75 0 -116.5 46t-41.5 131q0 93 53 160.5t173 77.5zM219 390q0 45 -37 45q-17 0 -37 -12q-2 -71 42 -71q32 0 32 38zM351 -19l-120 52l292 625l122 -50
zM572 292v98h296v-79q-119 -99 -119 -290v-21h-128v26q0 165 89 266h-138z" />
    <glyph glyph-name="oneninth" unicode="&#xf50c;" horiz-adv-x="875" 
d="M55 365h69v148l-66 -25l-41 83l138 80h111l-8 -87v-199h62v-104h-265v104zM358 -19l-120 52l292 625l122 -50zM636 -22l-26 96q119 17 134 80q-36 -24 -85 -24q-50 0 -81.5 32t-31.5 91q0 64 41 103.5t117 39.5q75 0 117 -46.5t42 -130.5q0 -214 -227 -241zM664 263
q0 -47 37 -47q14 0 38 11q0 73 -42 73q-15 0 -24 -9.5t-9 -27.5z" />
    <glyph glyph-name="twoninths" unicode="&#xf50d;" horiz-adv-x="875" 
d="M86 502l-72 82q78 73 167 73q70 0 107 -30.5t37 -83.5q0 -63 -65 -128l-44 -45h117v-109h-301v80l120 131q26 29 26 48q0 23 -21 23q-25 0 -71 -41zM368 -19l-120 52l292 625l122 -50zM637 -22l-26 96q119 17 134 80q-36 -24 -85 -24q-50 0 -81.5 32t-31.5 91
q0 64 41 103.5t117 39.5q75 0 117 -46.5t42 -130.5q0 -214 -227 -241zM665 263q0 -47 37 -47q14 0 38 11q0 73 -42 73q-15 0 -24 -9.5t-9 -27.5z" />
    <glyph glyph-name="fourninths" unicode="&#xf50e;" horiz-adv-x="875" 
d="M223 524h76v-94h47v-93h-48v-76h-132v78h-152v68l121 260l108 -51l-95 -186h36zM363 -19l-120 52l292 625l122 -50zM633 -22l-26 96q119 17 134 80q-36 -24 -85 -24q-50 0 -81.5 32t-31.5 91q0 64 41 103.5t117 39.5q75 0 117 -46.5t42 -130.5q0 -214 -227 -241zM661 263
q0 -47 37 -47q14 0 38 11q0 73 -42 73q-15 0 -24 -9.5t-9 -27.5z" />
    <glyph glyph-name="fiveninths" unicode="&#xf50f;" horiz-adv-x="875" 
d="M53 436l28 215h217v-98h-131l-5 -37q77 -5 118 -34t41 -91q0 -57 -38.5 -96t-124.5 -39q-40 0 -80.5 12.5t-52.5 22.5l35 94q47 -27 91 -27q38 0 38 30q0 27 -34.5 37t-101.5 11zM342 -19l-120 52l292 625l122 -50zM622 -22l-26 96q119 17 134 80q-36 -24 -85 -24
q-50 0 -81.5 32t-31.5 91q0 64 41 103.5t117 39.5q75 0 117 -46.5t42 -130.5q0 -214 -227 -241zM650 263q0 -47 37 -47q14 0 38 11q0 73 -42 73q-15 0 -24 -9.5t-9 -27.5z" />
    <glyph glyph-name="sevenninths" unicode="&#xf510;" horiz-adv-x="875" 
d="M42 553v98h296v-79q-119 -99 -119 -290v-21h-128v26q0 165 89 266h-138zM320 -19l-120 52l292 625l122 -50zM616 -22l-26 96q119 17 134 80q-36 -24 -85 -24q-50 0 -81.5 32t-31.5 91q0 64 41 103.5t117 39.5q75 0 117 -46.5t42 -130.5q0 -214 -227 -241zM644 263
q0 -47 37 -47q14 0 38 11q0 73 -42 73q-15 0 -24 -9.5t-9 -27.5z" />
    <glyph glyph-name="eightninths" unicode="&#xf511;" horiz-adv-x="875" 
d="M26 362q0 74 72 106q-59 25 -59 86q0 41 35.5 72t102.5 31q74 0 104.5 -28.5t30.5 -66.5q0 -32 -13.5 -51t-37.5 -36q66 -40 66 -103q0 -47 -36.5 -81.5t-115.5 -34.5t-114 30.5t-35 75.5zM207 370q0 24 -32 39q-29 -18 -29 -41q0 -29 29 -29q16 0 24 9t8 22zM175 582
q-25 0 -25 -25q0 -8 8 -19.5t21 -17.5q21 13 21 38q0 24 -25 24zM349 -19l-120 52l292 625l122 -50zM630 -22l-26 96q119 17 134 80q-36 -24 -85 -24q-50 0 -81.5 32t-31.5 91q0 64 41 103.5t117 39.5q75 0 117 -46.5t42 -130.5q0 -214 -227 -241zM658 263q0 -47 37 -47
q14 0 38 11q0 73 -42 73q-15 0 -24 -9.5t-9 -27.5z" />
    <glyph glyph-name="commaaccent" unicode="&#xf6c3;" horiz-adv-x="500" 
d="M131 -262l62 219q24 -1 39.5 -3t37.5 -7.5t33.5 -18.5t11.5 -33q0 -25 -22 -62q-37 -63 -95 -127z" />
    <glyph glyph-name="zero.tosf" unicode="&#xf81e;" 
d="M273 533q119 0 187.5 -70t68.5 -199q0 -133 -69.5 -207t-192.5 -74q-124 0 -190.5 74t-66.5 195q0 130 73 205.5t190 75.5zM269 130q55 0 55 132q0 121 -53 121q-56 0 -56 -133q0 -120 54 -120z" />
    <glyph glyph-name="one.tosf" unicode="&#xf81f;" 
d="M81 151h113v145l-85 -42l-74 134l211 129h164l-13 -143v-223h110v-151h-426v151z" />
    <glyph glyph-name="two.tosf" unicode="&#xf820;" 
d="M126 297l-104 120q111 116 255 116q101 0 158.5 -46.5t57.5 -127.5q0 -58 -29.5 -100t-90.5 -86l-28 -20h173v-153h-493v111l192 141q63 46 63 85q0 31 -34 31q-41 0 -120 -71z" />
    <glyph glyph-name="three.tosf" unicode="&#xf821;" 
d="M406 227q81 -85 81 -161q0 -43 -16 -78t-56 -70t-120.5 -59.5t-197.5 -37.5l-35 152q126 18 173.5 42.5t47.5 55.5q0 19 -24 57q-39 -11 -107 -23l-47 140q89 14 131.5 33.5t42.5 51.5q0 33 -34 33t-127 -50l-90 127q122 93 260 93q88 0 140 -44.5t52 -114.5
q0 -93 -74 -147z" />
    <glyph glyph-name="four.tosf" unicode="&#xf822;" 
d="M341 296h118v-138h77v-158h-78v-164h-201v167h-254v122l189 413l170 -79l-139 -301h53z" />
    <glyph glyph-name="five.tosf" unicode="&#xf823;" 
d="M69 153l46 364h371v-154h-204l-8 -70q216 -18 216 -194q0 -235 -410 -283l-40 155q134 21 186.5 50.5t52.5 72.5q0 65 -124 65q-46 0 -86 -6z" />
    <glyph glyph-name="six.tosf" unicode="&#xf824;" 
d="M399 678l39 -149q-163 -21 -192 -128q36 19 91 19q83 0 127 -51t44 -145q0 -111 -59 -172t-175 -61q-120 0 -178 75.5t-58 214.5q0 53 9 102t34 101.5t64 92t104 67.5t150 34zM313 214q0 71 -35 71q-24 0 -44 -10q1 -73 9.5 -102.5t30.5 -29.5q39 0 39 71z" />
    <glyph glyph-name="seven.tosf" unicode="&#xf825;" 
d="M32 352v165h486v-130l-280 -551h-213l264 516h-257z" />
    <glyph glyph-name="eight.tosf" unicode="&#xf826;" 
d="M23 171q0 89 92 166q-75 58 -75 137q0 82 62 132.5t171 50.5q108 0 159 -45t51 -116q0 -70 -71 -143q100 -75 100 -169q0 -84 -64 -138.5t-190 -54.5q-68 0 -116.5 16t-73 43.5t-35 57t-10.5 63.5zM299 175q0 16 -8.5 30.5t-19 24.5t-29.5 26q-32 -41 -32 -75
q0 -20 11.5 -34.5t33.5 -14.5q21 0 32.5 12t11.5 31zM267 527q-13 0 -25 -9.5t-12 -28.5q0 -29 44 -63q33 33 33 63q0 38 -40 38z" />
    <glyph glyph-name="nine.tosf" unicode="&#xf827;" 
d="M143 -138l-40 149q84 11 131.5 34.5t63.5 80.5q-42 -21 -94 -21q-83 0 -126.5 50.5t-43.5 144.5q0 110 61.5 171.5t177.5 61.5q231 0 231 -289q0 -54 -8 -101.5t-32 -99t-62.5 -88.5t-105 -63t-153.5 -30zM229 310q0 -71 35 -71q24 0 44 10q-1 72 -9.5 102t-30.5 30
q-39 0 -39 -71z" />
    <glyph glyph-name="hyphen.case" horiz-adv-x="322" 
d="M30 239v146h262v-146h-262z" />
    <glyph glyph-name="zero.num" horiz-adv-x="377" 
d="M191 657q75 0 122 -47.5t47 -150.5q0 -100 -47 -151.5t-127 -51.5q-79 0 -124.5 49t-45.5 151q0 99 48.5 150t126.5 51zM188 358q42 0 42 100q0 98 -42 98q-43 0 -43 -103q0 -95 43 -95z" />
    <glyph glyph-name="one.num" horiz-adv-x="377" 
d="M66 365h69v148l-66 -25l-41 83l138 80h111l-8 -87v-199h62v-104h-265v104z" />
    <glyph glyph-name="two.num" horiz-adv-x="377" 
d="M98 502l-72 82q78 73 167 73q70 0 107 -30.5t37 -83.5q0 -63 -65 -128l-44 -45h117v-109h-301v80l120 131q26 29 26 48q0 23 -21 23q-25 0 -71 -41z" />
    <glyph glyph-name="three.num" horiz-adv-x="377" 
d="M92 518l-58 77q23 20 69.5 41t102.5 21q59 0 93.5 -27.5t34.5 -71.5q0 -52 -48 -83q53 -39 53 -93t-40 -90t-118 -36q-69 0 -143 35l34 93q50 -28 98 -28q33 0 33 21q0 11 -15 39q-17 -6 -74 -14l-25 79q62 13 82 21q26 10 26 30q0 19 -22 19q-27 0 -83 -33z" />
    <glyph glyph-name="four.num" horiz-adv-x="377" 
d="M232 524h76v-94h47v-93h-48v-76h-132v78h-152v68l121 260l108 -51l-95 -186h36z" />
    <glyph glyph-name="five.num" horiz-adv-x="377" 
d="M73 436l28 215h217v-98h-131l-5 -37q77 -5 118 -34t41 -91q0 -57 -38.5 -96t-124.5 -39q-40 0 -80.5 12.5t-52.5 22.5l35 94q47 -27 91 -27q38 0 38 30q0 27 -34.5 37t-101.5 11z" />
    <glyph glyph-name="six.num" horiz-adv-x="377" 
d="M259 671l26 -93q-58 -8 -87.5 -24.5t-42.5 -54.5q35 23 81 23q50 0 82 -32t32 -91q0 -64 -41.5 -103.5t-117.5 -39.5q-75 0 -116.5 46t-41.5 131q0 93 53 160.5t173 77.5zM231 390q0 45 -37 45q-17 0 -37 -12q-2 -71 42 -71q32 0 32 38z" />
    <glyph glyph-name="seven.num" horiz-adv-x="377" 
d="M57 553v98h296v-79q-119 -99 -119 -290v-21h-128v26q0 165 89 266h-138z" />
    <glyph glyph-name="eight.num" horiz-adv-x="377" 
d="M42 362q0 74 72 106q-59 25 -59 86q0 41 35.5 72t102.5 31q74 0 104.5 -28.5t30.5 -66.5q0 -32 -13.5 -51t-37.5 -36q66 -40 66 -103q0 -47 -36.5 -81.5t-115.5 -34.5t-114 30.5t-35 75.5zM223 370q0 24 -32 39q-29 -18 -29 -41q0 -29 29 -29q16 0 24 9t8 22zM191 582
q-25 0 -25 -25q0 -8 8 -19.5t21 -17.5q21 13 21 38q0 24 -25 24z" />
    <glyph glyph-name="nine.num" horiz-adv-x="377" 
d="M112 239l-26 96q119 17 134 80q-36 -24 -85 -24q-50 0 -81.5 32t-31.5 91q0 64 41 103.5t117 39.5q75 0 117 -46.5t42 -130.5q0 -214 -227 -241zM140 524q0 -47 37 -47q14 0 38 11q0 73 -42 73q-15 0 -24 -9.5t-9 -27.5z" />
    <glyph glyph-name="zero.denom" horiz-adv-x="377" 
d="M191 396q75 0 122 -47.5t47 -150.5q0 -100 -47 -151.5t-127 -51.5q-79 0 -124.5 49t-45.5 151q0 99 48.5 150t126.5 51zM188 97q42 0 42 100q0 98 -42 98q-43 0 -43 -103q0 -95 43 -95z" />
    <glyph glyph-name="one.denom" horiz-adv-x="377" 
d="M76 104h69v148l-66 -25l-41 83l138 80h111l-8 -87v-199h62v-104h-265v104z" />
    <glyph glyph-name="two.denom" horiz-adv-x="377" 
d="M98 241l-72 82q78 73 167 73q70 0 107 -30.5t37 -83.5q0 -63 -65 -128l-44 -45h117v-109h-301v80l120 131q26 29 26 48q0 23 -21 23q-25 0 -71 -41z" />
    <glyph glyph-name="three.denom" horiz-adv-x="377" 
d="M92 257l-58 77q23 20 69.5 41t102.5 21q59 0 93.5 -27.5t34.5 -71.5q0 -51 -48 -83q53 -39 53 -93t-40 -90t-118 -36q-69 0 -143 35l34 93q50 -28 98 -28q33 0 33 21q0 11 -15 39q-17 -6 -74 -14l-25 79q62 13 82 21q26 10 26 30q0 19 -22 19q-27 0 -83 -33z" />
    <glyph glyph-name="four.denom" horiz-adv-x="377" 
d="M232 263h76v-94h47v-93h-48v-76h-132v78h-152v68l121 260l108 -51l-95 -186h36z" />
    <glyph glyph-name="five.denom" horiz-adv-x="377" 
d="M73 175l28 215h217v-98h-131l-5 -37q77 -5 118 -34t41 -91q0 -57 -38.5 -96t-124.5 -39q-40 0 -80.5 12.5t-52.5 22.5l35 94q47 -27 91 -27q38 0 38 30q0 27 -34.5 37t-101.5 11z" />
    <glyph glyph-name="six.denom" horiz-adv-x="377" 
d="M259 410l26 -93q-58 -8 -87.5 -24.5t-42.5 -54.5q35 23 81 23q50 0 82 -32t32 -91q0 -64 -41.5 -103.5t-117.5 -39.5q-75 0 -116.5 46t-41.5 131q0 93 53 160.5t173 77.5zM231 129q0 45 -37 45q-17 0 -37 -12q-2 -71 42 -71q32 0 32 38z" />
    <glyph glyph-name="seven.denom" horiz-adv-x="377" 
d="M57 292v98h296v-79q-119 -99 -119 -290v-21h-128v26q0 165 89 266h-138z" />
    <glyph glyph-name="eight.denom" horiz-adv-x="377" 
d="M42 101q0 74 72 106q-59 25 -59 86q0 41 35.5 72t102.5 31q74 0 104.5 -28.5t30.5 -66.5q0 -32 -13.5 -51t-37.5 -36q66 -40 66 -103q0 -47 -36.5 -81.5t-115.5 -34.5t-114 30.5t-35 75.5zM223 109q0 24 -32 39q-29 -18 -29 -41q0 -29 29 -29q16 0 24 9t8 22zM191 321
q-25 0 -25 -25q0 -8 8 -19.5t21 -17.5q21 13 21 38q0 24 -25 24z" />
    <glyph glyph-name="nine.denom" horiz-adv-x="377" 
d="M112 -22l-26 96q119 17 134 80q-36 -24 -85 -24q-50 0 -81.5 32t-31.5 91q0 64 41 103.5t117 39.5q75 0 117 -46.5t42 -130.5q0 -214 -227 -241zM140 263q0 -47 37 -47q14 0 38 11q0 73 -42 73q-15 0 -24 -9.5t-9 -27.5z" />
    <glyph glyph-name="revcommaaccent" horiz-adv-x="500" 
d="M339 782l-61 -221q-24 2 -39.5 4t-38 8.5t-34 19.5t-11.5 33q0 25 22 62q43 70 95 127z" />
    <glyph glyph-name="tilde.cap" horiz-adv-x="500" 
d="M105 721l-14 106q43 32 90 32q29 0 75 -13.5t70 -13.5q31 0 67 19l11 -112q-34 -20 -72 -20q-24 0 -75.5 12t-71.5 12q-40 0 -80 -22z" />
    <glyph glyph-name="ring.cap" horiz-adv-x="500" 
d="M130 768q0 50 34.5 83.5t85.5 33.5q56 0 88 -32t32 -80q0 -52 -34 -85.5t-88 -33.5q-55 0 -86.5 32t-31.5 82zM215 768q0 -38 35 -38t35 38q0 40 -35 40t-35 -40z" />
    <glyph glyph-name="circumflex.cap" horiz-adv-x="500" 
d="M248 777l-115 -85l-59 55q50 60 99 110q43 44 75 44t74 -42q60 -60 102 -111l-58 -56z" />
    <glyph glyph-name="acute.cap" horiz-adv-x="500" 
d="M129 752l182 175q33 -19 55 -44t22 -49q0 -21 -11.5 -36.5t-42.5 -32.5q-75 -42 -163 -70z" />
    <glyph glyph-name="grave.cap" horiz-adv-x="500" 
d="M206 925l182 -174l-42 -57q-93 31 -163 70q-31 17 -42.5 32.5t-11.5 36.5q0 24 22 48.5t55 43.5z" />
    <glyph glyph-name="dieresis.cap" horiz-adv-x="500" 
d="M278 785q0 34 24 57.5t63 23.5t63 -23.5t24 -57.5t-24 -57t-63 -23q-40 0 -63.5 22.5t-23.5 57.5zM46 785q0 34 24 57.5t63 23.5t63 -23.5t24 -57.5t-24 -57t-63 -23q-40 0 -63.5 22.5t-23.5 57.5z" />
    <glyph glyph-name="caron.cap" horiz-adv-x="500" 
d="M133 901l115 -85l118 85l58 -56q-42 -51 -102 -111q-42 -42 -74 -42t-75 44q-49 50 -99 110z" />
    <glyph glyph-name="macron.cap" horiz-adv-x="500" 
d="M80 719v131h340v-131h-340z" />
    <glyph glyph-name="dotaccent.cap" horiz-adv-x="500" 
d="M147 808q0 40 28 68t74 28t75 -28t29 -68q0 -41 -28.5 -68t-74.5 -27q-47 0 -75 27t-28 68z" />
    <glyph glyph-name="cedilla.cap" horiz-adv-x="500" 
d="M212 3h77l-15 -55q46 -5 74.5 -29.5t28.5 -61.5q0 -34 -14 -58t-37.5 -35t-45.5 -15t-46 -4q-60 0 -106 18l22 78q36 -13 68 -13q49 0 49 26q0 33 -92 33z" />
    <glyph glyph-name="hungarumlaut.cap" horiz-adv-x="500" 
d="M24 754l185 175q74 -53 74 -93q0 -21 -12 -36.5t-43 -33.5q-85 -48 -162 -70zM275 754l185 173q74 -48 74 -91q0 -21 -11.5 -37t-42.5 -33q-37 -21 -87 -42t-76 -28z" />
    <glyph glyph-name="commaaccent.cap" horiz-adv-x="500" 
d="M131 -262l62 219q24 -1 39.5 -3t37.5 -7.5t33.5 -18.5t11.5 -33q0 -25 -22 -62q-37 -63 -95 -127z" />
    <glyph glyph-name="breve.cap" horiz-adv-x="500" 
d="M339 910l103 -48q-58 -143 -194 -143q-82 0 -129.5 44t-63.5 96l106 51q17 -38 37 -57.5t54 -19.5q32 0 49.5 17.5t37.5 59.5z" />
    <glyph glyph-name="caron.alt" horiz-adv-x="252" 
d="M70 454v233q38 8 65 8q73 0 73 -56q0 -34 -23.5 -97.5t-43.5 -102.5z" />
    <glyph glyph-name="ogonek.cap" horiz-adv-x="500" 
d="M211 2l118 -1q-28 -22 -50 -55.5t-22 -57.5q0 -31 33 -31q24 0 47 11l33 -96q-41 -24 -109 -24q-66 0 -99 30t-33 76q0 76 82 148z" />
    <glyph glyph-name="zero.tf" 
d="M271 657q119 0 183.5 -81t64.5 -248q0 -176 -65 -256.5t-189 -80.5q-127 0 -188 82t-61 253q0 168 68.5 249.5t186.5 81.5zM267 150q52 0 52 176q0 168 -50 168q-26 0 -38.5 -39.5t-12.5 -139.5q0 -165 49 -165z" />
    <glyph glyph-name="one.tf" 
d="M99 151h102v272l-85 -42l-74 133l211 130h164l-13 -143v-350h99v-151h-404v151z" />
    <glyph glyph-name="two.tf" 
d="M126 406l-109 134q119 117 257 117q107 0 163 -54.5t56 -144.5q0 -101 -88 -195l-94 -101h197v-162h-483v118l200 222q29 31 41 51t12 43q0 40 -36 40q-43 0 -116 -68z" />
    <glyph glyph-name="three.tf" 
d="M113 432l-93 128q21 18 52 37t92.5 39.5t123.5 20.5q88 0 140.5 -44.5t52.5 -114.5q0 -86 -77 -140q85 -83 85 -167t-61 -142t-181 -58q-122 0 -225 55l53 159q35 -19 84 -31.5t76 -12.5q51 0 51 27q0 16 -25 66q-57 -16 -109 -24l-45 140q80 15 124.5 33.5t44.5 47.5
q0 32 -35 32q-38 0 -128 -51z" />
    <glyph glyph-name="four.tf" 
d="M333 426h115v-140h77v-158h-78v-128h-202v131h-231v126l188 410l160 -79l-138 -302h45z" />
    <glyph glyph-name="five.tf" 
d="M75 278l44 366h363v-165h-202l-9 -80q96 -11 155.5 -59t59.5 -138q0 -84 -64 -147.5t-185 -63.5q-115 0 -223 53l56 158q92 -46 153 -46q53 0 53 48q0 74 -201 74z" />
    <glyph glyph-name="six.tf" 
d="M397 678l39 -149q-163 -21 -192 -128q36 19 91 19q83 0 127 -51t44 -145q0 -111 -59 -172t-175 -61q-120 0 -178 75.5t-58 214.5q0 53 9 102t34 101.5t64 92t104 67.5t150 34zM311 214q0 71 -35 71q-24 0 -44 -10q1 -73 9.5 -102.5t30.5 -29.5q39 0 39 71z" />
    <glyph glyph-name="seven.tf" 
d="M43 479v165h475v-130q-41 -32 -73.5 -72t-52 -73t-33.5 -78t-20 -68.5t-9 -66t-3 -48v-35.5v-73h-213v81q0 48 3.5 84.5t16 92.5t43.5 112.5t80 108.5h-214z" />
    <glyph glyph-name="eight.tf" 
d="M23 171q0 89 92 166q-75 58 -75 137q0 82 62 132.5t171 50.5q108 0 159 -45t51 -116q0 -70 -71 -143q100 -75 100 -169q0 -84 -64 -138.5t-190 -54.5q-68 0 -116.5 16t-73 43.5t-35 57t-10.5 63.5zM299 175q0 16 -8.5 30.5t-19 24.5t-29.5 26q-32 -41 -32 -75
q0 -20 11.5 -34.5t33.5 -14.5q21 0 32.5 12t11.5 31zM267 527q-13 0 -25 -9.5t-12 -28.5q0 -29 44 -63q33 33 33 63q0 38 -40 38z" />
    <glyph glyph-name="nine.tf" 
d="M143 -14l-40 149q84 11 131.5 34.5t63.5 80.5q-42 -21 -94 -21q-83 0 -126.5 50.5t-43.5 144.5q0 110 61.5 171.5t177.5 61.5q231 0 231 -289q0 -54 -8 -101.5t-32 -99t-62.5 -88.5t-105 -63t-153.5 -30zM229 434q0 -71 35 -71q24 0 44 10q-1 72 -9.5 102t-30.5 30
q-39 0 -39 -71z" />
    <glyph glyph-name="dollar.tf" 
d="M5 67l63 155q37 -24 92.5 -44t88.5 -20q45 0 45 32q0 20 -14.5 29t-55.5 22q-7 2 -10 3q-33 10 -51 16.5t-47 23t-44 35t-27.5 51t-12.5 72.5q0 75 41.5 125t113.5 69v111h162v-112q97 -23 161 -90l-100 -122q-83 62 -138 62q-17 0 -29.5 -8.5t-12.5 -23.5
q0 -20 19 -31.5t64 -26.5q29 -10 44 -16t40.5 -18t39.5 -25.5t29.5 -33t22 -45.5t6.5 -58q0 -72 -39 -121t-107 -70v-116h-162v108q-53 8 -103 27t-79 40z" />
    <glyph glyph-name="Euro.tf" 
d="M29 250v147h88q-39 37 -39 87q0 80 59 126.5t169 46.5q57 0 118.5 -25t108.5 -77l-99 -111q-38 30 -63 42.5t-58 12.5q-59 0 -59 -50q0 -52 75 -52h122v-147h-119q-80 0 -80 -57q0 -54 73 -54q64 0 141 52l72 -130q-106 -78 -242 -78q-115 0 -169 44.5t-54 121.5
q0 57 40 101h-84z" />
    <glyph glyph-name="cent.tf" 
d="M219 -60v123q-76 20 -123 81t-47 165q0 109 47.5 173.5t122.5 85.5v117h162v-116q79 -27 126 -101l-120 -101q-41 58 -76 58q-68 0 -68 -108q0 -110 68 -110q37 0 76 58l120 -101q-52 -80 -126 -101v-123h-162z" />
    <glyph glyph-name="sterling.tf" 
d="M9 117v133h77l38 185q24 117 80.5 169.5t156.5 52.5q73 0 126 -29.5t84 -65.5l-99 -114q-54 54 -94 54q-27 0 -40 -16.5t-22 -61.5l-36 -174h123v-132h-148l-6 -24q-18 -78 -79 -129l2 -3q54 20 94 20q32 0 87.5 -9.5t81.5 -9.5q40 0 71 15l-20 -162q-35 -7 -64 -7
q-47 0 -151.5 19t-157.5 19q-81 0 -157 -39v154q36 12 58.5 34.5t33.5 67.5l14 53h-53z" />
    <glyph glyph-name="yen.tf" 
d="M174 110h-121v114h121v53h-121v114h59l-117 253h206l82 -218h5l91 218h199l-129 -253h58v-114h-125v-53h125v-114h-125v-110h-208v110z" />
    <glyph glyph-name="florin.tf" 
d="M27 231l24 158h123l10 61q8 44 19.5 76t35 64.5t65 49.5t99.5 17q105 0 180 -48l-63 -122q-34 20 -74 20q-50 0 -59 -47l-13 -71h131l-27 -158h-130l-41 -238q-7 -41 -19.5 -72t-37.5 -63.5t-70.5 -50t-108.5 -17.5q-39 0 -85.5 13.5t-77.5 33.5l61 125q35 -22 78 -22
q47 0 55 46l44 245h-119z" />
    <glyph glyph-name="zero.osf" horiz-adv-x="557" 
d="M282 533q119 0 187.5 -70t68.5 -199q0 -133 -69.5 -207t-192.5 -74q-124 0 -190.5 74t-66.5 195q0 130 73 205.5t190 75.5zM278 130q55 0 55 132q0 121 -53 121q-56 0 -56 -133q0 -120 54 -120z" />
    <glyph glyph-name="one.osf" horiz-adv-x="521" 
d="M75 151h113v145l-85 -42l-74 134l211 129h164l-13 -143v-223h110v-151h-426v151z" />
    <glyph glyph-name="two.osf" horiz-adv-x="522" 
d="M112 297l-104 120q111 116 255 116q101 0 158.5 -46.5t57.5 -127.5q0 -58 -29.5 -100t-90.5 -86l-28 -20h173v-153h-493v111l192 141q63 46 63 85q0 31 -34 31q-41 0 -120 -71z" />
    <glyph glyph-name="three.osf" horiz-adv-x="495" 
d="M380 227q81 -85 81 -161q0 -43 -16 -78t-56 -70t-120.5 -59.5t-197.5 -37.5l-35 152q126 18 173.5 42.5t47.5 55.5q0 19 -24 57q-39 -11 -107 -23l-47 140q89 14 131.5 33.5t42.5 51.5q0 33 -34 33t-127 -50l-90 127q122 93 260 93q88 0 140 -44.5t52 -114.5
q0 -93 -74 -147z" />
    <glyph glyph-name="four.osf" horiz-adv-x="574" 
d="M356 296h118v-138h77v-158h-78v-164h-201v167h-254v122l189 413l170 -79l-139 -301h53z" />
    <glyph glyph-name="five.osf" horiz-adv-x="496" 
d="M40 153l46 364h371v-154h-204l-8 -70q216 -18 216 -194q0 -235 -410 -283l-40 155q134 21 186.5 50.5t52.5 72.5q0 65 -124 65q-46 0 -86 -6z" />
    <glyph glyph-name="six.osf" horiz-adv-x="560" 
d="M405 678l39 -149q-163 -21 -192 -128q36 19 91 19q83 0 127 -51t44 -145q0 -111 -59 -172t-175 -61q-120 0 -178 75.5t-58 214.5q0 53 9 102t34 101.5t64 92t104 67.5t150 34zM319 214q0 71 -35 71q-24 0 -44 -10q1 -73 9.5 -102.5t30.5 -29.5q39 0 39 71z" />
    <glyph glyph-name="seven.osf" horiz-adv-x="545" 
d="M34 352v165h486v-130l-280 -551h-213l264 516h-257z" />
    <glyph glyph-name="eight.osf" horiz-adv-x="559" 
d="M34 171q0 89 92 166q-75 58 -75 137q0 82 62 132.5t171 50.5q108 0 159 -45t51 -116q0 -70 -71 -143q100 -75 100 -169q0 -84 -64 -138.5t-190 -54.5q-68 0 -116.5 16t-73 43.5t-35 57t-10.5 63.5zM310 175q0 16 -8.5 30.5t-19 24.5t-29.5 26q-32 -41 -32 -75
q0 -20 11.5 -34.5t33.5 -14.5q21 0 32.5 12t11.5 31zM278 527q-13 0 -25 -9.5t-12 -28.5q0 -29 44 -63q33 33 33 63q0 38 -40 38z" />
    <glyph glyph-name="nine.osf" horiz-adv-x="560" 
d="M153 -138l-40 149q84 11 131.5 34.5t63.5 80.5q-42 -21 -94 -21q-83 0 -126.5 50.5t-43.5 144.5q0 110 61.5 171.5t177.5 61.5q231 0 231 -289q0 -54 -8 -101.5t-32 -99t-62.5 -88.5t-105 -63t-153.5 -30zM239 310q0 -71 35 -71q24 0 44 10q-1 72 -9.5 102t-30.5 30
q-39 0 -39 -71z" />
    <glyph glyph-name="dollar.osf" 
d="M13 67l63 155q37 -24 92.5 -44t88.5 -20q45 0 45 32q0 20 -14.5 29t-55.5 22q-7 2 -10 3q-33 10 -51 16.5t-47 23t-44 35t-27.5 51t-12.5 72.5q0 75 41.5 125t113.5 69v111h162v-112q97 -23 161 -90l-100 -122q-83 62 -138 62q-17 0 -29.5 -8.5t-12.5 -23.5
q0 -20 19 -31.5t64 -26.5q29 -10 44 -16t40.5 -18t39.5 -25.5t29.5 -33t22 -45.5t6.5 -58q0 -72 -39 -121t-107 -70v-116h-162v108q-53 8 -103 27t-79 40z" />
    <glyph glyph-name="Euro.osf" 
d="M25 250v147h88q-39 37 -39 87q0 80 59 126.5t169 46.5q57 0 118.5 -25t108.5 -77l-99 -111q-38 30 -63 42.5t-58 12.5q-59 0 -59 -50q0 -52 75 -52h122v-147h-119q-80 0 -80 -57q0 -54 73 -54q64 0 141 52l72 -130q-106 -78 -242 -78q-115 0 -169 44.5t-54 121.5
q0 57 40 101h-84z" />
    <glyph glyph-name="cent.osf" 
d="M219 -120v123q-76 20 -123 81t-47 165q0 109 47.5 173.5t122.5 85.5v117h162v-116q79 -27 126 -101l-120 -101q-41 58 -76 58q-68 0 -68 -108q0 -110 68 -110q37 0 76 58l120 -101q-52 -80 -126 -101v-123h-162z" />
    <glyph glyph-name="sterling.osf" horiz-adv-x="590" 
d="M71 117v133h77l38 185q24 117 80.5 169.5t156.5 52.5q73 0 126 -29.5t84 -65.5l-99 -114q-54 54 -94 54q-27 0 -40 -16.5t-22 -61.5l-36 -174h123v-132h-148l-6 -24q-18 -78 -79 -129l2 -3q54 20 94 20q32 0 87.5 -9.5t81.5 -9.5q40 0 71 15l-20 -162q-35 -7 -64 -7
q-47 0 -151.5 19t-157.5 19q-81 0 -157 -39v154q36 12 58.5 34.5t33.5 67.5l14 53h-53z" />
    <glyph glyph-name="yen.osf" horiz-adv-x="568" 
d="M171 110h-121v114h121v53h-121v114h59l-117 253h206l82 -218h5l91 218h199l-129 -253h58v-114h-125v-53h125v-114h-125v-110h-208v110z" />
    <glyph glyph-name="florin.osf" horiz-adv-x="605" 
d="M59 231l24 158h123l10 61q8 44 19.5 76t35 64.5t65 49.5t99.5 17q105 0 180 -48l-63 -122q-34 20 -74 20q-50 0 -59 -47l-13 -71h131l-27 -158h-130l-41 -238q-7 -41 -19.5 -72t-37.5 -63.5t-70.5 -50t-108.5 -17.5q-39 0 -85.5 13.5t-77.5 33.5l61 125q35 -22 78 -22
q47 0 55 46l44 245h-119z" />
    <glyph glyph-name="dollar.tosf" 
d="M-3 67l63 155q37 -24 92.5 -44t88.5 -20q45 0 45 32q0 20 -14.5 29t-55.5 22q-7 2 -10 3q-33 10 -51 16.5t-47 23t-44 35t-27.5 51t-12.5 72.5q0 75 41.5 125t113.5 69v111h162v-112q97 -23 161 -90l-100 -122q-83 62 -138 62q-17 0 -29.5 -8.5t-12.5 -23.5
q0 -20 19 -31.5t64 -26.5q29 -10 44 -16t40.5 -18t39.5 -25.5t29.5 -33t22 -45.5t6.5 -58q0 -72 -39 -121t-107 -70v-116h-162v108q-53 8 -103 27t-79 40z" />
    <glyph glyph-name="Euro.tosf" 
d="M31 250v147h88q-39 37 -39 87q0 80 59 126.5t169 46.5q57 0 118.5 -25t108.5 -77l-99 -111q-38 30 -63 42.5t-58 12.5q-59 0 -59 -50q0 -52 75 -52h122v-147h-119q-80 0 -80 -57q0 -54 73 -54q64 0 141 52l72 -130q-106 -78 -242 -78q-115 0 -169 44.5t-54 121.5
q0 57 40 101h-84z" />
    <glyph glyph-name="cent.tosf" 
d="M229 -118v123q-76 20 -123 81t-47 165q0 109 47.5 173.5t122.5 85.5v117h162v-116q79 -27 126 -101l-120 -101q-41 58 -76 58q-68 0 -68 -108q0 -110 68 -110q37 0 76 58l120 -101q-52 -80 -126 -101v-123h-162z" />
    <glyph glyph-name="sterling.tosf" 
d="M52 117v133h77l38 185q24 117 80.5 169.5t156.5 52.5q73 0 126 -29.5t84 -65.5l-99 -114q-54 54 -94 54q-27 0 -40 -16.5t-22 -61.5l-36 -174h123v-132h-148l-6 -24q-18 -78 -79 -129l2 -3q54 20 94 20q32 0 87.5 -9.5t81.5 -9.5q40 0 71 15l-20 -162q-35 -7 -64 -7
q-47 0 -151.5 19t-157.5 19q-81 0 -157 -39v154q36 12 58.5 34.5t33.5 67.5l14 53h-53z" />
    <glyph glyph-name="yen.tosf" 
d="M169 110h-121v114h121v53h-121v114h59l-117 253h206l82 -218h5l91 218h199l-129 -253h58v-114h-125v-53h125v-114h-125v-110h-208v110z" />
    <glyph glyph-name="florin.tosf" 
d="M29 231l24 158h123l10 61q8 44 19.5 76t35 64.5t65 49.5t99.5 17q105 0 180 -48l-63 -122q-34 20 -74 20q-50 0 -59 -47l-13 -71h131l-27 -158h-130l-41 -238q-7 -41 -19.5 -72t-37.5 -63.5t-70.5 -50t-108.5 -17.5q-39 0 -85.5 13.5t-77.5 33.5l61 125q35 -22 78 -22
q47 0 55 46l44 245h-119z" />
    <glyph glyph-name="a.alt" 
d="M83 349l-34 143q103 41 219 41q114 0 161 -43.5t47 -161.5v-177q0 -35 24 -35q9 0 21 3l14 -108q-49 -24 -107 -24q-79 0 -105 65q-28 -30 -69 -47.5t-82 -17.5q-155 0 -155 164q0 92 57.5 128t160.5 36l46 -2v24q0 27 -10.5 37.5t-32.5 10.5q-56 0 -155 -36zM281 136v72
q-14 2 -27 2q-45 0 -45 -45q0 -44 31 -44q17 0 41 15z" />
    <glyph glyph-name="e.alt" horiz-adv-x="491" 
d="M281 533q90 0 146.5 -49t56.5 -141q0 -60 -21 -130h-251q1 -81 91 -81q63 0 125 41l55 -133q-4 -4 -25.5 -15.5t-72.5 -26t-105 -14.5q-137 0 -201.5 73.5t-64.5 195.5q0 75 27.5 137t89.5 102.5t150 40.5zM270 393q-24 0 -41.5 -19.5t-18.5 -60.5h96q3 21 3 38
q-1 42 -39 42z" />
    <glyph glyph-name="g.alt" horiz-adv-x="527" 
d="M460 328q0 -79 -54 -123t-139 -44q-21 0 -43 3l-10 -32l111 -18q113 -18 161 -50t48 -110q0 -77 -71.5 -127.5t-204.5 -50.5q-240 0 -240 128q0 35 17 58t53 51q-34 16 -34 51q0 20 20 62l30 61q-83 52 -83 159q0 86 57.5 136.5t156.5 50.5q70 0 121 -24l170 20v-131
l-86 15l-4 -7q24 -31 24 -78zM286 -32l-79 13q-23 -25 -23 -42q0 -39 86 -39q70 0 70 35q0 5 -1 9t-2 7t-4.5 5t-5.5 3.5t-8 3t-9 2t-11.5 1.5t-12.5 2zM246 271q33 0 33 71q0 84 -35 84t-35 -71q0 -84 37 -84z" />
    <glyph glyph-name="k.alt" horiz-adv-x="552" 
d="M243 695v-389h3l101 211h213l-135 -251l123 -266h-216l-56 133l-80 -133h-151v695h198z" />
    <glyph glyph-name="v.alt" horiz-adv-x="575" 
d="M338 517h228l-136 -517h-271l-150 517h235l46 -326h6z" />
    <glyph glyph-name="w.alt" horiz-adv-x="757" 
d="M530 517h223l-106 -517h-232l-35 219h-3l-43 -219h-220l-111 517h231l30 -260h5l36 260h156l45 -263h4z" />
    <glyph glyph-name="y.alt" horiz-adv-x="540" 
d="M328 517h213l-164 -515q-38 -118 -98.5 -172t-155.5 -54q-87 0 -156 42l43 140q48 -21 82 -21q29 0 44.5 11.5t25.5 34.5l11 26l-170 508h214l53 -263h4z" />
    <glyph glyph-name="z.alt" horiz-adv-x="481" 
d="M459 0h-434v126l183 235h-175v156h417v-122l-185 -236h194v-159z" />
    <glyph glyph-name="ae.alt" horiz-adv-x="753" 
d="M241 127q25 0 51 17q-9 26 -14 64q-21 0 -34 -2t-24 -12t-11 -29q0 -38 32 -38zM532 393q-24 0 -41.5 -19.5t-19.5 -60.5h96q4 19 4 38q-1 42 -39 42zM557 533q80 0 134.5 -49.5t54.5 -140.5q0 -67 -22 -130h-250q1 -81 90 -81q64 0 126 41l55 -135q-4 -4 -25.5 -15
t-72.5 -25t-105 -14q-132 0 -200 71q-83 -68 -173 -68q-79 0 -115.5 44.5t-36.5 119.5q0 93 56 129.5t171 36.5q13 0 37 -2v22q0 27 -10.5 37.5t-32.5 10.5q-28 0 -74.5 -10t-82.5 -26l-32 143q103 41 219 41q89 0 136 -50q66 50 153 50z" />
    <glyph glyph-name="oe.alt" horiz-adv-x="778" 
d="M568 533q90 0 146.5 -49t56.5 -141q0 -60 -21 -130h-251q1 -81 91 -81q63 0 125 41l55 -135q-4 -4 -25.5 -15t-72.5 -25t-105 -14q-110 0 -163 53q-58 -53 -149 -53q-114 0 -177.5 67.5t-63.5 200.5q0 75 23.5 132t62 88t81.5 46t88 15q95 0 147 -52q55 52 152 52z
M263 129q23 0 32.5 28.5t9.5 98.5q0 73 -9.5 103.5t-33.5 30.5q-41 0 -41 -116q0 -72 8 -108.5t34 -36.5zM557 393q-24 0 -41.5 -19.5t-18.5 -60.5h96q3 21 3 38q-1 42 -39 42z" />
    <glyph glyph-name="Q.alt" horiz-adv-x="669" 
d="M641 331q0 -116 -42 -194.5t-118 -116.5q13 -5 53.5 -26.5t72.5 -31.5t69 -10q25 0 46 4l-22 -154q-28 -2 -40 -2q-53 0 -103 15.5t-83.5 34t-77.5 34t-85 15.5q-29 0 -58 -7l15 101q-116 17 -178.5 103t-62.5 235q0 92 28 161.5t75.5 108t101.5 57.5t113 19
q62 0 113.5 -19t93.5 -58.5t65.5 -108t23.5 -160.5zM240 334q0 -186 97 -186q34 0 55.5 28t29 65.5t7.5 86.5q0 31 -4 58.5t-13.5 56t-30 45.5t-49.5 17q-47 0 -69.5 -49.5t-22.5 -121.5z" />
    <glyph glyph-name="ampersand.alt" horiz-adv-x="731" 
d="M311 484q0 -26 30 -64.5t54 -60.5t65 -57q5 39 -4 104h171q5 -31 5 -73q0 -84 -28 -150q72 -58 117 -88l-111 -149q-49 33 -125 94q-75 -57 -198 -57q-67 0 -117 18t-77 49t-40 66t-13 75q0 119 106 199q-29 41 -29 101q0 82 61 133.5t165 51.5q76 0 126 -28t89 -85
l-142 -98q-19 32 -34 47t-32 15q-18 0 -28.5 -12t-10.5 -31zM289 137q35 0 57 15q-49 43 -105 103q-18 -28 -18 -54q0 -29 16 -46.5t50 -17.5z" />
    <glyph glyph-name="Euro.alt" horiz-adv-x="575" 
d="M375 151q51 0 109 45l79 -125q-92 -83 -208 -83q-119 0 -188.5 65.5t-82.5 196.5h-64v147h66q19 137 93.5 198.5t176.5 61.5q134 0 219 -117l-109 -111q-19 19 -30.5 29t-30 18.5t-37.5 8.5q-63 0 -80 -88h124v-147h-126q14 -99 89 -99z" />
    <glyph glyph-name="Euro_tf.alt" 
d="M344 151q51 0 109 45l79 -125q-92 -83 -208 -83q-117 0 -184 66.5t-77 195.5h-54v147h56q9 73 33.5 125.5t61 81t77 41t88.5 12.5q134 0 219 -117l-109 -111q-19 19 -30.5 29t-30 18.5t-37.5 8.5q-60 0 -70 -88h114v-147h-116q8 -99 79 -99z" />
    <glyph glyph-name="agrave.alt" 
d="M83 349l-34 143q103 41 219 41q114 0 161 -43.5t47 -161.5v-177q0 -35 24 -35q9 0 21 3l14 -108q-49 -24 -107 -24q-79 0 -105 65q-28 -30 -69 -47.5t-82 -17.5q-155 0 -155 164q0 92 57.5 128t160.5 36l46 -2v24q0 27 -10.5 37.5t-32.5 10.5q-56 0 -155 -36zM281 136v72
q-14 2 -27 2q-45 0 -45 -45q0 -44 31 -44q17 0 41 15zM209 825l131 -215l-55 -46q-23 13 -67 45.5t-75 62.5q-37 37 -37 64q0 34 32 56.5t71 32.5z" />
    <glyph glyph-name="aacute.alt" 
d="M83 349l-34 143q103 41 219 41q114 0 161 -43.5t47 -161.5v-177q0 -35 24 -35q9 0 21 3l14 -108q-49 -24 -107 -24q-79 0 -105 65q-28 -30 -69 -47.5t-82 -17.5q-155 0 -155 164q0 92 57.5 128t160.5 36l46 -2v24q0 27 -10.5 37.5t-32.5 10.5q-56 0 -155 -36zM281 136v72
q-14 2 -27 2q-45 0 -45 -45q0 -44 31 -44q17 0 41 15zM146 610l130 215q39 -10 71 -32.5t32 -56.5q0 -27 -37 -64q-31 -30 -75 -62.5t-67 -45.5z" />
    <glyph glyph-name="acircumflex.alt" 
d="M83 349l-34 143q103 41 219 41q114 0 161 -43.5t47 -161.5v-177q0 -35 24 -35q9 0 21 3l14 -108q-49 -24 -107 -24q-79 0 -105 65q-28 -30 -69 -47.5t-82 -17.5q-155 0 -155 164q0 92 57.5 128t160.5 36l46 -2v24q0 27 -10.5 37.5t-32.5 10.5q-56 0 -155 -36zM281 136v72
q-14 2 -27 2q-45 0 -45 -45q0 -44 31 -44q17 0 41 15zM131 563l-62 50q54 82 115 151q25 27 38 35.5t36 8.5q24 0 36.5 -8t37.5 -36q54 -61 118 -150l-62 -51l-130 107z" />
    <glyph glyph-name="atilde.alt" 
d="M83 349l-34 143q103 41 219 41q114 0 161 -43.5t47 -161.5v-177q0 -35 24 -35q9 0 21 3l14 -108q-49 -24 -107 -24q-79 0 -105 65q-28 -30 -69 -47.5t-82 -17.5q-155 0 -155 164q0 92 57.5 128t160.5 36l46 -2v24q0 27 -10.5 37.5t-32.5 10.5q-56 0 -155 -36zM281 136v72
q-14 2 -27 2q-45 0 -45 -45q0 -44 31 -44q17 0 41 15zM110 610l-13 106q44 33 90 33q29 0 75 -14t70 -14q32 0 67 20l10 -113q-34 -20 -72 -20q-24 0 -75.5 12t-71.5 12q-40 0 -80 -22z" />
    <glyph glyph-name="adieresis.alt" 
d="M83 349l-34 143q103 41 219 41q114 0 161 -43.5t47 -161.5v-177q0 -35 24 -35q9 0 21 3l14 -108q-49 -24 -107 -24q-79 0 -105 65q-28 -30 -69 -47.5t-82 -17.5q-155 0 -155 164q0 92 57.5 128t160.5 36l46 -2v24q0 27 -10.5 37.5t-32.5 10.5q-56 0 -155 -36zM281 136v72
q-14 2 -27 2q-45 0 -45 -45q0 -44 31 -44q17 0 41 15zM280 672q0 34 24 57t63 23t63 -23t24 -57t-24 -57t-63 -23q-40 0 -63.5 22.5t-23.5 57.5zM57 672q0 34 24 57t63 23t63 -23t24 -57t-24 -57t-63 -23q-40 0 -63.5 22.5t-23.5 57.5z" />
    <glyph glyph-name="aring.alt" 
d="M83 349l-34 143q103 41 219 41q114 0 161 -43.5t47 -161.5v-177q0 -35 24 -35q9 0 21 3l14 -108q-49 -24 -107 -24q-79 0 -105 65q-28 -30 -69 -47.5t-82 -17.5q-155 0 -155 164q0 92 57.5 128t160.5 36l46 -2v24q0 27 -10.5 37.5t-32.5 10.5q-56 0 -155 -36zM281 136v72
q-14 2 -27 2q-45 0 -45 -45q0 -44 31 -44q17 0 41 15zM148 679q0 46 31 75.5t78 29.5q51 0 80 -28.5t29 -71.5q0 -48 -31 -78.5t-80 -30.5q-50 0 -78.5 29.5t-28.5 74.5zM225 679q0 -35 32 -35t32 35t-32 35t-32 -35z" />
    <glyph glyph-name="egrave.alt" horiz-adv-x="491" 
d="M281 533q90 0 146.5 -49t56.5 -141q0 -60 -21 -130h-251q1 -81 91 -81q63 0 125 41l55 -133q-4 -4 -25.5 -15.5t-72.5 -26t-105 -14.5q-137 0 -201.5 73.5t-64.5 195.5q0 75 27.5 137t89.5 102.5t150 40.5zM270 393q-24 0 -41.5 -19.5t-18.5 -60.5h96q3 21 3 38
q-1 42 -39 42zM235 825l131 -215l-55 -46q-23 13 -67 45.5t-75 62.5q-37 37 -37 64q0 34 32 56.5t71 32.5z" />
    <glyph glyph-name="eacute.alt" horiz-adv-x="491" 
d="M281 533q90 0 146.5 -49t56.5 -141q0 -60 -21 -130h-251q1 -81 91 -81q63 0 125 41l55 -133q-4 -4 -25.5 -15.5t-72.5 -26t-105 -14.5q-137 0 -201.5 73.5t-64.5 195.5q0 75 27.5 137t89.5 102.5t150 40.5zM270 393q-24 0 -41.5 -19.5t-18.5 -60.5h96q3 21 3 38
q-1 42 -39 42zM174 610l130 215q39 -10 71 -32.5t32 -56.5q0 -27 -37 -64q-31 -30 -75 -62.5t-67 -45.5z" />
    <glyph glyph-name="ecircumflex.alt" horiz-adv-x="491" 
d="M281 533q90 0 146.5 -49t56.5 -141q0 -60 -21 -130h-251q1 -81 91 -81q63 0 125 41l55 -133q-4 -4 -25.5 -15.5t-72.5 -26t-105 -14.5q-137 0 -201.5 73.5t-64.5 195.5q0 75 27.5 137t89.5 102.5t150 40.5zM270 393q-24 0 -41.5 -19.5t-18.5 -60.5h96q3 21 3 38
q-1 42 -39 42zM144 563l-62 50q54 82 115 151q25 27 38 35.5t36 8.5q24 0 36.5 -8t37.5 -36q54 -61 118 -150l-62 -51l-130 107z" />
    <glyph glyph-name="edieresis.alt" horiz-adv-x="491" 
d="M281 533q90 0 146.5 -49t56.5 -141q0 -60 -21 -130h-251q1 -81 91 -81q63 0 125 41l55 -133q-4 -4 -25.5 -15.5t-72.5 -26t-105 -14.5q-137 0 -201.5 73.5t-64.5 195.5q0 75 27.5 137t89.5 102.5t150 40.5zM270 393q-24 0 -41.5 -19.5t-18.5 -60.5h96q3 21 3 38
q-1 42 -39 42zM296 672q0 34 24 57t63 23t63 -23t24 -57t-24 -57t-63 -23q-40 0 -63.5 22.5t-23.5 57.5zM73 672q0 34 24 57t63 23t63 -23t24 -57t-24 -57t-63 -23q-40 0 -63.5 22.5t-23.5 57.5z" />
    <glyph glyph-name="yacute.alt" horiz-adv-x="540" 
d="M328 517h213l-164 -515q-38 -118 -98.5 -172t-155.5 -54q-87 0 -156 42l43 140q48 -21 82 -21q29 0 44.5 11.5t25.5 34.5l11 26l-170 508h214l53 -263h4zM174 610l130 215q39 -10 71 -32.5t32 -56.5q0 -27 -37 -64q-31 -30 -75 -62.5t-67 -45.5z" />
    <glyph glyph-name="ydieresis.alt" horiz-adv-x="540" 
d="M328 517h213l-164 -515q-38 -118 -98.5 -172t-155.5 -54q-87 0 -156 42l43 140q48 -21 82 -21q29 0 44.5 11.5t25.5 34.5l11 26l-170 508h214l53 -263h4zM301 672q0 34 24 57t63 23t63 -23t24 -57t-24 -57t-63 -23q-40 0 -63.5 22.5t-23.5 57.5zM78 672q0 34 24 57t63 23
t63 -23t24 -57t-24 -57t-63 -23q-40 0 -63.5 22.5t-23.5 57.5z" />
    <glyph glyph-name="amacron.alt" 
d="M83 349l-34 143q103 41 219 41q114 0 161 -43.5t47 -161.5v-177q0 -35 24 -35q9 0 21 3l14 -108q-49 -24 -107 -24q-79 0 -105 65q-28 -30 -69 -47.5t-82 -17.5q-155 0 -155 164q0 92 57.5 128t160.5 36l46 -2v24q0 27 -10.5 37.5t-32.5 10.5q-56 0 -155 -36zM281 136v72
q-14 2 -27 2q-45 0 -45 -45q0 -44 31 -44q17 0 41 15zM78 606v130h340v-130h-340z" />
    <glyph glyph-name="abreve.alt" 
d="M83 349l-34 143q103 41 219 41q114 0 161 -43.5t47 -161.5v-177q0 -35 24 -35q9 0 21 3l14 -108q-49 -24 -107 -24q-79 0 -105 65q-28 -30 -69 -47.5t-82 -17.5q-155 0 -155 164q0 92 57.5 128t160.5 36l46 -2v24q0 27 -10.5 37.5t-32.5 10.5q-56 0 -155 -36zM281 136v72
q-14 2 -27 2q-45 0 -45 -45q0 -44 31 -44q17 0 41 15zM343 774l99 -28q-47 -162 -191 -162q-84 0 -129 47.5t-62 114.5l103 28q18 -42 37.5 -59t54.5 -17q31 0 50.5 17.5t37.5 58.5z" />
    <glyph glyph-name="aogonek.alt" 
d="M83 349l-34 143q103 41 219 41q114 0 161 -43.5t47 -161.5v-177q0 -35 24 -35q9 0 21 3l14 -108q-40 -21 -68 -57.5t-28 -65.5q0 -31 33 -31q24 0 47 11l33 -96q-41 -24 -109 -24q-66 0 -99 30t-33 76q0 72 73 140q-45 15 -61 58q-28 -30 -69 -47.5t-82 -17.5
q-155 0 -155 164q0 92 57.5 128t160.5 36l46 -2v24q0 27 -10.5 37.5t-32.5 10.5q-56 0 -155 -36zM281 136v72q-14 2 -27 2q-45 0 -45 -45q0 -44 31 -44q17 0 41 15z" />
    <glyph glyph-name="emacron.alt" horiz-adv-x="491" 
d="M281 533q90 0 146.5 -49t56.5 -141q0 -60 -21 -130h-251q1 -81 91 -81q63 0 125 41l55 -133q-4 -4 -25.5 -15.5t-72.5 -26t-105 -14.5q-137 0 -201.5 73.5t-64.5 195.5q0 75 27.5 137t89.5 102.5t150 40.5zM270 393q-24 0 -41.5 -19.5t-18.5 -60.5h96q3 21 3 38
q-1 42 -39 42zM100 606v130h340v-130h-340z" />
    <glyph glyph-name="ebreve.alt" horiz-adv-x="491" 
d="M281 533q90 0 146.5 -49t56.5 -141q0 -60 -21 -130h-251q1 -81 91 -81q63 0 125 41l55 -133q-4 -4 -25.5 -15.5t-72.5 -26t-105 -14.5q-137 0 -201.5 73.5t-64.5 195.5q0 75 27.5 137t89.5 102.5t150 40.5zM270 393q-24 0 -41.5 -19.5t-18.5 -60.5h96q3 21 3 38
q-1 42 -39 42zM369 774l99 -28q-47 -162 -191 -162q-84 0 -129 47.5t-62 114.5l103 28q18 -42 37.5 -59t54.5 -17q31 0 50.5 17.5t37.5 58.5z" />
    <glyph glyph-name="edotaccent.alt" horiz-adv-x="491" 
d="M281 533q90 0 146.5 -49t56.5 -141q0 -60 -21 -130h-251q1 -81 91 -81q63 0 125 41l55 -133q-4 -4 -25.5 -15.5t-72.5 -26t-105 -14.5q-137 0 -201.5 73.5t-64.5 195.5q0 75 27.5 137t89.5 102.5t150 40.5zM270 393q-24 0 -41.5 -19.5t-18.5 -60.5h96q3 21 3 38
q-1 42 -39 42zM172 665q0 40 28 68t74 28t75 -28t29 -68q0 -41 -28.5 -68t-74.5 -27q-47 0 -75 27t-28 68z" />
    <glyph glyph-name="eogonek.alt" horiz-adv-x="484" 
d="M287 533q86 0 136 -42t50 -127q0 -159 -247 -183q13 -49 79 -49q59 0 122 41l51 -132l-11 -5q-11 -5 -33.5 -17t-45.5 -26q-32 -20 -52 -49.5t-20 -55.5q0 -31 33 -31q24 0 47 11l33 -96q-41 -24 -109 -24q-66 0 -99 30t-33 76q0 66 63 131q-119 6 -175 74t-56 183
q0 56 17 107t49 92.5t84 66.5t117 25zM301 366q0 27 -26 27q-23 0 -40 -23.5t-19 -69.5q39 4 62 23.5t23 42.5z" />
    <glyph glyph-name="ecaron.alt" horiz-adv-x="491" 
d="M281 533q90 0 146.5 -49t56.5 -141q0 -60 -21 -130h-251q1 -81 91 -81q63 0 125 41l55 -133q-4 -4 -25.5 -15.5t-72.5 -26t-105 -14.5q-137 0 -201.5 73.5t-64.5 195.5q0 75 27.5 137t89.5 102.5t150 40.5zM270 393q-24 0 -41.5 -19.5t-18.5 -60.5h96q3 21 3 38
q-1 42 -39 42zM397 808l63 -50q-54 -82 -115 -151q-25 -27 -38 -35.5t-36 -8.5q-25 0 -38 8t-37 36q-61 70 -118 150l63 51l130 -107z" />
    <glyph glyph-name="gcircumflex.alt" horiz-adv-x="527" 
d="M460 328q0 -79 -54 -123t-139 -44q-21 0 -43 3l-10 -32l111 -18q113 -18 161 -50t48 -110q0 -77 -71.5 -127.5t-204.5 -50.5q-240 0 -240 128q0 35 17 58t53 51q-34 16 -34 51q0 20 20 62l30 61q-83 52 -83 159q0 86 57.5 136.5t156.5 50.5q70 0 121 -24l170 20v-131
l-86 15l-4 -7q24 -31 24 -78zM286 -32l-79 13q-23 -25 -23 -42q0 -39 86 -39q70 0 70 35q0 5 -1 9t-2 7t-4.5 5t-5.5 3.5t-8 3t-9 2t-11.5 1.5t-12.5 2zM246 271q33 0 33 71q0 84 -35 84t-35 -71q0 -84 37 -84zM115 563l-62 50q54 82 115 151q25 27 38 35.5t36 8.5
q24 0 36.5 -8t37.5 -36q54 -61 118 -150l-62 -51l-130 107z" />
    <glyph glyph-name="gbreve.alt" horiz-adv-x="527" 
d="M460 328q0 -79 -54 -123t-139 -44q-21 0 -43 3l-10 -32l111 -18q113 -18 161 -50t48 -110q0 -77 -71.5 -127.5t-204.5 -50.5q-240 0 -240 128q0 35 17 58t53 51q-34 16 -34 51q0 20 20 62l30 61q-83 52 -83 159q0 86 57.5 136.5t156.5 50.5q70 0 121 -24l170 20v-131
l-86 15l-4 -7q24 -31 24 -78zM286 -32l-79 13q-23 -25 -23 -42q0 -39 86 -39q70 0 70 35q0 5 -1 9t-2 7t-4.5 5t-5.5 3.5t-8 3t-9 2t-11.5 1.5t-12.5 2zM246 271q33 0 33 71q0 84 -35 84t-35 -71q0 -84 37 -84zM331 774l99 -28q-47 -162 -191 -162q-84 0 -129 47.5
t-62 114.5l103 28q18 -42 37.5 -59t54.5 -17q31 0 50.5 17.5t37.5 58.5z" />
    <glyph glyph-name="gdotaccent.alt" horiz-adv-x="527" 
d="M460 328q0 -79 -54 -123t-139 -44q-21 0 -43 3l-10 -32l111 -18q113 -18 161 -50t48 -110q0 -77 -71.5 -127.5t-204.5 -50.5q-240 0 -240 128q0 35 17 58t53 51q-34 16 -34 51q0 20 20 62l30 61q-83 52 -83 159q0 86 57.5 136.5t156.5 50.5q70 0 121 -24l170 20v-131
l-86 15l-4 -7q24 -31 24 -78zM286 -32l-79 13q-23 -25 -23 -42q0 -39 86 -39q70 0 70 35q0 5 -1 9t-2 7t-4.5 5t-5.5 3.5t-8 3t-9 2t-11.5 1.5t-12.5 2zM246 271q33 0 33 71q0 84 -35 84t-35 -71q0 -84 37 -84zM140 665q0 40 28 68t74 28t75 -28t29 -68q0 -41 -28.5 -68
t-74.5 -27q-47 0 -75 27t-28 68z" />
    <glyph glyph-name="gcommaaccent.alt" horiz-adv-x="527" 
d="M460 328q0 -79 -54 -123t-139 -44q-21 0 -43 3l-10 -32l111 -18q113 -18 161 -50t48 -110q0 -77 -71.5 -127.5t-204.5 -50.5q-240 0 -240 128q0 35 17 58t53 51q-34 16 -34 51q0 20 20 62l30 61q-83 52 -83 159q0 86 57.5 136.5t156.5 50.5q70 0 121 -24l170 20v-131
l-86 15l-4 -7q24 -31 24 -78zM286 -32l-79 13q-23 -25 -23 -42q0 -39 86 -39q70 0 70 35q0 5 -1 9t-2 7t-4.5 5t-5.5 3.5t-8 3t-9 2t-11.5 1.5t-12.5 2zM246 271q33 0 33 71q0 84 -35 84t-35 -71q0 -84 37 -84zM347 782l-61 -221q-24 2 -39.5 4t-38 8.5t-34 19.5t-11.5 33
q0 25 22 62q43 70 95 127z" />
    <glyph glyph-name="kcommaaccent.alt" horiz-adv-x="552" 
d="M243 695v-389h3l101 211h213l-135 -251l123 -266h-216l-56 133l-80 -133h-151v695h198zM203 -43l-62 -219l67 -32q58 64 95 127q22 37 22 62q0 20 -11.5 33t-33.5 18.5t-37.5 7.5t-39.5 3z" />
    <glyph glyph-name="wcircumflex.alt" horiz-adv-x="757" 
d="M530 517h223l-106 -517h-232l-35 219h-3l-43 -219h-220l-111 517h231l30 -260h5l36 260h156l45 -263h4zM255 563l-62 50q54 82 115 151q25 27 38 35.5t36 8.5q24 0 36.5 -8t37.5 -36q54 -61 118 -150l-62 -51l-130 107z" />
    <glyph glyph-name="wgrave.alt" horiz-adv-x="757" 
d="M530 517h223l-106 -517h-232l-35 219h-3l-43 -219h-220l-111 517h231l30 -260h5l36 260h156l45 -263h4zM350 825l131 -215l-55 -46q-23 13 -67 45.5t-75 62.5q-37 37 -37 64q0 34 32 56.5t71 32.5z" />
    <glyph glyph-name="wacute.alt" horiz-adv-x="757" 
d="M530 517h223l-106 -517h-232l-35 219h-3l-43 -219h-220l-111 517h231l30 -260h5l36 260h156l45 -263h4zM257 610l130 215q39 -10 71 -32.5t32 -56.5q0 -27 -37 -64q-31 -30 -75 -62.5t-67 -45.5z" />
    <glyph glyph-name="wdieresis.alt" horiz-adv-x="757" 
d="M530 517h223l-106 -517h-232l-35 219h-3l-43 -219h-220l-111 517h231l30 -260h5l36 260h156l45 -263h4zM410 672q0 34 24 57t63 23t63 -23t24 -57t-24 -57t-63 -23q-40 0 -63.5 22.5t-23.5 57.5zM187 672q0 34 24 57t63 23t63 -23t24 -57t-24 -57t-63 -23
q-40 0 -63.5 22.5t-23.5 57.5z" />
    <glyph glyph-name="ygrave.alt" horiz-adv-x="540" 
d="M328 517h213l-164 -515q-38 -118 -98.5 -172t-155.5 -54q-87 0 -156 42l43 140q48 -21 82 -21q29 0 44.5 11.5t25.5 34.5l11 26l-170 508h214l53 -263h4zM244 825l131 -215l-55 -46q-23 13 -67 45.5t-75 62.5q-37 37 -37 64q0 34 32 56.5t71 32.5z" />
    <glyph glyph-name="ycircumflex.alt" horiz-adv-x="540" 
d="M328 517h213l-164 -515q-38 -118 -98.5 -172t-155.5 -54q-87 0 -156 42l43 140q48 -21 82 -21q29 0 44.5 11.5t25.5 34.5l11 26l-170 508h214l53 -263h4zM145 563l-62 50q54 82 115 151q25 27 38 35.5t36 8.5q24 0 36.5 -8t37.5 -36q54 -61 118 -150l-62 -51l-130 107z
" />
    <glyph glyph-name="zacute.alt" horiz-adv-x="481" 
d="M459 0h-434v126l183 235h-175v156h417v-122l-185 -236h194v-159zM154 610l130 215q39 -10 71 -32.5t32 -56.5q0 -27 -37 -64q-31 -30 -75 -62.5t-67 -45.5z" />
    <glyph glyph-name="zdotaccent.alt" horiz-adv-x="481" 
d="M459 0h-434v126l183 235h-175v156h417v-122l-185 -236h194v-159zM137 665q0 40 28 68t74 28t75 -28t29 -68q0 -41 -28.5 -68t-74.5 -27q-47 0 -75 27t-28 68z" />
    <glyph glyph-name="zcaron.alt" horiz-adv-x="481" 
d="M459 0h-434v126l183 235h-175v156h417v-122l-185 -236h194v-159zM366 808l63 -50q-54 -82 -115 -151q-25 -27 -38 -35.5t-36 -8.5q-25 0 -38 8t-37 36q-61 70 -118 150l63 51l130 -107z" />
    </font>
</defs>
</svg>
