<svg id="Layer_1" data-name="Layer 1" xmlns="http://www.w3.org/2000/svg" viewBox="0 0 779.76 118.63"><title>marsus-logo-black-text</title><path d="M74.25,114.86V55.06C74.25,40.34,66.55,27,51.38,27,36.44,27,27.61,40.34,27.61,55.06v59.8H0V3H25.58l2,13.58C33.47,5.25,46.37,1.18,57,1.18,70.37,1.18,83.72,6.61,90.07,22c10-15.85,22.86-20.37,37.35-20.37,31.7,0,47.32,19.47,47.32,53v60.23H147.15V54.61c0-14.72-6.12-27.17-21-27.17s-24.23,12.9-24.23,27.62v59.8Z"/><path d="M291.38,3.22h26.48V114.86h-26l-1.36-16.3c-6.33,13.13-23.77,19.47-36.22,19.69-33,.23-57.5-20.14-57.5-59.31C196.78,20.45,222.36.3,255,.54c14.94,0,29.21,7,35.54,18.1Zm-67,55.69c0,21.28,14.71,34,33.06,34,43.47,0,43.47-67.69,0-67.69-18.36,0-33.07,12.41-33.07,33.64Z"/><path d="M366.78,3.22l2,12.9C377.38,2.31,388.92.27,400.25.27,411.8.27,422.89,4.8,429,10.91l-12.45,24c-5.66-4.75-10.87-7.24-19.93-7.24-14.49,0-27.84,7.7-27.84,28.3v58.89H341.2V3.22Z"/><path d="M512.36,32.86c-7.92-7.48-17-10-27.62-10-13.13,0-20.37,4.07-20.37,11.09,0,7.24,6.56,11.32,20.83,12.23C506.25,47.53,533,52.29,533,82c0,19.69-16.08,36.68-48,36.68-17.66,0-35.31-2.94-51.62-19.92L446.93,79c7.92,8.83,26,15.39,38.49,15.62,10.41.22,20.15-5.21,20.15-13.36,0-7.69-6.34-10.87-22.19-11.77-21-1.58-46.18-9.28-46.18-34.64C437.2,9.06,463.91,0,484.29,0c17.43,0,30.57,3.4,43.47,14.71Z"/><path d="M578.94,3.22v58.4c0,17,9.28,29.89,26.94,29.89,17,0,28.52-14.27,28.52-31.25v-57h27.38V115.05H637.1l-1.8-15.19c-11.55,11.32-22.18,16.75-37.81,16.75-26.71,0-46.18-20.15-46.18-54.78V3.22Z"/><path d="M759.15,32.86c-7.92-7.48-17-10-27.62-10-13.13,0-20.37,4.07-20.37,11.09,0,7.24,6.56,11.32,20.83,12.23C753,47.53,779.76,52.29,779.76,82c0,19.69-16.08,36.68-48,36.68-17.66,0-35.31-2.94-51.62-19.92L693.72,79c7.92,8.83,26,15.39,38.49,15.62,10.41.22,20.15-5.21,20.15-13.36,0-7.69-6.34-10.87-22.19-11.77C709.12,67.92,684,60.22,684,34.86,684,9.06,710.7,0,731.08,0c17.43,0,30.57,3.4,43.47,14.71Z"/></svg>